<?xml version="1.0" standalone="no"?><!DOCTYPE svg PUBLIC "-//W3C//DTD SVG 1.1//EN" "http://www.w3.org/Graphics/SVG/1.1/DTD/svg11.dtd"><svg xmlns="http://www.w3.org/2000/svg" version="1.1" width="664px" height="79.8556518554688px" viewBox="0 0 664 79.8556518554688">  <desc>The advantage of having a Power of Attorney</desc>  <defs/>  <g id="Polygon23739">    <path d="M 15.9 5.9 L 10.4 5.9 L 10.4 35.1 L 6.5 35.1 L 6.5 5.9 L 1 5.9 L 1 2.4 L 15.9 2.4 L 15.9 5.9 Z M 23.2 13 C 23.6 12.5 24.1 12 24.6 11.7 C 25.3 11.2 26.2 10.9 27.1 10.9 C 28.9 10.9 30.2 11.5 31.2 12.7 C 32.2 13.8 32.6 15 32.6 17.6 C 32.61 17.62 32.6 35.1 32.6 35.1 L 28.9 35.1 C 28.9 35.1 28.89 17.62 28.9 17.6 C 28.9 15.4 27.6 14.3 26 14.3 C 24.5 14.3 23.2 15.4 23.2 17.6 C 23.23 17.62 23.2 35.1 23.2 35.1 L 19.5 35.1 L 19.5 2.4 L 23.2 2.4 C 23.2 2.4 23.23 13.02 23.2 13 Z M 40.7 24.1 C 40.7 27.9 40.8 30.1 41.6 31.1 C 42 31.7 42.8 32.2 43.7 32.2 C 44.6 32.2 45.3 31.9 45.9 31.2 C 46.5 30.5 46.6 29.6 46.6 28.5 C 46.6 28.5 50.4 28.5 50.4 28.5 C 50.3 30.7 49.8 32.3 48.4 33.8 C 47.3 35 45.7 35.5 43.7 35.5 C 41.7 35.5 40.2 35 39 33.7 C 37.2 31.8 36.9 28.2 36.9 23.2 C 36.9 18.2 37.2 14.7 39 12.8 C 40.2 11.5 41.7 10.9 43.7 10.9 C 45.6 10.9 47.1 11.5 48.3 12.8 C 50.1 14.7 50.5 18.2 50.5 24.1 C 50.5 24.1 40.7 24.1 40.7 24.1 Z M 45.8 15.3 C 45.3 14.7 44.7 14.3 43.7 14.3 C 42.6 14.3 42 14.7 41.6 15.3 C 40.8 16.1 40.7 17.8 40.7 21.3 C 40.7 21.3 46.7 21.3 46.7 21.3 C 46.7 17.8 46.5 16.1 45.8 15.3 Z M 73.9 12.6 C 75 13.8 75.8 15.4 75.8 17.8 C 75.76 17.85 75.8 35.1 75.8 35.1 L 72.2 35.1 C 72.2 35.1 72.22 33.03 72.2 33 C 71.9 33.7 71.3 34.3 70.8 34.6 C 70.1 35.2 69.3 35.5 68 35.5 C 66.3 35.5 65 35 63.9 33.7 C 63 32.7 62.4 30.9 62.4 28.4 C 62.4 26.2 63.2 24.2 64.5 23 C 65.7 21.9 67.1 21.4 69.6 21.4 C 69.6 21.39 72 21.4 72 21.4 C 72 21.4 72.03 17.62 72 17.6 C 72 15.4 71.1 14.2 69.2 14.2 C 68.4 14.2 67.8 14.5 67.4 15 C 66.7 15.7 66.5 16.5 66.5 17.8 C 66.5 17.8 62.8 17.8 62.8 17.8 C 62.8 15.9 63.2 14.1 64.6 12.7 C 65.7 11.6 67.4 10.9 69.2 10.9 C 71.2 10.9 72.8 11.5 73.9 12.6 Z M 69.9 24.1 C 68.8 24.1 68 24.3 67.3 25 C 66.6 25.6 66.1 27 66.1 28.2 C 66.1 30.7 67.1 32.2 69 32.2 C 70.8 32.2 72 30.7 72 28.5 C 72.03 28.52 72 24.1 72 24.1 C 72 24.1 69.92 24.1 69.9 24.1 Z M 80 23.2 C 80 17.6 80.2 14.5 81.8 12.7 C 82.8 11.5 84.1 10.9 85.7 10.9 C 86.8 10.9 87.6 11.2 88.3 11.7 C 88.8 12 89.3 12.5 89.7 13 C 89.65 12.97 89.7 2.4 89.7 2.4 L 93.4 2.4 L 93.4 35.1 L 89.7 35.1 C 89.7 35.1 89.74 33.3 89.7 33.3 C 89.5 33.8 88.8 34.5 88.3 34.8 C 87.6 35.2 86.8 35.5 85.7 35.5 C 84.1 35.5 82.8 35 81.8 33.8 C 80.2 31.9 80 28.8 80 23.2 Z M 89.7 28.7 C 89.7 28.7 89.7 17.8 89.7 17.8 C 89.7 16.5 89.3 15.6 88.7 15 C 88.2 14.5 87.6 14.3 86.8 14.3 C 85.9 14.3 85.2 14.7 84.8 15.3 C 83.9 16.3 83.8 18.3 83.8 23.2 C 83.8 28.2 83.9 30.2 84.8 31.2 C 85.2 31.8 85.9 32.2 86.8 32.2 C 87.6 32.2 88.2 31.9 88.7 31.4 C 89.3 30.8 89.7 29.9 89.7 28.7 Z M 100.3 11.3 L 104 29.1 L 107.5 11.3 L 111.6 11.3 L 105.9 35.1 L 102 35.1 L 96.2 11.3 L 100.3 11.3 Z M 124.8 12.6 C 125.9 13.8 126.7 15.4 126.7 17.8 C 126.68 17.85 126.7 35.1 126.7 35.1 L 123.1 35.1 C 123.1 35.1 123.14 33.03 123.1 33 C 122.8 33.7 122.2 34.3 121.8 34.6 C 121 35.2 120.2 35.5 119 35.5 C 117.2 35.5 116 35 114.9 33.7 C 113.9 32.7 113.3 30.9 113.3 28.4 C 113.3 26.2 114.1 24.2 115.5 23 C 116.7 21.9 118 21.4 120.5 21.4 C 120.52 21.39 123 21.4 123 21.4 C 123 21.4 122.95 17.62 123 17.6 C 123 15.4 122 14.2 120.1 14.2 C 119.3 14.2 118.8 14.5 118.3 15 C 117.7 15.7 117.4 16.5 117.4 17.8 C 117.4 17.8 113.7 17.8 113.7 17.8 C 113.7 15.9 114.1 14.1 115.5 12.7 C 116.6 11.6 118.3 10.9 120.1 10.9 C 122.1 10.9 123.7 11.5 124.8 12.6 Z M 120.8 24.1 C 119.7 24.1 118.9 24.3 118.2 25 C 117.5 25.6 117.1 27 117.1 28.2 C 117.1 30.7 118 32.2 120 32.2 C 121.8 32.2 123 30.7 123 28.5 C 122.95 28.52 123 24.1 123 24.1 C 123 24.1 120.84 24.1 120.8 24.1 Z M 143.4 12.7 C 144.4 13.8 144.9 15 144.9 17.6 C 144.85 17.62 144.9 35.1 144.9 35.1 L 141.1 35.1 C 141.1 35.1 141.12 17.62 141.1 17.6 C 141.1 15.5 139.8 14.3 138.3 14.3 C 136.7 14.3 135.5 15.5 135.5 17.6 C 135.47 17.62 135.5 35.1 135.5 35.1 L 131.7 35.1 L 131.7 11.3 L 135.3 11.3 C 135.3 11.3 135.33 13.16 135.3 13.2 C 135.7 12.6 136.3 12 136.8 11.7 C 137.5 11.2 138.4 10.9 139.4 10.9 C 141.2 10.9 142.4 11.5 143.4 12.7 Z M 152.9 33.7 C 151.5 32.6 150.8 30.8 150.8 28.3 C 150.78 28.34 150.8 14.2 150.8 14.2 L 148.1 14.2 L 148.1 11.3 L 150.8 11.3 L 150.8 4.8 L 154.5 4.8 L 154.5 11.3 L 158.2 11.3 L 158.2 14.2 L 154.5 14.2 C 154.5 14.2 154.51 28.2 154.5 28.2 C 154.5 30.7 155.8 31.8 158.3 31.8 C 158.3 31.8 158.3 35.1 158.3 35.1 C 156.2 35.1 154.4 35 152.9 33.7 Z M 172.1 12.6 C 173.3 13.8 174 15.4 174 17.8 C 174.01 17.85 174 35.1 174 35.1 L 170.5 35.1 C 170.5 35.1 170.47 33.03 170.5 33 C 170.1 33.7 169.6 34.3 169.1 34.6 C 168.4 35.2 167.6 35.5 166.3 35.5 C 164.5 35.5 163.3 35 162.2 33.7 C 161.3 32.7 160.7 30.9 160.7 28.4 C 160.7 26.2 161.4 24.2 162.8 23 C 164 21.9 165.4 21.4 167.9 21.4 C 167.85 21.39 170.3 21.4 170.3 21.4 C 170.3 21.4 170.29 17.62 170.3 17.6 C 170.3 15.4 169.3 14.2 167.5 14.2 C 166.7 14.2 166.1 14.5 165.6 15 C 165 15.7 164.8 16.5 164.8 17.8 C 164.8 17.8 161 17.8 161 17.8 C 161 15.9 161.5 14.1 162.9 12.7 C 163.9 11.6 165.6 10.9 167.5 10.9 C 169.4 10.9 171 11.5 172.1 12.6 Z M 168.2 24.1 C 167 24.1 166.2 24.3 165.5 25 C 164.8 25.6 164.4 27 164.4 28.2 C 164.4 30.7 165.4 32.2 167.3 32.2 C 169.1 32.2 170.3 30.7 170.3 28.5 C 170.29 28.52 170.3 24.1 170.3 24.1 C 170.3 24.1 168.17 24.1 168.2 24.1 Z M 186.7 11.7 C 187.2 12 187.7 12.5 188 13 C 188.04 12.97 188 11.3 188 11.3 L 191.6 11.3 C 191.6 11.3 191.63 35.97 191.6 36 C 191.6 39.5 191 41.2 189.7 42.6 C 188.6 43.7 186.8 44.4 185 44.4 C 183.2 44.4 181.5 43.9 180.3 42.7 C 178.9 41.4 178.4 39.7 178.4 37.6 C 178.4 37.6 182.2 37.6 182.2 37.6 C 182.2 38.8 182.3 39.7 183 40.4 C 183.4 41 184.2 41.2 185 41.2 C 185.9 41.2 186.6 40.8 187 40.3 C 187.7 39.6 187.9 38.4 187.9 36.2 C 187.9 36.2 187.9 32.7 187.9 32.7 C 187.6 33.2 187.1 33.7 186.6 34 C 185.9 34.5 185.1 34.8 184.1 34.8 C 182.5 34.8 181.2 34.2 180.2 33 C 178.7 31.3 178.3 28.7 178.3 22.9 C 178.3 17 178.7 14.4 180.2 12.6 C 181.2 11.5 182.4 10.9 184.1 10.9 C 185.1 10.9 186 11.2 186.7 11.7 Z M 183 15.3 C 182.2 16.3 182.1 18.1 182.1 22.9 C 182.1 27.7 182.2 29.5 183 30.5 C 183.5 31.1 184.2 31.5 185.1 31.5 C 185.8 31.5 186.5 31.2 187 30.8 C 187.6 30.2 187.9 29.3 187.9 28 C 187.9 28 187.9 17.8 187.9 17.8 C 187.9 16.5 187.6 15.6 187 15 C 186.5 14.5 185.8 14.3 185.1 14.3 C 184.2 14.3 183.5 14.7 183 15.3 Z M 199.9 24.1 C 199.9 27.9 200 30.1 200.8 31.1 C 201.2 31.7 202 32.2 202.9 32.2 C 203.8 32.2 204.5 31.9 205.1 31.2 C 205.7 30.5 205.8 29.6 205.8 28.5 C 205.8 28.5 209.6 28.5 209.6 28.5 C 209.5 30.7 209 32.3 207.6 33.8 C 206.5 35 204.9 35.5 202.9 35.5 C 200.9 35.5 199.5 35 198.2 33.7 C 196.4 31.8 196.1 28.2 196.1 23.2 C 196.1 18.2 196.4 14.7 198.2 12.8 C 199.4 11.5 200.9 10.9 202.9 10.9 C 204.8 10.9 206.3 11.5 207.5 12.8 C 209.3 14.7 209.7 18.2 209.7 24.1 C 209.7 24.1 199.9 24.1 199.9 24.1 Z M 205 15.3 C 204.5 14.7 203.9 14.3 202.9 14.3 C 201.8 14.3 201.2 14.7 200.8 15.3 C 200.1 16.1 199.9 17.8 199.9 21.3 C 199.9 21.3 205.9 21.3 205.9 21.3 C 205.9 17.8 205.7 16.1 205 15.3 Z M 233.9 13.2 C 235.3 15 235.6 18.4 235.6 23.2 C 235.6 28.1 235.3 31.4 233.9 33.3 C 232.7 34.9 230.9 35.5 228.8 35.5 C 226.7 35.5 225 34.9 223.8 33.3 C 222.3 31.4 222 28.1 222 23.2 C 222 18.4 222.3 15 223.8 13.2 C 225 11.5 226.7 10.9 228.8 10.9 C 230.9 10.9 232.7 11.5 233.9 13.2 Z M 226.7 15.3 C 225.9 16.5 225.8 19 225.8 23.2 C 225.8 27.5 225.9 29.9 226.7 31.1 C 227.2 31.8 227.9 32.2 228.8 32.2 C 229.7 32.2 230.5 31.8 230.9 31.1 C 231.8 29.9 231.8 27.5 231.8 23.2 C 231.8 19 231.8 16.5 230.9 15.3 C 230.5 14.7 229.7 14.3 228.8 14.3 C 227.9 14.3 227.2 14.7 226.7 15.3 Z M 248.3 5.6 C 245.8 5.6 244.6 6.8 244.6 9.2 C 244.58 9.15 244.6 11.3 244.6 11.3 L 248.3 11.3 L 248.3 14.2 L 244.6 14.2 L 244.6 35.1 L 240.9 35.1 L 240.9 14.2 L 238.1 14.2 L 238.1 11.3 L 240.9 11.3 C 240.9 11.3 240.85 9.02 240.9 9 C 240.9 6.5 241.6 4.8 242.9 3.7 C 244.4 2.5 246.2 2.2 248.3 2.2 C 248.3 2.2 248.3 5.6 248.3 5.6 Z M 264 13 C 264.3 12.5 264.9 12 265.3 11.7 C 266.1 11.2 266.9 10.9 267.9 10.9 C 269.7 10.9 270.9 11.5 271.9 12.7 C 272.9 13.8 273.4 15 273.4 17.6 C 273.37 17.62 273.4 35.1 273.4 35.1 L 269.6 35.1 C 269.6 35.1 269.65 17.62 269.6 17.6 C 269.6 15.4 268.4 14.3 266.8 14.3 C 265.2 14.3 264 15.4 264 17.6 C 263.99 17.62 264 35.1 264 35.1 L 260.3 35.1 L 260.3 2.4 L 264 2.4 C 264 2.4 263.99 13.02 264 13 Z M 288.7 12.6 C 289.9 13.8 290.6 15.4 290.6 17.8 C 290.62 17.85 290.6 35.1 290.6 35.1 L 287.1 35.1 C 287.1 35.1 287.08 33.03 287.1 33 C 286.7 33.7 286.2 34.3 285.7 34.6 C 285 35.2 284.2 35.5 282.9 35.5 C 281.1 35.5 279.9 35 278.8 33.7 C 277.9 32.7 277.3 30.9 277.3 28.4 C 277.3 26.2 278 24.2 279.4 23 C 280.6 21.9 282 21.4 284.5 21.4 C 284.46 21.39 286.9 21.4 286.9 21.4 C 286.9 21.4 286.9 17.62 286.9 17.6 C 286.9 15.4 285.9 14.2 284.1 14.2 C 283.3 14.2 282.7 14.5 282.3 15 C 281.6 15.7 281.4 16.5 281.4 17.8 C 281.4 17.8 277.7 17.8 277.7 17.8 C 277.7 15.9 278.1 14.1 279.5 12.7 C 280.5 11.6 282.3 10.9 284.1 10.9 C 286 10.9 287.6 11.5 288.7 12.6 Z M 284.8 24.1 C 283.6 24.1 282.8 24.3 282.1 25 C 281.4 25.6 281 27 281 28.2 C 281 30.7 282 32.2 283.9 32.2 C 285.7 32.2 286.9 30.7 286.9 28.5 C 286.9 28.52 286.9 24.1 286.9 24.1 C 286.9 24.1 284.78 24.1 284.8 24.1 Z M 297 11.3 L 300.7 29.1 L 304.2 11.3 L 308.3 11.3 L 302.6 35.1 L 298.7 35.1 L 292.9 11.3 L 297 11.3 Z M 314.9 35.1 L 311.1 35.1 L 311.1 11.3 L 314.9 11.3 L 314.9 35.1 Z M 315.2 7.1 L 310.8 7.1 L 310.8 2.8 L 315.2 2.8 L 315.2 7.1 Z M 331.8 12.7 C 332.8 13.8 333.2 15 333.2 17.6 C 333.22 17.62 333.2 35.1 333.2 35.1 L 329.5 35.1 C 329.5 35.1 329.49 17.62 329.5 17.6 C 329.5 15.5 328.2 14.3 326.6 14.3 C 325.1 14.3 323.8 15.5 323.8 17.6 C 323.83 17.62 323.8 35.1 323.8 35.1 L 320.1 35.1 L 320.1 11.3 L 323.7 11.3 C 323.7 11.3 323.7 13.16 323.7 13.2 C 324 12.6 324.7 12 325.2 11.7 C 325.9 11.2 326.8 10.9 327.7 10.9 C 329.5 10.9 330.8 11.5 331.8 12.7 Z M 345.9 11.7 C 346.4 12 346.9 12.5 347.2 13 C 347.25 12.97 347.2 11.3 347.2 11.3 L 350.8 11.3 C 350.8 11.3 350.84 35.97 350.8 36 C 350.8 39.5 350.2 41.2 348.9 42.6 C 347.8 43.7 346.1 44.4 344.2 44.4 C 342.4 44.4 340.7 43.9 339.5 42.7 C 338.1 41.4 337.6 39.7 337.6 37.6 C 337.6 37.6 341.4 37.6 341.4 37.6 C 341.4 38.8 341.5 39.7 342.2 40.4 C 342.6 41 343.4 41.2 344.2 41.2 C 345.1 41.2 345.8 40.8 346.2 40.3 C 346.9 39.6 347.1 38.4 347.1 36.2 C 347.1 36.2 347.1 32.7 347.1 32.7 C 346.8 33.2 346.3 33.7 345.8 34 C 345.1 34.5 344.3 34.8 343.3 34.8 C 341.7 34.8 340.4 34.2 339.4 33 C 337.9 31.3 337.5 28.7 337.5 22.9 C 337.5 17 337.9 14.4 339.4 12.6 C 340.4 11.5 341.6 10.9 343.3 10.9 C 344.3 10.9 345.2 11.2 345.9 11.7 Z M 342.2 15.3 C 341.4 16.3 341.3 18.1 341.3 22.9 C 341.3 27.7 341.4 29.5 342.2 30.5 C 342.7 31.1 343.4 31.5 344.3 31.5 C 345 31.5 345.7 31.2 346.2 30.8 C 346.8 30.2 347.1 29.3 347.1 28 C 347.1 28 347.1 17.8 347.1 17.8 C 347.1 16.5 346.8 15.6 346.2 15 C 345.7 14.5 345 14.3 344.3 14.3 C 343.4 14.3 342.7 14.7 342.2 15.3 Z M 375 12.6 C 376.1 13.8 376.9 15.4 376.9 17.8 C 376.87 17.85 376.9 35.1 376.9 35.1 L 373.3 35.1 C 373.3 35.1 373.33 33.03 373.3 33 C 373 33.7 372.4 34.3 371.9 34.6 C 371.2 35.2 370.4 35.5 369.1 35.5 C 367.4 35.5 366.2 35 365 33.7 C 364.1 32.7 363.5 30.9 363.5 28.4 C 363.5 26.2 364.3 24.2 365.6 23 C 366.8 21.9 368.2 21.4 370.7 21.4 C 370.71 21.39 373.1 21.4 373.1 21.4 C 373.1 21.4 373.15 17.62 373.1 17.6 C 373.1 15.4 372.2 14.2 370.3 14.2 C 369.5 14.2 369 14.5 368.5 15 C 367.9 15.7 367.6 16.5 367.6 17.8 C 367.6 17.8 363.9 17.8 363.9 17.8 C 363.9 15.9 364.3 14.1 365.7 12.7 C 366.8 11.6 368.5 10.9 370.3 10.9 C 372.3 10.9 373.9 11.5 375 12.6 Z M 371 24.1 C 369.9 24.1 369.1 24.3 368.4 25 C 367.7 25.6 367.3 27 367.3 28.2 C 367.3 30.7 368.2 32.2 370.2 32.2 C 371.9 32.2 373.1 30.7 373.1 28.5 C 373.15 28.52 373.1 24.1 373.1 24.1 C 373.1 24.1 371.03 24.1 371 24.1 Z M 398.2 2.4 C 403.2 2.4 406 4.7 406 12 C 406 19.1 403.1 21.5 398.2 21.5 C 398.21 21.48 394.8 21.5 394.8 21.5 L 394.8 35.1 L 390.9 35.1 L 390.9 2.4 C 390.9 2.4 398.21 2.39 398.2 2.4 Z M 394.8 5.9 L 394.8 17.9 C 394.8 17.9 398.08 17.94 398.1 17.9 C 400.7 17.9 402 16.3 402 12 C 402 7.5 400.7 5.9 398.1 5.9 C 398.08 5.93 394.8 5.9 394.8 5.9 Z M 421 13.2 C 422.5 15 422.7 18.4 422.7 23.2 C 422.7 28.1 422.5 31.4 421 33.3 C 419.8 34.9 418.1 35.5 416 35.5 C 413.9 35.5 412.2 34.9 411 33.3 C 409.5 31.4 409.2 28.1 409.2 23.2 C 409.2 18.4 409.5 15 411 13.2 C 412.2 11.5 413.9 10.9 416 10.9 C 418.1 10.9 419.8 11.5 421 13.2 Z M 413.9 15.3 C 413 16.5 412.9 19 412.9 23.2 C 412.9 27.5 413 29.9 413.9 31.1 C 414.4 31.8 415.1 32.2 416 32.2 C 416.8 32.2 417.6 31.8 418.1 31.1 C 419 29.9 419 27.5 419 23.2 C 419 19 419 16.5 418.1 15.3 C 417.6 14.7 416.8 14.3 416 14.3 C 415.1 14.3 414.4 14.7 413.9 15.3 Z M 429 11.3 L 431.8 29 L 435.2 11.3 L 438.4 11.3 L 441.8 29 L 444.6 11.3 L 448.8 11.3 L 443.8 35.1 L 440.1 35.1 L 436.8 17.9 L 433.5 35.1 L 429.9 35.1 L 424.9 11.3 L 429 11.3 Z M 454.7 24.1 C 454.7 27.9 454.8 30.1 455.7 31.1 C 456.1 31.7 456.8 32.2 457.8 32.2 C 458.6 32.2 459.3 31.9 459.9 31.2 C 460.5 30.5 460.7 29.6 460.7 28.5 C 460.7 28.5 464.4 28.5 464.4 28.5 C 464.4 30.7 463.8 32.3 462.5 33.8 C 461.3 35 459.7 35.5 457.8 35.5 C 455.8 35.5 454.3 35 453 33.7 C 451.3 31.8 450.9 28.2 450.9 23.2 C 450.9 18.2 451.3 14.7 453 12.8 C 454.2 11.5 455.8 10.9 457.7 10.9 C 459.6 10.9 461.1 11.5 462.4 12.8 C 464.2 14.7 464.5 18.2 464.5 24.1 C 464.5 24.1 454.7 24.1 454.7 24.1 Z M 459.8 15.3 C 459.3 14.7 458.7 14.3 457.7 14.3 C 456.7 14.3 456.1 14.7 455.6 15.3 C 454.9 16.1 454.7 17.8 454.7 21.3 C 454.7 21.3 460.7 21.3 460.7 21.3 C 460.7 17.8 460.5 16.1 459.8 15.3 Z M 478.2 14.5 C 478.2 14.5 477.06 14.54 477.1 14.5 C 474.5 14.5 472.7 16.2 472.7 18.9 C 472.73 18.91 472.7 35.1 472.7 35.1 L 469 35.1 L 469 11.3 L 472.6 11.3 C 472.6 11.3 472.6 13.85 472.6 13.8 C 473 13.2 473.7 12.6 474.3 12.1 C 475.4 11.4 476.6 10.9 478.2 10.9 C 478.16 10.95 478.2 14.5 478.2 14.5 Z M 501.2 13.2 C 502.7 15 502.9 18.4 502.9 23.2 C 502.9 28.1 502.7 31.4 501.2 33.3 C 500 34.9 498.3 35.5 496.1 35.5 C 494 35.5 492.3 34.9 491.1 33.3 C 489.7 31.4 489.4 28.1 489.4 23.2 C 489.4 18.4 489.7 15 491.1 13.2 C 492.3 11.5 494 10.9 496.1 10.9 C 498.3 10.9 500 11.5 501.2 13.2 Z M 494.1 15.3 C 493.2 16.5 493.1 19 493.1 23.2 C 493.1 27.5 493.2 29.9 494.1 31.1 C 494.5 31.8 495.3 32.2 496.1 32.2 C 497 32.2 497.8 31.8 498.3 31.1 C 499.1 29.9 499.2 27.5 499.2 23.2 C 499.2 19 499.1 16.5 498.3 15.3 C 497.8 14.7 497 14.3 496.1 14.3 C 495.3 14.3 494.5 14.7 494.1 15.3 Z M 515.6 5.6 C 513.2 5.6 511.9 6.8 511.9 9.2 C 511.92 9.15 511.9 11.3 511.9 11.3 L 515.6 11.3 L 515.6 14.2 L 511.9 14.2 L 511.9 35.1 L 508.2 35.1 L 508.2 14.2 L 505.5 14.2 L 505.5 11.3 L 508.2 11.3 C 508.2 11.3 508.2 9.02 508.2 9 C 508.2 6.5 508.9 4.8 510.3 3.7 C 511.7 2.5 513.6 2.2 515.6 2.2 C 515.6 2.2 515.6 5.6 515.6 5.6 Z M 532.9 2.4 L 536.7 2.4 L 544.3 35.1 L 540.1 35.1 L 538.6 27.4 L 530.9 27.4 L 529.4 35.1 L 525.2 35.1 L 532.9 2.4 Z M 537.8 23.9 L 534.7 8.8 L 531.7 23.9 L 537.8 23.9 Z M 549.9 33.7 C 548.6 32.6 547.8 30.8 547.8 28.3 C 547.85 28.34 547.8 14.2 547.8 14.2 L 545.1 14.2 L 545.1 11.3 L 547.8 11.3 L 547.8 4.8 L 551.6 4.8 L 551.6 11.3 L 555.3 11.3 L 555.3 14.2 L 551.6 14.2 C 551.6 14.2 551.58 28.2 551.6 28.2 C 551.6 30.7 552.9 31.8 555.4 31.8 C 555.4 31.8 555.4 35.1 555.4 35.1 C 553.3 35.1 551.4 35 549.9 33.7 Z M 561.9 33.7 C 560.5 32.6 559.8 30.8 559.8 28.3 C 559.81 28.34 559.8 14.2 559.8 14.2 L 557.1 14.2 L 557.1 11.3 L 559.8 11.3 L 559.8 4.8 L 563.5 4.8 L 563.5 11.3 L 567.2 11.3 L 567.2 14.2 L 563.5 14.2 C 563.5 14.2 563.54 28.2 563.5 28.2 C 563.5 30.7 564.9 31.8 567.4 31.8 C 567.4 31.8 567.4 35.1 567.4 35.1 C 565.2 35.1 563.4 35 561.9 33.7 Z M 581.9 13.2 C 583.4 15 583.6 18.4 583.6 23.2 C 583.6 28.1 583.4 31.4 581.9 33.3 C 580.7 34.9 578.9 35.5 576.8 35.5 C 574.7 35.5 573 34.9 571.8 33.3 C 570.3 31.4 570.1 28.1 570.1 23.2 C 570.1 18.4 570.3 15 571.8 13.2 C 573 11.5 574.7 10.9 576.8 10.9 C 578.9 10.9 580.7 11.5 581.9 13.2 Z M 574.8 15.3 C 573.9 16.5 573.8 19 573.8 23.2 C 573.8 27.5 573.9 29.9 574.8 31.1 C 575.2 31.8 576 32.2 576.8 32.2 C 577.7 32.2 578.5 31.8 578.9 31.1 C 579.8 29.9 579.9 27.5 579.9 23.2 C 579.9 19 579.8 16.5 578.9 15.3 C 578.5 14.7 577.7 14.3 576.8 14.3 C 576 14.3 575.2 14.7 574.8 15.3 Z M 597.3 14.5 C 597.3 14.5 596.15 14.54 596.1 14.5 C 593.6 14.5 591.8 16.2 591.8 18.9 C 591.82 18.91 591.8 35.1 591.8 35.1 L 588.1 35.1 L 588.1 11.3 L 591.7 11.3 C 591.7 11.3 591.69 13.85 591.7 13.8 C 592.1 13.2 592.7 12.6 593.3 12.1 C 594.4 11.4 595.7 10.9 597.3 10.9 C 597.25 10.95 597.3 14.5 597.3 14.5 Z M 612.3 12.7 C 613.3 13.8 613.7 15 613.7 17.6 C 613.72 17.62 613.7 35.1 613.7 35.1 L 610 35.1 C 610 35.1 609.99 17.62 610 17.6 C 610 15.5 608.7 14.3 607.1 14.3 C 605.6 14.3 604.3 15.5 604.3 17.6 C 604.34 17.62 604.3 35.1 604.3 35.1 L 600.6 35.1 L 600.6 11.3 L 604.2 11.3 C 604.2 11.3 604.2 13.16 604.2 13.2 C 604.5 12.6 605.2 12 605.7 11.7 C 606.4 11.2 607.3 10.9 608.2 10.9 C 610 10.9 611.3 11.5 612.3 12.7 Z M 621.8 24.1 C 621.8 27.9 621.9 30.1 622.7 31.1 C 623.1 31.7 623.9 32.2 624.9 32.2 C 625.7 32.2 626.4 31.9 627 31.2 C 627.6 30.5 627.7 29.6 627.7 28.5 C 627.7 28.5 631.5 28.5 631.5 28.5 C 631.4 30.7 630.9 32.3 629.5 33.8 C 628.4 35 626.8 35.5 624.9 35.5 C 622.8 35.5 621.4 35 620.1 33.7 C 618.3 31.8 618 28.2 618 23.2 C 618 18.2 618.3 14.7 620.1 12.8 C 621.3 11.5 622.8 10.9 624.8 10.9 C 626.7 10.9 628.2 11.5 629.5 12.8 C 631.2 14.7 631.6 18.2 631.6 24.1 C 631.6 24.1 621.8 24.1 621.8 24.1 Z M 626.9 15.3 C 626.4 14.7 625.8 14.3 624.8 14.3 C 623.7 14.3 623.1 14.7 622.7 15.3 C 622 16.1 621.8 17.8 621.8 21.3 C 621.8 21.3 627.8 21.3 627.8 21.3 C 627.8 17.8 627.6 16.1 626.9 15.3 Z M 642.1 39 C 641.1 43.2 638.2 44.1 634.2 44.1 C 634.2 44.1 634.2 40.8 634.2 40.8 C 636.5 40.8 638 40.2 638.5 38 C 638.51 38 639.2 35.1 639.2 35.1 L 633.5 11.3 L 637.5 11.3 L 641.2 29.2 L 644.8 11.3 L 648.9 11.3 C 648.9 11.3 642.15 38.96 642.1 39 Z " stroke="none" fill="#f9a41a"/>  </g></svg>