<?xml version="1.0" standalone="no"?><!DOCTYPE svg PUBLIC "-//W3C//DTD SVG 1.1//EN" "http://www.w3.org/Graphics/SVG/1.1/DTD/svg11.dtd"><svg xmlns="http://www.w3.org/2000/svg" version="1.1" width="293px" height="71.8556518554688px" viewBox="0 0 293 71.8556518554688">  <desc>Lincoln situs rules</desc>  <defs/>  <g id="Polygon24660">    <path d="M 6.9 31.6 L 15.6 31.6 L 15.6 35.1 L 2.9 35.1 L 2.9 2.4 L 6.9 2.4 L 6.9 31.6 Z M 23 35.1 L 19.2 35.1 L 19.2 11.3 L 23 11.3 L 23 35.1 Z M 23.3 7.1 L 18.9 7.1 L 18.9 2.8 L 23.3 2.8 L 23.3 7.1 Z M 39.9 12.7 C 40.8 13.8 41.3 15 41.3 17.6 C 41.31 17.62 41.3 35.1 41.3 35.1 L 37.6 35.1 C 37.6 35.1 37.58 17.62 37.6 17.6 C 37.6 15.5 36.3 14.3 34.7 14.3 C 33.2 14.3 31.9 15.5 31.9 17.6 C 31.92 17.62 31.9 35.1 31.9 35.1 L 28.2 35.1 L 28.2 11.3 L 31.8 11.3 C 31.8 11.3 31.79 13.16 31.8 13.2 C 32.1 12.6 32.8 12 33.3 11.7 C 34 11.2 34.9 10.9 35.8 10.9 C 37.6 10.9 38.9 11.5 39.9 12.7 Z M 47.4 13.2 C 48.6 11.5 50.4 10.9 52.4 10.9 C 54.3 10.9 55.8 11.4 57 12.6 C 58.5 13.9 58.9 15.9 59 17.9 C 59 17.9 55.2 17.9 55.2 17.9 C 55.2 17 55.2 16 54.5 15.2 C 54 14.6 53.4 14.3 52.4 14.3 C 51.6 14.3 50.8 14.7 50.3 15.3 C 49.4 16.5 49.4 18.9 49.4 23.2 C 49.4 27.6 49.4 30 50.3 31.2 C 50.8 31.8 51.6 32.2 52.4 32.2 C 53.4 32.2 54 31.9 54.5 31.3 C 55.2 30.5 55.2 29.5 55.2 28.5 C 55.2 28.5 59 28.5 59 28.5 C 58.9 30.5 58.5 32.5 57 33.9 C 55.8 35.1 54.3 35.5 52.4 35.5 C 50.4 35.5 48.6 34.9 47.4 33.3 C 45.9 31.4 45.6 28.1 45.6 23.2 C 45.6 18.4 45.9 15 47.4 13.2 Z M 74.2 13.2 C 75.7 15 75.9 18.4 75.9 23.2 C 75.9 28.1 75.7 31.4 74.2 33.3 C 73 34.9 71.3 35.5 69.1 35.5 C 67 35.5 65.3 34.9 64.1 33.3 C 62.7 31.4 62.4 28.1 62.4 23.2 C 62.4 18.4 62.7 15 64.1 13.2 C 65.3 11.5 67 10.9 69.1 10.9 C 71.3 10.9 73 11.5 74.2 13.2 Z M 67.1 15.3 C 66.2 16.5 66.1 19 66.1 23.2 C 66.1 27.5 66.2 29.9 67.1 31.1 C 67.5 31.8 68.3 32.2 69.1 32.2 C 70 32.2 70.8 31.8 71.3 31.1 C 72.1 29.9 72.2 27.5 72.2 23.2 C 72.2 19 72.1 16.5 71.3 15.3 C 70.8 14.7 70 14.3 69.1 14.3 C 68.3 14.3 67.5 14.7 67.1 15.3 Z M 83.9 28.2 C 83.9 30.5 85.1 31.8 87.5 31.8 C 87.5 31.8 87.5 35.1 87.5 35.1 C 85.5 35.1 83.8 34.9 82.3 33.7 C 81.1 32.6 80.2 31 80.2 28.3 C 80.22 28.34 80.2 2.4 80.2 2.4 L 83.9 2.4 C 83.9 2.4 83.95 28.2 83.9 28.2 Z M 102.6 12.7 C 103.5 13.8 104 15 104 17.6 C 104 17.62 104 35.1 104 35.1 L 100.3 35.1 C 100.3 35.1 100.28 17.62 100.3 17.6 C 100.3 15.5 99 14.3 97.4 14.3 C 95.9 14.3 94.6 15.5 94.6 17.6 C 94.62 17.62 94.6 35.1 94.6 35.1 L 90.9 35.1 L 90.9 11.3 L 94.5 11.3 C 94.5 11.3 94.48 13.16 94.5 13.2 C 94.8 12.6 95.4 12 96 11.7 C 96.7 11.2 97.6 10.9 98.5 10.9 C 100.3 10.9 101.6 11.5 102.6 12.7 Z M 127.9 12.6 C 129.2 13.8 129.9 15.5 129.9 17.9 C 129.9 17.9 126.2 17.9 126.2 17.9 C 126.2 16.5 125.9 15.7 125.3 15 C 124.7 14.4 124 14.2 123.3 14.2 C 122.4 14.2 121.7 14.5 121.2 15 C 120.6 15.6 120.3 16.4 120.3 17.3 C 120.3 18 120.5 18.5 120.7 19 C 121.1 19.6 121.8 20.1 122.7 20.6 C 122.7 20.6 125.8 22.1 125.8 22.1 C 127.4 22.9 128.4 23.7 129.1 24.8 C 129.8 25.8 130.1 27.1 130.1 28.7 C 130.1 30.8 129.3 32.4 128.1 33.6 C 126.8 35 125.2 35.5 123.2 35.5 C 121.3 35.5 119.6 34.9 118.4 33.7 C 117.1 32.2 116.4 30.6 116.4 28.4 C 116.4 28.4 120.1 28.4 120.1 28.4 C 120.1 29.7 120.4 30.6 121.1 31.3 C 121.7 31.9 122.5 32.2 123.2 32.2 C 124.2 32.2 124.9 31.9 125.5 31.3 C 126 30.7 126.4 29.9 126.4 28.9 C 126.4 28.1 126.2 27.4 125.8 26.7 C 125.3 26 124.7 25.5 123.7 25 C 123.7 25 120.6 23.5 120.6 23.5 C 119 22.7 117.9 21.7 117.3 20.7 C 116.8 19.8 116.6 18.8 116.6 17.6 C 116.6 15.5 117.4 13.9 118.6 12.7 C 119.8 11.5 121.4 10.9 123.3 10.9 C 125.2 10.9 126.8 11.5 127.9 12.6 Z M 137.9 35.1 L 134.2 35.1 L 134.2 11.3 L 137.9 11.3 L 137.9 35.1 Z M 138.2 7.1 L 133.9 7.1 L 133.9 2.8 L 138.2 2.8 L 138.2 7.1 Z M 146.1 33.7 C 144.8 32.6 144 30.8 144 28.3 C 144.02 28.34 144 14.2 144 14.2 L 141.3 14.2 L 141.3 11.3 L 144 11.3 L 144 4.8 L 147.7 4.8 L 147.7 11.3 L 151.4 11.3 L 151.4 14.2 L 147.7 14.2 C 147.7 14.2 147.75 28.2 147.7 28.2 C 147.7 30.7 149.1 31.8 151.6 31.8 C 151.6 31.8 151.6 35.1 151.6 35.1 C 149.5 35.1 147.6 35 146.1 33.7 Z M 168 35.1 L 164.4 35.1 C 164.4 35.1 164.45 33.3 164.4 33.3 C 164.1 33.9 163.5 34.5 163 34.8 C 162.2 35.2 161.4 35.5 160.4 35.5 C 158.6 35.5 157.4 34.9 156.4 33.8 C 155.4 32.7 154.9 31.4 154.9 28.8 C 154.92 28.84 154.9 11.3 154.9 11.3 L 158.7 11.3 C 158.7 11.3 158.65 28.84 158.7 28.8 C 158.7 31 159.9 32.2 161.5 32.2 C 163.1 32.2 164.3 31 164.3 28.8 C 164.31 28.84 164.3 11.3 164.3 11.3 L 168 11.3 L 168 35.1 Z M 183.5 12.6 C 184.8 13.8 185.5 15.5 185.5 17.9 C 185.5 17.9 181.8 17.9 181.8 17.9 C 181.8 16.5 181.5 15.7 180.9 15 C 180.4 14.4 179.6 14.2 178.9 14.2 C 178 14.2 177.3 14.5 176.8 15 C 176.2 15.6 175.9 16.4 175.9 17.3 C 175.9 18 176.1 18.5 176.4 19 C 176.7 19.6 177.4 20.1 178.3 20.6 C 178.3 20.6 181.4 22.1 181.4 22.1 C 183 22.9 184 23.7 184.7 24.8 C 185.4 25.8 185.7 27.1 185.7 28.7 C 185.7 30.8 184.9 32.4 183.7 33.6 C 182.4 35 180.8 35.5 178.8 35.5 C 176.9 35.5 175.2 34.9 174.1 33.7 C 172.7 32.2 172 30.6 172 28.4 C 172 28.4 175.7 28.4 175.7 28.4 C 175.7 29.7 176 30.6 176.7 31.3 C 177.3 31.9 178.1 32.2 178.8 32.2 C 179.8 32.2 180.5 31.9 181.1 31.3 C 181.7 30.7 182 29.9 182 28.9 C 182 28.1 181.8 27.4 181.4 26.7 C 181 26 180.3 25.5 179.3 25 C 179.3 25 176.2 23.5 176.2 23.5 C 174.7 22.7 173.6 21.7 173 20.7 C 172.5 19.8 172.2 18.8 172.2 17.6 C 172.2 15.5 173 13.9 174.2 12.7 C 175.4 11.5 177.1 10.9 178.9 10.9 C 180.8 10.9 182.4 11.5 183.5 12.6 Z M 207.5 14.5 C 207.5 14.5 206.44 14.54 206.4 14.5 C 203.9 14.5 202.1 16.2 202.1 18.9 C 202.12 18.91 202.1 35.1 202.1 35.1 L 198.4 35.1 L 198.4 11.3 L 202 11.3 C 202 11.3 201.98 13.85 202 13.8 C 202.3 13.2 203 12.6 203.6 12.1 C 204.7 11.4 206 10.9 207.5 10.9 C 207.55 10.95 207.5 14.5 207.5 14.5 Z M 223.8 35.1 L 220.2 35.1 C 220.2 35.1 220.24 33.3 220.2 33.3 C 219.9 33.9 219.3 34.5 218.8 34.8 C 218 35.2 217.2 35.5 216.2 35.5 C 214.4 35.5 213.2 34.9 212.1 33.8 C 211.2 32.7 210.7 31.4 210.7 28.8 C 210.72 28.84 210.7 11.3 210.7 11.3 L 214.4 11.3 C 214.4 11.3 214.45 28.84 214.4 28.8 C 214.4 31 215.7 32.2 217.3 32.2 C 218.9 32.2 220.1 31 220.1 28.8 C 220.11 28.84 220.1 11.3 220.1 11.3 L 223.8 11.3 L 223.8 35.1 Z M 232.6 28.2 C 232.6 30.5 233.7 31.8 236.2 31.8 C 236.2 31.8 236.2 35.1 236.2 35.1 C 234.1 35.1 232.4 34.9 231 33.7 C 229.7 32.6 228.9 31 228.9 28.3 C 228.89 28.34 228.9 2.4 228.9 2.4 L 232.6 2.4 C 232.6 2.4 232.62 28.2 232.6 28.2 Z M 242.3 24.1 C 242.3 27.9 242.4 30.1 243.2 31.1 C 243.7 31.7 244.4 32.2 245.4 32.2 C 246.2 32.2 246.9 31.9 247.5 31.2 C 248.1 30.5 248.3 29.6 248.3 28.5 C 248.3 28.5 252 28.5 252 28.5 C 251.9 30.7 251.4 32.3 250.1 33.8 C 248.9 35 247.3 35.5 245.4 35.5 C 243.3 35.5 241.9 35 240.6 33.7 C 238.8 31.8 238.5 28.2 238.5 23.2 C 238.5 18.2 238.8 14.7 240.6 12.8 C 241.8 11.5 243.3 10.9 245.3 10.9 C 247.2 10.9 248.7 11.5 250 12.8 C 251.8 14.7 252.1 18.2 252.1 24.1 C 252.1 24.1 242.3 24.1 242.3 24.1 Z M 247.4 15.3 C 246.9 14.7 246.3 14.3 245.3 14.3 C 244.3 14.3 243.7 14.7 243.2 15.3 C 242.5 16.1 242.3 17.8 242.3 21.3 C 242.3 21.3 248.3 21.3 248.3 21.3 C 248.3 17.8 248.1 16.1 247.4 15.3 Z M 266.8 12.6 C 268.1 13.8 268.8 15.5 268.8 17.9 C 268.8 17.9 265.1 17.9 265.1 17.9 C 265.1 16.5 264.8 15.7 264.2 15 C 263.7 14.4 262.9 14.2 262.2 14.2 C 261.3 14.2 260.6 14.5 260.1 15 C 259.5 15.6 259.3 16.4 259.3 17.3 C 259.3 18 259.4 18.5 259.7 19 C 260 19.6 260.7 20.1 261.6 20.6 C 261.6 20.6 264.7 22.1 264.7 22.1 C 266.3 22.9 267.3 23.7 268 24.8 C 268.7 25.8 269 27.1 269 28.7 C 269 30.8 268.2 32.4 267 33.6 C 265.7 35 264.1 35.5 262.1 35.5 C 260.2 35.5 258.5 34.9 257.4 33.7 C 256 32.2 255.3 30.6 255.3 28.4 C 255.3 28.4 259 28.4 259 28.4 C 259 29.7 259.3 30.6 260 31.3 C 260.6 31.9 261.4 32.2 262.1 32.2 C 263.1 32.2 263.8 31.9 264.4 31.3 C 265 30.7 265.3 29.9 265.3 28.9 C 265.3 28.1 265.1 27.4 264.7 26.7 C 264.3 26 263.6 25.5 262.6 25 C 262.6 25 259.5 23.5 259.5 23.5 C 258 22.7 256.9 21.7 256.3 20.7 C 255.8 19.8 255.5 18.8 255.5 17.6 C 255.5 15.5 256.3 13.9 257.5 12.7 C 258.7 11.5 260.4 10.9 262.2 10.9 C 264.1 10.9 265.7 11.5 266.8 12.6 Z " stroke="none" fill="#f9a41a"/>  </g></svg>