<?xml version="1.0" standalone="no"?><!DOCTYPE svg PUBLIC "-//W3C//DTD SVG 1.1//EN" "http://www.w3.org/Graphics/SVG/1.1/DTD/svg11.dtd"><svg xmlns="http://www.w3.org/2000/svg" version="1.1" width="640px" height="74.1358032226562px" viewBox="0 0 640 74.1358032226562">  <desc>What you should bring to the meeting</desc>  <defs/>  <g id="Polygon25386">    <path d="M 46 41.9 L 42.9 41.9 L 39.5 30.7 L 36.1 41.9 L 33.1 41.9 L 28.2 23.4 L 31.9 23.4 L 34.8 35 L 38.2 23.4 L 40.9 23.4 L 44.3 35 L 47.1 23.4 L 50.9 23.4 L 46 41.9 Z M 60.8 41.9 C 60.8 41.9 60.84 33.67 60.8 33.7 C 60.8 31.8 59.7 31.2 58.6 31.2 C 57.5 31.2 56.3 31.8 56.3 33.7 C 56.34 33.67 56.3 41.9 56.3 41.9 L 53 41.9 L 53 23.4 L 56.3 23.4 C 56.3 23.4 56.34 29.57 56.3 29.6 C 57.2 28.6 58.3 28.2 59.6 28.2 C 61 28.2 62.1 28.6 62.8 29.4 C 63.9 30.4 64.2 31.7 64.2 33.2 C 64.22 33.21 64.2 41.9 64.2 41.9 L 60.8 41.9 Z M 78.1 32.9 C 78.1 32.95 78.1 41.9 78.1 41.9 L 74.8 41.9 C 74.8 41.9 74.8 40.69 74.8 40.7 C 73.9 41.6 73 42 71.5 42 C 69.9 42 68.8 41.6 68 40.8 C 67.3 40 66.9 39 66.9 37.8 C 66.9 35.6 68.4 33.8 71.6 33.8 C 71.58 33.83 74.7 33.8 74.7 33.8 C 74.7 33.8 74.72 33.15 74.7 33.2 C 74.7 31.7 74 31 72.2 31 C 71 31 70.3 31.4 69.6 32.2 C 69.6 32.2 67.5 30.1 67.5 30.1 C 68.8 28.6 70.1 28.2 72.3 28.2 C 76.2 28.2 78.1 29.8 78.1 32.9 Z M 72.1 36.1 C 70.8 36.1 70.1 36.7 70.1 37.7 C 70.1 38.6 70.8 39.2 72.2 39.2 C 73 39.2 73.6 39.1 74.2 38.6 C 74.6 38.2 74.7 37.7 74.7 36.9 C 74.72 36.87 74.7 36.1 74.7 36.1 C 74.7 36.1 72.15 36.14 72.1 36.1 Z M 85.4 28.7 L 87.8 28.7 L 87.8 31.3 L 85.4 31.3 C 85.4 31.3 85.43 37.78 85.4 37.8 C 85.4 38.6 85.8 39 86.6 39 C 86.6 39 87.8 39 87.8 39 L 87.8 41.9 C 87.8 41.9 85.98 41.86 86 41.9 C 83.2 41.9 82.1 39.9 82.1 38 C 82.05 37.99 82.1 31.3 82.1 31.3 L 80.6 31.3 L 80.6 28.7 L 82.1 28.7 L 82.1 24.7 L 85.4 24.7 L 85.4 28.7 Z M 102 44 C 101.7 44.8 101.3 45.4 101 45.8 C 100.2 46.6 99.2 46.8 98 46.8 C 98.04 46.83 96.7 46.8 96.7 46.8 L 96.7 43.8 C 96.7 43.8 97.5 43.79 97.5 43.8 C 98.5 43.8 98.8 43.5 99.2 42.6 C 99.19 42.57 99.8 40.9 99.8 40.9 L 95.1 28.3 L 98.7 28.3 L 101.5 36.7 L 104.2 28.3 L 107.8 28.3 C 107.8 28.3 101.97 44.05 102 44 Z M 119 40.4 C 118.1 41.2 116.8 42 114.8 42 C 112.8 42 111.5 41.2 110.6 40.4 C 109.4 39.1 109.1 37.5 109.1 35.1 C 109.1 32.6 109.4 31.1 110.6 29.8 C 111.5 28.9 112.8 28.2 114.8 28.2 C 116.8 28.2 118.1 28.9 119 29.8 C 120.2 31.1 120.5 32.6 120.5 35.1 C 120.5 37.5 120.2 39.1 119 40.4 Z M 116.4 31.8 C 116 31.4 115.5 31.2 114.8 31.2 C 114.1 31.2 113.6 31.4 113.2 31.8 C 112.5 32.5 112.4 33.7 112.4 35.1 C 112.4 36.5 112.5 37.7 113.2 38.4 C 113.6 38.8 114.1 39 114.8 39 C 115.5 39 116 38.8 116.4 38.4 C 117.1 37.7 117.2 36.5 117.2 35.1 C 117.2 33.7 117.1 32.5 116.4 31.8 Z M 134.9 41.9 L 131.6 41.9 C 131.6 41.9 131.56 40.62 131.6 40.6 C 130.7 41.6 129.4 42 128.2 42 C 126.9 42 125.8 41.6 125 40.8 C 123.9 39.7 123.6 38.5 123.6 37 C 123.6 36.98 123.6 28.3 123.6 28.3 L 127 28.3 C 127 28.3 126.98 36.51 127 36.5 C 127 38.4 128.2 39 129.2 39 C 130.3 39 131.5 38.4 131.5 36.5 C 131.48 36.51 131.5 28.3 131.5 28.3 L 134.9 28.3 L 134.9 41.9 Z M 154.5 29.7 C 154.5 29.7 152.4 31.9 152.4 31.9 C 151.6 31.2 150.4 30.9 149.2 30.9 C 147.9 30.9 147.3 31.6 147.3 32.2 C 147.3 32.9 147.7 33.3 148.7 33.4 C 148.7 33.4 150.8 33.6 150.8 33.6 C 153.5 33.9 154.9 35.3 154.9 37.6 C 154.9 40.6 152.3 42 149.1 42 C 147 42 145.1 41.8 143.4 40.1 C 143.4 40.1 145.6 37.9 145.6 37.9 C 146.7 39 148.1 39.1 149.2 39.1 C 150.4 39.1 151.6 38.7 151.6 37.7 C 151.6 37.1 151.2 36.6 150.1 36.5 C 150.1 36.5 148 36.3 148 36.3 C 145.6 36 144.1 35 144.1 32.5 C 144.1 29.6 146.5 28.2 149.3 28.2 C 151.4 28.2 153.2 28.6 154.5 29.7 Z M 165.6 41.9 C 165.6 41.9 165.59 33.67 165.6 33.7 C 165.6 31.8 164.4 31.2 163.4 31.2 C 162.3 31.2 161.1 31.8 161.1 33.7 C 161.09 33.67 161.1 41.9 161.1 41.9 L 157.7 41.9 L 157.7 23.4 L 161.1 23.4 C 161.1 23.4 161.09 29.57 161.1 29.6 C 162 28.6 163.1 28.2 164.4 28.2 C 165.7 28.2 166.8 28.6 167.6 29.4 C 168.7 30.4 169 31.7 169 33.2 C 168.97 33.21 169 41.9 169 41.9 L 165.6 41.9 Z M 182 40.4 C 181.1 41.2 179.8 42 177.8 42 C 175.8 42 174.4 41.2 173.6 40.4 C 172.4 39.1 172 37.5 172 35.1 C 172 32.6 172.4 31.1 173.6 29.8 C 174.4 28.9 175.8 28.2 177.8 28.2 C 179.8 28.2 181.1 28.9 182 29.8 C 183.2 31.1 183.5 32.6 183.5 35.1 C 183.5 37.5 183.2 39.1 182 40.4 Z M 179.3 31.8 C 179 31.4 178.4 31.2 177.8 31.2 C 177.1 31.2 176.6 31.4 176.2 31.8 C 175.5 32.5 175.4 33.7 175.4 35.1 C 175.4 36.5 175.5 37.7 176.2 38.4 C 176.6 38.8 177.1 39 177.8 39 C 178.4 39 179 38.8 179.3 38.4 C 180 37.7 180.1 36.5 180.1 35.1 C 180.1 33.7 180 32.5 179.3 31.8 Z M 197.8 41.9 L 194.5 41.9 C 194.5 41.9 194.53 40.62 194.5 40.6 C 193.6 41.6 192.4 42 191.1 42 C 189.8 42 188.7 41.6 188 40.8 C 186.9 39.7 186.6 38.5 186.6 37 C 186.57 36.98 186.6 28.3 186.6 28.3 L 190 28.3 C 190 28.3 189.95 36.51 190 36.5 C 190 38.4 191.1 39 192.2 39 C 193.3 39 194.5 38.4 194.5 36.5 C 194.45 36.51 194.5 28.3 194.5 28.3 L 197.8 28.3 L 197.8 41.9 Z M 204.9 37.8 C 204.9 38.6 205.2 39 206.1 39 C 206.07 39 207.4 39 207.4 39 L 207.4 41.9 C 207.4 41.9 205.45 41.86 205.4 41.9 C 202.7 41.9 201.5 39.9 201.5 38 C 201.5 37.99 201.5 23.4 201.5 23.4 L 204.9 23.4 C 204.9 23.4 204.88 37.78 204.9 37.8 Z M 220.6 41.9 L 217.3 41.9 C 217.3 41.9 217.3 40.59 217.3 40.6 C 216.4 41.6 215.4 42 214 42 C 212.6 42 211.4 41.6 210.6 40.8 C 209.3 39.5 209.2 37.4 209.2 35.1 C 209.2 32.8 209.3 30.7 210.6 29.4 C 211.4 28.6 212.6 28.2 213.9 28.2 C 215.3 28.2 216.3 28.5 217.2 29.5 C 217.23 29.51 217.2 23.4 217.2 23.4 L 220.6 23.4 L 220.6 41.9 Z M 212.6 35.1 C 212.6 37.3 212.9 39 214.9 39 C 216.9 39 217.2 37.3 217.2 35.1 C 217.2 32.9 216.9 31.2 214.9 31.2 C 212.9 31.2 212.6 32.9 212.6 35.1 Z M 233.8 29.5 C 234.7 28.5 235.7 28.2 237.1 28.2 C 238.5 28.2 239.6 28.6 240.4 29.4 C 241.7 30.7 241.8 32.8 241.8 35.1 C 241.8 37.4 241.7 39.5 240.4 40.8 C 239.6 41.6 238.4 42 237.1 42 C 235.7 42 234.7 41.6 233.7 40.6 C 233.71 40.59 233.7 41.9 233.7 41.9 L 230.4 41.9 L 230.4 23.4 L 233.8 23.4 C 233.8 23.4 233.81 29.51 233.8 29.5 Z M 233.8 35.1 C 233.8 37.3 234.1 39 236.1 39 C 238.2 39 238.4 37.3 238.4 35.1 C 238.4 32.9 238.2 31.2 236.1 31.2 C 234.1 31.2 233.8 32.9 233.8 35.1 Z M 254.9 29.4 C 254.9 29.4 252.4 32 252.4 32 C 251.9 31.5 251.4 31.2 250.6 31.2 C 249.6 31.2 248.4 32 248.4 33.7 C 248.4 33.7 248.4 41.9 248.4 41.9 L 245 41.9 L 245 28.3 L 248.3 28.3 C 248.3 28.3 248.32 29.62 248.3 29.6 C 249 28.8 250.3 28.2 251.7 28.2 C 253.1 28.2 254 28.5 254.9 29.4 Z M 260.2 41.9 L 256.8 41.9 L 256.8 28.7 L 260.2 28.7 L 260.2 41.9 Z M 260.3 26 L 256.8 26 L 256.8 23.2 L 260.3 23.2 L 260.3 26 Z M 273.9 29.4 C 275 30.5 275.3 31.7 275.3 33.2 C 275.26 33.21 275.3 41.9 275.3 41.9 L 271.9 41.9 C 271.9 41.9 271.88 33.67 271.9 33.7 C 271.9 31.8 270.7 31.2 269.6 31.2 C 268.5 31.2 267.4 31.8 267.4 33.7 C 267.38 33.67 267.4 41.9 267.4 41.9 L 264 41.9 L 264 28.3 L 267.3 28.3 C 267.3 28.3 267.3 29.57 267.3 29.6 C 268.2 28.6 269.4 28.2 270.7 28.2 C 272 28.2 273.1 28.6 273.9 29.4 Z M 286.3 29.6 C 286.26 29.59 286.3 28.3 286.3 28.3 L 289.5 28.3 C 289.5 28.3 289.53 41.37 289.5 41.4 C 289.5 44.6 287.2 47 283.6 47 C 281.5 47 280.1 46.6 278.7 45.2 C 278.7 45.2 280.8 43.1 280.8 43.1 C 281.5 43.8 282.3 44.1 283.4 44.1 C 285.5 44.1 286.2 42.7 286.2 41.3 C 286.2 41.3 286.2 39.9 286.2 39.9 C 285.3 40.9 284.3 41.3 282.9 41.3 C 281.6 41.3 280.5 40.8 279.7 40.1 C 278.5 38.8 278.3 37.1 278.3 34.7 C 278.3 32.3 278.5 30.6 279.7 29.4 C 280.5 28.6 281.6 28.2 283 28.2 C 284.4 28.2 285.3 28.6 286.3 29.6 Z M 281.7 34.7 C 281.7 36.5 281.9 38.2 283.9 38.2 C 285.9 38.2 286.2 36.5 286.2 34.7 C 286.2 32.9 285.9 31.2 283.9 31.2 C 281.9 31.2 281.7 32.9 281.7 34.7 Z M 303.1 28.7 L 305.4 28.7 L 305.4 31.3 L 303.1 31.3 C 303.1 31.3 303.05 37.78 303.1 37.8 C 303.1 38.6 303.4 39 304.2 39 C 304.22 39 305.4 39 305.4 39 L 305.4 41.9 C 305.4 41.9 303.6 41.86 303.6 41.9 C 300.8 41.9 299.7 39.9 299.7 38 C 299.67 37.99 299.7 31.3 299.7 31.3 L 298.2 31.3 L 298.2 28.7 L 299.7 28.7 L 299.7 24.7 L 303.1 24.7 L 303.1 28.7 Z M 317.7 40.4 C 316.9 41.2 315.5 42 313.5 42 C 311.5 42 310.2 41.2 309.3 40.4 C 308.1 39.1 307.8 37.5 307.8 35.1 C 307.8 32.6 308.1 31.1 309.3 29.8 C 310.2 28.9 311.5 28.2 313.5 28.2 C 315.5 28.2 316.9 28.9 317.7 29.8 C 319 31.1 319.3 32.6 319.3 35.1 C 319.3 37.5 319 39.1 317.7 40.4 Z M 315.1 31.8 C 314.7 31.4 314.2 31.2 313.5 31.2 C 312.9 31.2 312.4 31.4 312 31.8 C 311.3 32.5 311.2 33.7 311.2 35.1 C 311.2 36.5 311.3 37.7 312 38.4 C 312.4 38.8 312.9 39 313.5 39 C 314.2 39 314.7 38.8 315.1 38.4 C 315.8 37.7 315.9 36.5 315.9 35.1 C 315.9 33.7 315.8 32.5 315.1 31.8 Z M 332.2 28.7 L 334.6 28.7 L 334.6 31.3 L 332.2 31.3 C 332.2 31.3 332.22 37.78 332.2 37.8 C 332.2 38.6 332.6 39 333.4 39 C 333.39 39 334.6 39 334.6 39 L 334.6 41.9 C 334.6 41.9 332.77 41.86 332.8 41.9 C 330 41.9 328.8 39.9 328.8 38 C 328.84 37.99 328.8 31.3 328.8 31.3 L 327.4 31.3 L 327.4 28.7 L 328.8 28.7 L 328.8 24.7 L 332.2 24.7 L 332.2 28.7 Z M 345.6 41.9 C 345.6 41.9 345.56 33.67 345.6 33.7 C 345.6 31.8 344.4 31.2 343.3 31.2 C 342.3 31.2 341.1 31.8 341.1 33.7 C 341.06 33.67 341.1 41.9 341.1 41.9 L 337.7 41.9 L 337.7 23.4 L 341.1 23.4 C 341.1 23.4 341.06 29.57 341.1 29.6 C 341.9 28.6 343.1 28.2 344.4 28.2 C 345.7 28.2 346.8 28.6 347.6 29.4 C 348.7 30.4 348.9 31.7 348.9 33.2 C 348.94 33.21 348.9 41.9 348.9 41.9 L 345.6 41.9 Z M 363.7 34.7 C 363.71 34.71 363.7 36.1 363.7 36.1 C 363.7 36.1 355.23 36.14 355.2 36.1 C 355.2 37.9 356.3 39.2 358.2 39.2 C 359.7 39.2 360.4 38.7 361.2 37.9 C 361.2 37.9 363.3 39.9 363.3 39.9 C 361.9 41.3 360.6 42 358.2 42 C 354.9 42 351.9 40.6 351.9 35.1 C 351.9 30.7 354.3 28.2 357.8 28.2 C 361.6 28.2 363.7 30.9 363.7 34.7 Z M 355.5 32.4 C 355.3 32.9 355.3 33.2 355.2 33.8 C 355.2 33.8 360.4 33.8 360.4 33.8 C 360.3 33.2 360.3 32.9 360.1 32.4 C 359.7 31.6 359 31 357.8 31 C 356.6 31 355.9 31.6 355.5 32.4 Z M 390.5 29.4 C 391.6 30.4 392 31.7 392 33.2 C 392 33.21 392 41.9 392 41.9 L 388.6 41.9 C 388.6 41.9 388.62 33.67 388.6 33.7 C 388.6 31.8 387.5 31.2 386.4 31.2 C 385.3 31.2 384.1 31.8 384.1 33.6 C 384.12 33.6 384.1 41.9 384.1 41.9 L 380.7 41.9 C 380.7 41.9 380.74 33.67 380.7 33.7 C 380.7 31.8 379.6 31.2 378.5 31.2 C 377.4 31.2 376.2 31.8 376.2 33.7 C 376.24 33.67 376.2 41.9 376.2 41.9 L 372.9 41.9 L 372.9 28.3 L 376.2 28.3 C 376.2 28.3 376.16 29.57 376.2 29.6 C 377 28.6 378.3 28.2 379.6 28.2 C 381.1 28.2 382.3 28.7 383.2 29.9 C 384.3 28.7 385.5 28.2 387.2 28.2 C 388.5 28.2 389.8 28.6 390.5 29.4 Z M 406.8 34.7 C 406.76 34.71 406.8 36.1 406.8 36.1 C 406.8 36.1 398.29 36.14 398.3 36.1 C 398.3 37.9 399.3 39.2 401.3 39.2 C 402.7 39.2 403.5 38.7 404.3 37.9 C 404.3 37.9 406.4 39.9 406.4 39.9 C 405 41.3 403.7 42 401.2 42 C 398 42 395 40.6 395 35.1 C 395 30.7 397.4 28.2 400.9 28.2 C 404.6 28.2 406.8 30.9 406.8 34.7 Z M 398.6 32.4 C 398.3 32.9 398.3 33.2 398.3 33.8 C 398.3 33.8 403.4 33.8 403.4 33.8 C 403.4 33.2 403.4 32.9 403.1 32.4 C 402.8 31.6 402 31 400.9 31 C 399.7 31 398.9 31.6 398.6 32.4 Z M 421 34.7 C 421.01 34.71 421 36.1 421 36.1 C 421 36.1 412.54 36.14 412.5 36.1 C 412.5 37.9 413.6 39.2 415.5 39.2 C 417 39.2 417.7 38.7 418.5 37.9 C 418.5 37.9 420.6 39.9 420.6 39.9 C 419.2 41.3 417.9 42 415.5 42 C 412.2 42 409.2 40.6 409.2 35.1 C 409.2 30.7 411.6 28.2 415.1 28.2 C 418.9 28.2 421 30.9 421 34.7 Z M 412.8 32.4 C 412.6 32.9 412.6 33.2 412.5 33.8 C 412.5 33.8 417.7 33.8 417.7 33.8 C 417.6 33.2 417.6 32.9 417.4 32.4 C 417 31.6 416.3 31 415.1 31 C 413.9 31 413.2 31.6 412.8 32.4 Z M 427.8 28.7 L 430.2 28.7 L 430.2 31.3 L 427.8 31.3 C 427.8 31.3 427.82 37.78 427.8 37.8 C 427.8 38.6 428.2 39 429 39 C 428.99 39 430.2 39 430.2 39 L 430.2 41.9 C 430.2 41.9 428.37 41.86 428.4 41.9 C 425.6 41.9 424.4 39.9 424.4 38 C 424.44 37.99 424.4 31.3 424.4 31.3 L 423 31.3 L 423 28.7 L 424.4 28.7 L 424.4 24.7 L 427.8 24.7 L 427.8 28.7 Z M 436.7 41.9 L 433.3 41.9 L 433.3 28.7 L 436.7 28.7 L 436.7 41.9 Z M 436.7 26 L 433.2 26 L 433.2 23.2 L 436.7 23.2 L 436.7 26 Z M 450.3 29.4 C 451.4 30.5 451.7 31.7 451.7 33.2 C 451.69 33.21 451.7 41.9 451.7 41.9 L 448.3 41.9 C 448.3 41.9 448.31 33.67 448.3 33.7 C 448.3 31.8 447.2 31.2 446.1 31.2 C 445 31.2 443.8 31.8 443.8 33.7 C 443.81 33.67 443.8 41.9 443.8 41.9 L 440.4 41.9 L 440.4 28.3 L 443.7 28.3 C 443.7 28.3 443.74 29.57 443.7 29.6 C 444.6 28.6 445.9 28.2 447.1 28.2 C 448.5 28.2 449.6 28.6 450.3 29.4 Z M 462.7 29.6 C 462.69 29.59 462.7 28.3 462.7 28.3 L 466 28.3 C 466 28.3 465.97 41.37 466 41.4 C 466 44.6 463.7 47 460 47 C 457.9 47 456.5 46.6 455.1 45.2 C 455.1 45.2 457.2 43.1 457.2 43.1 C 458 43.8 458.7 44.1 459.9 44.1 C 461.9 44.1 462.6 42.7 462.6 41.3 C 462.6 41.3 462.6 39.9 462.6 39.9 C 461.7 40.9 460.7 41.3 459.4 41.3 C 458 41.3 456.9 40.8 456.2 40.1 C 454.9 38.8 454.8 37.1 454.8 34.7 C 454.8 32.3 454.9 30.6 456.2 29.4 C 456.9 28.6 458 28.2 459.4 28.2 C 460.8 28.2 461.8 28.6 462.7 29.6 Z M 458.1 34.7 C 458.1 36.5 458.3 38.2 460.4 38.2 C 462.4 38.2 462.6 36.5 462.6 34.7 C 462.6 32.9 462.4 31.2 460.4 31.2 C 458.3 31.2 458.1 32.9 458.1 34.7 Z " stroke="none" fill="#f9a41a"/>  </g></svg>