<?xml version="1.0" standalone="no"?><!DOCTYPE svg PUBLIC "-//W3C//DTD SVG 1.1//EN" "http://www.w3.org/Graphics/SVG/1.1/DTD/svg11.dtd"><svg xmlns="http://www.w3.org/2000/svg" version="1.1" width="1114px" height="137.079772949219px" viewBox="0 0 1114 137.079772949219">  <desc>A policy can be delivered via limited Power of Attorney in the U.S. under most circumstances. This is not allowed for...</desc>  <defs/>  <g id="Polygon23948">    <path d="M 5.4 102.9 L 3.1 102.9 L 3.1 81.6 L 5.4 81.6 L 5.4 102.9 Z M 21.3 89.4 C 22.3 90.4 22.8 91.8 22.8 93.5 C 22.8 93.5 22.8 102.9 22.8 102.9 L 20.6 102.9 C 20.6 102.9 20.64 93.83 20.6 93.8 C 20.6 91.2 19.2 89.9 17 89.9 C 14.8 89.9 13.3 91.2 13.3 93.8 C 13.32 93.83 13.3 102.9 13.3 102.9 L 11.2 102.9 L 11.2 88.2 L 13.3 88.2 C 13.3 88.2 13.29 89.81 13.3 89.8 C 14.3 88.6 15.8 88 17.5 88 C 19 88 20.4 88.5 21.3 89.4 Z M 38 89.6 C 38 89.6 36.6 91 36.6 91 C 35.6 90.2 34.2 89.8 32.7 89.8 C 30.5 89.8 29.4 90.7 29.4 92.2 C 29.4 93.6 30.2 94.2 32 94.4 C 32 94.4 34.3 94.6 34.3 94.6 C 36.9 94.8 38.7 95.8 38.7 98.6 C 38.7 101.4 36.3 103.1 32.7 103.1 C 30.2 103.1 28.2 102.5 26.6 101 C 26.6 101 28.1 99.5 28.1 99.5 C 29.2 100.7 30.8 101.2 32.7 101.2 C 35.1 101.2 36.6 100.4 36.6 98.6 C 36.6 97.3 35.9 96.6 34.1 96.5 C 34.1 96.5 31.7 96.3 31.7 96.3 C 28.8 96 27.3 94.8 27.3 92.3 C 27.3 89.6 29.5 88 32.7 88 C 34.9 88 36.7 88.5 38 89.6 Z M 54.4 102.9 L 52.3 102.9 C 52.3 102.9 52.29 101.27 52.3 101.3 C 51.2 102.5 49.8 103.1 48.1 103.1 C 46.5 103.1 45.2 102.6 44.3 101.7 C 43.3 100.7 42.8 99.3 42.8 97.6 C 42.78 97.58 42.8 88.2 42.8 88.2 L 44.9 88.2 C 44.9 88.2 44.94 97.25 44.9 97.2 C 44.9 99.9 46.3 101.2 48.6 101.2 C 50.8 101.2 52.3 99.8 52.3 97.2 C 52.26 97.25 52.3 88.2 52.3 88.2 L 54.4 88.2 L 54.4 102.9 Z M 69.7 89.4 C 69.7 89.4 68.1 91 68.1 91 C 67.3 90.2 66.7 89.9 65.5 89.9 C 63.4 89.9 62 91.6 62 93.9 C 61.98 93.86 62 102.9 62 102.9 L 59.8 102.9 L 59.8 88.2 L 62 88.2 C 62 88.2 61.98 89.96 62 90 C 62.8 88.7 64.4 88 66.1 88 C 67.5 88 68.6 88.3 69.7 89.4 Z M 82.7 92.9 C 82.68 92.9 82.7 102.9 82.7 102.9 L 80.5 102.9 C 80.5 102.9 80.52 101.51 80.5 101.5 C 79.3 102.7 78.2 103.1 76.3 103.1 C 74.2 103.1 73.1 102.7 72.1 101.7 C 71.3 101 71 99.9 71 98.7 C 71 96.1 72.8 94.5 76.1 94.5 C 76.11 94.49 80.5 94.5 80.5 94.5 C 80.5 94.5 80.52 93.08 80.5 93.1 C 80.5 90.9 79.5 89.8 76.7 89.8 C 74.9 89.8 73.9 90.3 73 91.5 C 73 91.5 71.5 90.2 71.5 90.2 C 72.8 88.5 74.3 88 76.8 88 C 80.8 88 82.7 89.7 82.7 92.9 Z M 76.4 96.1 C 74.2 96.1 73.1 97 73.1 98.7 C 73.1 100.4 74.1 101.2 76.5 101.2 C 77.7 101.2 78.8 101.1 79.8 100.2 C 80.3 99.8 80.5 98.9 80.5 97.7 C 80.52 97.7 80.5 96.1 80.5 96.1 C 80.5 96.1 76.41 96.11 76.4 96.1 Z M 90.1 89.9 C 91.3 88.3 92.6 88 94.3 88 C 95.8 88 97.1 88.5 97.9 89.3 C 99.3 90.7 99.7 93.2 99.7 95.5 C 99.7 97.9 99.3 100.3 97.9 101.8 C 97.1 102.6 95.8 103.1 94.3 103.1 C 92.6 103.1 91.3 102.7 90.1 101.1 C 90.09 101.15 90.1 102.9 90.1 102.9 L 87.9 102.9 L 87.9 81.6 L 90.1 81.6 C 90.1 81.6 90.09 89.87 90.1 89.9 Z M 90.1 95.5 C 90.1 98.4 90.6 101.2 93.8 101.2 C 97 101.2 97.5 98.4 97.5 95.5 C 97.5 92.7 97 89.9 93.8 89.9 C 90.6 89.9 90.1 92.7 90.1 95.5 Z M 106.4 102.9 L 104.3 102.9 L 104.3 88.2 L 106.4 88.2 L 106.4 102.9 Z M 106.6 84 L 104.2 84 L 104.2 81.5 L 106.6 81.5 L 106.6 84 Z M 114 98.9 C 114 100.3 114.4 101.1 115.9 101.1 C 115.95 101.06 117.1 101.1 117.1 101.1 L 117.1 102.9 C 117.1 102.9 115.56 102.92 115.6 102.9 C 113 102.9 111.8 101.2 111.8 99 C 111.81 98.99 111.8 81.6 111.8 81.6 L 114 81.6 C 114 81.6 113.97 98.9 114 98.9 Z M 122.9 102.9 L 120.8 102.9 L 120.8 88.2 L 122.9 88.2 L 122.9 102.9 Z M 123.1 84 L 120.7 84 L 120.7 81.5 L 123.1 81.5 L 123.1 84 Z M 130.9 88.2 L 134 88.2 L 134 89.8 L 130.9 89.8 C 130.9 89.8 130.89 98.9 130.9 98.9 C 130.9 100.3 131.5 101.1 132.9 101.1 C 132.9 101.06 134 101.1 134 101.1 L 134 102.9 C 134 102.9 132.51 102.92 132.5 102.9 C 130 102.9 128.7 101.1 128.7 99 C 128.73 98.96 128.7 89.8 128.7 89.8 L 126.9 89.8 L 126.9 88.2 L 128.7 88.2 L 128.7 83.6 L 130.9 83.6 L 130.9 88.2 Z M 141.9 106.8 C 141.6 107.6 141.3 108.1 140.8 108.5 C 140.1 109.2 139 109.5 138 109.5 C 137.97 109.52 137 109.5 137 109.5 L 137 107.6 C 137 107.6 137.7 107.6 137.7 107.6 C 139.2 107.6 139.6 107.1 140.1 105.8 C 140.13 105.77 141.3 102.6 141.3 102.6 L 136 88.2 L 138.3 88.2 L 142.3 100 L 146.4 88.2 L 148.7 88.2 C 148.7 88.2 141.9 106.76 141.9 106.8 Z M 152.5 102.9 L 149.7 102.9 L 149.7 100.1 L 152.5 100.1 L 152.5 102.9 Z " stroke="none" fill="#000"/>  </g>  <g id="Polygon23947">    <path d="M 13.3 50.2 C 13.3 50.2 11.8 51.5 11.8 51.5 C 10.7 50.3 9.9 49.9 8.5 49.9 C 7 49.9 5.8 50.5 5 51.6 C 4.3 52.5 4.1 53.7 4.1 55.5 C 4.1 57.4 4.3 58.5 5 59.5 C 5.8 60.6 7 61.2 8.5 61.2 C 9.9 61.2 10.7 60.7 11.8 59.5 C 11.8 59.5 13.3 60.9 13.3 60.9 C 11.8 62.6 10.5 63.1 8.5 63.1 C 4.7 63.1 1.9 60.6 1.9 55.5 C 1.9 50.5 4.7 48 8.5 48 C 10.5 48 11.8 48.5 13.3 50.2 Z M 19.6 62.9 L 17.4 62.9 L 17.4 48.2 L 19.6 48.2 L 19.6 62.9 Z M 19.7 44 L 17.3 44 L 17.3 41.5 L 19.7 41.5 L 19.7 44 Z M 34.9 49.4 C 34.9 49.4 33.3 51 33.3 51 C 32.5 50.2 31.9 49.9 30.7 49.9 C 28.6 49.9 27.2 51.6 27.2 53.9 C 27.18 53.86 27.2 62.9 27.2 62.9 L 25 62.9 L 25 48.2 L 27.2 48.2 C 27.2 48.2 27.18 49.96 27.2 50 C 28 48.7 29.6 48 31.3 48 C 32.7 48 33.8 48.3 34.9 49.4 Z M 47.4 50.2 C 47.4 50.2 45.9 51.5 45.9 51.5 C 44.8 50.3 43.9 49.9 42.5 49.9 C 41.1 49.9 39.9 50.5 39.1 51.6 C 38.4 52.5 38.1 53.7 38.1 55.5 C 38.1 57.4 38.4 58.5 39.1 59.5 C 39.9 60.6 41.1 61.2 42.5 61.2 C 43.9 61.2 44.8 60.7 45.9 59.5 C 45.9 59.5 47.4 60.9 47.4 60.9 C 45.8 62.6 44.5 63.1 42.5 63.1 C 38.8 63.1 36 60.6 36 55.5 C 36 50.5 38.8 48 42.5 48 C 44.5 48 45.8 48.5 47.4 50.2 Z M 63 62.9 L 60.8 62.9 C 60.8 62.9 60.84 61.27 60.8 61.3 C 59.8 62.5 58.3 63.1 56.7 63.1 C 55.1 63.1 53.8 62.6 52.9 61.7 C 51.8 60.7 51.3 59.3 51.3 57.6 C 51.33 57.58 51.3 48.2 51.3 48.2 L 53.5 48.2 C 53.5 48.2 53.49 57.25 53.5 57.2 C 53.5 59.9 54.9 61.2 57.1 61.2 C 59.3 61.2 60.8 59.8 60.8 57.2 C 60.81 57.25 60.8 48.2 60.8 48.2 L 63 48.2 L 63 62.9 Z M 87.9 49.4 C 88.9 50.4 89.5 51.8 89.5 53.5 C 89.49 53.47 89.5 62.9 89.5 62.9 L 87.3 62.9 C 87.3 62.9 87.33 53.83 87.3 53.8 C 87.3 51.2 85.9 49.9 83.7 49.9 C 81.5 49.9 80 51.2 80 53.6 C 80.01 53.59 80 62.9 80 62.9 L 77.8 62.9 C 77.8 62.9 77.85 53.83 77.8 53.8 C 77.8 51.2 76.4 49.9 74.2 49.9 C 72 49.9 70.5 51.2 70.5 53.8 C 70.53 53.83 70.5 62.9 70.5 62.9 L 68.4 62.9 L 68.4 48.2 L 70.5 48.2 C 70.5 48.2 70.53 49.78 70.5 49.8 C 71.6 48.6 73 48 74.7 48 C 76.7 48 78.3 48.8 79.2 50.4 C 80.4 48.8 82 48 84.1 48 C 85.7 48 87 48.5 87.9 49.4 Z M 104.7 49.6 C 104.7 49.6 103.3 51 103.3 51 C 102.3 50.2 100.9 49.8 99.4 49.8 C 97.2 49.8 96.1 50.7 96.1 52.2 C 96.1 53.6 96.9 54.2 98.7 54.4 C 98.7 54.4 101 54.6 101 54.6 C 103.6 54.8 105.4 55.8 105.4 58.6 C 105.4 61.4 103 63.1 99.4 63.1 C 96.9 63.1 94.9 62.5 93.3 61 C 93.3 61 94.8 59.5 94.8 59.5 C 95.9 60.7 97.5 61.2 99.4 61.2 C 101.8 61.2 103.3 60.4 103.3 58.6 C 103.3 57.3 102.6 56.6 100.8 56.5 C 100.8 56.5 98.4 56.3 98.4 56.3 C 95.5 56 94 54.8 94 52.3 C 94 49.6 96.2 48 99.4 48 C 101.5 48 103.4 48.5 104.7 49.6 Z M 111.9 48.2 L 115 48.2 L 115 49.8 L 111.9 49.8 C 111.9 49.8 111.87 58.9 111.9 58.9 C 111.9 60.3 112.5 61.1 113.9 61.1 C 113.88 61.06 115 61.1 115 61.1 L 115 62.9 C 115 62.9 113.49 62.92 113.5 62.9 C 111 62.9 109.7 61.1 109.7 59 C 109.71 58.96 109.7 49.8 109.7 49.8 L 107.8 49.8 L 107.8 48.2 L 109.7 48.2 L 109.7 43.6 L 111.9 43.6 L 111.9 48.2 Z M 129.7 52.9 C 129.69 52.9 129.7 62.9 129.7 62.9 L 127.5 62.9 C 127.5 62.9 127.53 61.51 127.5 61.5 C 126.4 62.7 125.2 63.1 123.3 63.1 C 121.2 63.1 120.1 62.7 119.1 61.7 C 118.3 61 118 59.9 118 58.7 C 118 56.1 119.8 54.5 123.1 54.5 C 123.12 54.49 127.5 54.5 127.5 54.5 C 127.5 54.5 127.53 53.08 127.5 53.1 C 127.5 50.9 126.5 49.8 123.7 49.8 C 121.9 49.8 120.9 50.3 120 51.5 C 120 51.5 118.6 50.2 118.6 50.2 C 119.8 48.5 121.3 48 123.8 48 C 127.8 48 129.7 49.7 129.7 52.9 Z M 123.4 56.1 C 121.2 56.1 120.1 57 120.1 58.7 C 120.1 60.4 121.1 61.2 123.5 61.2 C 124.7 61.2 125.8 61.1 126.8 60.2 C 127.3 59.8 127.5 58.9 127.5 57.7 C 127.53 57.7 127.5 56.1 127.5 56.1 C 127.5 56.1 123.42 56.11 123.4 56.1 Z M 145 49.4 C 146.1 50.4 146.6 51.8 146.6 53.5 C 146.58 53.5 146.6 62.9 146.6 62.9 L 144.4 62.9 C 144.4 62.9 144.42 53.83 144.4 53.8 C 144.4 51.2 143 49.9 140.8 49.9 C 138.6 49.9 137.1 51.2 137.1 53.8 C 137.1 53.83 137.1 62.9 137.1 62.9 L 134.9 62.9 L 134.9 48.2 L 137.1 48.2 C 137.1 48.2 137.07 49.81 137.1 49.8 C 138.1 48.6 139.6 48 141.2 48 C 142.8 48 144.1 48.5 145 49.4 Z M 162.4 50.2 C 162.4 50.2 161 51.5 161 51.5 C 159.9 50.3 159 49.9 157.6 49.9 C 156.1 49.9 154.9 50.5 154.2 51.6 C 153.5 52.5 153.2 53.7 153.2 55.5 C 153.2 57.4 153.5 58.5 154.2 59.5 C 154.9 60.6 156.1 61.2 157.6 61.2 C 159 61.2 159.9 60.7 161 59.5 C 161 59.5 162.4 60.9 162.4 60.9 C 160.9 62.6 159.6 63.1 157.6 63.1 C 153.9 63.1 151 60.6 151 55.5 C 151 50.5 153.9 48 157.6 48 C 159.6 48 160.9 48.5 162.4 50.2 Z M 177.4 55.1 C 177.42 55.15 177.4 56.1 177.4 56.1 C 177.4 56.1 167.46 56.11 167.5 56.1 C 167.5 59.3 169 61.2 171.8 61.2 C 173.5 61.2 174.5 60.7 175.7 59.5 C 175.7 59.5 177.1 60.8 177.1 60.8 C 175.6 62.3 174.2 63.1 171.7 63.1 C 167.8 63.1 165.3 60.8 165.3 55.5 C 165.3 50.7 167.6 48 171.4 48 C 175.2 48 177.4 50.7 177.4 55.1 Z M 167.9 52 C 167.5 52.8 167.5 53.3 167.5 54.5 C 167.5 54.5 175.3 54.5 175.3 54.5 C 175.2 53.3 175.2 52.8 174.8 52 C 174.2 50.7 172.9 49.8 171.4 49.8 C 169.8 49.8 168.5 50.7 167.9 52 Z M 192 49.6 C 192 49.6 190.6 51 190.6 51 C 189.5 50.2 188.2 49.8 186.7 49.8 C 184.5 49.8 183.4 50.7 183.4 52.2 C 183.4 53.6 184.2 54.2 186 54.4 C 186 54.4 188.3 54.6 188.3 54.6 C 190.9 54.8 192.7 55.8 192.7 58.6 C 192.7 61.4 190.3 63.1 186.7 63.1 C 184.1 63.1 182.2 62.5 180.6 61 C 180.6 61 182 59.5 182 59.5 C 183.2 60.7 184.8 61.2 186.6 61.2 C 189.1 61.2 190.6 60.4 190.6 58.6 C 190.6 57.3 189.8 56.6 188.1 56.5 C 188.1 56.5 185.7 56.3 185.7 56.3 C 182.8 56 181.3 54.8 181.3 52.3 C 181.3 49.6 183.5 48 186.7 48 C 188.8 48 190.6 48.5 192 49.6 Z M 199.6 62.9 L 196.8 62.9 L 196.8 60.1 L 199.6 60.1 L 199.6 62.9 Z M 225.3 43.6 L 219.1 43.6 L 219.1 62.9 L 216.8 62.9 L 216.8 43.6 L 210.7 43.6 L 210.7 41.6 L 225.3 41.6 L 225.3 43.6 Z M 231.1 49.8 C 232.1 48.6 233.5 48 235.2 48 C 236.8 48 238.1 48.5 239 49.4 C 240.1 50.4 240.5 51.8 240.5 53.5 C 240.51 53.5 240.5 62.9 240.5 62.9 L 238.3 62.9 C 238.3 62.9 238.35 53.83 238.3 53.8 C 238.3 51.2 237 49.9 234.7 49.9 C 232.5 49.9 231.1 51.2 231.1 53.8 C 231.06 53.83 231.1 62.9 231.1 62.9 L 228.9 62.9 L 228.9 41.6 L 231.1 41.6 C 231.1 41.6 231.06 49.81 231.1 49.8 Z M 247.9 62.9 L 245.8 62.9 L 245.8 48.2 L 247.9 48.2 L 247.9 62.9 Z M 248.1 44 L 245.6 44 L 245.6 41.5 L 248.1 41.5 L 248.1 44 Z M 263.3 49.6 C 263.3 49.6 261.9 51 261.9 51 C 260.9 50.2 259.5 49.8 258 49.8 C 255.8 49.8 254.7 50.7 254.7 52.2 C 254.7 53.6 255.5 54.2 257.3 54.4 C 257.3 54.4 259.6 54.6 259.6 54.6 C 262.2 54.8 264 55.8 264 58.6 C 264 61.4 261.6 63.1 258 63.1 C 255.5 63.1 253.5 62.5 251.9 61 C 251.9 61 253.4 59.5 253.4 59.5 C 254.5 60.7 256.1 61.2 258 61.2 C 260.4 61.2 261.9 60.4 261.9 58.6 C 261.9 57.3 261.2 56.6 259.4 56.5 C 259.4 56.5 257 56.3 257 56.3 C 254.1 56 252.6 54.8 252.6 52.3 C 252.6 49.6 254.8 48 258 48 C 260.2 48 262 48.5 263.3 49.6 Z M 277.9 62.9 L 275.7 62.9 L 275.7 48.2 L 277.9 48.2 L 277.9 62.9 Z M 278 44 L 275.6 44 L 275.6 41.5 L 278 41.5 L 278 44 Z M 293.3 49.6 C 293.3 49.6 291.9 51 291.9 51 C 290.8 50.2 289.5 49.8 287.9 49.8 C 285.8 49.8 284.6 50.7 284.6 52.2 C 284.6 53.6 285.4 54.2 287.3 54.4 C 287.3 54.4 289.6 54.6 289.6 54.6 C 292.2 54.8 293.9 55.8 293.9 58.6 C 293.9 61.4 291.5 63.1 287.9 63.1 C 285.4 63.1 283.5 62.5 281.9 61 C 281.9 61 283.3 59.5 283.3 59.5 C 284.5 60.7 286.1 61.2 287.9 61.2 C 290.4 61.2 291.8 60.4 291.8 58.6 C 291.8 57.3 291.1 56.6 289.4 56.5 C 289.4 56.5 286.9 56.3 286.9 56.3 C 284.1 56 282.5 54.8 282.5 52.3 C 282.5 49.6 284.8 48 288 48 C 290.1 48 291.9 48.5 293.3 49.6 Z M 315.7 49.4 C 316.8 50.4 317.3 51.8 317.3 53.5 C 317.27 53.5 317.3 62.9 317.3 62.9 L 315.1 62.9 C 315.1 62.9 315.11 53.83 315.1 53.8 C 315.1 51.2 313.7 49.9 311.5 49.9 C 309.3 49.9 307.8 51.2 307.8 53.8 C 307.79 53.83 307.8 62.9 307.8 62.9 L 305.6 62.9 L 305.6 48.2 L 307.8 48.2 C 307.8 48.2 307.76 49.81 307.8 49.8 C 308.8 48.6 310.3 48 311.9 48 C 313.5 48 314.8 48.5 315.7 49.4 Z M 332 49.7 C 333.5 51.2 333.8 53.3 333.8 55.5 C 333.8 57.8 333.5 59.9 332 61.4 C 331 62.5 329.6 63.1 327.8 63.1 C 326 63.1 324.6 62.5 323.5 61.4 C 322 59.9 321.7 57.8 321.7 55.5 C 321.7 53.3 322 51.2 323.5 49.7 C 324.6 48.6 326 48 327.8 48 C 329.6 48 331 48.6 332 49.7 Z M 325.1 51 C 324 52.1 323.9 53.9 323.9 55.5 C 323.9 57.2 324 59 325.1 60.1 C 325.8 60.8 326.7 61.2 327.8 61.2 C 328.8 61.2 329.8 60.8 330.5 60.1 C 331.6 59 331.6 57.2 331.6 55.5 C 331.6 53.9 331.6 52.1 330.5 51 C 329.8 50.3 328.8 49.9 327.8 49.9 C 326.7 49.9 325.8 50.3 325.1 51 Z M 340.9 48.2 L 344.1 48.2 L 344.1 49.8 L 340.9 49.8 C 340.9 49.8 340.94 58.9 340.9 58.9 C 340.9 60.3 341.6 61.1 343 61.1 C 342.95 61.06 344.1 61.1 344.1 61.1 L 344.1 62.9 C 344.1 62.9 342.56 62.92 342.6 62.9 C 340 62.9 338.8 61.1 338.8 59 C 338.78 58.96 338.8 49.8 338.8 49.8 L 336.9 49.8 L 336.9 48.2 L 338.8 48.2 L 338.8 43.6 L 340.9 43.6 L 340.9 48.2 Z M 373.9 52.9 C 373.85 52.9 373.9 62.9 373.9 62.9 L 371.7 62.9 C 371.7 62.9 371.69 61.51 371.7 61.5 C 370.5 62.7 369.4 63.1 367.4 63.1 C 365.4 63.1 364.3 62.7 363.3 61.7 C 362.5 61 362.2 59.9 362.2 58.7 C 362.2 56.1 364 54.5 367.3 54.5 C 367.28 54.49 371.7 54.5 371.7 54.5 C 371.7 54.5 371.69 53.08 371.7 53.1 C 371.7 50.9 370.6 49.8 367.9 49.8 C 366.1 49.8 365.1 50.3 364.2 51.5 C 364.2 51.5 362.7 50.2 362.7 50.2 C 364 48.5 365.5 48 367.9 48 C 371.9 48 373.9 49.7 373.9 52.9 Z M 367.6 56.1 C 365.4 56.1 364.3 57 364.3 58.7 C 364.3 60.4 365.3 61.2 367.7 61.2 C 368.9 61.2 370 61.1 370.9 60.2 C 371.5 59.8 371.7 58.9 371.7 57.7 C 371.69 57.7 371.7 56.1 371.7 56.1 C 371.7 56.1 367.58 56.11 367.6 56.1 Z M 381.2 58.9 C 381.2 60.3 381.7 61.1 383.2 61.1 C 383.18 61.06 384.4 61.1 384.4 61.1 L 384.4 62.9 C 384.4 62.9 382.79 62.92 382.8 62.9 C 380.2 62.9 379 61.2 379 59 C 379.04 58.99 379 41.6 379 41.6 L 381.2 41.6 C 381.2 41.6 381.2 58.9 381.2 58.9 Z M 390.1 58.9 C 390.1 60.3 390.6 61.1 392.1 61.1 C 392.09 61.06 393.3 61.1 393.3 61.1 L 393.3 62.9 C 393.3 62.9 391.7 62.92 391.7 62.9 C 389.1 62.9 388 61.2 388 59 C 387.95 58.99 388 41.6 388 41.6 L 390.1 41.6 C 390.1 41.6 390.11 58.9 390.1 58.9 Z M 406.1 49.7 C 407.6 51.2 407.9 53.3 407.9 55.5 C 407.9 57.8 407.6 59.9 406.1 61.4 C 405.1 62.5 403.7 63.1 401.9 63.1 C 400.1 63.1 398.7 62.5 397.6 61.4 C 396.1 59.9 395.8 57.8 395.8 55.5 C 395.8 53.3 396.1 51.2 397.6 49.7 C 398.7 48.6 400.1 48 401.9 48 C 403.7 48 405.1 48.6 406.1 49.7 Z M 399.2 51 C 398.1 52.1 398 53.9 398 55.5 C 398 57.2 398.1 59 399.2 60.1 C 399.9 60.8 400.8 61.2 401.9 61.2 C 402.9 61.2 403.9 60.8 404.6 60.1 C 405.7 59 405.7 57.2 405.7 55.5 C 405.7 53.9 405.7 52.1 404.6 51 C 403.9 50.3 402.9 49.9 401.9 49.9 C 400.8 49.9 399.9 50.3 399.2 51 Z M 410 48.2 L 412.3 48.2 L 415.8 60 L 419.6 48.2 L 421.5 48.2 L 425.3 60 L 428.7 48.2 L 431.1 48.2 L 426.4 62.9 L 424.4 62.9 L 420.5 50.9 L 416.7 62.9 L 414.7 62.9 L 410 48.2 Z M 445.3 55.1 C 445.25 55.15 445.3 56.1 445.3 56.1 C 445.3 56.1 435.29 56.11 435.3 56.1 C 435.3 59.3 436.8 61.2 439.6 61.2 C 441.4 61.2 442.3 60.7 443.5 59.5 C 443.5 59.5 445 60.8 445 60.8 C 443.5 62.3 442.1 63.1 439.6 63.1 C 435.7 63.1 433.1 60.8 433.1 55.5 C 433.1 50.7 435.4 48 439.2 48 C 443 48 445.3 50.7 445.3 55.1 Z M 435.7 52 C 435.4 52.8 435.4 53.3 435.3 54.5 C 435.3 54.5 443.1 54.5 443.1 54.5 C 443 53.3 443 52.8 442.6 52 C 442 50.7 440.8 49.8 439.2 49.8 C 437.6 49.8 436.4 50.7 435.7 52 Z M 460.8 62.9 L 458.6 62.9 C 458.6 62.9 458.63 61.18 458.6 61.2 C 457.4 62.7 456.1 63.1 454.5 63.1 C 452.9 63.1 451.6 62.6 450.9 61.8 C 449.4 60.3 449.1 57.9 449.1 55.5 C 449.1 53.2 449.4 50.8 450.9 49.3 C 451.6 48.5 452.9 48 454.5 48 C 456.1 48 457.4 48.4 458.6 49.9 C 458.63 49.9 458.6 41.6 458.6 41.6 L 460.8 41.6 L 460.8 62.9 Z M 451.2 55.5 C 451.2 58.4 451.7 61.2 454.9 61.2 C 458.2 61.2 458.6 58.4 458.6 55.5 C 458.6 52.7 458.2 49.9 454.9 49.9 C 451.7 49.9 451.2 52.7 451.2 55.5 Z M 479.5 43.4 C 479.5 43.4 478.28 43.39 478.3 43.4 C 476.9 43.4 476.3 44.2 476.3 45.5 C 476.3 45.55 476.3 48.2 476.3 48.2 L 479.5 48.2 L 479.5 49.8 L 476.3 49.8 L 476.3 62.9 L 474.1 62.9 L 474.1 49.8 L 472.3 49.8 L 472.3 48.2 L 474.1 48.2 C 474.1 48.2 474.14 45.49 474.1 45.5 C 474.1 43.3 475.4 41.5 477.9 41.5 C 477.89 41.53 479.5 41.5 479.5 41.5 L 479.5 43.4 Z M 492.1 49.7 C 493.6 51.2 493.9 53.3 493.9 55.5 C 493.9 57.8 493.6 59.9 492.1 61.4 C 491.1 62.5 489.7 63.1 487.9 63.1 C 486.1 63.1 484.7 62.5 483.7 61.4 C 482.2 59.9 481.9 57.8 481.9 55.5 C 481.9 53.3 482.2 51.2 483.7 49.7 C 484.7 48.6 486.1 48 487.9 48 C 489.7 48 491.1 48.6 492.1 49.7 Z M 485.2 51 C 484.1 52.1 484 53.9 484 55.5 C 484 57.2 484.1 59 485.2 60.1 C 485.9 60.8 486.8 61.2 487.9 61.2 C 488.9 61.2 489.9 60.8 490.6 60.1 C 491.7 59 491.8 57.2 491.8 55.5 C 491.8 53.9 491.7 52.1 490.6 51 C 489.9 50.3 488.9 49.9 487.9 49.9 C 486.8 49.9 485.9 50.3 485.2 51 Z M 508.4 49.4 C 508.4 49.4 506.8 51 506.8 51 C 506 50.2 505.4 49.9 504.2 49.9 C 502.1 49.9 500.7 51.6 500.7 53.9 C 500.69 53.86 500.7 62.9 500.7 62.9 L 498.5 62.9 L 498.5 48.2 L 500.7 48.2 C 500.7 48.2 500.69 49.96 500.7 50 C 501.5 48.7 503.1 48 504.8 48 C 506.2 48 507.3 48.3 508.4 49.4 Z M 529.2 52.9 C 529.16 52.9 529.2 62.9 529.2 62.9 L 527 62.9 C 527 62.9 527 61.51 527 61.5 C 525.8 62.7 524.7 63.1 522.7 63.1 C 520.7 63.1 519.6 62.7 518.6 61.7 C 517.8 61 517.5 59.9 517.5 58.7 C 517.5 56.1 519.3 54.5 522.6 54.5 C 522.59 54.49 527 54.5 527 54.5 C 527 54.5 527 53.08 527 53.1 C 527 50.9 526 49.8 523.2 49.8 C 521.4 49.8 520.4 50.3 519.5 51.5 C 519.5 51.5 518 50.2 518 50.2 C 519.3 48.5 520.8 48 523.3 48 C 527.2 48 529.2 49.7 529.2 52.9 Z M 522.9 56.1 C 520.7 56.1 519.6 57 519.6 58.7 C 519.6 60.4 520.6 61.2 523 61.2 C 524.2 61.2 525.3 61.1 526.3 60.2 C 526.8 59.8 527 58.9 527 57.7 C 527 57.7 527 56.1 527 56.1 C 527 56.1 522.89 56.11 522.9 56.1 Z M 561.4 49.4 C 562.5 50.4 563 51.8 563 53.5 C 563 53.47 563 62.9 563 62.9 L 560.8 62.9 C 560.8 62.9 560.84 53.83 560.8 53.8 C 560.8 51.2 559.4 49.9 557.2 49.9 C 555.1 49.9 553.5 51.2 553.5 53.6 C 553.52 53.59 553.5 62.9 553.5 62.9 L 551.4 62.9 C 551.4 62.9 551.36 53.83 551.4 53.8 C 551.4 51.2 550 49.9 547.7 49.9 C 545.5 49.9 544 51.2 544 53.8 C 544.04 53.83 544 62.9 544 62.9 L 541.9 62.9 L 541.9 48.2 L 544 48.2 C 544 48.2 544.04 49.78 544 49.8 C 545.1 48.6 546.6 48 548.2 48 C 550.3 48 551.8 48.8 552.7 50.4 C 553.9 48.8 555.5 48 557.6 48 C 559.2 48 560.5 48.5 561.4 49.4 Z M 579.6 55.1 C 579.56 55.15 579.6 56.1 579.6 56.1 C 579.6 56.1 569.6 56.11 569.6 56.1 C 569.6 59.3 571.1 61.2 574 61.2 C 575.7 61.2 576.7 60.7 577.8 59.5 C 577.8 59.5 579.3 60.8 579.3 60.8 C 577.8 62.3 576.4 63.1 573.9 63.1 C 570 63.1 567.4 60.8 567.4 55.5 C 567.4 50.7 569.8 48 573.5 48 C 577.3 48 579.6 50.7 579.6 55.1 Z M 570.1 52 C 569.7 52.8 569.7 53.3 569.6 54.5 C 569.6 54.5 577.4 54.5 577.4 54.5 C 577.3 53.3 577.3 52.8 577 52 C 576.3 50.7 575.1 49.8 573.5 49.8 C 571.9 49.8 570.7 50.7 570.1 52 Z M 595.1 62.9 L 592.9 62.9 C 592.9 62.9 592.94 61.18 592.9 61.2 C 591.7 62.7 590.4 63.1 588.8 63.1 C 587.2 63.1 586 62.6 585.2 61.8 C 583.7 60.3 583.4 57.9 583.4 55.5 C 583.4 53.2 583.7 50.8 585.2 49.3 C 586 48.5 587.2 48 588.8 48 C 590.4 48 591.7 48.4 592.9 49.9 C 592.94 49.9 592.9 41.6 592.9 41.6 L 595.1 41.6 L 595.1 62.9 Z M 585.5 55.5 C 585.5 58.4 586 61.2 589.2 61.2 C 592.5 61.2 592.9 58.4 592.9 55.5 C 592.9 52.7 592.5 49.9 589.2 49.9 C 586 49.9 585.5 52.7 585.5 55.5 Z M 602.7 62.9 L 600.5 62.9 L 600.5 48.2 L 602.7 48.2 L 602.7 62.9 Z M 602.8 44 L 600.4 44 L 600.4 41.5 L 602.8 41.5 L 602.8 44 Z M 618.7 50.2 C 618.7 50.2 617.2 51.5 617.2 51.5 C 616.1 50.3 615.3 49.9 613.9 49.9 C 612.4 49.9 611.2 50.5 610.4 51.6 C 609.7 52.5 609.5 53.7 609.5 55.5 C 609.5 57.4 609.7 58.5 610.4 59.5 C 611.2 60.6 612.4 61.2 613.9 61.2 C 615.3 61.2 616.1 60.7 617.2 59.5 C 617.2 59.5 618.7 60.9 618.7 60.9 C 617.2 62.6 615.9 63.1 613.9 63.1 C 610.1 63.1 607.3 60.6 607.3 55.5 C 607.3 50.5 610.1 48 613.9 48 C 615.9 48 617.2 48.5 618.7 50.2 Z M 633.2 52.9 C 633.2 52.9 633.2 62.9 633.2 62.9 L 631 62.9 C 631 62.9 631.04 61.51 631 61.5 C 629.9 62.7 628.8 63.1 626.8 63.1 C 624.7 63.1 623.6 62.7 622.6 61.7 C 621.9 61 621.5 59.9 621.5 58.7 C 621.5 56.1 623.3 54.5 626.6 54.5 C 626.63 54.49 631 54.5 631 54.5 C 631 54.5 631.04 53.08 631 53.1 C 631 50.9 630 49.8 627.3 49.8 C 625.4 49.8 624.4 50.3 623.5 51.5 C 623.5 51.5 622.1 50.2 622.1 50.2 C 623.4 48.5 624.9 48 627.3 48 C 631.3 48 633.2 49.7 633.2 52.9 Z M 626.9 56.1 C 624.7 56.1 623.6 57 623.6 58.7 C 623.6 60.4 624.7 61.2 627 61.2 C 628.3 61.2 629.3 61.1 630.3 60.2 C 630.8 59.8 631 58.9 631 57.7 C 631.04 57.7 631 56.1 631 56.1 C 631 56.1 626.93 56.11 626.9 56.1 Z M 640.6 58.9 C 640.6 60.3 641 61.1 642.5 61.1 C 642.53 61.06 643.7 61.1 643.7 61.1 L 643.7 62.9 C 643.7 62.9 642.14 62.92 642.1 62.9 C 639.6 62.9 638.4 61.2 638.4 59 C 638.39 58.99 638.4 41.6 638.4 41.6 L 640.6 41.6 C 640.6 41.6 640.55 58.9 640.6 58.9 Z M 665.4 52.9 C 665.36 52.9 665.4 62.9 665.4 62.9 L 663.2 62.9 C 663.2 62.9 663.2 61.51 663.2 61.5 C 662 62.7 660.9 63.1 658.9 63.1 C 656.9 63.1 655.8 62.7 654.8 61.7 C 654 61 653.7 59.9 653.7 58.7 C 653.7 56.1 655.5 54.5 658.8 54.5 C 658.79 54.49 663.2 54.5 663.2 54.5 C 663.2 54.5 663.2 53.08 663.2 53.1 C 663.2 50.9 662.2 49.8 659.4 49.8 C 657.6 49.8 656.6 50.3 655.7 51.5 C 655.7 51.5 654.2 50.2 654.2 50.2 C 655.5 48.5 657 48 659.5 48 C 663.4 48 665.4 49.7 665.4 52.9 Z M 659.1 56.1 C 656.9 56.1 655.8 57 655.8 58.7 C 655.8 60.4 656.8 61.2 659.2 61.2 C 660.4 61.2 661.5 61.1 662.5 60.2 C 663 59.8 663.2 58.9 663.2 57.7 C 663.2 57.7 663.2 56.1 663.2 56.1 C 663.2 56.1 659.09 56.11 659.1 56.1 Z M 690.1 49.4 C 691.2 50.4 691.7 51.8 691.7 53.5 C 691.73 53.47 691.7 62.9 691.7 62.9 L 689.6 62.9 C 689.6 62.9 689.57 53.83 689.6 53.8 C 689.6 51.2 688.2 49.9 685.9 49.9 C 683.8 49.9 682.3 51.2 682.3 53.6 C 682.25 53.59 682.3 62.9 682.3 62.9 L 680.1 62.9 C 680.1 62.9 680.09 53.83 680.1 53.8 C 680.1 51.2 678.7 49.9 676.5 49.9 C 674.2 49.9 672.8 51.2 672.8 53.8 C 672.77 53.83 672.8 62.9 672.8 62.9 L 670.6 62.9 L 670.6 48.2 L 672.8 48.2 C 672.8 48.2 672.77 49.78 672.8 49.8 C 673.8 48.6 675.3 48 676.9 48 C 679 48 680.6 48.8 681.5 50.4 C 682.6 48.8 684.3 48 686.3 48 C 687.9 48 689.2 48.5 690.1 49.4 Z M 708.3 55.1 C 708.29 55.15 708.3 56.1 708.3 56.1 C 708.3 56.1 698.33 56.11 698.3 56.1 C 698.3 59.3 699.8 61.2 702.7 61.2 C 704.4 61.2 705.4 60.7 706.6 59.5 C 706.6 59.5 708 60.8 708 60.8 C 706.5 62.3 705.1 63.1 702.6 63.1 C 698.7 63.1 696.2 60.8 696.2 55.5 C 696.2 50.7 698.5 48 702.2 48 C 706.1 48 708.3 50.7 708.3 55.1 Z M 698.8 52 C 698.4 52.8 698.4 53.3 698.3 54.5 C 698.3 54.5 706.2 54.5 706.2 54.5 C 706.1 53.3 706 52.8 705.7 52 C 705.1 50.7 703.8 49.8 702.2 49.8 C 700.6 49.8 699.4 50.7 698.8 52 Z M 723 49.4 C 724 50.4 724.5 51.8 724.5 53.5 C 724.52 53.5 724.5 62.9 724.5 62.9 L 722.4 62.9 C 722.4 62.9 722.36 53.83 722.4 53.8 C 722.4 51.2 721 49.9 718.7 49.9 C 716.5 49.9 715 51.2 715 53.8 C 715.04 53.83 715 62.9 715 62.9 L 712.9 62.9 L 712.9 48.2 L 715 48.2 C 715 48.2 715.01 49.81 715 49.8 C 716.1 48.6 717.5 48 719.2 48 C 720.8 48 722.1 48.5 723 49.4 Z M 740.7 62.9 L 738.6 62.9 C 738.6 62.9 738.56 61.18 738.6 61.2 C 737.3 62.7 736 63.1 734.4 63.1 C 732.9 63.1 731.6 62.6 730.8 61.8 C 729.3 60.3 729 57.9 729 55.5 C 729 53.2 729.3 50.8 730.8 49.3 C 731.6 48.5 732.9 48 734.4 48 C 736 48 737.3 48.4 738.6 49.9 C 738.56 49.9 738.6 41.6 738.6 41.6 L 740.7 41.6 L 740.7 62.9 Z M 731.2 55.5 C 731.2 58.4 731.6 61.2 734.8 61.2 C 738.1 61.2 738.6 58.4 738.6 55.5 C 738.6 52.7 738.1 49.9 734.8 49.9 C 731.6 49.9 731.2 52.7 731.2 55.5 Z M 765.7 49.4 C 766.7 50.4 767.2 51.8 767.2 53.5 C 767.24 53.47 767.2 62.9 767.2 62.9 L 765.1 62.9 C 765.1 62.9 765.08 53.83 765.1 53.8 C 765.1 51.2 763.7 49.9 761.5 49.9 C 759.3 49.9 757.8 51.2 757.8 53.6 C 757.76 53.59 757.8 62.9 757.8 62.9 L 755.6 62.9 C 755.6 62.9 755.6 53.83 755.6 53.8 C 755.6 51.2 754.2 49.9 752 49.9 C 749.8 49.9 748.3 51.2 748.3 53.8 C 748.28 53.83 748.3 62.9 748.3 62.9 L 746.1 62.9 L 746.1 48.2 L 748.3 48.2 C 748.3 48.2 748.28 49.78 748.3 49.8 C 749.3 48.6 750.8 48 752.5 48 C 754.5 48 756.1 48.8 757 50.4 C 758.1 48.8 759.8 48 761.8 48 C 763.4 48 764.8 48.5 765.7 49.4 Z M 783.8 55.1 C 783.8 55.15 783.8 56.1 783.8 56.1 C 783.8 56.1 773.84 56.11 773.8 56.1 C 773.8 59.3 775.3 61.2 778.2 61.2 C 779.9 61.2 780.9 60.7 782.1 59.5 C 782.1 59.5 783.5 60.8 783.5 60.8 C 782 62.3 780.6 63.1 778.1 63.1 C 774.2 63.1 771.7 60.8 771.7 55.5 C 771.7 50.7 774 48 777.7 48 C 781.6 48 783.8 50.7 783.8 55.1 Z M 774.3 52 C 773.9 52.8 773.9 53.3 773.8 54.5 C 773.8 54.5 781.7 54.5 781.7 54.5 C 781.6 53.3 781.6 52.8 781.2 52 C 780.6 50.7 779.3 49.8 777.7 49.8 C 776.2 49.8 774.9 50.7 774.3 52 Z M 798.5 49.4 C 799.5 50.4 800 51.8 800 53.5 C 800.03 53.5 800 62.9 800 62.9 L 797.9 62.9 C 797.9 62.9 797.87 53.83 797.9 53.8 C 797.9 51.2 796.5 49.9 794.2 49.9 C 792 49.9 790.5 51.2 790.5 53.8 C 790.55 53.83 790.5 62.9 790.5 62.9 L 788.4 62.9 L 788.4 48.2 L 790.5 48.2 C 790.5 48.2 790.52 49.81 790.5 49.8 C 791.6 48.6 793 48 794.7 48 C 796.3 48 797.6 48.5 798.5 49.4 Z M 807.8 48.2 L 810.9 48.2 L 810.9 49.8 L 807.8 49.8 C 807.8 49.8 807.8 58.9 807.8 58.9 C 807.8 60.3 808.4 61.1 809.8 61.1 C 809.81 61.06 810.9 61.1 810.9 61.1 L 810.9 62.9 C 810.9 62.9 809.42 62.92 809.4 62.9 C 806.9 62.9 805.6 61.1 805.6 59 C 805.64 58.96 805.6 49.8 805.6 49.8 L 803.8 49.8 L 803.8 48.2 L 805.6 48.2 L 805.6 43.6 L 807.8 43.6 L 807.8 48.2 Z M 832.2 49.7 C 833.7 51.2 834 53.3 834 55.5 C 834 57.8 833.7 59.9 832.2 61.4 C 831.2 62.5 829.8 63.1 828 63.1 C 826.2 63.1 824.7 62.5 823.7 61.4 C 822.2 59.9 821.9 57.8 821.9 55.5 C 821.9 53.3 822.2 51.2 823.7 49.7 C 824.7 48.6 826.2 48 828 48 C 829.8 48 831.2 48.6 832.2 49.7 Z M 825.3 51 C 824.2 52.1 824.1 53.9 824.1 55.5 C 824.1 57.2 824.2 59 825.3 60.1 C 826 60.8 826.9 61.2 828 61.2 C 829 61.2 829.9 60.8 830.7 60.1 C 831.7 59 831.8 57.2 831.8 55.5 C 831.8 53.9 831.7 52.1 830.7 51 C 829.9 50.3 829 49.9 828 49.9 C 826.9 49.9 826 50.3 825.3 51 Z M 848.4 49.4 C 848.4 49.4 846.9 51 846.9 51 C 846 50.2 845.4 49.9 844.3 49.9 C 842.1 49.9 840.8 51.6 840.8 53.9 C 840.77 53.86 840.8 62.9 840.8 62.9 L 838.6 62.9 L 838.6 48.2 L 840.8 48.2 C 840.8 48.2 840.77 49.96 840.8 50 C 841.6 48.7 843.2 48 844.9 48 C 846.3 48 847.4 48.3 848.4 49.4 Z M 869.2 52.9 C 869.24 52.9 869.2 62.9 869.2 62.9 L 867.1 62.9 C 867.1 62.9 867.08 61.51 867.1 61.5 C 865.9 62.7 864.8 63.1 862.8 63.1 C 860.8 63.1 859.7 62.7 858.6 61.7 C 857.9 61 857.5 59.9 857.5 58.7 C 857.5 56.1 859.4 54.5 862.7 54.5 C 862.67 54.49 867.1 54.5 867.1 54.5 C 867.1 54.5 867.08 53.08 867.1 53.1 C 867.1 50.9 866 49.8 863.3 49.8 C 861.4 49.8 860.5 50.3 859.6 51.5 C 859.6 51.5 858.1 50.2 858.1 50.2 C 859.4 48.5 860.9 48 863.3 48 C 867.3 48 869.2 49.7 869.2 52.9 Z M 863 56.1 C 860.7 56.1 859.6 57 859.6 58.7 C 859.6 60.4 860.7 61.2 863.1 61.2 C 864.3 61.2 865.4 61.1 866.3 60.2 C 866.8 59.8 867.1 58.9 867.1 57.7 C 867.08 57.7 867.1 56.1 867.1 56.1 C 867.1 56.1 862.97 56.11 863 56.1 Z M 889.7 41.6 C 892.1 41.6 893.8 42.2 895.3 43.8 C 897.2 45.8 897.2 49 897.2 52.2 C 897.2 55.5 897.2 58.6 895.3 60.7 C 893.8 62.2 892.1 62.9 889.7 62.9 C 889.67 62.92 882.3 62.9 882.3 62.9 L 882.3 41.6 C 882.3 41.6 889.67 41.56 889.7 41.6 Z M 884.6 43.6 L 884.6 60.9 C 884.6 60.9 889.28 60.88 889.3 60.9 C 890.9 60.9 892.4 60.5 893.5 59.3 C 894.9 57.8 894.9 55.2 894.9 52.2 C 894.9 49.3 894.9 46.6 893.5 45.2 C 892.4 44 890.9 43.6 889.3 43.6 C 889.28 43.6 884.6 43.6 884.6 43.6 Z M 913.5 55.1 C 913.46 55.15 913.5 56.1 913.5 56.1 C 913.5 56.1 903.5 56.11 903.5 56.1 C 903.5 59.3 905 61.2 907.8 61.2 C 909.6 61.2 910.5 60.7 911.7 59.5 C 911.7 59.5 913.2 60.8 913.2 60.8 C 911.7 62.3 910.3 63.1 907.8 63.1 C 903.9 63.1 901.3 60.8 901.3 55.5 C 901.3 50.7 903.6 48 907.4 48 C 911.2 48 913.5 50.7 913.5 55.1 Z M 903.9 52 C 903.6 52.8 903.6 53.3 903.5 54.5 C 903.5 54.5 911.3 54.5 911.3 54.5 C 911.2 53.3 911.2 52.8 910.8 52 C 910.2 50.7 909 49.8 907.4 49.8 C 905.8 49.8 904.6 50.7 903.9 52 Z M 928.7 50.2 C 928.7 50.2 927.2 51.5 927.2 51.5 C 926.1 50.3 925.2 49.9 923.8 49.9 C 922.4 49.9 921.2 50.5 920.4 51.6 C 919.7 52.5 919.4 53.7 919.4 55.5 C 919.4 57.4 919.7 58.5 920.4 59.5 C 921.2 60.6 922.4 61.2 923.8 61.2 C 925.2 61.2 926.1 60.7 927.2 59.5 C 927.2 59.5 928.7 60.9 928.7 60.9 C 927.1 62.6 925.8 63.1 923.8 63.1 C 920.1 63.1 917.3 60.6 917.3 55.5 C 917.3 50.5 920.1 48 923.8 48 C 925.8 48 927.1 48.5 928.7 50.2 Z M 934.9 58.9 C 934.9 60.3 935.4 61.1 936.9 61.1 C 936.86 61.06 938 61.1 938 61.1 L 938 62.9 C 938 62.9 936.47 62.92 936.5 62.9 C 933.9 62.9 932.7 61.2 932.7 59 C 932.72 58.99 932.7 41.6 932.7 41.6 L 934.9 41.6 C 934.9 41.6 934.88 58.9 934.9 58.9 Z M 952.2 52.9 C 952.22 52.9 952.2 62.9 952.2 62.9 L 950.1 62.9 C 950.1 62.9 950.06 61.51 950.1 61.5 C 948.9 62.7 947.8 63.1 945.8 63.1 C 943.8 63.1 942.6 62.7 941.6 61.7 C 940.9 61 940.5 59.9 940.5 58.7 C 940.5 56.1 942.3 54.5 945.6 54.5 C 945.65 54.49 950.1 54.5 950.1 54.5 C 950.1 54.5 950.06 53.08 950.1 53.1 C 950.1 50.9 949 49.8 946.3 49.8 C 944.4 49.8 943.5 50.3 942.6 51.5 C 942.6 51.5 941.1 50.2 941.1 50.2 C 942.4 48.5 943.9 48 946.3 48 C 950.3 48 952.2 49.7 952.2 52.9 Z M 945.9 56.1 C 943.7 56.1 942.6 57 942.6 58.7 C 942.6 60.4 943.7 61.2 946 61.2 C 947.3 61.2 948.3 61.1 949.3 60.2 C 949.8 59.8 950.1 58.9 950.1 57.7 C 950.06 57.7 950.1 56.1 950.1 56.1 C 950.1 56.1 945.95 56.11 945.9 56.1 Z M 967.3 49.4 C 967.3 49.4 965.7 51 965.7 51 C 964.9 50.2 964.3 49.9 963.2 49.9 C 961 49.9 959.6 51.6 959.6 53.9 C 959.63 53.86 959.6 62.9 959.6 62.9 L 957.5 62.9 L 957.5 48.2 L 959.6 48.2 C 959.6 48.2 959.63 49.96 959.6 50 C 960.4 48.7 962.1 48 963.8 48 C 965.2 48 966.3 48.3 967.3 49.4 Z M 980.3 52.9 C 980.33 52.9 980.3 62.9 980.3 62.9 L 978.2 62.9 C 978.2 62.9 978.17 61.51 978.2 61.5 C 977 62.7 975.9 63.1 973.9 63.1 C 971.9 63.1 970.8 62.7 969.7 61.7 C 969 61 968.6 59.9 968.6 58.7 C 968.6 56.1 970.5 54.5 973.8 54.5 C 973.76 54.49 978.2 54.5 978.2 54.5 C 978.2 54.5 978.17 53.08 978.2 53.1 C 978.2 50.9 977.1 49.8 974.4 49.8 C 972.5 49.8 971.6 50.3 970.7 51.5 C 970.7 51.5 969.2 50.2 969.2 50.2 C 970.5 48.5 972 48 974.4 48 C 978.4 48 980.3 49.7 980.3 52.9 Z M 974.1 56.1 C 971.8 56.1 970.7 57 970.7 58.7 C 970.7 60.4 971.8 61.2 974.1 61.2 C 975.4 61.2 976.5 61.1 977.4 60.2 C 977.9 59.8 978.2 58.9 978.2 57.7 C 978.17 57.7 978.2 56.1 978.2 56.1 C 978.2 56.1 974.06 56.11 974.1 56.1 Z M 988.1 48.2 L 991.2 48.2 L 991.2 49.8 L 988.1 49.8 C 988.1 49.8 988.1 58.9 988.1 58.9 C 988.1 60.3 988.7 61.1 990.1 61.1 C 990.11 61.06 991.2 61.1 991.2 61.1 L 991.2 62.9 C 991.2 62.9 989.72 62.92 989.7 62.9 C 987.2 62.9 985.9 61.1 985.9 59 C 985.94 58.96 985.9 49.8 985.9 49.8 L 984.1 49.8 L 984.1 48.2 L 985.9 48.2 L 985.9 43.6 L 988.1 43.6 L 988.1 48.2 Z M 997.7 62.9 L 995.5 62.9 L 995.5 48.2 L 997.7 48.2 L 997.7 62.9 Z M 997.8 44 L 995.4 44 L 995.4 41.5 L 997.8 41.5 L 997.8 44 Z M 1012.6 49.7 C 1014.1 51.2 1014.4 53.3 1014.4 55.5 C 1014.4 57.8 1014.1 59.9 1012.6 61.4 C 1011.6 62.5 1010.2 63.1 1008.4 63.1 C 1006.6 63.1 1005.2 62.5 1004.1 61.4 C 1002.6 59.9 1002.3 57.8 1002.3 55.5 C 1002.3 53.3 1002.6 51.2 1004.1 49.7 C 1005.2 48.6 1006.6 48 1008.4 48 C 1010.2 48 1011.6 48.6 1012.6 49.7 Z M 1005.7 51 C 1004.6 52.1 1004.5 53.9 1004.5 55.5 C 1004.5 57.2 1004.6 59 1005.7 60.1 C 1006.4 60.8 1007.3 61.2 1008.4 61.2 C 1009.4 61.2 1010.4 60.8 1011.1 60.1 C 1012.2 59 1012.2 57.2 1012.2 55.5 C 1012.2 53.9 1012.2 52.1 1011.1 51 C 1010.4 50.3 1009.4 49.9 1008.4 49.9 C 1007.3 49.9 1006.4 50.3 1005.7 51 Z M 1029.1 49.4 C 1030.2 50.4 1030.7 51.8 1030.7 53.5 C 1030.67 53.5 1030.7 62.9 1030.7 62.9 L 1028.5 62.9 C 1028.5 62.9 1028.51 53.83 1028.5 53.8 C 1028.5 51.2 1027.1 49.9 1024.9 49.9 C 1022.7 49.9 1021.2 51.2 1021.2 53.8 C 1021.19 53.83 1021.2 62.9 1021.2 62.9 L 1019 62.9 L 1019 48.2 L 1021.2 48.2 C 1021.2 48.2 1021.16 49.81 1021.2 49.8 C 1022.2 48.6 1023.7 48 1025.3 48 C 1026.9 48 1028.2 48.5 1029.1 49.4 Z M 1052.9 49.7 C 1054.4 51.2 1054.7 53.3 1054.7 55.5 C 1054.7 57.8 1054.4 59.9 1052.9 61.4 C 1051.8 62.5 1050.4 63.1 1048.6 63.1 C 1046.8 63.1 1045.4 62.5 1044.4 61.4 C 1042.9 59.9 1042.6 57.8 1042.6 55.5 C 1042.6 53.3 1042.9 51.2 1044.4 49.7 C 1045.4 48.6 1046.8 48 1048.6 48 C 1050.4 48 1051.8 48.6 1052.9 49.7 Z M 1046 51 C 1044.9 52.1 1044.8 53.9 1044.8 55.5 C 1044.8 57.2 1044.9 59 1046 60.1 C 1046.7 60.8 1047.6 61.2 1048.6 61.2 C 1049.7 61.2 1050.6 60.8 1051.3 60.1 C 1052.4 59 1052.5 57.2 1052.5 55.5 C 1052.5 53.9 1052.4 52.1 1051.3 51 C 1050.6 50.3 1049.7 49.9 1048.6 49.9 C 1047.6 49.9 1046.7 50.3 1046 51 Z M 1065.1 43.4 C 1065.1 43.4 1063.9 43.39 1063.9 43.4 C 1062.5 43.4 1061.9 44.2 1061.9 45.5 C 1061.92 45.55 1061.9 48.2 1061.9 48.2 L 1065.1 48.2 L 1065.1 49.8 L 1061.9 49.8 L 1061.9 62.9 L 1059.8 62.9 L 1059.8 49.8 L 1057.9 49.8 L 1057.9 48.2 L 1059.8 48.2 C 1059.8 48.2 1059.77 45.49 1059.8 45.5 C 1059.8 43.3 1061 41.5 1063.5 41.5 C 1063.52 41.53 1065.1 41.5 1065.1 41.5 L 1065.1 43.4 Z " stroke="none" fill="#000"/>  </g>  <g id="Polygon23946">    <path d="M 18 22.9 L 15.5 22.9 L 13.8 18.1 L 4.5 18.1 L 2.8 22.9 L 0.4 22.9 L 8.2 1.6 L 10.1 1.6 L 18 22.9 Z M 5.2 16.1 L 13.1 16.1 L 9.2 4.8 L 5.2 16.1 Z M 38.4 9.3 C 39.9 10.7 40.2 13.2 40.2 15.5 C 40.2 17.9 39.9 20.3 38.4 21.8 C 37.6 22.6 36.4 23.1 34.8 23.1 C 33.2 23.1 31.9 22.7 30.7 21.2 C 30.66 21.18 30.7 29.5 30.7 29.5 L 28.5 29.5 L 28.5 8.2 L 30.7 8.2 C 30.7 8.2 30.66 9.9 30.7 9.9 C 31.9 8.4 33.2 8 34.8 8 C 36.4 8 37.6 8.5 38.4 9.3 Z M 30.7 15.5 C 30.7 18.4 31.1 21.2 34.4 21.2 C 37.6 21.2 38.1 18.4 38.1 15.5 C 38.1 12.7 37.6 9.9 34.4 9.9 C 31.1 9.9 30.7 12.7 30.7 15.5 Z M 54.3 9.7 C 55.8 11.2 56.1 13.3 56.1 15.5 C 56.1 17.8 55.8 19.9 54.3 21.4 C 53.3 22.5 51.9 23.1 50.1 23.1 C 48.3 23.1 46.9 22.5 45.9 21.4 C 44.4 19.9 44.1 17.8 44.1 15.5 C 44.1 13.3 44.4 11.2 45.9 9.7 C 46.9 8.6 48.3 8 50.1 8 C 51.9 8 53.3 8.6 54.3 9.7 Z M 47.4 11 C 46.3 12.1 46.2 13.9 46.2 15.5 C 46.2 17.2 46.3 19 47.4 20.1 C 48.1 20.8 49 21.2 50.1 21.2 C 51.1 21.2 52.1 20.8 52.8 20.1 C 53.9 19 54 17.2 54 15.5 C 54 13.9 53.9 12.1 52.8 11 C 52.1 10.3 51.1 9.9 50.1 9.9 C 49 9.9 48.1 10.3 47.4 11 Z M 62.8 18.9 C 62.8 20.3 63.3 21.1 64.8 21.1 C 64.83 21.06 66 21.1 66 21.1 L 66 22.9 C 66 22.9 64.44 22.92 64.4 22.9 C 61.9 22.9 60.7 21.2 60.7 19 C 60.69 18.99 60.7 1.6 60.7 1.6 L 62.8 1.6 C 62.8 1.6 62.85 18.9 62.8 18.9 Z M 71.8 22.9 L 69.7 22.9 L 69.7 8.2 L 71.8 8.2 L 71.8 22.9 Z M 72 4 L 69.5 4 L 69.5 1.5 L 72 1.5 L 72 4 Z M 87.9 10.2 C 87.9 10.2 86.4 11.5 86.4 11.5 C 85.3 10.3 84.4 9.9 83 9.9 C 81.6 9.9 80.4 10.5 79.6 11.6 C 78.9 12.5 78.6 13.7 78.6 15.5 C 78.6 17.4 78.9 18.5 79.6 19.5 C 80.4 20.6 81.6 21.2 83 21.2 C 84.4 21.2 85.3 20.7 86.4 19.5 C 86.4 19.5 87.9 20.9 87.9 20.9 C 86.3 22.6 85 23.1 83 23.1 C 79.3 23.1 76.5 20.6 76.5 15.5 C 76.5 10.5 79.3 8 83 8 C 85 8 86.3 8.5 87.9 10.2 Z M 95.6 26.8 C 95.3 27.6 94.9 28.1 94.5 28.5 C 93.7 29.2 92.7 29.5 91.6 29.5 C 91.65 29.52 90.7 29.5 90.7 29.5 L 90.7 27.6 C 90.7 27.6 91.38 27.6 91.4 27.6 C 92.9 27.6 93.3 27.1 93.8 25.8 C 93.81 25.77 94.9 22.6 94.9 22.6 L 89.6 8.2 L 92 8.2 L 96 20 L 100 8.2 L 102.4 8.2 C 102.4 8.2 95.58 26.76 95.6 26.8 Z M 123.5 10.2 C 123.5 10.2 122 11.5 122 11.5 C 120.9 10.3 120.1 9.9 118.6 9.9 C 117.2 9.9 116 10.5 115.2 11.6 C 114.5 12.5 114.3 13.7 114.3 15.5 C 114.3 17.4 114.5 18.5 115.2 19.5 C 116 20.6 117.2 21.2 118.6 21.2 C 120.1 21.2 120.9 20.7 122 19.5 C 122 19.5 123.5 20.9 123.5 20.9 C 122 22.6 120.7 23.1 118.6 23.1 C 114.9 23.1 112.1 20.6 112.1 15.5 C 112.1 10.5 114.9 8 118.6 8 C 120.7 8 122 8.5 123.5 10.2 Z M 138 12.9 C 138 12.9 138 22.9 138 22.9 L 135.8 22.9 C 135.8 22.9 135.84 21.51 135.8 21.5 C 134.7 22.7 133.6 23.1 131.6 23.1 C 129.5 23.1 128.4 22.7 127.4 21.7 C 126.7 21 126.3 19.9 126.3 18.7 C 126.3 16.1 128.1 14.5 131.4 14.5 C 131.43 14.49 135.8 14.5 135.8 14.5 C 135.8 14.5 135.84 13.08 135.8 13.1 C 135.8 10.9 134.8 9.8 132.1 9.8 C 130.2 9.8 129.2 10.3 128.3 11.5 C 128.3 11.5 126.9 10.2 126.9 10.2 C 128.2 8.5 129.7 8 132.1 8 C 136.1 8 138 9.7 138 12.9 Z M 131.7 16.1 C 129.5 16.1 128.4 17 128.4 18.7 C 128.4 20.4 129.4 21.2 131.8 21.2 C 133 21.2 134.1 21.1 135.1 20.2 C 135.6 19.8 135.8 18.9 135.8 17.7 C 135.84 17.7 135.8 16.1 135.8 16.1 C 135.8 16.1 131.73 16.11 131.7 16.1 Z M 153.4 9.4 C 154.4 10.4 154.9 11.8 154.9 13.5 C 154.89 13.5 154.9 22.9 154.9 22.9 L 152.7 22.9 C 152.7 22.9 152.73 13.83 152.7 13.8 C 152.7 11.2 151.3 9.9 149.1 9.9 C 146.9 9.9 145.4 11.2 145.4 13.8 C 145.41 13.83 145.4 22.9 145.4 22.9 L 143.2 22.9 L 143.2 8.2 L 145.4 8.2 C 145.4 8.2 145.38 9.81 145.4 9.8 C 146.4 8.6 147.9 8 149.5 8 C 151.1 8 152.5 8.5 153.4 9.4 Z M 169.8 9.9 C 171 8.3 172.3 8 173.9 8 C 175.5 8 176.8 8.5 177.5 9.3 C 179 10.7 179.3 13.2 179.3 15.5 C 179.3 17.9 179 20.3 177.5 21.8 C 176.8 22.6 175.5 23.1 173.9 23.1 C 172.3 23.1 171 22.7 169.8 21.1 C 169.77 21.15 169.8 22.9 169.8 22.9 L 167.6 22.9 L 167.6 1.6 L 169.8 1.6 C 169.8 1.6 169.77 9.87 169.8 9.9 Z M 169.8 15.5 C 169.8 18.4 170.2 21.2 173.5 21.2 C 176.7 21.2 177.2 18.4 177.2 15.5 C 177.2 12.7 176.7 9.9 173.5 9.9 C 170.2 9.9 169.8 12.7 169.8 15.5 Z M 195.3 15.1 C 195.27 15.15 195.3 16.1 195.3 16.1 C 195.3 16.1 185.31 16.11 185.3 16.1 C 185.3 19.3 186.8 21.2 189.7 21.2 C 191.4 21.2 192.4 20.7 193.5 19.5 C 193.5 19.5 195 20.8 195 20.8 C 193.5 22.3 192.1 23.1 189.6 23.1 C 185.7 23.1 183.1 20.8 183.1 15.5 C 183.1 10.7 185.5 8 189.2 8 C 193 8 195.3 10.7 195.3 15.1 Z M 185.8 12 C 185.4 12.8 185.4 13.3 185.3 14.5 C 185.3 14.5 193.1 14.5 193.1 14.5 C 193 13.3 193 12.8 192.7 12 C 192 10.7 190.8 9.8 189.2 9.8 C 187.6 9.8 186.4 10.7 185.8 12 Z M 218.3 22.9 L 216.1 22.9 C 216.1 22.9 216.12 21.18 216.1 21.2 C 214.9 22.7 213.6 23.1 211.9 23.1 C 210.4 23.1 209.1 22.6 208.3 21.8 C 206.9 20.3 206.5 17.9 206.5 15.5 C 206.5 13.2 206.9 10.8 208.3 9.3 C 209.1 8.5 210.4 8 211.9 8 C 213.6 8 214.9 8.4 216.1 9.9 C 216.12 9.9 216.1 1.6 216.1 1.6 L 218.3 1.6 L 218.3 22.9 Z M 208.7 15.5 C 208.7 18.4 209.2 21.2 212.4 21.2 C 215.6 21.2 216.1 18.4 216.1 15.5 C 216.1 12.7 215.6 9.9 212.4 9.9 C 209.2 9.9 208.7 12.7 208.7 15.5 Z M 235 15.1 C 234.99 15.15 235 16.1 235 16.1 C 235 16.1 225.03 16.11 225 16.1 C 225 19.3 226.5 21.2 229.4 21.2 C 231.1 21.2 232.1 20.7 233.2 19.5 C 233.2 19.5 234.7 20.8 234.7 20.8 C 233.2 22.3 231.8 23.1 229.3 23.1 C 225.4 23.1 222.9 20.8 222.9 15.5 C 222.9 10.7 225.2 8 228.9 8 C 232.8 8 235 10.7 235 15.1 Z M 225.5 12 C 225.1 12.8 225.1 13.3 225 14.5 C 225 14.5 232.9 14.5 232.9 14.5 C 232.8 13.3 232.7 12.8 232.4 12 C 231.7 10.7 230.5 9.8 228.9 9.8 C 227.3 9.8 226.1 10.7 225.5 12 Z M 241.7 18.9 C 241.7 20.3 242.2 21.1 243.7 21.1 C 243.66 21.06 244.8 21.1 244.8 21.1 L 244.8 22.9 C 244.8 22.9 243.27 22.92 243.3 22.9 C 240.7 22.9 239.5 21.2 239.5 19 C 239.52 18.99 239.5 1.6 239.5 1.6 L 241.7 1.6 C 241.7 1.6 241.68 18.9 241.7 18.9 Z M 250.6 22.9 L 248.5 22.9 L 248.5 8.2 L 250.6 8.2 L 250.6 22.9 Z M 250.8 4 L 248.4 4 L 248.4 1.5 L 250.8 1.5 L 250.8 4 Z M 253.7 8.2 L 256 8.2 L 260.1 20 L 264.1 8.2 L 266.5 8.2 L 261 22.9 L 259.1 22.9 L 253.7 8.2 Z M 280.5 15.1 C 280.5 15.15 280.5 16.1 280.5 16.1 C 280.5 16.1 270.54 16.11 270.5 16.1 C 270.5 19.3 272 21.2 274.9 21.2 C 276.6 21.2 277.6 20.7 278.8 19.5 C 278.8 19.5 280.2 20.8 280.2 20.8 C 278.7 22.3 277.3 23.1 274.8 23.1 C 270.9 23.1 268.4 20.8 268.4 15.5 C 268.4 10.7 270.7 8 274.4 8 C 278.3 8 280.5 10.7 280.5 15.1 Z M 271 12 C 270.6 12.8 270.6 13.3 270.5 14.5 C 270.5 14.5 278.4 14.5 278.4 14.5 C 278.3 13.3 278.2 12.8 277.9 12 C 277.3 10.7 276 9.8 274.4 9.8 C 272.8 9.8 271.6 10.7 271 12 Z M 294.9 9.4 C 294.9 9.4 293.3 11 293.3 11 C 292.5 10.2 291.9 9.9 290.8 9.9 C 288.6 9.9 287.2 11.6 287.2 13.9 C 287.25 13.86 287.2 22.9 287.2 22.9 L 285.1 22.9 L 285.1 8.2 L 287.2 8.2 C 287.2 8.2 287.25 9.96 287.2 10 C 288.1 8.7 289.7 8 291.4 8 C 292.8 8 293.9 8.3 294.9 9.4 Z M 308.1 15.1 C 308.13 15.15 308.1 16.1 308.1 16.1 C 308.1 16.1 298.17 16.11 298.2 16.1 C 298.2 19.3 299.7 21.2 302.5 21.2 C 304.2 21.2 305.2 20.7 306.4 19.5 C 306.4 19.5 307.9 20.8 307.9 20.8 C 306.4 22.3 304.9 23.1 302.5 23.1 C 298.5 23.1 296 20.8 296 15.5 C 296 10.7 298.3 8 302.1 8 C 305.9 8 308.1 10.7 308.1 15.1 Z M 298.6 12 C 298.3 12.8 298.2 13.3 298.2 14.5 C 298.2 14.5 306 14.5 306 14.5 C 305.9 13.3 305.9 12.8 305.5 12 C 304.9 10.7 303.7 9.8 302.1 9.8 C 300.5 9.8 299.2 10.7 298.6 12 Z M 323.7 22.9 L 321.5 22.9 C 321.5 22.9 321.51 21.18 321.5 21.2 C 320.3 22.7 319 23.1 317.3 23.1 C 315.8 23.1 314.5 22.6 313.7 21.8 C 312.3 20.3 311.9 17.9 311.9 15.5 C 311.9 13.2 312.3 10.8 313.7 9.3 C 314.5 8.5 315.8 8 317.3 8 C 319 8 320.3 8.4 321.5 9.9 C 321.51 9.9 321.5 1.6 321.5 1.6 L 323.7 1.6 L 323.7 22.9 Z M 314.1 15.5 C 314.1 18.4 314.6 21.2 317.8 21.2 C 321 21.2 321.5 18.4 321.5 15.5 C 321.5 12.7 321 9.9 317.8 9.9 C 314.6 9.9 314.1 12.7 314.1 15.5 Z M 334.2 8.2 L 336.5 8.2 L 340.6 20 L 344.6 8.2 L 346.9 8.2 L 341.5 22.9 L 339.6 22.9 L 334.2 8.2 Z M 352.1 22.9 L 349.9 22.9 L 349.9 8.2 L 352.1 8.2 L 352.1 22.9 Z M 352.3 4 L 349.8 4 L 349.8 1.5 L 352.3 1.5 L 352.3 4 Z M 368.1 12.9 C 368.07 12.9 368.1 22.9 368.1 22.9 L 365.9 22.9 C 365.9 22.9 365.91 21.51 365.9 21.5 C 364.7 22.7 363.6 23.1 361.6 23.1 C 359.6 23.1 358.5 22.7 357.5 21.7 C 356.7 21 356.4 19.9 356.4 18.7 C 356.4 16.1 358.2 14.5 361.5 14.5 C 361.5 14.49 365.9 14.5 365.9 14.5 C 365.9 14.5 365.91 13.08 365.9 13.1 C 365.9 10.9 364.9 9.8 362.1 9.8 C 360.3 9.8 359.3 10.3 358.4 11.5 C 358.4 11.5 356.9 10.2 356.9 10.2 C 358.2 8.5 359.7 8 362.2 8 C 366.1 8 368.1 9.7 368.1 12.9 Z M 361.8 16.1 C 359.6 16.1 358.5 17 358.5 18.7 C 358.5 20.4 359.5 21.2 361.9 21.2 C 363.1 21.2 364.2 21.1 365.2 20.2 C 365.7 19.8 365.9 18.9 365.9 17.7 C 365.91 17.7 365.9 16.1 365.9 16.1 C 365.9 16.1 361.8 16.11 361.8 16.1 Z M 382.9 18.9 C 382.9 20.3 383.4 21.1 384.9 21.1 C 384.86 21.06 386 21.1 386 21.1 L 386 22.9 C 386 22.9 384.47 22.92 384.5 22.9 C 381.9 22.9 380.7 21.2 380.7 19 C 380.72 18.99 380.7 1.6 380.7 1.6 L 382.9 1.6 C 382.9 1.6 382.88 18.9 382.9 18.9 Z M 391.9 22.9 L 389.7 22.9 L 389.7 8.2 L 391.9 8.2 L 391.9 22.9 Z M 392 4 L 389.6 4 L 389.6 1.5 L 392 1.5 L 392 4 Z M 416.8 9.4 C 417.9 10.4 418.4 11.8 418.4 13.5 C 418.4 13.47 418.4 22.9 418.4 22.9 L 416.2 22.9 C 416.2 22.9 416.24 13.83 416.2 13.8 C 416.2 11.2 414.8 9.9 412.6 9.9 C 410.5 9.9 408.9 11.2 408.9 13.6 C 408.92 13.59 408.9 22.9 408.9 22.9 L 406.8 22.9 C 406.8 22.9 406.76 13.83 406.8 13.8 C 406.8 11.2 405.4 9.9 403.1 9.9 C 400.9 9.9 399.4 11.2 399.4 13.8 C 399.44 13.83 399.4 22.9 399.4 22.9 L 397.3 22.9 L 397.3 8.2 L 399.4 8.2 C 399.4 8.2 399.44 9.78 399.4 9.8 C 400.5 8.6 402 8 403.6 8 C 405.7 8 407.2 8.8 408.1 10.4 C 409.3 8.8 410.9 8 413 8 C 414.6 8 415.9 8.5 416.8 9.4 Z M 425.8 22.9 L 423.7 22.9 L 423.7 8.2 L 425.8 8.2 L 425.8 22.9 Z M 426 4 L 423.5 4 L 423.5 1.5 L 426 1.5 L 426 4 Z M 433.8 8.2 L 436.9 8.2 L 436.9 9.8 L 433.8 9.8 C 433.8 9.8 433.76 18.9 433.8 18.9 C 433.8 20.3 434.4 21.1 435.8 21.1 C 435.77 21.06 436.9 21.1 436.9 21.1 L 436.9 22.9 C 436.9 22.9 435.38 22.92 435.4 22.9 C 432.9 22.9 431.6 21.1 431.6 19 C 431.6 18.96 431.6 9.8 431.6 9.8 L 429.7 9.8 L 429.7 8.2 L 431.6 8.2 L 431.6 3.6 L 433.8 3.6 L 433.8 8.2 Z M 452.4 15.1 C 452.36 15.15 452.4 16.1 452.4 16.1 C 452.4 16.1 442.4 16.11 442.4 16.1 C 442.4 19.3 443.9 21.2 446.8 21.2 C 448.5 21.2 449.5 20.7 450.6 19.5 C 450.6 19.5 452.1 20.8 452.1 20.8 C 450.6 22.3 449.2 23.1 446.7 23.1 C 442.8 23.1 440.2 20.8 440.2 15.5 C 440.2 10.7 442.6 8 446.3 8 C 450.1 8 452.4 10.7 452.4 15.1 Z M 442.9 12 C 442.5 12.8 442.5 13.3 442.4 14.5 C 442.4 14.5 450.2 14.5 450.2 14.5 C 450.1 13.3 450.1 12.8 449.8 12 C 449.1 10.7 447.9 9.8 446.3 9.8 C 444.7 9.8 443.5 10.7 442.9 12 Z M 467.9 22.9 L 465.7 22.9 C 465.7 22.9 465.74 21.18 465.7 21.2 C 464.5 22.7 463.2 23.1 461.6 23.1 C 460 23.1 458.8 22.6 458 21.8 C 456.5 20.3 456.2 17.9 456.2 15.5 C 456.2 13.2 456.5 10.8 458 9.3 C 458.8 8.5 460 8 461.6 8 C 463.2 8 464.5 8.4 465.7 9.9 C 465.74 9.9 465.7 1.6 465.7 1.6 L 467.9 1.6 L 467.9 22.9 Z M 458.3 15.5 C 458.3 18.4 458.8 21.2 462 21.2 C 465.3 21.2 465.7 18.4 465.7 15.5 C 465.7 12.7 465.3 9.9 462 9.9 C 458.8 9.9 458.3 12.7 458.3 15.5 Z M 489.1 1.6 C 493 1.6 495.7 4 495.7 7.8 C 495.7 11.6 493 14.1 489.1 14.1 C 489.11 14.13 483.4 14.1 483.4 14.1 L 483.4 22.9 L 481.2 22.9 L 481.2 1.6 C 481.2 1.6 489.11 1.56 489.1 1.6 Z M 483.4 3.6 L 483.4 12.1 C 483.4 12.1 488.93 12.09 488.9 12.1 C 491.6 12.1 493.4 10.6 493.4 7.8 C 493.4 5 491.6 3.6 488.9 3.6 C 488.93 3.6 483.4 3.6 483.4 3.6 Z M 508.9 9.7 C 510.4 11.2 510.7 13.3 510.7 15.5 C 510.7 17.8 510.4 19.9 508.9 21.4 C 507.8 22.5 506.4 23.1 504.6 23.1 C 502.8 23.1 501.4 22.5 500.4 21.4 C 498.9 19.9 498.6 17.8 498.6 15.5 C 498.6 13.3 498.9 11.2 500.4 9.7 C 501.4 8.6 502.8 8 504.6 8 C 506.4 8 507.8 8.6 508.9 9.7 Z M 502 11 C 500.9 12.1 500.8 13.9 500.8 15.5 C 500.8 17.2 500.8 19 502 20.1 C 502.7 20.8 503.6 21.2 504.6 21.2 C 505.7 21.2 506.6 20.8 507.3 20.1 C 508.4 19 508.5 17.2 508.5 15.5 C 508.5 13.9 508.4 12.1 507.3 11 C 506.6 10.3 505.7 9.9 504.6 9.9 C 503.6 9.9 502.7 10.3 502 11 Z M 512.8 8.2 L 515.1 8.2 L 518.5 20 L 522.4 8.2 L 524.2 8.2 L 528.1 20 L 531.5 8.2 L 533.8 8.2 L 529.1 22.9 L 527.1 22.9 L 523.3 10.9 L 519.4 22.9 L 517.5 22.9 L 512.8 8.2 Z M 548 15.1 C 548 15.15 548 16.1 548 16.1 C 548 16.1 538.04 16.11 538 16.1 C 538 19.3 539.5 21.2 542.4 21.2 C 544.1 21.2 545.1 20.7 546.3 19.5 C 546.3 19.5 547.7 20.8 547.7 20.8 C 546.2 22.3 544.8 23.1 542.3 23.1 C 538.4 23.1 535.9 20.8 535.9 15.5 C 535.9 10.7 538.2 8 541.9 8 C 545.8 8 548 10.7 548 15.1 Z M 538.5 12 C 538.1 12.8 538.1 13.3 538 14.5 C 538 14.5 545.9 14.5 545.9 14.5 C 545.8 13.3 545.8 12.8 545.4 12 C 544.8 10.7 543.5 9.8 541.9 9.8 C 540.4 9.8 539.1 10.7 538.5 12 Z M 562.4 9.4 C 562.4 9.4 560.8 11 560.8 11 C 560 10.2 559.4 9.9 558.3 9.9 C 556.1 9.9 554.8 11.6 554.8 13.9 C 554.75 13.86 554.8 22.9 554.8 22.9 L 552.6 22.9 L 552.6 8.2 L 554.8 8.2 C 554.8 8.2 554.75 9.96 554.8 10 C 555.6 8.7 557.2 8 558.9 8 C 560.3 8 561.4 8.3 562.4 9.4 Z M 582.2 9.7 C 583.7 11.2 584 13.3 584 15.5 C 584 17.8 583.7 19.9 582.2 21.4 C 581.2 22.5 579.7 23.1 577.9 23.1 C 576.1 23.1 574.7 22.5 573.7 21.4 C 572.2 19.9 571.9 17.8 571.9 15.5 C 571.9 13.3 572.2 11.2 573.7 9.7 C 574.7 8.6 576.1 8 577.9 8 C 579.7 8 581.2 8.6 582.2 9.7 Z M 575.3 11 C 574.2 12.1 574.1 13.9 574.1 15.5 C 574.1 17.2 574.2 19 575.3 20.1 C 576 20.8 576.9 21.2 577.9 21.2 C 579 21.2 579.9 20.8 580.6 20.1 C 581.7 19 581.8 17.2 581.8 15.5 C 581.8 13.9 581.7 12.1 580.6 11 C 579.9 10.3 579 9.9 577.9 9.9 C 576.9 9.9 576 10.3 575.3 11 Z M 594.4 3.4 C 594.4 3.4 593.21 3.39 593.2 3.4 C 591.8 3.4 591.2 4.2 591.2 5.5 C 591.23 5.55 591.2 8.2 591.2 8.2 L 594.4 8.2 L 594.4 9.8 L 591.2 9.8 L 591.2 22.9 L 589.1 22.9 L 589.1 9.8 L 587.2 9.8 L 587.2 8.2 L 589.1 8.2 C 589.1 8.2 589.07 5.49 589.1 5.5 C 589.1 3.3 590.3 1.5 592.8 1.5 C 592.82 1.53 594.4 1.5 594.4 1.5 L 594.4 3.4 Z M 620.8 22.9 L 618.3 22.9 L 616.6 18.1 L 607.3 18.1 L 605.6 22.9 L 603.1 22.9 L 611 1.6 L 612.9 1.6 L 620.8 22.9 Z M 608 16.1 L 615.9 16.1 L 612 4.8 L 608 16.1 Z M 625.7 8.2 L 628.9 8.2 L 628.9 9.8 L 625.7 9.8 C 625.7 9.8 625.73 18.9 625.7 18.9 C 625.7 20.3 626.4 21.1 627.7 21.1 C 627.74 21.06 628.9 21.1 628.9 21.1 L 628.9 22.9 C 628.9 22.9 627.35 22.92 627.4 22.9 C 624.8 22.9 623.6 21.1 623.6 19 C 623.57 18.96 623.6 9.8 623.6 9.8 L 621.7 9.8 L 621.7 8.2 L 623.6 8.2 L 623.6 3.6 L 625.7 3.6 L 625.7 8.2 Z M 635.5 8.2 L 638.6 8.2 L 638.6 9.8 L 635.5 9.8 C 635.5 9.8 635.45 18.9 635.5 18.9 C 635.5 20.3 636.1 21.1 637.5 21.1 C 637.46 21.06 638.6 21.1 638.6 21.1 L 638.6 22.9 C 638.6 22.9 637.07 22.92 637.1 22.9 C 634.6 22.9 633.3 21.1 633.3 19 C 633.29 18.96 633.3 9.8 633.3 9.8 L 631.4 9.8 L 631.4 8.2 L 633.3 8.2 L 633.3 3.6 L 635.5 3.6 L 635.5 8.2 Z M 652.2 9.7 C 653.7 11.2 654 13.3 654 15.5 C 654 17.8 653.7 19.9 652.2 21.4 C 651.2 22.5 649.8 23.1 648 23.1 C 646.2 23.1 644.8 22.5 643.8 21.4 C 642.3 19.9 642 17.8 642 15.5 C 642 13.3 642.3 11.2 643.8 9.7 C 644.8 8.6 646.2 8 648 8 C 649.8 8 651.2 8.6 652.2 9.7 Z M 645.3 11 C 644.2 12.1 644.1 13.9 644.1 15.5 C 644.1 17.2 644.2 19 645.3 20.1 C 646 20.8 646.9 21.2 648 21.2 C 649 21.2 650 20.8 650.7 20.1 C 651.8 19 651.9 17.2 651.9 15.5 C 651.9 13.9 651.8 12.1 650.7 11 C 650 10.3 649 9.9 648 9.9 C 646.9 9.9 646 10.3 645.3 11 Z M 668.5 9.4 C 668.5 9.4 666.9 11 666.9 11 C 666.1 10.2 665.5 9.9 664.3 9.9 C 662.2 9.9 660.8 11.6 660.8 13.9 C 660.8 13.86 660.8 22.9 660.8 22.9 L 658.6 22.9 L 658.6 8.2 L 660.8 8.2 C 660.8 8.2 660.8 9.96 660.8 10 C 661.6 8.7 663.2 8 664.9 8 C 666.4 8 667.4 8.3 668.5 9.4 Z M 681.4 9.4 C 682.4 10.4 682.9 11.8 682.9 13.5 C 682.91 13.5 682.9 22.9 682.9 22.9 L 680.8 22.9 C 680.8 22.9 680.75 13.83 680.8 13.8 C 680.8 11.2 679.3 9.9 677.1 9.9 C 674.9 9.9 673.4 11.2 673.4 13.8 C 673.43 13.83 673.4 22.9 673.4 22.9 L 671.3 22.9 L 671.3 8.2 L 673.4 8.2 C 673.4 8.2 673.4 9.81 673.4 9.8 C 674.5 8.6 675.9 8 677.6 8 C 679.2 8 680.5 8.5 681.4 9.4 Z M 699.5 15.1 C 699.47 15.15 699.5 16.1 699.5 16.1 C 699.5 16.1 689.51 16.11 689.5 16.1 C 689.5 19.3 691 21.2 693.9 21.2 C 695.6 21.2 696.6 20.7 697.7 19.5 C 697.7 19.5 699.2 20.8 699.2 20.8 C 697.7 22.3 696.3 23.1 693.8 23.1 C 689.9 23.1 687.4 20.8 687.4 15.5 C 687.4 10.7 689.7 8 693.4 8 C 697.3 8 699.5 10.7 699.5 15.1 Z M 690 12 C 689.6 12.8 689.6 13.3 689.5 14.5 C 689.5 14.5 697.3 14.5 697.3 14.5 C 697.3 13.3 697.2 12.8 696.9 12 C 696.2 10.7 695 9.8 693.4 9.8 C 691.8 9.8 690.6 10.7 690 12 Z M 707.5 26.8 C 707.2 27.6 706.9 28.1 706.4 28.5 C 705.7 29.2 704.6 29.5 703.6 29.5 C 703.55 29.52 702.6 29.5 702.6 29.5 L 702.6 27.6 C 702.6 27.6 703.28 27.6 703.3 27.6 C 704.8 27.6 705.2 27.1 705.7 25.8 C 705.71 25.77 706.9 22.6 706.9 22.6 L 701.5 8.2 L 703.9 8.2 L 707.9 20 L 712 8.2 L 714.3 8.2 C 714.3 8.2 707.48 26.76 707.5 26.8 Z M 727 22.9 L 724.8 22.9 L 724.8 8.2 L 727 8.2 L 727 22.9 Z M 727.1 4 L 724.7 4 L 724.7 1.5 L 727.1 1.5 L 727.1 4 Z M 742.5 9.4 C 743.5 10.4 744 11.8 744 13.5 C 744.02 13.5 744 22.9 744 22.9 L 741.9 22.9 C 741.9 22.9 741.86 13.83 741.9 13.8 C 741.9 11.2 740.5 9.9 738.2 9.9 C 736 9.9 734.5 11.2 734.5 13.8 C 734.54 13.83 734.5 22.9 734.5 22.9 L 732.4 22.9 L 732.4 8.2 L 734.5 8.2 C 734.5 8.2 734.51 9.81 734.5 9.8 C 735.6 8.6 737 8 738.7 8 C 740.3 8 741.6 8.5 742.5 9.4 Z M 759.3 8.2 L 762.4 8.2 L 762.4 9.8 L 759.3 9.8 C 759.3 9.8 759.26 18.9 759.3 18.9 C 759.3 20.3 759.9 21.1 761.3 21.1 C 761.27 21.06 762.4 21.1 762.4 21.1 L 762.4 22.9 C 762.4 22.9 760.88 22.92 760.9 22.9 C 758.4 22.9 757.1 21.1 757.1 19 C 757.1 18.96 757.1 9.8 757.1 9.8 L 755.2 9.8 L 755.2 8.2 L 757.1 8.2 L 757.1 3.6 L 759.3 3.6 L 759.3 8.2 Z M 768.9 9.8 C 769.9 8.6 771.3 8 773 8 C 774.6 8 775.9 8.5 776.8 9.4 C 777.9 10.4 778.3 11.8 778.3 13.5 C 778.31 13.5 778.3 22.9 778.3 22.9 L 776.2 22.9 C 776.2 22.9 776.15 13.83 776.2 13.8 C 776.2 11.2 774.8 9.9 772.6 9.9 C 770.3 9.9 768.9 11.2 768.9 13.8 C 768.86 13.83 768.9 22.9 768.9 22.9 L 766.7 22.9 L 766.7 1.6 L 768.9 1.6 C 768.9 1.6 768.86 9.81 768.9 9.8 Z M 794.9 15.1 C 794.87 15.15 794.9 16.1 794.9 16.1 C 794.9 16.1 784.91 16.11 784.9 16.1 C 784.9 19.3 786.4 21.2 789.3 21.2 C 791 21.2 792 20.7 793.1 19.5 C 793.1 19.5 794.6 20.8 794.6 20.8 C 793.1 22.3 791.7 23.1 789.2 23.1 C 785.3 23.1 782.8 20.8 782.8 15.5 C 782.8 10.7 785.1 8 788.8 8 C 792.7 8 794.9 10.7 794.9 15.1 Z M 785.4 12 C 785 12.8 785 13.3 784.9 14.5 C 784.9 14.5 792.7 14.5 792.7 14.5 C 792.7 13.3 792.6 12.8 792.3 12 C 791.6 10.7 790.4 9.8 788.8 9.8 C 787.2 9.8 786 10.7 785.4 12 Z M 821.9 15.9 C 821.9 20.1 818.8 23.1 814.5 23.1 C 810.1 23.1 807 20.1 807 15.9 C 807.02 15.87 807 1.6 807 1.6 L 809.3 1.6 C 809.3 1.6 809.3 15.69 809.3 15.7 C 809.3 18.9 811.3 21.1 814.5 21.1 C 817.6 21.1 819.7 18.9 819.7 15.7 C 819.65 15.69 819.7 1.6 819.7 1.6 L 821.9 1.6 C 821.9 1.6 821.93 15.87 821.9 15.9 Z M 830.2 22.9 L 827.4 22.9 L 827.4 20.1 L 830.2 20.1 L 830.2 22.9 Z M 847.8 3.7 C 847.8 3.7 846.4 5.2 846.4 5.2 C 845.1 4 843.6 3.3 841.4 3.3 C 838.5 3.3 836.9 4.9 836.9 7.3 C 836.9 8.4 837.2 9.2 837.8 9.8 C 838.5 10.4 839.5 10.7 840.6 10.9 C 840.6 10.9 843.1 11.3 843.1 11.3 C 845.1 11.6 846 12 847 12.8 C 848.1 13.8 848.8 15.3 848.8 17 C 848.8 20.8 845.9 23.1 841.4 23.1 C 838.2 23.1 836.1 22.3 834.1 20.3 C 834.1 20.3 835.6 18.7 835.6 18.7 C 837.4 20.5 839.1 21.1 841.5 21.1 C 844.6 21.1 846.5 19.6 846.5 17.1 C 846.5 16 846.2 15.1 845.5 14.4 C 844.8 13.8 844.2 13.6 842.7 13.4 C 842.7 13.4 840.2 13 840.2 13 C 838.5 12.7 837.3 12.2 836.3 11.4 C 835.2 10.4 834.6 9.1 834.6 7.4 C 834.6 3.7 837.3 1.4 841.5 1.4 C 844.2 1.4 846 2.1 847.8 3.7 Z M 855.9 22.9 L 853.1 22.9 L 853.1 20.1 L 855.9 20.1 L 855.9 22.9 Z M 880.2 22.9 L 878.1 22.9 C 878.1 22.9 878.09 21.27 878.1 21.3 C 877 22.5 875.6 23.1 873.9 23.1 C 872.3 23.1 871 22.6 870.1 21.7 C 869.1 20.7 868.6 19.3 868.6 17.6 C 868.58 17.58 868.6 8.2 868.6 8.2 L 870.7 8.2 C 870.7 8.2 870.74 17.25 870.7 17.2 C 870.7 19.9 872.1 21.2 874.4 21.2 C 876.6 21.2 878.1 19.8 878.1 17.2 C 878.06 17.25 878.1 8.2 878.1 8.2 L 880.2 8.2 L 880.2 22.9 Z M 895.7 9.4 C 896.8 10.4 897.3 11.8 897.3 13.5 C 897.26 13.5 897.3 22.9 897.3 22.9 L 895.1 22.9 C 895.1 22.9 895.1 13.83 895.1 13.8 C 895.1 11.2 893.7 9.9 891.5 9.9 C 889.2 9.9 887.8 11.2 887.8 13.8 C 887.78 13.83 887.8 22.9 887.8 22.9 L 885.6 22.9 L 885.6 8.2 L 887.7 8.2 C 887.7 8.2 887.75 9.81 887.7 9.8 C 888.8 8.6 890.3 8 891.9 8 C 893.5 8 894.8 8.5 895.7 9.4 Z M 913.5 22.9 L 911.3 22.9 C 911.3 22.9 911.3 21.18 911.3 21.2 C 910.1 22.7 908.8 23.1 907.1 23.1 C 905.6 23.1 904.3 22.6 903.5 21.8 C 902.1 20.3 901.7 17.9 901.7 15.5 C 901.7 13.2 902.1 10.8 903.5 9.3 C 904.3 8.5 905.6 8 907.1 8 C 908.7 8 910.1 8.4 911.3 9.9 C 911.3 9.9 911.3 1.6 911.3 1.6 L 913.5 1.6 L 913.5 22.9 Z M 903.9 15.5 C 903.9 18.4 904.4 21.2 907.6 21.2 C 910.8 21.2 911.3 18.4 911.3 15.5 C 911.3 12.7 910.8 9.9 907.6 9.9 C 904.4 9.9 903.9 12.7 903.9 15.5 Z M 930.2 15.1 C 930.17 15.15 930.2 16.1 930.2 16.1 C 930.2 16.1 920.21 16.11 920.2 16.1 C 920.2 19.3 921.7 21.2 924.6 21.2 C 926.3 21.2 927.3 20.7 928.4 19.5 C 928.4 19.5 929.9 20.8 929.9 20.8 C 928.4 22.3 927 23.1 924.5 23.1 C 920.6 23.1 918 20.8 918 15.5 C 918 10.7 920.4 8 924.1 8 C 927.9 8 930.2 10.7 930.2 15.1 Z M 920.7 12 C 920.3 12.8 920.3 13.3 920.2 14.5 C 920.2 14.5 928 14.5 928 14.5 C 927.9 13.3 927.9 12.8 927.6 12 C 926.9 10.7 925.7 9.8 924.1 9.8 C 922.5 9.8 921.3 10.7 920.7 12 Z M 944.6 9.4 C 944.6 9.4 943 11 943 11 C 942.2 10.2 941.6 9.9 940.5 9.9 C 938.3 9.9 936.9 11.6 936.9 13.9 C 936.92 13.86 936.9 22.9 936.9 22.9 L 934.8 22.9 L 934.8 8.2 L 936.9 8.2 C 936.9 8.2 936.92 9.96 936.9 10 C 937.7 8.7 939.3 8 941.1 8 C 942.5 8 943.5 8.3 944.6 9.4 Z M 974.4 9.4 C 975.4 10.4 976 11.8 976 13.5 C 975.98 13.47 976 22.9 976 22.9 L 973.8 22.9 C 973.8 22.9 973.82 13.83 973.8 13.8 C 973.8 11.2 972.4 9.9 970.2 9.9 C 968 9.9 966.5 11.2 966.5 13.6 C 966.5 13.59 966.5 22.9 966.5 22.9 L 964.3 22.9 C 964.3 22.9 964.34 13.83 964.3 13.8 C 964.3 11.2 962.9 9.9 960.7 9.9 C 958.5 9.9 957 11.2 957 13.8 C 957.02 13.83 957 22.9 957 22.9 L 954.9 22.9 L 954.9 8.2 L 957 8.2 C 957 8.2 957.02 9.78 957 9.8 C 958.1 8.6 959.5 8 961.2 8 C 963.2 8 964.8 8.8 965.7 10.4 C 966.9 8.8 968.5 8 970.6 8 C 972.2 8 973.5 8.5 974.4 9.4 Z M 990.7 9.7 C 992.2 11.2 992.5 13.3 992.5 15.5 C 992.5 17.8 992.2 19.9 990.7 21.4 C 989.7 22.5 988.3 23.1 986.5 23.1 C 984.7 23.1 983.3 22.5 982.2 21.4 C 980.7 19.9 980.4 17.8 980.4 15.5 C 980.4 13.3 980.7 11.2 982.2 9.7 C 983.3 8.6 984.7 8 986.5 8 C 988.3 8 989.7 8.6 990.7 9.7 Z M 983.8 11 C 982.7 12.1 982.6 13.9 982.6 15.5 C 982.6 17.2 982.7 19 983.8 20.1 C 984.5 20.8 985.4 21.2 986.5 21.2 C 987.5 21.2 988.5 20.8 989.2 20.1 C 990.3 19 990.3 17.2 990.3 15.5 C 990.3 13.9 990.3 12.1 989.2 11 C 988.5 10.3 987.5 9.9 986.5 9.9 C 985.4 9.9 984.5 10.3 983.8 11 Z M 1007.1 9.6 C 1007.1 9.6 1005.7 11 1005.7 11 C 1004.7 10.2 1003.3 9.8 1001.8 9.8 C 999.6 9.8 998.5 10.7 998.5 12.2 C 998.5 13.6 999.3 14.2 1001.1 14.4 C 1001.1 14.4 1003.4 14.6 1003.4 14.6 C 1006 14.8 1007.8 15.8 1007.8 18.6 C 1007.8 21.4 1005.4 23.1 1001.8 23.1 C 999.3 23.1 997.3 22.5 995.7 21 C 995.7 21 997.2 19.5 997.2 19.5 C 998.3 20.7 999.9 21.2 1001.7 21.2 C 1004.2 21.2 1005.7 20.4 1005.7 18.6 C 1005.7 17.3 1005 16.6 1003.2 16.5 C 1003.2 16.5 1000.8 16.3 1000.8 16.3 C 997.9 16 996.4 14.8 996.4 12.3 C 996.4 9.6 998.6 8 1001.8 8 C 1003.9 8 1005.8 8.5 1007.1 9.6 Z M 1014.3 8.2 L 1017.4 8.2 L 1017.4 9.8 L 1014.3 9.8 C 1014.3 9.8 1014.26 18.9 1014.3 18.9 C 1014.3 20.3 1014.9 21.1 1016.3 21.1 C 1016.27 21.06 1017.4 21.1 1017.4 21.1 L 1017.4 22.9 C 1017.4 22.9 1015.88 22.92 1015.9 22.9 C 1013.4 22.9 1012.1 21.1 1012.1 19 C 1012.1 18.96 1012.1 9.8 1012.1 9.8 L 1010.2 9.8 L 1010.2 8.2 L 1012.1 8.2 L 1012.1 3.6 L 1014.3 3.6 L 1014.3 8.2 Z " stroke="none" fill="#000"/>  </g></svg>