<?xml version="1.0" standalone="no"?><!DOCTYPE svg PUBLIC "-//W3C//DTD SVG 1.1//EN" "http://www.w3.org/Graphics/SVG/1.1/DTD/svg11.dtd"><svg xmlns="http://www.w3.org/2000/svg" version="1.1" width="1114px" height="282.079772949219px" viewBox="0 0 1114 282.079772949219">  <desc>This usually takes 15 to 30 minutes and can often be conducted in the client’s native language. Your client can expec...</desc>  <defs/>  <g id="Polygon25845">    <path d="M 12.9 218.8 C 12.9 221.5 10.7 223.7 8 223.7 C 5.3 223.7 3.1 221.5 3.1 218.8 C 3.1 216.1 5.3 213.9 8 213.9 C 10.7 213.9 12.9 216.1 12.9 218.8 Z M 39.5 207.6 L 33.4 207.6 L 33.4 226.9 L 31.1 226.9 L 31.1 207.6 L 24.9 207.6 L 24.9 205.6 L 39.5 205.6 L 39.5 207.6 Z M 45.3 213.8 C 46.4 212.6 47.7 212 49.4 212 C 51 212 52.3 212.5 53.2 213.4 C 54.3 214.4 54.7 215.8 54.7 217.5 C 54.75 217.5 54.7 226.9 54.7 226.9 L 52.6 226.9 C 52.6 226.9 52.59 217.83 52.6 217.8 C 52.6 215.2 51.2 213.9 49 213.9 C 46.8 213.9 45.3 215.2 45.3 217.8 C 45.3 217.83 45.3 226.9 45.3 226.9 L 43.1 226.9 L 43.1 205.6 L 45.3 205.6 C 45.3 205.6 45.3 213.81 45.3 213.8 Z M 71.3 219.1 C 71.31 219.15 71.3 220.1 71.3 220.1 C 71.3 220.1 61.35 220.11 61.3 220.1 C 61.3 223.3 62.8 225.2 65.7 225.2 C 67.4 225.2 68.4 224.7 69.6 223.5 C 69.6 223.5 71 224.8 71 224.8 C 69.5 226.3 68.1 227.1 65.6 227.1 C 61.7 227.1 59.2 224.8 59.2 219.5 C 59.2 214.7 61.5 212 65.2 212 C 69.1 212 71.3 214.7 71.3 219.1 Z M 61.8 216 C 61.4 216.8 61.4 217.3 61.3 218.5 C 61.3 218.5 69.2 218.5 69.2 218.5 C 69.1 217.3 69.1 216.8 68.7 216 C 68.1 214.7 66.8 213.8 65.2 213.8 C 63.7 213.8 62.4 214.7 61.8 216 Z M 78.1 226.9 L 75.9 226.9 L 75.9 212.2 L 78.1 212.2 L 78.1 226.9 Z M 78.2 208 L 75.8 208 L 75.8 205.5 L 78.2 205.5 L 78.2 208 Z M 93.3 213.4 C 93.3 213.4 91.7 215 91.7 215 C 90.9 214.2 90.3 213.9 89.2 213.9 C 87 213.9 85.6 215.6 85.6 217.9 C 85.65 217.86 85.6 226.9 85.6 226.9 L 83.5 226.9 L 83.5 212.2 L 85.6 212.2 C 85.6 212.2 85.65 213.96 85.6 214 C 86.5 212.7 88.1 212 89.8 212 C 91.2 212 92.3 212.3 93.3 213.4 Z M 109.4 207.4 C 109.4 207.4 108.21 207.39 108.2 207.4 C 106.8 207.4 106.2 208.2 106.2 209.5 C 106.23 209.55 106.2 212.2 106.2 212.2 L 109.4 212.2 L 109.4 213.8 L 106.2 213.8 L 106.2 226.9 L 104.1 226.9 L 104.1 213.8 L 102.2 213.8 L 102.2 212.2 L 104.1 212.2 C 104.1 212.2 104.07 209.49 104.1 209.5 C 104.1 207.3 105.3 205.5 107.8 205.5 C 107.82 205.53 109.4 205.5 109.4 205.5 L 109.4 207.4 Z M 115.2 226.9 L 113 226.9 L 113 212.2 L 115.2 212.2 L 115.2 226.9 Z M 115.3 208 L 112.9 208 L 112.9 205.5 L 115.3 205.5 L 115.3 208 Z M 130.7 213.4 C 131.8 214.4 132.2 215.8 132.2 217.5 C 132.24 217.5 132.2 226.9 132.2 226.9 L 130.1 226.9 C 130.1 226.9 130.08 217.83 130.1 217.8 C 130.1 215.2 128.7 213.9 126.4 213.9 C 124.2 213.9 122.8 215.2 122.8 217.8 C 122.76 217.83 122.8 226.9 122.8 226.9 L 120.6 226.9 L 120.6 212.2 L 122.7 212.2 C 122.7 212.2 122.73 213.81 122.7 213.8 C 123.8 212.6 125.2 212 126.9 212 C 128.5 212 129.8 212.5 130.7 213.4 Z M 148 216.9 C 148.02 216.9 148 226.9 148 226.9 L 145.9 226.9 C 145.9 226.9 145.86 225.51 145.9 225.5 C 144.7 226.7 143.6 227.1 141.6 227.1 C 139.6 227.1 138.4 226.7 137.4 225.7 C 136.7 225 136.3 223.9 136.3 222.7 C 136.3 220.1 138.1 218.5 141.4 218.5 C 141.45 218.49 145.9 218.5 145.9 218.5 C 145.9 218.5 145.86 217.08 145.9 217.1 C 145.9 214.9 144.8 213.8 142.1 213.8 C 140.2 213.8 139.3 214.3 138.4 215.5 C 138.4 215.5 136.9 214.2 136.9 214.2 C 138.2 212.5 139.7 212 142.1 212 C 146.1 212 148 213.7 148 216.9 Z M 141.7 220.1 C 139.5 220.1 138.4 221 138.4 222.7 C 138.4 224.4 139.5 225.2 141.8 225.2 C 143.1 225.2 144.1 225.1 145.1 224.2 C 145.6 223.8 145.9 222.9 145.9 221.7 C 145.86 221.7 145.9 220.1 145.9 220.1 C 145.9 220.1 141.75 220.11 141.7 220.1 Z M 163.4 213.4 C 164.4 214.4 164.9 215.8 164.9 217.5 C 164.91 217.5 164.9 226.9 164.9 226.9 L 162.7 226.9 C 162.7 226.9 162.75 217.83 162.7 217.8 C 162.7 215.2 161.3 213.9 159.1 213.9 C 156.9 213.9 155.4 215.2 155.4 217.8 C 155.43 217.83 155.4 226.9 155.4 226.9 L 153.3 226.9 L 153.3 212.2 L 155.4 212.2 C 155.4 212.2 155.4 213.81 155.4 213.8 C 156.4 212.6 157.9 212 159.6 212 C 161.2 212 162.5 212.5 163.4 213.4 Z M 180.8 214.2 C 180.8 214.2 179.3 215.5 179.3 215.5 C 178.2 214.3 177.3 213.9 175.9 213.9 C 174.5 213.9 173.3 214.5 172.5 215.6 C 171.8 216.5 171.5 217.7 171.5 219.5 C 171.5 221.4 171.8 222.5 172.5 223.5 C 173.3 224.6 174.5 225.2 175.9 225.2 C 177.3 225.2 178.2 224.7 179.3 223.5 C 179.3 223.5 180.8 224.9 180.8 224.9 C 179.2 226.6 178 227.1 175.9 227.1 C 172.2 227.1 169.4 224.6 169.4 219.5 C 169.4 214.5 172.2 212 175.9 212 C 178 212 179.2 212.5 180.8 214.2 Z M 195.7 219.1 C 195.75 219.15 195.7 220.1 195.7 220.1 C 195.7 220.1 185.79 220.11 185.8 220.1 C 185.8 223.3 187.3 225.2 190.1 225.2 C 191.8 225.2 192.8 224.7 194 223.5 C 194 223.5 195.5 224.8 195.5 224.8 C 194 226.3 192.6 227.1 190.1 227.1 C 186.1 227.1 183.6 224.8 183.6 219.5 C 183.6 214.7 185.9 212 189.7 212 C 193.5 212 195.7 214.7 195.7 219.1 Z M 186.2 216 C 185.9 216.8 185.8 217.3 185.8 218.5 C 185.8 218.5 193.6 218.5 193.6 218.5 C 193.5 217.3 193.5 216.8 193.1 216 C 192.5 214.7 191.3 213.8 189.7 213.8 C 188.1 213.8 186.9 214.7 186.2 216 Z M 210.3 213.6 C 210.3 213.6 208.9 215 208.9 215 C 207.9 214.2 206.5 213.8 205 213.8 C 202.8 213.8 201.7 214.7 201.7 216.2 C 201.7 217.6 202.5 218.2 204.3 218.4 C 204.3 218.4 206.6 218.6 206.6 218.6 C 209.2 218.8 211 219.8 211 222.6 C 211 225.4 208.6 227.1 205 227.1 C 202.5 227.1 200.5 226.5 198.9 225 C 198.9 225 200.4 223.5 200.4 223.5 C 201.5 224.7 203.1 225.2 205 225.2 C 207.4 225.2 208.9 224.4 208.9 222.6 C 208.9 221.3 208.2 220.6 206.4 220.5 C 206.4 220.5 204 220.3 204 220.3 C 201.1 220 199.6 218.8 199.6 216.3 C 199.6 213.6 201.8 212 205 212 C 207.1 212 209 212.5 210.3 213.6 Z " stroke="none" fill="#000"/>  </g>  <g id="Polygon25844">    <path d="M 12.9 176.8 C 12.9 179.5 10.7 181.7 8 181.7 C 5.3 181.7 3.1 179.5 3.1 176.8 C 3.1 174.1 5.3 171.9 8 171.9 C 10.7 171.9 12.9 174.1 12.9 176.8 Z M 39.5 165.6 L 33.4 165.6 L 33.4 184.9 L 31.1 184.9 L 31.1 165.6 L 24.9 165.6 L 24.9 163.6 L 39.5 163.6 L 39.5 165.6 Z M 45.3 171.8 C 46.4 170.6 47.7 170 49.4 170 C 51 170 52.3 170.5 53.2 171.4 C 54.3 172.4 54.7 173.8 54.7 175.5 C 54.75 175.5 54.7 184.9 54.7 184.9 L 52.6 184.9 C 52.6 184.9 52.59 175.83 52.6 175.8 C 52.6 173.2 51.2 171.9 49 171.9 C 46.8 171.9 45.3 173.2 45.3 175.8 C 45.3 175.83 45.3 184.9 45.3 184.9 L 43.1 184.9 L 43.1 163.6 L 45.3 163.6 C 45.3 163.6 45.3 171.81 45.3 171.8 Z M 71.3 177.1 C 71.31 177.15 71.3 178.1 71.3 178.1 C 71.3 178.1 61.35 178.11 61.3 178.1 C 61.3 181.3 62.8 183.2 65.7 183.2 C 67.4 183.2 68.4 182.7 69.6 181.5 C 69.6 181.5 71 182.8 71 182.8 C 69.5 184.3 68.1 185.1 65.6 185.1 C 61.7 185.1 59.2 182.8 59.2 177.5 C 59.2 172.7 61.5 170 65.2 170 C 69.1 170 71.3 172.7 71.3 177.1 Z M 61.8 174 C 61.4 174.8 61.4 175.3 61.3 176.5 C 61.3 176.5 69.2 176.5 69.2 176.5 C 69.1 175.3 69.1 174.8 68.7 174 C 68.1 172.7 66.8 171.8 65.2 171.8 C 63.7 171.8 62.4 172.7 61.8 174 Z M 78.1 184.9 L 75.9 184.9 L 75.9 170.2 L 78.1 170.2 L 78.1 184.9 Z M 78.2 166 L 75.8 166 L 75.8 163.5 L 78.2 163.5 L 78.2 166 Z M 93.3 171.4 C 93.3 171.4 91.7 173 91.7 173 C 90.9 172.2 90.3 171.9 89.2 171.9 C 87 171.9 85.6 173.6 85.6 175.9 C 85.65 175.86 85.6 184.9 85.6 184.9 L 83.5 184.9 L 83.5 170.2 L 85.6 170.2 C 85.6 170.2 85.65 171.96 85.6 172 C 86.5 170.7 88.1 170 89.8 170 C 91.2 170 92.3 170.3 93.3 171.4 Z M 113.1 171.7 C 114.6 173.2 114.9 175.3 114.9 177.5 C 114.9 179.8 114.6 181.9 113.1 183.4 C 112 184.5 110.6 185.1 108.8 185.1 C 107 185.1 105.6 184.5 104.6 183.4 C 103.1 181.9 102.8 179.8 102.8 177.5 C 102.8 175.3 103.1 173.2 104.6 171.7 C 105.6 170.6 107 170 108.8 170 C 110.6 170 112 170.6 113.1 171.7 Z M 106.2 173 C 105.1 174.1 105 175.9 105 177.5 C 105 179.2 105.1 181 106.2 182.1 C 106.9 182.8 107.8 183.2 108.8 183.2 C 109.9 183.2 110.8 182.8 111.5 182.1 C 112.6 181 112.7 179.2 112.7 177.5 C 112.7 175.9 112.6 174.1 111.5 173 C 110.8 172.3 109.9 171.9 108.8 171.9 C 107.8 171.9 106.9 172.3 106.2 173 Z M 130.1 172.2 C 130.1 172.2 128.6 173.5 128.6 173.5 C 127.5 172.3 126.7 171.9 125.2 171.9 C 123.8 171.9 122.6 172.5 121.8 173.6 C 121.1 174.5 120.9 175.7 120.9 177.5 C 120.9 179.4 121.1 180.5 121.8 181.5 C 122.6 182.6 123.8 183.2 125.2 183.2 C 126.7 183.2 127.5 182.7 128.6 181.5 C 128.6 181.5 130.1 182.9 130.1 182.9 C 128.6 184.6 127.3 185.1 125.2 185.1 C 121.5 185.1 118.7 182.6 118.7 177.5 C 118.7 172.5 121.5 170 125.2 170 C 127.3 170 128.6 170.5 130.1 172.2 Z M 144.4 172.2 C 144.4 172.2 142.9 173.5 142.9 173.5 C 141.8 172.3 140.9 171.9 139.5 171.9 C 138.1 171.9 136.9 172.5 136.1 173.6 C 135.4 174.5 135.1 175.7 135.1 177.5 C 135.1 179.4 135.4 180.5 136.1 181.5 C 136.9 182.6 138.1 183.2 139.5 183.2 C 140.9 183.2 141.8 182.7 142.9 181.5 C 142.9 181.5 144.4 182.9 144.4 182.9 C 142.9 184.6 141.6 185.1 139.5 185.1 C 135.8 185.1 133 182.6 133 177.5 C 133 172.5 135.8 170 139.5 170 C 141.6 170 142.9 170.5 144.4 172.2 Z M 160 184.9 L 157.9 184.9 C 157.9 184.9 157.86 183.27 157.9 183.3 C 156.8 184.5 155.3 185.1 153.7 185.1 C 152.1 185.1 150.8 184.6 149.9 183.7 C 148.8 182.7 148.3 181.3 148.3 179.6 C 148.35 179.58 148.3 170.2 148.3 170.2 L 150.5 170.2 C 150.5 170.2 150.51 179.25 150.5 179.2 C 150.5 181.9 151.9 183.2 154.1 183.2 C 156.4 183.2 157.8 181.8 157.8 179.2 C 157.83 179.25 157.8 170.2 157.8 170.2 L 160 170.2 L 160 184.9 Z M 175.3 171.3 C 176.8 172.7 177.1 175.2 177.1 177.5 C 177.1 179.9 176.8 182.3 175.3 183.8 C 174.5 184.6 173.2 185.1 171.7 185.1 C 170.1 185.1 168.8 184.7 167.5 183.2 C 167.55 183.18 167.5 191.5 167.5 191.5 L 165.4 191.5 L 165.4 170.2 L 167.5 170.2 C 167.5 170.2 167.55 171.9 167.5 171.9 C 168.8 170.4 170.1 170 171.7 170 C 173.2 170 174.5 170.5 175.3 171.3 Z M 167.5 177.5 C 167.5 180.4 168 183.2 171.3 183.2 C 174.5 183.2 175 180.4 175 177.5 C 175 174.7 174.5 171.9 171.3 171.9 C 168 171.9 167.5 174.7 167.5 177.5 Z M 192.3 174.9 C 192.27 174.9 192.3 184.9 192.3 184.9 L 190.1 184.9 C 190.1 184.9 190.11 183.51 190.1 183.5 C 188.9 184.7 187.8 185.1 185.8 185.1 C 183.8 185.1 182.7 184.7 181.7 183.7 C 180.9 183 180.6 181.9 180.6 180.7 C 180.6 178.1 182.4 176.5 185.7 176.5 C 185.7 176.49 190.1 176.5 190.1 176.5 C 190.1 176.5 190.11 175.08 190.1 175.1 C 190.1 172.9 189.1 171.8 186.3 171.8 C 184.5 171.8 183.5 172.3 182.6 173.5 C 182.6 173.5 181.1 172.2 181.1 172.2 C 182.4 170.5 183.9 170 186.4 170 C 190.3 170 192.3 171.7 192.3 174.9 Z M 186 178.1 C 183.8 178.1 182.7 179 182.7 180.7 C 182.7 182.4 183.7 183.2 186.1 183.2 C 187.3 183.2 188.4 183.1 189.4 182.2 C 189.9 181.8 190.1 180.9 190.1 179.7 C 190.11 179.7 190.1 178.1 190.1 178.1 C 190.1 178.1 186 178.11 186 178.1 Z M 200 170.2 L 203.2 170.2 L 203.2 171.8 L 200 171.8 C 200 171.8 200.04 180.9 200 180.9 C 200 182.3 200.7 183.1 202 183.1 C 202.05 183.06 203.2 183.1 203.2 183.1 L 203.2 184.9 C 203.2 184.9 201.66 184.92 201.7 184.9 C 199.1 184.9 197.9 183.1 197.9 181 C 197.88 180.96 197.9 171.8 197.9 171.8 L 196 171.8 L 196 170.2 L 197.9 170.2 L 197.9 165.6 L 200 165.6 L 200 170.2 Z M 209.6 184.9 L 207.5 184.9 L 207.5 170.2 L 209.6 170.2 L 209.6 184.9 Z M 209.8 166 L 207.4 166 L 207.4 163.5 L 209.8 163.5 L 209.8 166 Z M 224.5 171.7 C 226 173.2 226.3 175.3 226.3 177.5 C 226.3 179.8 226 181.9 224.5 183.4 C 223.5 184.5 222.1 185.1 220.3 185.1 C 218.5 185.1 217.1 184.5 216.1 183.4 C 214.6 181.9 214.3 179.8 214.3 177.5 C 214.3 175.3 214.6 173.2 216.1 171.7 C 217.1 170.6 218.5 170 220.3 170 C 222.1 170 223.5 170.6 224.5 171.7 Z M 217.6 173 C 216.6 174.1 216.4 175.9 216.4 177.5 C 216.4 179.2 216.5 181 217.6 182.1 C 218.4 182.8 219.3 183.2 220.3 183.2 C 221.4 183.2 222.3 182.8 223 182.1 C 224.1 181 224.2 179.2 224.2 177.5 C 224.2 175.9 224.1 174.1 223 173 C 222.3 172.3 221.4 171.9 220.3 171.9 C 219.3 171.9 218.4 172.3 217.6 173 Z M 241.1 171.4 C 242.1 172.4 242.6 173.8 242.6 175.5 C 242.61 175.5 242.6 184.9 242.6 184.9 L 240.4 184.9 C 240.4 184.9 240.45 175.83 240.4 175.8 C 240.4 173.2 239 171.9 236.8 171.9 C 234.6 171.9 233.1 173.2 233.1 175.8 C 233.13 175.83 233.1 184.9 233.1 184.9 L 231 184.9 L 231 170.2 L 233.1 170.2 C 233.1 170.2 233.1 171.81 233.1 171.8 C 234.1 170.6 235.6 170 237.3 170 C 238.9 170 240.2 170.5 241.1 171.4 Z " stroke="none" fill="#000"/>  </g>  <g id="Polygon25843">    <path d="M 12.9 134.8 C 12.9 137.5 10.7 139.7 8 139.7 C 5.3 139.7 3.1 137.5 3.1 134.8 C 3.1 132.1 5.3 129.9 8 129.9 C 10.7 129.9 12.9 132.1 12.9 134.8 Z M 29.4 140.9 L 40.3 140.9 L 40.3 142.9 L 27.1 142.9 L 27.1 121.6 L 29.4 121.6 L 29.4 140.9 Z M 46 142.9 L 43.9 142.9 L 43.9 128.2 L 46 128.2 L 46 142.9 Z M 46.2 124 L 43.8 124 L 43.8 121.5 L 46.2 121.5 L 46.2 124 Z M 57.3 123.4 C 57.3 123.4 56.1 123.39 56.1 123.4 C 54.7 123.4 54.1 124.2 54.1 125.5 C 54.12 125.55 54.1 128.2 54.1 128.2 L 57.3 128.2 L 57.3 129.8 L 54.1 129.8 L 54.1 142.9 L 52 142.9 L 52 129.8 L 50.1 129.8 L 50.1 128.2 L 52 128.2 C 52 128.2 51.96 125.49 52 125.5 C 52 123.3 53.2 121.5 55.7 121.5 C 55.71 121.53 57.3 121.5 57.3 121.5 L 57.3 123.4 Z M 71.8 135.1 C 71.76 135.15 71.8 136.1 71.8 136.1 C 71.8 136.1 61.8 136.11 61.8 136.1 C 61.8 139.3 63.3 141.2 66.1 141.2 C 67.9 141.2 68.8 140.7 70 139.5 C 70 139.5 71.5 140.8 71.5 140.8 C 70 142.3 68.6 143.1 66.1 143.1 C 62.2 143.1 59.6 140.8 59.6 135.5 C 59.6 130.7 61.9 128 65.7 128 C 69.5 128 71.8 130.7 71.8 135.1 Z M 62.2 132 C 61.9 132.8 61.9 133.3 61.8 134.5 C 61.8 134.5 69.6 134.5 69.6 134.5 C 69.5 133.3 69.5 132.8 69.1 132 C 68.5 130.7 67.3 129.8 65.7 129.8 C 64.1 129.8 62.9 130.7 62.2 132 Z M 86.3 129.6 C 86.3 129.6 84.9 131 84.9 131 C 83.9 130.2 82.5 129.8 81 129.8 C 78.8 129.8 77.7 130.7 77.7 132.2 C 77.7 133.6 78.5 134.2 80.3 134.4 C 80.3 134.4 82.6 134.6 82.6 134.6 C 85.2 134.8 87 135.8 87 138.6 C 87 141.4 84.6 143.1 81 143.1 C 78.5 143.1 76.5 142.5 74.9 141 C 74.9 141 76.4 139.5 76.4 139.5 C 77.5 140.7 79.1 141.2 81 141.2 C 83.4 141.2 84.9 140.4 84.9 138.6 C 84.9 137.3 84.2 136.6 82.4 136.5 C 82.4 136.5 80 136.3 80 136.3 C 77.1 136 75.6 134.8 75.6 132.3 C 75.6 129.6 77.8 128 81 128 C 83.2 128 85 128.5 86.3 129.6 Z M 93.5 128.2 L 96.6 128.2 L 96.6 129.8 L 93.5 129.8 C 93.5 129.8 93.48 138.9 93.5 138.9 C 93.5 140.3 94.1 141.1 95.5 141.1 C 95.49 141.06 96.6 141.1 96.6 141.1 L 96.6 142.9 C 96.6 142.9 95.1 142.92 95.1 142.9 C 92.6 142.9 91.3 141.1 91.3 139 C 91.32 138.96 91.3 129.8 91.3 129.8 L 89.5 129.8 L 89.5 128.2 L 91.3 128.2 L 91.3 123.6 L 93.5 123.6 L 93.5 128.2 Z M 104.5 146.8 C 104.2 147.6 103.9 148.1 103.4 148.5 C 102.7 149.2 101.6 149.5 100.6 149.5 C 100.56 149.52 99.6 149.5 99.6 149.5 L 99.6 147.6 C 99.6 147.6 100.29 147.6 100.3 147.6 C 101.8 147.6 102.2 147.1 102.7 145.8 C 102.72 145.77 103.9 142.6 103.9 142.6 L 98.5 128.2 L 100.9 128.2 L 104.9 140 L 109 128.2 L 111.3 128.2 C 111.3 128.2 104.49 146.76 104.5 146.8 Z M 116.4 138.9 C 116.4 140.3 116.9 141.1 118.4 141.1 C 118.41 141.06 119.6 141.1 119.6 141.1 L 119.6 142.9 C 119.6 142.9 118.02 142.92 118 142.9 C 115.4 142.9 114.3 141.2 114.3 139 C 114.27 138.99 114.3 121.6 114.3 121.6 L 116.4 121.6 C 116.4 121.6 116.43 138.9 116.4 138.9 Z M 134.2 135.1 C 134.25 135.15 134.2 136.1 134.2 136.1 C 134.2 136.1 124.29 136.11 124.3 136.1 C 124.3 139.3 125.8 141.2 128.6 141.2 C 130.3 141.2 131.3 140.7 132.5 139.5 C 132.5 139.5 134 140.8 134 140.8 C 132.5 142.3 131.1 143.1 128.6 143.1 C 124.6 143.1 122.1 140.8 122.1 135.5 C 122.1 130.7 124.4 128 128.2 128 C 132 128 134.2 130.7 134.2 135.1 Z M 124.7 132 C 124.4 132.8 124.3 133.3 124.3 134.5 C 124.3 134.5 132.1 134.5 132.1 134.5 C 132 133.3 132 132.8 131.6 132 C 131 130.7 129.8 129.8 128.2 129.8 C 126.6 129.8 125.4 130.7 124.7 132 Z M 148.5 129.8 C 149.5 128.6 150.9 128 152.6 128 C 154.2 128 155.5 128.5 156.4 129.4 C 157.5 130.4 157.9 131.8 157.9 133.5 C 157.92 133.5 157.9 142.9 157.9 142.9 L 155.8 142.9 C 155.8 142.9 155.76 133.83 155.8 133.8 C 155.8 131.2 154.4 129.9 152.2 129.9 C 149.9 129.9 148.5 131.2 148.5 133.8 C 148.47 133.83 148.5 142.9 148.5 142.9 L 146.3 142.9 L 146.3 121.6 L 148.5 121.6 C 148.5 121.6 148.47 129.81 148.5 129.8 Z M 173.7 132.9 C 173.7 132.9 173.7 142.9 173.7 142.9 L 171.5 142.9 C 171.5 142.9 171.54 141.51 171.5 141.5 C 170.4 142.7 169.3 143.1 167.3 143.1 C 165.2 143.1 164.1 142.7 163.1 141.7 C 162.4 141 162 139.9 162 138.7 C 162 136.1 163.8 134.5 167.1 134.5 C 167.13 134.49 171.5 134.5 171.5 134.5 C 171.5 134.5 171.54 133.08 171.5 133.1 C 171.5 130.9 170.5 129.8 167.8 129.8 C 165.9 129.8 164.9 130.3 164 131.5 C 164 131.5 162.6 130.2 162.6 130.2 C 163.9 128.5 165.4 128 167.8 128 C 171.8 128 173.7 129.7 173.7 132.9 Z M 167.4 136.1 C 165.2 136.1 164.1 137 164.1 138.7 C 164.1 140.4 165.1 141.2 167.5 141.2 C 168.7 141.2 169.8 141.1 170.8 140.2 C 171.3 139.8 171.5 138.9 171.5 137.7 C 171.54 137.7 171.5 136.1 171.5 136.1 C 171.5 136.1 167.43 136.11 167.4 136.1 Z M 181.1 129.9 C 182.3 128.3 183.7 128 185.3 128 C 186.8 128 188.1 128.5 188.9 129.3 C 190.3 130.7 190.7 133.2 190.7 135.5 C 190.7 137.9 190.3 140.3 188.9 141.8 C 188.1 142.6 186.8 143.1 185.3 143.1 C 183.6 143.1 182.3 142.7 181.1 141.1 C 181.11 141.15 181.1 142.9 181.1 142.9 L 178.9 142.9 L 178.9 121.6 L 181.1 121.6 C 181.1 121.6 181.11 129.87 181.1 129.9 Z M 181.1 135.5 C 181.1 138.4 181.6 141.2 184.8 141.2 C 188 141.2 188.5 138.4 188.5 135.5 C 188.5 132.7 188 129.9 184.8 129.9 C 181.6 129.9 181.1 132.7 181.1 135.5 Z M 197.5 142.9 L 195.3 142.9 L 195.3 128.2 L 197.5 128.2 L 197.5 142.9 Z M 197.6 124 L 195.2 124 L 195.2 121.5 L 197.6 121.5 L 197.6 124 Z M 205.4 128.2 L 208.6 128.2 L 208.6 129.8 L 205.4 129.8 C 205.4 129.8 205.41 138.9 205.4 138.9 C 205.4 140.3 206 141.1 207.4 141.1 C 207.42 141.06 208.6 141.1 208.6 141.1 L 208.6 142.9 C 208.6 142.9 207.03 142.92 207 142.9 C 204.5 142.9 203.2 141.1 203.2 139 C 203.25 138.96 203.2 129.8 203.2 129.8 L 201.4 129.8 L 201.4 128.2 L 203.2 128.2 L 203.2 123.6 L 205.4 123.6 L 205.4 128.2 Z M 222.7 129.6 C 222.7 129.6 221.3 131 221.3 131 C 220.3 130.2 218.9 129.8 217.4 129.8 C 215.2 129.8 214.1 130.7 214.1 132.2 C 214.1 133.6 214.9 134.2 216.7 134.4 C 216.7 134.4 219 134.6 219 134.6 C 221.6 134.8 223.4 135.8 223.4 138.6 C 223.4 141.4 221 143.1 217.4 143.1 C 214.9 143.1 212.9 142.5 211.3 141 C 211.3 141 212.8 139.5 212.8 139.5 C 213.9 140.7 215.5 141.2 217.3 141.2 C 219.8 141.2 221.3 140.4 221.3 138.6 C 221.3 137.3 220.6 136.6 218.8 136.5 C 218.8 136.5 216.4 136.3 216.4 136.3 C 213.5 136 212 134.8 212 132.3 C 212 129.6 214.2 128 217.4 128 C 219.5 128 221.4 128.5 222.7 129.6 Z " stroke="none" fill="#000"/>  </g>  <g id="Polygon25842">    <path d="M 28.9 102.9 L 26.7 102.9 L 26.7 88.2 L 28.9 88.2 L 28.9 102.9 Z M 29 84 L 26.6 84 L 26.6 81.5 L 29 81.5 L 29 84 Z M 44.4 89.4 C 45.4 90.4 45.9 91.8 45.9 93.5 C 45.93 93.5 45.9 102.9 45.9 102.9 L 43.8 102.9 C 43.8 102.9 43.77 93.83 43.8 93.8 C 43.8 91.2 42.4 89.9 40.1 89.9 C 37.9 89.9 36.4 91.2 36.4 93.8 C 36.45 93.83 36.4 102.9 36.4 102.9 L 34.3 102.9 L 34.3 88.2 L 36.4 88.2 C 36.4 88.2 36.42 89.81 36.4 89.8 C 37.5 88.6 38.9 88 40.6 88 C 42.2 88 43.5 88.5 44.4 89.4 Z M 61.2 88.2 L 64.3 88.2 L 64.3 89.8 L 61.2 89.8 C 61.2 89.8 61.17 98.9 61.2 98.9 C 61.2 100.3 61.8 101.1 63.2 101.1 C 63.18 101.06 64.3 101.1 64.3 101.1 L 64.3 102.9 C 64.3 102.9 62.79 102.92 62.8 102.9 C 60.3 102.9 59 101.1 59 99 C 59.01 98.96 59 89.8 59 89.8 L 57.1 89.8 L 57.1 88.2 L 59 88.2 L 59 83.6 L 61.2 83.6 L 61.2 88.2 Z M 70.8 89.8 C 71.8 88.6 73.2 88 74.9 88 C 76.5 88 77.8 88.5 78.7 89.4 C 79.8 90.4 80.2 91.8 80.2 93.5 C 80.22 93.5 80.2 102.9 80.2 102.9 L 78.1 102.9 C 78.1 102.9 78.06 93.83 78.1 93.8 C 78.1 91.2 76.7 89.9 74.5 89.9 C 72.2 89.9 70.8 91.2 70.8 93.8 C 70.77 93.83 70.8 102.9 70.8 102.9 L 68.6 102.9 L 68.6 81.6 L 70.8 81.6 C 70.8 81.6 70.77 89.81 70.8 89.8 Z M 96.8 95.1 C 96.78 95.15 96.8 96.1 96.8 96.1 C 96.8 96.1 86.82 96.11 86.8 96.1 C 86.8 99.3 88.3 101.2 91.2 101.2 C 92.9 101.2 93.9 100.7 95 99.5 C 95 99.5 96.5 100.8 96.5 100.8 C 95 102.3 93.6 103.1 91.1 103.1 C 87.2 103.1 84.7 100.8 84.7 95.5 C 84.7 90.7 87 88 90.7 88 C 94.6 88 96.8 90.7 96.8 95.1 Z M 87.3 92 C 86.9 92.8 86.9 93.3 86.8 94.5 C 86.8 94.5 94.6 94.5 94.6 94.5 C 94.6 93.3 94.5 92.8 94.2 92 C 93.5 90.7 92.3 89.8 90.7 89.8 C 89.1 89.8 87.9 90.7 87.3 92 Z M 103.5 102.9 L 101.4 102.9 L 101.4 88.2 L 103.5 88.2 L 103.5 102.9 Z M 103.7 84 L 101.2 84 L 101.2 81.5 L 103.7 81.5 L 103.7 84 Z M 118.8 89.4 C 118.8 89.4 117.2 91 117.2 91 C 116.4 90.2 115.8 89.9 114.7 89.9 C 112.5 89.9 111.1 91.6 111.1 93.9 C 111.12 93.86 111.1 102.9 111.1 102.9 L 109 102.9 L 109 88.2 L 111.1 88.2 C 111.1 88.2 111.12 89.96 111.1 90 C 111.9 88.7 113.5 88 115.3 88 C 116.7 88 117.7 88.3 118.8 89.4 Z M 139.6 92.9 C 139.59 92.9 139.6 102.9 139.6 102.9 L 137.4 102.9 C 137.4 102.9 137.43 101.51 137.4 101.5 C 136.3 102.7 135.1 103.1 133.2 103.1 C 131.1 103.1 130 102.7 129 101.7 C 128.2 101 127.9 99.9 127.9 98.7 C 127.9 96.1 129.7 94.5 133 94.5 C 133.02 94.49 137.4 94.5 137.4 94.5 C 137.4 94.5 137.43 93.08 137.4 93.1 C 137.4 90.9 136.4 89.8 133.6 89.8 C 131.8 89.8 130.8 90.3 129.9 91.5 C 129.9 91.5 128.5 90.2 128.5 90.2 C 129.7 88.5 131.2 88 133.7 88 C 137.7 88 139.6 89.7 139.6 92.9 Z M 133.3 96.1 C 131.1 96.1 130 97 130 98.7 C 130 100.4 131 101.2 133.4 101.2 C 134.6 101.2 135.7 101.1 136.7 100.2 C 137.2 99.8 137.4 98.9 137.4 97.7 C 137.43 97.7 137.4 96.1 137.4 96.1 C 137.4 96.1 133.32 96.11 133.3 96.1 Z M 154.8 89.3 C 156.2 90.7 156.6 93.2 156.6 95.5 C 156.6 97.9 156.2 100.3 154.8 101.8 C 154 102.6 152.7 103.1 151.2 103.1 C 149.5 103.1 148.2 102.7 147 101.2 C 147 101.18 147 109.5 147 109.5 L 144.8 109.5 L 144.8 88.2 L 147 88.2 C 147 88.2 147 89.9 147 89.9 C 148.2 88.4 149.5 88 151.2 88 C 152.7 88 154 88.5 154.8 89.3 Z M 147 95.5 C 147 98.4 147.5 101.2 150.7 101.2 C 153.9 101.2 154.4 98.4 154.4 95.5 C 154.4 92.7 153.9 89.9 150.7 89.9 C 147.5 89.9 147 92.7 147 95.5 Z M 171.1 89.3 C 172.6 90.7 172.9 93.2 172.9 95.5 C 172.9 97.9 172.6 100.3 171.1 101.8 C 170.3 102.6 169 103.1 167.5 103.1 C 165.9 103.1 164.6 102.7 163.3 101.2 C 163.35 101.18 163.3 109.5 163.3 109.5 L 161.2 109.5 L 161.2 88.2 L 163.3 88.2 C 163.3 88.2 163.35 89.9 163.3 89.9 C 164.6 88.4 165.9 88 167.5 88 C 169 88 170.3 88.5 171.1 89.3 Z M 163.3 95.5 C 163.3 98.4 163.8 101.2 167.1 101.2 C 170.3 101.2 170.8 98.4 170.8 95.5 C 170.8 92.7 170.3 89.9 167.1 89.9 C 163.8 89.9 163.3 92.7 163.3 95.5 Z M 179.6 98.9 C 179.6 100.3 180.1 101.1 181.6 101.1 C 181.62 101.06 182.8 101.1 182.8 101.1 L 182.8 102.9 C 182.8 102.9 181.23 102.92 181.2 102.9 C 178.6 102.9 177.5 101.2 177.5 99 C 177.48 98.99 177.5 81.6 177.5 81.6 L 179.6 81.6 C 179.6 81.6 179.64 98.9 179.6 98.9 Z M 188.6 102.9 L 186.4 102.9 L 186.4 88.2 L 188.6 88.2 L 188.6 102.9 Z M 188.8 84 L 186.3 84 L 186.3 81.5 L 188.8 81.5 L 188.8 84 Z M 204.7 90.2 C 204.7 90.2 203.2 91.5 203.2 91.5 C 202.1 90.3 201.2 89.9 199.8 89.9 C 198.4 89.9 197.2 90.5 196.4 91.6 C 195.7 92.5 195.4 93.7 195.4 95.5 C 195.4 97.4 195.7 98.5 196.4 99.5 C 197.2 100.6 198.4 101.2 199.8 101.2 C 201.2 101.2 202.1 100.7 203.2 99.5 C 203.2 99.5 204.7 100.9 204.7 100.9 C 203.1 102.6 201.8 103.1 199.8 103.1 C 196.1 103.1 193.3 100.6 193.3 95.5 C 193.3 90.5 196.1 88 199.8 88 C 201.8 88 203.1 88.5 204.7 90.2 Z M 219.1 92.9 C 219.15 92.9 219.1 102.9 219.1 102.9 L 217 102.9 C 217 102.9 216.99 101.51 217 101.5 C 215.8 102.7 214.7 103.1 212.7 103.1 C 210.7 103.1 209.6 102.7 208.6 101.7 C 207.8 101 207.4 99.9 207.4 98.7 C 207.4 96.1 209.3 94.5 212.6 94.5 C 212.58 94.49 217 94.5 217 94.5 C 217 94.5 216.99 93.08 217 93.1 C 217 90.9 215.9 89.8 213.2 89.8 C 211.3 89.8 210.4 90.3 209.5 91.5 C 209.5 91.5 208 90.2 208 90.2 C 209.3 88.5 210.8 88 213.2 88 C 217.2 88 219.1 89.7 219.1 92.9 Z M 212.9 96.1 C 210.7 96.1 209.5 97 209.5 98.7 C 209.5 100.4 210.6 101.2 213 101.2 C 214.2 101.2 215.3 101.1 216.2 100.2 C 216.7 99.8 217 98.9 217 97.7 C 216.99 97.7 217 96.1 217 96.1 C 217 96.1 212.88 96.11 212.9 96.1 Z M 226.9 88.2 L 230.1 88.2 L 230.1 89.8 L 226.9 89.8 C 226.9 89.8 226.92 98.9 226.9 98.9 C 226.9 100.3 227.5 101.1 228.9 101.1 C 228.93 101.06 230.1 101.1 230.1 101.1 L 230.1 102.9 C 230.1 102.9 228.54 102.92 228.5 102.9 C 226 102.9 224.8 101.1 224.8 99 C 224.76 98.96 224.8 89.8 224.8 89.8 L 222.9 89.8 L 222.9 88.2 L 224.8 88.2 L 224.8 83.6 L 226.9 83.6 L 226.9 88.2 Z M 236.5 102.9 L 234.4 102.9 L 234.4 88.2 L 236.5 88.2 L 236.5 102.9 Z M 236.7 84 L 234.2 84 L 234.2 81.5 L 236.7 81.5 L 236.7 84 Z M 251.4 89.7 C 252.9 91.2 253.2 93.3 253.2 95.5 C 253.2 97.8 252.9 99.9 251.4 101.4 C 250.4 102.5 249 103.1 247.2 103.1 C 245.4 103.1 244 102.5 243 101.4 C 241.5 99.9 241.2 97.8 241.2 95.5 C 241.2 93.3 241.5 91.2 243 89.7 C 244 88.6 245.4 88 247.2 88 C 249 88 250.4 88.6 251.4 89.7 Z M 244.5 91 C 243.4 92.1 243.3 93.9 243.3 95.5 C 243.3 97.2 243.4 99 244.5 100.1 C 245.2 100.8 246.1 101.2 247.2 101.2 C 248.2 101.2 249.2 100.8 249.9 100.1 C 251 99 251.1 97.2 251.1 95.5 C 251.1 93.9 251 92.1 249.9 91 C 249.2 90.3 248.2 89.9 247.2 89.9 C 246.1 89.9 245.2 90.3 244.5 91 Z M 268 89.4 C 269 90.4 269.5 91.8 269.5 93.5 C 269.49 93.5 269.5 102.9 269.5 102.9 L 267.3 102.9 C 267.3 102.9 267.33 93.83 267.3 93.8 C 267.3 91.2 265.9 89.9 263.7 89.9 C 261.5 89.9 260 91.2 260 93.8 C 260.01 93.83 260 102.9 260 102.9 L 257.8 102.9 L 257.8 88.2 L 260 88.2 C 260 88.2 259.98 89.81 260 89.8 C 261 88.6 262.5 88 264.1 88 C 265.7 88 267.1 88.5 268 89.4 Z M 277.3 104.9 L 274.7 107.2 L 274.7 100.3 L 277.3 100.3 L 277.3 104.9 Z M 292.3 102.9 L 290.1 102.9 L 290.1 88.2 L 292.3 88.2 L 292.3 102.9 Z M 292.4 84 L 290 84 L 290 81.5 L 292.4 81.5 L 292.4 84 Z M 307.8 89.4 C 308.9 90.4 309.4 91.8 309.4 93.5 C 309.35 93.5 309.4 102.9 309.4 102.9 L 307.2 102.9 C 307.2 102.9 307.19 93.83 307.2 93.8 C 307.2 91.2 305.8 89.9 303.6 89.9 C 301.3 89.9 299.9 91.2 299.9 93.8 C 299.87 93.83 299.9 102.9 299.9 102.9 L 297.7 102.9 L 297.7 88.2 L 299.8 88.2 C 299.8 88.2 299.84 89.81 299.8 89.8 C 300.9 88.6 302.4 88 304 88 C 305.6 88 306.9 88.5 307.8 89.4 Z M 325.2 90.2 C 325.2 90.2 323.8 91.5 323.8 91.5 C 322.6 90.3 321.8 89.9 320.4 89.9 C 318.9 89.9 317.7 90.5 316.9 91.6 C 316.3 92.5 316 93.7 316 95.5 C 316 97.4 316.3 98.5 316.9 99.5 C 317.7 100.6 318.9 101.2 320.4 101.2 C 321.8 101.2 322.6 100.7 323.8 99.5 C 323.8 99.5 325.2 100.9 325.2 100.9 C 323.7 102.6 322.4 103.1 320.4 103.1 C 316.6 103.1 313.8 100.6 313.8 95.5 C 313.8 90.5 316.6 88 320.4 88 C 322.4 88 323.7 88.5 325.2 90.2 Z M 331.4 98.9 C 331.4 100.3 331.9 101.1 333.4 101.1 C 333.41 101.06 334.6 101.1 334.6 101.1 L 334.6 102.9 C 334.6 102.9 333.02 102.92 333 102.9 C 330.4 102.9 329.3 101.2 329.3 99 C 329.27 98.99 329.3 81.6 329.3 81.6 L 331.4 81.6 C 331.4 81.6 331.43 98.9 331.4 98.9 Z M 349.7 102.9 L 347.6 102.9 C 347.6 102.9 347.6 101.27 347.6 101.3 C 346.6 102.5 345.1 103.1 343.4 103.1 C 341.8 103.1 340.5 102.6 339.6 101.7 C 338.6 100.7 338.1 99.3 338.1 97.6 C 338.09 97.58 338.1 88.2 338.1 88.2 L 340.3 88.2 C 340.3 88.2 340.25 97.25 340.3 97.2 C 340.3 99.9 341.7 101.2 343.9 101.2 C 346.1 101.2 347.6 99.8 347.6 97.2 C 347.57 97.25 347.6 88.2 347.6 88.2 L 349.7 88.2 L 349.7 102.9 Z M 366.1 102.9 L 363.9 102.9 C 363.9 102.9 363.92 101.18 363.9 101.2 C 362.7 102.7 361.4 103.1 359.8 103.1 C 358.2 103.1 356.9 102.6 356.2 101.8 C 354.7 100.3 354.4 97.9 354.4 95.5 C 354.4 93.2 354.7 90.8 356.2 89.3 C 356.9 88.5 358.2 88 359.8 88 C 361.4 88 362.7 88.4 363.9 89.9 C 363.92 89.9 363.9 81.6 363.9 81.6 L 366.1 81.6 L 366.1 102.9 Z M 356.5 95.5 C 356.5 98.4 357 101.2 360.2 101.2 C 363.4 101.2 363.9 98.4 363.9 95.5 C 363.9 92.7 363.4 89.9 360.2 89.9 C 357 89.9 356.5 92.7 356.5 95.5 Z M 373.6 102.9 L 371.5 102.9 L 371.5 88.2 L 373.6 88.2 L 373.6 102.9 Z M 373.8 84 L 371.4 84 L 371.4 81.5 L 373.8 81.5 L 373.8 84 Z M 389.2 89.4 C 390.2 90.4 390.7 91.8 390.7 93.5 C 390.71 93.5 390.7 102.9 390.7 102.9 L 388.6 102.9 C 388.6 102.9 388.55 93.83 388.6 93.8 C 388.6 91.2 387.1 89.9 384.9 89.9 C 382.7 89.9 381.2 91.2 381.2 93.8 C 381.23 93.83 381.2 102.9 381.2 102.9 L 379.1 102.9 L 379.1 88.2 L 381.2 88.2 C 381.2 88.2 381.2 89.81 381.2 89.8 C 382.3 88.6 383.7 88 385.4 88 C 387 88 388.3 88.5 389.2 89.4 Z M 404.7 89.9 C 404.72 89.9 404.7 88.2 404.7 88.2 L 406.9 88.2 C 406.9 88.2 406.85 103.37 406.9 103.4 C 406.9 107 404.6 109.7 400.7 109.7 C 398.5 109.7 397.3 109.1 395.7 107.7 C 395.7 107.7 397.1 106.3 397.1 106.3 C 398.2 107.3 398.9 107.8 400.6 107.8 C 403.5 107.8 404.7 105.8 404.7 103.3 C 404.7 103.3 404.7 101 404.7 101 C 403.5 102.5 402.1 102.9 400.6 102.9 C 399.1 102.9 397.8 102.3 397 101.6 C 395.5 100.1 395.2 97.8 395.2 95.4 C 395.2 93 395.5 90.7 397 89.3 C 397.8 88.5 399.1 88 400.6 88 C 402.2 88 403.5 88.3 404.7 89.9 Z M 397.3 95.4 C 397.3 98.2 397.8 100.9 401 100.9 C 404.2 100.9 404.7 98.2 404.7 95.4 C 404.7 92.7 404.2 89.9 401 89.9 C 397.8 89.9 397.3 92.7 397.3 95.4 Z M 429.6 89.4 C 429.6 89.4 428 91 428 91 C 427.2 90.2 426.6 89.9 425.4 89.9 C 423.3 89.9 421.9 91.6 421.9 93.9 C 421.88 93.86 421.9 102.9 421.9 102.9 L 419.7 102.9 L 419.7 88.2 L 421.9 88.2 C 421.9 88.2 421.88 89.96 421.9 90 C 422.7 88.7 424.3 88 426 88 C 427.4 88 428.5 88.3 429.6 89.4 Z M 442.8 95.1 C 442.76 95.15 442.8 96.1 442.8 96.1 C 442.8 96.1 432.8 96.11 432.8 96.1 C 432.8 99.3 434.3 101.2 437.2 101.2 C 438.9 101.2 439.9 100.7 441 99.5 C 441 99.5 442.5 100.8 442.5 100.8 C 441 102.3 439.6 103.1 437.1 103.1 C 433.2 103.1 430.6 100.8 430.6 95.5 C 430.6 90.7 433 88 436.7 88 C 440.5 88 442.8 90.7 442.8 95.1 Z M 433.3 92 C 432.9 92.8 432.9 93.3 432.8 94.5 C 432.8 94.5 440.6 94.5 440.6 94.5 C 440.5 93.3 440.5 92.8 440.2 92 C 439.5 90.7 438.3 89.8 436.7 89.8 C 435.1 89.8 433.9 90.7 433.3 92 Z M 457.3 89.6 C 457.3 89.6 455.9 91 455.9 91 C 454.9 90.2 453.5 89.8 452 89.8 C 449.8 89.8 448.7 90.7 448.7 92.2 C 448.7 93.6 449.5 94.2 451.3 94.4 C 451.3 94.4 453.7 94.6 453.7 94.6 C 456.2 94.8 458 95.8 458 98.6 C 458 101.4 455.6 103.1 452 103.1 C 449.5 103.1 447.5 102.5 445.9 101 C 445.9 101 447.4 99.5 447.4 99.5 C 448.5 100.7 450.1 101.2 452 101.2 C 454.4 101.2 455.9 100.4 455.9 98.6 C 455.9 97.3 455.2 96.6 453.4 96.5 C 453.4 96.5 451 96.3 451 96.3 C 448.1 96 446.6 94.8 446.6 92.3 C 446.6 89.6 448.9 88 452 88 C 454.2 88 456 88.5 457.3 89.6 Z M 472.2 89.3 C 473.6 90.7 474 93.2 474 95.5 C 474 97.9 473.6 100.3 472.2 101.8 C 471.4 102.6 470.1 103.1 468.6 103.1 C 466.9 103.1 465.6 102.7 464.4 101.2 C 464.39 101.18 464.4 109.5 464.4 109.5 L 462.2 109.5 L 462.2 88.2 L 464.4 88.2 C 464.4 88.2 464.39 89.9 464.4 89.9 C 465.6 88.4 466.9 88 468.6 88 C 470.1 88 471.4 88.5 472.2 89.3 Z M 464.4 95.5 C 464.4 98.4 464.9 101.2 468.1 101.2 C 471.3 101.2 471.8 98.4 471.8 95.5 C 471.8 92.7 471.3 89.9 468.1 89.9 C 464.9 89.9 464.4 92.7 464.4 95.5 Z M 488.1 89.7 C 489.6 91.2 489.9 93.3 489.9 95.5 C 489.9 97.8 489.6 99.9 488.1 101.4 C 487 102.5 485.6 103.1 483.8 103.1 C 482 103.1 480.6 102.5 479.6 101.4 C 478.1 99.9 477.8 97.8 477.8 95.5 C 477.8 93.3 478.1 91.2 479.6 89.7 C 480.6 88.6 482 88 483.8 88 C 485.6 88 487 88.6 488.1 89.7 Z M 481.2 91 C 480.1 92.1 480 93.9 480 95.5 C 480 97.2 480.1 99 481.2 100.1 C 481.9 100.8 482.8 101.2 483.8 101.2 C 484.9 101.2 485.8 100.8 486.5 100.1 C 487.6 99 487.7 97.2 487.7 95.5 C 487.7 93.9 487.6 92.1 486.5 91 C 485.8 90.3 484.9 89.9 483.8 89.9 C 482.8 89.9 481.9 90.3 481.2 91 Z M 504.6 89.4 C 505.6 90.4 506.1 91.8 506.1 93.5 C 506.12 93.5 506.1 102.9 506.1 102.9 L 504 102.9 C 504 102.9 503.96 93.83 504 93.8 C 504 91.2 502.6 89.9 500.3 89.9 C 498.1 89.9 496.6 91.2 496.6 93.8 C 496.64 93.83 496.6 102.9 496.6 102.9 L 494.5 102.9 L 494.5 88.2 L 496.6 88.2 C 496.6 88.2 496.61 89.81 496.6 89.8 C 497.7 88.6 499.1 88 500.8 88 C 502.4 88 503.7 88.5 504.6 89.4 Z M 522.3 102.9 L 520.2 102.9 C 520.2 102.9 520.16 101.18 520.2 101.2 C 518.9 102.7 517.6 103.1 516 103.1 C 514.5 103.1 513.2 102.6 512.4 101.8 C 510.9 100.3 510.6 97.9 510.6 95.5 C 510.6 93.2 510.9 90.8 512.4 89.3 C 513.2 88.5 514.5 88 516 88 C 517.6 88 518.9 88.4 520.2 89.9 C 520.16 89.9 520.2 81.6 520.2 81.6 L 522.3 81.6 L 522.3 102.9 Z M 512.8 95.5 C 512.8 98.4 513.2 101.2 516.4 101.2 C 519.7 101.2 520.2 98.4 520.2 95.5 C 520.2 92.7 519.7 89.9 516.4 89.9 C 513.2 89.9 512.8 92.7 512.8 95.5 Z M 529.9 102.9 L 527.7 102.9 L 527.7 88.2 L 529.9 88.2 L 529.9 102.9 Z M 530 84 L 527.6 84 L 527.6 81.5 L 530 81.5 L 530 84 Z M 545.4 89.4 C 546.5 90.4 547 91.8 547 93.5 C 546.95 93.5 547 102.9 547 102.9 L 544.8 102.9 C 544.8 102.9 544.79 93.83 544.8 93.8 C 544.8 91.2 543.4 89.9 541.2 89.9 C 538.9 89.9 537.5 91.2 537.5 93.8 C 537.47 93.83 537.5 102.9 537.5 102.9 L 535.3 102.9 L 535.3 88.2 L 537.4 88.2 C 537.4 88.2 537.44 89.81 537.4 89.8 C 538.5 88.6 540 88 541.6 88 C 543.2 88 544.5 88.5 545.4 89.4 Z M 561 89.9 C 560.96 89.9 561 88.2 561 88.2 L 563.1 88.2 C 563.1 88.2 563.09 103.37 563.1 103.4 C 563.1 107 560.8 109.7 556.9 109.7 C 554.7 109.7 553.5 109.1 551.9 107.7 C 551.9 107.7 553.3 106.3 553.3 106.3 C 554.4 107.3 555.2 107.8 556.9 107.8 C 559.7 107.8 560.9 105.8 560.9 103.3 C 560.9 103.3 560.9 101 560.9 101 C 559.7 102.5 558.4 102.9 556.8 102.9 C 555.3 102.9 554 102.3 553.2 101.6 C 551.8 100.1 551.4 97.8 551.4 95.4 C 551.4 93 551.8 90.7 553.2 89.3 C 554 88.5 555.3 88 556.8 88 C 558.4 88 559.8 88.3 561 89.9 Z M 553.6 95.4 C 553.6 98.2 554.1 100.9 557.3 100.9 C 560.5 100.9 560.9 98.2 560.9 95.4 C 560.9 92.7 560.5 89.9 557.3 89.9 C 554.1 89.9 553.6 92.7 553.6 95.4 Z M 578.5 88.2 L 581.6 88.2 L 581.6 89.8 L 578.5 89.8 C 578.5 89.8 578.48 98.9 578.5 98.9 C 578.5 100.3 579.1 101.1 580.5 101.1 C 580.49 101.06 581.6 101.1 581.6 101.1 L 581.6 102.9 C 581.6 102.9 580.1 102.92 580.1 102.9 C 577.6 102.9 576.3 101.1 576.3 99 C 576.32 98.96 576.3 89.8 576.3 89.8 L 574.5 89.8 L 574.5 88.2 L 576.3 88.2 L 576.3 83.6 L 578.5 83.6 L 578.5 88.2 Z M 595.3 89.7 C 596.8 91.2 597.1 93.3 597.1 95.5 C 597.1 97.8 596.8 99.9 595.3 101.4 C 594.2 102.5 592.8 103.1 591 103.1 C 589.2 103.1 587.8 102.5 586.8 101.4 C 585.3 99.9 585 97.8 585 95.5 C 585 93.3 585.3 91.2 586.8 89.7 C 587.8 88.6 589.2 88 591 88 C 592.8 88 594.2 88.6 595.3 89.7 Z M 588.4 91 C 587.3 92.1 587.2 93.9 587.2 95.5 C 587.2 97.2 587.2 99 588.4 100.1 C 589.1 100.8 590 101.2 591 101.2 C 592.1 101.2 593 100.8 593.7 100.1 C 594.8 99 594.9 97.2 594.9 95.5 C 594.9 93.9 594.8 92.1 593.7 91 C 593 90.3 592.1 89.9 591 89.9 C 590 89.9 589.1 90.3 588.4 91 Z M 617.9 89.9 C 617.93 89.93 617.9 88.2 617.9 88.2 L 620.1 88.2 L 620.1 109.5 L 617.9 109.5 C 617.9 109.5 617.93 101.21 617.9 101.2 C 616.7 102.7 615.4 103.1 613.8 103.1 C 612.2 103.1 610.9 102.6 610.2 101.8 C 608.7 100.3 608.4 97.9 608.4 95.5 C 608.4 93.2 608.7 90.8 610.2 89.3 C 610.9 88.5 612.2 88 613.8 88 C 615.4 88 616.7 88.4 617.9 89.9 Z M 610.5 95.5 C 610.5 98.4 611 101.2 614.2 101.2 C 617.5 101.2 617.9 98.4 617.9 95.5 C 617.9 92.7 617.5 89.9 614.2 89.9 C 611 89.9 610.5 92.7 610.5 95.5 Z M 637 102.9 L 634.9 102.9 C 634.9 102.9 634.85 101.27 634.9 101.3 C 633.8 102.5 632.3 103.1 630.7 103.1 C 629.1 103.1 627.8 102.6 626.9 101.7 C 625.8 100.7 625.3 99.3 625.3 97.6 C 625.34 97.58 625.3 88.2 625.3 88.2 L 627.5 88.2 C 627.5 88.2 627.5 97.25 627.5 97.2 C 627.5 99.9 628.9 101.2 631.1 101.2 C 633.4 101.2 634.8 99.8 634.8 97.2 C 634.82 97.25 634.8 88.2 634.8 88.2 L 637 88.2 L 637 102.9 Z M 653.7 95.1 C 653.69 95.15 653.7 96.1 653.7 96.1 C 653.7 96.1 643.73 96.11 643.7 96.1 C 643.7 99.3 645.2 101.2 648.1 101.2 C 649.8 101.2 650.8 100.7 652 99.5 C 652 99.5 653.4 100.8 653.4 100.8 C 651.9 102.3 650.5 103.1 648 103.1 C 644.1 103.1 641.6 100.8 641.6 95.5 C 641.6 90.7 643.9 88 647.6 88 C 651.5 88 653.7 90.7 653.7 95.1 Z M 644.2 92 C 643.8 92.8 643.8 93.3 643.7 94.5 C 643.7 94.5 651.6 94.5 651.6 94.5 C 651.5 93.3 651.4 92.8 651.1 92 C 650.5 90.7 649.2 89.8 647.6 89.8 C 646 89.8 644.8 90.7 644.2 92 Z M 668.3 89.6 C 668.3 89.6 666.9 91 666.9 91 C 665.8 90.2 664.5 89.8 662.9 89.8 C 660.8 89.8 659.6 90.7 659.6 92.2 C 659.6 93.6 660.4 94.2 662.3 94.4 C 662.3 94.4 664.6 94.6 664.6 94.6 C 667.2 94.8 668.9 95.8 668.9 98.6 C 668.9 101.4 666.5 103.1 662.9 103.1 C 660.4 103.1 658.5 102.5 656.9 101 C 656.9 101 658.3 99.5 658.3 99.5 C 659.5 100.7 661.1 101.2 662.9 101.2 C 665.4 101.2 666.8 100.4 666.8 98.6 C 666.8 97.3 666.1 96.6 664.4 96.5 C 664.4 96.5 661.9 96.3 661.9 96.3 C 659.1 96 657.5 94.8 657.5 92.3 C 657.5 89.6 659.8 88 663 88 C 665.1 88 666.9 88.5 668.3 89.6 Z M 675.4 88.2 L 678.6 88.2 L 678.6 89.8 L 675.4 89.8 C 675.4 89.8 675.41 98.9 675.4 98.9 C 675.4 100.3 676 101.1 677.4 101.1 C 677.42 101.06 678.6 101.1 678.6 101.1 L 678.6 102.9 C 678.6 102.9 677.03 102.92 677 102.9 C 674.5 102.9 673.3 101.1 673.3 99 C 673.25 98.96 673.3 89.8 673.3 89.8 L 671.4 89.8 L 671.4 88.2 L 673.3 88.2 L 673.3 83.6 L 675.4 83.6 L 675.4 88.2 Z M 685 102.9 L 682.8 102.9 L 682.8 88.2 L 685 88.2 L 685 102.9 Z M 685.2 84 L 682.7 84 L 682.7 81.5 L 685.2 81.5 L 685.2 84 Z M 699.9 89.7 C 701.4 91.2 701.7 93.3 701.7 95.5 C 701.7 97.8 701.4 99.9 699.9 101.4 C 698.9 102.5 697.5 103.1 695.7 103.1 C 693.9 103.1 692.5 102.5 691.5 101.4 C 690 99.9 689.7 97.8 689.7 95.5 C 689.7 93.3 690 91.2 691.5 89.7 C 692.5 88.6 693.9 88 695.7 88 C 697.5 88 698.9 88.6 699.9 89.7 Z M 693 91 C 691.9 92.1 691.8 93.9 691.8 95.5 C 691.8 97.2 691.9 99 693 100.1 C 693.7 100.8 694.6 101.2 695.7 101.2 C 696.7 101.2 697.7 100.8 698.4 100.1 C 699.5 99 699.6 97.2 699.6 95.5 C 699.6 93.9 699.5 92.1 698.4 91 C 697.7 90.3 696.7 89.9 695.7 89.9 C 694.6 89.9 693.7 90.3 693 91 Z M 716.4 89.4 C 717.5 90.4 718 91.8 718 93.5 C 717.98 93.5 718 102.9 718 102.9 L 715.8 102.9 C 715.8 102.9 715.82 93.83 715.8 93.8 C 715.8 91.2 714.4 89.9 712.2 89.9 C 710 89.9 708.5 91.2 708.5 93.8 C 708.5 93.83 708.5 102.9 708.5 102.9 L 706.3 102.9 L 706.3 88.2 L 708.5 88.2 C 708.5 88.2 708.47 89.81 708.5 89.8 C 709.5 88.6 711 88 712.6 88 C 714.2 88 715.5 88.5 716.4 89.4 Z M 733.2 89.6 C 733.2 89.6 731.8 91 731.8 91 C 730.8 90.2 729.4 89.8 727.9 89.8 C 725.7 89.8 724.6 90.7 724.6 92.2 C 724.6 93.6 725.4 94.2 727.2 94.4 C 727.2 94.4 729.5 94.6 729.5 94.6 C 732.1 94.8 733.9 95.8 733.9 98.6 C 733.9 101.4 731.5 103.1 727.9 103.1 C 725.4 103.1 723.4 102.5 721.8 101 C 721.8 101 723.3 99.5 723.3 99.5 C 724.4 100.7 726 101.2 727.8 101.2 C 730.3 101.2 731.8 100.4 731.8 98.6 C 731.8 97.3 731.1 96.6 729.3 96.5 C 729.3 96.5 726.9 96.3 726.9 96.3 C 724 96 722.5 94.8 722.5 92.3 C 722.5 89.6 724.7 88 727.9 88 C 730 88 731.9 88.5 733.2 89.6 Z M 756.1 92.9 C 756.11 92.9 756.1 102.9 756.1 102.9 L 753.9 102.9 C 753.9 102.9 753.95 101.51 753.9 101.5 C 752.8 102.7 751.7 103.1 749.7 103.1 C 747.6 103.1 746.5 102.7 745.5 101.7 C 744.8 101 744.4 99.9 744.4 98.7 C 744.4 96.1 746.2 94.5 749.5 94.5 C 749.54 94.49 753.9 94.5 753.9 94.5 C 753.9 94.5 753.95 93.08 753.9 93.1 C 753.9 90.9 752.9 89.8 750.2 89.8 C 748.3 89.8 747.3 90.3 746.4 91.5 C 746.4 91.5 745 90.2 745 90.2 C 746.3 88.5 747.8 88 750.2 88 C 754.2 88 756.1 89.7 756.1 92.9 Z M 749.8 96.1 C 747.6 96.1 746.5 97 746.5 98.7 C 746.5 100.4 747.6 101.2 749.9 101.2 C 751.2 101.2 752.2 101.1 753.2 100.2 C 753.7 99.8 753.9 98.9 753.9 97.7 C 753.95 97.7 753.9 96.1 753.9 96.1 C 753.9 96.1 749.84 96.11 749.8 96.1 Z M 763.5 89.9 C 764.7 88.3 766.1 88 767.7 88 C 769.2 88 770.5 88.5 771.3 89.3 C 772.8 90.7 773.1 93.2 773.1 95.5 C 773.1 97.9 772.8 100.3 771.3 101.8 C 770.5 102.6 769.2 103.1 767.7 103.1 C 766 103.1 764.7 102.7 763.5 101.1 C 763.52 101.15 763.5 102.9 763.5 102.9 L 761.4 102.9 L 761.4 81.6 L 763.5 81.6 C 763.5 81.6 763.52 89.87 763.5 89.9 Z M 763.5 95.5 C 763.5 98.4 764 101.2 767.2 101.2 C 770.4 101.2 770.9 98.4 770.9 95.5 C 770.9 92.7 770.4 89.9 767.2 89.9 C 764 89.9 763.5 92.7 763.5 95.5 Z M 787.2 89.7 C 788.7 91.2 789 93.3 789 95.5 C 789 97.8 788.7 99.9 787.2 101.4 C 786.2 102.5 784.8 103.1 783 103.1 C 781.2 103.1 779.7 102.5 778.7 101.4 C 777.2 99.9 776.9 97.8 776.9 95.5 C 776.9 93.3 777.2 91.2 778.7 89.7 C 779.7 88.6 781.2 88 783 88 C 784.8 88 786.2 88.6 787.2 89.7 Z M 780.3 91 C 779.2 92.1 779.1 93.9 779.1 95.5 C 779.1 97.2 779.2 99 780.3 100.1 C 781 100.8 781.9 101.2 783 101.2 C 784 101.2 784.9 100.8 785.7 100.1 C 786.7 99 786.8 97.2 786.8 95.5 C 786.8 93.9 786.7 92.1 785.7 91 C 784.9 90.3 784 89.9 783 89.9 C 781.9 89.9 781 90.3 780.3 91 Z M 805.1 102.9 L 803 102.9 C 803 102.9 802.97 101.27 803 101.3 C 801.9 102.5 800.4 103.1 798.8 103.1 C 797.2 103.1 795.9 102.6 795 101.7 C 793.9 100.7 793.5 99.3 793.5 97.6 C 793.46 97.58 793.5 88.2 793.5 88.2 L 795.6 88.2 C 795.6 88.2 795.62 97.25 795.6 97.2 C 795.6 99.9 797 101.2 799.2 101.2 C 801.5 101.2 802.9 99.8 802.9 97.2 C 802.94 97.25 802.9 88.2 802.9 88.2 L 805.1 88.2 L 805.1 102.9 Z M 813 88.2 L 816.2 88.2 L 816.2 89.8 L 813 89.8 C 813 89.8 813.02 98.9 813 98.9 C 813 100.3 813.6 101.1 815 101.1 C 815.03 101.06 816.2 101.1 816.2 101.1 L 816.2 102.9 C 816.2 102.9 814.64 102.92 814.6 102.9 C 812.1 102.9 810.9 101.1 810.9 99 C 810.86 98.96 810.9 89.8 810.9 89.8 L 809 89.8 L 809 88.2 L 810.9 88.2 L 810.9 83.6 L 813 83.6 L 813 88.2 Z M 824 93.9 L 821.2 93.9 L 821.2 91.1 L 824 91.1 L 824 93.9 Z M 824 102.9 L 821.2 102.9 L 821.2 100.1 L 824 100.1 L 824 102.9 Z " stroke="none" fill="#000"/>  </g>  <g id="Polygon25841">    <path d="M 36.8 49.4 C 37.9 50.4 38.3 51.8 38.3 53.5 C 38.34 53.5 38.3 62.9 38.3 62.9 L 36.2 62.9 C 36.2 62.9 36.18 53.83 36.2 53.8 C 36.2 51.2 34.8 49.9 32.6 49.9 C 30.3 49.9 28.9 51.2 28.9 53.8 C 28.86 53.83 28.9 62.9 28.9 62.9 L 26.7 62.9 L 26.7 48.2 L 28.8 48.2 C 28.8 48.2 28.83 49.81 28.8 49.8 C 29.9 48.6 31.3 48 33 48 C 34.6 48 35.9 48.5 36.8 49.4 Z M 54.1 52.9 C 54.12 52.9 54.1 62.9 54.1 62.9 L 52 62.9 C 52 62.9 51.96 61.51 52 61.5 C 50.8 62.7 49.7 63.1 47.7 63.1 C 45.7 63.1 44.5 62.7 43.5 61.7 C 42.8 61 42.4 59.9 42.4 58.7 C 42.4 56.1 44.2 54.5 47.5 54.5 C 47.55 54.49 52 54.5 52 54.5 C 52 54.5 51.96 53.08 52 53.1 C 52 50.9 50.9 49.8 48.2 49.8 C 46.3 49.8 45.4 50.3 44.5 51.5 C 44.5 51.5 43 50.2 43 50.2 C 44.3 48.5 45.8 48 48.2 48 C 52.2 48 54.1 49.7 54.1 52.9 Z M 47.8 56.1 C 45.6 56.1 44.5 57 44.5 58.7 C 44.5 60.4 45.6 61.2 47.9 61.2 C 49.2 61.2 50.2 61.1 51.2 60.2 C 51.7 59.8 52 58.9 52 57.7 C 51.96 57.7 52 56.1 52 56.1 C 52 56.1 47.85 56.11 47.8 56.1 Z M 61.9 48.2 L 65 48.2 L 65 49.8 L 61.9 49.8 C 61.9 49.8 61.89 58.9 61.9 58.9 C 61.9 60.3 62.5 61.1 63.9 61.1 C 63.9 61.06 65 61.1 65 61.1 L 65 62.9 C 65 62.9 63.51 62.92 63.5 62.9 C 61 62.9 59.7 61.1 59.7 59 C 59.73 58.96 59.7 49.8 59.7 49.8 L 57.9 49.8 L 57.9 48.2 L 59.7 48.2 L 59.7 43.6 L 61.9 43.6 L 61.9 48.2 Z M 71.5 62.9 L 69.3 62.9 L 69.3 48.2 L 71.5 48.2 L 71.5 62.9 Z M 71.6 44 L 69.2 44 L 69.2 41.5 L 71.6 41.5 L 71.6 44 Z M 74.5 48.2 L 76.9 48.2 L 80.9 60 L 85 48.2 L 87.3 48.2 L 81.9 62.9 L 79.9 62.9 L 74.5 48.2 Z M 101.3 55.1 C 101.34 55.15 101.3 56.1 101.3 56.1 C 101.3 56.1 91.38 56.11 91.4 56.1 C 91.4 59.3 92.9 61.2 95.7 61.2 C 97.4 61.2 98.4 60.7 99.6 59.5 C 99.6 59.5 101.1 60.8 101.1 60.8 C 99.6 62.3 98.2 63.1 95.7 63.1 C 91.7 63.1 89.2 60.8 89.2 55.5 C 89.2 50.7 91.5 48 95.3 48 C 99.1 48 101.3 50.7 101.3 55.1 Z M 91.8 52 C 91.5 52.8 91.4 53.3 91.4 54.5 C 91.4 54.5 99.2 54.5 99.2 54.5 C 99.1 53.3 99.1 52.8 98.7 52 C 98.1 50.7 96.9 49.8 95.3 49.8 C 93.7 49.8 92.5 50.7 91.8 52 Z M 115.5 58.9 C 115.5 60.3 116 61.1 117.5 61.1 C 117.48 61.06 118.6 61.1 118.6 61.1 L 118.6 62.9 C 118.6 62.9 117.09 62.92 117.1 62.9 C 114.5 62.9 113.3 61.2 113.3 59 C 113.34 58.99 113.3 41.6 113.3 41.6 L 115.5 41.6 C 115.5 41.6 115.5 58.9 115.5 58.9 Z M 132.8 52.9 C 132.84 52.9 132.8 62.9 132.8 62.9 L 130.7 62.9 C 130.7 62.9 130.68 61.51 130.7 61.5 C 129.5 62.7 128.4 63.1 126.4 63.1 C 124.4 63.1 123.3 62.7 122.2 61.7 C 121.5 61 121.1 59.9 121.1 58.7 C 121.1 56.1 123 54.5 126.3 54.5 C 126.27 54.49 130.7 54.5 130.7 54.5 C 130.7 54.5 130.68 53.08 130.7 53.1 C 130.7 50.9 129.6 49.8 126.9 49.8 C 125 49.8 124.1 50.3 123.2 51.5 C 123.2 51.5 121.7 50.2 121.7 50.2 C 123 48.5 124.5 48 126.9 48 C 130.9 48 132.8 49.7 132.8 52.9 Z M 126.6 56.1 C 124.3 56.1 123.2 57 123.2 58.7 C 123.2 60.4 124.3 61.2 126.7 61.2 C 127.9 61.2 129 61.1 129.9 60.2 C 130.4 59.8 130.7 58.9 130.7 57.7 C 130.68 57.7 130.7 56.1 130.7 56.1 C 130.7 56.1 126.57 56.11 126.6 56.1 Z M 148.2 49.4 C 149.2 50.4 149.7 51.8 149.7 53.5 C 149.73 53.5 149.7 62.9 149.7 62.9 L 147.6 62.9 C 147.6 62.9 147.57 53.83 147.6 53.8 C 147.6 51.2 146.2 49.9 143.9 49.9 C 141.7 49.9 140.2 51.2 140.2 53.8 C 140.25 53.83 140.2 62.9 140.2 62.9 L 138.1 62.9 L 138.1 48.2 L 140.2 48.2 C 140.2 48.2 140.22 49.81 140.2 49.8 C 141.3 48.6 142.7 48 144.4 48 C 146 48 147.3 48.5 148.2 49.4 Z M 163.7 49.9 C 163.74 49.9 163.7 48.2 163.7 48.2 L 165.9 48.2 C 165.9 48.2 165.87 63.37 165.9 63.4 C 165.9 67 163.6 69.7 159.7 69.7 C 157.5 69.7 156.3 69.1 154.7 67.7 C 154.7 67.7 156.1 66.3 156.1 66.3 C 157.2 67.3 157.9 67.8 159.7 67.8 C 162.5 67.8 163.7 65.8 163.7 63.3 C 163.7 63.3 163.7 61 163.7 61 C 162.5 62.5 161.2 62.9 159.6 62.9 C 158.1 62.9 156.8 62.3 156 61.6 C 154.5 60.1 154.2 57.8 154.2 55.4 C 154.2 53 154.5 50.7 156 49.3 C 156.8 48.5 158.1 48 159.6 48 C 161.2 48 162.5 48.3 163.7 49.9 Z M 156.4 55.4 C 156.4 58.2 156.8 60.9 160 60.9 C 163.3 60.9 163.7 58.2 163.7 55.4 C 163.7 52.7 163.3 49.9 160 49.9 C 156.8 49.9 156.4 52.7 156.4 55.4 Z M 182.8 62.9 L 180.6 62.9 C 180.6 62.9 180.63 61.27 180.6 61.3 C 179.6 62.5 178.1 63.1 176.5 63.1 C 174.9 63.1 173.5 62.6 172.6 61.7 C 171.6 60.7 171.1 59.3 171.1 57.6 C 171.12 57.58 171.1 48.2 171.1 48.2 L 173.3 48.2 C 173.3 48.2 173.28 57.25 173.3 57.2 C 173.3 59.9 174.7 61.2 176.9 61.2 C 179.1 61.2 180.6 59.8 180.6 57.2 C 180.6 57.25 180.6 48.2 180.6 48.2 L 182.8 48.2 L 182.8 62.9 Z M 198.7 52.9 C 198.69 52.9 198.7 62.9 198.7 62.9 L 196.5 62.9 C 196.5 62.9 196.53 61.51 196.5 61.5 C 195.4 62.7 194.2 63.1 192.3 63.1 C 190.2 63.1 189.1 62.7 188.1 61.7 C 187.3 61 187 59.9 187 58.7 C 187 56.1 188.8 54.5 192.1 54.5 C 192.12 54.49 196.5 54.5 196.5 54.5 C 196.5 54.5 196.53 53.08 196.5 53.1 C 196.5 50.9 195.5 49.8 192.7 49.8 C 190.9 49.8 189.9 50.3 189 51.5 C 189 51.5 187.6 50.2 187.6 50.2 C 188.8 48.5 190.3 48 192.8 48 C 196.8 48 198.7 49.7 198.7 52.9 Z M 192.4 56.1 C 190.2 56.1 189.1 57 189.1 58.7 C 189.1 60.4 190.1 61.2 192.5 61.2 C 193.7 61.2 194.8 61.1 195.8 60.2 C 196.3 59.8 196.5 58.9 196.5 57.7 C 196.53 57.7 196.5 56.1 196.5 56.1 C 196.5 56.1 192.42 56.11 192.4 56.1 Z M 212.7 49.9 C 212.7 49.9 212.7 48.2 212.7 48.2 L 214.8 48.2 C 214.8 48.2 214.83 63.37 214.8 63.4 C 214.8 67 212.5 69.7 208.7 69.7 C 206.5 69.7 205.2 69.1 203.7 67.7 C 203.7 67.7 205.1 66.3 205.1 66.3 C 206.2 67.3 206.9 67.8 208.6 67.8 C 211.5 67.8 212.7 65.8 212.7 63.3 C 212.7 63.3 212.7 61 212.7 61 C 211.5 62.5 210.1 62.9 208.5 62.9 C 207 62.9 205.7 62.3 205 61.6 C 203.5 60.1 203.2 57.8 203.2 55.4 C 203.2 53 203.5 50.7 205 49.3 C 205.7 48.5 207.1 48 208.6 48 C 210.2 48 211.5 48.3 212.7 49.9 Z M 205.3 55.4 C 205.3 58.2 205.8 60.9 209 60.9 C 212.2 60.9 212.7 58.2 212.7 55.4 C 212.7 52.7 212.2 49.9 209 49.9 C 205.8 49.9 205.3 52.7 205.3 55.4 Z M 231.5 55.1 C 231.54 55.15 231.5 56.1 231.5 56.1 C 231.5 56.1 221.58 56.11 221.6 56.1 C 221.6 59.3 223.1 61.2 225.9 61.2 C 227.6 61.2 228.6 60.7 229.8 59.5 C 229.8 59.5 231.3 60.8 231.3 60.8 C 229.8 62.3 228.4 63.1 225.9 63.1 C 221.9 63.1 219.4 60.8 219.4 55.5 C 219.4 50.7 221.7 48 225.5 48 C 229.3 48 231.5 50.7 231.5 55.1 Z M 222 52 C 221.7 52.8 221.6 53.3 221.6 54.5 C 221.6 54.5 229.4 54.5 229.4 54.5 C 229.3 53.3 229.3 52.8 228.9 52 C 228.3 50.7 227.1 49.8 225.5 49.8 C 223.9 49.8 222.7 50.7 222 52 Z M 238.9 62.9 L 236.1 62.9 L 236.1 60.1 L 238.9 60.1 L 238.9 62.9 Z M 257.8 54.1 L 257.8 62.9 L 255.5 62.9 L 255.5 54.1 L 249.2 41.6 L 251.6 41.6 L 256.7 51.8 L 261.7 41.6 L 264.1 41.6 L 257.8 54.1 Z M 274.6 49.7 C 276.1 51.2 276.4 53.3 276.4 55.5 C 276.4 57.8 276.1 59.9 274.6 61.4 C 273.6 62.5 272.2 63.1 270.4 63.1 C 268.6 63.1 267.1 62.5 266.1 61.4 C 264.6 59.9 264.3 57.8 264.3 55.5 C 264.3 53.3 264.6 51.2 266.1 49.7 C 267.1 48.6 268.6 48 270.4 48 C 272.2 48 273.6 48.6 274.6 49.7 Z M 267.7 51 C 266.6 52.1 266.5 53.9 266.5 55.5 C 266.5 57.2 266.6 59 267.7 60.1 C 268.4 60.8 269.3 61.2 270.4 61.2 C 271.4 61.2 272.3 60.8 273.1 60.1 C 274.1 59 274.2 57.2 274.2 55.5 C 274.2 53.9 274.1 52.1 273.1 51 C 272.3 50.3 271.4 49.9 270.4 49.9 C 269.3 49.9 268.4 50.3 267.7 51 Z M 292.5 62.9 L 290.4 62.9 C 290.4 62.9 290.37 61.27 290.4 61.3 C 289.3 62.5 287.8 63.1 286.2 63.1 C 284.6 63.1 283.3 62.6 282.4 61.7 C 281.3 60.7 280.9 59.3 280.9 57.6 C 280.86 57.58 280.9 48.2 280.9 48.2 L 283 48.2 C 283 48.2 283.02 57.25 283 57.2 C 283 59.9 284.4 61.2 286.6 61.2 C 288.9 61.2 290.3 59.8 290.3 57.2 C 290.34 57.25 290.3 48.2 290.3 48.2 L 292.5 48.2 L 292.5 62.9 Z M 307.7 49.4 C 307.7 49.4 306.1 51 306.1 51 C 305.3 50.2 304.7 49.9 303.6 49.9 C 301.4 49.9 300.1 51.6 300.1 53.9 C 300.06 53.86 300.1 62.9 300.1 62.9 L 297.9 62.9 L 297.9 48.2 L 300.1 48.2 C 300.1 48.2 300.06 49.96 300.1 50 C 300.9 48.7 302.5 48 304.2 48 C 305.6 48 306.7 48.3 307.7 49.4 Z M 328.6 50.2 C 328.6 50.2 327.1 51.5 327.1 51.5 C 326 50.3 325.2 49.9 323.8 49.9 C 322.3 49.9 321.1 50.5 320.3 51.6 C 319.6 52.5 319.4 53.7 319.4 55.5 C 319.4 57.4 319.6 58.5 320.3 59.5 C 321.1 60.6 322.3 61.2 323.8 61.2 C 325.2 61.2 326 60.7 327.1 59.5 C 327.1 59.5 328.6 60.9 328.6 60.9 C 327.1 62.6 325.8 63.1 323.8 63.1 C 320 63.1 317.2 60.6 317.2 55.5 C 317.2 50.5 320 48 323.8 48 C 325.8 48 327.1 48.5 328.6 50.2 Z M 334.8 58.9 C 334.8 60.3 335.3 61.1 336.8 61.1 C 336.81 61.06 338 61.1 338 61.1 L 338 62.9 C 338 62.9 336.42 62.92 336.4 62.9 C 333.8 62.9 332.7 61.2 332.7 59 C 332.67 58.99 332.7 41.6 332.7 41.6 L 334.8 41.6 C 334.8 41.6 334.83 58.9 334.8 58.9 Z M 343.8 62.9 L 341.6 62.9 L 341.6 48.2 L 343.8 48.2 L 343.8 62.9 Z M 343.9 44 L 341.5 44 L 341.5 41.5 L 343.9 41.5 L 343.9 44 Z M 360.5 55.1 C 360.53 55.15 360.5 56.1 360.5 56.1 C 360.5 56.1 350.57 56.11 350.6 56.1 C 350.6 59.3 352.1 61.2 354.9 61.2 C 356.6 61.2 357.6 60.7 358.8 59.5 C 358.8 59.5 360.3 60.8 360.3 60.8 C 358.8 62.3 357.4 63.1 354.9 63.1 C 350.9 63.1 348.4 60.8 348.4 55.5 C 348.4 50.7 350.7 48 354.5 48 C 358.3 48 360.5 50.7 360.5 55.1 Z M 351 52 C 350.7 52.8 350.6 53.3 350.6 54.5 C 350.6 54.5 358.4 54.5 358.4 54.5 C 358.3 53.3 358.3 52.8 357.9 52 C 357.3 50.7 356.1 49.8 354.5 49.8 C 352.9 49.8 351.7 50.7 351 52 Z M 375.2 49.4 C 376.3 50.4 376.8 51.8 376.8 53.5 C 376.76 53.5 376.8 62.9 376.8 62.9 L 374.6 62.9 C 374.6 62.9 374.6 53.83 374.6 53.8 C 374.6 51.2 373.2 49.9 371 49.9 C 368.8 49.9 367.3 51.2 367.3 53.8 C 367.28 53.83 367.3 62.9 367.3 62.9 L 365.1 62.9 L 365.1 48.2 L 367.3 48.2 C 367.3 48.2 367.25 49.81 367.3 49.8 C 368.3 48.6 369.8 48 371.4 48 C 373 48 374.3 48.5 375.2 49.4 Z M 384.5 48.2 L 387.7 48.2 L 387.7 49.8 L 384.5 49.8 C 384.5 49.8 384.53 58.9 384.5 58.9 C 384.5 60.3 385.2 61.1 386.5 61.1 C 386.54 61.06 387.7 61.1 387.7 61.1 L 387.7 62.9 C 387.7 62.9 386.15 62.92 386.2 62.9 C 383.6 62.9 382.4 61.1 382.4 59 C 382.37 58.96 382.4 49.8 382.4 49.8 L 380.5 49.8 L 380.5 48.2 L 382.4 48.2 L 382.4 43.6 L 384.5 43.6 L 384.5 48.2 Z M 410.1 50.2 C 410.1 50.2 408.6 51.5 408.6 51.5 C 407.5 50.3 406.6 49.9 405.2 49.9 C 403.8 49.9 402.6 50.5 401.8 51.6 C 401.1 52.5 400.8 53.7 400.8 55.5 C 400.8 57.4 401.1 58.5 401.8 59.5 C 402.6 60.6 403.8 61.2 405.2 61.2 C 406.6 61.2 407.5 60.7 408.6 59.5 C 408.6 59.5 410.1 60.9 410.1 60.9 C 408.5 62.6 407.2 63.1 405.2 63.1 C 401.5 63.1 398.7 60.6 398.7 55.5 C 398.7 50.5 401.5 48 405.2 48 C 407.2 48 408.5 48.5 410.1 50.2 Z M 424.6 52.9 C 424.55 52.9 424.6 62.9 424.6 62.9 L 422.4 62.9 C 422.4 62.9 422.39 61.51 422.4 61.5 C 421.2 62.7 420.1 63.1 418.1 63.1 C 416.1 63.1 415 62.7 414 61.7 C 413.2 61 412.9 59.9 412.9 58.7 C 412.9 56.1 414.7 54.5 418 54.5 C 417.98 54.49 422.4 54.5 422.4 54.5 C 422.4 54.5 422.39 53.08 422.4 53.1 C 422.4 50.9 421.3 49.8 418.6 49.8 C 416.8 49.8 415.8 50.3 414.9 51.5 C 414.9 51.5 413.4 50.2 413.4 50.2 C 414.7 48.5 416.2 48 418.6 48 C 422.6 48 424.6 49.7 424.6 52.9 Z M 418.3 56.1 C 416.1 56.1 415 57 415 58.7 C 415 60.4 416 61.2 418.4 61.2 C 419.6 61.2 420.7 61.1 421.6 60.2 C 422.2 59.8 422.4 58.9 422.4 57.7 C 422.39 57.7 422.4 56.1 422.4 56.1 C 422.4 56.1 418.28 56.11 418.3 56.1 Z M 439.9 49.4 C 441 50.4 441.4 51.8 441.4 53.5 C 441.44 53.5 441.4 62.9 441.4 62.9 L 439.3 62.9 C 439.3 62.9 439.28 53.83 439.3 53.8 C 439.3 51.2 437.9 49.9 435.7 49.9 C 433.4 49.9 432 51.2 432 53.8 C 431.96 53.83 432 62.9 432 62.9 L 429.8 62.9 L 429.8 48.2 L 431.9 48.2 C 431.9 48.2 431.93 49.81 431.9 49.8 C 433 48.6 434.5 48 436.1 48 C 437.7 48 439 48.5 439.9 49.4 Z M 465.5 55.1 C 465.47 55.15 465.5 56.1 465.5 56.1 C 465.5 56.1 455.51 56.11 455.5 56.1 C 455.5 59.3 457 61.2 459.9 61.2 C 461.6 61.2 462.6 60.7 463.7 59.5 C 463.7 59.5 465.2 60.8 465.2 60.8 C 463.7 62.3 462.3 63.1 459.8 63.1 C 455.9 63.1 453.4 60.8 453.4 55.5 C 453.4 50.7 455.7 48 459.4 48 C 463.3 48 465.5 50.7 465.5 55.1 Z M 456 52 C 455.6 52.8 455.6 53.3 455.5 54.5 C 455.5 54.5 463.3 54.5 463.3 54.5 C 463.3 53.3 463.2 52.8 462.9 52 C 462.2 50.7 461 49.8 459.4 49.8 C 457.8 49.8 456.6 50.7 456 52 Z M 475.1 55.4 L 480.1 62.9 L 477.5 62.9 L 474 57.2 L 470.4 62.9 L 467.8 62.9 L 472.8 55.4 L 468 48.2 L 470.6 48.2 L 474 53.6 L 477.3 48.2 L 479.9 48.2 L 475.1 55.4 Z M 493.7 49.3 C 495.2 50.7 495.5 53.2 495.5 55.5 C 495.5 57.9 495.2 60.3 493.7 61.8 C 493 62.6 491.7 63.1 490.1 63.1 C 488.5 63.1 487.2 62.7 486 61.2 C 485.96 61.18 486 69.5 486 69.5 L 483.8 69.5 L 483.8 48.2 L 486 48.2 C 486 48.2 485.96 49.9 486 49.9 C 487.2 48.4 488.5 48 490.1 48 C 491.7 48 493 48.5 493.7 49.3 Z M 486 55.5 C 486 58.4 486.4 61.2 489.7 61.2 C 492.9 61.2 493.4 58.4 493.4 55.5 C 493.4 52.7 492.9 49.9 489.7 49.9 C 486.4 49.9 486 52.7 486 55.5 Z M 511.5 55.1 C 511.46 55.15 511.5 56.1 511.5 56.1 C 511.5 56.1 501.5 56.11 501.5 56.1 C 501.5 59.3 503 61.2 505.9 61.2 C 507.6 61.2 508.6 60.7 509.7 59.5 C 509.7 59.5 511.2 60.8 511.2 60.8 C 509.7 62.3 508.3 63.1 505.8 63.1 C 501.9 63.1 499.3 60.8 499.3 55.5 C 499.3 50.7 501.7 48 505.4 48 C 509.2 48 511.5 50.7 511.5 55.1 Z M 502 52 C 501.6 52.8 501.6 53.3 501.5 54.5 C 501.5 54.5 509.3 54.5 509.3 54.5 C 509.2 53.3 509.2 52.8 508.9 52 C 508.2 50.7 507 49.8 505.4 49.8 C 503.8 49.8 502.6 50.7 502 52 Z M 526.7 50.2 C 526.7 50.2 525.2 51.5 525.2 51.5 C 524.1 50.3 523.2 49.9 521.8 49.9 C 520.4 49.9 519.2 50.5 518.4 51.6 C 517.7 52.5 517.4 53.7 517.4 55.5 C 517.4 57.4 517.7 58.5 518.4 59.5 C 519.2 60.6 520.4 61.2 521.8 61.2 C 523.2 61.2 524.1 60.7 525.2 59.5 C 525.2 59.5 526.7 60.9 526.7 60.9 C 525.1 62.6 523.9 63.1 521.8 63.1 C 518.1 63.1 515.3 60.6 515.3 55.5 C 515.3 50.5 518.1 48 521.8 48 C 523.9 48 525.1 48.5 526.7 50.2 Z M 533.3 48.2 L 536.5 48.2 L 536.5 49.8 L 533.3 49.8 C 533.3 49.8 533.3 58.9 533.3 58.9 C 533.3 60.3 533.9 61.1 535.3 61.1 C 535.31 61.06 536.5 61.1 536.5 61.1 L 536.5 62.9 C 536.5 62.9 534.92 62.92 534.9 62.9 C 532.4 62.9 531.1 61.1 531.1 59 C 531.14 58.96 531.1 49.8 531.1 49.8 L 529.3 49.8 L 529.3 48.2 L 531.1 48.2 L 531.1 43.6 L 533.3 43.6 L 533.3 48.2 Z M 550.7 48.2 L 553.9 48.2 L 553.9 49.8 L 550.7 49.8 C 550.7 49.8 550.73 58.9 550.7 58.9 C 550.7 60.3 551.4 61.1 552.7 61.1 C 552.74 61.06 553.9 61.1 553.9 61.1 L 553.9 62.9 C 553.9 62.9 552.35 62.92 552.4 62.9 C 549.8 62.9 548.6 61.1 548.6 59 C 548.57 58.96 548.6 49.8 548.6 49.8 L 546.7 49.8 L 546.7 48.2 L 548.6 48.2 L 548.6 43.6 L 550.7 43.6 L 550.7 48.2 Z M 567.5 49.7 C 569 51.2 569.3 53.3 569.3 55.5 C 569.3 57.8 569 59.9 567.5 61.4 C 566.5 62.5 565.1 63.1 563.3 63.1 C 561.5 63.1 560.1 62.5 559 61.4 C 557.5 59.9 557.2 57.8 557.2 55.5 C 557.2 53.3 557.5 51.2 559 49.7 C 560.1 48.6 561.5 48 563.3 48 C 565.1 48 566.5 48.6 567.5 49.7 Z M 560.6 51 C 559.5 52.1 559.4 53.9 559.4 55.5 C 559.4 57.2 559.5 59 560.6 60.1 C 561.3 60.8 562.2 61.2 563.3 61.2 C 564.3 61.2 565.3 60.8 566 60.1 C 567.1 59 567.1 57.2 567.1 55.5 C 567.1 53.9 567.1 52.1 566 51 C 565.3 50.3 564.3 49.9 563.3 49.9 C 562.2 49.9 561.3 50.3 560.6 51 Z M 592.7 55.1 C 592.7 55.15 592.7 56.1 592.7 56.1 C 592.7 56.1 582.74 56.11 582.7 56.1 C 582.7 59.3 584.2 61.2 587.1 61.2 C 588.8 61.2 589.8 60.7 591 59.5 C 591 59.5 592.4 60.8 592.4 60.8 C 590.9 62.3 589.5 63.1 587 63.1 C 583.1 63.1 580.6 60.8 580.6 55.5 C 580.6 50.7 582.9 48 586.6 48 C 590.5 48 592.7 50.7 592.7 55.1 Z M 583.2 52 C 582.8 52.8 582.8 53.3 582.7 54.5 C 582.7 54.5 590.6 54.5 590.6 54.5 C 590.5 53.3 590.5 52.8 590.1 52 C 589.5 50.7 588.2 49.8 586.6 49.8 C 585.1 49.8 583.8 50.7 583.2 52 Z M 599.4 58.9 C 599.4 60.3 599.9 61.1 601.4 61.1 C 601.37 61.06 602.5 61.1 602.5 61.1 L 602.5 62.9 C 602.5 62.9 600.98 62.92 601 62.9 C 598.4 62.9 597.2 61.2 597.2 59 C 597.23 58.99 597.2 41.6 597.2 41.6 L 599.4 41.6 C 599.4 41.6 599.39 58.9 599.4 58.9 Z M 616.7 52.9 C 616.73 52.9 616.7 62.9 616.7 62.9 L 614.6 62.9 C 614.6 62.9 614.57 61.51 614.6 61.5 C 613.4 62.7 612.3 63.1 610.3 63.1 C 608.3 63.1 607.2 62.7 606.1 61.7 C 605.4 61 605 59.9 605 58.7 C 605 56.1 606.9 54.5 610.2 54.5 C 610.16 54.49 614.6 54.5 614.6 54.5 C 614.6 54.5 614.57 53.08 614.6 53.1 C 614.6 50.9 613.5 49.8 610.8 49.8 C 608.9 49.8 608 50.3 607.1 51.5 C 607.1 51.5 605.6 50.2 605.6 50.2 C 606.9 48.5 608.4 48 610.8 48 C 614.8 48 616.7 49.7 616.7 52.9 Z M 610.5 56.1 C 608.2 56.1 607.1 57 607.1 58.7 C 607.1 60.4 608.2 61.2 610.6 61.2 C 611.8 61.2 612.9 61.1 613.8 60.2 C 614.3 59.8 614.6 58.9 614.6 57.7 C 614.57 57.7 614.6 56.1 614.6 56.1 C 614.6 56.1 610.46 56.11 610.5 56.1 Z M 624.1 49.9 C 625.4 48.3 626.7 48 628.3 48 C 629.8 48 631.1 48.5 631.9 49.3 C 633.4 50.7 633.7 53.2 633.7 55.5 C 633.7 57.9 633.4 60.3 631.9 61.8 C 631.1 62.6 629.8 63.1 628.3 63.1 C 626.7 63.1 625.4 62.7 624.1 61.1 C 624.14 61.15 624.1 62.9 624.1 62.9 L 622 62.9 L 622 41.6 L 624.1 41.6 C 624.1 41.6 624.14 49.87 624.1 49.9 Z M 624.1 55.5 C 624.1 58.4 624.6 61.2 627.9 61.2 C 631.1 61.2 631.6 58.4 631.6 55.5 C 631.6 52.7 631.1 49.9 627.9 49.9 C 624.6 49.9 624.1 52.7 624.1 55.5 Z M 647.8 49.7 C 649.3 51.2 649.6 53.3 649.6 55.5 C 649.6 57.8 649.3 59.9 647.8 61.4 C 646.8 62.5 645.4 63.1 643.6 63.1 C 641.8 63.1 640.4 62.5 639.4 61.4 C 637.9 59.9 637.6 57.8 637.6 55.5 C 637.6 53.3 637.9 51.2 639.4 49.7 C 640.4 48.6 641.8 48 643.6 48 C 645.4 48 646.8 48.6 647.8 49.7 Z M 640.9 51 C 639.8 52.1 639.7 53.9 639.7 55.5 C 639.7 57.2 639.8 59 640.9 60.1 C 641.6 60.8 642.5 61.2 643.6 61.2 C 644.6 61.2 645.6 60.8 646.3 60.1 C 647.4 59 647.5 57.2 647.5 55.5 C 647.5 53.9 647.4 52.1 646.3 51 C 645.6 50.3 644.6 49.9 643.6 49.9 C 642.5 49.9 641.6 50.3 640.9 51 Z M 664.1 49.4 C 664.1 49.4 662.5 51 662.5 51 C 661.7 50.2 661.1 49.9 659.9 49.9 C 657.8 49.9 656.4 51.6 656.4 53.9 C 656.39 53.86 656.4 62.9 656.4 62.9 L 654.2 62.9 L 654.2 48.2 L 656.4 48.2 C 656.4 48.2 656.39 49.96 656.4 50 C 657.2 48.7 658.8 48 660.5 48 C 661.9 48 663 48.3 664.1 49.4 Z M 677.1 52.9 C 677.09 52.9 677.1 62.9 677.1 62.9 L 674.9 62.9 C 674.9 62.9 674.93 61.51 674.9 61.5 C 673.8 62.7 672.7 63.1 670.7 63.1 C 668.6 63.1 667.5 62.7 666.5 61.7 C 665.8 61 665.4 59.9 665.4 58.7 C 665.4 56.1 667.2 54.5 670.5 54.5 C 670.52 54.49 674.9 54.5 674.9 54.5 C 674.9 54.5 674.93 53.08 674.9 53.1 C 674.9 50.9 673.9 49.8 671.2 49.8 C 669.3 49.8 668.3 50.3 667.4 51.5 C 667.4 51.5 666 50.2 666 50.2 C 667.3 48.5 668.8 48 671.2 48 C 675.2 48 677.1 49.7 677.1 52.9 Z M 670.8 56.1 C 668.6 56.1 667.5 57 667.5 58.7 C 667.5 60.4 668.5 61.2 670.9 61.2 C 672.1 61.2 673.2 61.1 674.2 60.2 C 674.7 59.8 674.9 58.9 674.9 57.7 C 674.93 57.7 674.9 56.1 674.9 56.1 C 674.9 56.1 670.82 56.11 670.8 56.1 Z M 684.9 48.2 L 688 48.2 L 688 49.8 L 684.9 49.8 C 684.9 49.8 684.86 58.9 684.9 58.9 C 684.9 60.3 685.5 61.1 686.9 61.1 C 686.87 61.06 688 61.1 688 61.1 L 688 62.9 C 688 62.9 686.48 62.92 686.5 62.9 C 684 62.9 682.7 61.1 682.7 59 C 682.7 58.96 682.7 49.8 682.7 49.8 L 680.8 49.8 L 680.8 48.2 L 682.7 48.2 L 682.7 43.6 L 684.9 43.6 L 684.9 48.2 Z M 703.5 55.1 C 703.46 55.15 703.5 56.1 703.5 56.1 C 703.5 56.1 693.5 56.11 693.5 56.1 C 693.5 59.3 695 61.2 697.9 61.2 C 699.6 61.2 700.6 60.7 701.7 59.5 C 701.7 59.5 703.2 60.8 703.2 60.8 C 701.7 62.3 700.3 63.1 697.8 63.1 C 693.9 63.1 691.3 60.8 691.3 55.5 C 691.3 50.7 693.7 48 697.4 48 C 701.2 48 703.5 50.7 703.5 55.1 Z M 694 52 C 693.6 52.8 693.6 53.3 693.5 54.5 C 693.5 54.5 701.3 54.5 701.3 54.5 C 701.2 53.3 701.2 52.8 700.9 52 C 700.2 50.7 699 49.8 697.4 49.8 C 695.8 49.8 694.6 50.7 694 52 Z M 725 49.7 C 726.5 51.2 726.8 53.3 726.8 55.5 C 726.8 57.8 726.5 59.9 725 61.4 C 724 62.5 722.6 63.1 720.8 63.1 C 719 63.1 717.6 62.5 716.5 61.4 C 715 59.9 714.7 57.8 714.7 55.5 C 714.7 53.3 715 51.2 716.5 49.7 C 717.6 48.6 719 48 720.8 48 C 722.6 48 724 48.6 725 49.7 Z M 718.1 51 C 717 52.1 716.9 53.9 716.9 55.5 C 716.9 57.2 717 59 718.1 60.1 C 718.8 60.8 719.7 61.2 720.8 61.2 C 721.8 61.2 722.8 60.8 723.5 60.1 C 724.6 59 724.6 57.2 724.6 55.5 C 724.6 53.9 724.6 52.1 723.5 51 C 722.8 50.3 721.8 49.9 720.8 49.9 C 719.7 49.9 718.8 50.3 718.1 51 Z M 741.5 49.4 C 742.6 50.4 743.1 51.8 743.1 53.5 C 743.06 53.5 743.1 62.9 743.1 62.9 L 740.9 62.9 C 740.9 62.9 740.9 53.83 740.9 53.8 C 740.9 51.2 739.5 49.9 737.3 49.9 C 735.1 49.9 733.6 51.2 733.6 53.8 C 733.58 53.83 733.6 62.9 733.6 62.9 L 731.4 62.9 L 731.4 48.2 L 733.6 48.2 C 733.6 48.2 733.55 49.81 733.6 49.8 C 734.6 48.6 736.1 48 737.7 48 C 739.3 48 740.6 48.5 741.5 49.4 Z M 758.3 48.2 L 761.4 48.2 L 761.4 49.8 L 758.3 49.8 C 758.3 49.8 758.3 58.9 758.3 58.9 C 758.3 60.3 758.9 61.1 760.3 61.1 C 760.31 61.06 761.4 61.1 761.4 61.1 L 761.4 62.9 C 761.4 62.9 759.92 62.92 759.9 62.9 C 757.4 62.9 756.1 61.1 756.1 59 C 756.14 58.96 756.1 49.8 756.1 49.8 L 754.3 49.8 L 754.3 48.2 L 756.1 48.2 L 756.1 43.6 L 758.3 43.6 L 758.3 48.2 Z M 767.9 49.8 C 769 48.6 770.3 48 772 48 C 773.6 48 774.9 48.5 775.8 49.4 C 776.9 50.4 777.3 51.8 777.3 53.5 C 777.35 53.5 777.3 62.9 777.3 62.9 L 775.2 62.9 C 775.2 62.9 775.19 53.83 775.2 53.8 C 775.2 51.2 773.8 49.9 771.6 49.9 C 769.4 49.9 767.9 51.2 767.9 53.8 C 767.9 53.83 767.9 62.9 767.9 62.9 L 765.7 62.9 L 765.7 41.6 L 767.9 41.6 C 767.9 41.6 767.9 49.81 767.9 49.8 Z M 793.9 55.1 C 793.91 55.15 793.9 56.1 793.9 56.1 C 793.9 56.1 783.95 56.11 783.9 56.1 C 783.9 59.3 785.4 61.2 788.3 61.2 C 790 61.2 791 60.7 792.2 59.5 C 792.2 59.5 793.6 60.8 793.6 60.8 C 792.1 62.3 790.7 63.1 788.2 63.1 C 784.3 63.1 781.8 60.8 781.8 55.5 C 781.8 50.7 784.1 48 787.8 48 C 791.7 48 793.9 50.7 793.9 55.1 Z M 784.4 52 C 784 52.8 784 53.3 783.9 54.5 C 783.9 54.5 791.8 54.5 791.8 54.5 C 791.7 53.3 791.7 52.8 791.3 52 C 790.7 50.7 789.4 49.8 787.8 49.8 C 786.3 49.8 785 50.7 784.4 52 Z M 808.1 62.9 L 806 62.9 L 806 48.2 L 808.1 48.2 L 808.1 62.9 Z M 808.3 44 L 805.8 44 L 805.8 41.5 L 808.3 41.5 L 808.3 44 Z M 823.7 49.4 C 824.7 50.4 825.2 51.8 825.2 53.5 C 825.2 53.5 825.2 62.9 825.2 62.9 L 823 62.9 C 823 62.9 823.04 53.83 823 53.8 C 823 51.2 821.6 49.9 819.4 49.9 C 817.2 49.9 815.7 51.2 815.7 53.8 C 815.72 53.83 815.7 62.9 815.7 62.9 L 813.6 62.9 L 813.6 48.2 L 815.7 48.2 C 815.7 48.2 815.69 49.81 815.7 49.8 C 816.7 48.6 818.2 48 819.9 48 C 821.4 48 822.8 48.5 823.7 49.4 Z M 836.2 43.4 C 836.2 43.4 835.07 43.39 835.1 43.4 C 833.7 43.4 833.1 44.2 833.1 45.5 C 833.09 45.55 833.1 48.2 833.1 48.2 L 836.2 48.2 L 836.2 49.8 L 833.1 49.8 L 833.1 62.9 L 830.9 62.9 L 830.9 49.8 L 829 49.8 L 829 48.2 L 830.9 48.2 C 830.9 48.2 830.93 45.49 830.9 45.5 C 830.9 43.3 832.2 41.5 834.7 41.5 C 834.68 41.53 836.2 41.5 836.2 41.5 L 836.2 43.4 Z M 848.9 49.7 C 850.4 51.2 850.7 53.3 850.7 55.5 C 850.7 57.8 850.4 59.9 848.9 61.4 C 847.9 62.5 846.5 63.1 844.7 63.1 C 842.9 63.1 841.5 62.5 840.4 61.4 C 838.9 59.9 838.6 57.8 838.6 55.5 C 838.6 53.3 838.9 51.2 840.4 49.7 C 841.5 48.6 842.9 48 844.7 48 C 846.5 48 847.9 48.6 848.9 49.7 Z M 842 51 C 840.9 52.1 840.8 53.9 840.8 55.5 C 840.8 57.2 840.9 59 842 60.1 C 842.7 60.8 843.6 61.2 844.7 61.2 C 845.7 61.2 846.6 60.8 847.4 60.1 C 848.4 59 848.5 57.2 848.5 55.5 C 848.5 53.9 848.4 52.1 847.4 51 C 846.6 50.3 845.7 49.9 844.7 49.9 C 843.6 49.9 842.7 50.3 842 51 Z M 865.2 49.4 C 865.2 49.4 863.6 51 863.6 51 C 862.8 50.2 862.2 49.9 861 49.9 C 858.9 49.9 857.5 51.6 857.5 53.9 C 857.48 53.86 857.5 62.9 857.5 62.9 L 855.3 62.9 L 855.3 48.2 L 857.5 48.2 C 857.5 48.2 857.48 49.96 857.5 50 C 858.3 48.7 859.9 48 861.6 48 C 863 48 864.1 48.3 865.2 49.4 Z M 887.5 49.4 C 888.5 50.4 889.1 51.8 889.1 53.5 C 889.07 53.47 889.1 62.9 889.1 62.9 L 886.9 62.9 C 886.9 62.9 886.91 53.83 886.9 53.8 C 886.9 51.2 885.5 49.9 883.3 49.9 C 881.1 49.9 879.6 51.2 879.6 53.6 C 879.59 53.59 879.6 62.9 879.6 62.9 L 877.4 62.9 C 877.4 62.9 877.43 53.83 877.4 53.8 C 877.4 51.2 876 49.9 873.8 49.9 C 871.6 49.9 870.1 51.2 870.1 53.8 C 870.11 53.83 870.1 62.9 870.1 62.9 L 867.9 62.9 L 867.9 48.2 L 870.1 48.2 C 870.1 48.2 870.11 49.78 870.1 49.8 C 871.2 48.6 872.6 48 874.3 48 C 876.3 48 877.9 48.8 878.8 50.4 C 879.9 48.8 881.6 48 883.7 48 C 885.3 48 886.6 48.5 887.5 49.4 Z M 904.8 52.9 C 904.85 52.9 904.8 62.9 904.8 62.9 L 902.7 62.9 C 902.7 62.9 902.69 61.51 902.7 61.5 C 901.5 62.7 900.4 63.1 898.4 63.1 C 896.4 63.1 895.3 62.7 894.3 61.7 C 893.5 61 893.1 59.9 893.1 58.7 C 893.1 56.1 895 54.5 898.3 54.5 C 898.28 54.49 902.7 54.5 902.7 54.5 C 902.7 54.5 902.69 53.08 902.7 53.1 C 902.7 50.9 901.6 49.8 898.9 49.8 C 897 49.8 896.1 50.3 895.2 51.5 C 895.2 51.5 893.7 50.2 893.7 50.2 C 895 48.5 896.5 48 898.9 48 C 902.9 48 904.8 49.7 904.8 52.9 Z M 898.6 56.1 C 896.4 56.1 895.2 57 895.2 58.7 C 895.2 60.4 896.3 61.2 898.7 61.2 C 899.9 61.2 901 61.1 901.9 60.2 C 902.4 59.8 902.7 58.9 902.7 57.7 C 902.69 57.7 902.7 56.1 902.7 56.1 C 902.7 56.1 898.58 56.11 898.6 56.1 Z M 912.6 48.2 L 915.8 48.2 L 915.8 49.8 L 912.6 49.8 C 912.6 49.8 912.62 58.9 912.6 58.9 C 912.6 60.3 913.2 61.1 914.6 61.1 C 914.63 61.06 915.8 61.1 915.8 61.1 L 915.8 62.9 C 915.8 62.9 914.24 62.92 914.2 62.9 C 911.7 62.9 910.5 61.1 910.5 59 C 910.46 58.96 910.5 49.8 910.5 49.8 L 908.6 49.8 L 908.6 48.2 L 910.5 48.2 L 910.5 43.6 L 912.6 43.6 L 912.6 48.2 Z M 922.2 62.9 L 920.1 62.9 L 920.1 48.2 L 922.2 48.2 L 922.2 62.9 Z M 922.4 44 L 919.9 44 L 919.9 41.5 L 922.4 41.5 L 922.4 44 Z M 937.1 49.7 C 938.6 51.2 938.9 53.3 938.9 55.5 C 938.9 57.8 938.6 59.9 937.1 61.4 C 936.1 62.5 934.7 63.1 932.9 63.1 C 931.1 63.1 929.7 62.5 928.7 61.4 C 927.2 59.9 926.9 57.8 926.9 55.5 C 926.9 53.3 927.2 51.2 928.7 49.7 C 929.7 48.6 931.1 48 932.9 48 C 934.7 48 936.1 48.6 937.1 49.7 Z M 930.2 51 C 929.1 52.1 929 53.9 929 55.5 C 929 57.2 929.1 59 930.2 60.1 C 930.9 60.8 931.8 61.2 932.9 61.2 C 933.9 61.2 934.9 60.8 935.6 60.1 C 936.7 59 936.8 57.2 936.8 55.5 C 936.8 53.9 936.7 52.1 935.6 51 C 934.9 50.3 933.9 49.9 932.9 49.9 C 931.8 49.9 930.9 50.3 930.2 51 Z M 953.7 49.4 C 954.7 50.4 955.2 51.8 955.2 53.5 C 955.19 53.5 955.2 62.9 955.2 62.9 L 953 62.9 C 953 62.9 953.03 53.83 953 53.8 C 953 51.2 951.6 49.9 949.4 49.9 C 947.2 49.9 945.7 51.2 945.7 53.8 C 945.71 53.83 945.7 62.9 945.7 62.9 L 943.5 62.9 L 943.5 48.2 L 945.7 48.2 C 945.7 48.2 945.68 49.81 945.7 49.8 C 946.7 48.6 948.2 48 949.8 48 C 951.4 48 952.8 48.5 953.7 49.4 Z M 977.9 49.6 C 977.9 49.6 976.5 51 976.5 51 C 975.4 50.2 974.1 49.8 972.6 49.8 C 970.4 49.8 969.3 50.7 969.3 52.2 C 969.3 53.6 970.1 54.2 971.9 54.4 C 971.9 54.4 974.2 54.6 974.2 54.6 C 976.8 54.8 978.6 55.8 978.6 58.6 C 978.6 61.4 976.2 63.1 972.6 63.1 C 970 63.1 968.1 62.5 966.5 61 C 966.5 61 967.9 59.5 967.9 59.5 C 969.1 60.7 970.7 61.2 972.5 61.2 C 975 61.2 976.5 60.4 976.5 58.6 C 976.5 57.3 975.7 56.6 974 56.5 C 974 56.5 971.6 56.3 971.6 56.3 C 968.7 56 967.2 54.8 967.2 52.3 C 967.2 49.6 969.4 48 972.6 48 C 974.7 48 976.5 48.5 977.9 49.6 Z M 994.3 62.9 L 992.1 62.9 C 992.1 62.9 992.15 61.27 992.1 61.3 C 991.1 62.5 989.6 63.1 988 63.1 C 986.4 63.1 985.1 62.6 984.2 61.7 C 983.1 60.7 982.6 59.3 982.6 57.6 C 982.64 57.58 982.6 48.2 982.6 48.2 L 984.8 48.2 C 984.8 48.2 984.8 57.25 984.8 57.2 C 984.8 59.9 986.2 61.2 988.4 61.2 C 990.6 61.2 992.1 59.8 992.1 57.2 C 992.12 57.25 992.1 48.2 992.1 48.2 L 994.3 48.2 L 994.3 62.9 Z M 1001.8 49.9 C 1003.1 48.3 1004.4 48 1006 48 C 1007.5 48 1008.8 48.5 1009.6 49.3 C 1011.1 50.7 1011.4 53.2 1011.4 55.5 C 1011.4 57.9 1011.1 60.3 1009.6 61.8 C 1008.8 62.6 1007.5 63.1 1006 63.1 C 1004.4 63.1 1003.1 62.7 1001.8 61.1 C 1001.84 61.15 1001.8 62.9 1001.8 62.9 L 999.7 62.9 L 999.7 41.6 L 1001.8 41.6 C 1001.8 41.6 1001.84 49.87 1001.8 49.9 Z M 1001.8 55.5 C 1001.8 58.4 1002.3 61.2 1005.6 61.2 C 1008.8 61.2 1009.2 58.4 1009.2 55.5 C 1009.2 52.7 1008.8 49.9 1005.6 49.9 C 1002.3 49.9 1001.8 52.7 1001.8 55.5 Z M 1035.6 49.4 C 1036.6 50.4 1037.1 51.8 1037.1 53.5 C 1037.15 53.47 1037.1 62.9 1037.1 62.9 L 1035 62.9 C 1035 62.9 1034.99 53.83 1035 53.8 C 1035 51.2 1033.6 49.9 1031.4 49.9 C 1029.2 49.9 1027.7 51.2 1027.7 53.6 C 1027.67 53.59 1027.7 62.9 1027.7 62.9 L 1025.5 62.9 C 1025.5 62.9 1025.51 53.83 1025.5 53.8 C 1025.5 51.2 1024.1 49.9 1021.9 49.9 C 1019.7 49.9 1018.2 51.2 1018.2 53.8 C 1018.19 53.83 1018.2 62.9 1018.2 62.9 L 1016 62.9 L 1016 48.2 L 1018.2 48.2 C 1018.2 48.2 1018.19 49.78 1018.2 49.8 C 1019.2 48.6 1020.7 48 1022.4 48 C 1024.4 48 1026 48.8 1026.9 50.4 C 1028 48.8 1029.7 48 1031.7 48 C 1033.3 48 1034.7 48.5 1035.6 49.4 Z M 1044.6 62.9 L 1042.4 62.9 L 1042.4 48.2 L 1044.6 48.2 L 1044.6 62.9 Z M 1044.7 44 L 1042.3 44 L 1042.3 41.5 L 1044.7 41.5 L 1044.7 44 Z M 1052.5 48.2 L 1055.7 48.2 L 1055.7 49.8 L 1052.5 49.8 C 1052.5 49.8 1052.5 58.9 1052.5 58.9 C 1052.5 60.3 1053.1 61.1 1054.5 61.1 C 1054.51 61.06 1055.7 61.1 1055.7 61.1 L 1055.7 62.9 C 1055.7 62.9 1054.12 62.92 1054.1 62.9 C 1051.6 62.9 1050.3 61.1 1050.3 59 C 1050.34 58.96 1050.3 49.8 1050.3 49.8 L 1048.5 49.8 L 1048.5 48.2 L 1050.3 48.2 L 1050.3 43.6 L 1052.5 43.6 L 1052.5 48.2 Z M 1062.2 48.2 L 1065.4 48.2 L 1065.4 49.8 L 1062.2 49.8 C 1062.2 49.8 1062.22 58.9 1062.2 58.9 C 1062.2 60.3 1062.9 61.1 1064.2 61.1 C 1064.23 61.06 1065.4 61.1 1065.4 61.1 L 1065.4 62.9 C 1065.4 62.9 1063.84 62.92 1063.8 62.9 C 1061.3 62.9 1060.1 61.1 1060.1 59 C 1060.06 58.96 1060.1 49.8 1060.1 49.8 L 1058.2 49.8 L 1058.2 48.2 L 1060.1 48.2 L 1060.1 43.6 L 1062.2 43.6 L 1062.2 48.2 Z M 1080.8 55.1 C 1080.82 55.15 1080.8 56.1 1080.8 56.1 C 1080.8 56.1 1070.86 56.11 1070.9 56.1 C 1070.9 59.3 1072.4 61.2 1075.2 61.2 C 1076.9 61.2 1077.9 60.7 1079.1 59.5 C 1079.1 59.5 1080.6 60.8 1080.6 60.8 C 1079.1 62.3 1077.6 63.1 1075.2 63.1 C 1071.2 63.1 1068.7 60.8 1068.7 55.5 C 1068.7 50.7 1071 48 1074.8 48 C 1078.6 48 1080.8 50.7 1080.8 55.1 Z M 1071.3 52 C 1071 52.8 1070.9 53.3 1070.9 54.5 C 1070.9 54.5 1078.7 54.5 1078.7 54.5 C 1078.6 53.3 1078.6 52.8 1078.2 52 C 1077.6 50.7 1076.4 49.8 1074.8 49.8 C 1073.2 49.8 1071.9 50.7 1071.3 52 Z M 1096.4 62.9 L 1094.2 62.9 C 1094.2 62.9 1094.2 61.18 1094.2 61.2 C 1093 62.7 1091.7 63.1 1090 63.1 C 1088.5 63.1 1087.2 62.6 1086.4 61.8 C 1085 60.3 1084.6 57.9 1084.6 55.5 C 1084.6 53.2 1085 50.8 1086.4 49.3 C 1087.2 48.5 1088.5 48 1090 48 C 1091.7 48 1093 48.4 1094.2 49.9 C 1094.2 49.9 1094.2 41.6 1094.2 41.6 L 1096.4 41.6 L 1096.4 62.9 Z M 1086.8 55.5 C 1086.8 58.4 1087.3 61.2 1090.5 61.2 C 1093.7 61.2 1094.2 58.4 1094.2 55.5 C 1094.2 52.7 1093.7 49.9 1090.5 49.9 C 1087.3 49.9 1086.8 52.7 1086.8 55.5 Z " stroke="none" fill="#000"/>  </g>  <g id="Polygon25840">    <path d="M 39.5 3.6 L 33.4 3.6 L 33.4 22.9 L 31.1 22.9 L 31.1 3.6 L 24.9 3.6 L 24.9 1.6 L 39.5 1.6 L 39.5 3.6 Z M 45.3 9.8 C 46.4 8.6 47.7 8 49.4 8 C 51 8 52.3 8.5 53.2 9.4 C 54.3 10.4 54.7 11.8 54.7 13.5 C 54.75 13.5 54.7 22.9 54.7 22.9 L 52.6 22.9 C 52.6 22.9 52.59 13.83 52.6 13.8 C 52.6 11.2 51.2 9.9 49 9.9 C 46.8 9.9 45.3 11.2 45.3 13.8 C 45.3 13.83 45.3 22.9 45.3 22.9 L 43.1 22.9 L 43.1 1.6 L 45.3 1.6 C 45.3 1.6 45.3 9.81 45.3 9.8 Z M 62.2 22.9 L 60 22.9 L 60 8.2 L 62.2 8.2 L 62.2 22.9 Z M 62.3 4 L 59.9 4 L 59.9 1.5 L 62.3 1.5 L 62.3 4 Z M 77.6 9.6 C 77.6 9.6 76.2 11 76.2 11 C 75.1 10.2 73.8 9.8 72.2 9.8 C 70.1 9.8 68.9 10.7 68.9 12.2 C 68.9 13.6 69.7 14.2 71.6 14.4 C 71.6 14.4 73.9 14.6 73.9 14.6 C 76.5 14.8 78.2 15.8 78.2 18.6 C 78.2 21.4 75.8 23.1 72.2 23.1 C 69.7 23.1 67.8 22.5 66.2 21 C 66.2 21 67.6 19.5 67.6 19.5 C 68.8 20.7 70.4 21.2 72.2 21.2 C 74.7 21.2 76.1 20.4 76.1 18.6 C 76.1 17.3 75.4 16.6 73.7 16.5 C 73.7 16.5 71.2 16.3 71.2 16.3 C 68.4 16 66.8 14.8 66.8 12.3 C 66.8 9.6 69.1 8 72.3 8 C 74.4 8 76.2 8.5 77.6 9.6 Z M 101.4 22.9 L 99.3 22.9 C 99.3 22.9 99.3 21.27 99.3 21.3 C 98.2 22.5 96.8 23.1 95.1 23.1 C 93.5 23.1 92.2 22.6 91.3 21.7 C 90.3 20.7 89.8 19.3 89.8 17.6 C 89.79 17.58 89.8 8.2 89.8 8.2 L 91.9 8.2 C 91.9 8.2 91.95 17.25 91.9 17.2 C 91.9 19.9 93.4 21.2 95.6 21.2 C 97.8 21.2 99.3 19.8 99.3 17.2 C 99.27 17.25 99.3 8.2 99.3 8.2 L 101.4 8.2 L 101.4 22.9 Z M 116.8 9.6 C 116.8 9.6 115.4 11 115.4 11 C 114.4 10.2 113 9.8 111.5 9.8 C 109.3 9.8 108.2 10.7 108.2 12.2 C 108.2 13.6 109 14.2 110.8 14.4 C 110.8 14.4 113.1 14.6 113.1 14.6 C 115.7 14.8 117.5 15.8 117.5 18.6 C 117.5 21.4 115.1 23.1 111.5 23.1 C 109 23.1 107 22.5 105.4 21 C 105.4 21 106.9 19.5 106.9 19.5 C 108 20.7 109.6 21.2 111.4 21.2 C 113.9 21.2 115.4 20.4 115.4 18.6 C 115.4 17.3 114.7 16.6 112.9 16.5 C 112.9 16.5 110.5 16.3 110.5 16.3 C 107.6 16 106.1 14.8 106.1 12.3 C 106.1 9.6 108.3 8 111.5 8 C 113.6 8 115.5 8.5 116.8 9.6 Z M 133.2 22.9 L 131.1 22.9 C 131.1 22.9 131.07 21.27 131.1 21.3 C 130 22.5 128.5 23.1 126.9 23.1 C 125.3 23.1 124 22.6 123.1 21.7 C 122 20.7 121.6 19.3 121.6 17.6 C 121.56 17.58 121.6 8.2 121.6 8.2 L 123.7 8.2 C 123.7 8.2 123.72 17.25 123.7 17.2 C 123.7 19.9 125.1 21.2 127.3 21.2 C 129.6 21.2 131 19.8 131 17.2 C 131.04 17.25 131 8.2 131 8.2 L 133.2 8.2 L 133.2 22.9 Z M 149.1 12.9 C 149.13 12.9 149.1 22.9 149.1 22.9 L 147 22.9 C 147 22.9 146.97 21.51 147 21.5 C 145.8 22.7 144.7 23.1 142.7 23.1 C 140.7 23.1 139.6 22.7 138.5 21.7 C 137.8 21 137.4 19.9 137.4 18.7 C 137.4 16.1 139.3 14.5 142.6 14.5 C 142.56 14.49 147 14.5 147 14.5 C 147 14.5 146.97 13.08 147 13.1 C 147 10.9 145.9 9.8 143.2 9.8 C 141.3 9.8 140.4 10.3 139.5 11.5 C 139.5 11.5 138 10.2 138 10.2 C 139.3 8.5 140.8 8 143.2 8 C 147.2 8 149.1 9.7 149.1 12.9 Z M 142.9 16.1 C 140.6 16.1 139.5 17 139.5 18.7 C 139.5 20.4 140.6 21.2 142.9 21.2 C 144.2 21.2 145.3 21.1 146.2 20.2 C 146.7 19.8 147 18.9 147 17.7 C 146.97 17.7 147 16.1 147 16.1 C 147 16.1 142.86 16.11 142.9 16.1 Z M 156.5 18.9 C 156.5 20.3 157 21.1 158.5 21.1 C 158.46 21.06 159.6 21.1 159.6 21.1 L 159.6 22.9 C 159.6 22.9 158.07 22.92 158.1 22.9 C 155.5 22.9 154.3 21.2 154.3 19 C 154.32 18.99 154.3 1.6 154.3 1.6 L 156.5 1.6 C 156.5 1.6 156.48 18.9 156.5 18.9 Z M 165.4 18.9 C 165.4 20.3 165.9 21.1 167.4 21.1 C 167.37 21.06 168.5 21.1 168.5 21.1 L 168.5 22.9 C 168.5 22.9 166.98 22.92 167 22.9 C 164.4 22.9 163.2 21.2 163.2 19 C 163.23 18.99 163.2 1.6 163.2 1.6 L 165.4 1.6 C 165.4 1.6 165.39 18.9 165.4 18.9 Z M 174.9 26.8 C 174.6 27.6 174.2 28.1 173.8 28.5 C 173 29.2 172 29.5 170.9 29.5 C 170.94 29.52 170 29.5 170 29.5 L 170 27.6 C 170 27.6 170.67 27.6 170.7 27.6 C 172.2 27.6 172.6 27.1 173.1 25.8 C 173.1 25.77 174.2 22.6 174.2 22.6 L 168.9 8.2 L 171.3 8.2 L 175.3 20 L 179.3 8.2 L 181.7 8.2 C 181.7 8.2 174.87 26.76 174.9 26.8 Z M 194.7 8.2 L 197.8 8.2 L 197.8 9.8 L 194.7 9.8 C 194.7 9.8 194.7 18.9 194.7 18.9 C 194.7 20.3 195.3 21.1 196.7 21.1 C 196.71 21.06 197.8 21.1 197.8 21.1 L 197.8 22.9 C 197.8 22.9 196.32 22.92 196.3 22.9 C 193.8 22.9 192.5 21.1 192.5 19 C 192.54 18.96 192.5 9.8 192.5 9.8 L 190.7 9.8 L 190.7 8.2 L 192.5 8.2 L 192.5 3.6 L 194.7 3.6 L 194.7 8.2 Z M 212.5 12.9 C 212.52 12.9 212.5 22.9 212.5 22.9 L 210.4 22.9 C 210.4 22.9 210.36 21.51 210.4 21.5 C 209.2 22.7 208.1 23.1 206.1 23.1 C 204.1 23.1 202.9 22.7 201.9 21.7 C 201.2 21 200.8 19.9 200.8 18.7 C 200.8 16.1 202.6 14.5 205.9 14.5 C 205.95 14.49 210.4 14.5 210.4 14.5 C 210.4 14.5 210.36 13.08 210.4 13.1 C 210.4 10.9 209.3 9.8 206.6 9.8 C 204.7 9.8 203.8 10.3 202.9 11.5 C 202.9 11.5 201.4 10.2 201.4 10.2 C 202.7 8.5 204.2 8 206.6 8 C 210.6 8 212.5 9.7 212.5 12.9 Z M 206.2 16.1 C 204 16.1 202.9 17 202.9 18.7 C 202.9 20.4 204 21.2 206.3 21.2 C 207.6 21.2 208.6 21.1 209.6 20.2 C 210.1 19.8 210.4 18.9 210.4 17.7 C 210.36 17.7 210.4 16.1 210.4 16.1 C 210.4 16.1 206.25 16.11 206.2 16.1 Z M 219.9 15.8 L 226.6 8.2 L 229.3 8.2 L 224.3 13.8 L 230.2 22.9 L 227.5 22.9 L 222.8 15.4 L 219.9 18.7 L 219.9 22.9 L 217.8 22.9 L 217.8 1.6 L 219.9 1.6 L 219.9 15.8 Z M 244 15.1 C 243.96 15.15 244 16.1 244 16.1 C 244 16.1 234 16.11 234 16.1 C 234 19.3 235.5 21.2 238.3 21.2 C 240.1 21.2 241 20.7 242.2 19.5 C 242.2 19.5 243.7 20.8 243.7 20.8 C 242.2 22.3 240.8 23.1 238.3 23.1 C 234.4 23.1 231.8 20.8 231.8 15.5 C 231.8 10.7 234.1 8 237.9 8 C 241.7 8 244 10.7 244 15.1 Z M 234.4 12 C 234.1 12.8 234.1 13.3 234 14.5 C 234 14.5 241.8 14.5 241.8 14.5 C 241.7 13.3 241.7 12.8 241.3 12 C 240.7 10.7 239.5 9.8 237.9 9.8 C 236.3 9.8 235.1 10.7 234.4 12 Z M 258.5 9.6 C 258.5 9.6 257.1 11 257.1 11 C 256.1 10.2 254.7 9.8 253.2 9.8 C 251 9.8 249.9 10.7 249.9 12.2 C 249.9 13.6 250.7 14.2 252.5 14.4 C 252.5 14.4 254.8 14.6 254.8 14.6 C 257.4 14.8 259.2 15.8 259.2 18.6 C 259.2 21.4 256.8 23.1 253.2 23.1 C 250.7 23.1 248.7 22.5 247.1 21 C 247.1 21 248.6 19.5 248.6 19.5 C 249.7 20.7 251.3 21.2 253.2 21.2 C 255.6 21.2 257.1 20.4 257.1 18.6 C 257.1 17.3 256.4 16.6 254.6 16.5 C 254.6 16.5 252.2 16.3 252.2 16.3 C 249.3 16 247.8 14.8 247.8 12.3 C 247.8 9.6 250 8 253.2 8 C 255.4 8 257.2 8.5 258.5 9.6 Z M 275.9 4 L 271.9 7.5 L 271.9 5 L 275.9 1.6 L 278.1 1.6 L 278.1 22.9 L 275.9 22.9 L 275.9 4 Z M 287.5 21.6 C 286.5 20.6 286.1 19.4 286 17.8 C 286 17.8 288.1 17.8 288.1 17.8 C 288.4 20 289.5 21.2 291.7 21.2 C 292.8 21.2 293.8 20.8 294.4 20.2 C 295.5 19.1 295.6 17.4 295.6 15.8 C 295.6 13.2 295 10.7 292 10.7 C 290.1 10.7 288.8 11.5 288.4 12.8 C 288.42 12.78 286.5 12.8 286.5 12.8 L 286.5 1.6 L 297.3 1.6 L 297.3 3.5 L 288.4 3.5 C 288.4 3.5 288.42 10.26 288.4 10.3 C 289.3 9.3 290.6 8.8 292.3 8.8 C 293.8 8.8 295.1 9.3 295.9 10.1 C 297.5 11.7 297.7 13.8 297.7 15.8 C 297.7 18 297.5 20 296 21.5 C 295 22.5 293.6 23.1 291.7 23.1 C 289.9 23.1 288.4 22.5 287.5 21.6 Z M 312.2 8.2 L 315.4 8.2 L 315.4 9.8 L 312.2 9.8 C 312.2 9.8 312.2 18.9 312.2 18.9 C 312.2 20.3 312.8 21.1 314.2 21.1 C 314.21 21.06 315.4 21.1 315.4 21.1 L 315.4 22.9 C 315.4 22.9 313.82 22.92 313.8 22.9 C 311.3 22.9 310 21.1 310 19 C 310.04 18.96 310 9.8 310 9.8 L 308.2 9.8 L 308.2 8.2 L 310 8.2 L 310 3.6 L 312.2 3.6 L 312.2 8.2 Z M 329 9.7 C 330.5 11.2 330.8 13.3 330.8 15.5 C 330.8 17.8 330.5 19.9 329 21.4 C 328 22.5 326.5 23.1 324.7 23.1 C 322.9 23.1 321.5 22.5 320.5 21.4 C 319 19.9 318.7 17.8 318.7 15.5 C 318.7 13.3 319 11.2 320.5 9.7 C 321.5 8.6 322.9 8 324.7 8 C 326.5 8 328 8.6 329 9.7 Z M 322.1 11 C 321 12.1 320.9 13.9 320.9 15.5 C 320.9 17.2 321 19 322.1 20.1 C 322.8 20.8 323.7 21.2 324.7 21.2 C 325.8 21.2 326.7 20.8 327.4 20.1 C 328.5 19 328.6 17.2 328.6 15.5 C 328.6 13.9 328.5 12.1 327.4 11 C 326.7 10.3 325.8 9.9 324.7 9.9 C 323.7 9.9 322.8 10.3 322.1 11 Z M 341.4 17.5 C 341.4 17.5 343.6 17.5 343.6 17.5 C 343.8 20.1 345.7 21.2 347.7 21.2 C 350 21.2 351.8 19.6 351.8 17 C 351.8 14.5 350.5 12.9 347.6 12.9 C 347.6 12.93 347.2 12.9 347.2 12.9 L 347.2 11 C 347.2 11 347.6 11.04 347.6 11 C 350.2 11 351.4 9.6 351.4 7.2 C 351.4 4.6 349.8 3.3 347.7 3.3 C 345.4 3.3 344.1 4.7 343.9 6.9 C 343.9 6.9 341.7 6.9 341.7 6.9 C 341.9 3.4 344.5 1.4 347.7 1.4 C 351.2 1.4 353.6 3.7 353.6 7.2 C 353.6 9.4 352.6 11 350.7 11.9 C 352.9 12.7 354 14.4 354 17.1 C 354 21 351.2 23.1 347.7 23.1 C 344.3 23.1 341.6 21.3 341.4 17.5 Z M 357.8 17.2 C 357.8 17.2 357.8 7.3 357.8 7.3 C 357.8 3.7 360.3 1.4 363.7 1.4 C 367 1.4 369.5 3.7 369.5 7.3 C 369.5 7.3 369.5 17.2 369.5 17.2 C 369.5 20.8 367 23.1 363.7 23.1 C 360.3 23.1 357.8 20.8 357.8 17.2 Z M 367.3 17.1 C 367.3 17.1 367.3 7.4 367.3 7.4 C 367.3 5 366 3.3 363.7 3.3 C 361.3 3.3 360 5 360 7.4 C 360 7.4 360 17.1 360 17.1 C 360 19.4 361.3 21.2 363.7 21.2 C 366 21.2 367.3 19.4 367.3 17.1 Z M 401.2 9.4 C 402.2 10.4 402.8 11.8 402.8 13.5 C 402.77 13.47 402.8 22.9 402.8 22.9 L 400.6 22.9 C 400.6 22.9 400.61 13.83 400.6 13.8 C 400.6 11.2 399.2 9.9 397 9.9 C 394.8 9.9 393.3 11.2 393.3 13.6 C 393.29 13.59 393.3 22.9 393.3 22.9 L 391.1 22.9 C 391.1 22.9 391.13 13.83 391.1 13.8 C 391.1 11.2 389.7 9.9 387.5 9.9 C 385.3 9.9 383.8 11.2 383.8 13.8 C 383.81 13.83 383.8 22.9 383.8 22.9 L 381.7 22.9 L 381.7 8.2 L 383.8 8.2 C 383.8 8.2 383.81 9.78 383.8 9.8 C 384.9 8.6 386.3 8 388 8 C 390 8 391.6 8.8 392.5 10.4 C 393.7 8.8 395.3 8 397.4 8 C 399 8 400.3 8.5 401.2 9.4 Z M 410.2 22.9 L 408 22.9 L 408 8.2 L 410.2 8.2 L 410.2 22.9 Z M 410.3 4 L 407.9 4 L 407.9 1.5 L 410.3 1.5 L 410.3 4 Z M 425.7 9.4 C 426.8 10.4 427.3 11.8 427.3 13.5 C 427.25 13.5 427.3 22.9 427.3 22.9 L 425.1 22.9 C 425.1 22.9 425.09 13.83 425.1 13.8 C 425.1 11.2 423.7 9.9 421.5 9.9 C 419.2 9.9 417.8 11.2 417.8 13.8 C 417.77 13.83 417.8 22.9 417.8 22.9 L 415.6 22.9 L 415.6 8.2 L 417.7 8.2 C 417.7 8.2 417.74 9.81 417.7 9.8 C 418.8 8.6 420.3 8 421.9 8 C 423.5 8 424.8 8.5 425.7 9.4 Z M 444 22.9 L 441.9 22.9 C 441.9 22.9 441.86 21.27 441.9 21.3 C 440.8 22.5 439.3 23.1 437.7 23.1 C 436.1 23.1 434.8 22.6 433.9 21.7 C 432.8 20.7 432.4 19.3 432.4 17.6 C 432.35 17.58 432.4 8.2 432.4 8.2 L 434.5 8.2 C 434.5 8.2 434.51 17.25 434.5 17.2 C 434.5 19.9 435.9 21.2 438.1 21.2 C 440.4 21.2 441.8 19.8 441.8 17.2 C 441.83 17.25 441.8 8.2 441.8 8.2 L 444 8.2 L 444 22.9 Z M 451.9 8.2 L 455.1 8.2 L 455.1 9.8 L 451.9 9.8 C 451.9 9.8 451.91 18.9 451.9 18.9 C 451.9 20.3 452.5 21.1 453.9 21.1 C 453.92 21.06 455.1 21.1 455.1 21.1 L 455.1 22.9 C 455.1 22.9 453.53 22.92 453.5 22.9 C 451 22.9 449.8 21.1 449.8 19 C 449.75 18.96 449.8 9.8 449.8 9.8 L 447.9 9.8 L 447.9 8.2 L 449.8 8.2 L 449.8 3.6 L 451.9 3.6 L 451.9 8.2 Z M 470.5 15.1 C 470.51 15.15 470.5 16.1 470.5 16.1 C 470.5 16.1 460.55 16.11 460.6 16.1 C 460.6 19.3 462.1 21.2 464.9 21.2 C 466.6 21.2 467.6 20.7 468.8 19.5 C 468.8 19.5 470.2 20.8 470.2 20.8 C 468.7 22.3 467.3 23.1 464.8 23.1 C 460.9 23.1 458.4 20.8 458.4 15.5 C 458.4 10.7 460.7 8 464.5 8 C 468.3 8 470.5 10.7 470.5 15.1 Z M 461 12 C 460.6 12.8 460.6 13.3 460.6 14.5 C 460.6 14.5 468.4 14.5 468.4 14.5 C 468.3 13.3 468.3 12.8 467.9 12 C 467.3 10.7 466 9.8 464.5 9.8 C 462.9 9.8 461.6 10.7 461 12 Z M 485.1 9.6 C 485.1 9.6 483.7 11 483.7 11 C 482.6 10.2 481.3 9.8 479.8 9.8 C 477.6 9.8 476.5 10.7 476.5 12.2 C 476.5 13.6 477.3 14.2 479.1 14.4 C 479.1 14.4 481.4 14.6 481.4 14.6 C 484 14.8 485.8 15.8 485.8 18.6 C 485.8 21.4 483.4 23.1 479.8 23.1 C 477.2 23.1 475.3 22.5 473.7 21 C 473.7 21 475.1 19.5 475.1 19.5 C 476.3 20.7 477.9 21.2 479.7 21.2 C 482.2 21.2 483.7 20.4 483.7 18.6 C 483.7 17.3 482.9 16.6 481.2 16.5 C 481.2 16.5 478.8 16.3 478.8 16.3 C 475.9 16 474.4 14.8 474.4 12.3 C 474.4 9.6 476.6 8 479.8 8 C 481.9 8 483.7 8.5 485.1 9.6 Z M 508 12.9 C 507.98 12.9 508 22.9 508 22.9 L 505.8 22.9 C 505.8 22.9 505.82 21.51 505.8 21.5 C 504.7 22.7 503.5 23.1 501.6 23.1 C 499.5 23.1 498.4 22.7 497.4 21.7 C 496.6 21 496.3 19.9 496.3 18.7 C 496.3 16.1 498.1 14.5 501.4 14.5 C 501.41 14.49 505.8 14.5 505.8 14.5 C 505.8 14.5 505.82 13.08 505.8 13.1 C 505.8 10.9 504.8 9.8 502 9.8 C 500.2 9.8 499.2 10.3 498.3 11.5 C 498.3 11.5 496.9 10.2 496.9 10.2 C 498.1 8.5 499.6 8 502.1 8 C 506.1 8 508 9.7 508 12.9 Z M 501.7 16.1 C 499.5 16.1 498.4 17 498.4 18.7 C 498.4 20.4 499.4 21.2 501.8 21.2 C 503 21.2 504.1 21.1 505.1 20.2 C 505.6 19.8 505.8 18.9 505.8 17.7 C 505.82 17.7 505.8 16.1 505.8 16.1 C 505.8 16.1 501.71 16.11 501.7 16.1 Z M 523.3 9.4 C 524.4 10.4 524.9 11.8 524.9 13.5 C 524.87 13.5 524.9 22.9 524.9 22.9 L 522.7 22.9 C 522.7 22.9 522.71 13.83 522.7 13.8 C 522.7 11.2 521.3 9.9 519.1 9.9 C 516.9 9.9 515.4 11.2 515.4 13.8 C 515.39 13.83 515.4 22.9 515.4 22.9 L 513.2 22.9 L 513.2 8.2 L 515.4 8.2 C 515.4 8.2 515.36 9.81 515.4 9.8 C 516.4 8.6 517.9 8 519.5 8 C 521.1 8 522.4 8.5 523.3 9.4 Z M 541.1 22.9 L 538.9 22.9 C 538.9 22.9 538.91 21.18 538.9 21.2 C 537.7 22.7 536.4 23.1 534.7 23.1 C 533.2 23.1 531.9 22.6 531.1 21.8 C 529.7 20.3 529.3 17.9 529.3 15.5 C 529.3 13.2 529.7 10.8 531.1 9.3 C 531.9 8.5 533.2 8 534.7 8 C 536.4 8 537.7 8.4 538.9 9.9 C 538.91 9.9 538.9 1.6 538.9 1.6 L 541.1 1.6 L 541.1 22.9 Z M 531.5 15.5 C 531.5 18.4 532 21.2 535.2 21.2 C 538.4 21.2 538.9 18.4 538.9 15.5 C 538.9 12.7 538.4 9.9 535.2 9.9 C 532 9.9 531.5 12.7 531.5 15.5 Z M 564.6 10.2 C 564.6 10.2 563.1 11.5 563.1 11.5 C 562 10.3 561.1 9.9 559.7 9.9 C 558.3 9.9 557.1 10.5 556.3 11.6 C 555.6 12.5 555.3 13.7 555.3 15.5 C 555.3 17.4 555.6 18.5 556.3 19.5 C 557.1 20.6 558.3 21.2 559.7 21.2 C 561.1 21.2 562 20.7 563.1 19.5 C 563.1 19.5 564.6 20.9 564.6 20.9 C 563 22.6 561.7 23.1 559.7 23.1 C 556 23.1 553.2 20.6 553.2 15.5 C 553.2 10.5 556 8 559.7 8 C 561.7 8 563 8.5 564.6 10.2 Z M 579.1 12.9 C 579.05 12.9 579.1 22.9 579.1 22.9 L 576.9 22.9 C 576.9 22.9 576.89 21.51 576.9 21.5 C 575.7 22.7 574.6 23.1 572.6 23.1 C 570.6 23.1 569.5 22.7 568.5 21.7 C 567.7 21 567.4 19.9 567.4 18.7 C 567.4 16.1 569.2 14.5 572.5 14.5 C 572.48 14.49 576.9 14.5 576.9 14.5 C 576.9 14.5 576.89 13.08 576.9 13.1 C 576.9 10.9 575.8 9.8 573.1 9.8 C 571.3 9.8 570.3 10.3 569.4 11.5 C 569.4 11.5 567.9 10.2 567.9 10.2 C 569.2 8.5 570.7 8 573.1 8 C 577.1 8 579.1 9.7 579.1 12.9 Z M 572.8 16.1 C 570.6 16.1 569.5 17 569.5 18.7 C 569.5 20.4 570.5 21.2 572.9 21.2 C 574.1 21.2 575.2 21.1 576.1 20.2 C 576.7 19.8 576.9 18.9 576.9 17.7 C 576.89 17.7 576.9 16.1 576.9 16.1 C 576.9 16.1 572.78 16.11 572.8 16.1 Z M 594.4 9.4 C 595.5 10.4 595.9 11.8 595.9 13.5 C 595.94 13.5 595.9 22.9 595.9 22.9 L 593.8 22.9 C 593.8 22.9 593.78 13.83 593.8 13.8 C 593.8 11.2 592.4 9.9 590.2 9.9 C 587.9 9.9 586.5 11.2 586.5 13.8 C 586.46 13.83 586.5 22.9 586.5 22.9 L 584.3 22.9 L 584.3 8.2 L 586.4 8.2 C 586.4 8.2 586.43 9.81 586.4 9.8 C 587.5 8.6 589 8 590.6 8 C 592.2 8 593.5 8.5 594.4 9.4 Z M 618.1 9.7 C 619.6 11.2 619.9 13.3 619.9 15.5 C 619.9 17.8 619.6 19.9 618.1 21.4 C 617.1 22.5 615.7 23.1 613.9 23.1 C 612.1 23.1 610.7 22.5 609.7 21.4 C 608.2 19.9 607.9 17.8 607.9 15.5 C 607.9 13.3 608.2 11.2 609.7 9.7 C 610.7 8.6 612.1 8 613.9 8 C 615.7 8 617.1 8.6 618.1 9.7 Z M 611.2 11 C 610.2 12.1 610 13.9 610 15.5 C 610 17.2 610.1 19 611.2 20.1 C 612 20.8 612.9 21.2 613.9 21.2 C 615 21.2 615.9 20.8 616.6 20.1 C 617.7 19 617.8 17.2 617.8 15.5 C 617.8 13.9 617.7 12.1 616.6 11 C 615.9 10.3 615 9.9 613.9 9.9 C 612.9 9.9 612 10.3 611.2 11 Z M 630.3 3.4 C 630.3 3.4 629.18 3.39 629.2 3.4 C 627.8 3.4 627.2 4.2 627.2 5.5 C 627.2 5.55 627.2 8.2 627.2 8.2 L 630.3 8.2 L 630.3 9.8 L 627.2 9.8 L 627.2 22.9 L 625 22.9 L 625 9.8 L 623.1 9.8 L 623.1 8.2 L 625 8.2 C 625 8.2 625.04 5.49 625 5.5 C 625 3.3 626.3 1.5 628.8 1.5 C 628.79 1.53 630.3 1.5 630.3 1.5 L 630.3 3.4 Z M 636.5 8.2 L 639.6 8.2 L 639.6 9.8 L 636.5 9.8 C 636.5 9.8 636.5 18.9 636.5 18.9 C 636.5 20.3 637.1 21.1 638.5 21.1 C 638.51 21.06 639.6 21.1 639.6 21.1 L 639.6 22.9 C 639.6 22.9 638.12 22.92 638.1 22.9 C 635.6 22.9 634.3 21.1 634.3 19 C 634.34 18.96 634.3 9.8 634.3 9.8 L 632.5 9.8 L 632.5 8.2 L 634.3 8.2 L 634.3 3.6 L 636.5 3.6 L 636.5 8.2 Z M 655.1 15.1 C 655.1 15.15 655.1 16.1 655.1 16.1 C 655.1 16.1 645.14 16.11 645.1 16.1 C 645.1 19.3 646.6 21.2 649.5 21.2 C 651.2 21.2 652.2 20.7 653.4 19.5 C 653.4 19.5 654.8 20.8 654.8 20.8 C 653.3 22.3 651.9 23.1 649.4 23.1 C 645.5 23.1 643 20.8 643 15.5 C 643 10.7 645.3 8 649 8 C 652.9 8 655.1 10.7 655.1 15.1 Z M 645.6 12 C 645.2 12.8 645.2 13.3 645.1 14.5 C 645.1 14.5 653 14.5 653 14.5 C 652.9 13.3 652.8 12.8 652.5 12 C 651.9 10.7 650.6 9.8 649 9.8 C 647.4 9.8 646.2 10.7 645.6 12 Z M 669.8 9.4 C 670.8 10.4 671.3 11.8 671.3 13.5 C 671.33 13.5 671.3 22.9 671.3 22.9 L 669.2 22.9 C 669.2 22.9 669.17 13.83 669.2 13.8 C 669.2 11.2 667.8 9.9 665.5 9.9 C 663.3 9.9 661.8 11.2 661.8 13.8 C 661.85 13.83 661.8 22.9 661.8 22.9 L 659.7 22.9 L 659.7 8.2 L 661.8 8.2 C 661.8 8.2 661.82 9.81 661.8 9.8 C 662.9 8.6 664.3 8 666 8 C 667.6 8 668.9 8.5 669.8 9.4 Z M 686.2 9.9 C 687.4 8.3 688.8 8 690.4 8 C 691.9 8 693.2 8.5 694 9.3 C 695.4 10.7 695.8 13.2 695.8 15.5 C 695.8 17.9 695.4 20.3 694 21.8 C 693.2 22.6 691.9 23.1 690.4 23.1 C 688.7 23.1 687.4 22.7 686.2 21.1 C 686.21 21.15 686.2 22.9 686.2 22.9 L 684 22.9 L 684 1.6 L 686.2 1.6 C 686.2 1.6 686.21 9.87 686.2 9.9 Z M 686.2 15.5 C 686.2 18.4 686.7 21.2 689.9 21.2 C 693.1 21.2 693.6 18.4 693.6 15.5 C 693.6 12.7 693.1 9.9 689.9 9.9 C 686.7 9.9 686.2 12.7 686.2 15.5 Z M 711.7 15.1 C 711.71 15.15 711.7 16.1 711.7 16.1 C 711.7 16.1 701.75 16.11 701.7 16.1 C 701.7 19.3 703.2 21.2 706.1 21.2 C 707.8 21.2 708.8 20.7 710 19.5 C 710 19.5 711.4 20.8 711.4 20.8 C 709.9 22.3 708.5 23.1 706 23.1 C 702.1 23.1 699.6 20.8 699.6 15.5 C 699.6 10.7 701.9 8 705.6 8 C 709.5 8 711.7 10.7 711.7 15.1 Z M 702.2 12 C 701.8 12.8 701.8 13.3 701.7 14.5 C 701.7 14.5 709.6 14.5 709.6 14.5 C 709.5 13.3 709.5 12.8 709.1 12 C 708.5 10.7 707.2 9.8 705.6 9.8 C 704.1 9.8 702.8 10.7 702.2 12 Z M 734.4 10.2 C 734.4 10.2 732.9 11.5 732.9 11.5 C 731.8 10.3 730.9 9.9 729.5 9.9 C 728.1 9.9 726.9 10.5 726.1 11.6 C 725.4 12.5 725.1 13.7 725.1 15.5 C 725.1 17.4 725.4 18.5 726.1 19.5 C 726.9 20.6 728.1 21.2 729.5 21.2 C 730.9 21.2 731.8 20.7 732.9 19.5 C 732.9 19.5 734.4 20.9 734.4 20.9 C 732.9 22.6 731.6 23.1 729.5 23.1 C 725.8 23.1 723 20.6 723 15.5 C 723 10.5 725.8 8 729.5 8 C 731.6 8 732.9 8.5 734.4 10.2 Z M 747.5 9.7 C 749 11.2 749.3 13.3 749.3 15.5 C 749.3 17.8 749 19.9 747.5 21.4 C 746.5 22.5 745.1 23.1 743.3 23.1 C 741.5 23.1 740.1 22.5 739.1 21.4 C 737.6 19.9 737.3 17.8 737.3 15.5 C 737.3 13.3 737.6 11.2 739.1 9.7 C 740.1 8.6 741.5 8 743.3 8 C 745.1 8 746.5 8.6 747.5 9.7 Z M 740.6 11 C 739.5 12.1 739.4 13.9 739.4 15.5 C 739.4 17.2 739.5 19 740.6 20.1 C 741.3 20.8 742.2 21.2 743.3 21.2 C 744.3 21.2 745.3 20.8 746 20.1 C 747.1 19 747.2 17.2 747.2 15.5 C 747.2 13.9 747.1 12.1 746 11 C 745.3 10.3 744.3 9.9 743.3 9.9 C 742.2 9.9 741.3 10.3 740.6 11 Z M 764.1 9.4 C 765.1 10.4 765.6 11.8 765.6 13.5 C 765.59 13.5 765.6 22.9 765.6 22.9 L 763.4 22.9 C 763.4 22.9 763.43 13.83 763.4 13.8 C 763.4 11.2 762 9.9 759.8 9.9 C 757.6 9.9 756.1 11.2 756.1 13.8 C 756.11 13.83 756.1 22.9 756.1 22.9 L 753.9 22.9 L 753.9 8.2 L 756.1 8.2 C 756.1 8.2 756.08 9.81 756.1 9.8 C 757.1 8.6 758.6 8 760.2 8 C 761.8 8 763.2 8.5 764.1 9.4 Z M 781.8 22.9 L 779.6 22.9 C 779.6 22.9 779.63 21.18 779.6 21.2 C 778.4 22.7 777.1 23.1 775.5 23.1 C 773.9 23.1 772.6 22.6 771.9 21.8 C 770.4 20.3 770.1 17.9 770.1 15.5 C 770.1 13.2 770.4 10.8 771.9 9.3 C 772.6 8.5 773.9 8 775.5 8 C 777.1 8 778.4 8.4 779.6 9.9 C 779.63 9.9 779.6 1.6 779.6 1.6 L 781.8 1.6 L 781.8 22.9 Z M 772.2 15.5 C 772.2 18.4 772.7 21.2 775.9 21.2 C 779.1 21.2 779.6 18.4 779.6 15.5 C 779.6 12.7 779.1 9.9 775.9 9.9 C 772.7 9.9 772.2 12.7 772.2 15.5 Z M 798.7 22.9 L 796.5 22.9 C 796.5 22.9 796.55 21.27 796.5 21.3 C 795.5 22.5 794 23.1 792.4 23.1 C 790.8 23.1 789.5 22.6 788.6 21.7 C 787.5 20.7 787 19.3 787 17.6 C 787.04 17.58 787 8.2 787 8.2 L 789.2 8.2 C 789.2 8.2 789.2 17.25 789.2 17.2 C 789.2 19.9 790.6 21.2 792.8 21.2 C 795 21.2 796.5 19.8 796.5 17.2 C 796.52 17.25 796.5 8.2 796.5 8.2 L 798.7 8.2 L 798.7 22.9 Z M 814.7 10.2 C 814.7 10.2 813.2 11.5 813.2 11.5 C 812.1 10.3 811.2 9.9 809.8 9.9 C 808.4 9.9 807.2 10.5 806.4 11.6 C 805.7 12.5 805.5 13.7 805.5 15.5 C 805.5 17.4 805.7 18.5 806.4 19.5 C 807.2 20.6 808.4 21.2 809.8 21.2 C 811.2 21.2 812.1 20.7 813.2 19.5 C 813.2 19.5 814.7 20.9 814.7 20.9 C 813.2 22.6 811.9 23.1 809.8 23.1 C 806.1 23.1 803.3 20.6 803.3 15.5 C 803.3 10.5 806.1 8 809.8 8 C 811.9 8 813.2 8.5 814.7 10.2 Z M 821.3 8.2 L 824.5 8.2 L 824.5 9.8 L 821.3 9.8 C 821.3 9.8 821.33 18.9 821.3 18.9 C 821.3 20.3 822 21.1 823.3 21.1 C 823.34 21.06 824.5 21.1 824.5 21.1 L 824.5 22.9 C 824.5 22.9 822.95 22.92 822.9 22.9 C 820.4 22.9 819.2 21.1 819.2 19 C 819.17 18.96 819.2 9.8 819.2 9.8 L 817.3 9.8 L 817.3 8.2 L 819.2 8.2 L 819.2 3.6 L 821.3 3.6 L 821.3 8.2 Z M 839.9 15.1 C 839.93 15.15 839.9 16.1 839.9 16.1 C 839.9 16.1 829.97 16.11 830 16.1 C 830 19.3 831.5 21.2 834.3 21.2 C 836 21.2 837 20.7 838.2 19.5 C 838.2 19.5 839.7 20.8 839.7 20.8 C 838.2 22.3 836.7 23.1 834.3 23.1 C 830.3 23.1 827.8 20.8 827.8 15.5 C 827.8 10.7 830.1 8 833.9 8 C 837.7 8 839.9 10.7 839.9 15.1 Z M 830.4 12 C 830.1 12.8 830 13.3 830 14.5 C 830 14.5 837.8 14.5 837.8 14.5 C 837.7 13.3 837.7 12.8 837.3 12 C 836.7 10.7 835.5 9.8 833.9 9.8 C 832.3 9.8 831 10.7 830.4 12 Z M 855.5 22.9 L 853.3 22.9 C 853.3 22.9 853.31 21.18 853.3 21.2 C 852.1 22.7 850.8 23.1 849.1 23.1 C 847.6 23.1 846.3 22.6 845.5 21.8 C 844.1 20.3 843.7 17.9 843.7 15.5 C 843.7 13.2 844.1 10.8 845.5 9.3 C 846.3 8.5 847.6 8 849.1 8 C 850.8 8 852.1 8.4 853.3 9.9 C 853.31 9.9 853.3 1.6 853.3 1.6 L 855.5 1.6 L 855.5 22.9 Z M 845.9 15.5 C 845.9 18.4 846.4 21.2 849.6 21.2 C 852.8 21.2 853.3 18.4 853.3 15.5 C 853.3 12.7 852.8 9.9 849.6 9.9 C 846.4 9.9 845.9 12.7 845.9 15.5 Z M 870.5 22.9 L 868.3 22.9 L 868.3 8.2 L 870.5 8.2 L 870.5 22.9 Z M 870.6 4 L 868.2 4 L 868.2 1.5 L 870.6 1.5 L 870.6 4 Z M 886 9.4 C 887.1 10.4 887.6 11.8 887.6 13.5 C 887.57 13.5 887.6 22.9 887.6 22.9 L 885.4 22.9 C 885.4 22.9 885.41 13.83 885.4 13.8 C 885.4 11.2 884 9.9 881.8 9.9 C 879.6 9.9 878.1 11.2 878.1 13.8 C 878.09 13.83 878.1 22.9 878.1 22.9 L 875.9 22.9 L 875.9 8.2 L 878.1 8.2 C 878.1 8.2 878.06 9.81 878.1 9.8 C 879.1 8.6 880.6 8 882.2 8 C 883.8 8 885.1 8.5 886 9.4 Z M 902.8 8.2 L 906 8.2 L 906 9.8 L 902.8 9.8 C 902.8 9.8 902.81 18.9 902.8 18.9 C 902.8 20.3 903.4 21.1 904.8 21.1 C 904.82 21.06 906 21.1 906 21.1 L 906 22.9 C 906 22.9 904.43 22.92 904.4 22.9 C 901.9 22.9 900.6 21.1 900.6 19 C 900.65 18.96 900.6 9.8 900.6 9.8 L 898.8 9.8 L 898.8 8.2 L 900.6 8.2 L 900.6 3.6 L 902.8 3.6 L 902.8 8.2 Z M 912.4 9.8 C 913.5 8.6 914.8 8 916.5 8 C 918.1 8 919.5 8.5 920.4 9.4 C 921.4 10.4 921.9 11.8 921.9 13.5 C 921.86 13.5 921.9 22.9 921.9 22.9 L 919.7 22.9 C 919.7 22.9 919.7 13.83 919.7 13.8 C 919.7 11.2 918.3 9.9 916.1 9.9 C 913.9 9.9 912.4 11.2 912.4 13.8 C 912.41 13.83 912.4 22.9 912.4 22.9 L 910.2 22.9 L 910.2 1.6 L 912.4 1.6 C 912.4 1.6 912.41 9.81 912.4 9.8 Z M 938.4 15.1 C 938.42 15.15 938.4 16.1 938.4 16.1 C 938.4 16.1 928.46 16.11 928.5 16.1 C 928.5 19.3 930 21.2 932.8 21.2 C 934.5 21.2 935.5 20.7 936.7 19.5 C 936.7 19.5 938.1 20.8 938.1 20.8 C 936.6 22.3 935.2 23.1 932.7 23.1 C 928.8 23.1 926.3 20.8 926.3 15.5 C 926.3 10.7 928.6 8 932.4 8 C 936.2 8 938.4 10.7 938.4 15.1 Z M 928.9 12 C 928.5 12.8 928.5 13.3 928.5 14.5 C 928.5 14.5 936.3 14.5 936.3 14.5 C 936.2 13.3 936.2 12.8 935.8 12 C 935.2 10.7 933.9 9.8 932.4 9.8 C 930.8 9.8 929.5 10.7 928.9 12 Z M 961.1 10.2 C 961.1 10.2 959.6 11.5 959.6 11.5 C 958.5 10.3 957.6 9.9 956.2 9.9 C 954.8 9.9 953.6 10.5 952.8 11.6 C 952.1 12.5 951.9 13.7 951.9 15.5 C 951.9 17.4 952.1 18.5 952.8 19.5 C 953.6 20.6 954.8 21.2 956.2 21.2 C 957.6 21.2 958.5 20.7 959.6 19.5 C 959.6 19.5 961.1 20.9 961.1 20.9 C 959.6 22.6 958.3 23.1 956.2 23.1 C 952.5 23.1 949.7 20.6 949.7 15.5 C 949.7 10.5 952.5 8 956.2 8 C 958.3 8 959.6 8.5 961.1 10.2 Z M 967.3 18.9 C 967.3 20.3 967.8 21.1 969.3 21.1 C 969.29 21.06 970.5 21.1 970.5 21.1 L 970.5 22.9 C 970.5 22.9 968.9 22.92 968.9 22.9 C 966.3 22.9 965.1 21.2 965.1 19 C 965.15 18.99 965.1 1.6 965.1 1.6 L 967.3 1.6 C 967.3 1.6 967.31 18.9 967.3 18.9 Z M 976.3 22.9 L 974.1 22.9 L 974.1 8.2 L 976.3 8.2 L 976.3 22.9 Z M 976.4 4 L 974 4 L 974 1.5 L 976.4 1.5 L 976.4 4 Z M 993 15.1 C 993.01 15.15 993 16.1 993 16.1 C 993 16.1 983.05 16.11 983.1 16.1 C 983.1 19.3 984.6 21.2 987.4 21.2 C 989.1 21.2 990.1 20.7 991.3 19.5 C 991.3 19.5 992.7 20.8 992.7 20.8 C 991.2 22.3 989.8 23.1 987.3 23.1 C 983.4 23.1 980.9 20.8 980.9 15.5 C 980.9 10.7 983.2 8 987 8 C 990.8 8 993 10.7 993 15.1 Z M 983.5 12 C 983.1 12.8 983.1 13.3 983.1 14.5 C 983.1 14.5 990.9 14.5 990.9 14.5 C 990.8 13.3 990.8 12.8 990.4 12 C 989.8 10.7 988.5 9.8 987 9.8 C 985.4 9.8 984.1 10.7 983.5 12 Z M 1007.7 9.4 C 1008.8 10.4 1009.2 11.8 1009.2 13.5 C 1009.24 13.5 1009.2 22.9 1009.2 22.9 L 1007.1 22.9 C 1007.1 22.9 1007.08 13.83 1007.1 13.8 C 1007.1 11.2 1005.7 9.9 1003.5 9.9 C 1001.2 9.9 999.8 11.2 999.8 13.8 C 999.76 13.83 999.8 22.9 999.8 22.9 L 997.6 22.9 L 997.6 8.2 L 999.7 8.2 C 999.7 8.2 999.73 9.81 999.7 9.8 C 1000.8 8.6 1002.3 8 1003.9 8 C 1005.5 8 1006.8 8.5 1007.7 9.4 Z M 1017 8.2 L 1020.2 8.2 L 1020.2 9.8 L 1017 9.8 C 1017 9.8 1017.01 18.9 1017 18.9 C 1017 20.3 1017.6 21.1 1019 21.1 C 1019.02 21.06 1020.2 21.1 1020.2 21.1 L 1020.2 22.9 C 1020.2 22.9 1018.63 22.92 1018.6 22.9 C 1016.1 22.9 1014.9 21.1 1014.9 19 C 1014.85 18.96 1014.9 9.8 1014.9 9.8 L 1013 9.8 L 1013 8.2 L 1014.9 8.2 L 1014.9 3.6 L 1017 3.6 L 1017 8.2 Z M 1027.1 4.4 L 1024.5 6.8 L 1024.5 1.6 L 1027.1 1.6 L 1027.1 4.4 Z M 1041.9 9.6 C 1041.9 9.6 1040.4 11 1040.4 11 C 1039.4 10.2 1038 9.8 1036.5 9.8 C 1034.4 9.8 1033.2 10.7 1033.2 12.2 C 1033.2 13.6 1034 14.2 1035.9 14.4 C 1035.9 14.4 1038.2 14.6 1038.2 14.6 C 1040.7 14.8 1042.5 15.8 1042.5 18.6 C 1042.5 21.4 1040.1 23.1 1036.5 23.1 C 1034 23.1 1032 22.5 1030.5 21 C 1030.5 21 1031.9 19.5 1031.9 19.5 C 1033 20.7 1034.7 21.2 1036.5 21.2 C 1038.9 21.2 1040.4 20.4 1040.4 18.6 C 1040.4 17.3 1039.7 16.6 1038 16.5 C 1038 16.5 1035.5 16.3 1035.5 16.3 C 1032.6 16 1031.1 14.8 1031.1 12.3 C 1031.1 9.6 1033.4 8 1036.5 8 C 1038.7 8 1040.5 8.5 1041.9 9.6 Z " stroke="none" fill="#000"/>  </g></svg>