<?xml version="1.0" standalone="no"?><!DOCTYPE svg PUBLIC "-//W3C//DTD SVG 1.1//EN" "http://www.w3.org/Graphics/SVG/1.1/DTD/svg11.dtd"><svg xmlns="http://www.w3.org/2000/svg" version="1.1" width="204px" height="99.0797729492188px" viewBox="0 0 204 99.0797729492188">  <desc>Step 1 Vet the case</desc>  <defs/>  <g id="Polygon20375">    <path d="M 8.7 58.9 L 7.3 58.9 L 0.3 37.6 L 2 37.6 L 8 56.1 L 14 37.6 L 15.7 37.6 L 8.7 58.9 Z M 28.5 51.3 C 28.47 51.33 28.5 52 28.5 52 C 28.5 52 18.42 52.02 18.4 52 C 18.4 55.7 20 57.7 23.1 57.7 C 24.8 57.7 25.9 57.2 27.1 56 C 27.1 56 28.3 56.9 28.3 56.9 C 26.8 58.3 25.4 59.1 23 59.1 C 19.1 59.1 16.9 56.5 16.9 51.7 C 16.9 47 19.1 44.3 22.7 44.3 C 26.3 44.3 28.5 46.9 28.5 51.3 Z M 18.9 48.1 C 18.5 48.9 18.5 49.4 18.4 50.8 C 18.4 50.8 26.9 50.8 26.9 50.8 C 26.9 49.4 26.8 48.9 26.4 48.1 C 25.8 46.5 24.4 45.6 22.7 45.6 C 21 45.6 19.6 46.6 18.9 48.1 Z M 35.3 44.5 L 38.6 44.5 L 38.6 45.6 L 35.3 45.6 C 35.3 45.6 35.34 55.17 35.3 55.2 C 35.3 56.7 36 57.6 37.6 57.6 C 37.56 57.57 38.6 57.6 38.6 57.6 L 38.6 58.9 C 38.6 58.9 37.29 58.92 37.3 58.9 C 35 58.9 33.8 57.3 33.8 55.1 C 33.81 55.14 33.8 45.6 33.8 45.6 L 31.8 45.6 L 31.8 44.5 L 33.8 44.5 L 33.8 39.8 L 35.3 39.8 L 35.3 44.5 Z M 52.7 44.5 L 56 44.5 L 56 45.6 L 52.7 45.6 C 52.7 45.6 52.74 55.17 52.7 55.2 C 52.7 56.7 53.4 57.6 55 57.6 C 54.96 57.57 56 57.6 56 57.6 L 56 58.9 C 56 58.9 54.69 58.92 54.7 58.9 C 52.4 58.9 51.2 57.3 51.2 55.1 C 51.21 55.14 51.2 45.6 51.2 45.6 L 49.2 45.6 L 49.2 44.5 L 51.2 44.5 L 51.2 39.8 L 52.7 39.8 L 52.7 44.5 Z M 62.1 46.2 C 63.2 44.9 64.6 44.3 66.4 44.3 C 68.2 44.3 69.6 44.8 70.5 45.9 C 71.3 46.9 71.7 48.1 71.7 49.7 C 71.73 49.68 71.7 58.9 71.7 58.9 L 70.2 58.9 C 70.2 58.9 70.2 49.95 70.2 49.9 C 70.2 47.2 68.8 45.6 66.2 45.6 C 63.6 45.6 62.1 47.2 62.1 49.9 C 62.13 49.95 62.1 58.9 62.1 58.9 L 60.6 58.9 L 60.6 37.6 L 62.1 37.6 C 62.1 37.6 62.13 46.17 62.1 46.2 Z M 88.1 51.3 C 88.11 51.33 88.1 52 88.1 52 C 88.1 52 78.06 52.02 78.1 52 C 78.1 55.7 79.7 57.7 82.8 57.7 C 84.5 57.7 85.5 57.2 86.8 56 C 86.8 56 87.9 56.9 87.9 56.9 C 86.4 58.3 85.1 59.1 82.7 59.1 C 78.7 59.1 76.5 56.5 76.5 51.7 C 76.5 47 78.7 44.3 82.3 44.3 C 85.9 44.3 88.1 46.9 88.1 51.3 Z M 78.6 48.1 C 78.2 48.9 78.1 49.4 78.1 50.8 C 78.1 50.8 86.6 50.8 86.6 50.8 C 86.5 49.4 86.5 48.9 86.1 48.1 C 85.4 46.5 84 45.6 82.3 45.6 C 80.6 45.6 79.3 46.6 78.6 48.1 Z M 111 46.5 C 111 46.5 110 47.5 110 47.5 C 108.7 46.1 107.8 45.6 106.3 45.6 C 104.6 45.6 103.3 46.3 102.4 47.5 C 101.7 48.6 101.4 49.7 101.4 51.7 C 101.4 53.6 101.7 54.8 102.4 55.8 C 103.3 57.1 104.6 57.7 106.3 57.7 C 107.8 57.7 108.7 57.3 110 55.9 C 110 55.9 111 56.9 111 56.9 C 109.5 58.6 108.2 59.1 106.3 59.1 C 102.3 59.1 99.9 56.3 99.9 51.7 C 99.9 47.1 102.3 44.3 106.3 44.3 C 108.2 44.3 109.5 44.8 111 46.5 Z M 125.4 49 C 125.4 49.02 125.4 58.9 125.4 58.9 L 123.9 58.9 C 123.9 58.9 123.87 57.48 123.9 57.5 C 122.6 58.7 121.5 59.1 119.5 59.1 C 117.3 59.1 116.1 58.7 115.2 57.8 C 114.5 57.1 114.1 56 114.1 55 C 114.1 52.3 116 50.8 119.2 50.8 C 119.19 50.79 123.9 50.8 123.9 50.8 C 123.9 50.8 123.87 49.17 123.9 49.2 C 123.9 46.9 122.8 45.6 119.8 45.6 C 117.7 45.6 116.7 46.1 115.8 47.5 C 115.8 47.5 114.7 46.5 114.7 46.5 C 115.9 44.8 117.4 44.3 119.8 44.3 C 123.6 44.3 125.4 46 125.4 49 Z M 119.4 52 C 116.9 52 115.7 53 115.7 54.9 C 115.7 56.8 116.8 57.7 119.5 57.7 C 120.8 57.7 122 57.6 123.1 56.6 C 123.6 56.1 123.9 55.2 123.9 53.9 C 123.87 53.88 123.9 52 123.9 52 C 123.9 52 119.37 52.02 119.4 52 Z M 140.6 45.8 C 140.6 45.8 139.6 46.8 139.6 46.8 C 138.4 46 137.1 45.6 135.5 45.6 C 133.1 45.6 131.8 46.6 131.8 48.4 C 131.8 49.9 132.7 50.6 134.8 50.8 C 134.8 50.8 137.1 51 137.1 51 C 139.5 51.3 141.3 52 141.3 54.8 C 141.3 57.4 139.1 59.1 135.5 59.1 C 133 59.1 131.2 58.4 129.7 57 C 129.7 57 130.7 56 130.7 56 C 131.8 57.1 133.4 57.7 135.5 57.7 C 138.3 57.7 139.8 56.8 139.8 54.8 C 139.8 53.3 139 52.6 137.1 52.4 C 137.1 52.4 134.7 52.2 134.7 52.2 C 131.8 51.9 130.3 50.7 130.3 48.4 C 130.3 45.9 132.4 44.3 135.5 44.3 C 137.5 44.3 139.3 44.8 140.6 45.8 Z M 156.7 51.3 C 156.66 51.33 156.7 52 156.7 52 C 156.7 52 146.61 52.02 146.6 52 C 146.6 55.7 148.2 57.7 151.3 57.7 C 153 57.7 154.1 57.2 155.3 56 C 155.3 56 156.4 56.9 156.4 56.9 C 155 58.3 153.6 59.1 151.2 59.1 C 147.2 59.1 145.1 56.5 145.1 51.7 C 145.1 47 147.2 44.3 150.9 44.3 C 154.5 44.3 156.7 46.9 156.7 51.3 Z M 147.1 48.1 C 146.7 48.9 146.7 49.4 146.6 50.8 C 146.6 50.8 155.1 50.8 155.1 50.8 C 155 49.4 155 48.9 154.6 48.1 C 154 46.5 152.5 45.6 150.9 45.6 C 149.2 45.6 147.8 46.6 147.1 48.1 Z " stroke="none" fill="#000"/>  </g>  <g id="Polygon20374">    <path d="M 15.4 3.8 C 15.4 3.8 13.3 5.8 13.3 5.8 C 12 4.6 10.5 4.2 8.6 4.2 C 6.1 4.2 4.8 5.6 4.8 7.5 C 4.8 8.3 5 9 5.5 9.5 C 6.1 10 6.7 10.3 7.9 10.5 C 7.9 10.5 10.4 10.9 10.4 10.9 C 12.4 11.2 13.5 11.6 14.4 12.4 C 15.5 13.5 16.1 15 16.1 16.8 C 16.1 20.8 13 23.1 8.5 23.1 C 5.3 23.1 3 22.3 0.9 20.3 C 0.9 20.3 3 18.1 3 18.1 C 4.6 19.7 6.4 20.2 8.5 20.2 C 11.3 20.2 12.9 19 12.9 16.9 C 12.9 16 12.7 15.2 12.1 14.7 C 11.6 14.2 10.8 13.9 9.8 13.8 C 9.8 13.8 7.2 13.4 7.2 13.4 C 5.5 13.2 4.1 12.6 3.2 11.7 C 2.2 10.8 1.6 9.4 1.6 7.6 C 1.6 3.9 4.3 1.4 8.8 1.4 C 11.6 1.4 13.6 2.1 15.4 3.8 Z M 23.5 7.7 L 26.5 7.7 L 26.5 10 L 23.5 10 C 23.5 10 23.55 18.54 23.5 18.5 C 23.5 19.7 24.1 20.3 25.2 20.3 C 25.23 20.31 26.5 20.3 26.5 20.3 L 26.5 22.9 C 26.5 22.9 24.66 22.92 24.7 22.9 C 21.8 22.9 20.5 20.9 20.5 18.7 C 20.49 18.69 20.5 10 20.5 10 L 18.7 10 L 18.7 7.7 L 20.5 7.7 L 20.5 3.4 L 23.5 3.4 L 23.5 7.7 Z M 32.5 16.2 C 32.5 18.8 33.8 20.5 36.4 20.5 C 38.1 20.5 39 20 40.1 18.9 C 40.1 18.9 42 20.7 42 20.7 C 40.4 22.3 39 23.1 36.3 23.1 C 32.5 23.1 29.5 21.1 29.5 15.3 C 29.5 10.3 32 7.5 35.9 7.5 C 40 7.5 42.4 10.5 42.4 14.9 C 42.36 14.91 42.4 16.2 42.4 16.2 C 42.4 16.2 32.49 16.2 32.5 16.2 Z M 38.9 12 C 38.4 10.9 37.4 10.1 35.9 10.1 C 34.4 10.1 33.4 10.9 32.9 12 C 32.6 12.7 32.5 13.1 32.5 14.1 C 32.5 14.1 39.3 14.1 39.3 14.1 C 39.3 13.1 39.2 12.7 38.9 12 Z M 57.2 8.9 C 58.6 10.4 58.9 12.8 58.9 15.3 C 58.9 17.8 58.6 20.2 57.2 21.7 C 56.3 22.6 55 23.1 53.5 23.1 C 51.9 23.1 50.6 22.7 49.5 21.4 C 49.5 21.36 49.5 29.1 49.5 29.1 L 46.4 29.1 L 46.4 7.7 L 49.4 7.7 C 49.4 7.7 49.44 9.33 49.4 9.3 C 50.6 7.9 51.8 7.5 53.5 7.5 C 55 7.5 56.3 8 57.2 8.9 Z M 49.5 15.3 C 49.5 18 49.9 20.4 52.7 20.4 C 55.4 20.4 55.8 18 55.8 15.3 C 55.8 12.6 55.4 10.3 52.7 10.3 C 49.9 10.3 49.5 12.6 49.5 15.3 Z M 75.4 4.9 L 71.2 8.5 L 71.2 5.2 L 75.4 1.6 L 78.4 1.6 L 78.4 22.9 L 75.4 22.9 L 75.4 4.9 Z " stroke="none" fill="#000"/>  </g></svg>