<?xml version="1.0" standalone="no"?><!DOCTYPE svg PUBLIC "-//W3C//DTD SVG 1.1//EN" "http://www.w3.org/Graphics/SVG/1.1/DTD/svg11.dtd"><svg xmlns="http://www.w3.org/2000/svg" version="1.1" width="1125px" height="166.159545898438px" viewBox="0 0 1125 166.159545898438">  <desc>A resource to help you submit Foreign National business with success</desc>  <defs/>  <g id="Polygon20113">    <path d="M 32.7 73.2 L 10.7 73.2 L 10.7 88.9 L 29.5 88.9 L 29.5 93 L 10.7 93 L 10.7 111.8 L 6.2 111.8 L 6.2 69.1 L 32.7 69.1 L 32.7 73.2 Z M 57.4 85.3 C 60.4 88.3 61 92.5 61 97.1 C 61 101.6 60.4 105.8 57.4 108.8 C 55.3 110.9 52.5 112.2 48.9 112.2 C 45.3 112.2 42.5 110.9 40.4 108.8 C 37.4 105.8 36.8 101.6 36.8 97.1 C 36.8 92.5 37.4 88.3 40.4 85.3 C 42.5 83.2 45.3 82 48.9 82 C 52.5 82 55.3 83.2 57.4 85.3 Z M 43.6 88 C 41.4 90.1 41.2 93.7 41.2 97.1 C 41.2 100.4 41.3 104 43.6 106.2 C 45 107.6 46.8 108.4 48.9 108.4 C 51 108.4 52.9 107.6 54.3 106.2 C 56.5 104 56.6 100.4 56.6 97.1 C 56.6 93.7 56.5 90.1 54.3 88 C 52.9 86.5 51 85.8 48.9 85.8 C 46.8 85.8 45 86.5 43.6 88 Z M 89.9 84.7 C 89.9 84.7 86.7 88 86.7 88 C 85.1 86.3 83.9 85.8 81.6 85.8 C 77.3 85.8 74.5 89.2 74.5 93.7 C 74.52 93.72 74.5 111.8 74.5 111.8 L 70.2 111.8 L 70.2 82.3 L 74.5 82.3 C 74.5 82.3 74.52 85.92 74.5 85.9 C 76.1 83.5 79.4 82 82.8 82 C 85.6 82 87.8 82.6 89.9 84.7 Z M 116.3 96.3 C 116.28 96.3 116.3 98.2 116.3 98.2 C 116.3 98.2 96.36 98.22 96.4 98.2 C 96.4 104.7 99.4 108.4 105.1 108.4 C 108.5 108.4 110.5 107.4 112.8 105.1 C 112.8 105.1 115.7 107.6 115.7 107.6 C 112.7 110.6 109.9 112.2 104.9 112.2 C 97.1 112.2 92 107.5 92 97.1 C 92 87.5 96.7 82 104.2 82 C 111.8 82 116.3 87.4 116.3 96.3 Z M 97.3 90.1 C 96.5 91.6 96.5 92.6 96.4 95 C 96.4 95 112 95 112 95 C 111.8 92.6 111.8 91.6 111.1 90.1 C 109.8 87.4 107.3 85.6 104.2 85.6 C 101 85.6 98.5 87.4 97.3 90.1 Z M 129.8 111.8 L 125.5 111.8 L 125.5 82.3 L 129.8 82.3 L 129.8 111.8 Z M 130.1 73.9 L 125.2 73.9 L 125.2 69.1 L 130.1 69.1 L 130.1 73.9 Z M 158.2 85.8 C 158.16 85.8 158.2 82.3 158.2 82.3 L 162.4 82.3 C 162.4 82.3 162.42 112.74 162.4 112.7 C 162.4 120.1 157.9 125.4 150.1 125.4 C 145.7 125.4 143.2 124.3 140.1 121.4 C 140.1 121.4 142.9 118.7 142.9 118.7 C 145.1 120.6 146.6 121.6 150 121.6 C 155.7 121.6 158.1 117.6 158.1 112.6 C 158.1 112.6 158.1 107.9 158.1 107.9 C 155.7 111 153 111.8 149.8 111.8 C 146.8 111.8 144.2 110.7 142.7 109.1 C 139.7 106.2 139.1 101.6 139.1 96.8 C 139.1 92 139.7 87.5 142.7 84.5 C 144.2 83 146.9 82 149.9 82 C 153.1 82 155.8 82.7 158.2 85.8 Z M 143.4 96.8 C 143.4 102.4 144.4 107.9 150.8 107.9 C 157.2 107.9 158.1 102.4 158.1 96.8 C 158.1 91.3 157.2 85.8 150.8 85.8 C 144.4 85.8 143.4 91.3 143.4 96.8 Z M 193.4 84.7 C 195.5 86.8 196.5 89.6 196.5 93 C 196.5 93 196.5 111.8 196.5 111.8 L 192.2 111.8 C 192.2 111.8 192.18 93.66 192.2 93.7 C 192.2 88.4 189.4 85.8 184.9 85.8 C 180.5 85.8 177.5 88.5 177.5 93.7 C 177.54 93.66 177.5 111.8 177.5 111.8 L 173.2 111.8 L 173.2 82.3 L 177.5 82.3 C 177.5 82.3 177.48 85.62 177.5 85.6 C 179.6 83.2 182.5 82 185.8 82 C 189 82 191.6 82.9 193.4 84.7 Z M 254.3 111.8 L 250 111.8 L 227.3 77.6 L 227.3 111.8 L 222.7 111.8 L 222.7 69.1 L 227 69.1 L 249.7 103.3 L 249.7 69.1 L 254.3 69.1 L 254.3 111.8 Z M 286.9 91.8 C 286.92 91.8 286.9 111.8 286.9 111.8 L 282.6 111.8 C 282.6 111.8 282.6 109.02 282.6 109 C 280.3 111.4 278 112.2 274.1 112.2 C 270 112.2 267.8 111.5 265.7 109.5 C 264.2 108.1 263.5 105.8 263.5 103.5 C 263.5 98.3 267.2 95 273.8 95 C 273.78 94.98 282.6 95 282.6 95 C 282.6 95 282.6 92.16 282.6 92.2 C 282.6 87.9 280.5 85.7 275 85.7 C 271.3 85.7 269.4 86.6 267.6 89.1 C 267.6 89.1 264.7 86.4 264.7 86.4 C 267.2 83 270.2 82 275.1 82 C 283.1 82 286.9 85.4 286.9 91.8 Z M 274.4 98.2 C 269.9 98.2 267.7 100 267.7 103.4 C 267.7 106.9 269.8 108.5 274.6 108.5 C 277 108.5 279.2 108.2 281.1 106.5 C 282.1 105.5 282.6 103.9 282.6 101.4 C 282.6 101.4 282.6 98.2 282.6 98.2 C 282.6 98.2 274.38 98.22 274.4 98.2 Z M 302.5 82.3 L 308.8 82.3 L 308.8 85.6 L 302.5 85.6 C 302.5 85.6 302.46 103.8 302.5 103.8 C 302.5 106.6 303.7 108.1 306.5 108.1 C 306.48 108.12 308.8 108.1 308.8 108.1 L 308.8 111.8 C 308.8 111.8 305.7 111.84 305.7 111.8 C 300.7 111.8 298.1 108.3 298.1 103.9 C 298.14 103.92 298.1 85.6 298.1 85.6 L 294.4 85.6 L 294.4 82.3 L 298.1 82.3 L 298.1 73.3 L 302.5 73.3 L 302.5 82.3 Z M 321.7 111.8 L 317.3 111.8 L 317.3 82.3 L 321.7 82.3 L 321.7 111.8 Z M 322 73.9 L 317.1 73.9 L 317.1 69.1 L 322 69.1 L 322 73.9 Z M 351.5 85.3 C 354.5 88.3 355.1 92.5 355.1 97.1 C 355.1 101.6 354.5 105.8 351.5 108.8 C 349.4 110.9 346.6 112.2 343 112.2 C 339.4 112.2 336.6 110.9 334.6 108.8 C 331.6 105.8 331 101.6 331 97.1 C 331 92.5 331.6 88.3 334.6 85.3 C 336.6 83.2 339.4 82 343 82 C 346.6 82 349.4 83.2 351.5 85.3 Z M 337.7 88 C 335.5 90.1 335.3 93.7 335.3 97.1 C 335.3 100.4 335.5 104 337.7 106.2 C 339.1 107.6 340.9 108.4 343 108.4 C 345.1 108.4 347 107.6 348.4 106.2 C 350.6 104 350.8 100.4 350.8 97.1 C 350.8 93.7 350.6 90.1 348.4 88 C 347 86.5 345.1 85.8 343 85.8 C 340.9 85.8 339.1 86.5 337.7 88 Z M 384.5 84.7 C 386.6 86.8 387.6 89.6 387.6 93 C 387.59 93 387.6 111.8 387.6 111.8 L 383.3 111.8 C 383.3 111.8 383.27 93.66 383.3 93.7 C 383.3 88.4 380.5 85.8 376 85.8 C 371.6 85.8 368.6 88.5 368.6 93.7 C 368.63 93.66 368.6 111.8 368.6 111.8 L 364.3 111.8 L 364.3 82.3 L 368.6 82.3 C 368.6 82.3 368.57 85.62 368.6 85.6 C 370.7 83.2 373.6 82 376.9 82 C 380.1 82 382.7 82.9 384.5 84.7 Z M 419.2 91.8 C 419.15 91.8 419.2 111.8 419.2 111.8 L 414.8 111.8 C 414.8 111.8 414.83 109.02 414.8 109 C 412.5 111.4 410.3 112.2 406.3 112.2 C 402.2 112.2 400 111.5 398 109.5 C 396.5 108.1 395.8 105.8 395.8 103.5 C 395.8 98.3 399.4 95 406 95 C 406.01 94.98 414.8 95 414.8 95 C 414.8 95 414.83 92.16 414.8 92.2 C 414.8 87.9 412.7 85.7 407.3 85.7 C 403.6 85.7 401.6 86.6 399.8 89.1 C 399.8 89.1 396.9 86.4 396.9 86.4 C 399.5 83 402.5 82 407.3 82 C 415.3 82 419.2 85.4 419.2 91.8 Z M 406.6 98.2 C 402.2 98.2 400 100 400 103.4 C 400 106.9 402.1 108.5 406.8 108.5 C 409.3 108.5 411.4 108.2 413.3 106.5 C 414.4 105.5 414.8 103.9 414.8 101.4 C 414.83 101.4 414.8 98.2 414.8 98.2 C 414.8 98.2 406.61 98.22 406.6 98.2 Z M 433.9 103.8 C 433.9 106.7 434.8 108.1 437.8 108.1 C 437.81 108.12 440.2 108.1 440.2 108.1 L 440.2 111.8 C 440.2 111.8 437.03 111.84 437 111.8 C 431.9 111.8 429.5 108.5 429.5 104 C 429.53 103.98 429.5 69.1 429.5 69.1 L 433.9 69.1 C 433.9 69.1 433.85 103.8 433.9 103.8 Z M 466.7 85.7 C 469.2 82.7 471.8 82 475.1 82 C 478.1 82 480.7 83 482.3 84.5 C 485.2 87.5 485.9 92.3 485.9 97.1 C 485.9 101.8 485.2 106.6 482.3 109.6 C 480.7 111.2 478.1 112.2 475.1 112.2 C 471.8 112.2 469.2 111.4 466.7 108.3 C 466.73 108.3 466.7 111.8 466.7 111.8 L 462.4 111.8 L 462.4 69.1 L 466.7 69.1 C 466.7 69.1 466.73 85.74 466.7 85.7 Z M 466.7 97.1 C 466.7 102.8 467.7 108.4 474.2 108.4 C 480.6 108.4 481.6 102.8 481.6 97.1 C 481.6 91.3 480.6 85.8 474.2 85.8 C 467.7 85.8 466.7 91.3 466.7 97.1 Z M 518.1 111.8 L 513.8 111.8 C 513.8 111.8 513.83 108.54 513.8 108.5 C 511.7 110.9 508.8 112.2 505.5 112.2 C 502.3 112.2 499.7 111.2 497.9 109.4 C 495.8 107.4 494.8 104.6 494.8 101.2 C 494.81 101.16 494.8 82.3 494.8 82.3 L 499.1 82.3 C 499.1 82.3 499.13 100.5 499.1 100.5 C 499.1 105.7 502 108.4 506.4 108.4 C 510.8 108.4 513.8 105.7 513.8 100.5 C 513.77 100.5 513.8 82.3 513.8 82.3 L 518.1 82.3 L 518.1 111.8 Z M 548.9 85.1 C 548.9 85.1 546.1 88 546.1 88 C 544 86.3 541.3 85.6 538.2 85.6 C 533.9 85.6 531.6 87.4 531.6 90.5 C 531.6 93.1 533.2 94.4 536.9 94.8 C 536.9 94.8 541.5 95.2 541.5 95.2 C 546.7 95.7 550.2 97.6 550.2 103.2 C 550.2 108.9 545.4 112.2 538.2 112.2 C 533.2 112.2 529.3 111.1 526.1 107.9 C 526.1 107.9 529 105.1 529 105.1 C 531.2 107.5 534.5 108.5 538.1 108.5 C 543.1 108.5 546 106.7 546 103.3 C 546 100.6 544.6 99.2 541.1 98.9 C 541.1 98.9 536.2 98.5 536.2 98.5 C 530.5 98 527.4 95.5 527.4 90.6 C 527.4 85.2 531.9 82 538.3 82 C 542.5 82 546.2 83 548.9 85.1 Z M 563 111.8 L 558.7 111.8 L 558.7 82.3 L 563 82.3 L 563 111.8 Z M 563.3 73.9 L 558.4 73.9 L 558.4 69.1 L 563.3 69.1 L 563.3 73.9 Z M 594 84.7 C 596.1 86.8 597.1 89.6 597.1 93 C 597.11 93 597.1 111.8 597.1 111.8 L 592.8 111.8 C 592.8 111.8 592.79 93.66 592.8 93.7 C 592.8 88.4 590 85.8 585.5 85.8 C 581.1 85.8 578.1 88.5 578.1 93.7 C 578.15 93.66 578.1 111.8 578.1 111.8 L 573.8 111.8 L 573.8 82.3 L 578.1 82.3 C 578.1 82.3 578.09 85.62 578.1 85.6 C 580.2 83.2 583.1 82 586.4 82 C 589.6 82 592.2 82.9 594 84.7 Z M 630.2 96.3 C 630.23 96.3 630.2 98.2 630.2 98.2 C 630.2 98.2 610.31 98.22 610.3 98.2 C 610.3 104.7 613.3 108.4 619 108.4 C 622.4 108.4 624.4 107.4 626.7 105.1 C 626.7 105.1 629.7 107.6 629.7 107.6 C 626.7 110.6 623.9 112.2 618.9 112.2 C 611 112.2 606 107.5 606 97.1 C 606 87.5 610.6 82 618.1 82 C 625.8 82 630.2 87.4 630.2 96.3 Z M 611.2 90.1 C 610.5 91.6 610.4 92.6 610.3 95 C 610.3 95 626 95 626 95 C 625.8 92.6 625.7 91.6 625 90.1 C 623.7 87.4 621.3 85.6 618.1 85.6 C 614.9 85.6 612.5 87.4 611.2 90.1 Z M 659.4 85.1 C 659.4 85.1 656.6 88 656.6 88 C 654.5 86.3 651.8 85.6 648.7 85.6 C 644.4 85.6 642.1 87.4 642.1 90.5 C 642.1 93.1 643.7 94.4 647.4 94.8 C 647.4 94.8 652 95.2 652 95.2 C 657.2 95.7 660.7 97.6 660.7 103.2 C 660.7 108.9 655.9 112.2 648.7 112.2 C 643.7 112.2 639.8 111.1 636.6 107.9 C 636.6 107.9 639.5 105.1 639.5 105.1 C 641.7 107.5 645 108.5 648.6 108.5 C 653.6 108.5 656.5 106.7 656.5 103.3 C 656.5 100.6 655.1 99.2 651.6 98.9 C 651.6 98.9 646.7 98.5 646.7 98.5 C 641 98 637.9 95.5 637.9 90.6 C 637.9 85.2 642.4 82 648.8 82 C 653 82 656.7 83 659.4 85.1 Z M 689 85.1 C 689 85.1 686.1 88 686.1 88 C 684 86.3 681.3 85.6 678.3 85.6 C 674 85.6 671.7 87.4 671.7 90.5 C 671.7 93.1 673.3 94.4 677 94.8 C 677 94.8 681.6 95.2 681.6 95.2 C 686.7 95.7 690.3 97.6 690.3 103.2 C 690.3 108.9 685.5 112.2 678.3 112.2 C 673.2 112.2 669.3 111.1 666.2 107.9 C 666.2 107.9 669 105.1 669 105.1 C 671.3 107.5 674.6 108.5 678.2 108.5 C 683.1 108.5 686.1 106.7 686.1 103.3 C 686.1 100.6 684.6 99.2 681.2 98.9 C 681.2 98.9 676.3 98.5 676.3 98.5 C 670.5 98 667.5 95.5 667.5 90.6 C 667.5 85.2 672 82 678.3 82 C 682.6 82 686.3 83 689 85.1 Z M 708.9 82.3 L 713.6 82.3 L 720.5 106 L 728.1 82.3 L 731.9 82.3 L 739.5 106 L 746.4 82.3 L 751.1 82.3 L 741.7 111.8 L 737.7 111.8 L 730 87.8 L 722.3 111.8 L 718.4 111.8 L 708.9 82.3 Z M 761.4 111.8 L 757.1 111.8 L 757.1 82.3 L 761.4 82.3 L 761.4 111.8 Z M 761.7 73.9 L 756.9 73.9 L 756.9 69.1 L 761.7 69.1 L 761.7 73.9 Z M 777.3 82.3 L 783.6 82.3 L 783.6 85.6 L 777.3 85.6 C 777.3 85.6 777.35 103.8 777.3 103.8 C 777.3 106.6 778.6 108.1 781.4 108.1 C 781.37 108.12 783.6 108.1 783.6 108.1 L 783.6 111.8 C 783.6 111.8 780.59 111.84 780.6 111.8 C 775.5 111.8 773 108.3 773 103.9 C 773.03 103.92 773 85.6 773 85.6 L 769.3 85.6 L 769.3 82.3 L 773 82.3 L 773 73.3 L 777.3 73.3 L 777.3 82.3 Z M 796.5 85.6 C 798.7 83.2 801.4 82 804.8 82 C 808 82 810.6 82.9 812.4 84.7 C 814.5 86.8 815.4 89.6 815.4 93 C 815.45 93 815.4 111.8 815.4 111.8 L 811.1 111.8 C 811.1 111.8 811.13 93.66 811.1 93.7 C 811.1 88.4 808.4 85.8 803.9 85.8 C 799.5 85.8 796.5 88.5 796.5 93.7 C 796.55 93.66 796.5 111.8 796.5 111.8 L 792.2 111.8 L 792.2 69.1 L 796.5 69.1 C 796.5 69.1 796.55 85.62 796.5 85.6 Z M 860.9 85.1 C 860.9 85.1 858 88 858 88 C 855.9 86.3 853.2 85.6 850.2 85.6 C 845.9 85.6 843.6 87.4 843.6 90.5 C 843.6 93.1 845.2 94.4 848.9 94.8 C 848.9 94.8 853.5 95.2 853.5 95.2 C 858.6 95.7 862.2 97.6 862.2 103.2 C 862.2 108.9 857.4 112.2 850.2 112.2 C 845.1 112.2 841.2 111.1 838.1 107.9 C 838.1 107.9 840.9 105.1 840.9 105.1 C 843.2 107.5 846.5 108.5 850.1 108.5 C 855 108.5 858 106.7 858 103.3 C 858 100.6 856.5 99.2 853.1 98.9 C 853.1 98.9 848.2 98.5 848.2 98.5 C 842.4 98 839.4 95.5 839.4 90.6 C 839.4 85.2 843.9 82 850.2 82 C 854.5 82 858.2 83 860.9 85.1 Z M 893.6 111.8 L 889.4 111.8 C 889.4 111.8 889.36 108.54 889.4 108.5 C 887.3 110.9 884.3 112.2 881 112.2 C 877.8 112.2 875.2 111.2 873.4 109.4 C 871.3 107.4 870.3 104.6 870.3 101.2 C 870.34 101.16 870.3 82.3 870.3 82.3 L 874.7 82.3 C 874.7 82.3 874.66 100.5 874.7 100.5 C 874.7 105.7 877.5 108.4 881.9 108.4 C 886.4 108.4 889.3 105.7 889.3 100.5 C 889.3 100.5 889.3 82.3 889.3 82.3 L 893.6 82.3 L 893.6 111.8 Z M 925.7 86.3 C 925.7 86.3 922.7 89.1 922.7 89.1 C 920.5 86.6 918.8 85.8 915.9 85.8 C 913.1 85.8 910.7 86.9 909.1 89.2 C 907.7 91.1 907.2 93.4 907.2 97.1 C 907.2 100.8 907.7 103.1 909.1 105 C 910.7 107.2 913.1 108.4 915.9 108.4 C 918.8 108.4 920.5 107.5 922.7 105 C 922.7 105 925.7 107.8 925.7 107.8 C 922.6 111.1 920 112.2 915.9 112.2 C 908.5 112.2 902.9 107.2 902.9 97.1 C 902.9 87 908.5 82 915.9 82 C 920 82 922.6 83 925.7 86.3 Z M 954.2 86.3 C 954.2 86.3 951.3 89.1 951.3 89.1 C 949.1 86.6 947.3 85.8 944.5 85.8 C 941.6 85.8 939.2 86.9 937.7 89.2 C 936.3 91.1 935.7 93.4 935.7 97.1 C 935.7 100.8 936.3 103.1 937.7 105 C 939.2 107.2 941.6 108.4 944.5 108.4 C 947.3 108.4 949.1 107.5 951.3 105 C 951.3 105 954.2 107.8 954.2 107.8 C 951.2 111.1 948.6 112.2 944.5 112.2 C 937.1 112.2 931.4 107.2 931.4 97.1 C 931.4 87 937.1 82 944.5 82 C 948.6 82 951.2 83 954.2 86.3 Z M 984.2 96.3 C 984.16 96.3 984.2 98.2 984.2 98.2 C 984.2 98.2 964.24 98.22 964.2 98.2 C 964.2 104.7 967.2 108.4 972.9 108.4 C 976.4 108.4 978.3 107.4 980.7 105.1 C 980.7 105.1 983.6 107.6 983.6 107.6 C 980.6 110.6 977.8 112.2 972.8 112.2 C 965 112.2 959.9 107.5 959.9 97.1 C 959.9 87.5 964.5 82 972 82 C 979.7 82 984.2 87.4 984.2 96.3 Z M 965.1 90.1 C 964.4 91.6 964.4 92.6 964.2 95 C 964.2 95 979.9 95 979.9 95 C 979.7 92.6 979.7 91.6 978.9 90.1 C 977.7 87.4 975.2 85.6 972 85.6 C 968.9 85.6 966.4 87.4 965.1 90.1 Z M 1013.3 85.1 C 1013.3 85.1 1010.5 88 1010.5 88 C 1008.4 86.3 1005.7 85.6 1002.6 85.6 C 998.3 85.6 996 87.4 996 90.5 C 996 93.1 997.7 94.4 1001.3 94.8 C 1001.3 94.8 1005.9 95.2 1005.9 95.2 C 1011.1 95.7 1014.6 97.6 1014.6 103.2 C 1014.6 108.9 1009.8 112.2 1002.6 112.2 C 997.6 112.2 993.7 111.1 990.5 107.9 C 990.5 107.9 993.4 105.1 993.4 105.1 C 995.7 107.5 998.9 108.5 1002.6 108.5 C 1007.5 108.5 1010.4 106.7 1010.4 103.3 C 1010.4 100.6 1009 99.2 1005.5 98.9 C 1005.5 98.9 1000.7 98.5 1000.7 98.5 C 994.9 98 991.8 95.5 991.8 90.6 C 991.8 85.2 996.3 82 1002.7 82 C 1007 82 1010.6 83 1013.3 85.1 Z M 1042.9 85.1 C 1042.9 85.1 1040.1 88 1040.1 88 C 1038 86.3 1035.3 85.6 1032.2 85.6 C 1027.9 85.6 1025.6 87.4 1025.6 90.5 C 1025.6 93.1 1027.2 94.4 1030.9 94.8 C 1030.9 94.8 1035.5 95.2 1035.5 95.2 C 1040.7 95.7 1044.2 97.6 1044.2 103.2 C 1044.2 108.9 1039.4 112.2 1032.2 112.2 C 1027.2 112.2 1023.3 111.1 1020.1 107.9 C 1020.1 107.9 1023 105.1 1023 105.1 C 1025.3 107.5 1028.5 108.5 1032.2 108.5 C 1037.1 108.5 1040 106.7 1040 103.3 C 1040 100.6 1038.6 99.2 1035.1 98.9 C 1035.1 98.9 1030.2 98.5 1030.2 98.5 C 1024.5 98 1021.4 95.5 1021.4 90.6 C 1021.4 85.2 1025.9 82 1032.3 82 C 1036.5 82 1040.2 83 1042.9 85.1 Z " stroke="none" fill="#fff"/>  </g>  <g id="Polygon20112">    <path d="M 35.9 45.8 L 31.1 45.8 L 27.7 36.2 L 9 36.2 L 5.6 45.8 L 0.7 45.8 L 16.4 3.1 L 20.3 3.1 L 35.9 45.8 Z M 10.4 32.2 L 26.3 32.2 L 18.4 9.6 L 10.4 32.2 Z M 76.7 18.7 C 76.7 18.7 73.5 22 73.5 22 C 71.9 20.3 70.7 19.8 68.4 19.8 C 64.1 19.8 61.3 23.2 61.3 27.7 C 61.32 27.72 61.3 45.8 61.3 45.8 L 57 45.8 L 57 16.3 L 61.3 16.3 C 61.3 16.3 61.32 19.92 61.3 19.9 C 62.9 17.5 66.2 16 69.6 16 C 72.4 16 74.6 16.6 76.7 18.7 Z M 103.1 30.3 C 103.08 30.3 103.1 32.2 103.1 32.2 C 103.1 32.2 83.16 32.22 83.2 32.2 C 83.2 38.7 86.2 42.4 91.9 42.4 C 95.3 42.4 97.3 41.4 99.6 39.1 C 99.6 39.1 102.5 41.6 102.5 41.6 C 99.5 44.6 96.7 46.2 91.7 46.2 C 83.9 46.2 78.8 41.5 78.8 31.1 C 78.8 21.5 83.5 16 91 16 C 98.6 16 103.1 21.4 103.1 30.3 Z M 84.1 24.1 C 83.3 25.6 83.3 26.6 83.2 29 C 83.2 29 98.8 29 98.8 29 C 98.6 26.6 98.6 25.6 97.9 24.1 C 96.6 21.4 94.1 19.6 91 19.6 C 87.8 19.6 85.3 21.4 84.1 24.1 Z M 132.2 19.1 C 132.2 19.1 129.4 22 129.4 22 C 127.3 20.3 124.6 19.6 121.6 19.6 C 117.2 19.6 115 21.4 115 24.5 C 115 27.1 116.6 28.4 120.2 28.8 C 120.2 28.8 124.9 29.2 124.9 29.2 C 130 29.7 133.6 31.6 133.6 37.2 C 133.6 42.9 128.8 46.2 121.6 46.2 C 116.5 46.2 112.6 45.1 109.4 41.9 C 109.4 41.9 112.3 39.1 112.3 39.1 C 114.6 41.5 117.8 42.5 121.5 42.5 C 126.4 42.5 129.4 40.7 129.4 37.3 C 129.4 34.6 127.9 33.2 124.4 32.9 C 124.4 32.9 119.6 32.5 119.6 32.5 C 113.8 32 110.8 29.5 110.8 24.6 C 110.8 19.2 115.3 16 121.6 16 C 125.9 16 129.5 17 132.2 19.1 Z M 161 19.3 C 164 22.3 164.6 26.5 164.6 31.1 C 164.6 35.6 164 39.8 161 42.8 C 158.9 44.9 156.1 46.2 152.5 46.2 C 148.9 46.2 146.1 44.9 144.1 42.8 C 141.1 39.8 140.5 35.6 140.5 31.1 C 140.5 26.5 141.1 22.3 144.1 19.3 C 146.1 17.2 148.9 16 152.5 16 C 156.1 16 158.9 17.2 161 19.3 Z M 147.2 22 C 145 24.1 144.8 27.7 144.8 31.1 C 144.8 34.4 145 38 147.2 40.2 C 148.6 41.6 150.4 42.4 152.5 42.4 C 154.6 42.4 156.5 41.6 157.9 40.2 C 160.1 38 160.3 34.4 160.3 31.1 C 160.3 27.7 160.1 24.1 157.9 22 C 156.5 20.5 154.6 19.8 152.5 19.8 C 150.4 19.8 148.6 20.5 147.2 22 Z M 196.8 45.8 L 192.5 45.8 C 192.5 45.8 192.54 42.54 192.5 42.5 C 190.4 44.9 187.5 46.2 184.2 46.2 C 181 46.2 178.4 45.2 176.6 43.4 C 174.5 41.4 173.5 38.6 173.5 35.2 C 173.52 35.16 173.5 16.3 173.5 16.3 L 177.8 16.3 C 177.8 16.3 177.84 34.5 177.8 34.5 C 177.8 39.7 180.7 42.4 185.1 42.4 C 189.5 42.4 192.5 39.7 192.5 34.5 C 192.48 34.5 192.5 16.3 192.5 16.3 L 196.8 16.3 L 196.8 45.8 Z M 227.3 18.7 C 227.3 18.7 224.1 22 224.1 22 C 222.5 20.3 221.3 19.8 219 19.8 C 214.7 19.8 211.9 23.2 211.9 27.7 C 211.92 27.72 211.9 45.8 211.9 45.8 L 207.6 45.8 L 207.6 16.3 L 211.9 16.3 C 211.9 16.3 211.92 19.92 211.9 19.9 C 213.5 17.5 216.8 16 220.2 16 C 223 16 225.2 16.6 227.3 18.7 Z M 252.3 20.3 C 252.3 20.3 249.4 23.1 249.4 23.1 C 247.1 20.6 245.4 19.8 242.6 19.8 C 239.7 19.8 237.3 20.9 235.7 23.2 C 234.4 25.1 233.8 27.4 233.8 31.1 C 233.8 34.8 234.4 37.1 235.7 39 C 237.3 41.2 239.7 42.4 242.6 42.4 C 245.4 42.4 247.1 41.5 249.4 39 C 249.4 39 252.3 41.8 252.3 41.8 C 249.2 45.1 246.7 46.2 242.6 46.2 C 235.1 46.2 229.5 41.2 229.5 31.1 C 229.5 21 235.1 16 242.6 16 C 246.7 16 249.2 17 252.3 20.3 Z M 282.2 30.3 C 282.24 30.3 282.2 32.2 282.2 32.2 C 282.2 32.2 262.32 32.22 262.3 32.2 C 262.3 38.7 265.3 42.4 271 42.4 C 274.4 42.4 276.4 41.4 278.8 39.1 C 278.8 39.1 281.7 41.6 281.7 41.6 C 278.7 44.6 275.9 46.2 270.9 46.2 C 263 46.2 258 41.5 258 31.1 C 258 21.5 262.6 16 270.1 16 C 277.8 16 282.2 21.4 282.2 30.3 Z M 263.2 24.1 C 262.5 25.6 262.4 26.6 262.3 29 C 262.3 29 278 29 278 29 C 277.8 26.6 277.7 25.6 277 24.1 C 275.8 21.4 273.3 19.6 270.1 19.6 C 266.9 19.6 264.5 21.4 263.2 24.1 Z M 311.4 16.3 L 317.7 16.3 L 317.7 19.6 L 311.4 19.6 C 311.4 19.6 311.4 37.8 311.4 37.8 C 311.4 40.6 312.7 42.1 315.4 42.1 C 315.42 42.12 317.7 42.1 317.7 42.1 L 317.7 45.8 C 317.7 45.8 314.64 45.84 314.6 45.8 C 309.6 45.8 307.1 42.3 307.1 37.9 C 307.08 37.92 307.1 19.6 307.1 19.6 L 303.4 19.6 L 303.4 16.3 L 307.1 16.3 L 307.1 7.3 L 311.4 7.3 L 311.4 16.3 Z M 344.9 19.3 C 347.9 22.3 348.5 26.5 348.5 31.1 C 348.5 35.6 347.9 39.8 344.9 42.8 C 342.9 44.9 340.1 46.2 336.5 46.2 C 332.9 46.2 330.1 44.9 328 42.8 C 325 39.8 324.4 35.6 324.4 31.1 C 324.4 26.5 325 22.3 328 19.3 C 330.1 17.2 332.9 16 336.5 16 C 340.1 16 342.9 17.2 344.9 19.3 Z M 331.1 22 C 329 24.1 328.7 27.7 328.7 31.1 C 328.7 34.4 328.9 38 331.1 40.2 C 332.6 41.6 334.4 42.4 336.5 42.4 C 338.6 42.4 340.4 41.6 341.9 40.2 C 344 38 344.2 34.4 344.2 31.1 C 344.2 27.7 344 24.1 341.9 22 C 340.4 20.5 338.6 19.8 336.5 19.8 C 334.4 19.8 332.6 20.5 331.1 22 Z M 377 19.6 C 379.2 17.2 381.9 16 385.3 16 C 388.5 16 391.1 16.9 392.9 18.7 C 395 20.8 395.9 23.6 395.9 27 C 395.94 27 395.9 45.8 395.9 45.8 L 391.6 45.8 C 391.6 45.8 391.62 27.66 391.6 27.7 C 391.6 22.4 388.9 19.8 384.4 19.8 C 380 19.8 377 22.5 377 27.7 C 377.04 27.66 377 45.8 377 45.8 L 372.7 45.8 L 372.7 3.1 L 377 3.1 C 377 3.1 377.04 19.62 377 19.6 Z M 429.1 30.3 C 429.05 30.3 429.1 32.2 429.1 32.2 C 429.1 32.2 409.13 32.22 409.1 32.2 C 409.1 38.7 412.1 42.4 417.8 42.4 C 421.3 42.4 423.2 41.4 425.6 39.1 C 425.6 39.1 428.5 41.6 428.5 41.6 C 425.5 44.6 422.7 46.2 417.7 46.2 C 409.9 46.2 404.8 41.5 404.8 31.1 C 404.8 21.5 409.4 16 416.9 16 C 424.6 16 429.1 21.4 429.1 30.3 Z M 410 24.1 C 409.3 25.6 409.3 26.6 409.1 29 C 409.1 29 424.8 29 424.8 29 C 424.6 26.6 424.6 25.6 423.8 24.1 C 422.6 21.4 420.1 19.6 416.9 19.6 C 413.8 19.6 411.3 21.4 410 24.1 Z M 442.4 37.8 C 442.4 40.7 443.4 42.1 446.4 42.1 C 446.39 42.12 448.7 42.1 448.7 42.1 L 448.7 45.8 C 448.7 45.8 445.61 45.84 445.6 45.8 C 440.5 45.8 438.1 42.5 438.1 38 C 438.11 37.98 438.1 3.1 438.1 3.1 L 442.4 3.1 C 442.4 3.1 442.43 37.8 442.4 37.8 Z M 475.9 18.5 C 478.9 21.5 479.5 26.3 479.5 31.1 C 479.5 35.8 478.9 40.6 475.9 43.6 C 474.4 45.2 471.8 46.2 468.7 46.2 C 465.5 46.2 462.8 45.4 460.4 42.4 C 460.37 42.36 460.4 59 460.4 59 L 456.1 59 L 456.1 16.3 L 460.4 16.3 C 460.4 16.3 460.37 19.8 460.4 19.8 C 462.8 16.7 465.4 16 468.7 16 C 471.8 16 474.4 17 475.9 18.5 Z M 460.4 31.1 C 460.4 36.8 461.3 42.4 467.8 42.4 C 474.2 42.4 475.2 36.8 475.2 31.1 C 475.2 25.3 474.2 19.8 467.8 19.8 C 461.3 19.8 460.4 25.3 460.4 31.1 Z M 510.8 53.5 C 510.2 55.1 509.6 56.2 508.7 57 C 507.2 58.5 505.1 59 503 59 C 502.97 59.04 501.1 59 501.1 59 L 501.1 55.2 C 501.1 55.2 502.43 55.2 502.4 55.2 C 505.4 55.2 506.3 54.2 507.3 51.5 C 507.29 51.54 509.6 45.2 509.6 45.2 L 499 16.3 L 503.6 16.3 L 511.7 40 L 519.8 16.3 L 524.5 16.3 C 524.5 16.3 510.83 53.52 510.8 53.5 Z M 549.2 19.3 C 552.2 22.3 552.8 26.5 552.8 31.1 C 552.8 35.6 552.2 39.8 549.2 42.8 C 547.1 44.9 544.3 46.2 540.7 46.2 C 537.1 46.2 534.3 44.9 532.3 42.8 C 529.3 39.8 528.7 35.6 528.7 31.1 C 528.7 26.5 529.3 22.3 532.3 19.3 C 534.3 17.2 537.1 16 540.7 16 C 544.3 16 547.1 17.2 549.2 19.3 Z M 535.4 22 C 533.2 24.1 533 27.7 533 31.1 C 533 34.4 533.2 38 535.4 40.2 C 536.8 41.6 538.6 42.4 540.7 42.4 C 542.8 42.4 544.7 41.6 546.1 40.2 C 548.3 38 548.5 34.4 548.5 31.1 C 548.5 27.7 548.3 24.1 546.1 22 C 544.7 20.5 542.8 19.8 540.7 19.8 C 538.6 19.8 536.8 20.5 535.4 22 Z M 585 45.8 L 580.7 45.8 C 580.7 45.8 580.73 42.54 580.7 42.5 C 578.6 44.9 575.7 46.2 572.4 46.2 C 569.2 46.2 566.6 45.2 564.8 43.4 C 562.7 41.4 561.7 38.6 561.7 35.2 C 561.71 35.16 561.7 16.3 561.7 16.3 L 566 16.3 C 566 16.3 566.03 34.5 566 34.5 C 566 39.7 568.9 42.4 573.3 42.4 C 577.7 42.4 580.7 39.7 580.7 34.5 C 580.67 34.5 580.7 16.3 580.7 16.3 L 585 16.3 L 585 45.8 Z M 630.7 19.1 C 630.7 19.1 627.9 22 627.9 22 C 625.8 20.3 623.1 19.6 620 19.6 C 615.7 19.6 613.4 21.4 613.4 24.5 C 613.4 27.1 615.1 28.4 618.7 28.8 C 618.7 28.8 623.3 29.2 623.3 29.2 C 628.5 29.7 632 31.6 632 37.2 C 632 42.9 627.2 46.2 620 46.2 C 615 46.2 611.1 45.1 607.9 41.9 C 607.9 41.9 610.8 39.1 610.8 39.1 C 613.1 41.5 616.3 42.5 620 42.5 C 624.9 42.5 627.8 40.7 627.8 37.3 C 627.8 34.6 626.4 33.2 622.9 32.9 C 622.9 32.9 618.1 32.5 618.1 32.5 C 612.3 32 609.2 29.5 609.2 24.6 C 609.2 19.2 613.7 16 620.1 16 C 624.4 16 628 17 630.7 19.1 Z M 663.5 45.8 L 659.2 45.8 C 659.2 45.8 659.21 42.54 659.2 42.5 C 657.1 44.9 654.2 46.2 650.9 46.2 C 647.7 46.2 645.1 45.2 643.3 43.4 C 641.2 41.4 640.2 38.6 640.2 35.2 C 640.19 35.16 640.2 16.3 640.2 16.3 L 644.5 16.3 C 644.5 16.3 644.51 34.5 644.5 34.5 C 644.5 39.7 647.3 42.4 651.8 42.4 C 656.2 42.4 659.2 39.7 659.2 34.5 C 659.15 34.5 659.2 16.3 659.2 16.3 L 663.5 16.3 L 663.5 45.8 Z M 678.6 19.7 C 681.1 16.7 683.7 16 686.9 16 C 690 16 692.6 17 694.1 18.5 C 697.1 21.5 697.7 26.3 697.7 31.1 C 697.7 35.8 697.1 40.6 694.1 43.6 C 692.6 45.2 690 46.2 686.9 46.2 C 683.6 46.2 681.1 45.4 678.6 42.3 C 678.59 42.3 678.6 45.8 678.6 45.8 L 674.3 45.8 L 674.3 3.1 L 678.6 3.1 C 678.6 3.1 678.59 19.74 678.6 19.7 Z M 678.6 31.1 C 678.6 36.8 679.6 42.4 686 42.4 C 692.5 42.4 693.4 36.8 693.4 31.1 C 693.4 25.3 692.5 19.8 686 19.8 C 679.6 19.8 678.6 25.3 678.6 31.1 Z M 746 18.7 C 748.1 20.8 749.2 23.5 749.2 26.9 C 749.21 26.94 749.2 45.8 749.2 45.8 L 744.9 45.8 C 744.9 45.8 744.89 27.66 744.9 27.7 C 744.9 22.4 742.1 19.8 737.6 19.8 C 733.3 19.8 730.3 22.5 730.3 27.2 C 730.25 27.18 730.3 45.8 730.3 45.8 L 725.9 45.8 C 725.9 45.8 725.93 27.66 725.9 27.7 C 725.9 22.4 723.1 19.8 718.7 19.8 C 714.2 19.8 711.3 22.5 711.3 27.7 C 711.29 27.66 711.3 45.8 711.3 45.8 L 707 45.8 L 707 16.3 L 711.3 16.3 C 711.3 16.3 711.29 19.56 711.3 19.6 C 713.4 17.2 716.3 16 719.6 16 C 723.7 16 726.9 17.6 728.7 20.9 C 731 17.6 734.3 16 738.4 16 C 741.6 16 744.2 17 746 18.7 Z M 764 45.8 L 759.7 45.8 L 759.7 16.3 L 764 16.3 L 764 45.8 Z M 764.3 7.9 L 759.5 7.9 L 759.5 3.1 L 764.3 3.1 L 764.3 7.9 Z M 779.9 16.3 L 786.2 16.3 L 786.2 19.6 L 779.9 19.6 C 779.9 19.6 779.93 37.8 779.9 37.8 C 779.9 40.6 781.2 42.1 784 42.1 C 783.95 42.12 786.2 42.1 786.2 42.1 L 786.2 45.8 C 786.2 45.8 783.17 45.84 783.2 45.8 C 778.1 45.8 775.6 42.3 775.6 37.9 C 775.61 37.92 775.6 19.6 775.6 19.6 L 771.9 19.6 L 771.9 16.3 L 775.6 16.3 L 775.6 7.3 L 779.9 7.3 L 779.9 16.3 Z " stroke="none" fill="#fff"/>  </g></svg>