<?xml version="1.0" standalone="no"?><!DOCTYPE svg PUBLIC "-//W3C//DTD SVG 1.1//EN" "http://www.w3.org/Graphics/SVG/1.1/DTD/svg11.dtd"><svg xmlns="http://www.w3.org/2000/svg" version="1.1" width="136px" height="32.7198486328125px" viewBox="0 0 136 32.7198486328125">  <desc>The application</desc>  <defs/>  <g id="Polygon29263">    <path d="M 6.9 2.6 L 4.5 2.6 L 4.5 15.3 L 2.8 15.3 L 2.8 2.6 L 0.4 2.6 L 0.4 1 L 6.9 1 L 6.9 2.6 Z M 10.1 5.7 C 10.2 5.4 10.5 5.2 10.7 5.1 C 11 4.9 11.4 4.8 11.8 4.8 C 12.6 4.8 13.1 5 13.6 5.5 C 14 6 14.2 6.5 14.2 7.7 C 14.18 7.66 14.2 15.3 14.2 15.3 L 12.6 15.3 C 12.6 15.3 12.56 7.66 12.6 7.7 C 12.6 6.7 12 6.2 11.3 6.2 C 10.6 6.2 10.1 6.7 10.1 7.7 C 10.1 7.66 10.1 15.3 10.1 15.3 L 8.5 15.3 L 8.5 1 L 10.1 1 C 10.1 1 10.1 5.66 10.1 5.7 Z M 17.7 10.5 C 17.7 12.1 17.7 13.1 18.1 13.5 C 18.3 13.8 18.6 14 19 14 C 19.4 14 19.7 13.9 19.9 13.6 C 20.2 13.3 20.3 12.9 20.3 12.4 C 20.3 12.4 21.9 12.4 21.9 12.4 C 21.9 13.3 21.6 14.1 21.1 14.7 C 20.6 15.2 19.9 15.4 19 15.4 C 18.1 15.4 17.5 15.2 17 14.6 C 16.2 13.8 16 12.3 16 10.1 C 16 7.9 16.2 6.4 16.9 5.6 C 17.5 5 18.1 4.8 19 4.8 C 19.8 4.8 20.5 5 21 5.6 C 21.8 6.4 21.9 7.9 21.9 10.5 C 21.9 10.5 17.7 10.5 17.7 10.5 Z M 19.9 6.6 C 19.7 6.4 19.4 6.2 19 6.2 C 18.5 6.2 18.3 6.4 18.1 6.6 C 17.8 7 17.7 7.8 17.7 9.3 C 17.7 9.3 20.3 9.3 20.3 9.3 C 20.3 7.8 20.2 7 19.9 6.6 Z M 32.1 5.5 C 32.6 6 32.9 6.7 32.9 7.8 C 32.94 7.76 32.9 15.3 32.9 15.3 L 31.4 15.3 C 31.4 15.3 31.4 14.36 31.4 14.4 C 31.2 14.6 31 14.9 30.8 15.1 C 30.5 15.3 30.1 15.4 29.6 15.4 C 28.8 15.4 28.3 15.2 27.8 14.7 C 27.4 14.2 27.1 13.4 27.1 12.3 C 27.1 11.4 27.5 10.5 28.1 10 C 28.6 9.5 29.2 9.3 30.3 9.3 C 30.26 9.3 31.3 9.3 31.3 9.3 C 31.3 9.3 31.32 7.66 31.3 7.7 C 31.3 6.7 30.9 6.2 30.1 6.2 C 29.7 6.2 29.5 6.3 29.3 6.5 C 29 6.8 28.9 7.2 28.9 7.7 C 28.9 7.7 27.3 7.7 27.3 7.7 C 27.3 6.9 27.5 6.1 28.1 5.5 C 28.6 5.1 29.3 4.8 30.1 4.8 C 30.9 4.8 31.6 5 32.1 5.5 Z M 30.4 10.5 C 29.9 10.5 29.6 10.6 29.2 10.9 C 28.9 11.1 28.8 11.7 28.8 12.3 C 28.8 13.4 29.2 14 30 14 C 30.8 14 31.3 13.4 31.3 12.4 C 31.32 12.4 31.3 10.5 31.3 10.5 C 31.3 10.5 30.4 10.48 30.4 10.5 Z M 40.9 10.1 C 40.9 12.6 40.9 13.9 40.2 14.7 C 39.7 15.2 39.2 15.4 38.5 15.4 C 38 15.4 37.7 15.3 37.3 15.1 C 37.1 15 36.9 14.8 36.8 14.6 C 36.76 14.56 36.8 19.2 36.8 19.2 L 35.1 19.2 L 35.1 4.9 L 36.7 4.9 C 36.7 4.9 36.72 5.72 36.7 5.7 C 36.8 5.5 37.1 5.2 37.3 5.1 C 37.7 4.9 38 4.8 38.5 4.8 C 39.2 4.8 39.7 5 40.2 5.5 C 40.9 6.3 40.9 7.7 40.9 10.1 Z M 36.8 7.7 C 36.8 7.7 36.8 12.5 36.8 12.5 C 36.8 13 36.9 13.4 37.2 13.7 C 37.4 13.9 37.7 14 38 14 C 38.4 14 38.7 13.8 38.9 13.6 C 39.3 13.1 39.3 12.3 39.3 10.1 C 39.3 8 39.3 7.1 38.9 6.6 C 38.7 6.4 38.4 6.2 38 6.2 C 37.7 6.2 37.4 6.3 37.2 6.5 C 36.9 6.8 36.8 7.2 36.8 7.7 Z M 48.7 10.1 C 48.7 12.6 48.6 13.9 47.9 14.7 C 47.5 15.2 46.9 15.4 46.2 15.4 C 45.8 15.4 45.4 15.3 45.1 15.1 C 44.9 15 44.7 14.8 44.5 14.6 C 44.52 14.56 44.5 19.2 44.5 19.2 L 42.9 19.2 L 42.9 4.9 L 44.5 4.9 C 44.5 4.9 44.48 5.72 44.5 5.7 C 44.6 5.5 44.9 5.2 45.1 5.1 C 45.4 4.9 45.8 4.8 46.2 4.8 C 46.9 4.8 47.5 5 47.9 5.5 C 48.6 6.3 48.7 7.7 48.7 10.1 Z M 44.5 7.7 C 44.5 7.7 44.5 12.5 44.5 12.5 C 44.5 13 44.7 13.4 44.9 13.7 C 45.1 13.9 45.4 14 45.8 14 C 46.1 14 46.4 13.8 46.6 13.6 C 47 13.1 47.1 12.3 47.1 10.1 C 47.1 8 47 7.1 46.6 6.6 C 46.4 6.4 46.1 6.2 45.8 6.2 C 45.4 6.2 45.1 6.3 44.9 6.5 C 44.7 6.8 44.5 7.2 44.5 7.7 Z M 52.2 12.3 C 52.2 13.3 52.7 13.8 53.7 13.8 C 53.7 13.8 53.7 15.3 53.7 15.3 C 52.9 15.3 52.1 15.2 51.5 14.6 C 50.9 14.2 50.6 13.5 50.6 12.3 C 50.58 12.32 50.6 1 50.6 1 L 52.2 1 C 52.2 1 52.2 12.26 52.2 12.3 Z M 56.8 15.3 L 55.2 15.3 L 55.2 4.9 L 56.8 4.9 L 56.8 15.3 Z M 57 3.1 L 55.1 3.1 L 55.1 1.2 L 57 1.2 L 57 3.1 Z M 59.6 5.7 C 60.1 5 60.9 4.8 61.7 4.8 C 62.6 4.8 63.2 4.9 63.8 5.5 C 64.4 6.1 64.6 6.9 64.6 7.8 C 64.6 7.8 63 7.8 63 7.8 C 63 7.4 62.9 6.9 62.7 6.6 C 62.4 6.3 62.2 6.2 61.8 6.2 C 61.4 6.2 61 6.4 60.8 6.6 C 60.5 7.2 60.4 8.2 60.4 10.1 C 60.4 12 60.5 13 60.8 13.6 C 61 13.8 61.4 14 61.8 14 C 62.2 14 62.4 13.9 62.7 13.6 C 62.9 13.3 63 12.8 63 12.4 C 63 12.4 64.6 12.4 64.6 12.4 C 64.6 13.3 64.4 14.1 63.8 14.7 C 63.2 15.3 62.6 15.4 61.7 15.4 C 60.9 15.4 60.1 15.2 59.6 14.5 C 58.9 13.7 58.8 12.2 58.8 10.1 C 58.8 8 58.9 6.5 59.6 5.7 Z M 70.8 5.5 C 71.3 6 71.6 6.7 71.6 7.8 C 71.64 7.76 71.6 15.3 71.6 15.3 L 70.1 15.3 C 70.1 15.3 70.1 14.36 70.1 14.4 C 69.9 14.6 69.7 14.9 69.5 15.1 C 69.2 15.3 68.8 15.4 68.3 15.4 C 67.5 15.4 67 15.2 66.5 14.7 C 66.1 14.2 65.8 13.4 65.8 12.3 C 65.8 11.4 66.2 10.5 66.8 10 C 67.3 9.5 67.9 9.3 69 9.3 C 68.96 9.3 70 9.3 70 9.3 C 70 9.3 70.02 7.66 70 7.7 C 70 6.7 69.6 6.2 68.8 6.2 C 68.4 6.2 68.2 6.3 68 6.5 C 67.7 6.8 67.6 7.2 67.6 7.7 C 67.6 7.7 66 7.7 66 7.7 C 66 6.9 66.2 6.1 66.8 5.5 C 67.3 5.1 68 4.8 68.8 4.8 C 69.6 4.8 70.3 5 70.8 5.5 Z M 69.1 10.5 C 68.6 10.5 68.3 10.6 67.9 10.9 C 67.6 11.1 67.5 11.7 67.5 12.3 C 67.5 13.4 67.9 14 68.7 14 C 69.5 14 70 13.4 70 12.4 C 70.02 12.4 70 10.5 70 10.5 C 70 10.5 69.1 10.48 69.1 10.5 Z M 75.1 14.6 C 74.5 14.2 74.2 13.4 74.2 12.3 C 74.22 12.32 74.2 6.2 74.2 6.2 L 73 6.2 L 73 4.9 L 74.2 4.9 L 74.2 2.1 L 75.8 2.1 L 75.8 4.9 L 77.4 4.9 L 77.4 6.2 L 75.8 6.2 C 75.8 6.2 75.84 12.26 75.8 12.3 C 75.8 13.4 76.4 13.8 77.5 13.8 C 77.5 13.8 77.5 15.3 77.5 15.3 C 76.6 15.3 75.8 15.2 75.1 14.6 Z M 80.7 15.3 L 79 15.3 L 79 4.9 L 80.7 4.9 L 80.7 15.3 Z M 80.8 3.1 L 78.9 3.1 L 78.9 1.2 L 80.8 1.2 L 80.8 3.1 Z M 87.8 5.7 C 88.4 6.5 88.5 8 88.5 10.1 C 88.5 12.2 88.4 13.7 87.8 14.5 C 87.2 15.2 86.5 15.4 85.6 15.4 C 84.6 15.4 83.9 15.2 83.4 14.5 C 82.7 13.7 82.6 12.2 82.6 10.1 C 82.6 8 82.7 6.5 83.4 5.7 C 83.9 5 84.6 4.8 85.6 4.8 C 86.5 4.8 87.2 5 87.8 5.7 Z M 84.7 6.7 C 84.3 7.2 84.2 8.2 84.2 10.1 C 84.2 12 84.3 13 84.7 13.5 C 84.9 13.8 85.2 14 85.6 14 C 85.9 14 86.3 13.8 86.5 13.5 C 86.9 13 86.9 12 86.9 10.1 C 86.9 8.2 86.9 7.2 86.5 6.7 C 86.3 6.4 85.9 6.2 85.6 6.2 C 85.2 6.2 84.9 6.4 84.7 6.7 Z M 95.5 5.5 C 96 6 96.2 6.5 96.2 7.7 C 96.16 7.66 96.2 15.3 96.2 15.3 L 94.5 15.3 C 94.5 15.3 94.54 7.66 94.5 7.7 C 94.5 6.7 94 6.2 93.3 6.2 C 92.6 6.2 92.1 6.7 92.1 7.7 C 92.08 7.66 92.1 15.3 92.1 15.3 L 90.5 15.3 L 90.5 4.9 L 92 4.9 C 92 4.9 92.02 5.72 92 5.7 C 92.2 5.5 92.4 5.2 92.7 5.1 C 93 4.9 93.4 4.8 93.8 4.8 C 94.6 4.8 95.1 5 95.5 5.5 Z " stroke="none" fill="#323e47"/>  </g></svg>