<?xml version="1.0" standalone="no"?><!DOCTYPE svg PUBLIC "-//W3C//DTD SVG 1.1//EN" "http://www.w3.org/Graphics/SVG/1.1/DTD/svg11.dtd"><svg xmlns="http://www.w3.org/2000/svg" version="1.1" width="640px" height="242.663818359375px" viewBox="0 0 640 242.663818359375">  <desc>It’s a best practice to set up a call to discuss the case with your wholesaler and underwriter.</desc>  <defs/>  <g id="Polygon27613">    <path d="M 52.7 179.1 C 52.7 179.1 51.5 180.2 51.5 180.2 C 50.6 179.3 49.9 178.9 48.8 178.9 C 47.6 178.9 46.7 179.4 46 180.3 C 45.5 181 45.3 181.9 45.3 183.4 C 45.3 184.9 45.5 185.8 46 186.6 C 46.7 187.5 47.6 187.9 48.8 187.9 C 49.9 187.9 50.6 187.6 51.5 186.6 C 51.5 186.6 52.7 187.7 52.7 187.7 C 51.4 189 50.4 189.5 48.8 189.5 C 45.8 189.5 43.5 187.5 43.5 183.4 C 43.5 179.4 45.8 177.4 48.8 177.4 C 50.4 177.4 51.4 177.8 52.7 179.1 Z M 64.2 181.3 C 64.25 181.32 64.2 189.3 64.2 189.3 L 62.5 189.3 C 62.5 189.3 62.52 188.21 62.5 188.2 C 61.6 189.1 60.7 189.5 59.1 189.5 C 57.5 189.5 56.6 189.2 55.8 188.4 C 55.2 187.8 54.9 186.9 54.9 186 C 54.9 183.9 56.4 182.6 59 182.6 C 58.99 182.59 62.5 182.6 62.5 182.6 C 62.5 182.6 62.52 181.46 62.5 181.5 C 62.5 179.8 61.7 178.9 59.5 178.9 C 58 178.9 57.2 179.3 56.5 180.2 C 56.5 180.2 55.3 179.2 55.3 179.2 C 56.4 177.8 57.6 177.4 59.5 177.4 C 62.7 177.4 64.2 178.8 64.2 181.3 Z M 59.2 183.9 C 57.5 183.9 56.6 184.6 56.6 186 C 56.6 187.3 57.4 188 59.3 188 C 60.3 188 61.2 187.9 61.9 187.2 C 62.3 186.8 62.5 186.1 62.5 185.2 C 62.52 185.16 62.5 183.9 62.5 183.9 C 62.5 183.9 59.23 183.89 59.2 183.9 Z M 76.4 178.7 C 76.4 178.7 75.3 179.8 75.3 179.8 C 74.5 179.1 73.4 178.8 72.2 178.8 C 70.4 178.8 69.5 179.6 69.5 180.8 C 69.5 181.8 70.2 182.4 71.6 182.5 C 71.6 182.5 73.5 182.7 73.5 182.7 C 75.6 182.9 77 183.6 77 185.9 C 77 188.2 75 189.5 72.2 189.5 C 70.2 189.5 68.6 189 67.3 187.8 C 67.3 187.8 68.5 186.6 68.5 186.6 C 69.4 187.6 70.7 188 72.1 188 C 74.1 188 75.3 187.3 75.3 185.9 C 75.3 184.8 74.7 184.3 73.3 184.2 C 73.3 184.2 71.4 184 71.4 184 C 69.1 183.8 67.8 182.8 67.8 180.8 C 67.8 178.7 69.6 177.4 72.2 177.4 C 73.9 177.4 75.4 177.8 76.4 178.7 Z M 89.4 183.1 C 89.4 183.12 89.4 183.9 89.4 183.9 C 89.4 183.9 81.43 183.89 81.4 183.9 C 81.4 186.5 82.6 188 84.9 188 C 86.3 188 87.1 187.6 88 186.6 C 88 186.6 89.2 187.7 89.2 187.7 C 88 188.9 86.9 189.5 84.9 189.5 C 81.7 189.5 79.7 187.6 79.7 183.4 C 79.7 179.6 81.6 177.4 84.6 177.4 C 87.6 177.4 89.4 179.6 89.4 183.1 Z M 81.8 180.6 C 81.5 181.2 81.5 181.6 81.4 182.6 C 81.4 182.6 87.7 182.6 87.7 182.6 C 87.6 181.6 87.6 181.2 87.3 180.6 C 86.8 179.5 85.8 178.8 84.6 178.8 C 83.3 178.8 82.3 179.5 81.8 180.6 Z M 97.2 177.5 L 99 177.5 L 101.8 187 L 104.8 177.5 L 106.3 177.5 L 109.4 187 L 112.1 177.5 L 114 177.5 L 110.3 189.3 L 108.6 189.3 L 105.6 179.7 L 102.5 189.3 L 100.9 189.3 L 97.2 177.5 Z M 118.2 189.3 L 116.4 189.3 L 116.4 177.5 L 118.2 177.5 L 118.2 189.3 Z M 118.3 174.2 L 116.3 174.2 L 116.3 172.2 L 118.3 172.2 L 118.3 174.2 Z M 124.5 177.5 L 127 177.5 L 127 178.8 L 124.5 178.8 C 124.5 178.8 124.51 186.12 124.5 186.1 C 124.5 187.2 125 187.8 126.1 187.8 C 126.12 187.85 127 187.8 127 187.8 L 127 189.3 C 127 189.3 125.81 189.34 125.8 189.3 C 123.8 189.3 122.8 187.9 122.8 186.2 C 122.78 186.17 122.8 178.8 122.8 178.8 L 121.3 178.8 L 121.3 177.5 L 122.8 177.5 L 122.8 173.9 L 124.5 173.9 L 124.5 177.5 Z M 132.2 178.8 C 133.1 177.9 134.1 177.4 135.5 177.4 C 136.8 177.4 137.8 177.8 138.6 178.5 C 139.4 179.3 139.8 180.4 139.8 181.8 C 139.75 181.8 139.8 189.3 139.8 189.3 L 138 189.3 C 138 189.3 138.02 182.06 138 182.1 C 138 180 136.9 178.9 135.1 178.9 C 133.4 178.9 132.2 180 132.2 182.1 C 132.19 182.06 132.2 189.3 132.2 189.3 L 130.5 189.3 L 130.5 172.2 L 132.2 172.2 C 132.2 172.2 132.19 178.85 132.2 178.8 Z M 152.8 192.4 C 152.5 193.1 152.3 193.5 151.9 193.8 C 151.3 194.4 150.5 194.6 149.6 194.6 C 149.64 194.62 148.9 194.6 148.9 194.6 L 148.9 193.1 C 148.9 193.1 149.42 193.08 149.4 193.1 C 150.6 193.1 151 192.7 151.4 191.6 C 151.37 191.62 152.3 189.1 152.3 189.1 L 148 177.5 L 149.9 177.5 L 153.1 187 L 156.4 177.5 L 158.2 177.5 C 158.2 177.5 152.78 192.41 152.8 192.4 Z M 168.1 178.7 C 169.3 179.9 169.6 181.6 169.6 183.4 C 169.6 185.3 169.3 186.9 168.1 188.1 C 167.3 189 166.2 189.5 164.7 189.5 C 163.3 189.5 162.2 189 161.4 188.1 C 160.2 186.9 159.9 185.3 159.9 183.4 C 159.9 181.6 160.2 179.9 161.4 178.7 C 162.2 177.9 163.3 177.4 164.7 177.4 C 166.2 177.4 167.3 177.9 168.1 178.7 Z M 162.6 179.8 C 161.7 180.6 161.6 182.1 161.6 183.4 C 161.6 184.8 161.7 186.2 162.6 187.1 C 163.2 187.7 163.9 187.9 164.7 187.9 C 165.6 187.9 166.3 187.7 166.9 187.1 C 167.8 186.2 167.8 184.8 167.8 183.4 C 167.8 182.1 167.8 180.6 166.9 179.8 C 166.3 179.2 165.6 178.9 164.7 178.9 C 163.9 178.9 163.2 179.2 162.6 179.8 Z M 182.4 189.3 L 180.7 189.3 C 180.7 189.3 180.74 188.02 180.7 188 C 179.9 189 178.7 189.5 177.4 189.5 C 176.1 189.5 175.1 189.1 174.4 188.4 C 173.5 187.6 173.1 186.4 173.1 185.1 C 173.13 185.06 173.1 177.5 173.1 177.5 L 174.9 177.5 C 174.9 177.5 174.86 184.8 174.9 184.8 C 174.9 186.9 176 187.9 177.8 187.9 C 179.5 187.9 180.7 186.9 180.7 184.8 C 180.72 184.8 180.7 177.5 180.7 177.5 L 182.4 177.5 L 182.4 189.3 Z M 194.6 178.5 C 194.6 178.5 193.4 179.8 193.4 179.8 C 192.7 179.1 192.2 178.9 191.3 178.9 C 189.6 178.9 188.5 180.3 188.5 182.1 C 188.49 182.09 188.5 189.3 188.5 189.3 L 186.8 189.3 L 186.8 177.5 L 188.5 177.5 C 188.5 177.5 188.49 178.97 188.5 179 C 189.1 178 190.4 177.4 191.8 177.4 C 192.9 177.4 193.8 177.6 194.6 178.5 Z M 200.9 177.5 L 202.8 177.5 L 205.6 187 L 208.6 177.5 L 210.1 177.5 L 213.2 187 L 215.9 177.5 L 217.8 177.5 L 214.1 189.3 L 212.4 189.3 L 209.4 179.7 L 206.3 189.3 L 204.7 189.3 L 200.9 177.5 Z M 221.9 178.8 C 222.8 177.9 223.9 177.4 225.3 177.4 C 226.5 177.4 227.6 177.8 228.3 178.5 C 229.1 179.3 229.5 180.4 229.5 181.8 C 229.51 181.8 229.5 189.3 229.5 189.3 L 227.8 189.3 C 227.8 189.3 227.78 182.06 227.8 182.1 C 227.8 180 226.7 178.9 224.9 178.9 C 223.1 178.9 221.9 180 221.9 182.1 C 221.95 182.06 221.9 189.3 221.9 189.3 L 220.2 189.3 L 220.2 172.2 L 221.9 172.2 C 221.9 172.2 221.95 178.85 221.9 178.8 Z M 241.3 178.7 C 242.5 179.9 242.7 181.6 242.7 183.4 C 242.7 185.3 242.5 186.9 241.3 188.1 C 240.5 189 239.3 189.5 237.9 189.5 C 236.5 189.5 235.3 189 234.5 188.1 C 233.3 186.9 233.1 185.3 233.1 183.4 C 233.1 181.6 233.3 179.9 234.5 178.7 C 235.3 177.9 236.5 177.4 237.9 177.4 C 239.3 177.4 240.5 177.9 241.3 178.7 Z M 235.8 179.8 C 234.9 180.6 234.8 182.1 234.8 183.4 C 234.8 184.8 234.9 186.2 235.8 187.1 C 236.3 187.7 237.1 187.9 237.9 187.9 C 238.7 187.9 239.5 187.7 240.1 187.1 C 240.9 186.2 241 184.8 241 183.4 C 241 182.1 240.9 180.6 240.1 179.8 C 239.5 179.2 238.7 178.9 237.9 178.9 C 237.1 178.9 236.3 179.2 235.8 179.8 Z M 248.1 186.1 C 248.1 187.3 248.5 187.8 249.7 187.8 C 249.69 187.85 250.6 187.8 250.6 187.8 L 250.6 189.3 C 250.6 189.3 249.38 189.34 249.4 189.3 C 247.3 189.3 246.4 188 246.4 186.2 C 246.38 186.19 246.4 172.2 246.4 172.2 L 248.1 172.2 C 248.1 172.2 248.11 186.12 248.1 186.1 Z M 262.4 183.1 C 262.37 183.12 262.4 183.9 262.4 183.9 C 262.4 183.9 254.4 183.89 254.4 183.9 C 254.4 186.5 255.6 188 257.9 188 C 259.2 188 260 187.6 261 186.6 C 261 186.6 262.1 187.7 262.1 187.7 C 260.9 188.9 259.8 189.5 257.8 189.5 C 254.7 189.5 252.7 187.6 252.7 183.4 C 252.7 179.6 254.5 177.4 257.5 177.4 C 260.6 177.4 262.4 179.6 262.4 183.1 Z M 254.8 180.6 C 254.5 181.2 254.4 181.6 254.4 182.6 C 254.4 182.6 260.7 182.6 260.7 182.6 C 260.6 181.6 260.6 181.2 260.3 180.6 C 259.8 179.5 258.8 178.8 257.5 178.8 C 256.2 178.8 255.3 179.5 254.8 180.6 Z M 274 178.7 C 274 178.7 272.9 179.8 272.9 179.8 C 272.1 179.1 271 178.8 269.8 178.8 C 268 178.8 267.1 179.6 267.1 180.8 C 267.1 181.8 267.8 182.4 269.2 182.5 C 269.2 182.5 271.1 182.7 271.1 182.7 C 273.1 182.9 274.6 183.6 274.6 185.9 C 274.6 188.2 272.6 189.5 269.8 189.5 C 267.7 189.5 266.2 189 264.9 187.8 C 264.9 187.8 266.1 186.6 266.1 186.6 C 267 187.6 268.3 188 269.7 188 C 271.7 188 272.9 187.3 272.9 185.9 C 272.9 184.8 272.3 184.3 270.9 184.2 C 270.9 184.2 269 184 269 184 C 266.7 183.8 265.4 182.8 265.4 180.8 C 265.4 178.7 267.2 177.4 269.8 177.4 C 271.5 177.4 272.9 177.8 274 178.7 Z M 286.4 181.3 C 286.37 181.32 286.4 189.3 286.4 189.3 L 284.6 189.3 C 284.6 189.3 284.64 188.21 284.6 188.2 C 283.7 189.1 282.8 189.5 281.2 189.5 C 279.6 189.5 278.7 189.2 277.9 188.4 C 277.3 187.8 277 186.9 277 186 C 277 183.9 278.5 182.6 281.1 182.6 C 281.11 182.59 284.6 182.6 284.6 182.6 C 284.6 182.6 284.64 181.46 284.6 181.5 C 284.6 179.8 283.8 178.9 281.6 178.9 C 280.1 178.9 279.4 179.3 278.6 180.2 C 278.6 180.2 277.5 179.2 277.5 179.2 C 278.5 177.8 279.7 177.4 281.6 177.4 C 284.8 177.4 286.4 178.8 286.4 181.3 Z M 281.3 183.9 C 279.6 183.9 278.7 184.6 278.7 186 C 278.7 187.3 279.5 188 281.4 188 C 282.4 188 283.3 187.9 284 187.2 C 284.4 186.8 284.6 186.1 284.6 185.2 C 284.64 185.16 284.6 183.9 284.6 183.9 C 284.6 183.9 281.35 183.89 281.3 183.9 Z M 292.2 186.1 C 292.2 187.3 292.6 187.8 293.8 187.8 C 293.83 187.85 294.8 187.8 294.8 187.8 L 294.8 189.3 C 294.8 189.3 293.52 189.34 293.5 189.3 C 291.5 189.3 290.5 188 290.5 186.2 C 290.52 186.19 290.5 172.2 290.5 172.2 L 292.2 172.2 C 292.2 172.2 292.25 186.12 292.2 186.1 Z M 306.5 183.1 C 306.5 183.12 306.5 183.9 306.5 183.9 C 306.5 183.9 298.53 183.89 298.5 183.9 C 298.5 186.5 299.7 188 302 188 C 303.4 188 304.2 187.6 305.1 186.6 C 305.1 186.6 306.3 187.7 306.3 187.7 C 305.1 188.9 304 189.5 302 189.5 C 298.8 189.5 296.8 187.6 296.8 183.4 C 296.8 179.6 298.7 177.4 301.7 177.4 C 304.7 177.4 306.5 179.6 306.5 183.1 Z M 298.9 180.6 C 298.6 181.2 298.6 181.6 298.5 182.6 C 298.5 182.6 304.8 182.6 304.8 182.6 C 304.7 181.6 304.7 181.2 304.4 180.6 C 303.9 179.5 302.9 178.8 301.7 178.8 C 300.4 178.8 299.4 179.5 298.9 180.6 Z M 318 178.5 C 318 178.5 316.8 179.8 316.8 179.8 C 316.1 179.1 315.6 178.9 314.7 178.9 C 313 178.9 311.9 180.3 311.9 182.1 C 311.9 182.09 311.9 189.3 311.9 189.3 L 310.2 189.3 L 310.2 177.5 L 311.9 177.5 C 311.9 177.5 311.9 178.97 311.9 179 C 312.5 178 313.8 177.4 315.2 177.4 C 316.3 177.4 317.2 177.6 318 178.5 Z M 334.7 181.3 C 334.68 181.32 334.7 189.3 334.7 189.3 L 332.9 189.3 C 332.9 189.3 332.95 188.21 332.9 188.2 C 332 189.1 331.1 189.5 329.5 189.5 C 327.9 189.5 327 189.2 326.2 188.4 C 325.6 187.8 325.3 186.9 325.3 186 C 325.3 183.9 326.8 182.6 329.4 182.6 C 329.42 182.59 332.9 182.6 332.9 182.6 C 332.9 182.6 332.95 181.46 332.9 181.5 C 332.9 179.8 332.1 178.9 329.9 178.9 C 328.4 178.9 327.7 179.3 326.9 180.2 C 326.9 180.2 325.8 179.2 325.8 179.2 C 326.8 177.8 328 177.4 329.9 177.4 C 333.1 177.4 334.7 178.8 334.7 181.3 Z M 329.7 183.9 C 327.9 183.9 327 184.6 327 186 C 327 187.3 327.8 188 329.7 188 C 330.7 188 331.6 187.9 332.3 187.2 C 332.8 186.8 332.9 186.1 332.9 185.2 C 332.95 185.16 332.9 183.9 332.9 183.9 C 332.9 183.9 329.66 183.89 329.7 183.9 Z M 347 178.5 C 347.8 179.3 348.2 180.4 348.2 181.8 C 348.19 181.8 348.2 189.3 348.2 189.3 L 346.5 189.3 C 346.5 189.3 346.46 182.06 346.5 182.1 C 346.5 180 345.3 178.9 343.6 178.9 C 341.8 178.9 340.6 180 340.6 182.1 C 340.6 182.06 340.6 189.3 340.6 189.3 L 338.9 189.3 L 338.9 177.5 L 340.6 177.5 C 340.6 177.5 340.58 178.85 340.6 178.8 C 341.4 177.9 342.6 177.4 343.9 177.4 C 345.2 177.4 346.2 177.8 347 178.5 Z M 361.1 189.3 L 359.4 189.3 C 359.4 189.3 359.42 187.94 359.4 187.9 C 358.4 189.2 357.4 189.5 356.1 189.5 C 354.9 189.5 353.8 189.1 353.2 188.4 C 352 187.3 351.8 185.3 351.8 183.4 C 351.8 181.5 352 179.6 353.2 178.4 C 353.8 177.8 354.9 177.4 356.1 177.4 C 357.4 177.4 358.4 177.7 359.4 178.9 C 359.42 178.92 359.4 172.2 359.4 172.2 L 361.1 172.2 L 361.1 189.3 Z M 353.5 183.4 C 353.5 185.7 353.9 187.9 356.4 187.9 C 359 187.9 359.4 185.7 359.4 183.4 C 359.4 181.1 359 178.9 356.4 178.9 C 353.9 178.9 353.5 181.1 353.5 183.4 Z M 380.6 189.3 L 378.9 189.3 C 378.9 189.3 378.93 188.02 378.9 188 C 378.1 189 376.9 189.5 375.6 189.5 C 374.3 189.5 373.3 189.1 372.5 188.4 C 371.7 187.6 371.3 186.4 371.3 185.1 C 371.32 185.06 371.3 177.5 371.3 177.5 L 373.1 177.5 C 373.1 177.5 373.05 184.8 373.1 184.8 C 373.1 186.9 374.2 187.9 376 187.9 C 377.7 187.9 378.9 186.9 378.9 184.8 C 378.91 184.8 378.9 177.5 378.9 177.5 L 380.6 177.5 L 380.6 189.3 Z M 393 178.5 C 393.9 179.3 394.3 180.4 394.3 181.8 C 394.27 181.8 394.3 189.3 394.3 189.3 L 392.5 189.3 C 392.5 189.3 392.54 182.06 392.5 182.1 C 392.5 180 391.4 178.9 389.6 178.9 C 387.9 178.9 386.7 180 386.7 182.1 C 386.68 182.06 386.7 189.3 386.7 189.3 L 385 189.3 L 385 177.5 L 386.7 177.5 C 386.7 177.5 386.66 178.85 386.7 178.8 C 387.5 177.9 388.7 177.4 390 177.4 C 391.3 177.4 392.3 177.8 393 178.5 Z M 407.2 189.3 L 405.5 189.3 C 405.5 189.3 405.5 187.94 405.5 187.9 C 404.5 189.2 403.5 189.5 402.2 189.5 C 400.9 189.5 399.9 189.1 399.3 188.4 C 398.1 187.3 397.8 185.3 397.8 183.4 C 397.8 181.5 398.1 179.6 399.3 178.4 C 399.9 177.8 400.9 177.4 402.2 177.4 C 403.5 177.4 404.5 177.7 405.5 178.9 C 405.5 178.92 405.5 172.2 405.5 172.2 L 407.2 172.2 L 407.2 189.3 Z M 399.6 183.4 C 399.6 185.7 400 187.9 402.5 187.9 C 405.1 187.9 405.5 185.7 405.5 183.4 C 405.5 181.1 405.1 178.9 402.5 178.9 C 400 178.9 399.6 181.1 399.6 183.4 Z M 420.6 183.1 C 420.6 183.12 420.6 183.9 420.6 183.9 C 420.6 183.9 412.63 183.89 412.6 183.9 C 412.6 186.5 413.8 188 416.1 188 C 417.5 188 418.3 187.6 419.2 186.6 C 419.2 186.6 420.4 187.7 420.4 187.7 C 419.2 188.9 418.1 189.5 416.1 189.5 C 412.9 189.5 410.9 187.6 410.9 183.4 C 410.9 179.6 412.7 177.4 415.7 177.4 C 418.8 177.4 420.6 179.6 420.6 183.1 Z M 413 180.6 C 412.7 181.2 412.7 181.6 412.6 182.6 C 412.6 182.6 418.9 182.6 418.9 182.6 C 418.8 181.6 418.8 181.2 418.5 180.6 C 418 179.5 417 178.8 415.7 178.8 C 414.5 178.8 413.5 179.5 413 180.6 Z M 432.1 178.5 C 432.1 178.5 430.9 179.8 430.9 179.8 C 430.2 179.1 429.7 178.9 428.8 178.9 C 427.1 178.9 426 180.3 426 182.1 C 426 182.09 426 189.3 426 189.3 L 424.3 189.3 L 424.3 177.5 L 426 177.5 C 426 177.5 426 178.97 426 179 C 426.6 178 427.9 177.4 429.3 177.4 C 430.4 177.4 431.3 177.6 432.1 178.5 Z M 432.7 177.5 L 434.6 177.5 L 437.3 187 L 440.4 177.5 L 441.9 177.5 L 445 187 L 447.7 177.5 L 449.6 177.5 L 445.8 189.3 L 444.2 189.3 L 441.1 179.7 L 438.1 189.3 L 436.5 189.3 L 432.7 177.5 Z M 459.9 178.5 C 459.9 178.5 458.6 179.8 458.6 179.8 C 457.9 179.1 457.5 178.9 456.5 178.9 C 454.8 178.9 453.7 180.3 453.7 182.1 C 453.71 182.09 453.7 189.3 453.7 189.3 L 452 189.3 L 452 177.5 L 453.7 177.5 C 453.7 177.5 453.71 178.97 453.7 179 C 454.4 178 455.7 177.4 457 177.4 C 458.2 177.4 459 177.6 459.9 178.5 Z M 463.8 189.3 L 462.1 189.3 L 462.1 177.5 L 463.8 177.5 L 463.8 189.3 Z M 463.9 174.2 L 462 174.2 L 462 172.2 L 463.9 172.2 L 463.9 174.2 Z M 470.2 177.5 L 472.7 177.5 L 472.7 178.8 L 470.2 178.8 C 470.2 178.8 470.18 186.12 470.2 186.1 C 470.2 187.2 470.7 187.8 471.8 187.8 C 471.79 187.85 472.7 187.8 472.7 187.8 L 472.7 189.3 C 472.7 189.3 471.47 189.34 471.5 189.3 C 469.5 189.3 468.5 187.9 468.5 186.2 C 468.45 186.17 468.5 178.8 468.5 178.8 L 467 178.8 L 467 177.5 L 468.5 177.5 L 468.5 173.9 L 470.2 173.9 L 470.2 177.5 Z M 485.1 183.1 C 485.06 183.12 485.1 183.9 485.1 183.9 C 485.1 183.9 477.09 183.89 477.1 183.9 C 477.1 186.5 478.3 188 480.6 188 C 481.9 188 482.7 187.6 483.7 186.6 C 483.7 186.6 484.8 187.7 484.8 187.7 C 483.6 188.9 482.5 189.5 480.5 189.5 C 477.4 189.5 475.4 187.6 475.4 183.4 C 475.4 179.6 477.2 177.4 480.2 177.4 C 483.3 177.4 485.1 179.6 485.1 183.1 Z M 477.5 180.6 C 477.2 181.2 477.1 181.6 477.1 182.6 C 477.1 182.6 483.4 182.6 483.4 182.6 C 483.3 181.6 483.3 181.2 483 180.6 C 482.5 179.5 481.5 178.8 480.2 178.8 C 478.9 178.8 478 179.5 477.5 180.6 Z M 496.6 178.5 C 496.6 178.5 495.3 179.8 495.3 179.8 C 494.7 179.1 494.2 178.9 493.3 178.9 C 491.6 178.9 490.5 180.3 490.5 182.1 C 490.46 182.09 490.5 189.3 490.5 189.3 L 488.7 189.3 L 488.7 177.5 L 490.5 177.5 C 490.5 177.5 490.46 178.97 490.5 179 C 491.1 178 492.4 177.4 493.8 177.4 C 494.9 177.4 495.8 177.6 496.6 178.5 Z M 499.1 189.3 L 496.9 189.3 L 496.9 187.1 L 499.1 187.1 L 499.1 189.3 Z " stroke="none" fill="#000"/>  </g>  <g id="Polygon27612">    <path d="M 46.3 155.3 L 44.5 155.3 L 44.5 138.2 L 46.3 138.2 L 46.3 155.3 Z M 52.9 143.5 L 55.5 143.5 L 55.5 144.8 L 52.9 144.8 C 52.9 144.8 52.94 152.12 52.9 152.1 C 52.9 153.2 53.4 153.8 54.6 153.8 C 54.55 153.85 55.5 153.8 55.5 153.8 L 55.5 155.3 C 55.5 155.3 54.24 155.34 54.2 155.3 C 52.2 155.3 51.2 153.9 51.2 152.2 C 51.22 152.17 51.2 144.8 51.2 144.8 L 49.7 144.8 L 49.7 143.5 L 51.2 143.5 L 51.2 139.9 L 52.9 139.9 L 52.9 143.5 Z M 61 140.5 L 58.9 142.4 L 58.9 138.2 L 61 138.2 L 61 140.5 Z M 72.8 144.7 C 72.8 144.7 71.7 145.8 71.7 145.8 C 70.8 145.1 69.8 144.8 68.5 144.8 C 66.8 144.8 65.9 145.6 65.9 146.8 C 65.9 147.8 66.6 148.4 68 148.5 C 68 148.5 69.9 148.7 69.9 148.7 C 71.9 148.9 73.3 149.6 73.3 151.9 C 73.3 154.2 71.4 155.5 68.5 155.5 C 66.5 155.5 65 155 63.7 153.8 C 63.7 153.8 64.8 152.6 64.8 152.6 C 65.8 153.6 67.1 154 68.5 154 C 70.5 154 71.7 153.3 71.7 151.9 C 71.7 150.8 71.1 150.3 69.7 150.2 C 69.7 150.2 67.8 150 67.8 150 C 65.4 149.8 64.2 148.8 64.2 146.8 C 64.2 144.7 66 143.4 68.6 143.4 C 70.3 143.4 71.7 143.8 72.8 144.7 Z M 91.1 147.3 C 91.13 147.32 91.1 155.3 91.1 155.3 L 89.4 155.3 C 89.4 155.3 89.4 154.21 89.4 154.2 C 88.5 155.1 87.6 155.5 86 155.5 C 84.4 155.5 83.5 155.2 82.7 154.4 C 82.1 153.8 81.8 152.9 81.8 152 C 81.8 149.9 83.2 148.6 85.9 148.6 C 85.87 148.59 89.4 148.6 89.4 148.6 C 89.4 148.6 89.4 147.46 89.4 147.5 C 89.4 145.8 88.6 144.9 86.4 144.9 C 84.9 144.9 84.1 145.3 83.4 146.2 C 83.4 146.2 82.2 145.2 82.2 145.2 C 83.3 143.8 84.5 143.4 86.4 143.4 C 89.6 143.4 91.1 144.8 91.1 147.3 Z M 86.1 149.9 C 84.3 149.9 83.4 150.6 83.4 152 C 83.4 153.3 84.3 154 86.2 154 C 87.2 154 88 153.9 88.8 153.2 C 89.2 152.8 89.4 152.1 89.4 151.2 C 89.4 151.16 89.4 149.9 89.4 149.9 C 89.4 149.9 86.11 149.89 86.1 149.9 Z M 103 144.9 C 104 143.7 105.1 143.4 106.4 143.4 C 107.6 143.4 108.6 143.8 109.2 144.4 C 110.4 145.6 110.7 147.5 110.7 149.4 C 110.7 151.3 110.4 153.2 109.2 154.4 C 108.6 155.1 107.6 155.5 106.4 155.5 C 105 155.5 104 155.2 103 153.9 C 103.03 153.92 103 155.3 103 155.3 L 101.3 155.3 L 101.3 138.2 L 103 138.2 C 103 138.2 103.03 144.9 103 144.9 Z M 103 149.4 C 103 151.7 103.4 153.9 106 153.9 C 108.6 153.9 109 151.7 109 149.4 C 109 147.1 108.6 144.9 106 144.9 C 103.4 144.9 103 147.1 103 149.4 Z M 123.4 149.1 C 123.43 149.12 123.4 149.9 123.4 149.9 C 123.4 149.9 115.46 149.89 115.5 149.9 C 115.5 152.5 116.7 154 118.9 154 C 120.3 154 121.1 153.6 122 152.6 C 122 152.6 123.2 153.7 123.2 153.7 C 122 154.9 120.9 155.5 118.9 155.5 C 115.8 155.5 113.7 153.6 113.7 149.4 C 113.7 145.6 115.6 143.4 118.6 143.4 C 121.7 143.4 123.4 145.6 123.4 149.1 Z M 115.8 146.6 C 115.5 147.2 115.5 147.6 115.5 148.6 C 115.5 148.6 121.7 148.6 121.7 148.6 C 121.7 147.6 121.6 147.2 121.3 146.6 C 120.8 145.5 119.9 144.8 118.6 144.8 C 117.3 144.8 116.3 145.5 115.8 146.6 Z M 135.1 144.7 C 135.1 144.7 134 145.8 134 145.8 C 133.1 145.1 132 144.8 130.8 144.8 C 129.1 144.8 128.2 145.6 128.2 146.8 C 128.2 147.8 128.8 148.4 130.3 148.5 C 130.3 148.5 132.1 148.7 132.1 148.7 C 134.2 148.9 135.6 149.6 135.6 151.9 C 135.6 154.2 133.7 155.5 130.8 155.5 C 128.8 155.5 127.2 155 126 153.8 C 126 153.8 127.1 152.6 127.1 152.6 C 128 153.6 129.3 154 130.8 154 C 132.8 154 133.9 153.3 133.9 151.9 C 133.9 150.8 133.4 150.3 132 150.2 C 132 150.2 130 150 130 150 C 127.7 149.8 126.5 148.8 126.5 146.8 C 126.5 144.7 128.3 143.4 130.8 143.4 C 132.6 143.4 134 143.8 135.1 144.7 Z M 140.8 143.5 L 143.3 143.5 L 143.3 144.8 L 140.8 144.8 C 140.8 144.8 140.81 152.12 140.8 152.1 C 140.8 153.2 141.3 153.8 142.4 153.8 C 142.41 153.85 143.3 153.8 143.3 153.8 L 143.3 155.3 C 143.3 155.3 142.1 155.34 142.1 155.3 C 140.1 155.3 139.1 153.9 139.1 152.2 C 139.08 152.17 139.1 144.8 139.1 144.8 L 137.6 144.8 L 137.6 143.5 L 139.1 143.5 L 139.1 139.9 L 140.8 139.9 L 140.8 143.5 Z M 160.7 144.4 C 161.9 145.6 162.1 147.5 162.1 149.4 C 162.1 151.3 161.9 153.2 160.7 154.4 C 160.1 155.1 159 155.5 157.8 155.5 C 156.5 155.5 155.4 155.2 154.5 153.9 C 154.46 153.94 154.5 160.6 154.5 160.6 L 152.7 160.6 L 152.7 143.5 L 154.5 143.5 C 154.5 143.5 154.46 144.92 154.5 144.9 C 155.4 143.7 156.5 143.4 157.8 143.4 C 159 143.4 160.1 143.8 160.7 144.4 Z M 154.5 149.4 C 154.5 151.7 154.8 153.9 157.4 153.9 C 160 153.9 160.4 151.7 160.4 149.4 C 160.4 147.1 160 144.9 157.4 144.9 C 154.8 144.9 154.5 147.1 154.5 149.4 Z M 173.7 144.5 C 173.7 144.5 172.4 145.8 172.4 145.8 C 171.8 145.1 171.3 144.9 170.4 144.9 C 168.6 144.9 167.5 146.3 167.5 148.1 C 167.54 148.09 167.5 155.3 167.5 155.3 L 165.8 155.3 L 165.8 143.5 L 167.5 143.5 C 167.5 143.5 167.54 144.97 167.5 145 C 168.2 144 169.5 143.4 170.9 143.4 C 172 143.4 172.8 143.6 173.7 144.5 Z M 184.1 147.3 C 184.1 147.32 184.1 155.3 184.1 155.3 L 182.4 155.3 C 182.4 155.3 182.37 154.21 182.4 154.2 C 181.4 155.1 180.5 155.5 179 155.5 C 177.3 155.5 176.4 155.2 175.6 154.4 C 175 153.8 174.7 152.9 174.7 152 C 174.7 149.9 176.2 148.6 178.8 148.6 C 178.85 148.59 182.4 148.6 182.4 148.6 C 182.4 148.6 182.37 147.46 182.4 147.5 C 182.4 145.8 181.5 144.9 179.3 144.9 C 177.9 144.9 177.1 145.3 176.4 146.2 C 176.4 146.2 175.2 145.2 175.2 145.2 C 176.2 143.8 177.4 143.4 179.4 143.4 C 182.6 143.4 184.1 144.8 184.1 147.3 Z M 179.1 149.9 C 177.3 149.9 176.4 150.6 176.4 152 C 176.4 153.3 177.3 154 179.2 154 C 180.1 154 181 153.9 181.8 153.2 C 182.2 152.8 182.4 152.1 182.4 151.2 C 182.37 151.16 182.4 149.9 182.4 149.9 C 182.4 149.9 179.09 149.89 179.1 149.9 Z M 196.8 145.1 C 196.8 145.1 195.6 146.2 195.6 146.2 C 194.7 145.3 194 144.9 192.9 144.9 C 191.8 144.9 190.8 145.4 190.2 146.3 C 189.6 147 189.4 147.9 189.4 149.4 C 189.4 150.9 189.6 151.8 190.2 152.6 C 190.8 153.5 191.8 153.9 192.9 153.9 C 194 153.9 194.7 153.6 195.6 152.6 C 195.6 152.6 196.8 153.7 196.8 153.7 C 195.6 155 194.5 155.5 192.9 155.5 C 189.9 155.5 187.7 153.5 187.7 149.4 C 187.7 145.4 189.9 143.4 192.9 143.4 C 194.5 143.4 195.6 143.8 196.8 145.1 Z M 202.1 143.5 L 204.6 143.5 L 204.6 144.8 L 202.1 144.8 C 202.1 144.8 202.1 152.12 202.1 152.1 C 202.1 153.2 202.6 153.8 203.7 153.8 C 203.71 153.85 204.6 153.8 204.6 153.8 L 204.6 155.3 C 204.6 155.3 203.4 155.34 203.4 155.3 C 201.4 155.3 200.4 153.9 200.4 152.2 C 200.37 152.17 200.4 144.8 200.4 144.8 L 198.9 144.8 L 198.9 143.5 L 200.4 143.5 L 200.4 139.9 L 202.1 139.9 L 202.1 143.5 Z M 209.8 155.3 L 208.1 155.3 L 208.1 143.5 L 209.8 143.5 L 209.8 155.3 Z M 209.9 140.2 L 208 140.2 L 208 138.2 L 209.9 138.2 L 209.9 140.2 Z M 222.6 145.1 C 222.6 145.1 221.4 146.2 221.4 146.2 C 220.6 145.3 219.9 144.9 218.7 144.9 C 217.6 144.9 216.6 145.4 216 146.3 C 215.4 147 215.2 147.9 215.2 149.4 C 215.2 150.9 215.4 151.8 216 152.6 C 216.6 153.5 217.6 153.9 218.7 153.9 C 219.9 153.9 220.6 153.6 221.4 152.6 C 221.4 152.6 222.6 153.7 222.6 153.7 C 221.4 155 220.4 155.5 218.7 155.5 C 215.8 155.5 213.5 153.5 213.5 149.4 C 213.5 145.4 215.8 143.4 218.7 143.4 C 220.4 143.4 221.4 143.8 222.6 145.1 Z M 234.6 149.1 C 234.6 149.12 234.6 149.9 234.6 149.9 C 234.6 149.9 226.63 149.89 226.6 149.9 C 226.6 152.5 227.8 154 230.1 154 C 231.5 154 232.3 153.6 233.2 152.6 C 233.2 152.6 234.4 153.7 234.4 153.7 C 233.2 154.9 232.1 155.5 230.1 155.5 C 226.9 155.5 224.9 153.6 224.9 149.4 C 224.9 145.6 226.7 143.4 229.7 143.4 C 232.8 143.4 234.6 145.6 234.6 149.1 Z M 227 146.6 C 226.7 147.2 226.7 147.6 226.6 148.6 C 226.6 148.6 232.9 148.6 232.9 148.6 C 232.8 147.6 232.8 147.2 232.5 146.6 C 232 145.5 231 144.8 229.7 144.8 C 228.5 144.8 227.5 145.5 227 146.6 Z M 246.3 143.5 L 248.8 143.5 L 248.8 144.8 L 246.3 144.8 C 246.3 144.8 246.26 152.12 246.3 152.1 C 246.3 153.2 246.8 153.8 247.9 153.8 C 247.87 153.85 248.8 153.8 248.8 153.8 L 248.8 155.3 C 248.8 155.3 247.56 155.34 247.6 155.3 C 245.5 155.3 244.5 153.9 244.5 152.2 C 244.53 152.17 244.5 144.8 244.5 144.8 L 243 144.8 L 243 143.5 L 244.5 143.5 L 244.5 139.9 L 246.3 139.9 L 246.3 143.5 Z M 259.7 144.7 C 260.9 145.9 261.1 147.6 261.1 149.4 C 261.1 151.3 260.9 152.9 259.7 154.1 C 258.9 155 257.7 155.5 256.3 155.5 C 254.9 155.5 253.7 155 252.9 154.1 C 251.7 152.9 251.5 151.3 251.5 149.4 C 251.5 147.6 251.7 145.9 252.9 144.7 C 253.7 143.9 254.9 143.4 256.3 143.4 C 257.7 143.4 258.9 143.9 259.7 144.7 Z M 254.2 145.8 C 253.3 146.6 253.2 148.1 253.2 149.4 C 253.2 150.8 253.3 152.2 254.2 153.1 C 254.7 153.7 255.5 153.9 256.3 153.9 C 257.1 153.9 257.9 153.7 258.5 153.1 C 259.3 152.2 259.4 150.8 259.4 149.4 C 259.4 148.1 259.3 146.6 258.5 145.8 C 257.9 145.2 257.1 144.9 256.3 144.9 C 255.5 144.9 254.7 145.2 254.2 145.8 Z M 278.8 144.7 C 278.8 144.7 277.7 145.8 277.7 145.8 C 276.8 145.1 275.7 144.8 274.5 144.8 C 272.8 144.8 271.9 145.6 271.9 146.8 C 271.9 147.8 272.5 148.4 274 148.5 C 274 148.5 275.8 148.7 275.8 148.7 C 277.9 148.9 279.3 149.6 279.3 151.9 C 279.3 154.2 277.4 155.5 274.5 155.5 C 272.5 155.5 270.9 155 269.7 153.8 C 269.7 153.8 270.8 152.6 270.8 152.6 C 271.7 153.6 273 154 274.5 154 C 276.5 154 277.6 153.3 277.6 151.9 C 277.6 150.8 277.1 150.3 275.7 150.2 C 275.7 150.2 273.7 150 273.7 150 C 271.4 149.8 270.2 148.8 270.2 146.8 C 270.2 144.7 272 143.4 274.5 143.4 C 276.2 143.4 277.7 143.8 278.8 144.7 Z M 291.7 149.1 C 291.74 149.12 291.7 149.9 291.7 149.9 C 291.7 149.9 283.77 149.89 283.8 149.9 C 283.8 152.5 285 154 287.3 154 C 288.6 154 289.4 153.6 290.3 152.6 C 290.3 152.6 291.5 153.7 291.5 153.7 C 290.3 154.9 289.2 155.5 287.2 155.5 C 284.1 155.5 282 153.6 282 149.4 C 282 145.6 283.9 143.4 286.9 143.4 C 290 143.4 291.7 145.6 291.7 149.1 Z M 284.1 146.6 C 283.8 147.2 283.8 147.6 283.8 148.6 C 283.8 148.6 290 148.6 290 148.6 C 290 147.6 289.9 147.2 289.7 146.6 C 289.1 145.5 288.2 144.8 286.9 144.8 C 285.6 144.8 284.6 145.5 284.1 146.6 Z M 297.4 143.5 L 299.9 143.5 L 299.9 144.8 L 297.4 144.8 C 297.4 144.8 297.43 152.12 297.4 152.1 C 297.4 153.2 297.9 153.8 299 153.8 C 299.04 153.85 299.9 153.8 299.9 153.8 L 299.9 155.3 C 299.9 155.3 298.72 155.34 298.7 155.3 C 296.7 155.3 295.7 153.9 295.7 152.2 C 295.7 152.17 295.7 144.8 295.7 144.8 L 294.2 144.8 L 294.2 143.5 L 295.7 143.5 L 295.7 139.9 L 297.4 139.9 L 297.4 143.5 Z M 318.5 155.3 L 316.8 155.3 C 316.8 155.3 316.84 154.02 316.8 154 C 316 155 314.8 155.5 313.5 155.5 C 312.2 155.5 311.2 155.1 310.5 154.4 C 309.6 153.6 309.2 152.4 309.2 151.1 C 309.24 151.06 309.2 143.5 309.2 143.5 L 311 143.5 C 311 143.5 310.96 150.8 311 150.8 C 311 152.9 312.1 153.9 313.9 153.9 C 315.6 153.9 316.8 152.9 316.8 150.8 C 316.82 150.8 316.8 143.5 316.8 143.5 L 318.5 143.5 L 318.5 155.3 Z M 330.8 144.4 C 332 145.6 332.3 147.5 332.3 149.4 C 332.3 151.3 332 153.2 330.8 154.4 C 330.2 155.1 329.2 155.5 327.9 155.5 C 326.6 155.5 325.6 155.2 324.6 153.9 C 324.6 153.94 324.6 160.6 324.6 160.6 L 322.9 160.6 L 322.9 143.5 L 324.6 143.5 C 324.6 143.5 324.6 144.92 324.6 144.9 C 325.6 143.7 326.6 143.4 327.9 143.4 C 329.2 143.4 330.2 143.8 330.8 144.4 Z M 324.6 149.4 C 324.6 151.7 325 153.9 327.6 153.9 C 330.1 153.9 330.5 151.7 330.5 149.4 C 330.5 147.1 330.1 144.9 327.6 144.9 C 325 144.9 324.6 147.1 324.6 149.4 Z M 350.3 147.3 C 350.35 147.32 350.3 155.3 350.3 155.3 L 348.6 155.3 C 348.6 155.3 348.62 154.21 348.6 154.2 C 347.7 155.1 346.8 155.5 345.2 155.5 C 343.6 155.5 342.7 155.2 341.9 154.4 C 341.3 153.8 341 152.9 341 152 C 341 149.9 342.5 148.6 345.1 148.6 C 345.09 148.59 348.6 148.6 348.6 148.6 C 348.6 148.6 348.62 147.46 348.6 147.5 C 348.6 145.8 347.8 144.9 345.6 144.9 C 344.1 144.9 343.3 145.3 342.6 146.2 C 342.6 146.2 341.4 145.2 341.4 145.2 C 342.5 143.8 343.7 143.4 345.6 143.4 C 348.8 143.4 350.3 144.8 350.3 147.3 Z M 345.3 149.9 C 343.6 149.9 342.7 150.6 342.7 152 C 342.7 153.3 343.5 154 345.4 154 C 346.4 154 347.3 153.9 348 153.2 C 348.4 152.8 348.6 152.1 348.6 151.2 C 348.62 151.16 348.6 149.9 348.6 149.9 C 348.6 149.9 345.33 149.89 345.3 149.9 Z M 369 145.1 C 369 145.1 367.8 146.2 367.8 146.2 C 367 145.3 366.3 144.9 365.1 144.9 C 364 144.9 363 145.4 362.4 146.3 C 361.8 147 361.6 147.9 361.6 149.4 C 361.6 150.9 361.8 151.8 362.4 152.6 C 363 153.5 364 153.9 365.1 153.9 C 366.3 153.9 367 153.6 367.8 152.6 C 367.8 152.6 369 153.7 369 153.7 C 367.8 155 366.8 155.5 365.1 155.5 C 362.2 155.5 359.9 153.5 359.9 149.4 C 359.9 145.4 362.2 143.4 365.1 143.4 C 366.8 143.4 367.8 143.8 369 145.1 Z M 380.6 147.3 C 380.61 147.32 380.6 155.3 380.6 155.3 L 378.9 155.3 C 378.9 155.3 378.88 154.21 378.9 154.2 C 377.9 155.1 377.1 155.5 375.5 155.5 C 373.8 155.5 373 155.2 372.1 154.4 C 371.5 153.8 371.3 152.9 371.3 152 C 371.3 149.9 372.7 148.6 375.4 148.6 C 375.35 148.59 378.9 148.6 378.9 148.6 C 378.9 148.6 378.88 147.46 378.9 147.5 C 378.9 145.8 378 144.9 375.9 144.9 C 374.4 144.9 373.6 145.3 372.9 146.2 C 372.9 146.2 371.7 145.2 371.7 145.2 C 372.7 143.8 373.9 143.4 375.9 143.4 C 379.1 143.4 380.6 144.8 380.6 147.3 Z M 375.6 149.9 C 373.8 149.9 372.9 150.6 372.9 152 C 372.9 153.3 373.8 154 375.7 154 C 376.7 154 377.5 153.9 378.3 153.2 C 378.7 152.8 378.9 152.1 378.9 151.2 C 378.88 151.16 378.9 149.9 378.9 149.9 C 378.9 149.9 375.59 149.89 375.6 149.9 Z M 386.5 152.1 C 386.5 153.3 386.9 153.8 388.1 153.8 C 388.07 153.85 389 153.8 389 153.8 L 389 155.3 C 389 155.3 387.76 155.34 387.8 155.3 C 385.7 155.3 384.8 154 384.8 152.2 C 384.76 152.19 384.8 138.2 384.8 138.2 L 386.5 138.2 C 386.5 138.2 386.49 152.12 386.5 152.1 Z M 393.6 152.1 C 393.6 153.3 394 153.8 395.2 153.8 C 395.2 153.85 396.1 153.8 396.1 153.8 L 396.1 155.3 C 396.1 155.3 394.89 155.34 394.9 155.3 C 392.8 155.3 391.9 154 391.9 152.2 C 391.89 152.19 391.9 138.2 391.9 138.2 L 393.6 138.2 C 393.6 138.2 393.62 152.12 393.6 152.1 Z M 407.1 143.5 L 409.6 143.5 L 409.6 144.8 L 407.1 144.8 C 407.1 144.8 407.06 152.12 407.1 152.1 C 407.1 153.2 407.6 153.8 408.7 153.8 C 408.67 153.85 409.6 153.8 409.6 153.8 L 409.6 155.3 C 409.6 155.3 408.35 155.34 408.4 155.3 C 406.3 155.3 405.3 153.9 405.3 152.2 C 405.33 152.17 405.3 144.8 405.3 144.8 L 403.8 144.8 L 403.8 143.5 L 405.3 143.5 L 405.3 139.9 L 407.1 139.9 L 407.1 143.5 Z M 420.5 144.7 C 421.7 145.9 421.9 147.6 421.9 149.4 C 421.9 151.3 421.7 152.9 420.5 154.1 C 419.7 155 418.5 155.5 417.1 155.5 C 415.6 155.5 414.5 155 413.7 154.1 C 412.5 152.9 412.3 151.3 412.3 149.4 C 412.3 147.6 412.5 145.9 413.7 144.7 C 414.5 143.9 415.6 143.4 417.1 143.4 C 418.5 143.4 419.7 143.9 420.5 144.7 Z M 415 145.8 C 414.1 146.6 414 148.1 414 149.4 C 414 150.8 414.1 152.2 415 153.1 C 415.5 153.7 416.2 153.9 417.1 153.9 C 417.9 153.9 418.7 153.7 419.2 153.1 C 420.1 152.2 420.2 150.8 420.2 149.4 C 420.2 148.1 420.1 146.6 419.2 145.8 C 418.7 145.2 417.9 144.9 417.1 144.9 C 416.2 144.9 415.5 145.2 415 145.8 Z M 440.3 155.3 L 438.6 155.3 C 438.6 155.3 438.62 153.94 438.6 153.9 C 437.6 155.2 436.6 155.5 435.3 155.5 C 434.1 155.5 433 155.1 432.4 154.4 C 431.2 153.3 431 151.3 431 149.4 C 431 147.5 431.2 145.6 432.4 144.4 C 433 143.8 434.1 143.4 435.3 143.4 C 436.6 143.4 437.6 143.7 438.6 144.9 C 438.62 144.92 438.6 138.2 438.6 138.2 L 440.3 138.2 L 440.3 155.3 Z M 432.7 149.4 C 432.7 151.7 433.1 153.9 435.6 153.9 C 438.2 153.9 438.6 151.7 438.6 149.4 C 438.6 147.1 438.2 144.9 435.6 144.9 C 433.1 144.9 432.7 147.1 432.7 149.4 Z M 446.4 155.3 L 444.7 155.3 L 444.7 143.5 L 446.4 143.5 L 446.4 155.3 Z M 446.5 140.2 L 444.6 140.2 L 444.6 138.2 L 446.5 138.2 L 446.5 140.2 Z M 458.7 144.7 C 458.7 144.7 457.6 145.8 457.6 145.8 C 456.8 145.1 455.7 144.8 454.5 144.8 C 452.7 144.8 451.8 145.6 451.8 146.8 C 451.8 147.8 452.5 148.4 453.9 148.5 C 453.9 148.5 455.8 148.7 455.8 148.7 C 457.8 148.9 459.3 149.6 459.3 151.9 C 459.3 154.2 457.3 155.5 454.5 155.5 C 452.4 155.5 450.9 155 449.6 153.8 C 449.6 153.8 450.8 152.6 450.8 152.6 C 451.7 153.6 453 154 454.4 154 C 456.4 154 457.6 153.3 457.6 151.9 C 457.6 150.8 457 150.3 455.6 150.2 C 455.6 150.2 453.7 150 453.7 150 C 451.4 149.8 450.1 148.8 450.1 146.8 C 450.1 144.7 451.9 143.4 454.5 143.4 C 456.2 143.4 457.6 143.8 458.7 144.7 Z M 471.1 145.1 C 471.1 145.1 470 146.2 470 146.2 C 469.1 145.3 468.4 144.9 467.2 144.9 C 466.1 144.9 465.1 145.4 464.5 146.3 C 464 147 463.7 147.9 463.7 149.4 C 463.7 150.9 464 151.8 464.5 152.6 C 465.1 153.5 466.1 153.9 467.2 153.9 C 468.4 153.9 469.1 153.6 470 152.6 C 470 152.6 471.1 153.7 471.1 153.7 C 469.9 155 468.9 155.5 467.2 155.5 C 464.3 155.5 462 153.5 462 149.4 C 462 145.4 464.3 143.4 467.2 143.4 C 468.9 143.4 469.9 143.8 471.1 145.1 Z M 483.6 155.3 L 481.9 155.3 C 481.9 155.3 481.91 154.02 481.9 154 C 481.1 155 479.9 155.5 478.6 155.5 C 477.3 155.5 476.2 155.1 475.5 154.4 C 474.7 153.6 474.3 152.4 474.3 151.1 C 474.3 151.06 474.3 143.5 474.3 143.5 L 476 143.5 C 476 143.5 476.03 150.8 476 150.8 C 476 152.9 477.2 153.9 478.9 153.9 C 480.7 153.9 481.9 152.9 481.9 150.8 C 481.89 150.8 481.9 143.5 481.9 143.5 L 483.6 143.5 L 483.6 155.3 Z M 495.9 144.7 C 495.9 144.7 494.8 145.8 494.8 145.8 C 494 145.1 492.9 144.8 491.7 144.8 C 489.9 144.8 489 145.6 489 146.8 C 489 147.8 489.7 148.4 491.1 148.5 C 491.1 148.5 493 148.7 493 148.7 C 495 148.9 496.5 149.6 496.5 151.9 C 496.5 154.2 494.5 155.5 491.7 155.5 C 489.6 155.5 488.1 155 486.8 153.8 C 486.8 153.8 488 152.6 488 152.6 C 488.9 153.6 490.2 154 491.6 154 C 493.6 154 494.8 153.3 494.8 151.9 C 494.8 150.8 494.2 150.3 492.8 150.2 C 492.8 150.2 490.9 150 490.9 150 C 488.6 149.8 487.3 148.8 487.3 146.8 C 487.3 144.7 489.1 143.4 491.7 143.4 C 493.4 143.4 494.8 143.8 495.9 144.7 Z M 507.8 144.7 C 507.8 144.7 506.6 145.8 506.6 145.8 C 505.8 145.1 504.7 144.8 503.5 144.8 C 501.8 144.8 500.8 145.6 500.8 146.8 C 500.8 147.8 501.5 148.4 503 148.5 C 503 148.5 504.8 148.7 504.8 148.7 C 506.9 148.9 508.3 149.6 508.3 151.9 C 508.3 154.2 506.4 155.5 503.5 155.5 C 501.5 155.5 499.9 155 498.6 153.8 C 498.6 153.8 499.8 152.6 499.8 152.6 C 500.7 153.6 502 154 503.5 154 C 505.4 154 506.6 153.3 506.6 151.9 C 506.6 150.8 506 150.3 504.6 150.2 C 504.6 150.2 502.7 150 502.7 150 C 500.4 149.8 499.2 148.8 499.2 146.8 C 499.2 144.7 501 143.4 503.5 143.4 C 505.2 143.4 506.7 143.8 507.8 144.7 Z M 519.7 143.5 L 522.2 143.5 L 522.2 144.8 L 519.7 144.8 C 519.7 144.8 519.66 152.12 519.7 152.1 C 519.7 153.2 520.2 153.8 521.3 153.8 C 521.27 153.85 522.2 153.8 522.2 153.8 L 522.2 155.3 C 522.2 155.3 520.96 155.34 521 155.3 C 518.9 155.3 517.9 153.9 517.9 152.2 C 517.94 152.17 517.9 144.8 517.9 144.8 L 516.4 144.8 L 516.4 143.5 L 517.9 143.5 L 517.9 139.9 L 519.7 139.9 L 519.7 143.5 Z M 527.3 144.8 C 528.2 143.9 529.3 143.4 530.7 143.4 C 531.9 143.4 533 143.8 533.7 144.5 C 534.5 145.3 534.9 146.4 534.9 147.8 C 534.9 147.8 534.9 155.3 534.9 155.3 L 533.2 155.3 C 533.2 155.3 533.18 148.06 533.2 148.1 C 533.2 146 532.1 144.9 530.3 144.9 C 528.5 144.9 527.3 146 527.3 148.1 C 527.34 148.06 527.3 155.3 527.3 155.3 L 525.6 155.3 L 525.6 138.2 L 527.3 138.2 C 527.3 138.2 527.34 144.85 527.3 144.8 Z M 548.2 149.1 C 548.15 149.12 548.2 149.9 548.2 149.9 C 548.2 149.9 540.18 149.89 540.2 149.9 C 540.2 152.5 541.4 154 543.7 154 C 545 154 545.8 153.6 546.8 152.6 C 546.8 152.6 547.9 153.7 547.9 153.7 C 546.7 154.9 545.6 155.5 543.6 155.5 C 540.5 155.5 538.5 153.6 538.5 149.4 C 538.5 145.6 540.3 143.4 543.3 143.4 C 546.4 143.4 548.2 145.6 548.2 149.1 Z M 540.5 146.6 C 540.3 147.2 540.2 147.6 540.2 148.6 C 540.2 148.6 546.4 148.6 546.4 148.6 C 546.4 147.6 546.4 147.2 546.1 146.6 C 545.6 145.5 544.6 144.8 543.3 144.8 C 542 144.8 541 145.5 540.5 146.6 Z " stroke="none" fill="#000"/>  </g></svg>