<?xml version="1.0" standalone="no"?><!DOCTYPE svg PUBLIC "-//W3C//DTD SVG 1.1//EN" "http://www.w3.org/Graphics/SVG/1.1/DTD/svg11.dtd"><svg xmlns="http://www.w3.org/2000/svg" version="1.1" width="640px" height="282.663818359375px" viewBox="0 0 640 282.663818359375">  <desc>Let your client know that you want to ensure they maximize their stay in the U.S., and that’s why it’s important to k...</desc>  <defs/>  <g id="Polygon26901">    <path d="M 45.9 223.3 L 44.2 223.3 L 44.2 211.5 L 45.9 211.5 L 45.9 223.3 Z M 46 208.2 L 44.1 208.2 L 44.1 206.2 L 46 206.2 L 46 208.2 Z M 65.9 212.5 C 66.7 213.3 67.1 214.4 67.1 215.8 C 67.13 215.78 67.1 223.3 67.1 223.3 L 65.4 223.3 C 65.4 223.3 65.4 216.06 65.4 216.1 C 65.4 214 64.3 212.9 62.5 212.9 C 60.8 212.9 59.5 214 59.5 215.9 C 59.54 215.87 59.5 223.3 59.5 223.3 L 57.8 223.3 C 57.8 223.3 57.82 216.06 57.8 216.1 C 57.8 214 56.7 212.9 54.9 212.9 C 53.1 212.9 52 214 52 216.1 C 51.96 216.06 52 223.3 52 223.3 L 50.2 223.3 L 50.2 211.5 L 52 211.5 C 52 211.5 51.96 212.82 52 212.8 C 52.8 211.9 54 211.4 55.3 211.4 C 56.9 211.4 58.2 212.1 58.9 213.4 C 59.8 212.1 61.2 211.4 62.8 211.4 C 64.1 211.4 65.1 211.8 65.9 212.5 Z M 79.3 212.4 C 80.4 213.6 80.7 215.5 80.7 217.4 C 80.7 219.3 80.4 221.2 79.3 222.4 C 78.6 223.1 77.6 223.5 76.4 223.5 C 75.1 223.5 74 223.2 73.1 221.9 C 73.06 221.94 73.1 228.6 73.1 228.6 L 71.3 228.6 L 71.3 211.5 L 73.1 211.5 C 73.1 211.5 73.06 212.92 73.1 212.9 C 74 211.7 75.1 211.4 76.4 211.4 C 77.6 211.4 78.6 211.8 79.3 212.4 Z M 73.1 217.4 C 73.1 219.7 73.4 221.9 76 221.9 C 78.6 221.9 79 219.7 79 217.4 C 79 215.1 78.6 212.9 76 212.9 C 73.4 212.9 73.1 215.1 73.1 217.4 Z M 92 212.7 C 93.2 213.9 93.4 215.6 93.4 217.4 C 93.4 219.3 93.2 220.9 92 222.1 C 91.2 223 90 223.5 88.6 223.5 C 87.2 223.5 86 223 85.2 222.1 C 84 220.9 83.8 219.3 83.8 217.4 C 83.8 215.6 84 213.9 85.2 212.7 C 86 211.9 87.2 211.4 88.6 211.4 C 90 211.4 91.2 211.9 92 212.7 Z M 86.5 213.8 C 85.6 214.6 85.5 216.1 85.5 217.4 C 85.5 218.8 85.6 220.2 86.5 221.1 C 87 221.7 87.8 221.9 88.6 221.9 C 89.4 221.9 90.2 221.7 90.8 221.1 C 91.6 220.2 91.7 218.8 91.7 217.4 C 91.7 216.1 91.6 214.6 90.8 213.8 C 90.2 213.2 89.4 212.9 88.6 212.9 C 87.8 212.9 87 213.2 86.5 213.8 Z M 105 212.5 C 105 212.5 103.7 213.8 103.7 213.8 C 103.1 213.1 102.6 212.9 101.7 212.9 C 100 212.9 98.9 214.3 98.9 216.1 C 98.86 216.09 98.9 223.3 98.9 223.3 L 97.1 223.3 L 97.1 211.5 L 98.9 211.5 C 98.9 211.5 98.86 212.97 98.9 213 C 99.5 212 100.8 211.4 102.2 211.4 C 103.3 211.4 104.2 211.6 105 212.5 Z M 109.3 211.5 L 111.8 211.5 L 111.8 212.8 L 109.3 212.8 C 109.3 212.8 109.27 220.12 109.3 220.1 C 109.3 221.2 109.8 221.8 110.9 221.8 C 110.88 221.85 111.8 221.8 111.8 221.8 L 111.8 223.3 C 111.8 223.3 110.57 223.34 110.6 223.3 C 108.6 223.3 107.5 221.9 107.5 220.2 C 107.54 220.17 107.5 212.8 107.5 212.8 L 106.1 212.8 L 106.1 211.5 L 107.5 211.5 L 107.5 207.9 L 109.3 207.9 L 109.3 211.5 Z M 123.5 215.3 C 123.53 215.32 123.5 223.3 123.5 223.3 L 121.8 223.3 C 121.8 223.3 121.8 222.21 121.8 222.2 C 120.9 223.1 120 223.5 118.4 223.5 C 116.8 223.5 115.9 223.2 115.1 222.4 C 114.5 221.8 114.2 220.9 114.2 220 C 114.2 217.9 115.6 216.6 118.3 216.6 C 118.27 216.59 121.8 216.6 121.8 216.6 C 121.8 216.6 121.8 215.46 121.8 215.5 C 121.8 213.8 121 212.9 118.8 212.9 C 117.3 212.9 116.5 213.3 115.8 214.2 C 115.8 214.2 114.6 213.2 114.6 213.2 C 115.7 211.8 116.9 211.4 118.8 211.4 C 122 211.4 123.5 212.8 123.5 215.3 Z M 118.5 217.9 C 116.7 217.9 115.8 218.6 115.8 220 C 115.8 221.3 116.7 222 118.6 222 C 119.6 222 120.4 221.9 121.2 221.2 C 121.6 220.8 121.8 220.1 121.8 219.2 C 121.8 219.16 121.8 217.9 121.8 217.9 C 121.8 217.9 118.51 217.89 118.5 217.9 Z M 135.8 212.5 C 136.7 213.3 137 214.4 137 215.8 C 137.04 215.8 137 223.3 137 223.3 L 135.3 223.3 C 135.3 223.3 135.31 216.06 135.3 216.1 C 135.3 214 134.2 212.9 132.4 212.9 C 130.6 212.9 129.5 214 129.5 216.1 C 129.45 216.06 129.5 223.3 129.5 223.3 L 127.7 223.3 L 127.7 211.5 L 129.4 211.5 C 129.4 211.5 129.43 212.85 129.4 212.8 C 130.3 211.9 131.4 211.4 132.8 211.4 C 134 211.4 135.1 211.8 135.8 212.5 Z M 143.3 211.5 L 145.8 211.5 L 145.8 212.8 L 143.3 212.8 C 143.3 212.8 143.25 220.12 143.3 220.1 C 143.3 221.2 143.8 221.8 144.9 221.8 C 144.86 221.85 145.8 221.8 145.8 221.8 L 145.8 223.3 C 145.8 223.3 144.55 223.34 144.6 223.3 C 142.5 223.3 141.5 221.9 141.5 220.2 C 141.53 220.17 141.5 212.8 141.5 212.8 L 140 212.8 L 140 211.5 L 141.5 211.5 L 141.5 207.9 L 143.3 207.9 L 143.3 211.5 Z M 157.2 211.5 L 159.7 211.5 L 159.7 212.8 L 157.2 212.8 C 157.2 212.8 157.2 220.12 157.2 220.1 C 157.2 221.2 157.7 221.8 158.8 221.8 C 158.81 221.85 159.7 221.8 159.7 221.8 L 159.7 223.3 C 159.7 223.3 158.49 223.34 158.5 223.3 C 156.5 223.3 155.5 221.9 155.5 220.2 C 155.47 220.17 155.5 212.8 155.5 212.8 L 154 212.8 L 154 211.5 L 155.5 211.5 L 155.5 207.9 L 157.2 207.9 L 157.2 211.5 Z M 170.6 212.7 C 171.8 213.9 172.1 215.6 172.1 217.4 C 172.1 219.3 171.8 220.9 170.6 222.1 C 169.8 223 168.7 223.5 167.2 223.5 C 165.8 223.5 164.7 223 163.8 222.1 C 162.6 220.9 162.4 219.3 162.4 217.4 C 162.4 215.6 162.6 213.9 163.8 212.7 C 164.7 211.9 165.8 211.4 167.2 211.4 C 168.7 211.4 169.8 211.9 170.6 212.7 Z M 165.1 213.8 C 164.2 214.6 164.1 216.1 164.1 217.4 C 164.1 218.8 164.2 220.2 165.1 221.1 C 165.7 221.7 166.4 221.9 167.2 221.9 C 168.1 221.9 168.8 221.7 169.4 221.1 C 170.3 220.2 170.3 218.8 170.3 217.4 C 170.3 216.1 170.3 214.6 169.4 213.8 C 168.8 213.2 168.1 212.9 167.2 212.9 C 166.4 212.9 165.7 213.2 165.1 213.8 Z M 183.5 217.7 L 188.8 211.5 L 190.9 211.5 L 186.9 216 L 191.6 223.3 L 189.5 223.3 L 185.8 217.3 L 183.5 219.9 L 183.5 223.3 L 181.7 223.3 L 181.7 206.2 L 183.5 206.2 L 183.5 217.7 Z M 202.7 217.1 C 202.68 217.12 202.7 217.9 202.7 217.9 C 202.7 217.9 194.71 217.89 194.7 217.9 C 194.7 220.5 195.9 222 198.2 222 C 199.6 222 200.3 221.6 201.3 220.6 C 201.3 220.6 202.5 221.7 202.5 221.7 C 201.3 222.9 200.1 223.5 198.1 223.5 C 195 223.5 193 221.6 193 217.4 C 193 213.6 194.8 211.4 197.8 211.4 C 200.9 211.4 202.7 213.6 202.7 217.1 Z M 195.1 214.6 C 194.8 215.2 194.8 215.6 194.7 216.6 C 194.7 216.6 201 216.6 201 216.6 C 200.9 215.6 200.9 215.2 200.6 214.6 C 200.1 213.5 199.1 212.8 197.8 212.8 C 196.6 212.8 195.6 213.5 195.1 214.6 Z M 215.4 217.1 C 215.4 217.12 215.4 217.9 215.4 217.9 C 215.4 217.9 207.43 217.89 207.4 217.9 C 207.4 220.5 208.6 222 210.9 222 C 212.3 222 213.1 221.6 214 220.6 C 214 220.6 215.2 221.7 215.2 221.7 C 214 222.9 212.9 223.5 210.9 223.5 C 207.7 223.5 205.7 221.6 205.7 217.4 C 205.7 213.6 207.5 211.4 210.5 211.4 C 213.6 211.4 215.4 213.6 215.4 217.1 Z M 207.8 214.6 C 207.5 215.2 207.5 215.6 207.4 216.6 C 207.4 216.6 213.7 216.6 213.7 216.6 C 213.6 215.6 213.6 215.2 213.3 214.6 C 212.8 213.5 211.8 212.8 210.5 212.8 C 209.3 212.8 208.3 213.5 207.8 214.6 Z M 227 212.4 C 228.2 213.6 228.5 215.5 228.5 217.4 C 228.5 219.3 228.2 221.2 227 222.4 C 226.4 223.1 225.4 223.5 224.1 223.5 C 222.8 223.5 221.8 223.2 220.8 221.9 C 220.8 221.94 220.8 228.6 220.8 228.6 L 219.1 228.6 L 219.1 211.5 L 220.8 211.5 C 220.8 211.5 220.8 212.92 220.8 212.9 C 221.8 211.7 222.8 211.4 224.1 211.4 C 225.4 211.4 226.4 211.8 227 212.4 Z M 220.8 217.4 C 220.8 219.7 221.2 221.9 223.8 221.9 C 226.3 221.9 226.7 219.7 226.7 217.4 C 226.7 215.1 226.3 212.9 223.8 212.9 C 221.2 212.9 220.8 215.1 220.8 217.4 Z M 246.5 215.3 C 246.55 215.32 246.5 223.3 246.5 223.3 L 244.8 223.3 C 244.8 223.3 244.82 222.21 244.8 222.2 C 243.9 223.1 243 223.5 241.4 223.5 C 239.8 223.5 238.9 223.2 238.1 222.4 C 237.5 221.8 237.2 220.9 237.2 220 C 237.2 217.9 238.7 216.6 241.3 216.6 C 241.29 216.59 244.8 216.6 244.8 216.6 C 244.8 216.6 244.82 215.46 244.8 215.5 C 244.8 213.8 244 212.9 241.8 212.9 C 240.3 212.9 239.5 213.3 238.8 214.2 C 238.8 214.2 237.6 213.2 237.6 213.2 C 238.7 211.8 239.9 211.4 241.8 211.4 C 245 211.4 246.5 212.8 246.5 215.3 Z M 241.5 217.9 C 239.8 217.9 238.9 218.6 238.9 220 C 238.9 221.3 239.7 222 241.6 222 C 242.6 222 243.5 221.9 244.2 221.2 C 244.6 220.8 244.8 220.1 244.8 219.2 C 244.82 219.16 244.8 217.9 244.8 217.9 C 244.8 217.9 241.53 217.89 241.5 217.9 Z M 258.8 212.5 C 259.7 213.3 260.1 214.4 260.1 215.8 C 260.06 215.8 260.1 223.3 260.1 223.3 L 258.3 223.3 C 258.3 223.3 258.33 216.06 258.3 216.1 C 258.3 214 257.2 212.9 255.4 212.9 C 253.7 212.9 252.5 214 252.5 216.1 C 252.48 216.06 252.5 223.3 252.5 223.3 L 250.7 223.3 L 250.7 211.5 L 252.5 211.5 C 252.5 211.5 252.45 212.85 252.5 212.8 C 253.3 211.9 254.5 211.4 255.8 211.4 C 257.1 211.4 258.1 211.8 258.8 212.5 Z M 267.1 226.4 C 266.9 227.1 266.6 227.5 266.3 227.8 C 265.7 228.4 264.8 228.6 264 228.6 C 263.97 228.62 263.2 228.6 263.2 228.6 L 263.2 227.1 C 263.2 227.1 263.76 227.08 263.8 227.1 C 265 227.1 265.3 226.7 265.7 225.6 C 265.7 225.62 266.6 223.1 266.6 223.1 L 262.4 211.5 L 264.2 211.5 L 267.5 221 L 270.7 211.5 L 272.6 211.5 C 272.6 211.5 267.12 226.41 267.1 226.4 Z M 289 212.7 C 289 212.7 287.8 213.8 287.8 213.8 C 287 213.1 285.9 212.8 284.7 212.8 C 283 212.8 282 213.6 282 214.8 C 282 215.8 282.7 216.4 284.2 216.5 C 284.2 216.5 286 216.7 286 216.7 C 288.1 216.9 289.5 217.6 289.5 219.9 C 289.5 222.2 287.6 223.5 284.7 223.5 C 282.7 223.5 281.1 223 279.8 221.8 C 279.8 221.8 281 220.6 281 220.6 C 281.9 221.6 283.2 222 284.7 222 C 286.6 222 287.8 221.3 287.8 219.9 C 287.8 218.8 287.2 218.3 285.8 218.2 C 285.8 218.2 283.9 218 283.9 218 C 281.6 217.8 280.4 216.8 280.4 214.8 C 280.4 212.7 282.2 211.4 284.7 211.4 C 286.4 211.4 287.9 211.8 289 212.7 Z M 301.4 213.1 C 301.4 213.1 300.2 214.2 300.2 214.2 C 299.3 213.3 298.6 212.9 297.5 212.9 C 296.3 212.9 295.4 213.4 294.7 214.3 C 294.2 215 294 215.9 294 217.4 C 294 218.9 294.2 219.8 294.7 220.6 C 295.4 221.5 296.3 221.9 297.5 221.9 C 298.6 221.9 299.3 221.6 300.2 220.6 C 300.2 220.6 301.4 221.7 301.4 221.7 C 300.1 223 299.1 223.5 297.5 223.5 C 294.5 223.5 292.2 221.5 292.2 217.4 C 292.2 213.4 294.5 211.4 297.5 211.4 C 299.1 211.4 300.1 211.8 301.4 213.1 Z M 306.4 212.8 C 307.2 211.9 308.3 211.4 309.7 211.4 C 311 211.4 312 211.8 312.7 212.5 C 313.6 213.3 313.9 214.4 313.9 215.8 C 313.94 215.8 313.9 223.3 313.9 223.3 L 312.2 223.3 C 312.2 223.3 312.21 216.06 312.2 216.1 C 312.2 214 311.1 212.9 309.3 212.9 C 307.6 212.9 306.4 214 306.4 216.1 C 306.38 216.06 306.4 223.3 306.4 223.3 L 304.7 223.3 L 304.7 206.2 L 306.4 206.2 C 306.4 206.2 306.38 212.85 306.4 212.8 Z M 327.2 217.1 C 327.19 217.12 327.2 217.9 327.2 217.9 C 327.2 217.9 319.22 217.89 319.2 217.9 C 319.2 220.5 320.4 222 322.7 222 C 324.1 222 324.9 221.6 325.8 220.6 C 325.8 220.6 327 221.7 327 221.7 C 325.8 222.9 324.6 223.5 322.7 223.5 C 319.5 223.5 317.5 221.6 317.5 217.4 C 317.5 213.6 319.3 211.4 322.3 211.4 C 325.4 211.4 327.2 213.6 327.2 217.1 Z M 319.6 214.6 C 319.3 215.2 319.3 215.6 319.2 216.6 C 319.2 216.6 325.5 216.6 325.5 216.6 C 325.4 215.6 325.4 215.2 325.1 214.6 C 324.6 213.5 323.6 212.8 322.3 212.8 C 321.1 212.8 320.1 213.5 319.6 214.6 Z M 339.6 223.3 L 337.9 223.3 C 337.9 223.3 337.89 221.94 337.9 221.9 C 336.9 223.2 335.9 223.5 334.6 223.5 C 333.3 223.5 332.3 223.1 331.7 222.4 C 330.5 221.3 330.2 219.3 330.2 217.4 C 330.2 215.5 330.5 213.6 331.7 212.4 C 332.3 211.8 333.3 211.4 334.6 211.4 C 335.9 211.4 336.9 211.7 337.9 212.9 C 337.89 212.92 337.9 206.2 337.9 206.2 L 339.6 206.2 L 339.6 223.3 Z M 332 217.4 C 332 219.7 332.3 221.9 334.9 221.9 C 337.5 221.9 337.9 219.7 337.9 217.4 C 337.9 215.1 337.5 212.9 334.9 212.9 C 332.3 212.9 332 215.1 332 217.4 Z M 353.1 223.3 L 351.4 223.3 C 351.4 223.3 351.43 222.02 351.4 222 C 350.6 223 349.4 223.5 348.1 223.5 C 346.8 223.5 345.8 223.1 345 222.4 C 344.2 221.6 343.8 220.4 343.8 219.1 C 343.82 219.06 343.8 211.5 343.8 211.5 L 345.5 211.5 C 345.5 211.5 345.55 218.8 345.5 218.8 C 345.5 220.9 346.7 221.9 348.5 221.9 C 350.2 221.9 351.4 220.9 351.4 218.8 C 351.4 218.8 351.4 211.5 351.4 211.5 L 353.1 211.5 L 353.1 223.3 Z M 359.1 220.1 C 359.1 221.3 359.5 221.8 360.7 221.8 C 360.72 221.85 361.7 221.8 361.7 221.8 L 361.7 223.3 C 361.7 223.3 360.4 223.34 360.4 223.3 C 358.3 223.3 357.4 222 357.4 220.2 C 357.4 220.19 357.4 206.2 357.4 206.2 L 359.1 206.2 C 359.1 206.2 359.13 220.12 359.1 220.1 Z M 373.4 217.1 C 373.39 217.12 373.4 217.9 373.4 217.9 C 373.4 217.9 365.42 217.89 365.4 217.9 C 365.4 220.5 366.6 222 368.9 222 C 370.3 222 371.1 221.6 372 220.6 C 372 220.6 373.2 221.7 373.2 221.7 C 372 222.9 370.8 223.5 368.9 223.5 C 365.7 223.5 363.7 221.6 363.7 217.4 C 363.7 213.6 365.5 211.4 368.5 211.4 C 371.6 211.4 373.4 213.6 373.4 217.1 Z M 365.8 214.6 C 365.5 215.2 365.5 215.6 365.4 216.6 C 365.4 216.6 371.7 216.6 371.7 216.6 C 371.6 215.6 371.6 215.2 371.3 214.6 C 370.8 213.5 369.8 212.8 368.5 212.8 C 367.3 212.8 366.3 213.5 365.8 214.6 Z M 385.8 223.3 L 384.1 223.3 C 384.1 223.3 384.09 221.94 384.1 221.9 C 383.1 223.2 382.1 223.5 380.8 223.5 C 379.5 223.5 378.5 223.1 377.9 222.4 C 376.7 221.3 376.4 219.3 376.4 217.4 C 376.4 215.5 376.7 213.6 377.9 212.4 C 378.5 211.8 379.5 211.4 380.8 211.4 C 382.1 211.4 383.1 211.7 384.1 212.9 C 384.09 212.92 384.1 206.2 384.1 206.2 L 385.8 206.2 L 385.8 223.3 Z M 378.2 217.4 C 378.2 219.7 378.5 221.9 381.1 221.9 C 383.7 221.9 384.1 219.7 384.1 217.4 C 384.1 215.1 383.7 212.9 381.1 212.9 C 378.5 212.9 378.2 215.1 378.2 217.4 Z M 404.5 215.3 C 404.54 215.32 404.5 223.3 404.5 223.3 L 402.8 223.3 C 402.8 223.3 402.81 222.21 402.8 222.2 C 401.9 223.1 401 223.5 399.4 223.5 C 397.8 223.5 396.9 223.2 396.1 222.4 C 395.5 221.8 395.2 220.9 395.2 220 C 395.2 217.9 396.6 216.6 399.3 216.6 C 399.28 216.59 402.8 216.6 402.8 216.6 C 402.8 216.6 402.81 215.46 402.8 215.5 C 402.8 213.8 402 212.9 399.8 212.9 C 398.3 212.9 397.5 213.3 396.8 214.2 C 396.8 214.2 395.6 213.2 395.6 213.2 C 396.7 211.8 397.9 211.4 399.8 211.4 C 403 211.4 404.5 212.8 404.5 215.3 Z M 399.5 217.9 C 397.7 217.9 396.9 218.6 396.9 220 C 396.9 221.3 397.7 222 399.6 222 C 400.6 222 401.4 221.9 402.2 221.2 C 402.6 220.8 402.8 220.1 402.8 219.2 C 402.81 219.16 402.8 217.9 402.8 217.9 C 402.8 217.9 399.52 217.89 399.5 217.9 Z M 416.7 212.4 C 417.9 213.6 418.1 215.5 418.1 217.4 C 418.1 219.3 417.9 221.2 416.7 222.4 C 416.1 223.1 415 223.5 413.8 223.5 C 412.5 223.5 411.5 223.2 410.5 221.9 C 410.47 221.94 410.5 228.6 410.5 228.6 L 408.7 228.6 L 408.7 211.5 L 410.5 211.5 C 410.5 211.5 410.47 212.92 410.5 212.9 C 411.5 211.7 412.5 211.4 413.8 211.4 C 415 211.4 416.1 211.8 416.7 212.4 Z M 410.5 217.4 C 410.5 219.7 410.9 221.9 413.4 221.9 C 416 221.9 416.4 219.7 416.4 217.4 C 416.4 215.1 416 212.9 413.4 212.9 C 410.9 212.9 410.5 215.1 410.5 217.4 Z M 429.8 212.4 C 430.9 213.6 431.2 215.5 431.2 217.4 C 431.2 219.3 430.9 221.2 429.8 222.4 C 429.1 223.1 428.1 223.5 426.9 223.5 C 425.6 223.5 424.5 223.2 423.5 221.9 C 423.55 221.94 423.5 228.6 423.5 228.6 L 421.8 228.6 L 421.8 211.5 L 423.5 211.5 C 423.5 211.5 423.55 212.92 423.5 212.9 C 424.5 211.7 425.6 211.4 426.9 211.4 C 428.1 211.4 429.1 211.8 429.8 212.4 Z M 423.5 217.4 C 423.5 219.7 423.9 221.9 426.5 221.9 C 429.1 221.9 429.5 219.7 429.5 217.4 C 429.5 215.1 429.1 212.9 426.5 212.9 C 423.9 212.9 423.5 215.1 423.5 217.4 Z M 442.5 212.7 C 443.7 213.9 443.9 215.6 443.9 217.4 C 443.9 219.3 443.7 220.9 442.5 222.1 C 441.7 223 440.5 223.5 439.1 223.5 C 437.7 223.5 436.5 223 435.7 222.1 C 434.5 220.9 434.3 219.3 434.3 217.4 C 434.3 215.6 434.5 213.9 435.7 212.7 C 436.5 211.9 437.7 211.4 439.1 211.4 C 440.5 211.4 441.7 211.9 442.5 212.7 Z M 437 213.8 C 436.1 214.6 436 216.1 436 217.4 C 436 218.8 436.1 220.2 437 221.1 C 437.5 221.7 438.3 221.9 439.1 221.9 C 439.9 221.9 440.7 221.7 441.3 221.1 C 442.1 220.2 442.2 218.8 442.2 217.4 C 442.2 216.1 442.1 214.6 441.3 213.8 C 440.7 213.2 439.9 212.9 439.1 212.9 C 438.3 212.9 437.5 213.2 437 213.8 Z M 449.3 223.3 L 447.6 223.3 L 447.6 211.5 L 449.3 211.5 L 449.3 223.3 Z M 449.5 208.2 L 447.5 208.2 L 447.5 206.2 L 449.5 206.2 L 449.5 208.2 Z M 461.8 212.5 C 462.6 213.3 463 214.4 463 215.8 C 463 215.8 463 223.3 463 223.3 L 461.3 223.3 C 461.3 223.3 461.27 216.06 461.3 216.1 C 461.3 214 460.1 212.9 458.4 212.9 C 456.6 212.9 455.4 214 455.4 216.1 C 455.42 216.06 455.4 223.3 455.4 223.3 L 453.7 223.3 L 453.7 211.5 L 455.4 211.5 C 455.4 211.5 455.39 212.85 455.4 212.8 C 456.2 211.9 457.4 211.4 458.7 211.4 C 460 211.4 461.1 211.8 461.8 212.5 Z M 469.2 211.5 L 471.7 211.5 L 471.7 212.8 L 469.2 212.8 C 469.2 212.8 469.22 220.12 469.2 220.1 C 469.2 221.2 469.7 221.8 470.8 221.8 C 470.83 221.85 471.7 221.8 471.7 221.8 L 471.7 223.3 C 471.7 223.3 470.51 223.34 470.5 223.3 C 468.5 223.3 467.5 221.9 467.5 220.2 C 467.49 220.17 467.5 212.8 467.5 212.8 L 466 212.8 L 466 211.5 L 467.5 211.5 L 467.5 207.9 L 469.2 207.9 L 469.2 211.5 Z M 490.8 212.5 C 491.6 213.3 492.1 214.4 492.1 215.8 C 492.07 215.78 492.1 223.3 492.1 223.3 L 490.3 223.3 C 490.3 223.3 490.34 216.06 490.3 216.1 C 490.3 214 489.2 212.9 487.4 212.9 C 485.7 212.9 484.5 214 484.5 215.9 C 484.48 215.87 484.5 223.3 484.5 223.3 L 482.8 223.3 C 482.8 223.3 482.75 216.06 482.8 216.1 C 482.8 214 481.6 212.9 479.9 212.9 C 478.1 212.9 476.9 214 476.9 216.1 C 476.9 216.06 476.9 223.3 476.9 223.3 L 475.2 223.3 L 475.2 211.5 L 476.9 211.5 C 476.9 211.5 476.9 212.82 476.9 212.8 C 477.7 211.9 478.9 211.4 480.2 211.4 C 481.9 211.4 483.1 212.1 483.9 213.4 C 484.8 212.1 486.1 211.4 487.7 211.4 C 489 211.4 490.1 211.8 490.8 212.5 Z M 505.3 217.1 C 505.31 217.12 505.3 217.9 505.3 217.9 C 505.3 217.9 497.35 217.89 497.3 217.9 C 497.3 220.5 498.5 222 500.8 222 C 502.2 222 503 221.6 503.9 220.6 C 503.9 220.6 505.1 221.7 505.1 221.7 C 503.9 222.9 502.8 223.5 500.8 223.5 C 497.6 223.5 495.6 221.6 495.6 217.4 C 495.6 213.6 497.5 211.4 500.5 211.4 C 503.5 211.4 505.3 213.6 505.3 217.1 Z M 497.7 214.6 C 497.4 215.2 497.4 215.6 497.3 216.6 C 497.3 216.6 503.6 216.6 503.6 216.6 C 503.5 215.6 503.5 215.2 503.2 214.6 C 502.7 213.5 501.7 212.8 500.5 212.8 C 499.2 212.8 498.2 213.5 497.7 214.6 Z M 517.1 212.5 C 517.9 213.3 518.3 214.4 518.3 215.8 C 518.3 215.8 518.3 223.3 518.3 223.3 L 516.6 223.3 C 516.6 223.3 516.57 216.06 516.6 216.1 C 516.6 214 515.4 212.9 513.7 212.9 C 511.9 212.9 510.7 214 510.7 216.1 C 510.71 216.06 510.7 223.3 510.7 223.3 L 509 223.3 L 509 211.5 L 510.7 211.5 C 510.7 211.5 510.69 212.85 510.7 212.8 C 511.5 211.9 512.7 211.4 514 211.4 C 515.3 211.4 516.4 211.8 517.1 212.5 Z M 524.5 211.5 L 527 211.5 L 527 212.8 L 524.5 212.8 C 524.5 212.8 524.51 220.12 524.5 220.1 C 524.5 221.2 525 221.8 526.1 221.8 C 526.12 221.85 527 221.8 527 221.8 L 527 223.3 C 527 223.3 525.81 223.34 525.8 223.3 C 523.8 223.3 522.8 221.9 522.8 220.2 C 522.79 220.17 522.8 212.8 522.8 212.8 L 521.3 212.8 L 521.3 211.5 L 522.8 211.5 L 522.8 207.9 L 524.5 207.9 L 524.5 211.5 Z M 538.4 212.7 C 538.4 212.7 537.2 213.8 537.2 213.8 C 536.4 213.1 535.3 212.8 534.1 212.8 C 532.4 212.8 531.4 213.6 531.4 214.8 C 531.4 215.8 532.1 216.4 533.6 216.5 C 533.6 216.5 535.4 216.7 535.4 216.7 C 537.5 216.9 538.9 217.6 538.9 219.9 C 538.9 222.2 537 223.5 534.1 223.5 C 532.1 223.5 530.5 223 529.2 221.8 C 529.2 221.8 530.4 220.6 530.4 220.6 C 531.3 221.6 532.6 222 534.1 222 C 536 222 537.2 221.3 537.2 219.9 C 537.2 218.8 536.6 218.3 535.2 218.2 C 535.2 218.2 533.3 218 533.3 218 C 531 217.8 529.8 216.8 529.8 214.8 C 529.8 212.7 531.6 211.4 534.1 211.4 C 535.8 211.4 537.3 211.8 538.4 212.7 Z M 544.5 223.3 L 542.2 223.3 L 542.2 221.1 L 544.5 221.1 L 544.5 223.3 Z " stroke="none" fill="#000"/>  </g>  <g id="Polygon26900">    <path d="M 59.8 178.5 C 60.6 179.3 61.1 180.4 61.1 181.8 C 61.06 181.78 61.1 189.3 61.1 189.3 L 59.3 189.3 C 59.3 189.3 59.33 182.06 59.3 182.1 C 59.3 180 58.2 178.9 56.4 178.9 C 54.7 178.9 53.5 180 53.5 181.9 C 53.47 181.87 53.5 189.3 53.5 189.3 L 51.7 189.3 C 51.7 189.3 51.74 182.06 51.7 182.1 C 51.7 180 50.6 178.9 48.8 178.9 C 47.1 178.9 45.9 180 45.9 182.1 C 45.89 182.06 45.9 189.3 45.9 189.3 L 44.2 189.3 L 44.2 177.5 L 45.9 177.5 C 45.9 177.5 45.89 178.82 45.9 178.8 C 46.7 177.9 47.9 177.4 49.2 177.4 C 50.9 177.4 52.1 178.1 52.8 179.4 C 53.8 178.1 55.1 177.4 56.7 177.4 C 58 177.4 59.1 177.8 59.8 178.5 Z M 73.7 181.3 C 73.68 181.32 73.7 189.3 73.7 189.3 L 72 189.3 C 72 189.3 71.95 188.21 72 188.2 C 71 189.1 70.1 189.5 68.5 189.5 C 66.9 189.5 66 189.2 65.2 188.4 C 64.6 187.8 64.3 186.9 64.3 186 C 64.3 183.9 65.8 182.6 68.4 182.6 C 68.42 182.59 72 182.6 72 182.6 C 72 182.6 71.95 181.46 72 181.5 C 72 179.8 71.1 178.9 68.9 178.9 C 67.4 178.9 66.7 179.3 66 180.2 C 66 180.2 64.8 179.2 64.8 179.2 C 65.8 177.8 67 177.4 69 177.4 C 72.1 177.4 73.7 178.8 73.7 181.3 Z M 68.7 183.9 C 66.9 183.9 66 184.6 66 186 C 66 187.3 66.8 188 68.7 188 C 69.7 188 70.6 187.9 71.4 187.2 C 71.8 186.8 72 186.1 72 185.2 C 71.95 185.16 72 183.9 72 183.9 C 72 183.9 68.66 183.89 68.7 183.9 Z M 82.1 183.3 L 86.1 189.3 L 84 189.3 L 81.2 184.8 L 78.3 189.3 L 76.2 189.3 L 80.2 183.3 L 76.4 177.5 L 78.5 177.5 L 81.2 181.9 L 83.9 177.5 L 85.9 177.5 L 82.1 183.3 Z M 90.8 189.3 L 89.1 189.3 L 89.1 177.5 L 90.8 177.5 L 90.8 189.3 Z M 90.9 174.2 L 89 174.2 L 89 172.2 L 90.9 172.2 L 90.9 174.2 Z M 110.8 178.5 C 111.6 179.3 112 180.4 112 181.8 C 112.03 181.78 112 189.3 112 189.3 L 110.3 189.3 C 110.3 189.3 110.3 182.06 110.3 182.1 C 110.3 180 109.2 178.9 107.4 178.9 C 105.7 178.9 104.4 180 104.4 181.9 C 104.45 181.87 104.4 189.3 104.4 189.3 L 102.7 189.3 C 102.7 189.3 102.72 182.06 102.7 182.1 C 102.7 180 101.6 178.9 99.8 178.9 C 98 178.9 96.9 180 96.9 182.1 C 96.86 182.06 96.9 189.3 96.9 189.3 L 95.1 189.3 L 95.1 177.5 L 96.9 177.5 C 96.9 177.5 96.86 178.82 96.9 178.8 C 97.7 177.9 98.9 177.4 100.2 177.4 C 101.8 177.4 103.1 178.1 103.8 179.4 C 104.7 178.1 106.1 177.4 107.7 177.4 C 109 177.4 110 177.8 110.8 178.5 Z M 118 189.3 L 116.2 189.3 L 116.2 177.5 L 118 177.5 L 118 189.3 Z M 118.1 174.2 L 116.1 174.2 L 116.1 172.2 L 118.1 172.2 L 118.1 174.2 Z M 121.3 187.9 L 127.9 179.1 L 121.7 179.1 L 121.7 177.5 L 129.9 177.5 L 129.9 178.9 L 123.4 187.8 L 129.9 187.8 L 129.9 189.3 L 121.3 189.3 L 121.3 187.9 Z M 142.3 183.1 C 142.27 183.12 142.3 183.9 142.3 183.9 C 142.3 183.9 134.3 183.89 134.3 183.9 C 134.3 186.5 135.5 188 137.8 188 C 139.2 188 139.9 187.6 140.9 186.6 C 140.9 186.6 142.1 187.7 142.1 187.7 C 140.9 188.9 139.7 189.5 137.7 189.5 C 134.6 189.5 132.6 187.6 132.6 183.4 C 132.6 179.6 134.4 177.4 137.4 177.4 C 140.5 177.4 142.3 179.6 142.3 183.1 Z M 134.7 180.6 C 134.4 181.2 134.4 181.6 134.3 182.6 C 134.3 182.6 140.6 182.6 140.6 182.6 C 140.5 181.6 140.5 181.2 140.2 180.6 C 139.7 179.5 138.7 178.8 137.4 178.8 C 136.2 178.8 135.2 179.5 134.7 180.6 Z M 153.9 177.5 L 156.5 177.5 L 156.5 178.8 L 153.9 178.8 C 153.9 178.8 153.94 186.12 153.9 186.1 C 153.9 187.2 154.4 187.8 155.5 187.8 C 155.54 187.85 156.5 187.8 156.5 187.8 L 156.5 189.3 C 156.5 189.3 155.23 189.34 155.2 189.3 C 153.2 189.3 152.2 187.9 152.2 186.2 C 152.21 186.17 152.2 178.8 152.2 178.8 L 150.7 178.8 L 150.7 177.5 L 152.2 177.5 L 152.2 173.9 L 153.9 173.9 L 153.9 177.5 Z M 161.6 178.8 C 162.5 177.9 163.6 177.4 164.9 177.4 C 166.2 177.4 167.3 177.8 168 178.5 C 168.8 179.3 169.2 180.4 169.2 181.8 C 169.17 181.8 169.2 189.3 169.2 189.3 L 167.4 189.3 C 167.4 189.3 167.45 182.06 167.4 182.1 C 167.4 180 166.3 178.9 164.6 178.9 C 162.8 178.9 161.6 180 161.6 182.1 C 161.61 182.06 161.6 189.3 161.6 189.3 L 159.9 189.3 L 159.9 172.2 L 161.6 172.2 C 161.6 172.2 161.61 178.85 161.6 178.8 Z M 182.4 183.1 C 182.42 183.12 182.4 183.9 182.4 183.9 C 182.4 183.9 174.45 183.89 174.5 183.9 C 174.5 186.5 175.7 188 177.9 188 C 179.3 188 180.1 187.6 181 186.6 C 181 186.6 182.2 187.7 182.2 187.7 C 181 188.9 179.9 189.5 177.9 189.5 C 174.7 189.5 172.7 187.6 172.7 183.4 C 172.7 179.6 174.6 177.4 177.6 177.4 C 180.6 177.4 182.4 179.6 182.4 183.1 Z M 174.8 180.6 C 174.5 181.2 174.5 181.6 174.5 182.6 C 174.5 182.6 180.7 182.6 180.7 182.6 C 180.6 181.6 180.6 181.2 180.3 180.6 C 179.8 179.5 178.8 178.8 177.6 178.8 C 176.3 178.8 175.3 179.5 174.8 180.6 Z M 187.8 189.3 L 186.1 189.3 L 186.1 177.5 L 187.8 177.5 L 187.8 189.3 Z M 187.9 174.2 L 186 174.2 L 186 172.2 L 187.9 172.2 L 187.9 174.2 Z M 200 178.5 C 200 178.5 198.8 179.8 198.8 179.8 C 198.1 179.1 197.6 178.9 196.7 178.9 C 195 178.9 193.9 180.3 193.9 182.1 C 193.89 182.09 193.9 189.3 193.9 189.3 L 192.2 189.3 L 192.2 177.5 L 193.9 177.5 C 193.9 177.5 193.89 178.97 193.9 179 C 194.5 178 195.8 177.4 197.2 177.4 C 198.3 177.4 199.2 177.6 200 178.5 Z M 216.2 178.7 C 216.2 178.7 215.1 179.8 215.1 179.8 C 214.3 179.1 213.2 178.8 212 178.8 C 210.2 178.8 209.3 179.6 209.3 180.8 C 209.3 181.8 210 182.4 211.4 182.5 C 211.4 182.5 213.3 182.7 213.3 182.7 C 215.3 182.9 216.8 183.6 216.8 185.9 C 216.8 188.2 214.8 189.5 212 189.5 C 209.9 189.5 208.4 189 207.1 187.8 C 207.1 187.8 208.3 186.6 208.3 186.6 C 209.2 187.6 210.5 188 211.9 188 C 213.9 188 215.1 187.3 215.1 185.9 C 215.1 184.8 214.5 184.3 213.1 184.2 C 213.1 184.2 211.2 184 211.2 184 C 208.9 183.8 207.6 182.8 207.6 180.8 C 207.6 178.7 209.4 177.4 212 177.4 C 213.7 177.4 215.2 177.8 216.2 178.7 Z M 221.9 177.5 L 224.5 177.5 L 224.5 178.8 L 221.9 178.8 C 221.9 178.8 221.95 186.12 221.9 186.1 C 221.9 187.2 222.5 187.8 223.6 187.8 C 223.56 187.85 224.5 187.8 224.5 187.8 L 224.5 189.3 C 224.5 189.3 223.25 189.34 223.2 189.3 C 221.2 189.3 220.2 187.9 220.2 186.2 C 220.22 186.17 220.2 178.8 220.2 178.8 L 218.7 178.8 L 218.7 177.5 L 220.2 177.5 L 220.2 173.9 L 221.9 173.9 L 221.9 177.5 Z M 236.2 181.3 C 236.21 181.32 236.2 189.3 236.2 189.3 L 234.5 189.3 C 234.5 189.3 234.48 188.21 234.5 188.2 C 233.5 189.1 232.7 189.5 231.1 189.5 C 229.4 189.5 228.5 189.2 227.7 188.4 C 227.1 187.8 226.8 186.9 226.8 186 C 226.8 183.9 228.3 182.6 230.9 182.6 C 230.95 182.59 234.5 182.6 234.5 182.6 C 234.5 182.6 234.48 181.46 234.5 181.5 C 234.5 179.8 233.6 178.9 231.5 178.9 C 230 178.9 229.2 179.3 228.5 180.2 C 228.5 180.2 227.3 179.2 227.3 179.2 C 228.3 177.8 229.5 177.4 231.5 177.4 C 234.7 177.4 236.2 178.8 236.2 181.3 Z M 231.2 183.9 C 229.4 183.9 228.5 184.6 228.5 186 C 228.5 187.3 229.4 188 231.3 188 C 232.2 188 233.1 187.9 233.9 187.2 C 234.3 186.8 234.5 186.1 234.5 185.2 C 234.48 185.16 234.5 183.9 234.5 183.9 C 234.5 183.9 231.19 183.89 231.2 183.9 Z M 243 192.4 C 242.8 193.1 242.5 193.5 242.2 193.8 C 241.6 194.4 240.7 194.6 239.9 194.6 C 239.9 194.62 239.2 194.6 239.2 194.6 L 239.2 193.1 C 239.2 193.1 239.69 193.08 239.7 193.1 C 240.9 193.1 241.2 192.7 241.6 191.6 C 241.63 191.62 242.5 189.1 242.5 189.1 L 238.3 177.5 L 240.2 177.5 L 243.4 187 L 246.6 177.5 L 248.5 177.5 C 248.5 177.5 243.05 192.41 243 192.4 Z M 258.6 189.3 L 256.9 189.3 L 256.9 177.5 L 258.6 177.5 L 258.6 189.3 Z M 258.7 174.2 L 256.8 174.2 L 256.8 172.2 L 258.7 172.2 L 258.7 174.2 Z M 271.1 178.5 C 271.9 179.3 272.3 180.4 272.3 181.8 C 272.28 181.8 272.3 189.3 272.3 189.3 L 270.5 189.3 C 270.5 189.3 270.55 182.06 270.5 182.1 C 270.5 180 269.4 178.9 267.6 178.9 C 265.9 178.9 264.7 180 264.7 182.1 C 264.69 182.06 264.7 189.3 264.7 189.3 L 263 189.3 L 263 177.5 L 264.7 177.5 C 264.7 177.5 264.67 178.85 264.7 178.8 C 265.5 177.9 266.7 177.4 268 177.4 C 269.3 177.4 270.3 177.8 271.1 178.5 Z M 284.5 177.5 L 287 177.5 L 287 178.8 L 284.5 178.8 C 284.5 178.8 284.47 186.12 284.5 186.1 C 284.5 187.2 285 187.8 286.1 187.8 C 286.08 187.85 287 187.8 287 187.8 L 287 189.3 C 287 189.3 285.76 189.34 285.8 189.3 C 283.7 189.3 282.7 187.9 282.7 186.2 C 282.74 186.17 282.7 178.8 282.7 178.8 L 281.3 178.8 L 281.3 177.5 L 282.7 177.5 L 282.7 173.9 L 284.5 173.9 L 284.5 177.5 Z M 292.1 178.8 C 293 177.9 294.1 177.4 295.5 177.4 C 296.7 177.4 297.8 177.8 298.5 178.5 C 299.3 179.3 299.7 180.4 299.7 181.8 C 299.71 181.8 299.7 189.3 299.7 189.3 L 298 189.3 C 298 189.3 297.98 182.06 298 182.1 C 298 180 296.9 178.9 295.1 178.9 C 293.3 178.9 292.1 180 292.1 182.1 C 292.15 182.06 292.1 189.3 292.1 189.3 L 290.4 189.3 L 290.4 172.2 L 292.1 172.2 C 292.1 172.2 292.15 178.85 292.1 178.8 Z M 313 183.1 C 312.96 183.12 313 183.9 313 183.9 C 313 183.9 304.99 183.89 305 183.9 C 305 186.5 306.2 188 308.5 188 C 309.8 188 310.6 187.6 311.6 186.6 C 311.6 186.6 312.7 187.7 312.7 187.7 C 311.5 188.9 310.4 189.5 308.4 189.5 C 305.3 189.5 303.3 187.6 303.3 183.4 C 303.3 179.6 305.1 177.4 308.1 177.4 C 311.2 177.4 313 179.6 313 183.1 Z M 305.3 180.6 C 305.1 181.2 305 181.6 305 182.6 C 305 182.6 311.3 182.6 311.3 182.6 C 311.2 181.6 311.2 181.2 310.9 180.6 C 310.4 179.5 309.4 178.8 308.1 178.8 C 306.8 178.8 305.9 179.5 305.3 180.6 Z M 334.6 183.7 C 334.6 187.1 332.1 189.5 328.6 189.5 C 325.2 189.5 322.7 187.1 322.7 183.7 C 322.68 183.7 322.7 172.2 322.7 172.2 L 324.5 172.2 C 324.5 172.2 324.5 183.55 324.5 183.6 C 324.5 186.1 326.1 187.8 328.6 187.8 C 331.1 187.8 332.8 186.1 332.8 183.6 C 332.78 183.55 332.8 172.2 332.8 172.2 L 334.6 172.2 C 334.6 172.2 334.6 183.7 334.6 183.7 Z M 341.2 189.3 L 338.9 189.3 L 338.9 187.1 L 341.2 187.1 L 341.2 189.3 Z M 355.3 174 C 355.3 174 354.2 175.2 354.2 175.2 C 353.1 174.2 352 173.7 350.2 173.7 C 347.9 173.7 346.6 174.9 346.6 176.9 C 346.6 177.7 346.8 178.4 347.3 178.8 C 347.9 179.3 348.7 179.6 349.6 179.7 C 349.6 179.7 351.5 180 351.5 180 C 353.1 180.3 353.9 180.6 354.6 181.3 C 355.6 182.1 356.1 183.2 356.1 184.6 C 356.1 187.6 353.8 189.5 350.2 189.5 C 347.6 189.5 345.9 188.8 344.3 187.2 C 344.3 187.2 345.6 186 345.6 186 C 347 187.4 348.3 187.8 350.2 187.8 C 352.7 187.8 354.3 186.7 354.3 184.7 C 354.3 183.8 354 183 353.4 182.5 C 352.9 182.1 352.4 181.9 351.2 181.7 C 351.2 181.7 349.2 181.4 349.2 181.4 C 347.9 181.2 346.9 180.8 346.1 180.1 C 345.2 179.4 344.8 178.3 344.8 176.9 C 344.8 174 346.9 172.1 350.3 172.1 C 352.4 172.1 353.9 172.7 355.3 174 Z M 361.8 189.3 L 359.5 189.3 L 359.5 187.1 L 361.8 187.1 L 361.8 189.3 Z M 368.1 190.9 L 366 192.8 L 366 187.2 L 368.1 187.2 L 368.1 190.9 Z M 386.8 181.3 C 386.8 181.32 386.8 189.3 386.8 189.3 L 385.1 189.3 C 385.1 189.3 385.08 188.21 385.1 188.2 C 384.1 189.1 383.3 189.5 381.7 189.5 C 380 189.5 379.1 189.2 378.3 188.4 C 377.7 187.8 377.4 186.9 377.4 186 C 377.4 183.9 378.9 182.6 381.5 182.6 C 381.55 182.59 385.1 182.6 385.1 182.6 C 385.1 182.6 385.08 181.46 385.1 181.5 C 385.1 179.8 384.2 178.9 382.1 178.9 C 380.6 178.9 379.8 179.3 379.1 180.2 C 379.1 180.2 377.9 179.2 377.9 179.2 C 378.9 177.8 380.1 177.4 382.1 177.4 C 385.3 177.4 386.8 178.8 386.8 181.3 Z M 381.8 183.9 C 380 183.9 379.1 184.6 379.1 186 C 379.1 187.3 380 188 381.9 188 C 382.8 188 383.7 187.9 384.5 187.2 C 384.9 186.8 385.1 186.1 385.1 185.2 C 385.08 185.16 385.1 183.9 385.1 183.9 C 385.1 183.9 381.79 183.89 381.8 183.9 Z M 399.1 178.5 C 399.9 179.3 400.3 180.4 400.3 181.8 C 400.31 181.8 400.3 189.3 400.3 189.3 L 398.6 189.3 C 398.6 189.3 398.59 182.06 398.6 182.1 C 398.6 180 397.5 178.9 395.7 178.9 C 393.9 178.9 392.7 180 392.7 182.1 C 392.73 182.06 392.7 189.3 392.7 189.3 L 391 189.3 L 391 177.5 L 392.7 177.5 C 392.7 177.5 392.71 178.85 392.7 178.8 C 393.5 177.9 394.7 177.4 396 177.4 C 397.3 177.4 398.4 177.8 399.1 178.5 Z M 413.3 189.3 L 411.5 189.3 C 411.5 189.3 411.55 187.94 411.5 187.9 C 410.6 189.2 409.5 189.5 408.2 189.5 C 407 189.5 406 189.1 405.3 188.4 C 404.2 187.3 403.9 185.3 403.9 183.4 C 403.9 181.5 404.2 179.6 405.3 178.4 C 406 177.8 407 177.4 408.2 177.4 C 409.5 177.4 410.6 177.7 411.5 178.9 C 411.55 178.92 411.5 172.2 411.5 172.2 L 413.3 172.2 L 413.3 189.3 Z M 405.6 183.4 C 405.6 185.7 406 187.9 408.6 187.9 C 411.2 187.9 411.5 185.7 411.5 183.4 C 411.5 181.1 411.2 178.9 408.6 178.9 C 406 178.9 405.6 181.1 405.6 183.4 Z M 425.6 177.5 L 428.1 177.5 L 428.1 178.8 L 425.6 178.8 C 425.6 178.8 425.59 186.12 425.6 186.1 C 425.6 187.2 426.1 187.8 427.2 187.8 C 427.19 187.85 428.1 187.8 428.1 187.8 L 428.1 189.3 C 428.1 189.3 426.88 189.34 426.9 189.3 C 424.9 189.3 423.9 187.9 423.9 186.2 C 423.86 186.17 423.9 178.8 423.9 178.8 L 422.4 178.8 L 422.4 177.5 L 423.9 177.5 L 423.9 173.9 L 425.6 173.9 L 425.6 177.5 Z M 433.3 178.8 C 434.1 177.9 435.2 177.4 436.6 177.4 C 437.8 177.4 438.9 177.8 439.6 178.5 C 440.5 179.3 440.8 180.4 440.8 181.8 C 440.83 181.8 440.8 189.3 440.8 189.3 L 439.1 189.3 C 439.1 189.3 439.1 182.06 439.1 182.1 C 439.1 180 438 178.9 436.2 178.9 C 434.4 178.9 433.3 180 433.3 182.1 C 433.27 182.06 433.3 189.3 433.3 189.3 L 431.5 189.3 L 431.5 172.2 L 433.3 172.2 C 433.3 172.2 433.27 178.85 433.3 178.8 Z M 453.4 181.3 C 453.45 181.32 453.4 189.3 453.4 189.3 L 451.7 189.3 C 451.7 189.3 451.72 188.21 451.7 188.2 C 450.8 189.1 449.9 189.5 448.3 189.5 C 446.7 189.5 445.8 189.2 445 188.4 C 444.4 187.8 444.1 186.9 444.1 186 C 444.1 183.9 445.6 182.6 448.2 182.6 C 448.19 182.59 451.7 182.6 451.7 182.6 C 451.7 182.6 451.72 181.46 451.7 181.5 C 451.7 179.8 450.9 178.9 448.7 178.9 C 447.2 178.9 446.4 179.3 445.7 180.2 C 445.7 180.2 444.5 179.2 444.5 179.2 C 445.6 177.8 446.8 177.4 448.7 177.4 C 451.9 177.4 453.4 178.8 453.4 181.3 Z M 448.4 183.9 C 446.7 183.9 445.8 184.6 445.8 186 C 445.8 187.3 446.6 188 448.5 188 C 449.5 188 450.4 187.9 451.1 187.2 C 451.5 186.8 451.7 186.1 451.7 185.2 C 451.72 185.16 451.7 183.9 451.7 183.9 C 451.7 183.9 448.43 183.89 448.4 183.9 Z M 459.7 177.5 L 462.2 177.5 L 462.2 178.8 L 459.7 178.8 C 459.7 178.8 459.67 186.12 459.7 186.1 C 459.7 187.2 460.2 187.8 461.3 187.8 C 461.27 187.85 462.2 187.8 462.2 187.8 L 462.2 189.3 C 462.2 189.3 460.96 189.34 461 189.3 C 458.9 189.3 457.9 187.9 457.9 186.2 C 457.94 186.17 457.9 178.8 457.9 178.8 L 456.4 178.8 L 456.4 177.5 L 457.9 177.5 L 457.9 173.9 L 459.7 173.9 L 459.7 177.5 Z M 467.8 174.5 L 465.7 176.4 L 465.7 172.2 L 467.8 172.2 L 467.8 174.5 Z M 479.5 178.7 C 479.5 178.7 478.4 179.8 478.4 179.8 C 477.6 179.1 476.5 178.8 475.3 178.8 C 473.5 178.8 472.6 179.6 472.6 180.8 C 472.6 181.8 473.3 182.4 474.7 182.5 C 474.7 182.5 476.6 182.7 476.6 182.7 C 478.6 182.9 480.1 183.6 480.1 185.9 C 480.1 188.2 478.1 189.5 475.3 189.5 C 473.2 189.5 471.7 189 470.4 187.8 C 470.4 187.8 471.6 186.6 471.6 186.6 C 472.5 187.6 473.8 188 475.2 188 C 477.2 188 478.4 187.3 478.4 185.9 C 478.4 184.8 477.8 184.3 476.4 184.2 C 476.4 184.2 474.5 184 474.5 184 C 472.2 183.8 470.9 182.8 470.9 180.8 C 470.9 178.7 472.7 177.4 475.3 177.4 C 477 177.4 478.5 177.8 479.5 178.7 Z M 487.5 177.5 L 489.4 177.5 L 492.1 187 L 495.2 177.5 L 496.7 177.5 L 499.8 187 L 502.5 177.5 L 504.4 177.5 L 500.6 189.3 L 499 189.3 L 496 179.7 L 492.9 189.3 L 491.3 189.3 L 487.5 177.5 Z M 508.5 178.8 C 509.4 177.9 510.5 177.4 511.8 177.4 C 513.1 177.4 514.2 177.8 514.9 178.5 C 515.7 179.3 516.1 180.4 516.1 181.8 C 516.09 181.8 516.1 189.3 516.1 189.3 L 514.4 189.3 C 514.4 189.3 514.36 182.06 514.4 182.1 C 514.4 180 513.3 178.9 511.5 178.9 C 509.7 178.9 508.5 180 508.5 182.1 C 508.53 182.06 508.5 189.3 508.5 189.3 L 506.8 189.3 L 506.8 172.2 L 508.5 172.2 C 508.5 172.2 508.53 178.85 508.5 178.8 Z M 523 192.4 C 522.8 193.1 522.5 193.5 522.2 193.8 C 521.6 194.4 520.7 194.6 519.9 194.6 C 519.9 194.62 519.2 194.6 519.2 194.6 L 519.2 193.1 C 519.2 193.1 519.69 193.08 519.7 193.1 C 520.9 193.1 521.2 192.7 521.6 191.6 C 521.63 191.62 522.5 189.1 522.5 189.1 L 518.3 177.5 L 520.2 177.5 L 523.4 187 L 526.6 177.5 L 528.5 177.5 C 528.5 177.5 523.05 192.41 523 192.4 Z M 538.6 189.3 L 536.9 189.3 L 536.9 177.5 L 538.6 177.5 L 538.6 189.3 Z M 538.7 174.2 L 536.8 174.2 L 536.8 172.2 L 538.7 172.2 L 538.7 174.2 Z M 545 177.5 L 547.5 177.5 L 547.5 178.8 L 545 178.8 C 545 178.8 544.98 186.12 545 186.1 C 545 187.2 545.5 187.8 546.6 187.8 C 546.59 187.85 547.5 187.8 547.5 187.8 L 547.5 189.3 C 547.5 189.3 546.28 189.34 546.3 189.3 C 544.3 189.3 543.3 187.9 543.3 186.2 C 543.26 186.17 543.3 178.8 543.3 178.8 L 541.8 178.8 L 541.8 177.5 L 543.3 177.5 L 543.3 173.9 L 545 173.9 L 545 177.5 Z M 553.1 174.5 L 551 176.4 L 551 172.2 L 553.1 172.2 L 553.1 174.5 Z M 564.9 178.7 C 564.9 178.7 563.7 179.8 563.7 179.8 C 562.9 179.1 561.8 178.8 560.6 178.8 C 558.9 178.8 557.9 179.6 557.9 180.8 C 557.9 181.8 558.6 182.4 560.1 182.5 C 560.1 182.5 561.9 182.7 561.9 182.7 C 564 182.9 565.4 183.6 565.4 185.9 C 565.4 188.2 563.5 189.5 560.6 189.5 C 558.6 189.5 557 189 555.7 187.8 C 555.7 187.8 556.9 186.6 556.9 186.6 C 557.8 187.6 559.1 188 560.6 188 C 562.5 188 563.7 187.3 563.7 185.9 C 563.7 184.8 563.1 184.3 561.7 184.2 C 561.7 184.2 559.8 184 559.8 184 C 557.5 183.8 556.3 182.8 556.3 180.8 C 556.3 178.7 558.1 177.4 560.6 177.4 C 562.3 177.4 563.8 177.8 564.9 178.7 Z " stroke="none" fill="#000"/>  </g>  <g id="Polygon26899">    <path d="M 46.3 153.7 L 55 153.7 L 55 155.3 L 44.5 155.3 L 44.5 138.2 L 46.3 138.2 L 46.3 153.7 Z M 67 149.1 C 66.96 149.12 67 149.9 67 149.9 C 67 149.9 58.99 149.89 59 149.9 C 59 152.5 60.2 154 62.5 154 C 63.8 154 64.6 153.6 65.6 152.6 C 65.6 152.6 66.7 153.7 66.7 153.7 C 65.5 154.9 64.4 155.5 62.4 155.5 C 59.3 155.5 57.3 153.6 57.3 149.4 C 57.3 145.6 59.1 143.4 62.1 143.4 C 65.2 143.4 67 145.6 67 149.1 Z M 59.4 146.6 C 59.1 147.2 59 147.6 59 148.6 C 59 148.6 65.3 148.6 65.3 148.6 C 65.2 147.6 65.2 147.2 64.9 146.6 C 64.4 145.5 63.4 144.8 62.1 144.8 C 60.8 144.8 59.9 145.5 59.4 146.6 Z M 72.6 143.5 L 75.2 143.5 L 75.2 144.8 L 72.6 144.8 C 72.6 144.8 72.65 152.12 72.6 152.1 C 72.6 153.2 73.2 153.8 74.3 153.8 C 74.26 153.85 75.2 153.8 75.2 153.8 L 75.2 155.3 C 75.2 155.3 73.94 155.34 73.9 155.3 C 71.9 155.3 70.9 153.9 70.9 152.2 C 70.92 152.17 70.9 144.8 70.9 144.8 L 69.4 144.8 L 69.4 143.5 L 70.9 143.5 L 70.9 139.9 L 72.6 139.9 L 72.6 143.5 Z M 87.4 158.4 C 87.2 159.1 86.9 159.5 86.6 159.8 C 86 160.4 85.1 160.6 84.3 160.6 C 84.29 160.62 83.5 160.6 83.5 160.6 L 83.5 159.1 C 83.5 159.1 84.07 159.08 84.1 159.1 C 85.3 159.1 85.6 158.7 86 157.6 C 86.02 157.62 86.9 155.1 86.9 155.1 L 82.7 143.5 L 84.6 143.5 L 87.8 153 L 91 143.5 L 92.9 143.5 C 92.9 143.5 87.43 158.41 87.4 158.4 Z M 102.8 144.7 C 104 145.9 104.2 147.6 104.2 149.4 C 104.2 151.3 104 152.9 102.8 154.1 C 102 155 100.8 155.5 99.4 155.5 C 97.9 155.5 96.8 155 96 154.1 C 94.8 152.9 94.6 151.3 94.6 149.4 C 94.6 147.6 94.8 145.9 96 144.7 C 96.8 143.9 97.9 143.4 99.4 143.4 C 100.8 143.4 102 143.9 102.8 144.7 Z M 97.2 145.8 C 96.4 146.6 96.3 148.1 96.3 149.4 C 96.3 150.8 96.4 152.2 97.2 153.1 C 97.8 153.7 98.5 153.9 99.4 153.9 C 100.2 153.9 101 153.7 101.5 153.1 C 102.4 152.2 102.5 150.8 102.5 149.4 C 102.5 148.1 102.4 146.6 101.5 145.8 C 101 145.2 100.2 144.9 99.4 144.9 C 98.5 144.9 97.8 145.2 97.2 145.8 Z M 117.1 155.3 L 115.4 155.3 C 115.4 155.3 115.39 154.02 115.4 154 C 114.6 155 113.4 155.5 112.1 155.5 C 110.8 155.5 109.7 155.1 109 154.4 C 108.2 153.6 107.8 152.4 107.8 151.1 C 107.78 151.06 107.8 143.5 107.8 143.5 L 109.5 143.5 C 109.5 143.5 109.51 150.8 109.5 150.8 C 109.5 152.9 110.6 153.9 112.4 153.9 C 114.2 153.9 115.4 152.9 115.4 150.8 C 115.37 150.8 115.4 143.5 115.4 143.5 L 117.1 143.5 L 117.1 155.3 Z M 129.3 144.5 C 129.3 144.5 128 145.8 128 145.8 C 127.4 145.1 126.9 144.9 126 144.9 C 124.2 144.9 123.1 146.3 123.1 148.1 C 123.14 148.09 123.1 155.3 123.1 155.3 L 121.4 155.3 L 121.4 143.5 L 123.1 143.5 C 123.1 143.5 123.14 144.97 123.1 145 C 123.8 144 125.1 143.4 126.5 143.4 C 127.6 143.4 128.4 143.6 129.3 144.5 Z M 146 145.1 C 146 145.1 144.8 146.2 144.8 146.2 C 143.9 145.3 143.2 144.9 142.1 144.9 C 141 144.9 140 145.4 139.4 146.3 C 138.8 147 138.6 147.9 138.6 149.4 C 138.6 150.9 138.8 151.8 139.4 152.6 C 140 153.5 141 153.9 142.1 153.9 C 143.2 153.9 143.9 153.6 144.8 152.6 C 144.8 152.6 146 153.7 146 153.7 C 144.8 155 143.7 155.5 142.1 155.5 C 139.1 155.5 136.9 153.5 136.9 149.4 C 136.9 145.4 139.1 143.4 142.1 143.4 C 143.7 143.4 144.8 143.8 146 145.1 Z M 151 152.1 C 151 153.3 151.3 153.8 152.5 153.8 C 152.54 153.85 153.5 153.8 153.5 153.8 L 153.5 155.3 C 153.5 155.3 152.23 155.34 152.2 155.3 C 150.2 155.3 149.2 154 149.2 152.2 C 149.23 152.19 149.2 138.2 149.2 138.2 L 151 138.2 C 151 138.2 150.96 152.12 151 152.1 Z M 158.1 155.3 L 156.4 155.3 L 156.4 143.5 L 158.1 143.5 L 158.1 155.3 Z M 158.3 140.2 L 156.3 140.2 L 156.3 138.2 L 158.3 138.2 L 158.3 140.2 Z M 171.5 149.1 C 171.53 149.12 171.5 149.9 171.5 149.9 C 171.5 149.9 163.56 149.89 163.6 149.9 C 163.6 152.5 164.8 154 167 154 C 168.4 154 169.2 153.6 170.1 152.6 C 170.1 152.6 171.3 153.7 171.3 153.7 C 170.1 154.9 169 155.5 167 155.5 C 163.8 155.5 161.8 153.6 161.8 149.4 C 161.8 145.6 163.7 143.4 166.7 143.4 C 169.8 143.4 171.5 145.6 171.5 149.1 Z M 163.9 146.6 C 163.6 147.2 163.6 147.6 163.6 148.6 C 163.6 148.6 169.8 148.6 169.8 148.6 C 169.8 147.6 169.7 147.2 169.4 146.6 C 168.9 145.5 168 144.8 166.7 144.8 C 165.4 144.8 164.4 145.5 163.9 146.6 Z M 183.3 144.5 C 184.1 145.3 184.5 146.4 184.5 147.8 C 184.51 147.8 184.5 155.3 184.5 155.3 L 182.8 155.3 C 182.8 155.3 182.78 148.06 182.8 148.1 C 182.8 146 181.7 144.9 179.9 144.9 C 178.1 144.9 176.9 146 176.9 148.1 C 176.93 148.06 176.9 155.3 176.9 155.3 L 175.2 155.3 L 175.2 143.5 L 176.9 143.5 C 176.9 143.5 176.9 144.85 176.9 144.8 C 177.7 143.9 178.9 143.4 180.2 143.4 C 181.5 143.4 182.6 143.8 183.3 144.5 Z M 190.7 143.5 L 193.2 143.5 L 193.2 144.8 L 190.7 144.8 C 190.7 144.8 190.73 152.12 190.7 152.1 C 190.7 153.2 191.2 153.8 192.3 153.8 C 192.33 153.85 193.2 153.8 193.2 153.8 L 193.2 155.3 C 193.2 155.3 192.02 155.34 192 155.3 C 190 155.3 189 153.9 189 152.2 C 189 152.17 189 144.8 189 144.8 L 187.5 144.8 L 187.5 143.5 L 189 143.5 L 189 139.9 L 190.7 139.9 L 190.7 143.5 Z M 204.4 149.7 L 209.7 143.5 L 211.9 143.5 L 207.9 148 L 212.6 155.3 L 210.4 155.3 L 206.7 149.3 L 204.4 151.9 L 204.4 155.3 L 202.7 155.3 L 202.7 138.2 L 204.4 138.2 L 204.4 149.7 Z M 223.6 144.5 C 224.4 145.3 224.8 146.4 224.8 147.8 C 224.83 147.8 224.8 155.3 224.8 155.3 L 223.1 155.3 C 223.1 155.3 223.1 148.06 223.1 148.1 C 223.1 146 222 144.9 220.2 144.9 C 218.4 144.9 217.2 146 217.2 148.1 C 217.25 148.06 217.2 155.3 217.2 155.3 L 215.5 155.3 L 215.5 143.5 L 217.2 143.5 C 217.2 143.5 217.22 144.85 217.2 144.8 C 218.1 143.9 219.2 143.4 220.6 143.4 C 221.8 143.4 222.9 143.8 223.6 144.5 Z M 236.6 144.7 C 237.8 145.9 238.1 147.6 238.1 149.4 C 238.1 151.3 237.8 152.9 236.6 154.1 C 235.8 155 234.7 155.5 233.2 155.5 C 231.8 155.5 230.7 155 229.8 154.1 C 228.6 152.9 228.4 151.3 228.4 149.4 C 228.4 147.6 228.6 145.9 229.8 144.7 C 230.7 143.9 231.8 143.4 233.2 143.4 C 234.7 143.4 235.8 143.9 236.6 144.7 Z M 231.1 145.8 C 230.2 146.6 230.1 148.1 230.1 149.4 C 230.1 150.8 230.2 152.2 231.1 153.1 C 231.7 153.7 232.4 153.9 233.2 153.9 C 234.1 153.9 234.8 153.7 235.4 153.1 C 236.3 152.2 236.3 150.8 236.3 149.4 C 236.3 148.1 236.3 146.6 235.4 145.8 C 234.8 145.2 234.1 144.9 233.2 144.9 C 232.4 144.9 231.7 145.2 231.1 145.8 Z M 239.7 143.5 L 241.6 143.5 L 244.3 153 L 247.4 143.5 L 248.9 143.5 L 252 153 L 254.7 143.5 L 256.6 143.5 L 252.8 155.3 L 251.2 155.3 L 248.2 145.7 L 245.1 155.3 L 243.5 155.3 L 239.7 143.5 Z M 267 143.5 L 269.5 143.5 L 269.5 144.8 L 267 144.8 C 267 144.8 267 152.12 267 152.1 C 267 153.2 267.5 153.8 268.6 153.8 C 268.61 153.85 269.5 153.8 269.5 153.8 L 269.5 155.3 C 269.5 155.3 268.29 155.34 268.3 155.3 C 266.3 155.3 265.3 153.9 265.3 152.2 C 265.27 152.17 265.3 144.8 265.3 144.8 L 263.8 144.8 L 263.8 143.5 L 265.3 143.5 L 265.3 139.9 L 267 139.9 L 267 143.5 Z M 274.7 144.8 C 275.5 143.9 276.6 143.4 278 143.4 C 279.3 143.4 280.3 143.8 281 144.5 C 281.9 145.3 282.2 146.4 282.2 147.8 C 282.24 147.8 282.2 155.3 282.2 155.3 L 280.5 155.3 C 280.5 155.3 280.51 148.06 280.5 148.1 C 280.5 146 279.4 144.9 277.6 144.9 C 275.9 144.9 274.7 146 274.7 148.1 C 274.68 148.06 274.7 155.3 274.7 155.3 L 272.9 155.3 L 272.9 138.2 L 274.7 138.2 C 274.7 138.2 274.68 144.85 274.7 144.8 Z M 294.9 147.3 C 294.86 147.32 294.9 155.3 294.9 155.3 L 293.1 155.3 C 293.1 155.3 293.13 154.21 293.1 154.2 C 292.2 155.1 291.3 155.5 289.7 155.5 C 288.1 155.5 287.2 155.2 286.4 154.4 C 285.8 153.8 285.5 152.9 285.5 152 C 285.5 149.9 287 148.6 289.6 148.6 C 289.6 148.59 293.1 148.6 293.1 148.6 C 293.1 148.6 293.13 147.46 293.1 147.5 C 293.1 145.8 292.3 144.9 290.1 144.9 C 288.6 144.9 287.9 145.3 287.1 146.2 C 287.1 146.2 286 145.2 286 145.2 C 287 143.8 288.2 143.4 290.1 143.4 C 293.3 143.4 294.9 144.8 294.9 147.3 Z M 289.8 149.9 C 288.1 149.9 287.2 150.6 287.2 152 C 287.2 153.3 288 154 289.9 154 C 290.9 154 291.8 153.9 292.5 153.2 C 292.9 152.8 293.1 152.1 293.1 151.2 C 293.13 151.16 293.1 149.9 293.1 149.9 C 293.1 149.9 289.84 149.89 289.8 149.9 Z M 301.1 143.5 L 303.6 143.5 L 303.6 144.8 L 301.1 144.8 C 301.1 144.8 301.08 152.12 301.1 152.1 C 301.1 153.2 301.6 153.8 302.7 153.8 C 302.68 153.85 303.6 153.8 303.6 153.8 L 303.6 155.3 C 303.6 155.3 302.37 155.34 302.4 155.3 C 300.4 155.3 299.3 153.9 299.3 152.2 C 299.35 152.17 299.3 144.8 299.3 144.8 L 297.9 144.8 L 297.9 143.5 L 299.3 143.5 L 299.3 139.9 L 301.1 139.9 L 301.1 143.5 Z M 315.9 158.4 C 315.6 159.1 315.4 159.5 315 159.8 C 314.4 160.4 313.6 160.6 312.7 160.6 C 312.72 160.62 312 160.6 312 160.6 L 312 159.1 C 312 159.1 312.5 159.08 312.5 159.1 C 313.7 159.1 314.1 158.7 314.4 157.6 C 314.44 157.62 315.4 155.1 315.4 155.1 L 311.1 143.5 L 313 143.5 L 316.2 153 L 319.4 143.5 L 321.3 143.5 C 321.3 143.5 315.86 158.41 315.9 158.4 Z M 331.2 144.7 C 332.4 145.9 332.6 147.6 332.6 149.4 C 332.6 151.3 332.4 152.9 331.2 154.1 C 330.4 155 329.3 155.5 327.8 155.5 C 326.4 155.5 325.2 155 324.4 154.1 C 323.2 152.9 323 151.3 323 149.4 C 323 147.6 323.2 145.9 324.4 144.7 C 325.2 143.9 326.4 143.4 327.8 143.4 C 329.3 143.4 330.4 143.9 331.2 144.7 Z M 325.7 145.8 C 324.8 146.6 324.7 148.1 324.7 149.4 C 324.7 150.8 324.8 152.2 325.7 153.1 C 326.3 153.7 327 153.9 327.8 153.9 C 328.7 153.9 329.4 153.7 330 153.1 C 330.8 152.2 330.9 150.8 330.9 149.4 C 330.9 148.1 330.8 146.6 330 145.8 C 329.4 145.2 328.7 144.9 327.8 144.9 C 327 144.9 326.3 145.2 325.7 145.8 Z M 345.5 155.3 L 343.8 155.3 C 343.8 155.3 343.82 154.02 343.8 154 C 343 155 341.8 155.5 340.5 155.5 C 339.2 155.5 338.2 155.1 337.4 154.4 C 336.6 153.6 336.2 152.4 336.2 151.1 C 336.21 151.06 336.2 143.5 336.2 143.5 L 337.9 143.5 C 337.9 143.5 337.94 150.8 337.9 150.8 C 337.9 152.9 339.1 153.9 340.8 153.9 C 342.6 153.9 343.8 152.9 343.8 150.8 C 343.8 150.8 343.8 143.5 343.8 143.5 L 345.5 143.5 L 345.5 155.3 Z M 353.9 143.5 L 355.8 143.5 L 358.5 153 L 361.6 143.5 L 363.1 143.5 L 366.2 153 L 368.9 143.5 L 370.8 143.5 L 367 155.3 L 365.4 155.3 L 362.3 145.7 L 359.3 155.3 L 357.7 155.3 L 353.9 143.5 Z M 381.5 147.3 C 381.5 147.32 381.5 155.3 381.5 155.3 L 379.8 155.3 C 379.8 155.3 379.77 154.21 379.8 154.2 C 378.8 155.1 377.9 155.5 376.4 155.5 C 374.7 155.5 373.8 155.2 373 154.4 C 372.4 153.8 372.1 152.9 372.1 152 C 372.1 149.9 373.6 148.6 376.2 148.6 C 376.24 148.59 379.8 148.6 379.8 148.6 C 379.8 148.6 379.77 147.46 379.8 147.5 C 379.8 145.8 378.9 144.9 376.7 144.9 C 375.3 144.9 374.5 145.3 373.8 146.2 C 373.8 146.2 372.6 145.2 372.6 145.2 C 373.6 143.8 374.8 143.4 376.8 143.4 C 380 143.4 381.5 144.8 381.5 147.3 Z M 376.5 149.9 C 374.7 149.9 373.8 150.6 373.8 152 C 373.8 153.3 374.7 154 376.6 154 C 377.5 154 378.4 153.9 379.2 153.2 C 379.6 152.8 379.8 152.1 379.8 151.2 C 379.77 151.16 379.8 149.9 379.8 149.9 C 379.8 149.9 376.48 149.89 376.5 149.9 Z M 393.8 144.5 C 394.6 145.3 395 146.4 395 147.8 C 395.01 147.8 395 155.3 395 155.3 L 393.3 155.3 C 393.3 155.3 393.28 148.06 393.3 148.1 C 393.3 146 392.2 144.9 390.4 144.9 C 388.6 144.9 387.4 146 387.4 148.1 C 387.43 148.06 387.4 155.3 387.4 155.3 L 385.7 155.3 L 385.7 143.5 L 387.4 143.5 C 387.4 143.5 387.4 144.85 387.4 144.8 C 388.2 143.9 389.4 143.4 390.7 143.4 C 392 143.4 393.1 143.8 393.8 144.5 Z M 401.2 143.5 L 403.7 143.5 L 403.7 144.8 L 401.2 144.8 C 401.2 144.8 401.23 152.12 401.2 152.1 C 401.2 153.2 401.7 153.8 402.8 153.8 C 402.84 153.85 403.7 153.8 403.7 153.8 L 403.7 155.3 C 403.7 155.3 402.52 155.34 402.5 155.3 C 400.5 155.3 399.5 153.9 399.5 152.2 C 399.5 152.17 399.5 144.8 399.5 144.8 L 398 144.8 L 398 143.5 L 399.5 143.5 L 399.5 139.9 L 401.2 139.9 L 401.2 143.5 Z M 415.2 143.5 L 417.7 143.5 L 417.7 144.8 L 415.2 144.8 C 415.2 144.8 415.17 152.12 415.2 152.1 C 415.2 153.2 415.7 153.8 416.8 153.8 C 416.78 153.85 417.7 153.8 417.7 153.8 L 417.7 155.3 C 417.7 155.3 416.47 155.34 416.5 155.3 C 414.5 155.3 413.4 153.9 413.4 152.2 C 413.44 152.17 413.4 144.8 413.4 144.8 L 412 144.8 L 412 143.5 L 413.4 143.5 L 413.4 139.9 L 415.2 139.9 L 415.2 143.5 Z M 428.6 144.7 C 429.8 145.9 430 147.6 430 149.4 C 430 151.3 429.8 152.9 428.6 154.1 C 427.8 155 426.6 155.5 425.2 155.5 C 423.8 155.5 422.6 155 421.8 154.1 C 420.6 152.9 420.4 151.3 420.4 149.4 C 420.4 147.6 420.6 145.9 421.8 144.7 C 422.6 143.9 423.8 143.4 425.2 143.4 C 426.6 143.4 427.8 143.9 428.6 144.7 Z M 423.1 145.8 C 422.2 146.6 422.1 148.1 422.1 149.4 C 422.1 150.8 422.2 152.2 423.1 153.1 C 423.6 153.7 424.4 153.9 425.2 153.9 C 426 153.9 426.8 153.7 427.4 153.1 C 428.2 152.2 428.3 150.8 428.3 149.4 C 428.3 148.1 428.2 146.6 427.4 145.8 C 426.8 145.2 426 144.9 425.2 144.9 C 424.4 144.9 423.6 145.2 423.1 145.8 Z M 448.7 149.1 C 448.75 149.12 448.7 149.9 448.7 149.9 C 448.7 149.9 440.78 149.89 440.8 149.9 C 440.8 152.5 442 154 444.3 154 C 445.6 154 446.4 153.6 447.4 152.6 C 447.4 152.6 448.5 153.7 448.5 153.7 C 447.3 154.9 446.2 155.5 444.2 155.5 C 441.1 155.5 439.1 153.6 439.1 149.4 C 439.1 145.6 440.9 143.4 443.9 143.4 C 447 143.4 448.7 145.6 448.7 149.1 Z M 441.1 146.6 C 440.9 147.2 440.8 147.6 440.8 148.6 C 440.8 148.6 447 148.6 447 148.6 C 447 147.6 446.9 147.2 446.7 146.6 C 446.2 145.5 445.2 144.8 443.9 144.8 C 442.6 144.8 441.6 145.5 441.1 146.6 Z M 460.5 144.5 C 461.3 145.3 461.7 146.4 461.7 147.8 C 461.73 147.8 461.7 155.3 461.7 155.3 L 460 155.3 C 460 155.3 460 148.06 460 148.1 C 460 146 458.9 144.9 457.1 144.9 C 455.3 144.9 454.1 146 454.1 148.1 C 454.15 148.06 454.1 155.3 454.1 155.3 L 452.4 155.3 L 452.4 143.5 L 454.1 143.5 C 454.1 143.5 454.12 144.85 454.1 144.8 C 455 143.9 456.1 143.4 457.5 143.4 C 458.7 143.4 459.8 143.8 460.5 144.5 Z M 473.9 144.7 C 473.9 144.7 472.8 145.8 472.8 145.8 C 472 145.1 470.9 144.8 469.6 144.8 C 467.9 144.8 467 145.6 467 146.8 C 467 147.8 467.7 148.4 469.1 148.5 C 469.1 148.5 471 148.7 471 148.7 C 473 148.9 474.4 149.6 474.4 151.9 C 474.4 154.2 472.5 155.5 469.6 155.5 C 467.6 155.5 466.1 155 464.8 153.8 C 464.8 153.8 466 152.6 466 152.6 C 466.9 153.6 468.2 154 469.6 154 C 471.6 154 472.8 153.3 472.8 151.9 C 472.8 150.8 472.2 150.3 470.8 150.2 C 470.8 150.2 468.9 150 468.9 150 C 466.6 149.8 465.3 148.8 465.3 146.8 C 465.3 144.7 467.1 143.4 469.7 143.4 C 471.4 143.4 472.8 143.8 473.9 144.7 Z M 487 155.3 L 485.3 155.3 C 485.3 155.3 485.32 154.02 485.3 154 C 484.5 155 483.3 155.5 482 155.5 C 480.7 155.5 479.7 155.1 478.9 154.4 C 478.1 153.6 477.7 152.4 477.7 151.1 C 477.71 151.06 477.7 143.5 477.7 143.5 L 479.4 143.5 C 479.4 143.5 479.44 150.8 479.4 150.8 C 479.4 152.9 480.6 153.9 482.3 153.9 C 484.1 153.9 485.3 152.9 485.3 150.8 C 485.3 150.8 485.3 143.5 485.3 143.5 L 487 143.5 L 487 155.3 Z M 499.2 144.5 C 499.2 144.5 497.9 145.8 497.9 145.8 C 497.3 145.1 496.8 144.9 495.9 144.9 C 494.2 144.9 493.1 146.3 493.1 148.1 C 493.07 148.09 493.1 155.3 493.1 155.3 L 491.3 155.3 L 491.3 143.5 L 493.1 143.5 C 493.1 143.5 493.07 144.97 493.1 145 C 493.7 144 495 143.4 496.4 143.4 C 497.5 143.4 498.4 143.6 499.2 144.5 Z M 509.8 149.1 C 509.78 149.12 509.8 149.9 509.8 149.9 C 509.8 149.9 501.81 149.89 501.8 149.9 C 501.8 152.5 503 154 505.3 154 C 506.7 154 507.4 153.6 508.4 152.6 C 508.4 152.6 509.6 153.7 509.6 153.7 C 508.4 154.9 507.2 155.5 505.2 155.5 C 502.1 155.5 500.1 153.6 500.1 149.4 C 500.1 145.6 501.9 143.4 504.9 143.4 C 508 143.4 509.8 145.6 509.8 149.1 Z M 502.2 146.6 C 501.9 147.2 501.9 147.6 501.8 148.6 C 501.8 148.6 508.1 148.6 508.1 148.6 C 508 147.6 508 147.2 507.7 146.6 C 507.2 145.5 506.2 144.8 504.9 144.8 C 503.7 144.8 502.7 145.5 502.2 146.6 Z M 521.4 143.5 L 524 143.5 L 524 144.8 L 521.4 144.8 C 521.4 144.8 521.44 152.12 521.4 152.1 C 521.4 153.2 521.9 153.8 523 153.8 C 523.05 153.85 524 153.8 524 153.8 L 524 155.3 C 524 155.3 522.74 155.34 522.7 155.3 C 520.7 155.3 519.7 153.9 519.7 152.2 C 519.71 152.17 519.7 144.8 519.7 144.8 L 518.2 144.8 L 518.2 143.5 L 519.7 143.5 L 519.7 139.9 L 521.4 139.9 L 521.4 143.5 Z M 529.1 144.8 C 530 143.9 531.1 143.4 532.4 143.4 C 533.7 143.4 534.8 143.8 535.5 144.5 C 536.3 145.3 536.7 146.4 536.7 147.8 C 536.68 147.8 536.7 155.3 536.7 155.3 L 535 155.3 C 535 155.3 534.95 148.06 535 148.1 C 535 146 533.8 144.9 532.1 144.9 C 530.3 144.9 529.1 146 529.1 148.1 C 529.12 148.06 529.1 155.3 529.1 155.3 L 527.4 155.3 L 527.4 138.2 L 529.1 138.2 C 529.1 138.2 529.12 144.85 529.1 144.8 Z M 549.9 149.1 C 549.93 149.12 549.9 149.9 549.9 149.9 C 549.9 149.9 541.96 149.89 542 149.9 C 542 152.5 543.2 154 545.4 154 C 546.8 154 547.6 153.6 548.5 152.6 C 548.5 152.6 549.7 153.7 549.7 153.7 C 548.5 154.9 547.4 155.5 545.4 155.5 C 542.2 155.5 540.2 153.6 540.2 149.4 C 540.2 145.6 542.1 143.4 545.1 143.4 C 548.2 143.4 549.9 145.6 549.9 149.1 Z M 542.3 146.6 C 542 147.2 542 147.6 542 148.6 C 542 148.6 548.2 148.6 548.2 148.6 C 548.2 147.6 548.1 147.2 547.8 146.6 C 547.3 145.5 546.4 144.8 545.1 144.8 C 543.8 144.8 542.8 145.5 542.3 146.6 Z M 556.3 158.4 C 556.1 159.1 555.8 159.5 555.5 159.8 C 554.9 160.4 554 160.6 553.2 160.6 C 553.19 160.62 552.4 160.6 552.4 160.6 L 552.4 159.1 C 552.4 159.1 552.98 159.08 553 159.1 C 554.2 159.1 554.5 158.7 554.9 157.6 C 554.92 157.62 555.8 155.1 555.8 155.1 L 551.6 143.5 L 553.5 143.5 L 556.7 153 L 559.9 143.5 L 561.8 143.5 C 561.8 143.5 556.34 158.41 556.3 158.4 Z " stroke="none" fill="#000"/>  </g></svg>