<?xml version="1.0" standalone="no"?><!DOCTYPE svg PUBLIC "-//W3C//DTD SVG 1.1//EN" "http://www.w3.org/Graphics/SVG/1.1/DTD/svg11.dtd"><svg xmlns="http://www.w3.org/2000/svg" version="1.1" width="136px" height="32.7198486328125px" viewBox="0 0 136 32.7198486328125">  <desc>Meeting preparation</desc>  <defs/>  <g id="Polygon28214">    <path d="M 10.3 15.3 L 8.5 15.3 L 8.5 5.1 L 6.3 11.8 L 5.2 11.8 L 3 5.3 L 3 15.3 L 1.3 15.3 L 1.3 1 L 2.9 1 L 5.8 9 L 8.6 1 L 10.3 1 L 10.3 15.3 Z M 14 10.5 C 14 12.1 14 13.1 14.4 13.5 C 14.6 13.8 14.9 14 15.3 14 C 15.7 14 16 13.9 16.2 13.6 C 16.5 13.3 16.6 12.9 16.6 12.4 C 16.6 12.4 18.2 12.4 18.2 12.4 C 18.2 13.3 17.9 14.1 17.4 14.7 C 16.9 15.2 16.2 15.4 15.3 15.4 C 14.4 15.4 13.8 15.2 13.3 14.6 C 12.5 13.8 12.3 12.3 12.3 10.1 C 12.3 7.9 12.5 6.4 13.2 5.6 C 13.8 5 14.4 4.8 15.3 4.8 C 16.1 4.8 16.8 5 17.3 5.6 C 18.1 6.4 18.2 7.9 18.2 10.5 C 18.2 10.5 14 10.5 14 10.5 Z M 16.2 6.6 C 16 6.4 15.7 6.2 15.3 6.2 C 14.8 6.2 14.6 6.4 14.4 6.6 C 14.1 7 14 7.8 14 9.3 C 14 9.3 16.6 9.3 16.6 9.3 C 16.6 7.8 16.5 7 16.2 6.6 Z M 21.5 10.5 C 21.5 12.1 21.6 13.1 21.9 13.5 C 22.1 13.8 22.4 14 22.8 14 C 23.2 14 23.5 13.9 23.8 13.6 C 24 13.3 24.1 12.9 24.1 12.4 C 24.1 12.4 25.7 12.4 25.7 12.4 C 25.7 13.3 25.5 14.1 24.9 14.7 C 24.4 15.2 23.7 15.4 22.8 15.4 C 22 15.4 21.3 15.2 20.8 14.6 C 20 13.8 19.9 12.3 19.9 10.1 C 19.9 7.9 20 6.4 20.8 5.6 C 21.3 5 22 4.8 22.8 4.8 C 23.6 4.8 24.3 5 24.8 5.6 C 25.6 6.4 25.8 7.9 25.8 10.5 C 25.8 10.5 21.5 10.5 21.5 10.5 Z M 23.7 6.6 C 23.5 6.4 23.2 6.2 22.8 6.2 C 22.4 6.2 22.1 6.4 21.9 6.6 C 21.6 7 21.5 7.8 21.5 9.3 C 21.5 9.3 24.1 9.3 24.1 9.3 C 24.1 7.8 24 7 23.7 6.6 Z M 29 14.6 C 28.4 14.2 28.1 13.4 28.1 12.3 C 28.06 12.32 28.1 6.2 28.1 6.2 L 26.9 6.2 L 26.9 4.9 L 28.1 4.9 L 28.1 2.1 L 29.7 2.1 L 29.7 4.9 L 31.3 4.9 L 31.3 6.2 L 29.7 6.2 C 29.7 6.2 29.68 12.26 29.7 12.3 C 29.7 13.4 30.3 13.8 31.3 13.8 C 31.3 13.8 31.3 15.3 31.3 15.3 C 30.4 15.3 29.6 15.2 29 14.6 Z M 34.5 15.3 L 32.9 15.3 L 32.9 4.9 L 34.5 4.9 L 34.5 15.3 Z M 34.6 3.1 L 32.7 3.1 L 32.7 1.2 L 34.6 1.2 L 34.6 3.1 Z M 41.9 5.5 C 42.3 6 42.5 6.5 42.5 7.7 C 42.48 7.66 42.5 15.3 42.5 15.3 L 40.9 15.3 C 40.9 15.3 40.86 7.66 40.9 7.7 C 40.9 6.7 40.3 6.2 39.6 6.2 C 38.9 6.2 38.4 6.7 38.4 7.7 C 38.4 7.66 38.4 15.3 38.4 15.3 L 36.8 15.3 L 36.8 4.9 L 38.3 4.9 C 38.3 4.9 38.34 5.72 38.3 5.7 C 38.5 5.5 38.8 5.2 39 5.1 C 39.3 4.9 39.7 4.8 40.1 4.8 C 40.9 4.8 41.4 5 41.9 5.5 Z M 48 5.1 C 48.2 5.2 48.4 5.4 48.6 5.6 C 48.58 5.64 48.6 4.9 48.6 4.9 L 50.1 4.9 C 50.1 4.9 50.14 15.64 50.1 15.6 C 50.1 17.2 49.9 17.9 49.3 18.5 C 48.8 19 48.1 19.3 47.3 19.3 C 46.5 19.3 45.7 19.1 45.2 18.6 C 44.6 18 44.4 17.2 44.4 16.3 C 44.4 16.3 46 16.3 46 16.3 C 46 16.9 46.1 17.3 46.4 17.6 C 46.6 17.8 46.9 17.9 47.3 17.9 C 47.6 17.9 47.9 17.8 48.1 17.5 C 48.4 17.2 48.5 16.7 48.5 15.7 C 48.5 15.7 48.5 14.2 48.5 14.2 C 48.4 14.4 48.2 14.7 48 14.8 C 47.7 15 47.3 15.1 46.9 15.1 C 46.2 15.1 45.6 14.9 45.2 14.4 C 44.5 13.6 44.4 12.5 44.4 9.9 C 44.4 7.4 44.5 6.3 45.2 5.5 C 45.6 5 46.1 4.8 46.9 4.8 C 47.3 4.8 47.7 4.9 48 5.1 Z M 46.4 6.6 C 46 7.1 46 7.9 46 10 C 46 12 46 12.8 46.4 13.3 C 46.6 13.5 46.9 13.7 47.3 13.7 C 47.6 13.7 47.9 13.6 48.1 13.4 C 48.4 13.1 48.5 12.7 48.5 12.2 C 48.5 12.2 48.5 7.7 48.5 7.7 C 48.5 7.2 48.4 6.8 48.1 6.5 C 47.9 6.3 47.6 6.2 47.3 6.2 C 46.9 6.2 46.6 6.4 46.4 6.6 Z M 62 10.1 C 62 12.6 61.9 13.9 61.2 14.7 C 60.7 15.2 60.2 15.4 59.5 15.4 C 59 15.4 58.7 15.3 58.4 15.1 C 58.2 15 57.9 14.8 57.8 14.6 C 57.78 14.56 57.8 19.2 57.8 19.2 L 56.2 19.2 L 56.2 4.9 L 57.7 4.9 C 57.7 4.9 57.74 5.72 57.7 5.7 C 57.9 5.5 58.2 5.2 58.4 5.1 C 58.7 4.9 59 4.8 59.5 4.8 C 60.2 4.8 60.7 5 61.2 5.5 C 61.9 6.3 62 7.7 62 10.1 Z M 57.8 7.7 C 57.8 7.7 57.8 12.5 57.8 12.5 C 57.8 13 57.9 13.4 58.2 13.7 C 58.4 13.9 58.7 14 59 14 C 59.4 14 59.7 13.8 59.9 13.6 C 60.3 13.1 60.3 12.3 60.3 10.1 C 60.3 8 60.3 7.1 59.9 6.6 C 59.7 6.4 59.4 6.2 59 6.2 C 58.7 6.2 58.4 6.3 58.2 6.5 C 57.9 6.8 57.8 7.2 57.8 7.7 Z M 67.9 6.3 C 67.9 6.3 67.42 6.32 67.4 6.3 C 66.3 6.3 65.5 7 65.5 8.2 C 65.54 8.22 65.5 15.3 65.5 15.3 L 63.9 15.3 L 63.9 4.9 L 65.5 4.9 C 65.5 4.9 65.48 6.02 65.5 6 C 65.6 5.7 65.9 5.5 66.2 5.3 C 66.7 4.9 67.2 4.8 67.9 4.8 C 67.9 4.76 67.9 6.3 67.9 6.3 Z M 70.6 10.5 C 70.6 12.1 70.6 13.1 71 13.5 C 71.2 13.8 71.5 14 71.9 14 C 72.3 14 72.6 13.9 72.8 13.6 C 73.1 13.3 73.2 12.9 73.2 12.4 C 73.2 12.4 74.8 12.4 74.8 12.4 C 74.8 13.3 74.5 14.1 73.9 14.7 C 73.4 15.2 72.7 15.4 71.9 15.4 C 71 15.4 70.4 15.2 69.8 14.6 C 69.1 13.8 68.9 12.3 68.9 10.1 C 68.9 7.9 69.1 6.4 69.8 5.6 C 70.4 5 71 4.8 71.9 4.8 C 72.7 4.8 73.4 5 73.9 5.6 C 74.7 6.4 74.8 7.9 74.8 10.5 C 74.8 10.5 70.6 10.5 70.6 10.5 Z M 72.8 6.6 C 72.6 6.4 72.3 6.2 71.9 6.2 C 71.4 6.2 71.2 6.4 71 6.6 C 70.6 7 70.6 7.8 70.6 9.3 C 70.6 9.3 73.2 9.3 73.2 9.3 C 73.2 7.8 73.1 7 72.8 6.6 Z M 82.6 10.1 C 82.6 12.6 82.5 13.9 81.8 14.7 C 81.4 15.2 80.8 15.4 80.1 15.4 C 79.7 15.4 79.3 15.3 79 15.1 C 78.8 15 78.6 14.8 78.4 14.6 C 78.4 14.56 78.4 19.2 78.4 19.2 L 76.8 19.2 L 76.8 4.9 L 78.4 4.9 C 78.4 4.9 78.36 5.72 78.4 5.7 C 78.5 5.5 78.8 5.2 79 5.1 C 79.3 4.9 79.7 4.8 80.1 4.8 C 80.8 4.8 81.4 5 81.8 5.5 C 82.5 6.3 82.6 7.7 82.6 10.1 Z M 78.4 7.7 C 78.4 7.7 78.4 12.5 78.4 12.5 C 78.4 13 78.5 13.4 78.8 13.7 C 79 13.9 79.3 14 79.6 14 C 80 14 80.3 13.8 80.5 13.6 C 80.9 13.1 81 12.3 81 10.1 C 81 8 80.9 7.1 80.5 6.6 C 80.3 6.4 80 6.2 79.6 6.2 C 79.3 6.2 79 6.3 78.8 6.5 C 78.5 6.8 78.4 7.2 78.4 7.7 Z M 89 5.5 C 89.5 6 89.8 6.7 89.8 7.8 C 89.84 7.76 89.8 15.3 89.8 15.3 L 88.3 15.3 C 88.3 15.3 88.3 14.36 88.3 14.4 C 88.1 14.6 87.9 14.9 87.7 15.1 C 87.4 15.3 87 15.4 86.5 15.4 C 85.7 15.4 85.2 15.2 84.7 14.7 C 84.3 14.2 84 13.4 84 12.3 C 84 11.4 84.4 10.5 85 10 C 85.5 9.5 86.1 9.3 87.2 9.3 C 87.16 9.3 88.2 9.3 88.2 9.3 C 88.2 9.3 88.22 7.66 88.2 7.7 C 88.2 6.7 87.8 6.2 87 6.2 C 86.6 6.2 86.4 6.3 86.2 6.5 C 85.9 6.8 85.8 7.2 85.8 7.7 C 85.8 7.7 84.2 7.7 84.2 7.7 C 84.2 6.9 84.4 6.1 85 5.5 C 85.5 5.1 86.2 4.8 87 4.8 C 87.8 4.8 88.5 5 89 5.5 Z M 87.3 10.5 C 86.8 10.5 86.5 10.6 86.1 10.9 C 85.8 11.1 85.7 11.7 85.7 12.3 C 85.7 13.4 86.1 14 86.9 14 C 87.7 14 88.2 13.4 88.2 12.4 C 88.22 12.4 88.2 10.5 88.2 10.5 C 88.2 10.5 87.3 10.48 87.3 10.5 Z M 96 6.3 C 96 6.3 95.54 6.32 95.5 6.3 C 94.4 6.3 93.7 7 93.7 8.2 C 93.66 8.22 93.7 15.3 93.7 15.3 L 92 15.3 L 92 4.9 L 93.6 4.9 C 93.6 4.9 93.6 6.02 93.6 6 C 93.8 5.7 94.1 5.5 94.3 5.3 C 94.8 4.9 95.4 4.8 96 4.8 C 96.02 4.76 96 6.3 96 6.3 Z M 101.9 5.5 C 102.4 6 102.7 6.7 102.7 7.8 C 102.68 7.76 102.7 15.3 102.7 15.3 L 101.1 15.3 C 101.1 15.3 101.14 14.36 101.1 14.4 C 101 14.6 100.7 14.9 100.5 15.1 C 100.2 15.3 99.9 15.4 99.3 15.4 C 98.6 15.4 98 15.2 97.5 14.7 C 97.1 14.2 96.9 13.4 96.9 12.3 C 96.9 11.4 97.2 10.5 97.8 10 C 98.3 9.5 98.9 9.3 100 9.3 C 100 9.3 101.1 9.3 101.1 9.3 C 101.1 9.3 101.06 7.66 101.1 7.7 C 101.1 6.7 100.6 6.2 99.8 6.2 C 99.5 6.2 99.2 6.3 99 6.5 C 98.8 6.8 98.7 7.2 98.7 7.7 C 98.7 7.7 97 7.7 97 7.7 C 97 6.9 97.2 6.1 97.8 5.5 C 98.3 5.1 99 4.8 99.8 4.8 C 100.7 4.8 101.4 5 101.9 5.5 Z M 100.1 10.5 C 99.6 10.5 99.3 10.6 99 10.9 C 98.7 11.1 98.5 11.7 98.5 12.3 C 98.5 13.4 98.9 14 99.8 14 C 100.5 14 101.1 13.4 101.1 12.4 C 101.06 12.4 101.1 10.5 101.1 10.5 C 101.1 10.5 100.14 10.48 100.1 10.5 Z M 106.2 14.6 C 105.6 14.2 105.3 13.4 105.3 12.3 C 105.26 12.32 105.3 6.2 105.3 6.2 L 104.1 6.2 L 104.1 4.9 L 105.3 4.9 L 105.3 2.1 L 106.9 2.1 L 106.9 4.9 L 108.5 4.9 L 108.5 6.2 L 106.9 6.2 C 106.9 6.2 106.88 12.26 106.9 12.3 C 106.9 13.4 107.5 13.8 108.5 13.8 C 108.5 13.8 108.5 15.3 108.5 15.3 C 107.6 15.3 106.8 15.2 106.2 14.6 Z M 111.7 15.3 L 110.1 15.3 L 110.1 4.9 L 111.7 4.9 L 111.7 15.3 Z M 111.8 3.1 L 109.9 3.1 L 109.9 1.2 L 111.8 1.2 L 111.8 3.1 Z M 118.8 5.7 C 119.4 6.5 119.5 8 119.5 10.1 C 119.5 12.2 119.4 13.7 118.8 14.5 C 118.3 15.2 117.5 15.4 116.6 15.4 C 115.7 15.4 114.9 15.2 114.4 14.5 C 113.8 13.7 113.7 12.2 113.7 10.1 C 113.7 8 113.8 6.5 114.4 5.7 C 114.9 5 115.7 4.8 116.6 4.8 C 117.5 4.8 118.3 5 118.8 5.7 Z M 115.7 6.7 C 115.3 7.2 115.3 8.2 115.3 10.1 C 115.3 12 115.3 13 115.7 13.5 C 115.9 13.8 116.2 14 116.6 14 C 117 14 117.3 13.8 117.5 13.5 C 117.9 13 117.9 12 117.9 10.1 C 117.9 8.2 117.9 7.2 117.5 6.7 C 117.3 6.4 117 6.2 116.6 6.2 C 116.2 6.2 115.9 6.4 115.7 6.7 Z M 126.6 5.5 C 127 6 127.2 6.5 127.2 7.7 C 127.2 7.66 127.2 15.3 127.2 15.3 L 125.6 15.3 C 125.6 15.3 125.58 7.66 125.6 7.7 C 125.6 6.7 125 6.2 124.3 6.2 C 123.7 6.2 123.1 6.7 123.1 7.7 C 123.12 7.66 123.1 15.3 123.1 15.3 L 121.5 15.3 L 121.5 4.9 L 123.1 4.9 C 123.1 4.9 123.06 5.72 123.1 5.7 C 123.2 5.5 123.5 5.2 123.7 5.1 C 124 4.9 124.4 4.8 124.8 4.8 C 125.6 4.8 126.1 5 126.6 5.5 Z " stroke="none" fill="#840028"/>  </g></svg>