<?xml version="1.0" standalone="no"?><!DOCTYPE svg PUBLIC "-//W3C//DTD SVG 1.1//EN" "http://www.w3.org/Graphics/SVG/1.1/DTD/svg11.dtd"><svg xmlns="http://www.w3.org/2000/svg" version="1.1" width="136px" height="32.7198486328125px" viewBox="0 0 136 32.7198486328125">  <desc>Case submission</desc>  <defs/>  <g id="Polygon27894">    <path d="M 6.7 1.7 C 7.3 2.4 7.7 3.4 7.7 4.5 C 7.7 4.5 6 4.5 6 4.5 C 6 3.9 5.9 3.3 5.5 2.9 C 5.3 2.6 5 2.4 4.4 2.4 C 3.9 2.4 3.5 2.6 3.2 3 C 2.7 3.6 2.7 4.8 2.7 8.2 C 2.7 11.5 2.7 12.7 3.2 13.4 C 3.5 13.7 3.9 13.9 4.4 13.9 C 5 13.9 5.3 13.7 5.5 13.4 C 5.9 13 6 12.4 6 11.8 C 6 11.8 7.7 11.8 7.7 11.8 C 7.7 13 7.3 14 6.6 14.7 C 6.1 15.2 5.4 15.4 4.4 15.4 C 3.3 15.4 2.5 15 2 14.4 C 1 13.3 0.9 12.1 0.9 8.2 C 0.9 4.2 1 3 2 1.9 C 2.5 1.3 3.3 0.9 4.4 0.9 C 5.4 0.9 6.1 1.2 6.7 1.7 Z M 14.1 5.5 C 14.6 6 14.9 6.7 14.9 7.8 C 14.9 7.76 14.9 15.3 14.9 15.3 L 13.4 15.3 C 13.4 15.3 13.36 14.36 13.4 14.4 C 13.2 14.6 13 14.9 12.8 15.1 C 12.4 15.3 12.1 15.4 11.5 15.4 C 10.8 15.4 10.2 15.2 9.8 14.7 C 9.4 14.2 9.1 13.4 9.1 12.3 C 9.1 11.4 9.4 10.5 10 10 C 10.5 9.5 11.1 9.3 12.2 9.3 C 12.22 9.3 13.3 9.3 13.3 9.3 C 13.3 9.3 13.28 7.66 13.3 7.7 C 13.3 6.7 12.9 6.2 12.1 6.2 C 11.7 6.2 11.5 6.3 11.3 6.5 C 11 6.8 10.9 7.2 10.9 7.7 C 10.9 7.7 9.3 7.7 9.3 7.7 C 9.3 6.9 9.4 6.1 10.1 5.5 C 10.5 5.1 11.3 4.8 12.1 4.8 C 12.9 4.8 13.6 5 14.1 5.5 Z M 12.4 10.5 C 11.9 10.5 11.5 10.6 11.2 10.9 C 10.9 11.1 10.7 11.7 10.7 12.3 C 10.7 13.4 11.1 14 12 14 C 12.8 14 13.3 13.4 13.3 12.4 C 13.28 12.4 13.3 10.5 13.3 10.5 C 13.3 10.5 12.36 10.48 12.4 10.5 Z M 21.6 5.5 C 22.1 6 22.4 6.8 22.4 7.8 C 22.4 7.8 20.8 7.8 20.8 7.8 C 20.8 7.2 20.7 6.8 20.4 6.5 C 20.2 6.3 19.9 6.2 19.5 6.2 C 19.2 6.2 18.9 6.3 18.6 6.5 C 18.4 6.8 18.3 7.1 18.3 7.5 C 18.3 7.8 18.3 8.1 18.4 8.3 C 18.6 8.5 18.9 8.8 19.3 9 C 19.3 9 20.6 9.6 20.6 9.6 C 21.3 10 21.8 10.3 22.1 10.8 C 22.4 11.2 22.5 11.8 22.5 12.5 C 22.5 13.4 22.2 14.1 21.6 14.6 C 21.1 15.2 20.4 15.4 19.5 15.4 C 18.7 15.4 17.9 15.2 17.4 14.6 C 16.8 14 16.6 13.3 16.6 12.4 C 16.6 12.4 18.2 12.4 18.2 12.4 C 18.2 12.9 18.3 13.3 18.6 13.6 C 18.8 13.9 19.2 14 19.5 14 C 19.9 14 20.2 13.9 20.5 13.6 C 20.7 13.4 20.9 13 20.9 12.6 C 20.9 12.2 20.8 11.9 20.6 11.6 C 20.4 11.3 20.1 11.1 19.7 10.9 C 19.7 10.9 18.4 10.2 18.4 10.2 C 17.7 9.9 17.2 9.4 17 9 C 16.7 8.6 16.6 8.2 16.6 7.6 C 16.6 6.7 17 6.1 17.5 5.5 C 18 5 18.7 4.8 19.5 4.8 C 20.4 4.8 21.1 5 21.6 5.5 Z M 25.6 10.5 C 25.6 12.1 25.6 13.1 26 13.5 C 26.2 13.8 26.5 14 26.9 14 C 27.3 14 27.6 13.9 27.8 13.6 C 28.1 13.3 28.2 12.9 28.2 12.4 C 28.2 12.4 29.8 12.4 29.8 12.4 C 29.8 13.3 29.5 14.1 29 14.7 C 28.5 15.2 27.8 15.4 26.9 15.4 C 26 15.4 25.4 15.2 24.9 14.6 C 24.1 13.8 23.9 12.3 23.9 10.1 C 23.9 7.9 24.1 6.4 24.8 5.6 C 25.4 5 26 4.8 26.9 4.8 C 27.7 4.8 28.4 5 28.9 5.6 C 29.7 6.4 29.8 7.9 29.8 10.5 C 29.8 10.5 25.6 10.5 25.6 10.5 Z M 27.8 6.6 C 27.6 6.4 27.3 6.2 26.9 6.2 C 26.4 6.2 26.2 6.4 26 6.6 C 25.7 7 25.6 7.8 25.6 9.3 C 25.6 9.3 28.2 9.3 28.2 9.3 C 28.2 7.8 28.1 7 27.8 6.6 Z M 40 5.5 C 40.5 6 40.8 6.8 40.8 7.8 C 40.8 7.8 39.2 7.8 39.2 7.8 C 39.2 7.2 39.1 6.8 38.9 6.5 C 38.6 6.3 38.3 6.2 38 6.2 C 37.6 6.2 37.3 6.3 37.1 6.5 C 36.8 6.8 36.7 7.1 36.7 7.5 C 36.7 7.8 36.8 8.1 36.9 8.3 C 37 8.5 37.3 8.8 37.7 9 C 37.7 9 39.1 9.6 39.1 9.6 C 39.8 10 40.2 10.3 40.5 10.8 C 40.8 11.2 41 11.8 41 12.5 C 41 13.4 40.6 14.1 40.1 14.6 C 39.5 15.2 38.8 15.4 38 15.4 C 37.1 15.4 36.4 15.2 35.9 14.6 C 35.3 14 35 13.3 35 12.4 C 35 12.4 36.6 12.4 36.6 12.4 C 36.6 12.9 36.7 13.3 37 13.6 C 37.3 13.9 37.6 14 38 14 C 38.4 14 38.7 13.9 38.9 13.6 C 39.2 13.4 39.3 13 39.3 12.6 C 39.3 12.2 39.3 11.9 39.1 11.6 C 38.9 11.3 38.6 11.1 38.2 10.9 C 38.2 10.9 36.8 10.2 36.8 10.2 C 36.1 9.9 35.7 9.4 35.4 9 C 35.2 8.6 35.1 8.2 35.1 7.6 C 35.1 6.7 35.4 6.1 35.9 5.5 C 36.5 5 37.2 4.8 38 4.8 C 38.8 4.8 39.5 5 40 5.5 Z M 48.3 15.3 L 46.8 15.3 C 46.8 15.3 46.78 14.48 46.8 14.5 C 46.6 14.7 46.4 15 46.1 15.1 C 45.8 15.3 45.4 15.4 45 15.4 C 44.2 15.4 43.7 15.2 43.3 14.7 C 42.8 14.2 42.6 13.7 42.6 12.5 C 42.64 12.54 42.6 4.9 42.6 4.9 L 44.3 4.9 C 44.3 4.9 44.26 12.54 44.3 12.5 C 44.3 13.5 44.8 14 45.5 14 C 46.2 14 46.7 13.5 46.7 12.5 C 46.72 12.54 46.7 4.9 46.7 4.9 L 48.3 4.9 L 48.3 15.3 Z M 52.2 5.6 C 52.4 5.4 52.6 5.2 52.8 5.1 C 53.1 4.9 53.5 4.8 53.9 4.8 C 54.7 4.8 55.2 5 55.7 5.5 C 56.3 6.3 56.4 7.7 56.4 10.1 C 56.4 12.5 56.3 13.9 55.7 14.7 C 55.2 15.2 54.7 15.4 53.9 15.4 C 53.5 15.4 53.1 15.3 52.8 15.1 C 52.6 15 52.3 14.7 52.2 14.5 C 52.2 14.48 52.2 15.3 52.2 15.3 L 50.6 15.3 L 50.6 1 L 52.2 1 C 52.2 1 52.24 5.64 52.2 5.6 Z M 52.6 6.5 C 52.4 6.8 52.2 7.2 52.2 7.7 C 52.2 7.7 52.2 12.5 52.2 12.5 C 52.2 13 52.4 13.4 52.6 13.7 C 52.9 13.9 53.1 14 53.5 14 C 53.9 14 54.2 13.8 54.4 13.6 C 54.7 13.1 54.8 12.2 54.8 10.1 C 54.8 8 54.7 7.1 54.4 6.6 C 54.2 6.4 53.9 6.2 53.5 6.2 C 53.1 6.2 52.9 6.3 52.6 6.5 Z M 67.6 5.5 C 68 6 68.2 6.5 68.2 7.7 C 68.16 7.66 68.2 15.3 68.2 15.3 L 66.5 15.3 C 66.5 15.3 66.54 7.66 66.5 7.7 C 66.5 6.7 66 6.2 65.3 6.2 C 64.6 6.2 64.1 6.7 64.1 7.7 C 64.08 7.66 64.1 15.3 64.1 15.3 L 62.5 15.3 C 62.5 15.3 62.46 7.66 62.5 7.7 C 62.5 6.7 61.9 6.2 61.2 6.2 C 60.5 6.2 60 6.7 60 7.7 C 60 7.66 60 15.3 60 15.3 L 58.4 15.3 L 58.4 4.9 L 59.9 4.9 C 59.9 4.9 59.94 5.72 59.9 5.7 C 60.1 5.5 60.4 5.2 60.6 5.1 C 60.9 4.9 61.3 4.8 61.7 4.8 C 62.5 4.8 63.3 5.2 63.7 5.8 C 63.9 5.6 64.2 5.3 64.5 5.1 C 64.8 4.9 65.3 4.8 65.7 4.8 C 66.6 4.8 67.1 5 67.6 5.5 Z M 72 15.3 L 70.4 15.3 L 70.4 4.9 L 72 4.9 L 72 15.3 Z M 72.1 3.1 L 70.2 3.1 L 70.2 1.2 L 72.1 1.2 L 72.1 3.1 Z M 78.7 5.5 C 79.3 6 79.6 6.8 79.6 7.8 C 79.6 7.8 78 7.8 78 7.8 C 78 7.2 77.8 6.8 77.6 6.5 C 77.3 6.3 77 6.2 76.7 6.2 C 76.3 6.2 76 6.3 75.8 6.5 C 75.5 6.8 75.4 7.1 75.4 7.5 C 75.4 7.8 75.5 8.1 75.6 8.3 C 75.7 8.5 76 8.8 76.5 9 C 76.5 9 77.8 9.6 77.8 9.6 C 78.5 10 78.9 10.3 79.2 10.8 C 79.5 11.2 79.7 11.8 79.7 12.5 C 79.7 13.4 79.3 14.1 78.8 14.6 C 78.2 15.2 77.5 15.4 76.7 15.4 C 75.8 15.4 75.1 15.2 74.6 14.6 C 74 14 73.7 13.3 73.7 12.4 C 73.7 12.4 75.3 12.4 75.3 12.4 C 75.3 12.9 75.5 13.3 75.8 13.6 C 76 13.9 76.4 14 76.7 14 C 77.1 14 77.4 13.9 77.7 13.6 C 77.9 13.4 78.1 13 78.1 12.6 C 78.1 12.2 78 11.9 77.8 11.6 C 77.6 11.3 77.3 11.1 76.9 10.9 C 76.9 10.9 75.5 10.2 75.5 10.2 C 74.9 9.9 74.4 9.4 74.1 9 C 73.9 8.6 73.8 8.2 73.8 7.6 C 73.8 6.7 74.1 6.1 74.7 5.5 C 75.2 5 75.9 4.8 76.7 4.8 C 77.5 4.8 78.2 5 78.7 5.5 Z M 85.8 5.5 C 86.4 6 86.7 6.8 86.7 7.8 C 86.7 7.8 85.1 7.8 85.1 7.8 C 85.1 7.2 85 6.8 84.7 6.5 C 84.5 6.3 84.1 6.2 83.8 6.2 C 83.4 6.2 83.1 6.3 82.9 6.5 C 82.7 6.8 82.5 7.1 82.5 7.5 C 82.5 7.8 82.6 8.1 82.7 8.3 C 82.9 8.5 83.2 8.8 83.6 9 C 83.6 9 84.9 9.6 84.9 9.6 C 85.6 10 86.1 10.3 86.4 10.8 C 86.6 11.2 86.8 11.8 86.8 12.5 C 86.8 13.4 86.4 14.1 85.9 14.6 C 85.4 15.2 84.6 15.4 83.8 15.4 C 83 15.4 82.2 15.2 81.7 14.6 C 81.1 14 80.8 13.3 80.8 12.4 C 80.8 12.4 82.4 12.4 82.4 12.4 C 82.4 12.9 82.6 13.3 82.9 13.6 C 83.1 13.9 83.5 14 83.8 14 C 84.2 14 84.5 13.9 84.8 13.6 C 85 13.4 85.2 13 85.2 12.6 C 85.2 12.2 85.1 11.9 84.9 11.6 C 84.7 11.3 84.4 11.1 84 10.9 C 84 10.9 82.7 10.2 82.7 10.2 C 82 9.9 81.5 9.4 81.2 9 C 81 8.6 80.9 8.2 80.9 7.6 C 80.9 6.7 81.3 6.1 81.8 5.5 C 82.3 5 83 4.8 83.8 4.8 C 84.6 4.8 85.3 5 85.8 5.5 Z M 90.2 15.3 L 88.6 15.3 L 88.6 4.9 L 90.2 4.9 L 90.2 15.3 Z M 90.3 3.1 L 88.4 3.1 L 88.4 1.2 L 90.3 1.2 L 90.3 3.1 Z M 97.3 5.7 C 97.9 6.5 98 8 98 10.1 C 98 12.2 97.9 13.7 97.3 14.5 C 96.8 15.2 96 15.4 95.1 15.4 C 94.2 15.4 93.4 15.2 92.9 14.5 C 92.3 13.7 92.1 12.2 92.1 10.1 C 92.1 8 92.3 6.5 92.9 5.7 C 93.4 5 94.2 4.8 95.1 4.8 C 96 4.8 96.8 5 97.3 5.7 Z M 94.2 6.7 C 93.8 7.2 93.8 8.2 93.8 10.1 C 93.8 12 93.8 13 94.2 13.5 C 94.4 13.8 94.7 14 95.1 14 C 95.5 14 95.8 13.8 96 13.5 C 96.4 13 96.4 12 96.4 10.1 C 96.4 8.2 96.4 7.2 96 6.7 C 95.8 6.4 95.5 6.2 95.1 6.2 C 94.7 6.2 94.4 6.4 94.2 6.7 Z M 105.1 5.5 C 105.5 6 105.7 6.5 105.7 7.7 C 105.68 7.66 105.7 15.3 105.7 15.3 L 104.1 15.3 C 104.1 15.3 104.06 7.66 104.1 7.7 C 104.1 6.7 103.5 6.2 102.8 6.2 C 102.1 6.2 101.6 6.7 101.6 7.7 C 101.6 7.66 101.6 15.3 101.6 15.3 L 100 15.3 L 100 4.9 L 101.5 4.9 C 101.5 4.9 101.54 5.72 101.5 5.7 C 101.7 5.5 102 5.2 102.2 5.1 C 102.5 4.9 102.9 4.8 103.3 4.8 C 104.1 4.8 104.6 5 105.1 5.5 Z " stroke="none" fill="#323e47"/>  </g></svg>