<?xml version="1.0" standalone="no"?><!DOCTYPE svg PUBLIC "-//W3C//DTD SVG 1.1//EN" "http://www.w3.org/Graphics/SVG/1.1/DTD/svg11.dtd"><svg xmlns="http://www.w3.org/2000/svg" version="1.1" width="1305px" height="247.5517578125px" viewBox="0 0 1305 247.5517578125">  <desc>Step 5 Policy placement The policy can be accepted by the client or via limited Power of Attorney in many cases.</desc>  <defs/>  <g id="Polygon28133">    <path d="M 56.6 135.2 L 50 135.2 L 50 155.8 L 47.6 155.8 L 47.6 135.2 L 41 135.2 L 41 133.1 L 56.6 133.1 L 56.6 135.2 Z M 62.7 141.9 C 63.9 140.5 65.3 139.9 67.1 139.9 C 68.8 139.9 70.2 140.4 71.2 141.4 C 72.3 142.5 72.8 144 72.8 145.8 C 72.8 145.79 72.8 155.8 72.8 155.8 L 70.5 155.8 C 70.5 155.8 70.5 146.14 70.5 146.1 C 70.5 143.4 69 142 66.7 142 C 64.3 142 62.7 143.4 62.7 146.1 C 62.72 146.14 62.7 155.8 62.7 155.8 L 60.4 155.8 L 60.4 133.1 L 62.7 133.1 C 62.7 133.1 62.72 141.86 62.7 141.9 Z M 90.5 147.6 C 90.46 147.55 90.5 148.6 90.5 148.6 C 90.5 148.6 79.84 148.58 79.8 148.6 C 79.8 152 81.4 154 84.5 154 C 86.3 154 87.4 153.5 88.6 152.2 C 88.6 152.2 90.2 153.6 90.2 153.6 C 88.6 155.2 87.1 156 84.4 156 C 80.2 156 77.5 153.5 77.5 148 C 77.5 142.8 80 139.9 84 139.9 C 88.1 139.9 90.5 142.8 90.5 147.6 Z M 80.3 144.2 C 79.9 145.1 79.9 145.6 79.8 146.8 C 79.8 146.8 88.2 146.8 88.2 146.8 C 88.1 145.6 88.1 145.1 87.7 144.2 C 87 142.8 85.7 141.9 84 141.9 C 82.3 141.9 81 142.8 80.3 144.2 Z M 113.9 141.3 C 115.5 142.8 115.8 145.4 115.8 148 C 115.8 150.5 115.5 153.1 113.9 154.7 C 113.1 155.5 111.7 156 110.1 156 C 108.4 156 106.9 155.6 105.6 154 C 105.63 153.98 105.6 162.9 105.6 162.9 L 103.3 162.9 L 103.3 140.1 L 105.6 140.1 C 105.6 140.1 105.63 141.95 105.6 142 C 106.9 140.3 108.3 139.9 110.1 139.9 C 111.7 139.9 113.1 140.4 113.9 141.3 Z M 105.6 148 C 105.6 151 106.1 154 109.6 154 C 113 154 113.5 151 113.5 148 C 113.5 144.9 113 142 109.6 142 C 106.1 142 105.6 144.9 105.6 148 Z M 130.9 141.7 C 132.5 143.3 132.8 145.5 132.8 148 C 132.8 150.4 132.5 152.6 130.9 154.2 C 129.8 155.4 128.3 156 126.4 156 C 124.4 156 122.9 155.4 121.9 154.2 C 120.3 152.6 119.9 150.4 119.9 148 C 119.9 145.5 120.3 143.3 121.9 141.7 C 122.9 140.6 124.4 139.9 126.4 139.9 C 128.3 139.9 129.8 140.6 130.9 141.7 Z M 123.5 143.1 C 122.4 144.3 122.2 146.2 122.2 148 C 122.2 149.7 122.3 151.6 123.5 152.8 C 124.3 153.6 125.2 154 126.4 154 C 127.5 154 128.5 153.6 129.2 152.8 C 130.4 151.6 130.5 149.7 130.5 148 C 130.5 146.2 130.4 144.3 129.2 143.1 C 128.5 142.3 127.5 142 126.4 142 C 125.2 142 124.3 142.3 123.5 143.1 Z M 140 151.6 C 140 153.1 140.5 153.9 142.1 153.9 C 142.08 153.86 143.3 153.9 143.3 153.9 L 143.3 155.8 C 143.3 155.8 141.66 155.84 141.7 155.8 C 138.9 155.8 137.7 154 137.7 151.6 C 137.66 151.65 137.7 133.1 137.7 133.1 L 140 133.1 C 140 133.1 139.97 151.55 140 151.6 Z M 149.5 155.8 L 147.2 155.8 L 147.2 140.1 L 149.5 140.1 L 149.5 155.8 Z M 149.7 135.6 L 147.1 135.6 L 147.1 133 L 149.7 133 L 149.7 135.6 Z M 166.7 142.2 C 166.7 142.2 165.1 143.7 165.1 143.7 C 163.9 142.4 163 142 161.5 142 C 159.9 142 158.7 142.6 157.8 143.7 C 157.1 144.8 156.8 146 156.8 148 C 156.8 150 157.1 151.2 157.8 152.2 C 158.7 153.4 159.9 154 161.5 154 C 163 154 163.9 153.5 165.1 152.2 C 165.1 152.2 166.7 153.7 166.7 153.7 C 165 155.5 163.6 156 161.5 156 C 157.5 156 154.5 153.3 154.5 148 C 154.5 142.6 157.5 139.9 161.5 139.9 C 163.6 139.9 165 140.5 166.7 142.2 Z M 174.9 159.9 C 174.6 160.8 174.2 161.4 173.8 161.8 C 172.9 162.6 171.8 162.9 170.7 162.9 C 170.69 162.88 169.7 162.9 169.7 162.9 L 169.7 160.8 C 169.7 160.8 170.4 160.83 170.4 160.8 C 172 160.8 172.5 160.3 173 158.9 C 172.99 158.88 174.2 155.5 174.2 155.5 L 168.5 140.1 L 171 140.1 L 175.4 152.7 L 179.6 140.1 L 182.1 140.1 C 182.1 140.1 174.88 159.94 174.9 159.9 Z M 204.7 142.2 C 204.7 142.2 203.1 143.7 203.1 143.7 C 201.9 142.4 201 142 199.5 142 C 197.9 142 196.7 142.6 195.8 143.7 C 195.1 144.8 194.8 146 194.8 148 C 194.8 150 195.1 151.2 195.8 152.2 C 196.7 153.4 197.9 154 199.5 154 C 201 154 201.9 153.5 203.1 152.2 C 203.1 152.2 204.7 153.7 204.7 153.7 C 203 155.5 201.7 156 199.5 156 C 195.5 156 192.5 153.3 192.5 148 C 192.5 142.6 195.5 139.9 199.5 139.9 C 201.7 139.9 203 140.5 204.7 142.2 Z M 220.1 145.2 C 220.13 145.15 220.1 155.8 220.1 155.8 L 217.8 155.8 C 217.8 155.8 217.82 154.34 217.8 154.3 C 216.6 155.6 215.4 156 213.3 156 C 211.1 156 209.9 155.6 208.8 154.6 C 208 153.8 207.6 152.6 207.6 151.4 C 207.6 148.6 209.6 146.8 213.1 146.8 C 213.12 146.85 217.8 146.8 217.8 146.8 C 217.8 146.8 217.82 145.34 217.8 145.3 C 217.8 143.1 216.7 141.9 213.8 141.9 C 211.8 141.9 210.8 142.4 209.8 143.7 C 209.8 143.7 208.3 142.3 208.3 142.3 C 209.6 140.4 211.2 139.9 213.8 139.9 C 218.1 139.9 220.1 141.8 220.1 145.2 Z M 213.4 148.6 C 211.1 148.6 209.9 149.5 209.9 151.4 C 209.9 153.2 211 154 213.5 154 C 214.8 154 216 153.9 217 153 C 217.6 152.5 217.8 151.6 217.8 150.3 C 217.82 150.27 217.8 148.6 217.8 148.6 C 217.8 148.6 213.44 148.58 213.4 148.6 Z M 236.5 141.4 C 237.6 142.5 238.1 144 238.1 145.8 C 238.14 145.79 238.1 155.8 238.1 155.8 L 235.8 155.8 C 235.8 155.8 235.84 146.14 235.8 146.1 C 235.8 143.4 234.3 142 232 142 C 229.6 142 228 143.4 228 146.1 C 228.03 146.14 228 155.8 228 155.8 L 225.7 155.8 L 225.7 140.1 L 228 140.1 C 228 140.1 228 141.86 228 141.9 C 229.1 140.6 230.7 139.9 232.4 139.9 C 234.1 139.9 235.5 140.4 236.5 141.4 Z M 254 141.9 C 255.3 140.3 256.7 139.9 258.5 139.9 C 260.1 139.9 261.5 140.4 262.3 141.3 C 263.9 142.8 264.2 145.4 264.2 148 C 264.2 150.5 263.9 153.1 262.3 154.7 C 261.5 155.5 260.1 156 258.5 156 C 256.7 156 255.3 155.6 254 154 C 254.01 153.95 254 155.8 254 155.8 L 251.7 155.8 L 251.7 133.1 L 254 133.1 C 254 133.1 254.01 141.92 254 141.9 Z M 254 148 C 254 151 254.5 154 258 154 C 261.4 154 261.9 151 261.9 148 C 261.9 144.9 261.4 142 258 142 C 254.5 142 254 144.9 254 148 Z M 281.2 147.6 C 281.21 147.55 281.2 148.6 281.2 148.6 C 281.2 148.6 270.59 148.58 270.6 148.6 C 270.6 152 272.2 154 275.2 154 C 277.1 154 278.1 153.5 279.4 152.2 C 279.4 152.2 280.9 153.6 280.9 153.6 C 279.3 155.2 277.8 156 275.2 156 C 271 156 268.3 153.5 268.3 148 C 268.3 142.8 270.7 139.9 274.7 139.9 C 278.8 139.9 281.2 142.8 281.2 147.6 Z M 271.1 144.2 C 270.7 145.1 270.7 145.6 270.6 146.8 C 270.6 146.8 278.9 146.8 278.9 146.8 C 278.8 145.6 278.8 145.1 278.4 144.2 C 277.8 142.8 276.4 141.9 274.7 141.9 C 273.1 141.9 271.7 142.8 271.1 144.2 Z M 305.3 145.2 C 305.31 145.15 305.3 155.8 305.3 155.8 L 303 155.8 C 303 155.8 303 154.34 303 154.3 C 301.8 155.6 300.6 156 298.5 156 C 296.3 156 295.1 155.6 294 154.6 C 293.2 153.8 292.8 152.6 292.8 151.4 C 292.8 148.6 294.8 146.8 298.3 146.8 C 298.3 146.85 303 146.8 303 146.8 C 303 146.8 303 145.34 303 145.3 C 303 143.1 301.9 141.9 299 141.9 C 297 141.9 296 142.4 295 143.7 C 295 143.7 293.4 142.3 293.4 142.3 C 294.8 140.4 296.4 139.9 299 139.9 C 303.3 139.9 305.3 141.8 305.3 145.2 Z M 298.6 148.6 C 296.3 148.6 295.1 149.5 295.1 151.4 C 295.1 153.2 296.2 154 298.7 154 C 300 154 301.2 153.9 302.2 153 C 302.7 152.5 303 151.6 303 150.3 C 303 150.27 303 148.6 303 148.6 C 303 148.6 298.62 148.58 298.6 148.6 Z M 322.2 142.2 C 322.2 142.2 320.7 143.7 320.7 143.7 C 319.5 142.4 318.6 142 317.1 142 C 315.5 142 314.2 142.6 313.4 143.7 C 312.7 144.8 312.4 146 312.4 148 C 312.4 150 312.7 151.2 313.4 152.2 C 314.2 153.4 315.5 154 317.1 154 C 318.6 154 319.5 153.5 320.7 152.2 C 320.7 152.2 322.2 153.7 322.2 153.7 C 320.6 155.5 319.2 156 317.1 156 C 313.1 156 310.1 153.3 310.1 148 C 310.1 142.6 313.1 139.9 317.1 139.9 C 319.2 139.9 320.6 140.5 322.2 142.2 Z M 337.5 142.2 C 337.5 142.2 335.9 143.7 335.9 143.7 C 334.7 142.4 333.8 142 332.3 142 C 330.7 142 329.5 142.6 328.6 143.7 C 327.9 144.8 327.6 146 327.6 148 C 327.6 150 327.9 151.2 328.6 152.2 C 329.5 153.4 330.7 154 332.3 154 C 333.8 154 334.7 153.5 335.9 152.2 C 335.9 152.2 337.5 153.7 337.5 153.7 C 335.8 155.5 334.5 156 332.3 156 C 328.3 156 325.3 153.3 325.3 148 C 325.3 142.6 328.3 139.9 332.3 139.9 C 334.5 139.9 335.8 140.5 337.5 142.2 Z M 353.4 147.6 C 353.44 147.55 353.4 148.6 353.4 148.6 C 353.4 148.6 342.81 148.58 342.8 148.6 C 342.8 152 344.4 154 347.5 154 C 349.3 154 350.3 153.5 351.6 152.2 C 351.6 152.2 353.1 153.6 353.1 153.6 C 351.5 155.2 350 156 347.4 156 C 343.2 156 340.5 153.5 340.5 148 C 340.5 142.8 343 139.9 347 139.9 C 351.1 139.9 353.4 142.8 353.4 147.6 Z M 343.3 144.2 C 342.9 145.1 342.9 145.6 342.8 146.8 C 342.8 146.8 351.2 146.8 351.2 146.8 C 351.1 145.6 351 145.1 350.7 144.2 C 350 142.8 348.7 141.9 347 141.9 C 345.3 141.9 344 142.8 343.3 144.2 Z M 368.9 141.3 C 370.5 142.8 370.8 145.4 370.8 148 C 370.8 150.5 370.5 153.1 368.9 154.7 C 368.1 155.5 366.7 156 365.1 156 C 363.4 156 361.9 155.6 360.6 154 C 360.64 153.98 360.6 162.9 360.6 162.9 L 358.3 162.9 L 358.3 140.1 L 360.6 140.1 C 360.6 140.1 360.64 141.95 360.6 142 C 361.9 140.3 363.3 139.9 365.1 139.9 C 366.7 139.9 368.1 140.4 368.9 141.3 Z M 360.6 148 C 360.6 151 361.1 154 364.6 154 C 368 154 368.5 151 368.5 148 C 368.5 144.9 368 142 364.6 142 C 361.1 142 360.6 144.9 360.6 148 Z M 378.5 140.1 L 381.8 140.1 L 381.8 141.9 L 378.5 141.9 C 378.5 141.9 378.46 151.55 378.5 151.6 C 378.5 153 379.1 153.9 380.6 153.9 C 380.6 153.86 381.8 153.9 381.8 153.9 L 381.8 155.8 C 381.8 155.8 380.19 155.84 380.2 155.8 C 377.5 155.8 376.2 154 376.2 151.6 C 376.16 151.62 376.2 141.9 376.2 141.9 L 374.2 141.9 L 374.2 140.1 L 376.2 140.1 L 376.2 135.3 L 378.5 135.3 L 378.5 140.1 Z M 398.3 147.6 C 398.3 147.55 398.3 148.6 398.3 148.6 C 398.3 148.6 387.68 148.58 387.7 148.6 C 387.7 152 389.3 154 392.3 154 C 394.1 154 395.2 153.5 396.4 152.2 C 396.4 152.2 398 153.6 398 153.6 C 396.4 155.2 394.9 156 392.3 156 C 388.1 156 385.4 153.5 385.4 148 C 385.4 142.8 387.8 139.9 391.8 139.9 C 395.9 139.9 398.3 142.8 398.3 147.6 Z M 388.2 144.2 C 387.8 145.1 387.7 145.6 387.7 146.8 C 387.7 146.8 396 146.8 396 146.8 C 395.9 145.6 395.9 145.1 395.5 144.2 C 394.8 142.8 393.5 141.9 391.8 141.9 C 390.1 141.9 388.8 142.8 388.2 144.2 Z M 414.9 155.8 L 412.6 155.8 C 412.6 155.8 412.57 153.98 412.6 154 C 411.3 155.6 409.9 156 408.1 156 C 406.5 156 405.1 155.5 404.3 154.7 C 402.7 153.1 402.4 150.5 402.4 148 C 402.4 145.4 402.7 142.9 404.3 141.3 C 405.1 140.4 406.5 139.9 408.1 139.9 C 409.9 139.9 411.3 140.3 412.6 142 C 412.57 141.95 412.6 133.1 412.6 133.1 L 414.9 133.1 L 414.9 155.8 Z M 404.7 148 C 404.7 151 405.2 154 408.6 154 C 412.1 154 412.6 151 412.6 148 C 412.6 144.9 412.1 142 408.6 142 C 405.2 142 404.7 144.9 404.7 148 Z M 430.9 141.9 C 432.2 140.3 433.6 139.9 435.4 139.9 C 437 139.9 438.4 140.4 439.2 141.3 C 440.8 142.8 441.1 145.4 441.1 148 C 441.1 150.5 440.8 153.1 439.2 154.7 C 438.4 155.5 437 156 435.4 156 C 433.6 156 432.2 155.6 430.9 154 C 430.91 153.95 430.9 155.8 430.9 155.8 L 428.6 155.8 L 428.6 133.1 L 430.9 133.1 C 430.9 133.1 430.91 141.92 430.9 141.9 Z M 430.9 148 C 430.9 151 431.4 154 434.9 154 C 438.3 154 438.8 151 438.8 148 C 438.8 144.9 438.3 142 434.9 142 C 431.4 142 430.9 144.9 430.9 148 Z M 449.7 159.9 C 449.4 160.8 449 161.4 448.6 161.8 C 447.7 162.6 446.6 162.9 445.5 162.9 C 445.5 162.88 444.5 162.9 444.5 162.9 L 444.5 160.8 C 444.5 160.8 445.21 160.83 445.2 160.8 C 446.8 160.8 447.3 160.3 447.8 158.9 C 447.8 158.88 449 155.5 449 155.5 L 443.4 140.1 L 445.9 140.1 L 450.2 152.7 L 454.5 140.1 L 457 140.1 C 457 140.1 449.69 159.94 449.7 159.9 Z M 470.8 140.1 L 474.2 140.1 L 474.2 141.9 L 470.8 141.9 C 470.8 141.9 470.84 151.55 470.8 151.6 C 470.8 153 471.5 153.9 473 153.9 C 472.99 153.86 474.2 153.9 474.2 153.9 L 474.2 155.8 C 474.2 155.8 472.57 155.84 472.6 155.8 C 469.9 155.8 468.5 154 468.5 151.6 C 468.54 151.62 468.5 141.9 468.5 141.9 L 466.6 141.9 L 466.6 140.1 L 468.5 140.1 L 468.5 135.3 L 470.8 135.3 L 470.8 140.1 Z M 481.1 141.9 C 482.2 140.5 483.7 139.9 485.5 139.9 C 487.2 139.9 488.6 140.4 489.6 141.4 C 490.7 142.5 491.2 144 491.2 145.8 C 491.16 145.79 491.2 155.8 491.2 155.8 L 488.9 155.8 C 488.9 155.8 488.86 146.14 488.9 146.1 C 488.9 143.4 487.4 142 485 142 C 482.7 142 481.1 143.4 481.1 146.1 C 481.08 146.14 481.1 155.8 481.1 155.8 L 478.8 155.8 L 478.8 133.1 L 481.1 133.1 C 481.1 133.1 481.08 141.86 481.1 141.9 Z M 508.8 147.6 C 508.83 147.55 508.8 148.6 508.8 148.6 C 508.8 148.6 498.2 148.58 498.2 148.6 C 498.2 152 499.8 154 502.8 154 C 504.7 154 505.7 153.5 507 152.2 C 507 152.2 508.5 153.6 508.5 153.6 C 506.9 155.2 505.4 156 502.8 156 C 498.6 156 495.9 153.5 495.9 148 C 495.9 142.8 498.4 139.9 502.4 139.9 C 506.5 139.9 508.8 142.8 508.8 147.6 Z M 498.7 144.2 C 498.3 145.1 498.3 145.6 498.2 146.8 C 498.2 146.8 506.6 146.8 506.6 146.8 C 506.5 145.6 506.4 145.1 506 144.2 C 505.4 142.8 504.1 141.9 502.4 141.9 C 500.7 141.9 499.4 142.8 498.7 144.2 Z M 533 142.2 C 533 142.2 531.5 143.7 531.5 143.7 C 530.3 142.4 529.3 142 527.8 142 C 526.3 142 525 142.6 524.2 143.7 C 523.5 144.8 523.2 146 523.2 148 C 523.2 150 523.5 151.2 524.2 152.2 C 525 153.4 526.3 154 527.8 154 C 529.3 154 530.3 153.5 531.5 152.2 C 531.5 152.2 533 153.7 533 153.7 C 531.4 155.5 530 156 527.8 156 C 523.9 156 520.9 153.3 520.9 148 C 520.9 142.6 523.9 139.9 527.8 139.9 C 530 139.9 531.4 140.5 533 142.2 Z M 539.6 151.6 C 539.6 153.1 540.2 153.9 541.8 153.9 C 541.75 153.86 543 153.9 543 153.9 L 543 155.8 C 543 155.8 541.34 155.84 541.3 155.8 C 538.6 155.8 537.3 154 537.3 151.6 C 537.34 151.65 537.3 133.1 537.3 133.1 L 539.6 133.1 C 539.6 133.1 539.64 151.55 539.6 151.6 Z M 549.2 155.8 L 546.9 155.8 L 546.9 140.1 L 549.2 140.1 L 549.2 155.8 Z M 549.4 135.6 L 546.8 135.6 L 546.8 133 L 549.4 133 L 549.4 135.6 Z M 567.1 147.6 C 567.07 147.55 567.1 148.6 567.1 148.6 C 567.1 148.6 556.44 148.58 556.4 148.6 C 556.4 152 558 154 561.1 154 C 562.9 154 564 153.5 565.2 152.2 C 565.2 152.2 566.8 153.6 566.8 153.6 C 565.2 155.2 563.7 156 561 156 C 556.8 156 554.1 153.5 554.1 148 C 554.1 142.8 556.6 139.9 560.6 139.9 C 564.7 139.9 567.1 142.8 567.1 147.6 Z M 556.9 144.2 C 556.5 145.1 556.5 145.6 556.4 146.8 C 556.4 146.8 564.8 146.8 564.8 146.8 C 564.7 145.6 564.7 145.1 564.3 144.2 C 563.6 142.8 562.3 141.9 560.6 141.9 C 558.9 141.9 557.6 142.8 556.9 144.2 Z M 582.7 141.4 C 583.9 142.5 584.4 144 584.4 145.8 C 584.38 145.79 584.4 155.8 584.4 155.8 L 582.1 155.8 C 582.1 155.8 582.07 146.14 582.1 146.1 C 582.1 143.4 580.6 142 578.2 142 C 575.8 142 574.3 143.4 574.3 146.1 C 574.27 146.14 574.3 155.8 574.3 155.8 L 572 155.8 L 572 140.1 L 574.2 140.1 C 574.2 140.1 574.23 141.86 574.2 141.9 C 575.4 140.6 576.9 139.9 578.7 139.9 C 580.4 139.9 581.8 140.4 582.7 141.4 Z M 592.7 140.1 L 596 140.1 L 596 141.9 L 592.7 141.9 C 592.7 141.9 592.67 151.55 592.7 151.6 C 592.7 153 593.3 153.9 594.8 153.9 C 594.81 153.86 596 153.9 596 153.9 L 596 155.8 C 596 155.8 594.39 155.84 594.4 155.8 C 591.7 155.8 590.4 154 590.4 151.6 C 590.36 151.62 590.4 141.9 590.4 141.9 L 588.4 141.9 L 588.4 140.1 L 590.4 140.1 L 590.4 135.3 L 592.7 135.3 L 592.7 140.1 Z M 618.7 141.7 C 620.3 143.3 620.6 145.5 620.6 148 C 620.6 150.4 620.3 152.6 618.7 154.2 C 617.6 155.4 616.1 156 614.2 156 C 612.2 156 610.7 155.4 609.7 154.2 C 608.1 152.6 607.7 150.4 607.7 148 C 607.7 145.5 608.1 143.3 609.7 141.7 C 610.7 140.6 612.2 139.9 614.2 139.9 C 616.1 139.9 617.6 140.6 618.7 141.7 Z M 611.3 143.1 C 610.2 144.3 610 146.2 610 148 C 610 149.7 610.1 151.6 611.3 152.8 C 612.1 153.6 613 154 614.2 154 C 615.3 154 616.3 153.6 617 152.8 C 618.2 151.6 618.3 149.7 618.3 148 C 618.3 146.2 618.2 144.3 617 143.1 C 616.3 142.3 615.3 142 614.2 142 C 613 142 612.1 142.3 611.3 143.1 Z M 636 141.4 C 636 141.4 634.3 143.1 634.3 143.1 C 633.5 142.2 632.8 142 631.6 142 C 629.3 142 627.8 143.8 627.8 146.2 C 627.83 146.18 627.8 155.8 627.8 155.8 L 625.5 155.8 L 625.5 140.1 L 627.8 140.1 C 627.8 140.1 627.83 142.02 627.8 142 C 628.7 140.7 630.4 139.9 632.2 139.9 C 633.8 139.9 634.9 140.3 636 141.4 Z M 644.4 140.1 L 646.9 140.1 L 651.3 152.7 L 655.5 140.1 L 658 140.1 L 652.2 155.8 L 650.2 155.8 L 644.4 140.1 Z M 663.6 155.8 L 661.3 155.8 L 661.3 140.1 L 663.6 140.1 L 663.6 155.8 Z M 663.7 135.6 L 661.1 135.6 L 661.1 133 L 663.7 133 L 663.7 135.6 Z M 680.6 145.2 C 680.6 145.15 680.6 155.8 680.6 155.8 L 678.3 155.8 C 678.3 155.8 678.3 154.34 678.3 154.3 C 677 155.6 675.9 156 673.8 156 C 671.6 156 670.4 155.6 669.3 154.6 C 668.5 153.8 668.1 152.6 668.1 151.4 C 668.1 148.6 670.1 146.8 673.6 146.8 C 673.59 146.85 678.3 146.8 678.3 146.8 C 678.3 146.8 678.3 145.34 678.3 145.3 C 678.3 143.1 677.2 141.9 674.3 141.9 C 672.3 141.9 671.3 142.4 670.3 143.7 C 670.3 143.7 668.7 142.3 668.7 142.3 C 670.1 140.4 671.7 139.9 674.3 139.9 C 678.6 139.9 680.6 141.8 680.6 145.2 Z M 673.9 148.6 C 671.5 148.6 670.4 149.5 670.4 151.4 C 670.4 153.2 671.5 154 674 154 C 675.3 154 676.5 153.9 677.5 153 C 678 152.5 678.3 151.6 678.3 150.3 C 678.3 150.27 678.3 148.6 678.3 148.6 C 678.3 148.6 673.91 148.58 673.9 148.6 Z M 696.4 151.6 C 696.4 153.1 696.9 153.9 698.5 153.9 C 698.52 153.86 699.8 153.9 699.8 153.9 L 699.8 155.8 C 699.8 155.8 698.1 155.84 698.1 155.8 C 695.4 155.8 694.1 154 694.1 151.6 C 694.1 151.65 694.1 133.1 694.1 133.1 L 696.4 133.1 C 696.4 133.1 696.41 151.55 696.4 151.6 Z M 706 155.8 L 703.7 155.8 L 703.7 140.1 L 706 140.1 L 706 155.8 Z M 706.1 135.6 L 703.5 135.6 L 703.5 133 L 706.1 133 L 706.1 135.6 Z M 732.6 141.4 C 733.7 142.5 734.3 143.9 734.3 145.8 C 734.29 145.76 734.3 155.8 734.3 155.8 L 732 155.8 C 732 155.8 731.99 146.14 732 146.1 C 732 143.4 730.5 142 728.1 142 C 725.8 142 724.2 143.4 724.2 145.9 C 724.18 145.89 724.2 155.8 724.2 155.8 L 721.9 155.8 C 721.9 155.8 721.88 146.14 721.9 146.1 C 721.9 143.4 720.4 142 718 142 C 715.6 142 714.1 143.4 714.1 146.1 C 714.07 146.14 714.1 155.8 714.1 155.8 L 711.8 155.8 L 711.8 140.1 L 714.1 140.1 C 714.1 140.1 714.07 141.82 714.1 141.8 C 715.2 140.5 716.8 139.9 718.5 139.9 C 720.7 139.9 722.4 140.8 723.4 142.5 C 724.6 140.8 726.3 139.9 728.5 139.9 C 730.2 139.9 731.6 140.4 732.6 141.4 Z M 742.2 155.8 L 739.9 155.8 L 739.9 140.1 L 742.2 140.1 L 742.2 155.8 Z M 742.4 135.6 L 739.8 135.6 L 739.8 133 L 742.4 133 L 742.4 135.6 Z M 750.7 140.1 L 754 140.1 L 754 141.9 L 750.7 141.9 C 750.7 141.9 750.68 151.55 750.7 151.6 C 750.7 153 751.4 153.9 752.8 153.9 C 752.82 153.86 754 153.9 754 153.9 L 754 155.8 C 754 155.8 752.41 155.84 752.4 155.8 C 749.7 155.8 748.4 154 748.4 151.6 C 748.37 151.62 748.4 141.9 748.4 141.9 L 746.4 141.9 L 746.4 140.1 L 748.4 140.1 L 748.4 135.3 L 750.7 135.3 L 750.7 140.1 Z M 770.5 147.6 C 770.52 147.55 770.5 148.6 770.5 148.6 C 770.5 148.6 759.89 148.58 759.9 148.6 C 759.9 152 761.5 154 764.5 154 C 766.4 154 767.4 153.5 768.7 152.2 C 768.7 152.2 770.2 153.6 770.2 153.6 C 768.6 155.2 767.1 156 764.5 156 C 760.3 156 757.6 153.5 757.6 148 C 757.6 142.8 760.1 139.9 764.1 139.9 C 768.2 139.9 770.5 142.8 770.5 147.6 Z M 760.4 144.2 C 760 145.1 760 145.6 759.9 146.8 C 759.9 146.8 768.2 146.8 768.2 146.8 C 768.2 145.6 768.1 145.1 767.7 144.2 C 767.1 142.8 765.8 141.9 764.1 141.9 C 762.4 141.9 761 142.8 760.4 144.2 Z M 787.1 155.8 L 784.8 155.8 C 784.8 155.8 784.79 153.98 784.8 154 C 783.5 155.6 782.1 156 780.3 156 C 778.7 156 777.3 155.5 776.5 154.7 C 774.9 153.1 774.6 150.5 774.6 148 C 774.6 145.4 774.9 142.9 776.5 141.3 C 777.3 140.4 778.7 139.9 780.3 139.9 C 782.1 139.9 783.5 140.3 784.8 142 C 784.79 141.95 784.8 133.1 784.8 133.1 L 787.1 133.1 L 787.1 155.8 Z M 776.9 148 C 776.9 151 777.4 154 780.8 154 C 784.3 154 784.8 151 784.8 148 C 784.8 144.9 784.3 142 780.8 142 C 777.4 142 776.9 144.9 776.9 148 Z M 809.7 133.1 C 813.8 133.1 816.8 135.7 816.8 139.7 C 816.8 143.8 813.8 146.5 809.7 146.5 C 809.72 146.46 803.7 146.5 803.7 146.5 L 803.7 155.8 L 801.2 155.8 L 801.2 133.1 C 801.2 133.1 809.72 133.06 809.7 133.1 Z M 803.7 135.2 L 803.7 144.3 C 803.7 144.3 809.53 144.29 809.5 144.3 C 812.4 144.3 814.3 142.8 814.3 139.7 C 814.3 136.7 812.4 135.2 809.5 135.2 C 809.53 135.23 803.7 135.2 803.7 135.2 Z M 830.8 141.7 C 832.4 143.3 832.7 145.5 832.7 148 C 832.7 150.4 832.4 152.6 830.8 154.2 C 829.7 155.4 828.2 156 826.3 156 C 824.3 156 822.8 155.4 821.7 154.2 C 820.1 152.6 819.8 150.4 819.8 148 C 819.8 145.5 820.1 143.3 821.7 141.7 C 822.8 140.6 824.3 139.9 826.3 139.9 C 828.2 139.9 829.7 140.6 830.8 141.7 Z M 823.4 143.1 C 822.3 144.3 822.1 146.2 822.1 148 C 822.1 149.7 822.2 151.6 823.4 152.8 C 824.2 153.6 825.1 154 826.3 154 C 827.4 154 828.4 153.6 829.1 152.8 C 830.3 151.6 830.4 149.7 830.4 148 C 830.4 146.2 830.3 144.3 829.1 143.1 C 828.4 142.3 827.4 142 826.3 142 C 825.1 142 824.2 142.3 823.4 143.1 Z M 834.9 140.1 L 837.4 140.1 L 841.1 152.7 L 845.2 140.1 L 847.2 140.1 L 851.3 152.7 L 854.9 140.1 L 857.4 140.1 L 852.4 155.8 L 850.3 155.8 L 846.2 143 L 842.1 155.8 L 840 155.8 L 834.9 140.1 Z M 872.5 147.6 C 872.53 147.55 872.5 148.6 872.5 148.6 C 872.5 148.6 861.91 148.58 861.9 148.6 C 861.9 152 863.5 154 866.6 154 C 868.4 154 869.4 153.5 870.7 152.2 C 870.7 152.2 872.2 153.6 872.2 153.6 C 870.6 155.2 869.1 156 866.5 156 C 862.3 156 859.6 153.5 859.6 148 C 859.6 142.8 862.1 139.9 866.1 139.9 C 870.2 139.9 872.5 142.8 872.5 147.6 Z M 862.4 144.2 C 862 145.1 862 145.6 861.9 146.8 C 861.9 146.8 870.3 146.8 870.3 146.8 C 870.2 145.6 870.1 145.1 869.8 144.2 C 869.1 142.8 867.8 141.9 866.1 141.9 C 864.4 141.9 863.1 142.8 862.4 144.2 Z M 887.9 141.4 C 887.9 141.4 886.2 143.1 886.2 143.1 C 885.4 142.2 884.7 142 883.5 142 C 881.2 142 879.7 143.8 879.7 146.2 C 879.73 146.18 879.7 155.8 879.7 155.8 L 877.4 155.8 L 877.4 140.1 L 879.7 140.1 C 879.7 140.1 879.73 142.02 879.7 142 C 880.6 140.7 882.3 139.9 884.2 139.9 C 885.7 139.9 886.8 140.3 887.9 141.4 Z M 909 141.7 C 910.6 143.3 910.9 145.5 910.9 148 C 910.9 150.4 910.6 152.6 909 154.2 C 907.9 155.4 906.4 156 904.5 156 C 902.5 156 901 155.4 900 154.2 C 898.4 152.6 898 150.4 898 148 C 898 145.5 898.4 143.3 900 141.7 C 901 140.6 902.5 139.9 904.5 139.9 C 906.4 139.9 907.9 140.6 909 141.7 Z M 901.6 143.1 C 900.5 144.3 900.3 146.2 900.3 148 C 900.3 149.7 900.4 151.6 901.6 152.8 C 902.4 153.6 903.3 154 904.5 154 C 905.6 154 906.6 153.6 907.3 152.8 C 908.5 151.6 908.6 149.7 908.6 148 C 908.6 146.2 908.5 144.3 907.3 143.1 C 906.6 142.3 905.6 142 904.5 142 C 903.3 142 902.4 142.3 901.6 143.1 Z M 922 135 C 922 135 920.76 135.01 920.8 135 C 919.3 135 918.6 135.9 918.6 137.3 C 918.65 137.31 918.6 140.1 918.6 140.1 L 922 140.1 L 922 141.9 L 918.6 141.9 L 918.6 155.8 L 916.3 155.8 L 916.3 141.9 L 914.3 141.9 L 914.3 140.1 L 916.3 140.1 C 916.3 140.1 916.34 137.25 916.3 137.2 C 916.3 134.9 917.7 133 920.3 133 C 920.34 133.02 922 133 922 133 L 922 135 Z M 950.1 155.8 L 947.5 155.8 L 945.7 150.7 L 935.8 150.7 L 933.9 155.8 L 931.3 155.8 L 939.7 133.1 L 941.8 133.1 L 950.1 155.8 Z M 936.5 148.6 L 945 148.6 L 940.8 136.5 L 936.5 148.6 Z M 955.4 140.1 L 958.8 140.1 L 958.8 141.9 L 955.4 141.9 C 955.4 141.9 955.45 151.55 955.4 151.6 C 955.4 153 956.1 153.9 957.6 153.9 C 957.59 153.86 958.8 153.9 958.8 153.9 L 958.8 155.8 C 958.8 155.8 957.17 155.84 957.2 155.8 C 954.5 155.8 953.1 154 953.1 151.6 C 953.14 151.62 953.1 141.9 953.1 141.9 L 951.2 141.9 L 951.2 140.1 L 953.1 140.1 L 953.1 135.3 L 955.4 135.3 L 955.4 140.1 Z M 965.8 140.1 L 969.2 140.1 L 969.2 141.9 L 965.8 141.9 C 965.8 141.9 965.81 151.55 965.8 151.6 C 965.8 153 966.5 153.9 968 153.9 C 967.96 153.86 969.2 153.9 969.2 153.9 L 969.2 155.8 C 969.2 155.8 967.54 155.84 967.5 155.8 C 964.9 155.8 963.5 154 963.5 151.6 C 963.51 151.62 963.5 141.9 963.5 141.9 L 961.5 141.9 L 961.5 140.1 L 963.5 140.1 L 963.5 135.3 L 965.8 135.3 L 965.8 140.1 Z M 983.7 141.7 C 985.3 143.3 985.6 145.5 985.6 148 C 985.6 150.4 985.3 152.6 983.7 154.2 C 982.6 155.4 981.1 156 979.2 156 C 977.3 156 975.8 155.4 974.7 154.2 C 973.1 152.6 972.8 150.4 972.8 148 C 972.8 145.5 973.1 143.3 974.7 141.7 C 975.8 140.6 977.3 139.9 979.2 139.9 C 981.1 139.9 982.6 140.6 983.7 141.7 Z M 976.3 143.1 C 975.2 144.3 975.1 146.2 975.1 148 C 975.1 149.7 975.2 151.6 976.3 152.8 C 977.1 153.6 978.1 154 979.2 154 C 980.3 154 981.3 153.6 982.1 152.8 C 983.2 151.6 983.3 149.7 983.3 148 C 983.3 146.2 983.2 144.3 982.1 143.1 C 981.3 142.3 980.3 142 979.2 142 C 978.1 142 977.1 142.3 976.3 143.1 Z M 1001 141.4 C 1001 141.4 999.3 143.1 999.3 143.1 C 998.5 142.2 997.8 142 996.6 142 C 994.3 142 992.9 143.8 992.9 146.2 C 992.85 146.18 992.9 155.8 992.9 155.8 L 990.5 155.8 L 990.5 140.1 L 992.9 140.1 C 992.9 140.1 992.85 142.02 992.9 142 C 993.7 140.7 995.4 139.9 997.3 139.9 C 998.8 139.9 999.9 140.3 1001 141.4 Z M 1014.8 141.4 C 1015.9 142.5 1016.4 144 1016.4 145.8 C 1016.44 145.79 1016.4 155.8 1016.4 155.8 L 1014.1 155.8 C 1014.1 155.8 1014.13 146.14 1014.1 146.1 C 1014.1 143.4 1012.6 142 1010.3 142 C 1007.9 142 1006.3 143.4 1006.3 146.1 C 1006.32 146.14 1006.3 155.8 1006.3 155.8 L 1004 155.8 L 1004 140.1 L 1006.3 140.1 C 1006.3 140.1 1006.29 141.86 1006.3 141.9 C 1007.4 140.6 1009 139.9 1010.7 139.9 C 1012.4 139.9 1013.8 140.4 1014.8 141.4 Z M 1034.1 147.6 C 1034.1 147.55 1034.1 148.6 1034.1 148.6 C 1034.1 148.6 1023.48 148.58 1023.5 148.6 C 1023.5 152 1025.1 154 1028.1 154 C 1029.9 154 1031 153.5 1032.2 152.2 C 1032.2 152.2 1033.8 153.6 1033.8 153.6 C 1032.2 155.2 1030.7 156 1028.1 156 C 1023.9 156 1021.2 153.5 1021.2 148 C 1021.2 142.8 1023.6 139.9 1027.6 139.9 C 1031.7 139.9 1034.1 142.8 1034.1 147.6 Z M 1024 144.2 C 1023.6 145.1 1023.5 145.6 1023.5 146.8 C 1023.5 146.8 1031.8 146.8 1031.8 146.8 C 1031.7 145.6 1031.7 145.1 1031.3 144.2 C 1030.6 142.8 1029.3 141.9 1027.6 141.9 C 1025.9 141.9 1024.6 142.8 1024 144.2 Z M 1042.6 159.9 C 1042.3 160.8 1042 161.4 1041.5 161.8 C 1040.7 162.6 1039.6 162.9 1038.5 162.9 C 1038.45 162.88 1037.5 162.9 1037.5 162.9 L 1037.5 160.8 C 1037.5 160.8 1038.16 160.83 1038.2 160.8 C 1039.8 160.8 1040.2 160.3 1040.8 158.9 C 1040.76 158.88 1042 155.5 1042 155.5 L 1036.3 140.1 L 1038.8 140.1 L 1043.1 152.7 L 1047.4 140.1 L 1049.9 140.1 C 1049.9 140.1 1042.64 159.94 1042.6 159.9 Z M 1063.4 155.8 L 1061.1 155.8 L 1061.1 140.1 L 1063.4 140.1 L 1063.4 155.8 Z M 1063.6 135.6 L 1061 135.6 L 1061 133 L 1063.6 133 L 1063.6 135.6 Z M 1080 141.4 C 1081.1 142.5 1081.6 144 1081.6 145.8 C 1081.62 145.79 1081.6 155.8 1081.6 155.8 L 1079.3 155.8 C 1079.3 155.8 1079.32 146.14 1079.3 146.1 C 1079.3 143.4 1077.8 142 1075.4 142 C 1073.1 142 1071.5 143.4 1071.5 146.1 C 1071.51 146.14 1071.5 155.8 1071.5 155.8 L 1069.2 155.8 L 1069.2 140.1 L 1071.5 140.1 C 1071.5 140.1 1071.48 141.86 1071.5 141.9 C 1072.6 140.6 1074.2 139.9 1075.9 139.9 C 1077.6 139.9 1079 140.4 1080 141.4 Z M 1116 141.4 C 1117.1 142.5 1117.7 143.9 1117.7 145.8 C 1117.72 145.76 1117.7 155.8 1117.7 155.8 L 1115.4 155.8 C 1115.4 155.8 1115.41 146.14 1115.4 146.1 C 1115.4 143.4 1113.9 142 1111.5 142 C 1109.2 142 1107.6 143.4 1107.6 145.9 C 1107.6 145.89 1107.6 155.8 1107.6 155.8 L 1105.3 155.8 C 1105.3 155.8 1105.3 146.14 1105.3 146.1 C 1105.3 143.4 1103.8 142 1101.4 142 C 1099.1 142 1097.5 143.4 1097.5 146.1 C 1097.49 146.14 1097.5 155.8 1097.5 155.8 L 1095.2 155.8 L 1095.2 140.1 L 1097.5 140.1 C 1097.5 140.1 1097.49 141.82 1097.5 141.8 C 1098.6 140.5 1100.2 139.9 1101.9 139.9 C 1104.1 139.9 1105.8 140.8 1106.8 142.5 C 1108 140.8 1109.7 139.9 1112 139.9 C 1113.7 139.9 1115.1 140.4 1116 141.4 Z M 1134.5 145.2 C 1134.55 145.15 1134.5 155.8 1134.5 155.8 L 1132.2 155.8 C 1132.2 155.8 1132.24 154.34 1132.2 154.3 C 1131 155.6 1129.8 156 1127.7 156 C 1125.5 156 1124.3 155.6 1123.3 154.6 C 1122.5 153.8 1122.1 152.6 1122.1 151.4 C 1122.1 148.6 1124 146.8 1127.5 146.8 C 1127.54 146.85 1132.2 146.8 1132.2 146.8 C 1132.2 146.8 1132.24 145.34 1132.2 145.3 C 1132.2 143.1 1131.1 141.9 1128.2 141.9 C 1126.2 141.9 1125.2 142.4 1124.2 143.7 C 1124.2 143.7 1122.7 142.3 1122.7 142.3 C 1124.1 140.4 1125.7 139.9 1128.2 139.9 C 1132.5 139.9 1134.5 141.8 1134.5 145.2 Z M 1127.9 148.6 C 1125.5 148.6 1124.3 149.5 1124.3 151.4 C 1124.3 153.2 1125.4 154 1128 154 C 1129.3 154 1130.4 153.9 1131.4 153 C 1132 152.5 1132.2 151.6 1132.2 150.3 C 1132.24 150.27 1132.2 148.6 1132.2 148.6 C 1132.2 148.6 1127.86 148.58 1127.9 148.6 Z M 1150.9 141.4 C 1152.1 142.5 1152.6 144 1152.6 145.8 C 1152.56 145.79 1152.6 155.8 1152.6 155.8 L 1150.3 155.8 C 1150.3 155.8 1150.26 146.14 1150.3 146.1 C 1150.3 143.4 1148.8 142 1146.4 142 C 1144 142 1142.5 143.4 1142.5 146.1 C 1142.45 146.14 1142.5 155.8 1142.5 155.8 L 1140.1 155.8 L 1140.1 140.1 L 1142.4 140.1 C 1142.4 140.1 1142.42 141.86 1142.4 141.9 C 1143.5 140.6 1145.1 139.9 1146.9 139.9 C 1148.6 139.9 1150 140.4 1150.9 141.4 Z M 1162 159.9 C 1161.7 160.8 1161.3 161.4 1160.9 161.8 C 1160 162.6 1158.9 162.9 1157.8 162.9 C 1157.78 162.88 1156.8 162.9 1156.8 162.9 L 1156.8 160.8 C 1156.8 160.8 1157.49 160.83 1157.5 160.8 C 1159.1 160.8 1159.6 160.3 1160.1 158.9 C 1160.08 158.88 1161.3 155.5 1161.3 155.5 L 1155.6 140.1 L 1158.1 140.1 L 1162.5 152.7 L 1166.7 140.1 L 1169.2 140.1 C 1169.2 140.1 1161.97 159.94 1162 159.9 Z M 1191.8 142.2 C 1191.8 142.2 1190.2 143.7 1190.2 143.7 C 1189 142.4 1188.1 142 1186.6 142 C 1185 142 1183.8 142.6 1182.9 143.7 C 1182.2 144.8 1181.9 146 1181.9 148 C 1181.9 150 1182.2 151.2 1182.9 152.2 C 1183.8 153.4 1185 154 1186.6 154 C 1188.1 154 1189 153.5 1190.2 152.2 C 1190.2 152.2 1191.8 153.7 1191.8 153.7 C 1190.1 155.5 1188.8 156 1186.6 156 C 1182.6 156 1179.6 153.3 1179.6 148 C 1179.6 142.6 1182.6 139.9 1186.6 139.9 C 1188.8 139.9 1190.1 140.5 1191.8 142.2 Z M 1207.2 145.2 C 1207.22 145.15 1207.2 155.8 1207.2 155.8 L 1204.9 155.8 C 1204.9 155.8 1204.91 154.34 1204.9 154.3 C 1203.7 155.6 1202.5 156 1200.4 156 C 1198.2 156 1197 155.6 1195.9 154.6 C 1195.1 153.8 1194.7 152.6 1194.7 151.4 C 1194.7 148.6 1196.7 146.8 1200.2 146.8 C 1200.21 146.85 1204.9 146.8 1204.9 146.8 C 1204.9 146.8 1204.91 145.34 1204.9 145.3 C 1204.9 143.1 1203.8 141.9 1200.9 141.9 C 1198.9 141.9 1197.9 142.4 1196.9 143.7 C 1196.9 143.7 1195.3 142.3 1195.3 142.3 C 1196.7 140.4 1198.3 139.9 1200.9 139.9 C 1205.2 139.9 1207.2 141.8 1207.2 145.2 Z M 1200.5 148.6 C 1198.2 148.6 1197 149.5 1197 151.4 C 1197 153.2 1198.1 154 1200.6 154 C 1201.9 154 1203.1 153.9 1204.1 153 C 1204.7 152.5 1204.9 151.6 1204.9 150.3 C 1204.91 150.27 1204.9 148.6 1204.9 148.6 C 1204.9 148.6 1200.53 148.58 1200.5 148.6 Z M 1223.5 141.6 C 1223.5 141.6 1222 143.1 1222 143.1 C 1220.8 142.2 1219.4 141.9 1217.8 141.9 C 1215.5 141.9 1214.3 142.8 1214.3 144.4 C 1214.3 145.9 1215.1 146.6 1217.1 146.8 C 1217.1 146.8 1219.5 147 1219.5 147 C 1222.3 147.2 1224.2 148.3 1224.2 151.2 C 1224.2 154.3 1221.6 156 1217.8 156 C 1215.1 156 1213 155.4 1211.3 153.8 C 1211.3 153.8 1212.8 152.2 1212.8 152.2 C 1214.1 153.5 1215.8 154 1217.7 154 C 1220.4 154 1221.9 153.1 1221.9 151.3 C 1221.9 149.9 1221.2 149.1 1219.3 149 C 1219.3 149 1216.7 148.7 1216.7 148.7 C 1213.6 148.5 1212 147.1 1212 144.5 C 1212 141.6 1214.4 139.9 1217.8 139.9 C 1220.1 139.9 1222 140.4 1223.5 141.6 Z M 1240.8 147.6 C 1240.75 147.55 1240.8 148.6 1240.8 148.6 C 1240.8 148.6 1230.13 148.58 1230.1 148.6 C 1230.1 152 1231.7 154 1234.8 154 C 1236.6 154 1237.6 153.5 1238.9 152.2 C 1238.9 152.2 1240.5 153.6 1240.5 153.6 C 1238.9 155.2 1237.4 156 1234.7 156 C 1230.5 156 1227.8 153.5 1227.8 148 C 1227.8 142.8 1230.3 139.9 1234.3 139.9 C 1238.4 139.9 1240.8 142.8 1240.8 147.6 Z M 1230.6 144.2 C 1230.2 145.1 1230.2 145.6 1230.1 146.8 C 1230.1 146.8 1238.5 146.8 1238.5 146.8 C 1238.4 145.6 1238.4 145.1 1238 144.2 C 1237.3 142.8 1236 141.9 1234.3 141.9 C 1232.6 141.9 1231.3 142.8 1230.6 144.2 Z M 1256.3 141.6 C 1256.3 141.6 1254.8 143.1 1254.8 143.1 C 1253.7 142.2 1252.2 141.9 1250.6 141.9 C 1248.3 141.9 1247.1 142.8 1247.1 144.4 C 1247.1 145.9 1248 146.6 1249.9 146.8 C 1249.9 146.8 1252.4 147 1252.4 147 C 1255.1 147.2 1257 148.3 1257 151.2 C 1257 154.3 1254.4 156 1250.6 156 C 1247.9 156 1245.8 155.4 1244.1 153.8 C 1244.1 153.8 1245.7 152.2 1245.7 152.2 C 1246.9 153.5 1248.6 154 1250.6 154 C 1253.2 154 1254.8 153.1 1254.8 151.3 C 1254.8 149.9 1254 149.1 1252.1 149 C 1252.1 149 1249.6 148.7 1249.6 148.7 C 1246.5 148.5 1244.8 147.1 1244.8 144.5 C 1244.8 141.6 1247.2 139.9 1250.6 139.9 C 1252.9 139.9 1254.9 140.4 1256.3 141.6 Z M 1264.5 155.8 L 1261.5 155.8 L 1261.5 152.8 L 1264.5 152.8 L 1264.5 155.8 Z " stroke="none" fill="#000"/>  </g>  <g id="Polygon28132">    <path d="M 58.4 70.2 C 64.9 70.2 69.4 74.3 69.4 80.7 C 69.4 87 64.9 91.2 58.4 91.2 C 58.4 91.19 48.9 91.2 48.9 91.2 L 48.9 105.8 L 45.2 105.8 L 45.2 70.2 C 45.2 70.2 58.4 70.24 58.4 70.2 Z M 48.9 73.6 L 48.9 87.8 C 48.9 87.8 58.1 87.79 58.1 87.8 C 62.6 87.8 65.6 85.4 65.6 80.7 C 65.6 76 62.6 73.6 58.1 73.6 C 58.1 73.64 48.9 73.6 48.9 73.6 Z M 91.3 83.7 C 93.8 86.2 94.3 89.7 94.3 93.5 C 94.3 97.3 93.8 100.8 91.3 103.3 C 89.6 105.1 87.2 106.1 84.2 106.1 C 81.2 106.1 78.9 105.1 77.2 103.3 C 74.7 100.8 74.2 97.3 74.2 93.5 C 74.2 89.7 74.7 86.2 77.2 83.7 C 78.9 82 81.2 80.9 84.2 80.9 C 87.2 80.9 89.6 82 91.3 83.7 Z M 79.8 85.9 C 78 87.7 77.8 90.7 77.8 93.5 C 77.8 96.3 77.9 99.3 79.8 101.1 C 81 102.3 82.5 102.9 84.2 102.9 C 86 102.9 87.5 102.3 88.7 101.1 C 90.5 99.3 90.7 96.3 90.7 93.5 C 90.7 90.7 90.5 87.7 88.7 85.9 C 87.5 84.7 86 84.1 84.2 84.1 C 82.5 84.1 81 84.7 79.8 85.9 Z M 105.5 99.1 C 105.5 101.5 106.3 102.7 108.8 102.7 C 108.8 102.74 110.7 102.7 110.7 102.7 L 110.7 105.8 C 110.7 105.8 108.15 105.84 108.1 105.8 C 103.8 105.8 101.9 103 101.9 99.3 C 101.9 99.29 101.9 70.2 101.9 70.2 L 105.5 70.2 C 105.5 70.2 105.5 99.14 105.5 99.1 Z M 120.4 105.8 L 116.8 105.8 L 116.8 81.2 L 120.4 81.2 L 120.4 105.8 Z M 120.7 74.2 L 116.6 74.2 L 116.6 70.2 L 120.7 70.2 L 120.7 74.2 Z M 147.2 84.6 C 147.2 84.6 144.7 86.9 144.7 86.9 C 142.9 84.8 141.4 84.1 139.1 84.1 C 136.7 84.1 134.7 85.1 133.4 86.9 C 132.2 88.5 131.8 90.4 131.8 93.5 C 131.8 96.6 132.2 98.5 133.4 100.1 C 134.7 102 136.7 102.9 139.1 102.9 C 141.4 102.9 142.9 102.2 144.7 100.1 C 144.7 100.1 147.2 102.5 147.2 102.5 C 144.6 105.2 142.5 106.1 139.1 106.1 C 132.9 106.1 128.2 101.9 128.2 93.5 C 128.2 85.1 132.9 80.9 139.1 80.9 C 142.5 80.9 144.6 81.8 147.2 84.6 Z M 160 112.2 C 159.5 113.6 159 114.5 158.3 115.1 C 157 116.4 155.2 116.8 153.5 116.8 C 153.5 116.84 151.9 116.8 151.9 116.8 L 151.9 113.6 C 151.9 113.6 153.05 113.64 153 113.6 C 155.5 113.6 156.3 112.8 157.1 110.6 C 157.1 110.59 159 105.3 159 105.3 L 150.1 81.2 L 154 81.2 L 160.8 101 L 167.5 81.2 L 171.4 81.2 C 171.4 81.2 160.05 112.24 160 112.2 Z M 205.4 83.1 C 207.9 85.5 208.4 89.6 208.4 93.5 C 208.4 97.5 207.9 101.5 205.4 104 C 204.1 105.3 202 106.1 199.4 106.1 C 196.7 106.1 194.5 105.5 192.5 102.9 C 192.5 102.94 192.5 116.8 192.5 116.8 L 188.9 116.8 L 188.9 81.2 L 192.5 81.2 C 192.5 81.2 192.5 84.14 192.5 84.1 C 194.5 81.6 196.7 80.9 199.4 80.9 C 202 80.9 204.1 81.8 205.4 83.1 Z M 192.5 93.5 C 192.5 98.3 193.3 102.9 198.7 102.9 C 204 102.9 204.8 98.3 204.8 93.5 C 204.8 88.7 204 84.1 198.7 84.1 C 193.3 84.1 192.5 88.7 192.5 93.5 Z M 219.6 99.1 C 219.6 101.5 220.4 102.7 222.9 102.7 C 222.95 102.74 224.9 102.7 224.9 102.7 L 224.9 105.8 C 224.9 105.8 222.3 105.84 222.3 105.8 C 218 105.8 216 103 216 99.3 C 216.05 99.29 216 70.2 216 70.2 L 219.6 70.2 C 219.6 70.2 219.65 99.14 219.6 99.1 Z M 248.5 89.1 C 248.55 89.14 248.5 105.8 248.5 105.8 L 244.9 105.8 C 244.9 105.8 244.95 103.49 244.9 103.5 C 243 105.4 241.1 106.1 237.8 106.1 C 234.4 106.1 232.6 105.5 230.9 103.9 C 229.6 102.7 229 100.8 229 98.9 C 229 94.5 232.1 91.8 237.6 91.8 C 237.6 91.79 244.9 91.8 244.9 91.8 C 244.9 91.8 244.95 89.44 244.9 89.4 C 244.9 85.9 243.2 84 238.6 84 C 235.5 84 233.9 84.8 232.4 86.9 C 232.4 86.9 230 84.6 230 84.6 C 232.1 81.8 234.6 80.9 238.7 80.9 C 245.3 80.9 248.5 83.8 248.5 89.1 Z M 238.1 94.5 C 234.4 94.5 232.5 95.9 232.5 98.8 C 232.5 101.7 234.3 103 238.2 103 C 240.3 103 242.1 102.8 243.7 101.4 C 244.5 100.6 244.9 99.2 244.9 97.1 C 244.95 97.14 244.9 94.5 244.9 94.5 C 244.9 94.5 238.1 94.49 238.1 94.5 Z M 275 84.6 C 275 84.6 272.5 86.9 272.5 86.9 C 270.7 84.8 269.2 84.1 266.9 84.1 C 264.5 84.1 262.5 85.1 261.2 86.9 C 260 88.5 259.6 90.4 259.6 93.5 C 259.6 96.6 260 98.5 261.2 100.1 C 262.5 102 264.5 102.9 266.9 102.9 C 269.2 102.9 270.7 102.2 272.5 100.1 C 272.5 100.1 275 102.5 275 102.5 C 272.4 105.2 270.3 106.1 266.9 106.1 C 260.7 106.1 256 101.9 256 93.5 C 256 85.1 260.7 80.9 266.9 80.9 C 270.3 80.9 272.4 81.8 275 84.6 Z M 299.9 92.9 C 299.95 92.89 299.9 94.5 299.9 94.5 C 299.9 94.5 283.35 94.49 283.3 94.5 C 283.3 99.9 285.8 103 290.6 103 C 293.4 103 295.1 102.1 297 100.2 C 297 100.2 299.5 102.3 299.5 102.3 C 297 104.8 294.6 106.1 290.5 106.1 C 283.9 106.1 279.7 102.2 279.7 93.5 C 279.7 85.5 283.6 80.9 289.8 80.9 C 296.2 80.9 299.9 85.5 299.9 92.9 Z M 284.1 87.7 C 283.5 89 283.4 89.8 283.3 91.8 C 283.3 91.8 296.4 91.8 296.4 91.8 C 296.2 89.8 296.2 89 295.6 87.7 C 294.5 85.4 292.5 84 289.8 84 C 287.2 84 285.1 85.4 284.1 87.7 Z M 340.1 83.2 C 341.9 84.9 342.8 87.2 342.8 90.1 C 342.8 90.09 342.8 105.8 342.8 105.8 L 339.2 105.8 C 339.2 105.8 339.2 90.69 339.2 90.7 C 339.2 86.3 336.8 84.1 333.1 84.1 C 329.5 84.1 327 86.4 327 90.3 C 327 90.29 327 105.8 327 105.8 L 323.4 105.8 C 323.4 105.8 323.4 90.69 323.4 90.7 C 323.4 86.3 321 84.1 317.3 84.1 C 313.6 84.1 311.2 86.4 311.2 90.7 C 311.2 90.69 311.2 105.8 311.2 105.8 L 307.6 105.8 L 307.6 81.2 L 311.2 81.2 C 311.2 81.2 311.2 83.94 311.2 83.9 C 312.9 81.9 315.4 80.9 318.1 80.9 C 321.5 80.9 324.2 82.3 325.7 85 C 327.6 82.3 330.3 80.9 333.8 80.9 C 336.4 80.9 338.6 81.8 340.1 83.2 Z M 370.4 92.9 C 370.4 92.89 370.4 94.5 370.4 94.5 C 370.4 94.5 353.8 94.49 353.8 94.5 C 353.8 99.9 356.3 103 361 103 C 363.9 103 365.5 102.1 367.5 100.2 C 367.5 100.2 369.9 102.3 369.9 102.3 C 367.4 104.8 365.1 106.1 360.9 106.1 C 354.4 106.1 350.2 102.2 350.2 93.5 C 350.2 85.5 354 80.9 360.3 80.9 C 366.7 80.9 370.4 85.5 370.4 92.9 Z M 354.5 87.7 C 353.9 89 353.9 89.8 353.8 91.8 C 353.8 91.8 366.8 91.8 366.8 91.8 C 366.7 89.8 366.6 89 366 87.7 C 365 85.4 362.9 84 360.3 84 C 357.6 84 355.6 85.4 354.5 87.7 Z M 394.9 83.2 C 396.6 84.9 397.4 87.3 397.4 90.1 C 397.45 90.14 397.4 105.8 397.4 105.8 L 393.8 105.8 C 393.8 105.8 393.85 90.69 393.8 90.7 C 393.8 86.3 391.5 84.1 387.8 84.1 C 384.1 84.1 381.6 86.4 381.6 90.7 C 381.65 90.69 381.6 105.8 381.6 105.8 L 378 105.8 L 378 81.2 L 381.6 81.2 C 381.6 81.2 381.6 83.99 381.6 84 C 383.3 82 385.8 80.9 388.5 80.9 C 391.2 80.9 393.4 81.7 394.9 83.2 Z M 410.4 81.2 L 415.6 81.2 L 415.6 84 L 410.4 84 C 410.4 84 410.4 99.14 410.4 99.1 C 410.4 101.4 411.4 102.7 413.7 102.7 C 413.75 102.74 415.6 102.7 415.6 102.7 L 415.6 105.8 C 415.6 105.8 413.1 105.84 413.1 105.8 C 408.9 105.8 406.8 102.9 406.8 99.2 C 406.8 99.24 406.8 84 406.8 84 L 403.7 84 L 403.7 81.2 L 406.8 81.2 L 406.8 73.7 L 410.4 73.7 L 410.4 81.2 Z " stroke="none" fill="#840028"/>  </g>  <g id="Polygon28131">    <path d="M 71.8 7.7 C 71.8 7.7 66.5 13 66.5 13 C 64.2 10.7 61.7 10 57.8 10 C 53.3 10 51.2 12.5 51.2 15.4 C 51.2 16.6 51.5 17.6 52.4 18.5 C 53.3 19.3 54.5 19.9 56.3 20.1 C 56.3 20.1 61.4 20.9 61.4 20.9 C 65.3 21.4 67.7 22.4 69.6 24.2 C 71.9 26.4 72.9 29.4 72.9 33.2 C 72.9 41.5 66 46.2 57 46.2 C 50.6 46.2 45.6 44.8 41.4 40.6 C 41.4 40.6 46.8 35.2 46.8 35.2 C 49.5 37.9 53.2 38.8 57.1 38.8 C 62.1 38.8 64.7 36.8 64.7 33.4 C 64.7 32 64.3 30.8 63.4 29.9 C 62.6 29.1 61.6 28.7 59.6 28.4 C 59.6 28.4 54.5 27.7 54.5 27.7 C 50.9 27.1 48.1 26 46.2 24.1 C 44.1 22.1 43.1 19.3 43.1 15.7 C 43.1 8.1 48.8 2.8 58 2.8 C 63.9 2.8 68.1 4.2 71.8 7.7 Z M 108.4 10.6 L 97.2 10.6 L 97.2 45.8 L 88.9 45.8 L 88.9 10.6 L 77.7 10.6 L 77.7 3.1 L 108.4 3.1 L 108.4 10.6 Z M 143.9 10.6 L 124.1 10.6 L 124.1 20.6 L 141 20.6 L 141 28 L 124.1 28 L 124.1 38.4 L 143.9 38.4 L 143.9 45.8 L 115.8 45.8 L 115.8 3.1 L 143.9 3.1 L 143.9 10.6 Z M 169.2 3.1 C 178.1 3.1 183.3 9.2 183.3 16.4 C 183.3 23.7 178.1 29.8 169.2 29.8 C 169.24 29.76 161 29.8 161 29.8 L 161 45.8 L 152.7 45.8 L 152.7 3.1 C 152.7 3.1 169.24 3.12 169.2 3.1 Z M 161 10.6 L 161 22.3 C 161 22.3 168.82 22.32 168.8 22.3 C 172.6 22.3 175 19.9 175 16.4 C 175 12.9 172.6 10.6 168.8 10.6 C 168.82 10.56 161 10.6 161 10.6 Z M 206.5 42.8 C 203.9 40.1 203.3 37 203 33.9 C 203 33.9 210.8 33.9 210.8 33.9 C 211.2 37.3 212.8 39.2 216 39.2 C 217.6 39.2 218.8 38.8 219.8 37.8 C 221.1 36.4 221.4 34.2 221.4 31.4 C 221.4 26.5 219.9 23.8 216.2 23.8 C 213 23.8 211.6 25.6 211.1 27.2 C 211.06 27.24 203.9 27.2 203.9 27.2 L 203.9 3.1 L 228.3 3.1 L 228.3 10.1 L 211 10.1 C 211 10.1 211 19.32 211 19.3 C 212.1 18.2 214.5 17.2 217.4 17.2 C 221 17.2 223.7 18.3 225.4 20 C 228.8 23.4 229.2 27.4 229.2 31.4 C 229.2 36.3 228.6 39.6 225.5 42.7 C 223.5 44.6 220.4 46.2 216 46.2 C 211.6 46.2 208.4 44.6 206.5 42.8 Z " stroke="none" fill="#840028"/>  </g></svg>