<?xml version="1.0" standalone="no"?><!DOCTYPE svg PUBLIC "-//W3C//DTD SVG 1.1//EN" "http://www.w3.org/Graphics/SVG/1.1/DTD/svg11.dtd"><svg xmlns="http://www.w3.org/2000/svg" version="1.1" width="258px" height="147.32763671875px" viewBox="0 0 258 147.32763671875">  <desc>Case vetting</desc>  <defs/>  <g id="Polygon20476">    <path d="M 14.3 94.3 L 9.4 94.3 L 0.2 69.3 L 6.8 69.3 L 11.9 84.7 L 16.9 69.3 L 23.5 69.3 L 14.3 94.3 Z M 47.2 81.1 C 47.23 81.07 47.2 83.7 47.2 83.7 C 47.2 83.7 31.58 83.71 31.6 83.7 C 31.6 87 33.5 89.3 37.1 89.3 C 39.8 89.3 41.1 88.5 42.7 86.9 C 42.7 86.9 46.5 90.6 46.5 90.6 C 44 93.2 41.5 94.6 37 94.6 C 31.1 94.6 25.4 91.9 25.4 81.7 C 25.4 73.6 29.9 69 36.3 69 C 43.3 69 47.2 74 47.2 81.1 Z M 32.1 76.8 C 31.7 77.7 31.6 78.3 31.6 79.4 C 31.6 79.4 41 79.4 41 79.4 C 41 78.3 40.9 77.7 40.5 76.8 C 39.8 75.3 38.4 74.2 36.3 74.2 C 34.2 74.2 32.8 75.3 32.1 76.8 Z M 59.8 70 L 64.2 70 L 64.2 74.7 L 59.8 74.7 C 59.8 74.7 59.81 86.74 59.8 86.7 C 59.8 88.2 60.5 89 62 89 C 61.97 88.99 64.2 89 64.2 89 L 64.2 94.3 C 64.2 94.3 60.82 94.27 60.8 94.3 C 55.7 94.3 53.6 90.7 53.6 87.1 C 53.57 87.12 53.6 74.7 53.6 74.7 L 50.9 74.7 L 50.9 70 L 53.6 70 L 53.6 62.6 L 59.8 62.6 L 59.8 70 Z M 76.6 70 L 81 70 L 81 74.7 L 76.6 74.7 C 76.6 74.7 76.56 86.74 76.6 86.7 C 76.6 88.2 77.2 89 78.7 89 C 78.72 88.99 81 89 81 89 L 81 94.3 C 81 94.3 77.57 94.27 77.6 94.3 C 72.5 94.3 70.3 90.7 70.3 87.1 C 70.32 87.12 70.3 74.7 70.3 74.7 L 67.7 74.7 L 67.7 70 L 70.3 70 L 70.3 62.6 L 76.6 62.6 L 76.6 70 Z M 92.9 94.3 L 86.6 94.3 L 86.6 70 L 92.9 70 L 92.9 94.3 Z M 92.9 65 L 86.5 65 L 86.5 59.9 L 92.9 59.9 L 92.9 65 Z M 118.1 71.2 C 120.1 73.2 120.6 75.6 120.6 78.3 C 120.62 78.29 120.6 94.3 120.6 94.3 L 114.4 94.3 C 114.4 94.3 114.38 79.15 114.4 79.2 C 114.4 75.7 112.3 74.6 110.3 74.6 C 108.2 74.6 106.1 75.7 106.1 79.2 C 106.08 79.15 106.1 94.3 106.1 94.3 L 99.8 94.3 L 99.8 69.3 L 105.9 69.3 C 105.9 69.3 105.93 71.57 105.9 71.6 C 107.6 69.8 109.9 69 112.2 69 C 114.7 69 116.7 69.7 118.1 71.2 Z M 140.9 71.6 C 140.93 71.62 140.9 69.3 140.9 69.3 L 147 69.3 C 147 69.3 146.97 93.36 147 93.4 C 147 99.4 142.8 103.7 136 103.7 C 132.1 103.7 129.5 103 126.9 100.5 C 126.9 100.5 130.8 96.5 130.8 96.5 C 132.2 97.9 133.6 98.4 135.7 98.4 C 139.5 98.4 140.7 95.9 140.7 93.3 C 140.7 93.3 140.7 90.7 140.7 90.7 C 139.1 92.5 137.3 93.2 134.8 93.2 C 132.3 93.2 130.3 92.4 128.9 91 C 126.5 88.7 126.3 85.5 126.3 81.1 C 126.3 76.7 126.5 73.5 128.9 71.2 C 130.3 69.8 132.3 69 134.8 69 C 137.5 69 139.2 69.7 140.9 71.6 Z M 132.5 81.1 C 132.5 84.4 132.9 87.6 136.7 87.6 C 140.4 87.6 140.7 84.4 140.7 81.1 C 140.7 77.8 140.4 74.6 136.7 74.6 C 132.9 74.6 132.5 77.8 132.5 81.1 Z " stroke="none" fill="#323e47"/>  </g>  <g id="Polygon20475">    <path d="M 28 13 C 28 13 21.2 13 21.2 13 C 20.5 10.2 18.8 8.2 15.5 8.2 C 13.6 8.2 12.1 8.8 11.2 9.9 C 9.9 11.4 9.5 13.1 9.5 19.6 C 9.5 26.1 9.9 27.8 11.2 29.2 C 12.1 30.3 13.6 31 15.5 31 C 18.8 31 20.5 28.9 21.2 26.2 C 21.2 26.2 28 26.2 28 26.2 C 26.8 33.3 21.8 37 15.5 37 C 11.5 37 8.6 35.7 6.3 33.4 C 2.9 30 2.8 26.1 2.8 19.6 C 2.8 13.1 2.9 9.2 6.3 5.8 C 8.6 3.5 11.5 2.2 15.5 2.2 C 21.8 2.2 26.8 5.9 28 13 Z M 52.2 20.2 C 52.18 20.21 52.2 36.7 52.2 36.7 L 46.1 36.7 C 46.1 36.7 46.08 34.51 46.1 34.5 C 44.4 36.2 42.8 36.9 39.9 36.9 C 37.1 36.9 35 36.1 33.6 34.7 C 32.2 33.3 31.5 31.3 31.5 29.1 C 31.5 25.1 34.2 21.8 40.1 21.8 C 40.13 21.84 45.9 21.8 45.9 21.8 C 45.9 21.8 45.94 20.59 45.9 20.6 C 45.9 17.9 44.6 16.7 41.3 16.7 C 39 16.7 37.8 17.3 36.5 18.8 C 36.5 18.8 32.5 14.9 32.5 14.9 C 35 12.2 37.3 11.4 41.5 11.4 C 48.6 11.4 52.2 14.4 52.2 20.2 Z M 41.2 26.1 C 38.7 26.1 37.5 27.1 37.5 29 C 37.5 30.7 38.7 31.8 41.3 31.8 C 42.8 31.8 43.9 31.6 45 30.6 C 45.7 30 45.9 29 45.9 27.5 C 45.94 27.46 45.9 26.1 45.9 26.1 C 45.9 26.1 41.18 26.11 41.2 26.1 Z M 76.9 14.3 C 76.9 14.3 73.1 18.2 73.1 18.2 C 71.7 16.9 69.5 16.5 67.3 16.5 C 64.8 16.5 63.7 17.7 63.7 18.9 C 63.7 20.2 64.5 20.9 66.3 21.1 C 66.3 21.1 70.3 21.5 70.3 21.5 C 75.2 21.9 77.7 24.5 77.7 28.8 C 77.7 34.3 73 37 67.1 37 C 63.2 37 59.7 36.5 56.4 33.4 C 56.4 33.4 60.5 29.3 60.5 29.3 C 62.5 31.3 65.3 31.6 67.2 31.6 C 69.4 31.6 71.6 30.9 71.6 29 C 71.6 27.8 71 26.9 69 26.7 C 69 26.7 65 26.4 65 26.4 C 60.5 25.9 57.7 24 57.7 19.3 C 57.7 14.1 62.3 11.4 67.4 11.4 C 71.3 11.4 74.5 12.1 76.9 14.3 Z M 103.5 23.5 C 103.49 23.47 103.5 26.1 103.5 26.1 C 103.5 26.1 87.84 26.11 87.8 26.1 C 87.8 29.4 89.8 31.7 93.3 31.7 C 96 31.7 97.4 30.9 98.9 29.3 C 98.9 29.3 102.8 33 102.8 33 C 100.2 35.6 97.8 37 93.3 37 C 87.3 37 81.7 34.3 81.7 24.1 C 81.7 16 86.1 11.4 92.6 11.4 C 99.6 11.4 103.5 16.4 103.5 23.5 Z M 88.4 19.2 C 87.9 20.1 87.9 20.7 87.8 21.8 C 87.8 21.8 97.3 21.8 97.3 21.8 C 97.2 20.7 97.2 20.1 96.8 19.2 C 96.1 17.7 94.7 16.6 92.6 16.6 C 90.4 16.6 89 17.7 88.4 19.2 Z " stroke="none" fill="#323e47"/>  </g></svg>