<?xml version="1.0" standalone="no"?><!DOCTYPE svg PUBLIC "-//W3C//DTD SVG 1.1//EN" "http://www.w3.org/Graphics/SVG/1.1/DTD/svg11.dtd"><svg xmlns="http://www.w3.org/2000/svg" version="1.1" width="258px" height="147.32763671875px" viewBox="0 0 258 147.32763671875">  <desc>The application</desc>  <defs/>  <g id="Polygon21105">    <path d="M 22.4 77.8 C 22.42 77.81 22.4 94.3 22.4 94.3 L 16.3 94.3 C 16.3 94.3 16.32 92.11 16.3 92.1 C 14.6 93.8 13.1 94.5 10.2 94.5 C 7.3 94.5 5.2 93.7 3.8 92.3 C 2.4 90.9 1.7 88.9 1.7 86.7 C 1.7 82.7 4.5 79.4 10.4 79.4 C 10.37 79.44 16.2 79.4 16.2 79.4 C 16.2 79.4 16.18 78.19 16.2 78.2 C 16.2 75.5 14.8 74.3 11.5 74.3 C 9.3 74.3 8.1 74.9 6.7 76.4 C 6.7 76.4 2.8 72.5 2.8 72.5 C 5.2 69.8 7.6 69 11.8 69 C 18.8 69 22.4 72 22.4 77.8 Z M 11.4 83.7 C 8.9 83.7 7.7 84.7 7.7 86.6 C 7.7 88.3 8.9 89.4 11.5 89.4 C 13.1 89.4 14.2 89.2 15.2 88.2 C 15.9 87.6 16.2 86.6 16.2 85.1 C 16.18 85.06 16.2 83.7 16.2 83.7 C 16.2 83.7 11.42 83.71 11.4 83.7 Z M 47.5 71.2 C 49.9 73.7 50.1 77.6 50.1 81.7 C 50.1 86 49.9 89.9 47.5 92.3 C 46.1 93.7 44 94.6 41.5 94.6 C 38.9 94.6 37 93.9 35.4 92.1 C 35.38 92.06 35.4 103.4 35.4 103.4 L 29.1 103.4 L 29.1 69.3 L 35.2 69.3 C 35.2 69.3 35.18 71.62 35.2 71.6 C 37 69.7 38.8 69 41.4 69 C 43.9 69 46.1 69.8 47.5 71.2 Z M 35.4 81.7 C 35.4 85.8 35.9 88.9 39.6 88.9 C 43.4 88.9 43.9 85.8 43.9 81.7 C 43.9 77.7 43.4 74.6 39.6 74.6 C 35.9 74.6 35.4 77.7 35.4 81.7 Z M 74.4 71.2 C 76.8 73.7 77 77.6 77 81.7 C 77 86 76.8 89.9 74.4 92.3 C 73 93.7 70.9 94.6 68.4 94.6 C 65.8 94.6 63.9 93.9 62.3 92.1 C 62.3 92.06 62.3 103.4 62.3 103.4 L 56.1 103.4 L 56.1 69.3 L 62.1 69.3 C 62.1 69.3 62.11 71.62 62.1 71.6 C 63.9 69.7 65.7 69 68.4 69 C 70.8 69 73 69.8 74.4 71.2 Z M 62.3 81.7 C 62.3 85.8 62.8 88.9 66.5 88.9 C 70.3 88.9 70.8 85.8 70.8 81.7 C 70.8 77.7 70.3 74.6 66.5 74.6 C 62.8 74.6 62.3 77.7 62.3 81.7 Z M 89 86.7 C 89 88.2 89.6 89 91.2 89 C 91.2 88.99 93.6 89 93.6 89 L 93.6 94.3 C 93.6 94.3 90.05 94.27 90 94.3 C 84.9 94.3 82.8 90.7 82.8 87.1 C 82.75 87.12 82.8 60.1 82.8 60.1 L 89 60.1 C 89 60.1 88.99 86.74 89 86.7 Z M 104.8 94.3 L 98.6 94.3 L 98.6 70 L 104.8 70 L 104.8 94.3 Z M 104.9 65 L 98.5 65 L 98.5 59.9 L 104.9 59.9 L 104.9 65 Z M 130.2 72.3 C 130.2 72.3 125.9 76.6 125.9 76.6 C 124.6 75.2 123.6 74.6 121.9 74.6 C 120.4 74.6 119.3 75.2 118.4 76.2 C 117.4 77.4 117 79.1 117 81.7 C 117 84.4 117.4 86.1 118.4 87.3 C 119.3 88.4 120.4 88.9 121.9 88.9 C 123.6 88.9 124.6 88.3 125.9 87 C 125.9 87 130.2 91.2 130.2 91.2 C 127.9 93.5 125.4 94.6 121.9 94.6 C 116.9 94.6 110.7 91.9 110.7 81.7 C 110.7 71.7 116.9 69 121.9 69 C 125.4 69 127.9 70 130.2 72.3 Z M 153.7 77.8 C 153.69 77.81 153.7 94.3 153.7 94.3 L 147.6 94.3 C 147.6 94.3 147.6 92.11 147.6 92.1 C 145.9 93.8 144.3 94.5 141.5 94.5 C 138.6 94.5 136.5 93.7 135.1 92.3 C 133.7 90.9 133 88.9 133 86.7 C 133 82.7 135.7 79.4 141.6 79.4 C 141.65 79.44 147.5 79.4 147.5 79.4 C 147.5 79.4 147.45 78.19 147.5 78.2 C 147.5 75.5 146.1 74.3 142.8 74.3 C 140.5 74.3 139.3 74.9 138 76.4 C 138 76.4 134.1 72.5 134.1 72.5 C 136.5 69.8 138.9 69 143 69 C 150.1 69 153.7 72 153.7 77.8 Z M 142.7 83.7 C 140.2 83.7 139 84.7 139 86.6 C 139 88.3 140.2 89.4 142.8 89.4 C 144.3 89.4 145.4 89.2 146.5 88.2 C 147.2 87.6 147.5 86.6 147.5 85.1 C 147.45 85.06 147.5 83.7 147.5 83.7 C 147.5 83.7 142.7 83.71 142.7 83.7 Z M 167.2 70 L 171.6 70 L 171.6 74.7 L 167.2 74.7 C 167.2 74.7 167.23 86.74 167.2 86.7 C 167.2 88.2 167.9 89 169.4 89 C 169.39 88.99 171.6 89 171.6 89 L 171.6 94.3 C 171.6 94.3 168.24 94.27 168.2 94.3 C 163.2 94.3 161 90.7 161 87.1 C 160.99 87.12 161 74.7 161 74.7 L 158.4 74.7 L 158.4 70 L 161 70 L 161 62.6 L 167.2 62.6 L 167.2 70 Z M 183.5 94.3 L 177.3 94.3 L 177.3 70 L 183.5 70 L 183.5 94.3 Z M 183.6 65 L 177.2 65 L 177.2 59.9 L 183.6 59.9 L 183.6 65 Z M 207.8 91.5 C 206.2 93.1 203.7 94.6 200 94.6 C 196.3 94.6 193.9 93.1 192.3 91.5 C 190 89.1 189.5 86.3 189.5 81.7 C 189.5 77.2 190 74.4 192.3 72 C 193.9 70.4 196.3 69 200 69 C 203.7 69 206.2 70.4 207.8 72 C 210 74.4 210.6 77.2 210.6 81.7 C 210.6 86.3 210.1 89.1 207.8 91.5 Z M 202.9 75.7 C 202.2 75 201.3 74.6 200 74.6 C 198.8 74.6 197.9 75 197.1 75.7 C 195.8 76.9 195.7 79.2 195.7 81.7 C 195.7 84.3 195.8 86.6 197.1 87.8 C 197.9 88.6 198.8 88.9 200 88.9 C 201.3 88.9 202.2 88.6 202.9 87.8 C 204.2 86.6 204.4 84.3 204.4 81.7 C 204.4 79.2 204.2 76.9 202.9 75.7 Z M 234.8 71.2 C 236.8 73.2 237.4 75.6 237.4 78.3 C 237.36 78.29 237.4 94.3 237.4 94.3 L 231.1 94.3 C 231.1 94.3 231.12 79.15 231.1 79.2 C 231.1 75.7 229 74.6 227 74.6 C 225 74.6 222.8 75.7 222.8 79.2 C 222.81 79.15 222.8 94.3 222.8 94.3 L 216.6 94.3 L 216.6 69.3 L 222.7 69.3 C 222.7 69.3 222.67 71.57 222.7 71.6 C 224.3 69.8 226.6 69 228.9 69 C 231.4 69 233.4 69.7 234.8 71.2 Z " stroke="none" fill="#323e47"/>  </g>  <g id="Polygon21104">    <path d="M 26 8.4 L 17 8.4 L 17 36.7 L 10.4 36.7 L 10.4 8.4 L 1.4 8.4 L 1.4 2.5 L 26 2.5 L 26 8.4 Z M 45.5 36.7 C 45.5 36.7 45.46 21.55 45.5 21.6 C 45.5 18.1 43.3 17 41.3 17 C 39.4 17 37.2 18.1 37.2 21.6 C 37.15 21.55 37.2 36.7 37.2 36.7 L 30.9 36.7 L 30.9 2.5 L 37.2 2.5 C 37.2 2.5 37.15 13.97 37.2 14 C 38.7 12.2 40.8 11.4 43.2 11.4 C 45.7 11.4 47.8 12.2 49.2 13.6 C 51.2 15.6 51.7 18 51.7 20.7 C 51.7 20.69 51.7 36.7 51.7 36.7 L 45.5 36.7 Z M 79 23.5 C 78.96 23.47 79 26.1 79 26.1 C 79 26.1 63.31 26.11 63.3 26.1 C 63.3 29.4 65.2 31.7 68.8 31.7 C 71.5 31.7 72.9 30.9 74.4 29.3 C 74.4 29.3 78.2 33 78.2 33 C 75.7 35.6 73.2 37 68.7 37 C 62.8 37 57.2 34.3 57.2 24.1 C 57.2 16 61.6 11.4 68.1 11.4 C 75 11.4 79 16.4 79 23.5 Z M 63.8 19.2 C 63.4 20.1 63.4 20.7 63.3 21.8 C 63.3 21.8 72.8 21.8 72.8 21.8 C 72.7 20.7 72.7 20.1 72.2 19.2 C 71.6 17.7 70.2 16.6 68.1 16.6 C 65.9 16.6 64.5 17.7 63.8 19.2 Z " stroke="none" fill="#323e47"/>  </g></svg>