<?xml version="1.0" standalone="no"?><!DOCTYPE svg PUBLIC "-//W3C//DTD SVG 1.1//EN" "http://www.w3.org/Graphics/SVG/1.1/DTD/svg11.dtd"><svg xmlns="http://www.w3.org/2000/svg" version="1.1" width="258px" height="148.32763671875px" viewBox="0 0 258 148.32763671875">  <desc>Case submission</desc>  <defs/>  <g id="Polygon21527">    <path d="M 21.6 71.9 C 21.6 71.9 17.7 75.8 17.7 75.8 C 16.3 74.5 14.1 74.1 11.9 74.1 C 9.4 74.1 8.4 75.3 8.4 76.5 C 8.4 77.8 9.1 78.5 10.9 78.7 C 10.9 78.7 14.9 79.1 14.9 79.1 C 19.8 79.5 22.3 82.1 22.3 86.4 C 22.3 91.9 17.6 94.6 11.7 94.6 C 7.8 94.6 4.3 94.1 1.1 91 C 1.1 91 5.1 86.9 5.1 86.9 C 7.2 88.9 9.9 89.2 11.8 89.2 C 14 89.2 16.2 88.5 16.2 86.6 C 16.2 85.4 15.6 84.5 13.6 84.3 C 13.6 84.3 9.6 84 9.6 84 C 5.1 83.5 2.4 81.6 2.4 76.9 C 2.4 71.7 6.9 69 12 69 C 15.9 69 19.2 69.7 21.6 71.9 Z M 48 94.3 L 42 94.3 C 42 94.3 41.95 91.97 42 92 C 40.3 93.7 38 94.6 35.7 94.6 C 33.3 94.6 31.2 93.8 29.8 92.4 C 27.8 90.3 27.3 88 27.3 85.2 C 27.26 85.25 27.3 69.3 27.3 69.3 L 33.5 69.3 C 33.5 69.3 33.5 84.38 33.5 84.4 C 33.5 87.8 35.7 88.9 37.6 88.9 C 39.6 88.9 41.8 87.8 41.8 84.4 C 41.81 84.38 41.8 69.3 41.8 69.3 L 48 69.3 L 48 94.3 Z M 61.3 71.5 C 62.9 69.6 64.8 69 67.4 69 C 69.9 69 72 69.8 73.4 71.2 C 75.8 73.7 76 77.6 76 81.7 C 76 86 75.8 89.9 73.4 92.3 C 72 93.7 69.8 94.6 67.3 94.6 C 64.7 94.6 62.9 93.8 61.1 91.9 C 61.1 91.92 61.1 94.3 61.1 94.3 L 55.1 94.3 L 55.1 60.1 L 61.3 60.1 C 61.3 60.1 61.3 71.47 61.3 71.5 Z M 61.3 81.7 C 61.3 85.8 61.8 88.9 65.5 88.9 C 69.3 88.9 69.8 85.8 69.8 81.7 C 69.8 77.7 69.3 74.6 65.5 74.6 C 61.8 74.6 61.3 77.7 61.3 81.7 Z M 114.6 71.2 C 116.6 73.2 117.3 75.6 117.3 78.3 C 117.31 78.29 117.3 94.3 117.3 94.3 L 111.1 94.3 C 111.1 94.3 111.07 79.15 111.1 79.2 C 111.1 75.7 109 74.6 106.9 74.6 C 105 74.6 102.8 75.7 102.8 79 C 102.77 79.01 102.8 94.3 102.8 94.3 L 96.5 94.3 C 96.5 94.3 96.53 79.15 96.5 79.2 C 96.5 75.7 94.4 74.6 92.4 74.6 C 90.4 74.6 88.2 75.7 88.2 79.2 C 88.22 79.15 88.2 94.3 88.2 94.3 L 82 94.3 L 82 69.3 L 88.1 69.3 C 88.1 69.3 88.08 71.57 88.1 71.6 C 89.7 69.8 92.1 69 94.4 69 C 97.2 69 99.4 70 101 72.1 C 103.1 69.9 105.3 69 108.4 69 C 110.9 69 113.2 69.8 114.6 71.2 Z M 130.3 94.3 L 124 94.3 L 124 70 L 130.3 70 L 130.3 94.3 Z M 130.3 65 L 123.9 65 L 123.9 59.9 L 130.3 59.9 L 130.3 65 Z M 155.3 71.9 C 155.3 71.9 151.4 75.8 151.4 75.8 C 150 74.5 147.8 74.1 145.6 74.1 C 143.1 74.1 142.1 75.3 142.1 76.5 C 142.1 77.8 142.8 78.5 144.7 78.7 C 144.7 78.7 148.6 79.1 148.6 79.1 C 153.6 79.5 156 82.1 156 86.4 C 156 91.9 151.3 94.6 145.4 94.6 C 141.5 94.6 138 94.1 134.8 91 C 134.8 91 138.9 86.9 138.9 86.9 C 140.9 88.9 143.6 89.2 145.5 89.2 C 147.7 89.2 150 88.5 150 86.6 C 150 85.4 149.3 84.5 147.3 84.3 C 147.3 84.3 143.4 84 143.4 84 C 138.9 83.5 136.1 81.6 136.1 76.9 C 136.1 71.7 140.6 69 145.7 69 C 149.7 69 152.9 69.7 155.3 71.9 Z M 179.4 71.9 C 179.4 71.9 175.6 75.8 175.6 75.8 C 174.1 74.5 172 74.1 169.8 74.1 C 167.3 74.1 166.2 75.3 166.2 76.5 C 166.2 77.8 166.9 78.5 168.8 78.7 C 168.8 78.7 172.7 79.1 172.7 79.1 C 177.7 79.5 180.2 82.1 180.2 86.4 C 180.2 91.9 175.5 94.6 169.6 94.6 C 165.6 94.6 162.1 94.1 158.9 91 C 158.9 91 163 86.9 163 86.9 C 165 88.9 167.8 89.2 169.7 89.2 C 171.8 89.2 174.1 88.5 174.1 86.6 C 174.1 85.4 173.5 84.5 171.5 84.3 C 171.5 84.3 167.5 84 167.5 84 C 163 83.5 160.2 81.6 160.2 76.9 C 160.2 71.7 164.8 69 169.9 69 C 173.8 69 177 69.7 179.4 71.9 Z M 191.7 94.3 L 185.4 94.3 L 185.4 70 L 191.7 70 L 191.7 94.3 Z M 191.7 65 L 185.3 65 L 185.3 59.9 L 191.7 59.9 L 191.7 65 Z M 215.9 91.5 C 214.3 93.1 211.8 94.6 208.1 94.6 C 204.4 94.6 202 93.1 200.4 91.5 C 198.1 89.1 197.6 86.3 197.6 81.7 C 197.6 77.2 198.1 74.4 200.4 72 C 202 70.4 204.4 69 208.1 69 C 211.8 69 214.3 70.4 215.9 72 C 218.2 74.4 218.7 77.2 218.7 81.7 C 218.7 86.3 218.2 89.1 215.9 91.5 Z M 211.1 75.7 C 210.3 75 209.4 74.6 208.1 74.6 C 206.9 74.6 206 75 205.2 75.7 C 203.9 76.9 203.8 79.2 203.8 81.7 C 203.8 84.3 203.9 86.6 205.2 87.8 C 206 88.6 206.9 88.9 208.1 88.9 C 209.4 88.9 210.3 88.6 211.1 87.8 C 212.3 86.6 212.5 84.3 212.5 81.7 C 212.5 79.2 212.3 76.9 211.1 75.7 Z M 242.9 71.2 C 244.9 73.2 245.5 75.6 245.5 78.3 C 245.47 78.29 245.5 94.3 245.5 94.3 L 239.2 94.3 C 239.2 94.3 239.23 79.15 239.2 79.2 C 239.2 75.7 237.1 74.6 235.1 74.6 C 233.1 74.6 230.9 75.7 230.9 79.2 C 230.93 79.15 230.9 94.3 230.9 94.3 L 224.7 94.3 L 224.7 69.3 L 230.8 69.3 C 230.8 69.3 230.78 71.57 230.8 71.6 C 232.4 69.8 234.7 69 237 69 C 239.5 69 241.5 69.7 242.9 71.2 Z " stroke="none" fill="#323e47"/>  </g>  <g id="Polygon21526">    <path d="M 28 13 C 28 13 21.2 13 21.2 13 C 20.5 10.2 18.8 8.2 15.5 8.2 C 13.6 8.2 12.1 8.8 11.2 9.9 C 9.9 11.4 9.5 13.1 9.5 19.6 C 9.5 26.1 9.9 27.8 11.2 29.2 C 12.1 30.3 13.6 31 15.5 31 C 18.8 31 20.5 28.9 21.2 26.2 C 21.2 26.2 28 26.2 28 26.2 C 26.8 33.3 21.8 37 15.5 37 C 11.5 37 8.6 35.7 6.3 33.4 C 2.9 30 2.8 26.1 2.8 19.6 C 2.8 13.1 2.9 9.2 6.3 5.8 C 8.6 3.5 11.5 2.2 15.5 2.2 C 21.8 2.2 26.8 5.9 28 13 Z M 52.2 20.2 C 52.18 20.21 52.2 36.7 52.2 36.7 L 46.1 36.7 C 46.1 36.7 46.08 34.51 46.1 34.5 C 44.4 36.2 42.8 36.9 39.9 36.9 C 37.1 36.9 35 36.1 33.6 34.7 C 32.2 33.3 31.5 31.3 31.5 29.1 C 31.5 25.1 34.2 21.8 40.1 21.8 C 40.13 21.84 45.9 21.8 45.9 21.8 C 45.9 21.8 45.94 20.59 45.9 20.6 C 45.9 17.9 44.6 16.7 41.3 16.7 C 39 16.7 37.8 17.3 36.5 18.8 C 36.5 18.8 32.5 14.9 32.5 14.9 C 35 12.2 37.3 11.4 41.5 11.4 C 48.6 11.4 52.2 14.4 52.2 20.2 Z M 41.2 26.1 C 38.7 26.1 37.5 27.1 37.5 29 C 37.5 30.7 38.7 31.8 41.3 31.8 C 42.8 31.8 43.9 31.6 45 30.6 C 45.7 30 45.9 29 45.9 27.5 C 45.94 27.46 45.9 26.1 45.9 26.1 C 45.9 26.1 41.18 26.11 41.2 26.1 Z M 76.9 14.3 C 76.9 14.3 73.1 18.2 73.1 18.2 C 71.7 16.9 69.5 16.5 67.3 16.5 C 64.8 16.5 63.7 17.7 63.7 18.9 C 63.7 20.2 64.5 20.9 66.3 21.1 C 66.3 21.1 70.3 21.5 70.3 21.5 C 75.2 21.9 77.7 24.5 77.7 28.8 C 77.7 34.3 73 37 67.1 37 C 63.2 37 59.7 36.5 56.4 33.4 C 56.4 33.4 60.5 29.3 60.5 29.3 C 62.5 31.3 65.3 31.6 67.2 31.6 C 69.4 31.6 71.6 30.9 71.6 29 C 71.6 27.8 71 26.9 69 26.7 C 69 26.7 65 26.4 65 26.4 C 60.5 25.9 57.7 24 57.7 19.3 C 57.7 14.1 62.3 11.4 67.4 11.4 C 71.3 11.4 74.5 12.1 76.9 14.3 Z M 103.5 23.5 C 103.49 23.47 103.5 26.1 103.5 26.1 C 103.5 26.1 87.84 26.11 87.8 26.1 C 87.8 29.4 89.8 31.7 93.3 31.7 C 96 31.7 97.4 30.9 98.9 29.3 C 98.9 29.3 102.8 33 102.8 33 C 100.2 35.6 97.8 37 93.3 37 C 87.3 37 81.7 34.3 81.7 24.1 C 81.7 16 86.1 11.4 92.6 11.4 C 99.6 11.4 103.5 16.4 103.5 23.5 Z M 88.4 19.2 C 87.9 20.1 87.9 20.7 87.8 21.8 C 87.8 21.8 97.3 21.8 97.3 21.8 C 97.2 20.7 97.2 20.1 96.8 19.2 C 96.1 17.7 94.7 16.6 92.6 16.6 C 90.4 16.6 89 17.7 88.4 19.2 Z " stroke="none" fill="#323e47"/>  </g></svg>