<?xml version="1.0" standalone="no"?><!DOCTYPE svg PUBLIC "-//W3C//DTD SVG 1.1//EN" "http://www.w3.org/Graphics/SVG/1.1/DTD/svg11.dtd"><svg xmlns="http://www.w3.org/2000/svg" version="1.1" width="305px" height="71.8556518554688px" viewBox="0 0 305 71.8556518554688">  <desc>Cover letter content</desc>  <defs/>  <g id="Polygon22773">    <path d="M 15.4 4 C 16.9 5.4 17.7 7.8 17.7 10.4 C 17.7 10.4 13.8 10.4 13.8 10.4 C 13.8 9.1 13.5 7.7 12.7 6.7 C 12.2 6.1 11.4 5.6 10.2 5.6 C 8.9 5.6 8 6.1 7.5 6.8 C 6.3 8.4 6.1 11 6.1 18.8 C 6.1 26.5 6.3 29.2 7.5 30.7 C 8 31.5 8.9 32 10.2 32 C 11.4 32 12.2 31.5 12.7 30.8 C 13.5 29.9 13.8 28.4 13.8 27 C 13.8 27 17.7 27 17.7 27 C 17.7 29.8 16.8 32.2 15.2 33.7 C 13.9 34.9 12.3 35.5 10.2 35.5 C 7.6 35.5 5.8 34.5 4.6 33.1 C 2.4 30.6 2.2 27.8 2.2 18.8 C 2.2 9.7 2.4 6.9 4.6 4.4 C 5.8 3 7.6 2 10.2 2 C 12.5 2 14.1 2.7 15.4 4 Z M 32.9 13.2 C 34.4 15 34.6 18.4 34.6 23.2 C 34.6 28.1 34.4 31.4 32.9 33.3 C 31.7 34.9 30 35.5 27.9 35.5 C 25.8 35.5 24.1 34.9 22.9 33.3 C 21.4 31.4 21.1 28.1 21.1 23.2 C 21.1 18.4 21.4 15 22.9 13.2 C 24.1 11.5 25.8 10.9 27.9 10.9 C 30 10.9 31.7 11.5 32.9 13.2 Z M 25.8 15.3 C 24.9 16.5 24.8 19 24.8 23.2 C 24.8 27.5 24.9 29.9 25.8 31.1 C 26.3 31.8 27 32.2 27.9 32.2 C 28.7 32.2 29.5 31.8 30 31.1 C 30.9 29.9 30.9 27.5 30.9 23.2 C 30.9 19 30.9 16.5 30 15.3 C 29.5 14.7 28.7 14.3 27.9 14.3 C 27 14.3 26.3 14.7 25.8 15.3 Z M 40.9 11.3 L 44.6 29.1 L 48.2 11.3 L 52.3 11.3 L 46.5 35.1 L 42.6 35.1 L 36.8 11.3 L 40.9 11.3 Z M 58.1 24.1 C 58.1 27.9 58.2 30.1 59.1 31.1 C 59.5 31.7 60.2 32.2 61.2 32.2 C 62 32.2 62.7 31.9 63.3 31.2 C 63.9 30.5 64.1 29.6 64.1 28.5 C 64.1 28.5 67.8 28.5 67.8 28.5 C 67.8 30.7 67.2 32.3 65.9 33.8 C 64.7 35 63.1 35.5 61.2 35.5 C 59.2 35.5 57.7 35 56.4 33.7 C 54.6 31.8 54.3 28.2 54.3 23.2 C 54.3 18.2 54.6 14.7 56.4 12.8 C 57.6 11.5 59.2 10.9 61.1 10.9 C 63 10.9 64.5 11.5 65.8 12.8 C 67.6 14.7 67.9 18.2 67.9 24.1 C 67.9 24.1 58.1 24.1 58.1 24.1 Z M 63.2 15.3 C 62.7 14.7 62.1 14.3 61.1 14.3 C 60.1 14.3 59.5 14.7 59 15.3 C 58.3 16.1 58.1 17.8 58.1 21.3 C 58.1 21.3 64.1 21.3 64.1 21.3 C 64.1 17.8 63.9 16.1 63.2 15.3 Z M 81.6 14.5 C 81.6 14.5 80.45 14.54 80.5 14.5 C 77.9 14.5 76.1 16.2 76.1 18.9 C 76.13 18.91 76.1 35.1 76.1 35.1 L 72.4 35.1 L 72.4 11.3 L 76 11.3 C 76 11.3 75.99 13.85 76 13.8 C 76.4 13.2 77 12.6 77.6 12.1 C 78.7 11.4 80 10.9 81.6 10.9 C 81.56 10.95 81.6 14.5 81.6 14.5 Z M 97.1 28.2 C 97.1 30.5 98.2 31.8 100.6 31.8 C 100.6 31.8 100.6 35.1 100.6 35.1 C 98.6 35.1 96.9 34.9 95.4 33.7 C 94.2 32.6 93.3 31 93.3 28.3 C 93.33 28.34 93.3 2.4 93.3 2.4 L 97.1 2.4 C 97.1 2.4 97.06 28.2 97.1 28.2 Z M 106.7 24.1 C 106.7 27.9 106.9 30.1 107.7 31.1 C 108.1 31.7 108.8 32.2 109.8 32.2 C 110.6 32.2 111.3 31.9 111.9 31.2 C 112.5 30.5 112.7 29.6 112.7 28.5 C 112.7 28.5 116.4 28.5 116.4 28.5 C 116.4 30.7 115.8 32.3 114.5 33.8 C 113.3 35 111.7 35.5 109.8 35.5 C 107.8 35.5 106.3 35 105.1 33.7 C 103.3 31.8 102.9 28.2 102.9 23.2 C 102.9 18.2 103.3 14.7 105 12.8 C 106.3 11.5 107.8 10.9 109.7 10.9 C 111.6 10.9 113.2 11.5 114.4 12.8 C 116.2 14.7 116.5 18.2 116.5 24.1 C 116.5 24.1 106.7 24.1 106.7 24.1 Z M 111.8 15.3 C 111.4 14.7 110.7 14.3 109.7 14.3 C 108.7 14.3 108.1 14.7 107.6 15.3 C 106.9 16.1 106.7 17.8 106.7 21.3 C 106.7 21.3 112.7 21.3 112.7 21.3 C 112.7 17.8 112.6 16.1 111.8 15.3 Z M 123.9 33.7 C 122.5 32.6 121.8 30.8 121.8 28.3 C 121.8 28.34 121.8 14.2 121.8 14.2 L 119.1 14.2 L 119.1 11.3 L 121.8 11.3 L 121.8 4.8 L 125.5 4.8 L 125.5 11.3 L 129.2 11.3 L 129.2 14.2 L 125.5 14.2 C 125.5 14.2 125.53 28.2 125.5 28.2 C 125.5 30.7 126.9 31.8 129.3 31.8 C 129.3 31.8 129.3 35.1 129.3 35.1 C 127.2 35.1 125.4 35 123.9 33.7 Z M 135.8 33.7 C 134.5 32.6 133.8 30.8 133.8 28.3 C 133.76 28.34 133.8 14.2 133.8 14.2 L 131.1 14.2 L 131.1 11.3 L 133.8 11.3 L 133.8 4.8 L 137.5 4.8 L 137.5 11.3 L 141.2 11.3 L 141.2 14.2 L 137.5 14.2 C 137.5 14.2 137.49 28.2 137.5 28.2 C 137.5 30.7 138.8 31.8 141.3 31.8 C 141.3 31.8 141.3 35.1 141.3 35.1 C 139.2 35.1 137.4 35 135.8 33.7 Z M 147.6 24.1 C 147.6 27.9 147.7 30.1 148.6 31.1 C 149 31.7 149.7 32.2 150.7 32.2 C 151.5 32.2 152.2 31.9 152.8 31.2 C 153.4 30.5 153.6 29.6 153.6 28.5 C 153.6 28.5 157.3 28.5 157.3 28.5 C 157.3 30.7 156.7 32.3 155.4 33.8 C 154.2 35 152.6 35.5 150.7 35.5 C 148.7 35.5 147.2 35 146 33.7 C 144.2 31.8 143.8 28.2 143.8 23.2 C 143.8 18.2 144.2 14.7 145.9 12.8 C 147.2 11.5 148.7 10.9 150.6 10.9 C 152.5 10.9 154.1 11.5 155.3 12.8 C 157.1 14.7 157.4 18.2 157.4 24.1 C 157.4 24.1 147.6 24.1 147.6 24.1 Z M 152.7 15.3 C 152.3 14.7 151.6 14.3 150.6 14.3 C 149.6 14.3 149 14.7 148.5 15.3 C 147.8 16.1 147.6 17.8 147.6 21.3 C 147.6 21.3 153.6 21.3 153.6 21.3 C 153.6 17.8 153.5 16.1 152.7 15.3 Z M 171.1 14.5 C 171.1 14.5 169.97 14.54 170 14.5 C 167.4 14.5 165.6 16.2 165.6 18.9 C 165.64 18.91 165.6 35.1 165.6 35.1 L 161.9 35.1 L 161.9 11.3 L 165.5 11.3 C 165.5 11.3 165.5 13.85 165.5 13.8 C 165.9 13.2 166.6 12.6 167.2 12.1 C 168.3 11.4 169.6 10.9 171.1 10.9 C 171.07 10.95 171.1 14.5 171.1 14.5 Z M 184 13.2 C 185.2 11.5 187 10.9 189.1 10.9 C 191 10.9 192.5 11.4 193.7 12.6 C 195.2 13.9 195.6 15.9 195.6 17.9 C 195.6 17.9 191.9 17.9 191.9 17.9 C 191.9 17 191.8 16 191.2 15.2 C 190.7 14.6 190 14.3 189.1 14.3 C 188.2 14.3 187.4 14.7 187 15.3 C 186.1 16.5 186 18.9 186 23.2 C 186 27.6 186.1 30 187 31.2 C 187.4 31.8 188.2 32.2 189.1 32.2 C 190 32.2 190.7 31.9 191.2 31.3 C 191.8 30.5 191.9 29.5 191.9 28.5 C 191.9 28.5 195.6 28.5 195.6 28.5 C 195.6 30.5 195.2 32.5 193.7 33.9 C 192.5 35.1 191 35.5 189.1 35.5 C 187 35.5 185.2 34.9 184 33.3 C 182.6 31.4 182.3 28.1 182.3 23.2 C 182.3 18.4 182.6 15 184 13.2 Z M 210.9 13.2 C 212.3 15 212.6 18.4 212.6 23.2 C 212.6 28.1 212.3 31.4 210.9 33.3 C 209.7 34.9 207.9 35.5 205.8 35.5 C 203.7 35.5 202 34.9 200.8 33.3 C 199.3 31.4 199 28.1 199 23.2 C 199 18.4 199.3 15 200.8 13.2 C 202 11.5 203.7 10.9 205.8 10.9 C 207.9 10.9 209.7 11.5 210.9 13.2 Z M 203.7 15.3 C 202.9 16.5 202.8 19 202.8 23.2 C 202.8 27.5 202.9 29.9 203.7 31.1 C 204.2 31.8 204.9 32.2 205.8 32.2 C 206.7 32.2 207.5 31.8 207.9 31.1 C 208.8 29.9 208.8 27.5 208.8 23.2 C 208.8 19 208.8 16.5 207.9 15.3 C 207.5 14.7 206.7 14.3 205.8 14.3 C 204.9 14.3 204.2 14.7 203.7 15.3 Z M 228.8 12.7 C 229.7 13.8 230.2 15 230.2 17.6 C 230.18 17.62 230.2 35.1 230.2 35.1 L 226.5 35.1 C 226.5 35.1 226.45 17.62 226.5 17.6 C 226.5 15.5 225.2 14.3 223.6 14.3 C 222 14.3 220.8 15.5 220.8 17.6 C 220.8 17.62 220.8 35.1 220.8 35.1 L 217.1 35.1 L 217.1 11.3 L 220.7 11.3 C 220.7 11.3 220.66 13.16 220.7 13.2 C 221 12.6 221.6 12 222.1 11.7 C 222.9 11.2 223.7 10.9 224.7 10.9 C 226.5 10.9 227.7 11.5 228.8 12.7 Z M 238.2 33.7 C 236.8 32.6 236.1 30.8 236.1 28.3 C 236.11 28.34 236.1 14.2 236.1 14.2 L 233.4 14.2 L 233.4 11.3 L 236.1 11.3 L 236.1 4.8 L 239.8 4.8 L 239.8 11.3 L 243.5 11.3 L 243.5 14.2 L 239.8 14.2 C 239.8 14.2 239.84 28.2 239.8 28.2 C 239.8 30.7 241.2 31.8 243.7 31.8 C 243.7 31.8 243.7 35.1 243.7 35.1 C 241.5 35.1 239.7 35 238.2 33.7 Z M 250 24.1 C 250 27.9 250.1 30.1 250.9 31.1 C 251.3 31.7 252.1 32.2 253 32.2 C 253.9 32.2 254.6 31.9 255.2 31.2 C 255.8 30.5 255.9 29.6 255.9 28.5 C 255.9 28.5 259.7 28.5 259.7 28.5 C 259.6 30.7 259.1 32.3 257.7 33.8 C 256.6 35 255 35.5 253 35.5 C 251 35.5 249.5 35 248.3 33.7 C 246.5 31.8 246.2 28.2 246.2 23.2 C 246.2 18.2 246.5 14.7 248.3 12.8 C 249.5 11.5 251 10.9 252.9 10.9 C 254.9 10.9 256.4 11.5 257.6 12.8 C 259.4 14.7 259.8 18.2 259.8 24.1 C 259.8 24.1 250 24.1 250 24.1 Z M 255.1 15.3 C 254.6 14.7 254 14.3 252.9 14.3 C 251.9 14.3 251.3 14.7 250.9 15.3 C 250.1 16.1 250 17.8 250 21.3 C 250 21.3 256 21.3 256 21.3 C 256 17.8 255.8 16.1 255.1 15.3 Z M 275.9 12.7 C 276.9 13.8 277.4 15 277.4 17.6 C 277.37 17.62 277.4 35.1 277.4 35.1 L 273.6 35.1 C 273.6 35.1 273.65 17.62 273.6 17.6 C 273.6 15.5 272.4 14.3 270.8 14.3 C 269.2 14.3 268 15.5 268 17.6 C 267.99 17.62 268 35.1 268 35.1 L 264.3 35.1 L 264.3 11.3 L 267.9 11.3 C 267.9 11.3 267.85 13.16 267.9 13.2 C 268.2 12.6 268.8 12 269.3 11.7 C 270.1 11.2 270.9 10.9 271.9 10.9 C 273.7 10.9 274.9 11.5 275.9 12.7 Z M 285.4 33.7 C 284 32.6 283.3 30.8 283.3 28.3 C 283.31 28.34 283.3 14.2 283.3 14.2 L 280.6 14.2 L 280.6 11.3 L 283.3 11.3 L 283.3 4.8 L 287 4.8 L 287 11.3 L 290.7 11.3 L 290.7 14.2 L 287 14.2 C 287 14.2 287.03 28.2 287 28.2 C 287 30.7 288.4 31.8 290.9 31.8 C 290.9 31.8 290.9 35.1 290.9 35.1 C 288.7 35.1 286.9 35 285.4 33.7 Z " stroke="none" fill="#f9a41a"/>  </g></svg>