<?xml version="1.0" standalone="no"?><!DOCTYPE svg PUBLIC "-//W3C//DTD SVG 1.1//EN" "http://www.w3.org/Graphics/SVG/1.1/DTD/svg11.dtd"><svg xmlns="http://www.w3.org/2000/svg" version="1.1" width="136px" height="32.7198486328125px" viewBox="0 0 136 32.7198486328125">  <desc>Policy placement</desc>  <defs/>  <g id="Polygon29155">    <path d="M 4.5 1 C 6.6 1 7.9 2 7.9 5.2 C 7.9 8.3 6.6 9.3 4.5 9.3 C 4.48 9.34 3 9.3 3 9.3 L 3 15.3 L 1.3 15.3 L 1.3 1 C 1.3 1 4.48 1.04 4.5 1 Z M 3 2.6 L 3 7.8 C 3 7.8 4.42 7.8 4.4 7.8 C 5.6 7.8 6.1 7.1 6.1 5.2 C 6.1 3.3 5.6 2.6 4.4 2.6 C 4.42 2.58 3 2.6 3 2.6 Z M 14.4 5.7 C 15 6.5 15.1 8 15.1 10.1 C 15.1 12.2 15 13.7 14.4 14.5 C 13.9 15.2 13.1 15.4 12.2 15.4 C 11.3 15.4 10.5 15.2 10 14.5 C 9.4 13.7 9.3 12.2 9.3 10.1 C 9.3 8 9.4 6.5 10 5.7 C 10.5 5 11.3 4.8 12.2 4.8 C 13.1 4.8 13.9 5 14.4 5.7 Z M 11.3 6.7 C 10.9 7.2 10.9 8.2 10.9 10.1 C 10.9 12 10.9 13 11.3 13.5 C 11.5 13.8 11.8 14 12.2 14 C 12.6 14 12.9 13.8 13.1 13.5 C 13.5 13 13.5 12 13.5 10.1 C 13.5 8.2 13.5 7.2 13.1 6.7 C 12.9 6.4 12.6 6.2 12.2 6.2 C 11.8 6.2 11.5 6.4 11.3 6.7 Z M 18.6 12.3 C 18.6 13.3 19.1 13.8 20.2 13.8 C 20.2 13.8 20.2 15.3 20.2 15.3 C 19.3 15.3 18.6 15.2 17.9 14.6 C 17.4 14.2 17 13.5 17 12.3 C 17.02 12.32 17 1 17 1 L 18.6 1 C 18.6 1 18.64 12.26 18.6 12.3 Z M 23.3 15.3 L 21.7 15.3 L 21.7 4.9 L 23.3 4.9 L 23.3 15.3 Z M 23.4 3.1 L 21.5 3.1 L 21.5 1.2 L 23.4 1.2 L 23.4 3.1 Z M 26 5.7 C 26.5 5 27.3 4.8 28.2 4.8 C 29 4.8 29.7 4.9 30.2 5.5 C 30.8 6.1 31 6.9 31 7.8 C 31 7.8 29.4 7.8 29.4 7.8 C 29.4 7.4 29.4 6.9 29.1 6.6 C 28.9 6.3 28.6 6.2 28.2 6.2 C 27.8 6.2 27.5 6.4 27.3 6.6 C 26.9 7.2 26.9 8.2 26.9 10.1 C 26.9 12 26.9 13 27.3 13.6 C 27.5 13.8 27.8 14 28.2 14 C 28.6 14 28.9 13.9 29.1 13.6 C 29.4 13.3 29.4 12.8 29.4 12.4 C 29.4 12.4 31 12.4 31 12.4 C 31 13.3 30.8 14.1 30.2 14.7 C 29.7 15.3 29 15.4 28.2 15.4 C 27.3 15.4 26.5 15.2 26 14.5 C 25.4 13.7 25.2 12.2 25.2 10.1 C 25.2 8 25.4 6.5 26 5.7 Z M 35.5 16.9 C 35 18.8 33.8 19.2 32 19.2 C 32 19.2 32 17.7 32 17.7 C 33 17.7 33.7 17.5 33.9 16.5 C 33.9 16.52 34.2 15.3 34.2 15.3 L 31.7 4.9 L 33.5 4.9 L 35.1 12.7 L 36.6 4.9 L 38.4 4.9 C 38.4 4.9 35.48 16.94 35.5 16.9 Z M 49.2 10.1 C 49.2 12.6 49.1 13.9 48.4 14.7 C 47.9 15.2 47.4 15.4 46.7 15.4 C 46.2 15.4 45.9 15.3 45.6 15.1 C 45.4 15 45.1 14.8 45 14.6 C 44.98 14.56 45 19.2 45 19.2 L 43.4 19.2 L 43.4 4.9 L 44.9 4.9 C 44.9 4.9 44.94 5.72 44.9 5.7 C 45.1 5.5 45.4 5.2 45.6 5.1 C 45.9 4.9 46.2 4.8 46.7 4.8 C 47.4 4.8 47.9 5 48.4 5.5 C 49.1 6.3 49.2 7.7 49.2 10.1 Z M 45 7.7 C 45 7.7 45 12.5 45 12.5 C 45 13 45.1 13.4 45.4 13.7 C 45.6 13.9 45.9 14 46.2 14 C 46.6 14 46.9 13.8 47.1 13.6 C 47.5 13.1 47.5 12.3 47.5 10.1 C 47.5 8 47.5 7.1 47.1 6.6 C 46.9 6.4 46.6 6.2 46.2 6.2 C 45.9 6.2 45.6 6.3 45.4 6.5 C 45.1 6.8 45 7.2 45 7.7 Z M 52.7 12.3 C 52.7 13.3 53.1 13.8 54.2 13.8 C 54.2 13.8 54.2 15.3 54.2 15.3 C 53.3 15.3 52.6 15.2 52 14.6 C 51.4 14.2 51 13.5 51 12.3 C 51.04 12.32 51 1 51 1 L 52.7 1 C 52.7 1 52.66 12.26 52.7 12.3 Z M 60.2 5.5 C 60.7 6 61 6.7 61 7.8 C 60.98 7.76 61 15.3 61 15.3 L 59.4 15.3 C 59.4 15.3 59.44 14.36 59.4 14.4 C 59.3 14.6 59 14.9 58.8 15.1 C 58.5 15.3 58.2 15.4 57.6 15.4 C 56.9 15.4 56.3 15.2 55.8 14.7 C 55.4 14.2 55.2 13.4 55.2 12.3 C 55.2 11.4 55.5 10.5 56.1 10 C 56.6 9.5 57.2 9.3 58.3 9.3 C 58.3 9.3 59.4 9.3 59.4 9.3 C 59.4 9.3 59.36 7.66 59.4 7.7 C 59.4 6.7 58.9 6.2 58.1 6.2 C 57.8 6.2 57.5 6.3 57.3 6.5 C 57.1 6.8 57 7.2 57 7.7 C 57 7.7 55.3 7.7 55.3 7.7 C 55.3 6.9 55.5 6.1 56.1 5.5 C 56.6 5.1 57.3 4.8 58.1 4.8 C 59 4.8 59.7 5 60.2 5.5 Z M 58.4 10.5 C 57.9 10.5 57.6 10.6 57.3 10.9 C 57 11.1 56.8 11.7 56.8 12.3 C 56.8 13.4 57.2 14 58.1 14 C 58.8 14 59.4 13.4 59.4 12.4 C 59.36 12.4 59.4 10.5 59.4 10.5 C 59.4 10.5 58.44 10.48 58.4 10.5 Z M 63.6 5.7 C 64.1 5 64.9 4.8 65.8 4.8 C 66.6 4.8 67.3 4.9 67.8 5.5 C 68.5 6.1 68.6 6.9 68.7 7.8 C 68.7 7.8 67 7.8 67 7.8 C 67 7.4 67 6.9 66.7 6.6 C 66.5 6.3 66.2 6.2 65.8 6.2 C 65.4 6.2 65.1 6.4 64.9 6.6 C 64.5 7.2 64.5 8.2 64.5 10.1 C 64.5 12 64.5 13 64.9 13.6 C 65.1 13.8 65.4 14 65.8 14 C 66.2 14 66.5 13.9 66.7 13.6 C 67 13.3 67 12.8 67 12.4 C 67 12.4 68.7 12.4 68.7 12.4 C 68.6 13.3 68.5 14.1 67.8 14.7 C 67.3 15.3 66.6 15.4 65.8 15.4 C 64.9 15.4 64.1 15.2 63.6 14.5 C 63 13.7 62.9 12.2 62.9 10.1 C 62.9 8 63 6.5 63.6 5.7 Z M 71.6 10.5 C 71.6 12.1 71.7 13.1 72 13.5 C 72.2 13.8 72.5 14 72.9 14 C 73.3 14 73.6 13.9 73.9 13.6 C 74.1 13.3 74.2 12.9 74.2 12.4 C 74.2 12.4 75.8 12.4 75.8 12.4 C 75.8 13.3 75.6 14.1 75 14.7 C 74.5 15.2 73.8 15.4 72.9 15.4 C 72.1 15.4 71.4 15.2 70.9 14.6 C 70.1 13.8 70 12.3 70 10.1 C 70 7.9 70.1 6.4 70.9 5.6 C 71.4 5 72.1 4.8 72.9 4.8 C 73.7 4.8 74.4 5 74.9 5.6 C 75.7 6.4 75.9 7.9 75.9 10.5 C 75.9 10.5 71.6 10.5 71.6 10.5 Z M 73.8 6.6 C 73.6 6.4 73.3 6.2 72.9 6.2 C 72.5 6.2 72.2 6.4 72 6.6 C 71.7 7 71.6 7.8 71.6 9.3 C 71.6 9.3 74.2 9.3 74.2 9.3 C 74.2 7.8 74.1 7 73.8 6.6 Z M 87 5.5 C 87.4 6 87.6 6.5 87.6 7.7 C 87.6 7.66 87.6 15.3 87.6 15.3 L 86 15.3 C 86 15.3 85.98 7.66 86 7.7 C 86 6.7 85.4 6.2 84.8 6.2 C 84.1 6.2 83.5 6.7 83.5 7.7 C 83.52 7.66 83.5 15.3 83.5 15.3 L 81.9 15.3 C 81.9 15.3 81.9 7.66 81.9 7.7 C 81.9 6.7 81.3 6.2 80.7 6.2 C 80 6.2 79.4 6.7 79.4 7.7 C 79.44 7.66 79.4 15.3 79.4 15.3 L 77.8 15.3 L 77.8 4.9 L 79.4 4.9 C 79.4 4.9 79.38 5.72 79.4 5.7 C 79.5 5.5 79.8 5.2 80 5.1 C 80.3 4.9 80.7 4.8 81.1 4.8 C 81.9 4.8 82.7 5.2 83.1 5.8 C 83.3 5.6 83.6 5.3 84 5.1 C 84.3 4.9 84.8 4.8 85.1 4.8 C 86 4.8 86.6 5 87 5.5 Z M 91.1 10.5 C 91.1 12.1 91.2 13.1 91.5 13.5 C 91.7 13.8 92 14 92.4 14 C 92.8 14 93.1 13.9 93.4 13.6 C 93.6 13.3 93.7 12.9 93.7 12.4 C 93.7 12.4 95.3 12.4 95.3 12.4 C 95.3 13.3 95.1 14.1 94.5 14.7 C 94 15.2 93.3 15.4 92.4 15.4 C 91.6 15.4 90.9 15.2 90.4 14.6 C 89.6 13.8 89.5 12.3 89.5 10.1 C 89.5 7.9 89.6 6.4 90.4 5.6 C 90.9 5 91.6 4.8 92.4 4.8 C 93.2 4.8 93.9 5 94.4 5.6 C 95.2 6.4 95.4 7.9 95.4 10.5 C 95.4 10.5 91.1 10.5 91.1 10.5 Z M 93.3 6.6 C 93.1 6.4 92.8 6.2 92.4 6.2 C 92 6.2 91.7 6.4 91.5 6.6 C 91.2 7 91.1 7.8 91.1 9.3 C 91.1 9.3 93.7 9.3 93.7 9.3 C 93.7 7.8 93.6 7 93.3 6.6 Z M 102.4 5.5 C 102.8 6 103 6.5 103 7.7 C 103.02 7.66 103 15.3 103 15.3 L 101.4 15.3 C 101.4 15.3 101.4 7.66 101.4 7.7 C 101.4 6.7 100.8 6.2 100.2 6.2 C 99.5 6.2 98.9 6.7 98.9 7.7 C 98.94 7.66 98.9 15.3 98.9 15.3 L 97.3 15.3 L 97.3 4.9 L 98.9 4.9 C 98.9 4.9 98.88 5.72 98.9 5.7 C 99 5.5 99.3 5.2 99.5 5.1 C 99.8 4.9 100.2 4.8 100.6 4.8 C 101.4 4.8 102 5 102.4 5.5 Z M 106.5 14.6 C 105.9 14.2 105.6 13.4 105.6 12.3 C 105.6 12.32 105.6 6.2 105.6 6.2 L 104.4 6.2 L 104.4 4.9 L 105.6 4.9 L 105.6 2.1 L 107.2 2.1 L 107.2 4.9 L 108.8 4.9 L 108.8 6.2 L 107.2 6.2 C 107.2 6.2 107.22 12.26 107.2 12.3 C 107.2 13.4 107.8 13.8 108.9 13.8 C 108.9 13.8 108.9 15.3 108.9 15.3 C 108 15.3 107.2 15.2 106.5 14.6 Z " stroke="none" fill="#840028"/>  </g></svg>