<?xml version="1.0" standalone="no"?><!DOCTYPE svg PUBLIC "-//W3C//DTD SVG 1.1//EN" "http://www.w3.org/Graphics/SVG/1.1/DTD/svg11.dtd"><svg xmlns="http://www.w3.org/2000/svg" version="1.1" width="1114px" height="137.079772949219px" viewBox="0 0 1114 137.079772949219">  <desc>There must be a valid connection to the state of solicitation. This can include a nexus to the state of solicitation,...</desc>  <defs/>  <g id="Polygon24459">    <path d="M 12.7 89.6 C 12.7 89.6 11.3 91 11.3 91 C 10.2 90.2 8.9 89.8 7.3 89.8 C 5.2 89.8 4 90.7 4 92.2 C 4 93.6 4.9 94.2 6.7 94.4 C 6.7 94.4 9 94.6 9 94.6 C 11.6 94.8 13.3 95.8 13.3 98.6 C 13.3 101.4 10.9 103.1 7.3 103.1 C 4.8 103.1 2.9 102.5 1.3 101 C 1.3 101 2.7 99.5 2.7 99.5 C 3.9 100.7 5.5 101.2 7.3 101.2 C 9.8 101.2 11.3 100.4 11.3 98.6 C 11.3 97.3 10.5 96.6 8.8 96.5 C 8.8 96.5 6.4 96.3 6.4 96.3 C 3.5 96 1.9 94.8 1.9 92.3 C 1.9 89.6 4.2 88 7.4 88 C 9.5 88 11.3 88.5 12.7 89.6 Z M 19.8 88.2 L 23 88.2 L 23 89.8 L 19.8 89.8 C 19.8 89.8 19.83 98.9 19.8 98.9 C 19.8 100.3 20.5 101.1 21.8 101.1 C 21.84 101.06 23 101.1 23 101.1 L 23 102.9 C 23 102.9 21.45 102.92 21.4 102.9 C 18.9 102.9 17.7 101.1 17.7 99 C 17.67 98.96 17.7 89.8 17.7 89.8 L 15.8 89.8 L 15.8 88.2 L 17.7 88.2 L 17.7 83.6 L 19.8 83.6 L 19.8 88.2 Z M 37.6 92.9 C 37.65 92.9 37.6 102.9 37.6 102.9 L 35.5 102.9 C 35.5 102.9 35.49 101.51 35.5 101.5 C 34.3 102.7 33.2 103.1 31.2 103.1 C 29.2 103.1 28.1 102.7 27.1 101.7 C 26.3 101 25.9 99.9 25.9 98.7 C 25.9 96.1 27.8 94.5 31.1 94.5 C 31.08 94.49 35.5 94.5 35.5 94.5 C 35.5 94.5 35.49 93.08 35.5 93.1 C 35.5 90.9 34.4 89.8 31.7 89.8 C 29.8 89.8 28.9 90.3 28 91.5 C 28 91.5 26.5 90.2 26.5 90.2 C 27.8 88.5 29.3 88 31.7 88 C 35.7 88 37.6 89.7 37.6 92.9 Z M 31.4 96.1 C 29.2 96.1 28 97 28 98.7 C 28 100.4 29.1 101.2 31.5 101.2 C 32.7 101.2 33.8 101.1 34.7 100.2 C 35.2 99.8 35.5 98.9 35.5 97.7 C 35.49 97.7 35.5 96.1 35.5 96.1 C 35.5 96.1 31.38 96.11 31.4 96.1 Z M 45.4 88.2 L 48.6 88.2 L 48.6 89.8 L 45.4 89.8 C 45.4 89.8 45.42 98.9 45.4 98.9 C 45.4 100.3 46 101.1 47.4 101.1 C 47.43 101.06 48.6 101.1 48.6 101.1 L 48.6 102.9 C 48.6 102.9 47.04 102.92 47 102.9 C 44.5 102.9 43.3 101.1 43.3 99 C 43.26 98.96 43.3 89.8 43.3 89.8 L 41.4 89.8 L 41.4 88.2 L 43.3 88.2 L 43.3 83.6 L 45.4 83.6 L 45.4 88.2 Z M 64 95.1 C 64.02 95.15 64 96.1 64 96.1 C 64 96.1 54.06 96.11 54.1 96.1 C 54.1 99.3 55.6 101.2 58.4 101.2 C 60.1 101.2 61.1 100.7 62.3 99.5 C 62.3 99.5 63.7 100.8 63.7 100.8 C 62.2 102.3 60.8 103.1 58.3 103.1 C 54.4 103.1 51.9 100.8 51.9 95.5 C 51.9 90.7 54.2 88 58 88 C 61.8 88 64 90.7 64 95.1 Z M 54.5 92 C 54.1 92.8 54.1 93.3 54.1 94.5 C 54.1 94.5 61.9 94.5 61.9 94.5 C 61.8 93.3 61.8 92.8 61.4 92 C 60.8 90.7 59.5 89.8 58 89.8 C 56.4 89.8 55.1 90.7 54.5 92 Z M 73.7 88.2 L 76 88.2 L 79.5 100 L 83.3 88.2 L 85.2 88.2 L 89 100 L 92.4 88.2 L 94.8 88.2 L 90.1 102.9 L 88.1 102.9 L 84.2 90.9 L 80.4 102.9 L 78.4 102.9 L 73.7 88.2 Z M 100 89.8 C 101 88.6 102.4 88 104.1 88 C 105.7 88 107 88.5 107.9 89.4 C 109 90.4 109.4 91.8 109.4 93.5 C 109.41 93.5 109.4 102.9 109.4 102.9 L 107.2 102.9 C 107.2 102.9 107.25 93.83 107.2 93.8 C 107.2 91.2 105.9 89.9 103.6 89.9 C 101.4 89.9 100 91.2 100 93.8 C 99.96 93.83 100 102.9 100 102.9 L 97.8 102.9 L 97.8 81.6 L 100 81.6 C 100 81.6 99.96 89.81 100 89.8 Z M 126 95.1 C 125.97 95.15 126 96.1 126 96.1 C 126 96.1 116.01 96.11 116 96.1 C 116 99.3 117.5 101.2 120.4 101.2 C 122.1 101.2 123.1 100.7 124.2 99.5 C 124.2 99.5 125.7 100.8 125.7 100.8 C 124.2 102.3 122.8 103.1 120.3 103.1 C 116.4 103.1 113.8 100.8 113.8 95.5 C 113.8 90.7 116.2 88 119.9 88 C 123.7 88 126 90.7 126 95.1 Z M 116.5 92 C 116.1 92.8 116.1 93.3 116 94.5 C 116 94.5 123.8 94.5 123.8 94.5 C 123.7 93.3 123.7 92.8 123.4 92 C 122.7 90.7 121.5 89.8 119.9 89.8 C 118.3 89.8 117.1 90.7 116.5 92 Z M 140.4 89.4 C 140.4 89.4 138.8 91 138.8 91 C 138 90.2 137.4 89.9 136.3 89.9 C 134.1 89.9 132.7 91.6 132.7 93.9 C 132.72 93.86 132.7 102.9 132.7 102.9 L 130.6 102.9 L 130.6 88.2 L 132.7 88.2 C 132.7 88.2 132.72 89.96 132.7 90 C 133.5 88.7 135.1 88 136.9 88 C 138.3 88 139.3 88.3 140.4 89.4 Z M 153.6 95.1 C 153.6 95.15 153.6 96.1 153.6 96.1 C 153.6 96.1 143.64 96.11 143.6 96.1 C 143.6 99.3 145.1 101.2 148 101.2 C 149.7 101.2 150.7 100.7 151.9 99.5 C 151.9 99.5 153.3 100.8 153.3 100.8 C 151.8 102.3 150.4 103.1 147.9 103.1 C 144 103.1 141.5 100.8 141.5 95.5 C 141.5 90.7 143.8 88 147.5 88 C 151.4 88 153.6 90.7 153.6 95.1 Z M 144.1 92 C 143.7 92.8 143.7 93.3 143.6 94.5 C 143.6 94.5 151.5 94.5 151.5 94.5 C 151.4 93.3 151.3 92.8 151 92 C 150.4 90.7 149.1 89.8 147.5 89.8 C 145.9 89.8 144.7 90.7 144.1 92 Z M 168.2 88.2 L 171.3 88.2 L 171.3 89.8 L 168.2 89.8 C 168.2 89.8 168.18 98.9 168.2 98.9 C 168.2 100.3 168.8 101.1 170.2 101.1 C 170.19 101.06 171.3 101.1 171.3 101.1 L 171.3 102.9 C 171.3 102.9 169.8 102.92 169.8 102.9 C 167.3 102.9 166 101.1 166 99 C 166.02 98.96 166 89.8 166 89.8 L 164.2 89.8 L 164.2 88.2 L 166 88.2 L 166 83.6 L 168.2 83.6 L 168.2 88.2 Z M 177.8 89.8 C 178.9 88.6 180.2 88 181.9 88 C 183.5 88 184.8 88.5 185.7 89.4 C 186.8 90.4 187.2 91.8 187.2 93.5 C 187.23 93.5 187.2 102.9 187.2 102.9 L 185.1 102.9 C 185.1 102.9 185.07 93.83 185.1 93.8 C 185.1 91.2 183.7 89.9 181.5 89.9 C 179.2 89.9 177.8 91.2 177.8 93.8 C 177.78 93.83 177.8 102.9 177.8 102.9 L 175.6 102.9 L 175.6 81.6 L 177.8 81.6 C 177.8 81.6 177.78 89.81 177.8 89.8 Z M 203.8 95.1 C 203.79 95.15 203.8 96.1 203.8 96.1 C 203.8 96.1 193.83 96.11 193.8 96.1 C 193.8 99.3 195.3 101.2 198.2 101.2 C 199.9 101.2 200.9 100.7 202 99.5 C 202 99.5 203.5 100.8 203.5 100.8 C 202 102.3 200.6 103.1 198.1 103.1 C 194.2 103.1 191.7 100.8 191.7 95.5 C 191.7 90.7 194 88 197.7 88 C 201.6 88 203.8 90.7 203.8 95.1 Z M 194.3 92 C 193.9 92.8 193.9 93.3 193.8 94.5 C 193.8 94.5 201.7 94.5 201.7 94.5 C 201.6 93.3 201.5 92.8 201.2 92 C 200.5 90.7 199.3 89.8 197.7 89.8 C 196.1 89.8 194.9 90.7 194.3 92 Z M 218.4 88.2 L 221.5 88.2 L 221.5 89.8 L 218.4 89.8 C 218.4 89.8 218.37 98.9 218.4 98.9 C 218.4 100.3 219 101.1 220.4 101.1 C 220.38 101.06 221.5 101.1 221.5 101.1 L 221.5 102.9 C 221.5 102.9 219.99 102.92 220 102.9 C 217.5 102.9 216.2 101.1 216.2 99 C 216.21 98.96 216.2 89.8 216.2 89.8 L 214.3 89.8 L 214.3 88.2 L 216.2 88.2 L 216.2 83.6 L 218.4 83.6 L 218.4 88.2 Z M 235.6 89.4 C 235.6 89.4 234.1 91 234.1 91 C 233.2 90.2 232.6 89.9 231.5 89.9 C 229.3 89.9 228 91.6 228 93.9 C 227.97 93.86 228 102.9 228 102.9 L 225.8 102.9 L 225.8 88.2 L 228 88.2 C 228 88.2 227.97 89.96 228 90 C 228.8 88.7 230.4 88 232.1 88 C 233.5 88 234.6 88.3 235.6 89.4 Z M 249.9 102.9 L 247.8 102.9 C 247.8 102.9 247.8 101.27 247.8 101.3 C 246.7 102.5 245.3 103.1 243.6 103.1 C 242 103.1 240.7 102.6 239.8 101.7 C 238.8 100.7 238.3 99.3 238.3 97.6 C 238.29 97.58 238.3 88.2 238.3 88.2 L 240.4 88.2 C 240.4 88.2 240.45 97.25 240.4 97.2 C 240.4 99.9 241.9 101.2 244.1 101.2 C 246.3 101.2 247.8 99.8 247.8 97.2 C 247.77 97.25 247.8 88.2 247.8 88.2 L 249.9 88.2 L 249.9 102.9 Z M 265.3 89.6 C 265.3 89.6 263.9 91 263.9 91 C 262.9 90.2 261.5 89.8 260 89.8 C 257.8 89.8 256.7 90.7 256.7 92.2 C 256.7 93.6 257.5 94.2 259.3 94.4 C 259.3 94.4 261.6 94.6 261.6 94.6 C 264.2 94.8 266 95.8 266 98.6 C 266 101.4 263.6 103.1 260 103.1 C 257.5 103.1 255.5 102.5 253.9 101 C 253.9 101 255.4 99.5 255.4 99.5 C 256.5 100.7 258.1 101.2 259.9 101.2 C 262.4 101.2 263.9 100.4 263.9 98.6 C 263.9 97.3 263.2 96.6 261.4 96.5 C 261.4 96.5 259 96.3 259 96.3 C 256.1 96 254.6 94.8 254.6 92.3 C 254.6 89.6 256.8 88 260 88 C 262.1 88 264 88.5 265.3 89.6 Z M 272.5 88.2 L 275.6 88.2 L 275.6 89.8 L 272.5 89.8 C 272.5 89.8 272.46 98.9 272.5 98.9 C 272.5 100.3 273.1 101.1 274.5 101.1 C 274.47 101.06 275.6 101.1 275.6 101.1 L 275.6 102.9 C 275.6 102.9 274.08 102.92 274.1 102.9 C 271.6 102.9 270.3 101.1 270.3 99 C 270.3 98.96 270.3 89.8 270.3 89.8 L 268.4 89.8 L 268.4 88.2 L 270.3 88.2 L 270.3 83.6 L 272.5 83.6 L 272.5 88.2 Z M 291.1 95.1 C 291.06 95.15 291.1 96.1 291.1 96.1 C 291.1 96.1 281.1 96.11 281.1 96.1 C 281.1 99.3 282.6 101.2 285.4 101.2 C 287.2 101.2 288.1 100.7 289.3 99.5 C 289.3 99.5 290.8 100.8 290.8 100.8 C 289.3 102.3 287.9 103.1 285.4 103.1 C 281.5 103.1 278.9 100.8 278.9 95.5 C 278.9 90.7 281.2 88 285 88 C 288.8 88 291.1 90.7 291.1 95.1 Z M 281.5 92 C 281.2 92.8 281.2 93.3 281.1 94.5 C 281.1 94.5 288.9 94.5 288.9 94.5 C 288.8 93.3 288.8 92.8 288.4 92 C 287.8 90.7 286.6 89.8 285 89.8 C 283.4 89.8 282.2 90.7 281.5 92 Z M 307 95.1 C 306.96 95.15 307 96.1 307 96.1 C 307 96.1 297 96.11 297 96.1 C 297 99.3 298.5 101.2 301.3 101.2 C 303.1 101.2 304 100.7 305.2 99.5 C 305.2 99.5 306.7 100.8 306.7 100.8 C 305.2 102.3 303.8 103.1 301.3 103.1 C 297.4 103.1 294.8 100.8 294.8 95.5 C 294.8 90.7 297.1 88 300.9 88 C 304.7 88 307 90.7 307 95.1 Z M 297.4 92 C 297.1 92.8 297.1 93.3 297 94.5 C 297 94.5 304.8 94.5 304.8 94.5 C 304.7 93.3 304.7 92.8 304.3 92 C 303.7 90.7 302.5 89.8 300.9 89.8 C 299.3 89.8 298.1 90.7 297.4 92 Z M 321.1 98.9 C 321.1 100.3 321.6 101.1 323.1 101.1 C 323.1 101.06 324.3 101.1 324.3 101.1 L 324.3 102.9 C 324.3 102.9 322.71 102.92 322.7 102.9 C 320.1 102.9 319 101.2 319 99 C 318.96 98.99 319 81.6 319 81.6 L 321.1 81.6 C 321.1 81.6 321.12 98.9 321.1 98.9 Z M 330.1 102.9 L 327.9 102.9 L 327.9 88.2 L 330.1 88.2 L 330.1 102.9 Z M 330.2 84 L 327.8 84 L 327.8 81.5 L 330.2 81.5 L 330.2 84 Z M 333.1 88.2 L 335.5 88.2 L 339.5 100 L 343.6 88.2 L 345.9 88.2 L 340.5 102.9 L 338.5 102.9 L 333.1 88.2 Z M 359.9 95.1 C 359.94 95.15 359.9 96.1 359.9 96.1 C 359.9 96.1 349.98 96.11 350 96.1 C 350 99.3 351.5 101.2 354.3 101.2 C 356 101.2 357 100.7 358.2 99.5 C 358.2 99.5 359.7 100.8 359.7 100.8 C 358.2 102.3 356.8 103.1 354.3 103.1 C 350.3 103.1 347.8 100.8 347.8 95.5 C 347.8 90.7 350.1 88 353.9 88 C 357.7 88 359.9 90.7 359.9 95.1 Z M 350.4 92 C 350.1 92.8 350 93.3 350 94.5 C 350 94.5 357.8 94.5 357.8 94.5 C 357.7 93.3 357.7 92.8 357.3 92 C 356.7 90.7 355.5 89.8 353.9 89.8 C 352.3 89.8 351.1 90.7 350.4 92 Z M 374.5 89.6 C 374.5 89.6 373.1 91 373.1 91 C 372.1 90.2 370.7 89.8 369.2 89.8 C 367 89.8 365.9 90.7 365.9 92.2 C 365.9 93.6 366.7 94.2 368.5 94.4 C 368.5 94.4 370.8 94.6 370.8 94.6 C 373.4 94.8 375.2 95.8 375.2 98.6 C 375.2 101.4 372.8 103.1 369.2 103.1 C 366.7 103.1 364.7 102.5 363.1 101 C 363.1 101 364.6 99.5 364.6 99.5 C 365.7 100.7 367.3 101.2 369.1 101.2 C 371.6 101.2 373.1 100.4 373.1 98.6 C 373.1 97.3 372.4 96.6 370.6 96.5 C 370.6 96.5 368.2 96.3 368.2 96.3 C 365.3 96 363.8 94.8 363.8 92.3 C 363.8 89.6 366 88 369.2 88 C 371.3 88 373.2 88.5 374.5 89.6 Z M 396.4 89.7 C 397.9 91.2 398.2 93.3 398.2 95.5 C 398.2 97.8 397.9 99.9 396.4 101.4 C 395.3 102.5 393.9 103.1 392.1 103.1 C 390.3 103.1 388.9 102.5 387.9 101.4 C 386.4 99.9 386.1 97.8 386.1 95.5 C 386.1 93.3 386.4 91.2 387.9 89.7 C 388.9 88.6 390.3 88 392.1 88 C 393.9 88 395.3 88.6 396.4 89.7 Z M 389.5 91 C 388.4 92.1 388.3 93.9 388.3 95.5 C 388.3 97.2 388.3 99 389.5 100.1 C 390.2 100.8 391.1 101.2 392.1 101.2 C 393.2 101.2 394.1 100.8 394.8 100.1 C 395.9 99 396 97.2 396 95.5 C 396 93.9 395.9 92.1 394.8 91 C 394.1 90.3 393.2 89.9 392.1 89.9 C 391.1 89.9 390.2 90.3 389.5 91 Z M 412.6 89.4 C 412.6 89.4 411 91 411 91 C 410.2 90.2 409.6 89.9 408.5 89.9 C 406.3 89.9 404.9 91.6 404.9 93.9 C 404.93 93.86 404.9 102.9 404.9 102.9 L 402.8 102.9 L 402.8 88.2 L 404.9 88.2 C 404.9 88.2 404.93 89.96 404.9 90 C 405.7 88.7 407.4 88 409.1 88 C 410.5 88 411.6 88.3 412.6 89.4 Z M 420.5 88.2 L 422.8 88.2 L 426.3 100 L 430.1 88.2 L 432 88.2 L 435.8 100 L 439.2 88.2 L 441.6 88.2 L 436.9 102.9 L 434.9 102.9 L 431 90.9 L 427.2 102.9 L 425.2 102.9 L 420.5 88.2 Z M 453.9 89.7 C 455.4 91.2 455.7 93.3 455.7 95.5 C 455.7 97.8 455.4 99.9 453.9 101.4 C 452.9 102.5 451.5 103.1 449.7 103.1 C 447.9 103.1 446.5 102.5 445.5 101.4 C 444 99.9 443.7 97.8 443.7 95.5 C 443.7 93.3 444 91.2 445.5 89.7 C 446.5 88.6 447.9 88 449.7 88 C 451.5 88 452.9 88.6 453.9 89.7 Z M 447 91 C 445.9 92.1 445.8 93.9 445.8 95.5 C 445.8 97.2 445.9 99 447 100.1 C 447.7 100.8 448.6 101.2 449.7 101.2 C 450.7 101.2 451.7 100.8 452.4 100.1 C 453.5 99 453.6 97.2 453.6 95.5 C 453.6 93.9 453.5 92.1 452.4 91 C 451.7 90.3 450.7 89.9 449.7 89.9 C 448.6 89.9 447.7 90.3 447 91 Z M 470.2 89.4 C 470.2 89.4 468.6 91 468.6 91 C 467.8 90.2 467.2 89.9 466 89.9 C 463.9 89.9 462.5 91.6 462.5 93.9 C 462.5 93.86 462.5 102.9 462.5 102.9 L 460.3 102.9 L 460.3 88.2 L 462.5 88.2 C 462.5 88.2 462.5 89.96 462.5 90 C 463.3 88.7 464.9 88 466.6 88 C 468.1 88 469.1 88.3 470.2 89.4 Z M 475.1 95.8 L 481.8 88.2 L 484.5 88.2 L 479.5 93.8 L 485.4 102.9 L 482.7 102.9 L 478 95.4 L 475.1 98.7 L 475.1 102.9 L 473 102.9 L 473 81.6 L 475.1 81.6 L 475.1 95.8 Z M 498.5 89.6 C 498.5 89.6 497.1 91 497.1 91 C 496.1 90.2 494.7 89.8 493.2 89.8 C 491 89.8 489.9 90.7 489.9 92.2 C 489.9 93.6 490.7 94.2 492.5 94.4 C 492.5 94.4 494.8 94.6 494.8 94.6 C 497.4 94.8 499.2 95.8 499.2 98.6 C 499.2 101.4 496.8 103.1 493.2 103.1 C 490.7 103.1 488.7 102.5 487.1 101 C 487.1 101 488.6 99.5 488.6 99.5 C 489.7 100.7 491.3 101.2 493.2 101.2 C 495.6 101.2 497.1 100.4 497.1 98.6 C 497.1 97.3 496.4 96.6 494.6 96.5 C 494.6 96.5 492.2 96.3 492.2 96.3 C 489.3 96 487.8 94.8 487.8 92.3 C 487.8 89.6 490 88 493.2 88 C 495.4 88 497.2 88.5 498.5 89.6 Z M 506 104.9 L 503.4 107.2 L 503.4 100.3 L 506 100.3 L 506 104.9 Z M 521 102.9 L 518.8 102.9 L 518.8 88.2 L 521 88.2 L 521 102.9 Z M 521.1 84 L 518.7 84 L 518.7 81.5 L 521.1 81.5 L 521.1 84 Z M 532.2 83.4 C 532.2 83.4 531.02 83.39 531 83.4 C 529.6 83.4 529 84.2 529 85.5 C 529.04 85.55 529 88.2 529 88.2 L 532.2 88.2 L 532.2 89.8 L 529 89.8 L 529 102.9 L 526.9 102.9 L 526.9 89.8 L 525 89.8 L 525 88.2 L 526.9 88.2 C 526.9 88.2 526.88 85.49 526.9 85.5 C 526.9 83.3 528.1 81.5 530.6 81.5 C 530.63 81.53 532.2 81.5 532.2 81.5 L 532.2 83.4 Z M 545.8 88.2 L 549 88.2 L 549 89.8 L 545.8 89.8 C 545.8 89.8 545.81 98.9 545.8 98.9 C 545.8 100.3 546.4 101.1 547.8 101.1 C 547.82 101.06 549 101.1 549 101.1 L 549 102.9 C 549 102.9 547.43 102.92 547.4 102.9 C 544.9 102.9 543.7 101.1 543.7 99 C 543.65 98.96 543.7 89.8 543.7 89.8 L 541.8 89.8 L 541.8 88.2 L 543.7 88.2 L 543.7 83.6 L 545.8 83.6 L 545.8 88.2 Z M 563.1 89.4 C 563.1 89.4 561.5 91 561.5 91 C 560.7 90.2 560.1 89.9 559 89.9 C 556.8 89.9 555.4 91.6 555.4 93.9 C 555.41 93.86 555.4 102.9 555.4 102.9 L 553.3 102.9 L 553.3 88.2 L 555.4 88.2 C 555.4 88.2 555.41 89.96 555.4 90 C 556.2 88.7 557.8 88 559.6 88 C 561 88 562 88.3 563.1 89.4 Z M 577.4 102.9 L 575.2 102.9 C 575.2 102.9 575.24 101.27 575.2 101.3 C 574.2 102.5 572.7 103.1 571.1 103.1 C 569.5 103.1 568.2 102.6 567.3 101.7 C 566.2 100.7 565.7 99.3 565.7 97.6 C 565.73 97.58 565.7 88.2 565.7 88.2 L 567.9 88.2 C 567.9 88.2 567.89 97.25 567.9 97.2 C 567.9 99.9 569.3 101.2 571.5 101.2 C 573.7 101.2 575.2 99.8 575.2 97.2 C 575.21 97.25 575.2 88.2 575.2 88.2 L 577.4 88.2 L 577.4 102.9 Z M 592.8 89.6 C 592.8 89.6 591.4 91 591.4 91 C 590.3 90.2 589 89.8 587.4 89.8 C 585.3 89.8 584.1 90.7 584.1 92.2 C 584.1 93.6 584.9 94.2 586.8 94.4 C 586.8 94.4 589.1 94.6 589.1 94.6 C 591.7 94.8 593.4 95.8 593.4 98.6 C 593.4 101.4 591 103.1 587.4 103.1 C 584.9 103.1 583 102.5 581.4 101 C 581.4 101 582.8 99.5 582.8 99.5 C 583.9 100.7 585.6 101.2 587.4 101.2 C 589.9 101.2 591.3 100.4 591.3 98.6 C 591.3 97.3 590.6 96.6 588.9 96.5 C 588.9 96.5 586.4 96.3 586.4 96.3 C 583.6 96 582 94.8 582 92.3 C 582 89.6 584.3 88 587.5 88 C 589.6 88 591.4 88.5 592.8 89.6 Z M 599.9 88.2 L 603.1 88.2 L 603.1 89.8 L 599.9 89.8 C 599.9 89.8 599.9 98.9 599.9 98.9 C 599.9 100.3 600.5 101.1 601.9 101.1 C 601.91 101.06 603.1 101.1 603.1 101.1 L 603.1 102.9 C 603.1 102.9 601.52 102.92 601.5 102.9 C 599 102.9 597.7 101.1 597.7 99 C 597.74 98.96 597.7 89.8 597.7 89.8 L 595.9 89.8 L 595.9 88.2 L 597.7 88.2 L 597.7 83.6 L 599.9 83.6 L 599.9 88.2 Z M 615.1 95.8 L 606.9 95.8 L 606.9 93.8 L 615.1 93.8 L 615.1 95.8 Z M 629.6 89.7 C 631.1 91.2 631.4 93.3 631.4 95.5 C 631.4 97.8 631.1 99.9 629.6 101.4 C 628.6 102.5 627.2 103.1 625.4 103.1 C 623.6 103.1 622.2 102.5 621.1 101.4 C 619.6 99.9 619.3 97.8 619.3 95.5 C 619.3 93.3 619.6 91.2 621.1 89.7 C 622.2 88.6 623.6 88 625.4 88 C 627.2 88 628.6 88.6 629.6 89.7 Z M 622.7 91 C 621.6 92.1 621.5 93.9 621.5 95.5 C 621.5 97.2 621.6 99 622.7 100.1 C 623.4 100.8 624.3 101.2 625.4 101.2 C 626.4 101.2 627.4 100.8 628.1 100.1 C 629.2 99 629.2 97.2 629.2 95.5 C 629.2 93.9 629.2 92.1 628.1 91 C 627.4 90.3 626.4 89.9 625.4 89.9 C 624.3 89.9 623.4 90.3 622.7 91 Z M 633.5 88.2 L 635.8 88.2 L 639.3 100 L 643.1 88.2 L 645 88.2 L 648.8 100 L 652.2 88.2 L 654.6 88.2 L 649.9 102.9 L 647.9 102.9 L 644 90.9 L 640.2 102.9 L 638.2 102.9 L 633.5 88.2 Z M 667.7 89.4 C 668.8 90.4 669.2 91.8 669.2 93.5 C 669.23 93.5 669.2 102.9 669.2 102.9 L 667.1 102.9 C 667.1 102.9 667.07 93.83 667.1 93.8 C 667.1 91.2 665.7 89.9 663.4 89.9 C 661.2 89.9 659.8 91.2 659.8 93.8 C 659.75 93.83 659.8 102.9 659.8 102.9 L 657.6 102.9 L 657.6 88.2 L 659.7 88.2 C 659.7 88.2 659.72 89.81 659.7 89.8 C 660.8 88.6 662.2 88 663.9 88 C 665.5 88 666.8 88.5 667.7 89.4 Z M 685.8 95.1 C 685.79 95.15 685.8 96.1 685.8 96.1 C 685.8 96.1 675.83 96.11 675.8 96.1 C 675.8 99.3 677.3 101.2 680.2 101.2 C 681.9 101.2 682.9 100.7 684.1 99.5 C 684.1 99.5 685.5 100.8 685.5 100.8 C 684 102.3 682.6 103.1 680.1 103.1 C 676.2 103.1 673.7 100.8 673.7 95.5 C 673.7 90.7 676 88 679.7 88 C 683.6 88 685.8 90.7 685.8 95.1 Z M 676.3 92 C 675.9 92.8 675.9 93.3 675.8 94.5 C 675.8 94.5 683.7 94.5 683.7 94.5 C 683.6 93.3 683.5 92.8 683.2 92 C 682.6 90.7 681.3 89.8 679.7 89.8 C 678.1 89.8 676.9 90.7 676.3 92 Z M 701.3 102.9 L 699.2 102.9 C 699.2 102.9 699.17 101.18 699.2 101.2 C 697.9 102.7 696.7 103.1 695 103.1 C 693.5 103.1 692.2 102.6 691.4 101.8 C 689.9 100.3 689.6 97.9 689.6 95.5 C 689.6 93.2 689.9 90.8 691.4 89.3 C 692.2 88.5 693.5 88 695 88 C 696.6 88 697.9 88.4 699.2 89.9 C 699.17 89.9 699.2 81.6 699.2 81.6 L 701.3 81.6 L 701.3 102.9 Z M 691.8 95.5 C 691.8 98.4 692.2 101.2 695.5 101.2 C 698.7 101.2 699.2 98.4 699.2 95.5 C 699.2 92.7 698.7 89.9 695.5 89.9 C 692.2 89.9 691.8 92.7 691.8 95.5 Z M 709.5 102.9 L 706.7 102.9 L 706.7 100.1 L 709.5 100.1 L 709.5 102.9 Z " stroke="none" fill="#000"/>  </g>  <g id="Polygon24458">    <path d="M 12.8 49.4 C 13.9 50.4 14.3 51.8 14.3 53.5 C 14.34 53.5 14.3 62.9 14.3 62.9 L 12.2 62.9 C 12.2 62.9 12.18 53.83 12.2 53.8 C 12.2 51.2 10.8 49.9 8.6 49.9 C 6.3 49.9 4.9 51.2 4.9 53.8 C 4.86 53.83 4.9 62.9 4.9 62.9 L 2.7 62.9 L 2.7 48.2 L 4.8 48.2 C 4.8 48.2 4.83 49.81 4.8 49.8 C 5.9 48.6 7.3 48 9 48 C 10.6 48 11.9 48.5 12.8 49.4 Z M 30.9 55.1 C 30.9 55.15 30.9 56.1 30.9 56.1 C 30.9 56.1 20.94 56.11 20.9 56.1 C 20.9 59.3 22.4 61.2 25.3 61.2 C 27 61.2 28 60.7 29.2 59.5 C 29.2 59.5 30.6 60.8 30.6 60.8 C 29.1 62.3 27.7 63.1 25.2 63.1 C 21.3 63.1 18.8 60.8 18.8 55.5 C 18.8 50.7 21.1 48 24.8 48 C 28.7 48 30.9 50.7 30.9 55.1 Z M 21.4 52 C 21 52.8 21 53.3 20.9 54.5 C 20.9 54.5 28.8 54.5 28.8 54.5 C 28.7 53.3 28.6 52.8 28.3 52 C 27.7 50.7 26.4 49.8 24.8 49.8 C 23.2 49.8 22 50.7 21.4 52 Z M 40.5 55.4 L 45.5 62.9 L 42.9 62.9 L 39.4 57.2 L 35.8 62.9 L 33.2 62.9 L 38.2 55.4 L 33.4 48.2 L 36 48.2 L 39.4 53.6 L 42.7 48.2 L 45.3 48.2 L 40.5 55.4 Z M 60.3 62.9 L 58.2 62.9 C 58.2 62.9 58.2 61.27 58.2 61.3 C 57.2 62.5 55.7 63.1 54 63.1 C 52.4 63.1 51.1 62.6 50.2 61.7 C 49.2 60.7 48.7 59.3 48.7 57.6 C 48.69 57.58 48.7 48.2 48.7 48.2 L 50.9 48.2 C 50.9 48.2 50.85 57.25 50.9 57.2 C 50.9 59.9 52.3 61.2 54.5 61.2 C 56.7 61.2 58.2 59.8 58.2 57.2 C 58.17 57.25 58.2 48.2 58.2 48.2 L 60.3 48.2 L 60.3 62.9 Z M 75.7 49.6 C 75.7 49.6 74.3 51 74.3 51 C 73.3 50.2 71.9 49.8 70.4 49.8 C 68.2 49.8 67.1 50.7 67.1 52.2 C 67.1 53.6 67.9 54.2 69.7 54.4 C 69.7 54.4 72 54.6 72 54.6 C 74.6 54.8 76.4 55.8 76.4 58.6 C 76.4 61.4 74 63.1 70.4 63.1 C 67.9 63.1 65.9 62.5 64.3 61 C 64.3 61 65.8 59.5 65.8 59.5 C 66.9 60.7 68.5 61.2 70.3 61.2 C 72.8 61.2 74.3 60.4 74.3 58.6 C 74.3 57.3 73.6 56.6 71.8 56.5 C 71.8 56.5 69.4 56.3 69.4 56.3 C 66.5 56 65 54.8 65 52.3 C 65 49.6 67.2 48 70.4 48 C 72.5 48 74.4 48.5 75.7 49.6 Z M 90.6 48.2 L 93.7 48.2 L 93.7 49.8 L 90.6 49.8 C 90.6 49.8 90.6 58.9 90.6 58.9 C 90.6 60.3 91.2 61.1 92.6 61.1 C 92.61 61.06 93.7 61.1 93.7 61.1 L 93.7 62.9 C 93.7 62.9 92.22 62.92 92.2 62.9 C 89.7 62.9 88.4 61.1 88.4 59 C 88.44 58.96 88.4 49.8 88.4 49.8 L 86.6 49.8 L 86.6 48.2 L 88.4 48.2 L 88.4 43.6 L 90.6 43.6 L 90.6 48.2 Z M 107.4 49.7 C 108.9 51.2 109.2 53.3 109.2 55.5 C 109.2 57.8 108.9 59.9 107.4 61.4 C 106.3 62.5 104.9 63.1 103.1 63.1 C 101.3 63.1 99.9 62.5 98.9 61.4 C 97.4 59.9 97.1 57.8 97.1 55.5 C 97.1 53.3 97.4 51.2 98.9 49.7 C 99.9 48.6 101.3 48 103.1 48 C 104.9 48 106.3 48.6 107.4 49.7 Z M 100.5 51 C 99.4 52.1 99.3 53.9 99.3 55.5 C 99.3 57.2 99.4 59 100.5 60.1 C 101.2 60.8 102.1 61.2 103.1 61.2 C 104.2 61.2 105.1 60.8 105.8 60.1 C 106.9 59 107 57.2 107 55.5 C 107 53.9 106.9 52.1 105.8 51 C 105.1 50.3 104.2 49.9 103.1 49.9 C 102.1 49.9 101.2 50.3 100.5 51 Z M 123.8 48.2 L 126.9 48.2 L 126.9 49.8 L 123.8 49.8 C 123.8 49.8 123.78 58.9 123.8 58.9 C 123.8 60.3 124.4 61.1 125.8 61.1 C 125.79 61.06 126.9 61.1 126.9 61.1 L 126.9 62.9 C 126.9 62.9 125.4 62.92 125.4 62.9 C 122.9 62.9 121.6 61.1 121.6 59 C 121.62 58.96 121.6 49.8 121.6 49.8 L 119.8 49.8 L 119.8 48.2 L 121.6 48.2 L 121.6 43.6 L 123.8 43.6 L 123.8 48.2 Z M 133.4 49.8 C 134.5 48.6 135.8 48 137.5 48 C 139.1 48 140.4 48.5 141.3 49.4 C 142.4 50.4 142.8 51.8 142.8 53.5 C 142.83 53.5 142.8 62.9 142.8 62.9 L 140.7 62.9 C 140.7 62.9 140.67 53.83 140.7 53.8 C 140.7 51.2 139.3 49.9 137.1 49.9 C 134.8 49.9 133.4 51.2 133.4 53.8 C 133.38 53.83 133.4 62.9 133.4 62.9 L 131.2 62.9 L 131.2 41.6 L 133.4 41.6 C 133.4 41.6 133.38 49.81 133.4 49.8 Z M 159.4 55.1 C 159.39 55.15 159.4 56.1 159.4 56.1 C 159.4 56.1 149.43 56.11 149.4 56.1 C 149.4 59.3 150.9 61.2 153.8 61.2 C 155.5 61.2 156.5 60.7 157.6 59.5 C 157.6 59.5 159.1 60.8 159.1 60.8 C 157.6 62.3 156.2 63.1 153.7 63.1 C 149.8 63.1 147.3 60.8 147.3 55.5 C 147.3 50.7 149.6 48 153.3 48 C 157.2 48 159.4 50.7 159.4 55.1 Z M 149.9 52 C 149.5 52.8 149.5 53.3 149.4 54.5 C 149.4 54.5 157.3 54.5 157.3 54.5 C 157.2 53.3 157.1 52.8 156.8 52 C 156.1 50.7 154.9 49.8 153.3 49.8 C 151.7 49.8 150.5 50.7 149.9 52 Z M 181.4 49.6 C 181.4 49.6 180 51 180 51 C 179 50.2 177.6 49.8 176.1 49.8 C 173.9 49.8 172.8 50.7 172.8 52.2 C 172.8 53.6 173.6 54.2 175.4 54.4 C 175.4 54.4 177.7 54.6 177.7 54.6 C 180.3 54.8 182.1 55.8 182.1 58.6 C 182.1 61.4 179.7 63.1 176.1 63.1 C 173.6 63.1 171.6 62.5 170 61 C 170 61 171.5 59.5 171.5 59.5 C 172.6 60.7 174.2 61.2 176.1 61.2 C 178.5 61.2 180 60.4 180 58.6 C 180 57.3 179.3 56.6 177.5 56.5 C 177.5 56.5 175.1 56.3 175.1 56.3 C 172.2 56 170.7 54.8 170.7 52.3 C 170.7 49.6 172.9 48 176.1 48 C 178.3 48 180.1 48.5 181.4 49.6 Z M 188.6 48.2 L 191.7 48.2 L 191.7 49.8 L 188.6 49.8 C 188.6 49.8 188.58 58.9 188.6 58.9 C 188.6 60.3 189.2 61.1 190.6 61.1 C 190.59 61.06 191.7 61.1 191.7 61.1 L 191.7 62.9 C 191.7 62.9 190.2 62.92 190.2 62.9 C 187.7 62.9 186.4 61.1 186.4 59 C 186.42 58.96 186.4 49.8 186.4 49.8 L 184.6 49.8 L 184.6 48.2 L 186.4 48.2 L 186.4 43.6 L 188.6 43.6 L 188.6 48.2 Z M 206.4 52.9 C 206.4 52.9 206.4 62.9 206.4 62.9 L 204.2 62.9 C 204.2 62.9 204.24 61.51 204.2 61.5 C 203.1 62.7 202 63.1 200 63.1 C 197.9 63.1 196.8 62.7 195.8 61.7 C 195.1 61 194.7 59.9 194.7 58.7 C 194.7 56.1 196.5 54.5 199.8 54.5 C 199.83 54.49 204.2 54.5 204.2 54.5 C 204.2 54.5 204.24 53.08 204.2 53.1 C 204.2 50.9 203.2 49.8 200.5 49.8 C 198.6 49.8 197.6 50.3 196.7 51.5 C 196.7 51.5 195.3 50.2 195.3 50.2 C 196.6 48.5 198.1 48 200.5 48 C 204.5 48 206.4 49.7 206.4 52.9 Z M 200.1 56.1 C 197.9 56.1 196.8 57 196.8 58.7 C 196.8 60.4 197.8 61.2 200.2 61.2 C 201.4 61.2 202.5 61.1 203.5 60.2 C 204 59.8 204.2 58.9 204.2 57.7 C 204.24 57.7 204.2 56.1 204.2 56.1 C 204.2 56.1 200.13 56.11 200.1 56.1 Z M 214.2 48.2 L 217.3 48.2 L 217.3 49.8 L 214.2 49.8 C 214.2 49.8 214.17 58.9 214.2 58.9 C 214.2 60.3 214.8 61.1 216.2 61.1 C 216.18 61.06 217.3 61.1 217.3 61.1 L 217.3 62.9 C 217.3 62.9 215.79 62.92 215.8 62.9 C 213.3 62.9 212 61.1 212 59 C 212.01 58.96 212 49.8 212 49.8 L 210.1 49.8 L 210.1 48.2 L 212 48.2 L 212 43.6 L 214.2 43.6 L 214.2 48.2 Z M 232.8 55.1 C 232.77 55.15 232.8 56.1 232.8 56.1 C 232.8 56.1 222.81 56.11 222.8 56.1 C 222.8 59.3 224.3 61.2 227.2 61.2 C 228.9 61.2 229.9 60.7 231 59.5 C 231 59.5 232.5 60.8 232.5 60.8 C 231 62.3 229.6 63.1 227.1 63.1 C 223.2 63.1 220.6 60.8 220.6 55.5 C 220.6 50.7 223 48 226.7 48 C 230.5 48 232.8 50.7 232.8 55.1 Z M 223.3 52 C 222.9 52.8 222.9 53.3 222.8 54.5 C 222.8 54.5 230.6 54.5 230.6 54.5 C 230.5 53.3 230.5 52.8 230.2 52 C 229.5 50.7 228.3 49.8 226.7 49.8 C 225.1 49.8 223.9 50.7 223.3 52 Z M 254.3 49.7 C 255.8 51.2 256.1 53.3 256.1 55.5 C 256.1 57.8 255.8 59.9 254.3 61.4 C 253.3 62.5 251.9 63.1 250.1 63.1 C 248.3 63.1 246.9 62.5 245.8 61.4 C 244.3 59.9 244 57.8 244 55.5 C 244 53.3 244.3 51.2 245.8 49.7 C 246.9 48.6 248.3 48 250.1 48 C 251.9 48 253.3 48.6 254.3 49.7 Z M 247.4 51 C 246.3 52.1 246.2 53.9 246.2 55.5 C 246.2 57.2 246.3 59 247.4 60.1 C 248.1 60.8 249 61.2 250.1 61.2 C 251.1 61.2 252.1 60.8 252.8 60.1 C 253.9 59 253.9 57.2 253.9 55.5 C 253.9 53.9 253.9 52.1 252.8 51 C 252.1 50.3 251.1 49.9 250.1 49.9 C 249 49.9 248.1 50.3 247.4 51 Z M 266.5 43.4 C 266.5 43.4 265.35 43.39 265.3 43.4 C 264 43.4 263.4 44.2 263.4 45.5 C 263.37 45.55 263.4 48.2 263.4 48.2 L 266.5 48.2 L 266.5 49.8 L 263.4 49.8 L 263.4 62.9 L 261.2 62.9 L 261.2 49.8 L 259.3 49.8 L 259.3 48.2 L 261.2 48.2 C 261.2 48.2 261.21 45.49 261.2 45.5 C 261.2 43.3 262.4 41.5 265 41.5 C 264.96 41.53 266.5 41.5 266.5 41.5 L 266.5 43.4 Z M 287.6 49.6 C 287.6 49.6 286.2 51 286.2 51 C 285.1 50.2 283.8 49.8 282.3 49.8 C 280.1 49.8 279 50.7 279 52.2 C 279 53.6 279.8 54.2 281.6 54.4 C 281.6 54.4 283.9 54.6 283.9 54.6 C 286.5 54.8 288.3 55.8 288.3 58.6 C 288.3 61.4 285.9 63.1 282.3 63.1 C 279.7 63.1 277.8 62.5 276.2 61 C 276.2 61 277.6 59.5 277.6 59.5 C 278.8 60.7 280.4 61.2 282.2 61.2 C 284.7 61.2 286.2 60.4 286.2 58.6 C 286.2 57.3 285.4 56.6 283.7 56.5 C 283.7 56.5 281.3 56.3 281.3 56.3 C 278.4 56 276.9 54.8 276.9 52.3 C 276.9 49.6 279.1 48 282.3 48 C 284.4 48 286.3 48.5 287.6 49.6 Z M 302 49.7 C 303.5 51.2 303.8 53.3 303.8 55.5 C 303.8 57.8 303.5 59.9 302 61.4 C 301 62.5 299.5 63.1 297.7 63.1 C 295.9 63.1 294.5 62.5 293.5 61.4 C 292 59.9 291.7 57.8 291.7 55.5 C 291.7 53.3 292 51.2 293.5 49.7 C 294.5 48.6 295.9 48 297.7 48 C 299.5 48 301 48.6 302 49.7 Z M 295.1 51 C 294 52.1 293.9 53.9 293.9 55.5 C 293.9 57.2 294 59 295.1 60.1 C 295.8 60.8 296.7 61.2 297.7 61.2 C 298.8 61.2 299.7 60.8 300.4 60.1 C 301.5 59 301.6 57.2 301.6 55.5 C 301.6 53.9 301.5 52.1 300.4 51 C 299.7 50.3 298.8 49.9 297.7 49.9 C 296.7 49.9 295.8 50.3 295.1 51 Z M 310.5 58.9 C 310.5 60.3 311 61.1 312.5 61.1 C 312.48 61.06 313.6 61.1 313.6 61.1 L 313.6 62.9 C 313.6 62.9 312.09 62.92 312.1 62.9 C 309.5 62.9 308.3 61.2 308.3 59 C 308.34 58.99 308.3 41.6 308.3 41.6 L 310.5 41.6 C 310.5 41.6 310.5 58.9 310.5 58.9 Z M 319.5 62.9 L 317.3 62.9 L 317.3 48.2 L 319.5 48.2 L 319.5 62.9 Z M 319.6 44 L 317.2 44 L 317.2 41.5 L 319.6 41.5 L 319.6 44 Z M 335.5 50.2 C 335.5 50.2 334 51.5 334 51.5 C 332.9 50.3 332.1 49.9 330.7 49.9 C 329.2 49.9 328 50.5 327.2 51.6 C 326.5 52.5 326.3 53.7 326.3 55.5 C 326.3 57.4 326.5 58.5 327.2 59.5 C 328 60.6 329.2 61.2 330.7 61.2 C 332.1 61.2 332.9 60.7 334 59.5 C 334 59.5 335.5 60.9 335.5 60.9 C 334 62.6 332.7 63.1 330.7 63.1 C 326.9 63.1 324.1 60.6 324.1 55.5 C 324.1 50.5 326.9 48 330.7 48 C 332.7 48 334 48.5 335.5 50.2 Z M 341.8 62.9 L 339.6 62.9 L 339.6 48.2 L 341.8 48.2 L 341.8 62.9 Z M 341.9 44 L 339.5 44 L 339.5 41.5 L 341.9 41.5 L 341.9 44 Z M 349.7 48.2 L 352.9 48.2 L 352.9 49.8 L 349.7 49.8 C 349.7 49.8 349.74 58.9 349.7 58.9 C 349.7 60.3 350.4 61.1 351.7 61.1 C 351.75 61.06 352.9 61.1 352.9 61.1 L 352.9 62.9 C 352.9 62.9 351.36 62.92 351.4 62.9 C 348.8 62.9 347.6 61.1 347.6 59 C 347.58 58.96 347.6 49.8 347.6 49.8 L 345.7 49.8 L 345.7 48.2 L 347.6 48.2 L 347.6 43.6 L 349.7 43.6 L 349.7 48.2 Z M 367.6 52.9 C 367.56 52.9 367.6 62.9 367.6 62.9 L 365.4 62.9 C 365.4 62.9 365.4 61.51 365.4 61.5 C 364.2 62.7 363.1 63.1 361.1 63.1 C 359.1 63.1 358 62.7 357 61.7 C 356.2 61 355.9 59.9 355.9 58.7 C 355.9 56.1 357.7 54.5 361 54.5 C 360.99 54.49 365.4 54.5 365.4 54.5 C 365.4 54.5 365.4 53.08 365.4 53.1 C 365.4 50.9 364.3 49.8 361.6 49.8 C 359.8 49.8 358.8 50.3 357.9 51.5 C 357.9 51.5 356.4 50.2 356.4 50.2 C 357.7 48.5 359.2 48 361.6 48 C 365.6 48 367.6 49.7 367.6 52.9 Z M 361.3 56.1 C 359.1 56.1 358 57 358 58.7 C 358 60.4 359 61.2 361.4 61.2 C 362.6 61.2 363.7 61.1 364.6 60.2 C 365.2 59.8 365.4 58.9 365.4 57.7 C 365.4 57.7 365.4 56.1 365.4 56.1 C 365.4 56.1 361.29 56.11 361.3 56.1 Z M 375.3 48.2 L 378.5 48.2 L 378.5 49.8 L 375.3 49.8 C 375.3 49.8 375.33 58.9 375.3 58.9 C 375.3 60.3 376 61.1 377.3 61.1 C 377.34 61.06 378.5 61.1 378.5 61.1 L 378.5 62.9 C 378.5 62.9 376.95 62.92 376.9 62.9 C 374.4 62.9 373.2 61.1 373.2 59 C 373.17 58.96 373.2 49.8 373.2 49.8 L 371.3 49.8 L 371.3 48.2 L 373.2 48.2 L 373.2 43.6 L 375.3 43.6 L 375.3 48.2 Z M 384.9 62.9 L 382.8 62.9 L 382.8 48.2 L 384.9 48.2 L 384.9 62.9 Z M 385.1 44 L 382.6 44 L 382.6 41.5 L 385.1 41.5 L 385.1 44 Z M 399.8 49.7 C 401.3 51.2 401.6 53.3 401.6 55.5 C 401.6 57.8 401.3 59.9 399.8 61.4 C 398.8 62.5 397.4 63.1 395.6 63.1 C 393.8 63.1 392.4 62.5 391.4 61.4 C 389.9 59.9 389.6 57.8 389.6 55.5 C 389.6 53.3 389.9 51.2 391.4 49.7 C 392.4 48.6 393.8 48 395.6 48 C 397.4 48 398.8 48.6 399.8 49.7 Z M 392.9 51 C 391.9 52.1 391.7 53.9 391.7 55.5 C 391.7 57.2 391.8 59 392.9 60.1 C 393.7 60.8 394.6 61.2 395.6 61.2 C 396.7 61.2 397.6 60.8 398.3 60.1 C 399.4 59 399.5 57.2 399.5 55.5 C 399.5 53.9 399.4 52.1 398.3 51 C 397.6 50.3 396.7 49.9 395.6 49.9 C 394.6 49.9 393.7 50.3 392.9 51 Z M 416.4 49.4 C 417.4 50.4 417.9 51.8 417.9 53.5 C 417.89 53.5 417.9 62.9 417.9 62.9 L 415.7 62.9 C 415.7 62.9 415.73 53.83 415.7 53.8 C 415.7 51.2 414.3 49.9 412.1 49.9 C 409.9 49.9 408.4 51.2 408.4 53.8 C 408.41 53.83 408.4 62.9 408.4 62.9 L 406.3 62.9 L 406.3 48.2 L 408.4 48.2 C 408.4 48.2 408.38 49.81 408.4 49.8 C 409.4 48.6 410.9 48 412.6 48 C 414.1 48 415.5 48.5 416.4 49.4 Z M 425.7 64.9 L 423.1 67.2 L 423.1 60.3 L 425.7 60.3 L 425.7 64.9 Z M 440.6 58.9 C 440.6 60.3 441.1 61.1 442.6 61.1 C 442.61 61.06 443.8 61.1 443.8 61.1 L 443.8 62.9 C 443.8 62.9 442.22 62.92 442.2 62.9 C 439.6 62.9 438.5 61.2 438.5 59 C 438.47 58.99 438.5 41.6 438.5 41.6 L 440.6 41.6 C 440.6 41.6 440.63 58.9 440.6 58.9 Z M 449.6 62.9 L 447.4 62.9 L 447.4 48.2 L 449.6 48.2 L 449.6 62.9 Z M 449.8 44 L 447.3 44 L 447.3 41.5 L 449.8 41.5 L 449.8 44 Z M 452.7 48.2 L 455 48.2 L 459.1 60 L 463.1 48.2 L 465.4 48.2 L 460 62.9 L 458.1 62.9 L 452.7 48.2 Z M 470.6 62.9 L 468.4 62.9 L 468.4 48.2 L 470.6 48.2 L 470.6 62.9 Z M 470.8 44 L 468.3 44 L 468.3 41.5 L 470.8 41.5 L 470.8 44 Z M 486.1 49.4 C 487.2 50.4 487.7 51.8 487.7 53.5 C 487.67 53.5 487.7 62.9 487.7 62.9 L 485.5 62.9 C 485.5 62.9 485.51 53.83 485.5 53.8 C 485.5 51.2 484.1 49.9 481.9 49.9 C 479.7 49.9 478.2 51.2 478.2 53.8 C 478.19 53.83 478.2 62.9 478.2 62.9 L 476 62.9 L 476 48.2 L 478.2 48.2 C 478.2 48.2 478.16 49.81 478.2 49.8 C 479.2 48.6 480.7 48 482.3 48 C 483.9 48 485.2 48.5 486.1 49.4 Z M 501.7 49.9 C 501.68 49.9 501.7 48.2 501.7 48.2 L 503.8 48.2 C 503.8 48.2 503.81 63.37 503.8 63.4 C 503.8 67 501.5 69.7 497.7 69.7 C 495.4 69.7 494.2 69.1 492.7 67.7 C 492.7 67.7 494.1 66.3 494.1 66.3 C 495.1 67.3 495.9 67.8 497.6 67.8 C 500.5 67.8 501.7 65.8 501.7 63.3 C 501.7 63.3 501.7 61 501.7 61 C 500.5 62.5 499.1 62.9 497.5 62.9 C 496 62.9 494.7 62.3 493.9 61.6 C 492.5 60.1 492.1 57.8 492.1 55.4 C 492.1 53 492.5 50.7 493.9 49.3 C 494.7 48.5 496 48 497.5 48 C 499.2 48 500.5 48.3 501.7 49.9 Z M 494.3 55.4 C 494.3 58.2 494.8 60.9 498 60.9 C 501.2 60.9 501.7 58.2 501.7 55.4 C 501.7 52.7 501.2 49.9 498 49.9 C 494.8 49.9 494.3 52.7 494.3 55.4 Z M 526.2 49.7 C 527.7 51.2 528 53.3 528 55.5 C 528 57.8 527.7 59.9 526.2 61.4 C 525.1 62.5 523.7 63.1 521.9 63.1 C 520.1 63.1 518.7 62.5 517.7 61.4 C 516.2 59.9 515.9 57.8 515.9 55.5 C 515.9 53.3 516.2 51.2 517.7 49.7 C 518.7 48.6 520.1 48 521.9 48 C 523.7 48 525.1 48.6 526.2 49.7 Z M 519.3 51 C 518.2 52.1 518.1 53.9 518.1 55.5 C 518.1 57.2 518.2 59 519.3 60.1 C 520 60.8 520.9 61.2 521.9 61.2 C 523 61.2 523.9 60.8 524.6 60.1 C 525.7 59 525.8 57.2 525.8 55.5 C 525.8 53.9 525.7 52.1 524.6 51 C 523.9 50.3 523 49.9 521.9 49.9 C 520.9 49.9 520 50.3 519.3 51 Z M 542.4 49.4 C 542.4 49.4 540.8 51 540.8 51 C 540 50.2 539.4 49.9 538.3 49.9 C 536.1 49.9 534.7 51.6 534.7 53.9 C 534.74 53.86 534.7 62.9 534.7 62.9 L 532.6 62.9 L 532.6 48.2 L 534.7 48.2 C 534.7 48.2 534.74 49.96 534.7 50 C 535.6 48.7 537.2 48 538.9 48 C 540.3 48 541.4 48.3 542.4 49.4 Z M 550.3 48.2 L 552.7 48.2 L 556.1 60 L 559.9 48.2 L 561.8 48.2 L 565.6 60 L 569 48.2 L 571.4 48.2 L 566.7 62.9 L 564.7 62.9 L 560.8 50.9 L 557 62.9 L 555 62.9 L 550.3 48.2 Z M 583.7 49.7 C 585.2 51.2 585.5 53.3 585.5 55.5 C 585.5 57.8 585.2 59.9 583.7 61.4 C 582.7 62.5 581.3 63.1 579.5 63.1 C 577.7 63.1 576.3 62.5 575.3 61.4 C 573.8 59.9 573.5 57.8 573.5 55.5 C 573.5 53.3 573.8 51.2 575.3 49.7 C 576.3 48.6 577.7 48 579.5 48 C 581.3 48 582.7 48.6 583.7 49.7 Z M 576.8 51 C 575.8 52.1 575.6 53.9 575.6 55.5 C 575.6 57.2 575.7 59 576.8 60.1 C 577.6 60.8 578.5 61.2 579.5 61.2 C 580.6 61.2 581.5 60.8 582.2 60.1 C 583.3 59 583.4 57.2 583.4 55.5 C 583.4 53.9 583.3 52.1 582.2 51 C 581.5 50.3 580.6 49.9 579.5 49.9 C 578.5 49.9 577.6 50.3 576.8 51 Z M 600 49.4 C 600 49.4 598.4 51 598.4 51 C 597.6 50.2 597 49.9 595.9 49.9 C 593.7 49.9 592.3 51.6 592.3 53.9 C 592.31 53.86 592.3 62.9 592.3 62.9 L 590.2 62.9 L 590.2 48.2 L 592.3 48.2 C 592.3 48.2 592.31 49.96 592.3 50 C 593.1 48.7 594.7 48 596.5 48 C 597.9 48 598.9 48.3 600 49.4 Z M 604.9 55.8 L 611.6 48.2 L 614.3 48.2 L 609.3 53.8 L 615.2 62.9 L 612.5 62.9 L 607.8 55.4 L 604.9 58.7 L 604.9 62.9 L 602.8 62.9 L 602.8 41.6 L 604.9 41.6 L 604.9 55.8 Z M 621 62.9 L 618.9 62.9 L 618.9 48.2 L 621 48.2 L 621 62.9 Z M 621.2 44 L 618.7 44 L 618.7 41.5 L 621.2 41.5 L 621.2 44 Z M 636.6 49.4 C 637.6 50.4 638.1 51.8 638.1 53.5 C 638.09 53.5 638.1 62.9 638.1 62.9 L 635.9 62.9 C 635.9 62.9 635.93 53.83 635.9 53.8 C 635.9 51.2 634.5 49.9 632.3 49.9 C 630.1 49.9 628.6 51.2 628.6 53.8 C 628.61 53.83 628.6 62.9 628.6 62.9 L 626.5 62.9 L 626.5 48.2 L 628.6 48.2 C 628.6 48.2 628.58 49.81 628.6 49.8 C 629.6 48.6 631.1 48 632.8 48 C 634.3 48 635.7 48.5 636.6 49.4 Z M 652.1 49.9 C 652.1 49.9 652.1 48.2 652.1 48.2 L 654.2 48.2 C 654.2 48.2 654.23 63.37 654.2 63.4 C 654.2 67 652 69.7 648.1 69.7 C 645.9 69.7 644.6 69.1 643.1 67.7 C 643.1 67.7 644.5 66.3 644.5 66.3 C 645.6 67.3 646.3 67.8 648 67.8 C 650.9 67.8 652.1 65.8 652.1 63.3 C 652.1 63.3 652.1 61 652.1 61 C 650.9 62.5 649.5 62.9 647.9 62.9 C 646.4 62.9 645.1 62.3 644.4 61.6 C 642.9 60.1 642.6 57.8 642.6 55.4 C 642.6 53 642.9 50.7 644.4 49.3 C 645.1 48.5 646.5 48 648 48 C 649.6 48 650.9 48.3 652.1 49.9 Z M 644.7 55.4 C 644.7 58.2 645.2 60.9 648.4 60.9 C 651.6 60.9 652.1 58.2 652.1 55.4 C 652.1 52.7 651.6 49.9 648.4 49.9 C 645.2 49.9 644.7 52.7 644.7 55.4 Z M 669.3 62.9 L 667.1 62.9 L 667.1 48.2 L 669.3 48.2 L 669.3 62.9 Z M 669.4 44 L 667 44 L 667 41.5 L 669.4 41.5 L 669.4 44 Z M 684.8 49.4 C 685.9 50.4 686.3 51.8 686.3 53.5 C 686.33 53.5 686.3 62.9 686.3 62.9 L 684.2 62.9 C 684.2 62.9 684.17 53.83 684.2 53.8 C 684.2 51.2 682.8 49.9 680.5 49.9 C 678.3 49.9 676.9 51.2 676.9 53.8 C 676.85 53.83 676.9 62.9 676.9 62.9 L 674.7 62.9 L 674.7 48.2 L 676.8 48.2 C 676.8 48.2 676.82 49.81 676.8 49.8 C 677.9 48.6 679.3 48 681 48 C 682.6 48 683.9 48.5 684.8 49.4 Z M 701.6 48.2 L 704.7 48.2 L 704.7 49.8 L 701.6 49.8 C 701.6 49.8 701.57 58.9 701.6 58.9 C 701.6 60.3 702.2 61.1 703.6 61.1 C 703.58 61.06 704.7 61.1 704.7 61.1 L 704.7 62.9 C 704.7 62.9 703.19 62.92 703.2 62.9 C 700.7 62.9 699.4 61.1 699.4 59 C 699.41 58.96 699.4 49.8 699.4 49.8 L 697.5 49.8 L 697.5 48.2 L 699.4 48.2 L 699.4 43.6 L 701.6 43.6 L 701.6 48.2 Z M 711.2 49.8 C 712.2 48.6 713.6 48 715.3 48 C 716.9 48 718.2 48.5 719.1 49.4 C 720.2 50.4 720.6 51.8 720.6 53.5 C 720.62 53.5 720.6 62.9 720.6 62.9 L 718.5 62.9 C 718.5 62.9 718.46 53.83 718.5 53.8 C 718.5 51.2 717.1 49.9 714.9 49.9 C 712.6 49.9 711.2 51.2 711.2 53.8 C 711.17 53.83 711.2 62.9 711.2 62.9 L 709 62.9 L 709 41.6 L 711.2 41.6 C 711.2 41.6 711.17 49.81 711.2 49.8 Z M 737.2 55.1 C 737.18 55.15 737.2 56.1 737.2 56.1 C 737.2 56.1 727.22 56.11 727.2 56.1 C 727.2 59.3 728.7 61.2 731.6 61.2 C 733.3 61.2 734.3 60.7 735.4 59.5 C 735.4 59.5 736.9 60.8 736.9 60.8 C 735.4 62.3 734 63.1 731.5 63.1 C 727.6 63.1 725.1 60.8 725.1 55.5 C 725.1 50.7 727.4 48 731.1 48 C 735 48 737.2 50.7 737.2 55.1 Z M 727.7 52 C 727.3 52.8 727.3 53.3 727.2 54.5 C 727.2 54.5 735 54.5 735 54.5 C 735 53.3 734.9 52.8 734.6 52 C 733.9 50.7 732.7 49.8 731.1 49.8 C 729.5 49.8 728.3 50.7 727.7 52 Z M 759.2 49.6 C 759.2 49.6 757.8 51 757.8 51 C 756.8 50.2 755.4 49.8 753.9 49.8 C 751.7 49.8 750.6 50.7 750.6 52.2 C 750.6 53.6 751.4 54.2 753.2 54.4 C 753.2 54.4 755.5 54.6 755.5 54.6 C 758.1 54.8 759.9 55.8 759.9 58.6 C 759.9 61.4 757.5 63.1 753.9 63.1 C 751.4 63.1 749.4 62.5 747.8 61 C 747.8 61 749.3 59.5 749.3 59.5 C 750.4 60.7 752 61.2 753.9 61.2 C 756.3 61.2 757.8 60.4 757.8 58.6 C 757.8 57.3 757.1 56.6 755.3 56.5 C 755.3 56.5 752.9 56.3 752.9 56.3 C 750 56 748.5 54.8 748.5 52.3 C 748.5 49.6 750.7 48 753.9 48 C 756 48 757.9 48.5 759.2 49.6 Z M 766.4 48.2 L 769.5 48.2 L 769.5 49.8 L 766.4 49.8 C 766.4 49.8 766.37 58.9 766.4 58.9 C 766.4 60.3 767 61.1 768.4 61.1 C 768.38 61.06 769.5 61.1 769.5 61.1 L 769.5 62.9 C 769.5 62.9 767.99 62.92 768 62.9 C 765.5 62.9 764.2 61.1 764.2 59 C 764.21 58.96 764.2 49.8 764.2 49.8 L 762.3 49.8 L 762.3 48.2 L 764.2 48.2 L 764.2 43.6 L 766.4 43.6 L 766.4 48.2 Z M 784.2 52.9 C 784.19 52.9 784.2 62.9 784.2 62.9 L 782 62.9 C 782 62.9 782.03 61.51 782 61.5 C 780.9 62.7 779.7 63.1 777.8 63.1 C 775.7 63.1 774.6 62.7 773.6 61.7 C 772.8 61 772.5 59.9 772.5 58.7 C 772.5 56.1 774.3 54.5 777.6 54.5 C 777.62 54.49 782 54.5 782 54.5 C 782 54.5 782.03 53.08 782 53.1 C 782 50.9 781 49.8 778.2 49.8 C 776.4 49.8 775.4 50.3 774.5 51.5 C 774.5 51.5 773.1 50.2 773.1 50.2 C 774.3 48.5 775.8 48 778.3 48 C 782.3 48 784.2 49.7 784.2 52.9 Z M 777.9 56.1 C 775.7 56.1 774.6 57 774.6 58.7 C 774.6 60.4 775.6 61.2 778 61.2 C 779.2 61.2 780.3 61.1 781.3 60.2 C 781.8 59.8 782 58.9 782 57.7 C 782.03 57.7 782 56.1 782 56.1 C 782 56.1 777.92 56.11 777.9 56.1 Z M 792 48.2 L 795.1 48.2 L 795.1 49.8 L 792 49.8 C 792 49.8 791.96 58.9 792 58.9 C 792 60.3 792.6 61.1 794 61.1 C 793.97 61.06 795.1 61.1 795.1 61.1 L 795.1 62.9 C 795.1 62.9 793.58 62.92 793.6 62.9 C 791.1 62.9 789.8 61.1 789.8 59 C 789.8 58.96 789.8 49.8 789.8 49.8 L 787.9 49.8 L 787.9 48.2 L 789.8 48.2 L 789.8 43.6 L 792 43.6 L 792 48.2 Z M 810.6 55.1 C 810.56 55.15 810.6 56.1 810.6 56.1 C 810.6 56.1 800.6 56.11 800.6 56.1 C 800.6 59.3 802.1 61.2 804.9 61.2 C 806.7 61.2 807.6 60.7 808.8 59.5 C 808.8 59.5 810.3 60.8 810.3 60.8 C 808.8 62.3 807.4 63.1 804.9 63.1 C 801 63.1 798.4 60.8 798.4 55.5 C 798.4 50.7 800.7 48 804.5 48 C 808.3 48 810.6 50.7 810.6 55.1 Z M 801 52 C 800.7 52.8 800.7 53.3 800.6 54.5 C 800.6 54.5 808.4 54.5 808.4 54.5 C 808.3 53.3 808.3 52.8 807.9 52 C 807.3 50.7 806.1 49.8 804.5 49.8 C 802.9 49.8 801.7 50.7 801 52 Z M 832.1 49.7 C 833.6 51.2 833.9 53.3 833.9 55.5 C 833.9 57.8 833.6 59.9 832.1 61.4 C 831.1 62.5 829.7 63.1 827.9 63.1 C 826.1 63.1 824.7 62.5 823.6 61.4 C 822.1 59.9 821.8 57.8 821.8 55.5 C 821.8 53.3 822.1 51.2 823.6 49.7 C 824.7 48.6 826.1 48 827.9 48 C 829.7 48 831.1 48.6 832.1 49.7 Z M 825.2 51 C 824.1 52.1 824 53.9 824 55.5 C 824 57.2 824.1 59 825.2 60.1 C 825.9 60.8 826.8 61.2 827.9 61.2 C 828.9 61.2 829.8 60.8 830.6 60.1 C 831.6 59 831.7 57.2 831.7 55.5 C 831.7 53.9 831.6 52.1 830.6 51 C 829.8 50.3 828.9 49.9 827.9 49.9 C 826.8 49.9 825.9 50.3 825.2 51 Z M 844.3 43.4 C 844.3 43.4 843.14 43.39 843.1 43.4 C 841.8 43.4 841.2 44.2 841.2 45.5 C 841.16 45.55 841.2 48.2 841.2 48.2 L 844.3 48.2 L 844.3 49.8 L 841.2 49.8 L 841.2 62.9 L 839 62.9 L 839 49.8 L 837.1 49.8 L 837.1 48.2 L 839 48.2 C 839 48.2 839 45.49 839 45.5 C 839 43.3 840.2 41.5 842.7 41.5 C 842.75 41.53 844.3 41.5 844.3 41.5 L 844.3 43.4 Z M 865.4 49.6 C 865.4 49.6 864 51 864 51 C 862.9 50.2 861.6 49.8 860.1 49.8 C 857.9 49.8 856.8 50.7 856.8 52.2 C 856.8 53.6 857.6 54.2 859.4 54.4 C 859.4 54.4 861.7 54.6 861.7 54.6 C 864.3 54.8 866.1 55.8 866.1 58.6 C 866.1 61.4 863.7 63.1 860.1 63.1 C 857.5 63.1 855.6 62.5 854 61 C 854 61 855.4 59.5 855.4 59.5 C 856.6 60.7 858.2 61.2 860 61.2 C 862.5 61.2 864 60.4 864 58.6 C 864 57.3 863.2 56.6 861.5 56.5 C 861.5 56.5 859.1 56.3 859.1 56.3 C 856.2 56 854.7 54.8 854.7 52.3 C 854.7 49.6 856.9 48 860.1 48 C 862.2 48 864 48.5 865.4 49.6 Z M 879.8 49.7 C 881.3 51.2 881.6 53.3 881.6 55.5 C 881.6 57.8 881.3 59.9 879.8 61.4 C 878.7 62.5 877.3 63.1 875.5 63.1 C 873.7 63.1 872.3 62.5 871.3 61.4 C 869.8 59.9 869.5 57.8 869.5 55.5 C 869.5 53.3 869.8 51.2 871.3 49.7 C 872.3 48.6 873.7 48 875.5 48 C 877.3 48 878.7 48.6 879.8 49.7 Z M 872.9 51 C 871.8 52.1 871.7 53.9 871.7 55.5 C 871.7 57.2 871.8 59 872.9 60.1 C 873.6 60.8 874.5 61.2 875.5 61.2 C 876.6 61.2 877.5 60.8 878.2 60.1 C 879.3 59 879.4 57.2 879.4 55.5 C 879.4 53.9 879.3 52.1 878.2 51 C 877.5 50.3 876.6 49.9 875.5 49.9 C 874.5 49.9 873.6 50.3 872.9 51 Z M 888.3 58.9 C 888.3 60.3 888.8 61.1 890.3 61.1 C 890.27 61.06 891.4 61.1 891.4 61.1 L 891.4 62.9 C 891.4 62.9 889.88 62.92 889.9 62.9 C 887.3 62.9 886.1 61.2 886.1 59 C 886.13 58.99 886.1 41.6 886.1 41.6 L 888.3 41.6 C 888.3 41.6 888.29 58.9 888.3 58.9 Z M 897.3 62.9 L 895.1 62.9 L 895.1 48.2 L 897.3 48.2 L 897.3 62.9 Z M 897.4 44 L 895 44 L 895 41.5 L 897.4 41.5 L 897.4 44 Z M 913.3 50.2 C 913.3 50.2 911.8 51.5 911.8 51.5 C 910.7 50.3 909.9 49.9 908.4 49.9 C 907 49.9 905.8 50.5 905 51.6 C 904.3 52.5 904.1 53.7 904.1 55.5 C 904.1 57.4 904.3 58.5 905 59.5 C 905.8 60.6 907 61.2 908.4 61.2 C 909.9 61.2 910.7 60.7 911.8 59.5 C 911.8 59.5 913.3 60.9 913.3 60.9 C 911.8 62.6 910.5 63.1 908.4 63.1 C 904.7 63.1 901.9 60.6 901.9 55.5 C 901.9 50.5 904.7 48 908.4 48 C 910.5 48 911.8 48.5 913.3 50.2 Z M 919.6 62.9 L 917.4 62.9 L 917.4 48.2 L 919.6 48.2 L 919.6 62.9 Z M 919.7 44 L 917.3 44 L 917.3 41.5 L 919.7 41.5 L 919.7 44 Z M 927.5 48.2 L 930.7 48.2 L 930.7 49.8 L 927.5 49.8 C 927.5 49.8 927.53 58.9 927.5 58.9 C 927.5 60.3 928.2 61.1 929.5 61.1 C 929.54 61.06 930.7 61.1 930.7 61.1 L 930.7 62.9 C 930.7 62.9 929.15 62.92 929.1 62.9 C 926.6 62.9 925.4 61.1 925.4 59 C 925.37 58.96 925.4 49.8 925.4 49.8 L 923.5 49.8 L 923.5 48.2 L 925.4 48.2 L 925.4 43.6 L 927.5 43.6 L 927.5 48.2 Z M 945.3 52.9 C 945.35 52.9 945.3 62.9 945.3 62.9 L 943.2 62.9 C 943.2 62.9 943.19 61.51 943.2 61.5 C 942 62.7 940.9 63.1 938.9 63.1 C 936.9 63.1 935.8 62.7 934.8 61.7 C 934 61 933.6 59.9 933.6 58.7 C 933.6 56.1 935.5 54.5 938.8 54.5 C 938.78 54.49 943.2 54.5 943.2 54.5 C 943.2 54.5 943.19 53.08 943.2 53.1 C 943.2 50.9 942.1 49.8 939.4 49.8 C 937.5 49.8 936.6 50.3 935.7 51.5 C 935.7 51.5 934.2 50.2 934.2 50.2 C 935.5 48.5 937 48 939.4 48 C 943.4 48 945.3 49.7 945.3 52.9 Z M 939.1 56.1 C 936.9 56.1 935.7 57 935.7 58.7 C 935.7 60.4 936.8 61.2 939.2 61.2 C 940.4 61.2 941.5 61.1 942.4 60.2 C 942.9 59.8 943.2 58.9 943.2 57.7 C 943.19 57.7 943.2 56.1 943.2 56.1 C 943.2 56.1 939.08 56.11 939.1 56.1 Z M 953.1 48.2 L 956.3 48.2 L 956.3 49.8 L 953.1 49.8 C 953.1 49.8 953.12 58.9 953.1 58.9 C 953.1 60.3 953.7 61.1 955.1 61.1 C 955.13 61.06 956.3 61.1 956.3 61.1 L 956.3 62.9 C 956.3 62.9 954.74 62.92 954.7 62.9 C 952.2 62.9 951 61.1 951 59 C 950.96 58.96 951 49.8 951 49.8 L 949.1 49.8 L 949.1 48.2 L 951 48.2 L 951 43.6 L 953.1 43.6 L 953.1 48.2 Z M 962.7 62.9 L 960.6 62.9 L 960.6 48.2 L 962.7 48.2 L 962.7 62.9 Z M 962.9 44 L 960.4 44 L 960.4 41.5 L 962.9 41.5 L 962.9 44 Z M 977.6 49.7 C 979.1 51.2 979.4 53.3 979.4 55.5 C 979.4 57.8 979.1 59.9 977.6 61.4 C 976.6 62.5 975.2 63.1 973.4 63.1 C 971.6 63.1 970.2 62.5 969.2 61.4 C 967.7 59.9 967.4 57.8 967.4 55.5 C 967.4 53.3 967.7 51.2 969.2 49.7 C 970.2 48.6 971.6 48 973.4 48 C 975.2 48 976.6 48.6 977.6 49.7 Z M 970.7 51 C 969.6 52.1 969.5 53.9 969.5 55.5 C 969.5 57.2 969.6 59 970.7 60.1 C 971.4 60.8 972.3 61.2 973.4 61.2 C 974.4 61.2 975.4 60.8 976.1 60.1 C 977.2 59 977.3 57.2 977.3 55.5 C 977.3 53.9 977.2 52.1 976.1 51 C 975.4 50.3 974.4 49.9 973.4 49.9 C 972.3 49.9 971.4 50.3 970.7 51 Z M 994.2 49.4 C 995.2 50.4 995.7 51.8 995.7 53.5 C 995.69 53.5 995.7 62.9 995.7 62.9 L 993.5 62.9 C 993.5 62.9 993.53 53.83 993.5 53.8 C 993.5 51.2 992.1 49.9 989.9 49.9 C 987.7 49.9 986.2 51.2 986.2 53.8 C 986.21 53.83 986.2 62.9 986.2 62.9 L 984 62.9 L 984 48.2 L 986.2 48.2 C 986.2 48.2 986.18 49.81 986.2 49.8 C 987.2 48.6 988.7 48 990.3 48 C 991.9 48 993.3 48.5 994.2 49.4 Z M 1003.5 64.9 L 1000.9 67.2 L 1000.9 60.3 L 1003.5 60.3 L 1003.5 64.9 Z M 1025.8 49.7 C 1027.3 51.2 1027.6 53.3 1027.6 55.5 C 1027.6 57.8 1027.3 59.9 1025.8 61.4 C 1024.8 62.5 1023.4 63.1 1021.6 63.1 C 1019.8 63.1 1018.4 62.5 1017.3 61.4 C 1015.8 59.9 1015.5 57.8 1015.5 55.5 C 1015.5 53.3 1015.8 51.2 1017.3 49.7 C 1018.4 48.6 1019.8 48 1021.6 48 C 1023.4 48 1024.8 48.6 1025.8 49.7 Z M 1018.9 51 C 1017.8 52.1 1017.7 53.9 1017.7 55.5 C 1017.7 57.2 1017.8 59 1018.9 60.1 C 1019.6 60.8 1020.5 61.2 1021.6 61.2 C 1022.6 61.2 1023.6 60.8 1024.3 60.1 C 1025.4 59 1025.4 57.2 1025.4 55.5 C 1025.4 53.9 1025.4 52.1 1024.3 51 C 1023.6 50.3 1022.6 49.9 1021.6 49.9 C 1020.5 49.9 1019.6 50.3 1018.9 51 Z M 1042.1 49.4 C 1042.1 49.4 1040.5 51 1040.5 51 C 1039.7 50.2 1039.1 49.9 1037.9 49.9 C 1035.8 49.9 1034.4 51.6 1034.4 53.9 C 1034.38 53.86 1034.4 62.9 1034.4 62.9 L 1032.2 62.9 L 1032.2 48.2 L 1034.4 48.2 C 1034.4 48.2 1034.38 49.96 1034.4 50 C 1035.2 48.7 1036.8 48 1038.5 48 C 1039.9 48 1041 48.3 1042.1 49.4 Z M 1054.8 48.2 L 1058 48.2 L 1058 49.8 L 1054.8 49.8 C 1054.8 49.8 1054.84 58.9 1054.8 58.9 C 1054.8 60.3 1055.5 61.1 1056.9 61.1 C 1056.85 61.06 1058 61.1 1058 61.1 L 1058 62.9 C 1058 62.9 1056.46 62.92 1056.5 62.9 C 1053.9 62.9 1052.7 61.1 1052.7 59 C 1052.68 58.96 1052.7 49.8 1052.7 49.8 L 1050.8 49.8 L 1050.8 48.2 L 1052.7 48.2 L 1052.7 43.6 L 1054.8 43.6 L 1054.8 48.2 Z M 1064.4 49.8 C 1065.5 48.6 1066.9 48 1068.6 48 C 1070.2 48 1071.5 48.5 1072.4 49.4 C 1073.4 50.4 1073.9 51.8 1073.9 53.5 C 1073.89 53.5 1073.9 62.9 1073.9 62.9 L 1071.7 62.9 C 1071.7 62.9 1071.73 53.83 1071.7 53.8 C 1071.7 51.2 1070.4 49.9 1068.1 49.9 C 1065.9 49.9 1064.4 51.2 1064.4 53.8 C 1064.44 53.83 1064.4 62.9 1064.4 62.9 L 1062.3 62.9 L 1062.3 41.6 L 1064.4 41.6 C 1064.4 41.6 1064.44 49.81 1064.4 49.8 Z M 1090.5 55.1 C 1090.45 55.15 1090.5 56.1 1090.5 56.1 C 1090.5 56.1 1080.49 56.11 1080.5 56.1 C 1080.5 59.3 1082 61.2 1084.8 61.2 C 1086.6 61.2 1087.5 60.7 1088.7 59.5 C 1088.7 59.5 1090.2 60.8 1090.2 60.8 C 1088.7 62.3 1087.3 63.1 1084.8 63.1 C 1080.9 63.1 1078.3 60.8 1078.3 55.5 C 1078.3 50.7 1080.6 48 1084.4 48 C 1088.2 48 1090.5 50.7 1090.5 55.1 Z M 1080.9 52 C 1080.6 52.8 1080.6 53.3 1080.5 54.5 C 1080.5 54.5 1088.3 54.5 1088.3 54.5 C 1088.2 53.3 1088.2 52.8 1087.8 52 C 1087.2 50.7 1086 49.8 1084.4 49.8 C 1082.8 49.8 1081.6 50.7 1080.9 52 Z " stroke="none" fill="#000"/>  </g>  <g id="Polygon24457">    <path d="M 15.5 3.6 L 9.4 3.6 L 9.4 22.9 L 7.1 22.9 L 7.1 3.6 L 0.9 3.6 L 0.9 1.6 L 15.5 1.6 L 15.5 3.6 Z M 21.3 9.8 C 22.4 8.6 23.7 8 25.4 8 C 27 8 28.3 8.5 29.2 9.4 C 30.3 10.4 30.7 11.8 30.7 13.5 C 30.75 13.5 30.7 22.9 30.7 22.9 L 28.6 22.9 C 28.6 22.9 28.59 13.83 28.6 13.8 C 28.6 11.2 27.2 9.9 25 9.9 C 22.8 9.9 21.3 11.2 21.3 13.8 C 21.3 13.83 21.3 22.9 21.3 22.9 L 19.1 22.9 L 19.1 1.6 L 21.3 1.6 C 21.3 1.6 21.3 9.81 21.3 9.8 Z M 47.3 15.1 C 47.31 15.15 47.3 16.1 47.3 16.1 C 47.3 16.1 37.35 16.11 37.3 16.1 C 37.3 19.3 38.8 21.2 41.7 21.2 C 43.4 21.2 44.4 20.7 45.6 19.5 C 45.6 19.5 47 20.8 47 20.8 C 45.5 22.3 44.1 23.1 41.6 23.1 C 37.7 23.1 35.2 20.8 35.2 15.5 C 35.2 10.7 37.5 8 41.2 8 C 45.1 8 47.3 10.7 47.3 15.1 Z M 37.8 12 C 37.4 12.8 37.4 13.3 37.3 14.5 C 37.3 14.5 45.2 14.5 45.2 14.5 C 45.1 13.3 45.1 12.8 44.7 12 C 44.1 10.7 42.8 9.8 41.2 9.8 C 39.7 9.8 38.4 10.7 37.8 12 Z M 61.7 9.4 C 61.7 9.4 60.1 11 60.1 11 C 59.3 10.2 58.7 9.9 57.6 9.9 C 55.4 9.9 54.1 11.6 54.1 13.9 C 54.06 13.86 54.1 22.9 54.1 22.9 L 51.9 22.9 L 51.9 8.2 L 54.1 8.2 C 54.1 8.2 54.06 9.96 54.1 10 C 54.9 8.7 56.5 8 58.2 8 C 59.6 8 60.7 8.3 61.7 9.4 Z M 74.9 15.1 C 74.94 15.15 74.9 16.1 74.9 16.1 C 74.9 16.1 64.98 16.11 65 16.1 C 65 19.3 66.5 21.2 69.3 21.2 C 71 21.2 72 20.7 73.2 19.5 C 73.2 19.5 74.7 20.8 74.7 20.8 C 73.2 22.3 71.8 23.1 69.3 23.1 C 65.3 23.1 62.8 20.8 62.8 15.5 C 62.8 10.7 65.1 8 68.9 8 C 72.7 8 74.9 10.7 74.9 15.1 Z M 65.4 12 C 65.1 12.8 65 13.3 65 14.5 C 65 14.5 72.8 14.5 72.8 14.5 C 72.7 13.3 72.7 12.8 72.3 12 C 71.7 10.7 70.5 9.8 68.9 9.8 C 67.3 9.8 66.1 10.7 65.4 12 Z M 106.5 9.4 C 107.6 10.4 108.1 11.8 108.1 13.5 C 108.12 13.47 108.1 22.9 108.1 22.9 L 106 22.9 C 106 22.9 105.96 13.83 106 13.8 C 106 11.2 104.5 9.9 102.3 9.9 C 100.2 9.9 98.6 11.2 98.6 13.6 C 98.64 13.59 98.6 22.9 98.6 22.9 L 96.5 22.9 C 96.5 22.9 96.48 13.83 96.5 13.8 C 96.5 11.2 95.1 9.9 92.8 9.9 C 90.6 9.9 89.2 11.2 89.2 13.8 C 89.16 13.83 89.2 22.9 89.2 22.9 L 87 22.9 L 87 8.2 L 89.2 8.2 C 89.2 8.2 89.16 9.78 89.2 9.8 C 90.2 8.6 91.7 8 93.3 8 C 95.4 8 97 8.8 97.9 10.4 C 99 8.8 100.6 8 102.7 8 C 104.3 8 105.6 8.5 106.5 9.4 Z M 124.9 22.9 L 122.7 22.9 C 122.7 22.9 122.73 21.27 122.7 21.3 C 121.7 22.5 120.2 23.1 118.6 23.1 C 117 23.1 115.6 22.6 114.7 21.7 C 113.7 20.7 113.2 19.3 113.2 17.6 C 113.22 17.58 113.2 8.2 113.2 8.2 L 115.4 8.2 C 115.4 8.2 115.38 17.25 115.4 17.2 C 115.4 19.9 116.8 21.2 119 21.2 C 121.2 21.2 122.7 19.8 122.7 17.2 C 122.7 17.25 122.7 8.2 122.7 8.2 L 124.9 8.2 L 124.9 22.9 Z M 140.2 9.6 C 140.2 9.6 138.8 11 138.8 11 C 137.8 10.2 136.4 9.8 134.9 9.8 C 132.7 9.8 131.6 10.7 131.6 12.2 C 131.6 13.6 132.4 14.2 134.2 14.4 C 134.2 14.4 136.6 14.6 136.6 14.6 C 139.1 14.8 140.9 15.8 140.9 18.6 C 140.9 21.4 138.5 23.1 134.9 23.1 C 132.4 23.1 130.4 22.5 128.8 21 C 128.8 21 130.3 19.5 130.3 19.5 C 131.4 20.7 133 21.2 134.9 21.2 C 137.3 21.2 138.8 20.4 138.8 18.6 C 138.8 17.3 138.1 16.6 136.3 16.5 C 136.3 16.5 133.9 16.3 133.9 16.3 C 131 16 129.5 14.8 129.5 12.3 C 129.5 9.6 131.8 8 134.9 8 C 137.1 8 138.9 8.5 140.2 9.6 Z M 147.4 8.2 L 150.5 8.2 L 150.5 9.8 L 147.4 9.8 C 147.4 9.8 147.39 18.9 147.4 18.9 C 147.4 20.3 148 21.1 149.4 21.1 C 149.4 21.06 150.5 21.1 150.5 21.1 L 150.5 22.9 C 150.5 22.9 149.01 22.92 149 22.9 C 146.5 22.9 145.2 21.1 145.2 19 C 145.23 18.96 145.2 9.8 145.2 9.8 L 143.4 9.8 L 143.4 8.2 L 145.2 8.2 L 145.2 3.6 L 147.4 3.6 L 147.4 8.2 Z M 164.5 9.9 C 165.7 8.3 167 8 168.6 8 C 170.2 8 171.4 8.5 172.2 9.3 C 173.7 10.7 174 13.2 174 15.5 C 174 17.9 173.7 20.3 172.2 21.8 C 171.4 22.6 170.2 23.1 168.6 23.1 C 167 23.1 165.7 22.7 164.5 21.1 C 164.46 21.15 164.5 22.9 164.5 22.9 L 162.3 22.9 L 162.3 1.6 L 164.5 1.6 C 164.5 1.6 164.46 9.87 164.5 9.9 Z M 164.5 15.5 C 164.5 18.4 164.9 21.2 168.2 21.2 C 171.4 21.2 171.9 18.4 171.9 15.5 C 171.9 12.7 171.4 9.9 168.2 9.9 C 164.9 9.9 164.5 12.7 164.5 15.5 Z M 190 15.1 C 189.96 15.15 190 16.1 190 16.1 C 190 16.1 180 16.11 180 16.1 C 180 19.3 181.5 21.2 184.3 21.2 C 186.1 21.2 187 20.7 188.2 19.5 C 188.2 19.5 189.7 20.8 189.7 20.8 C 188.2 22.3 186.8 23.1 184.3 23.1 C 180.4 23.1 177.8 20.8 177.8 15.5 C 177.8 10.7 180.1 8 183.9 8 C 187.7 8 190 10.7 190 15.1 Z M 180.4 12 C 180.1 12.8 180.1 13.3 180 14.5 C 180 14.5 187.8 14.5 187.8 14.5 C 187.7 13.3 187.7 12.8 187.3 12 C 186.7 10.7 185.5 9.8 183.9 9.8 C 182.3 9.8 181.1 10.7 180.4 12 Z M 212.5 12.9 C 212.55 12.9 212.5 22.9 212.5 22.9 L 210.4 22.9 C 210.4 22.9 210.39 21.51 210.4 21.5 C 209.2 22.7 208.1 23.1 206.1 23.1 C 204.1 23.1 203 22.7 202 21.7 C 201.2 21 200.8 19.9 200.8 18.7 C 200.8 16.1 202.7 14.5 206 14.5 C 205.98 14.49 210.4 14.5 210.4 14.5 C 210.4 14.5 210.39 13.08 210.4 13.1 C 210.4 10.9 209.3 9.8 206.6 9.8 C 204.7 9.8 203.8 10.3 202.9 11.5 C 202.9 11.5 201.4 10.2 201.4 10.2 C 202.7 8.5 204.2 8 206.6 8 C 210.6 8 212.5 9.7 212.5 12.9 Z M 206.3 16.1 C 204.1 16.1 202.9 17 202.9 18.7 C 202.9 20.4 204 21.2 206.4 21.2 C 207.6 21.2 208.7 21.1 209.6 20.2 C 210.1 19.8 210.4 18.9 210.4 17.7 C 210.39 17.7 210.4 16.1 210.4 16.1 C 210.4 16.1 206.28 16.11 206.3 16.1 Z M 222.9 8.2 L 225.2 8.2 L 229.3 20 L 233.3 8.2 L 235.6 8.2 L 230.2 22.9 L 228.3 22.9 L 222.9 8.2 Z M 249.1 12.9 C 249.06 12.9 249.1 22.9 249.1 22.9 L 246.9 22.9 C 246.9 22.9 246.9 21.51 246.9 21.5 C 245.7 22.7 244.6 23.1 242.6 23.1 C 240.6 23.1 239.5 22.7 238.5 21.7 C 237.7 21 237.4 19.9 237.4 18.7 C 237.4 16.1 239.2 14.5 242.5 14.5 C 242.49 14.49 246.9 14.5 246.9 14.5 C 246.9 14.5 246.9 13.08 246.9 13.1 C 246.9 10.9 245.8 9.8 243.1 9.8 C 241.3 9.8 240.3 10.3 239.4 11.5 C 239.4 11.5 237.9 10.2 237.9 10.2 C 239.2 8.5 240.7 8 243.1 8 C 247.1 8 249.1 9.7 249.1 12.9 Z M 242.8 16.1 C 240.6 16.1 239.5 17 239.5 18.7 C 239.5 20.4 240.5 21.2 242.9 21.2 C 244.1 21.2 245.2 21.1 246.1 20.2 C 246.7 19.8 246.9 18.9 246.9 17.7 C 246.9 17.7 246.9 16.1 246.9 16.1 C 246.9 16.1 242.79 16.11 242.8 16.1 Z M 256.4 18.9 C 256.4 20.3 256.9 21.1 258.4 21.1 C 258.39 21.06 259.6 21.1 259.6 21.1 L 259.6 22.9 C 259.6 22.9 258 22.92 258 22.9 C 255.4 22.9 254.2 21.2 254.2 19 C 254.25 18.99 254.2 1.6 254.2 1.6 L 256.4 1.6 C 256.4 1.6 256.41 18.9 256.4 18.9 Z M 265.4 22.9 L 263.2 22.9 L 263.2 8.2 L 265.4 8.2 L 265.4 22.9 Z M 265.5 4 L 263.1 4 L 263.1 1.5 L 265.5 1.5 L 265.5 4 Z M 281.8 22.9 L 279.6 22.9 C 279.6 22.9 279.6 21.18 279.6 21.2 C 278.4 22.7 277.1 23.1 275.4 23.1 C 273.9 23.1 272.6 22.6 271.8 21.8 C 270.4 20.3 270 17.9 270 15.5 C 270 13.2 270.4 10.8 271.8 9.3 C 272.6 8.5 273.9 8 275.4 8 C 277 8 278.4 8.4 279.6 9.9 C 279.6 9.9 279.6 1.6 279.6 1.6 L 281.8 1.6 L 281.8 22.9 Z M 272.2 15.5 C 272.2 18.4 272.7 21.2 275.9 21.2 C 279.1 21.2 279.6 18.4 279.6 15.5 C 279.6 12.7 279.1 9.9 275.9 9.9 C 272.7 9.9 272.2 12.7 272.2 15.5 Z M 305.2 10.2 C 305.2 10.2 303.8 11.5 303.8 11.5 C 302.7 10.3 301.8 9.9 300.4 9.9 C 298.9 9.9 297.7 10.5 297 11.6 C 296.3 12.5 296 13.7 296 15.5 C 296 17.4 296.3 18.5 297 19.5 C 297.7 20.6 298.9 21.2 300.4 21.2 C 301.8 21.2 302.7 20.7 303.8 19.5 C 303.8 19.5 305.2 20.9 305.2 20.9 C 303.7 22.6 302.4 23.1 300.4 23.1 C 296.7 23.1 293.8 20.6 293.8 15.5 C 293.8 10.5 296.7 8 300.4 8 C 302.4 8 303.7 8.5 305.2 10.2 Z M 318.4 9.7 C 319.9 11.2 320.2 13.3 320.2 15.5 C 320.2 17.8 319.9 19.9 318.4 21.4 C 317.4 22.5 316 23.1 314.2 23.1 C 312.4 23.1 310.9 22.5 309.9 21.4 C 308.4 19.9 308.1 17.8 308.1 15.5 C 308.1 13.3 308.4 11.2 309.9 9.7 C 310.9 8.6 312.4 8 314.2 8 C 316 8 317.4 8.6 318.4 9.7 Z M 311.5 11 C 310.4 12.1 310.3 13.9 310.3 15.5 C 310.3 17.2 310.4 19 311.5 20.1 C 312.2 20.8 313.1 21.2 314.2 21.2 C 315.2 21.2 316.1 20.8 316.9 20.1 C 317.9 19 318 17.2 318 15.5 C 318 13.9 317.9 12.1 316.9 11 C 316.1 10.3 315.2 9.9 314.2 9.9 C 313.1 9.9 312.2 10.3 311.5 11 Z M 334.9 9.4 C 336 10.4 336.4 11.8 336.4 13.5 C 336.45 13.5 336.4 22.9 336.4 22.9 L 334.3 22.9 C 334.3 22.9 334.29 13.83 334.3 13.8 C 334.3 11.2 332.9 9.9 330.7 9.9 C 328.4 9.9 327 11.2 327 13.8 C 326.97 13.83 327 22.9 327 22.9 L 324.8 22.9 L 324.8 8.2 L 326.9 8.2 C 326.9 8.2 326.94 9.81 326.9 9.8 C 328 8.6 329.5 8 331.1 8 C 332.7 8 334 8.5 334.9 9.4 Z M 351.8 9.4 C 352.9 10.4 353.3 11.8 353.3 13.5 C 353.34 13.5 353.3 22.9 353.3 22.9 L 351.2 22.9 C 351.2 22.9 351.18 13.83 351.2 13.8 C 351.2 11.2 349.8 9.9 347.5 9.9 C 345.3 9.9 343.9 11.2 343.9 13.8 C 343.86 13.83 343.9 22.9 343.9 22.9 L 341.7 22.9 L 341.7 8.2 L 343.8 8.2 C 343.8 8.2 343.83 9.81 343.8 9.8 C 344.9 8.6 346.3 8 348 8 C 349.6 8 350.9 8.5 351.8 9.4 Z M 369.9 15.1 C 369.9 15.15 369.9 16.1 369.9 16.1 C 369.9 16.1 359.94 16.11 359.9 16.1 C 359.9 19.3 361.4 21.2 364.3 21.2 C 366 21.2 367 20.7 368.2 19.5 C 368.2 19.5 369.6 20.8 369.6 20.8 C 368.1 22.3 366.7 23.1 364.2 23.1 C 360.3 23.1 357.8 20.8 357.8 15.5 C 357.8 10.7 360.1 8 363.8 8 C 367.7 8 369.9 10.7 369.9 15.1 Z M 360.4 12 C 360 12.8 360 13.3 359.9 14.5 C 359.9 14.5 367.8 14.5 367.8 14.5 C 367.7 13.3 367.6 12.8 367.3 12 C 366.7 10.7 365.4 9.8 363.8 9.8 C 362.2 9.8 361 10.7 360.4 12 Z M 385.1 10.2 C 385.1 10.2 383.6 11.5 383.6 11.5 C 382.5 10.3 381.7 9.9 380.2 9.9 C 378.8 9.9 377.6 10.5 376.8 11.6 C 376.1 12.5 375.9 13.7 375.9 15.5 C 375.9 17.4 376.1 18.5 376.8 19.5 C 377.6 20.6 378.8 21.2 380.2 21.2 C 381.7 21.2 382.5 20.7 383.6 19.5 C 383.6 19.5 385.1 20.9 385.1 20.9 C 383.6 22.6 382.3 23.1 380.2 23.1 C 376.5 23.1 373.7 20.6 373.7 15.5 C 373.7 10.5 376.5 8 380.2 8 C 382.3 8 383.6 8.5 385.1 10.2 Z M 391.7 8.2 L 394.9 8.2 L 394.9 9.8 L 391.7 9.8 C 391.7 9.8 391.74 18.9 391.7 18.9 C 391.7 20.3 392.4 21.1 393.7 21.1 C 393.75 21.06 394.9 21.1 394.9 21.1 L 394.9 22.9 C 394.9 22.9 393.36 22.92 393.4 22.9 C 390.8 22.9 389.6 21.1 389.6 19 C 389.58 18.96 389.6 9.8 389.6 9.8 L 387.7 9.8 L 387.7 8.2 L 389.6 8.2 L 389.6 3.6 L 391.7 3.6 L 391.7 8.2 Z M 401.3 22.9 L 399.2 22.9 L 399.2 8.2 L 401.3 8.2 L 401.3 22.9 Z M 401.5 4 L 399.1 4 L 399.1 1.5 L 401.5 1.5 L 401.5 4 Z M 416.2 9.7 C 417.7 11.2 418 13.3 418 15.5 C 418 17.8 417.7 19.9 416.2 21.4 C 415.2 22.5 413.8 23.1 412 23.1 C 410.2 23.1 408.8 22.5 407.8 21.4 C 406.3 19.9 406 17.8 406 15.5 C 406 13.3 406.3 11.2 407.8 9.7 C 408.8 8.6 410.2 8 412 8 C 413.8 8 415.2 8.6 416.2 9.7 Z M 409.3 11 C 408.3 12.1 408.1 13.9 408.1 15.5 C 408.1 17.2 408.2 19 409.3 20.1 C 410.1 20.8 411 21.2 412 21.2 C 413.1 21.2 414 20.8 414.7 20.1 C 415.8 19 415.9 17.2 415.9 15.5 C 415.9 13.9 415.8 12.1 414.7 11 C 414 10.3 413.1 9.9 412 9.9 C 411 9.9 410.1 10.3 409.3 11 Z M 432.8 9.4 C 433.8 10.4 434.3 11.8 434.3 13.5 C 434.3 13.5 434.3 22.9 434.3 22.9 L 432.1 22.9 C 432.1 22.9 432.14 13.83 432.1 13.8 C 432.1 11.2 430.7 9.9 428.5 9.9 C 426.3 9.9 424.8 11.2 424.8 13.8 C 424.82 13.83 424.8 22.9 424.8 22.9 L 422.7 22.9 L 422.7 8.2 L 424.8 8.2 C 424.8 8.2 424.79 9.81 424.8 9.8 C 425.8 8.6 427.3 8 429 8 C 430.6 8 431.9 8.5 432.8 9.4 Z M 449.5 8.2 L 452.7 8.2 L 452.7 9.8 L 449.5 9.8 C 449.5 9.8 449.54 18.9 449.5 18.9 C 449.5 20.3 450.2 21.1 451.6 21.1 C 451.55 21.06 452.7 21.1 452.7 21.1 L 452.7 22.9 C 452.7 22.9 451.16 22.92 451.2 22.9 C 448.6 22.9 447.4 21.1 447.4 19 C 447.38 18.96 447.4 9.8 447.4 9.8 L 445.5 9.8 L 445.5 8.2 L 447.4 8.2 L 447.4 3.6 L 449.5 3.6 L 449.5 8.2 Z M 466.3 9.7 C 467.8 11.2 468.1 13.3 468.1 15.5 C 468.1 17.8 467.8 19.9 466.3 21.4 C 465.3 22.5 463.9 23.1 462.1 23.1 C 460.3 23.1 458.9 22.5 457.9 21.4 C 456.4 19.9 456.1 17.8 456.1 15.5 C 456.1 13.3 456.4 11.2 457.9 9.7 C 458.9 8.6 460.3 8 462.1 8 C 463.9 8 465.3 8.6 466.3 9.7 Z M 459.4 11 C 458.3 12.1 458.2 13.9 458.2 15.5 C 458.2 17.2 458.3 19 459.4 20.1 C 460.1 20.8 461 21.2 462.1 21.2 C 463.1 21.2 464.1 20.8 464.8 20.1 C 465.9 19 466 17.2 466 15.5 C 466 13.9 465.9 12.1 464.8 11 C 464.1 10.3 463.1 9.9 462.1 9.9 C 461 9.9 460.1 10.3 459.4 11 Z M 482.7 8.2 L 485.9 8.2 L 485.9 9.8 L 482.7 9.8 C 482.7 9.8 482.72 18.9 482.7 18.9 C 482.7 20.3 483.4 21.1 484.7 21.1 C 484.73 21.06 485.9 21.1 485.9 21.1 L 485.9 22.9 C 485.9 22.9 484.34 22.92 484.3 22.9 C 481.8 22.9 480.6 21.1 480.6 19 C 480.56 18.96 480.6 9.8 480.6 9.8 L 478.7 9.8 L 478.7 8.2 L 480.6 8.2 L 480.6 3.6 L 482.7 3.6 L 482.7 8.2 Z M 492.3 9.8 C 493.4 8.6 494.8 8 496.5 8 C 498.1 8 499.4 8.5 500.3 9.4 C 501.3 10.4 501.8 11.8 501.8 13.5 C 501.77 13.5 501.8 22.9 501.8 22.9 L 499.6 22.9 C 499.6 22.9 499.61 13.83 499.6 13.8 C 499.6 11.2 498.2 9.9 496 9.9 C 493.8 9.9 492.3 11.2 492.3 13.8 C 492.32 13.83 492.3 22.9 492.3 22.9 L 490.2 22.9 L 490.2 1.6 L 492.3 1.6 C 492.3 1.6 492.32 9.81 492.3 9.8 Z M 518.3 15.1 C 518.33 15.15 518.3 16.1 518.3 16.1 C 518.3 16.1 508.37 16.11 508.4 16.1 C 508.4 19.3 509.9 21.2 512.7 21.2 C 514.4 21.2 515.4 20.7 516.6 19.5 C 516.6 19.5 518.1 20.8 518.1 20.8 C 516.6 22.3 515.2 23.1 512.7 23.1 C 508.7 23.1 506.2 20.8 506.2 15.5 C 506.2 10.7 508.5 8 512.3 8 C 516.1 8 518.3 10.7 518.3 15.1 Z M 508.8 12 C 508.5 12.8 508.4 13.3 508.4 14.5 C 508.4 14.5 516.2 14.5 516.2 14.5 C 516.1 13.3 516.1 12.8 515.7 12 C 515.1 10.7 513.9 9.8 512.3 9.8 C 510.7 9.8 509.5 10.7 508.8 12 Z M 540.4 9.6 C 540.4 9.6 539 11 539 11 C 537.9 10.2 536.6 9.8 535 9.8 C 532.9 9.8 531.7 10.7 531.7 12.2 C 531.7 13.6 532.6 14.2 534.4 14.4 C 534.4 14.4 536.7 14.6 536.7 14.6 C 539.3 14.8 541 15.8 541 18.6 C 541 21.4 538.6 23.1 535 23.1 C 532.5 23.1 530.6 22.5 529 21 C 529 21 530.4 19.5 530.4 19.5 C 531.6 20.7 533.2 21.2 535 21.2 C 537.5 21.2 538.9 20.4 538.9 18.6 C 538.9 17.3 538.2 16.6 536.5 16.5 C 536.5 16.5 534.1 16.3 534.1 16.3 C 531.2 16 529.6 14.8 529.6 12.3 C 529.6 9.6 531.9 8 535.1 8 C 537.2 8 539 8.5 540.4 9.6 Z M 547.5 8.2 L 550.7 8.2 L 550.7 9.8 L 547.5 9.8 C 547.5 9.8 547.52 18.9 547.5 18.9 C 547.5 20.3 548.2 21.1 549.5 21.1 C 549.53 21.06 550.7 21.1 550.7 21.1 L 550.7 22.9 C 550.7 22.9 549.14 22.92 549.1 22.9 C 546.6 22.9 545.4 21.1 545.4 19 C 545.36 18.96 545.4 9.8 545.4 9.8 L 543.5 9.8 L 543.5 8.2 L 545.4 8.2 L 545.4 3.6 L 547.5 3.6 L 547.5 8.2 Z M 565.3 12.9 C 565.34 12.9 565.3 22.9 565.3 22.9 L 563.2 22.9 C 563.2 22.9 563.18 21.51 563.2 21.5 C 562 22.7 560.9 23.1 558.9 23.1 C 556.9 23.1 555.8 22.7 554.8 21.7 C 554 21 553.6 19.9 553.6 18.7 C 553.6 16.1 555.5 14.5 558.8 14.5 C 558.77 14.49 563.2 14.5 563.2 14.5 C 563.2 14.5 563.18 13.08 563.2 13.1 C 563.2 10.9 562.1 9.8 559.4 9.8 C 557.5 9.8 556.6 10.3 555.7 11.5 C 555.7 11.5 554.2 10.2 554.2 10.2 C 555.5 8.5 557 8 559.4 8 C 563.4 8 565.3 9.7 565.3 12.9 Z M 559.1 16.1 C 556.9 16.1 555.7 17 555.7 18.7 C 555.7 20.4 556.8 21.2 559.2 21.2 C 560.4 21.2 561.5 21.1 562.4 20.2 C 562.9 19.8 563.2 18.9 563.2 17.7 C 563.18 17.7 563.2 16.1 563.2 16.1 C 563.2 16.1 559.07 16.11 559.1 16.1 Z M 573.1 8.2 L 576.3 8.2 L 576.3 9.8 L 573.1 9.8 C 573.1 9.8 573.11 18.9 573.1 18.9 C 573.1 20.3 573.7 21.1 575.1 21.1 C 575.12 21.06 576.3 21.1 576.3 21.1 L 576.3 22.9 C 576.3 22.9 574.73 22.92 574.7 22.9 C 572.2 22.9 571 21.1 571 19 C 570.95 18.96 571 9.8 571 9.8 L 569.1 9.8 L 569.1 8.2 L 571 8.2 L 571 3.6 L 573.1 3.6 L 573.1 8.2 Z M 591.7 15.1 C 591.71 15.15 591.7 16.1 591.7 16.1 C 591.7 16.1 581.75 16.11 581.8 16.1 C 581.8 19.3 583.3 21.2 586.1 21.2 C 587.8 21.2 588.8 20.7 590 19.5 C 590 19.5 591.4 20.8 591.4 20.8 C 589.9 22.3 588.5 23.1 586 23.1 C 582.1 23.1 579.6 20.8 579.6 15.5 C 579.6 10.7 581.9 8 585.7 8 C 589.5 8 591.7 10.7 591.7 15.1 Z M 582.2 12 C 581.8 12.8 581.8 13.3 581.8 14.5 C 581.8 14.5 589.6 14.5 589.6 14.5 C 589.5 13.3 589.5 12.8 589.1 12 C 588.5 10.7 587.2 9.8 585.7 9.8 C 584.1 9.8 582.8 10.7 582.2 12 Z M 613.3 9.7 C 614.8 11.2 615.1 13.3 615.1 15.5 C 615.1 17.8 614.8 19.9 613.3 21.4 C 612.2 22.5 610.8 23.1 609 23.1 C 607.2 23.1 605.8 22.5 604.8 21.4 C 603.3 19.9 603 17.8 603 15.5 C 603 13.3 603.3 11.2 604.8 9.7 C 605.8 8.6 607.2 8 609 8 C 610.8 8 612.2 8.6 613.3 9.7 Z M 606.4 11 C 605.3 12.1 605.2 13.9 605.2 15.5 C 605.2 17.2 605.2 19 606.4 20.1 C 607.1 20.8 608 21.2 609 21.2 C 610.1 21.2 611 20.8 611.7 20.1 C 612.8 19 612.9 17.2 612.9 15.5 C 612.9 13.9 612.8 12.1 611.7 11 C 611 10.3 610.1 9.9 609 9.9 C 608 9.9 607.1 10.3 606.4 11 Z M 625.5 3.4 C 625.5 3.4 624.29 3.39 624.3 3.4 C 622.9 3.4 622.3 4.2 622.3 5.5 C 622.31 5.55 622.3 8.2 622.3 8.2 L 625.5 8.2 L 625.5 9.8 L 622.3 9.8 L 622.3 22.9 L 620.2 22.9 L 620.2 9.8 L 618.3 9.8 L 618.3 8.2 L 620.2 8.2 C 620.2 8.2 620.15 5.49 620.2 5.5 C 620.2 3.3 621.4 1.5 623.9 1.5 C 623.9 1.53 625.5 1.5 625.5 1.5 L 625.5 3.4 Z M 646.6 9.6 C 646.6 9.6 645.1 11 645.1 11 C 644.1 10.2 642.7 9.8 641.2 9.8 C 639.1 9.8 637.9 10.7 637.9 12.2 C 637.9 13.6 638.7 14.2 640.6 14.4 C 640.6 14.4 642.9 14.6 642.9 14.6 C 645.4 14.8 647.2 15.8 647.2 18.6 C 647.2 21.4 644.8 23.1 641.2 23.1 C 638.7 23.1 636.7 22.5 635.2 21 C 635.2 21 636.6 19.5 636.6 19.5 C 637.7 20.7 639.4 21.2 641.2 21.2 C 643.6 21.2 645.1 20.4 645.1 18.6 C 645.1 17.3 644.4 16.6 642.7 16.5 C 642.7 16.5 640.2 16.3 640.2 16.3 C 637.3 16 635.8 14.8 635.8 12.3 C 635.8 9.6 638.1 8 641.2 8 C 643.4 8 645.2 8.5 646.6 9.6 Z M 660.9 9.7 C 662.4 11.2 662.7 13.3 662.7 15.5 C 662.7 17.8 662.4 19.9 660.9 21.4 C 659.9 22.5 658.5 23.1 656.7 23.1 C 654.9 23.1 653.5 22.5 652.5 21.4 C 651 19.9 650.7 17.8 650.7 15.5 C 650.7 13.3 651 11.2 652.5 9.7 C 653.5 8.6 654.9 8 656.7 8 C 658.5 8 659.9 8.6 660.9 9.7 Z M 654 11 C 652.9 12.1 652.8 13.9 652.8 15.5 C 652.8 17.2 652.9 19 654 20.1 C 654.7 20.8 655.6 21.2 656.7 21.2 C 657.7 21.2 658.7 20.8 659.4 20.1 C 660.5 19 660.6 17.2 660.6 15.5 C 660.6 13.9 660.5 12.1 659.4 11 C 658.7 10.3 657.7 9.9 656.7 9.9 C 655.6 9.9 654.7 10.3 654 11 Z M 669.4 18.9 C 669.4 20.3 669.9 21.1 671.4 21.1 C 671.42 21.06 672.6 21.1 672.6 21.1 L 672.6 22.9 C 672.6 22.9 671.03 22.92 671 22.9 C 668.5 22.9 667.3 21.2 667.3 19 C 667.28 18.99 667.3 1.6 667.3 1.6 L 669.4 1.6 C 669.4 1.6 669.44 18.9 669.4 18.9 Z M 678.4 22.9 L 676.3 22.9 L 676.3 8.2 L 678.4 8.2 L 678.4 22.9 Z M 678.6 4 L 676.1 4 L 676.1 1.5 L 678.6 1.5 L 678.6 4 Z M 694.5 10.2 C 694.5 10.2 693 11.5 693 11.5 C 691.9 10.3 691 9.9 689.6 9.9 C 688.2 9.9 687 10.5 686.2 11.6 C 685.5 12.5 685.2 13.7 685.2 15.5 C 685.2 17.4 685.5 18.5 686.2 19.5 C 687 20.6 688.2 21.2 689.6 21.2 C 691 21.2 691.9 20.7 693 19.5 C 693 19.5 694.5 20.9 694.5 20.9 C 692.9 22.6 691.6 23.1 689.6 23.1 C 685.9 23.1 683.1 20.6 683.1 15.5 C 683.1 10.5 685.9 8 689.6 8 C 691.6 8 692.9 8.5 694.5 10.2 Z M 700.7 22.9 L 698.6 22.9 L 698.6 8.2 L 700.7 8.2 L 700.7 22.9 Z M 700.9 4 L 698.5 4 L 698.5 1.5 L 700.9 1.5 L 700.9 4 Z M 708.7 8.2 L 711.8 8.2 L 711.8 9.8 L 708.7 9.8 C 708.7 9.8 708.68 18.9 708.7 18.9 C 708.7 20.3 709.3 21.1 710.7 21.1 C 710.69 21.06 711.8 21.1 711.8 21.1 L 711.8 22.9 C 711.8 22.9 710.3 22.92 710.3 22.9 C 707.8 22.9 706.5 21.1 706.5 19 C 706.52 18.96 706.5 9.8 706.5 9.8 L 704.7 9.8 L 704.7 8.2 L 706.5 8.2 L 706.5 3.6 L 708.7 3.6 L 708.7 8.2 Z M 726.5 12.9 C 726.5 12.9 726.5 22.9 726.5 22.9 L 724.3 22.9 C 724.3 22.9 724.34 21.51 724.3 21.5 C 723.2 22.7 722.1 23.1 720.1 23.1 C 718 23.1 716.9 22.7 715.9 21.7 C 715.2 21 714.8 19.9 714.8 18.7 C 714.8 16.1 716.6 14.5 719.9 14.5 C 719.93 14.49 724.3 14.5 724.3 14.5 C 724.3 14.5 724.34 13.08 724.3 13.1 C 724.3 10.9 723.3 9.8 720.6 9.8 C 718.7 9.8 717.7 10.3 716.8 11.5 C 716.8 11.5 715.4 10.2 715.4 10.2 C 716.7 8.5 718.2 8 720.6 8 C 724.6 8 726.5 9.7 726.5 12.9 Z M 720.2 16.1 C 718 16.1 716.9 17 716.9 18.7 C 716.9 20.4 717.9 21.2 720.3 21.2 C 721.5 21.2 722.6 21.1 723.6 20.2 C 724.1 19.8 724.3 18.9 724.3 17.7 C 724.34 17.7 724.3 16.1 724.3 16.1 C 724.3 16.1 720.23 16.11 720.2 16.1 Z M 734.3 8.2 L 737.4 8.2 L 737.4 9.8 L 734.3 9.8 C 734.3 9.8 734.27 18.9 734.3 18.9 C 734.3 20.3 734.9 21.1 736.3 21.1 C 736.28 21.06 737.4 21.1 737.4 21.1 L 737.4 22.9 C 737.4 22.9 735.89 22.92 735.9 22.9 C 733.4 22.9 732.1 21.1 732.1 19 C 732.11 18.96 732.1 9.8 732.1 9.8 L 730.2 9.8 L 730.2 8.2 L 732.1 8.2 L 732.1 3.6 L 734.3 3.6 L 734.3 8.2 Z M 743.9 22.9 L 741.7 22.9 L 741.7 8.2 L 743.9 8.2 L 743.9 22.9 Z M 744 4 L 741.6 4 L 741.6 1.5 L 744 1.5 L 744 4 Z M 758.8 9.7 C 760.3 11.2 760.6 13.3 760.6 15.5 C 760.6 17.8 760.3 19.9 758.8 21.4 C 757.8 22.5 756.3 23.1 754.5 23.1 C 752.7 23.1 751.3 22.5 750.3 21.4 C 748.8 19.9 748.5 17.8 748.5 15.5 C 748.5 13.3 748.8 11.2 750.3 9.7 C 751.3 8.6 752.7 8 754.5 8 C 756.3 8 757.8 8.6 758.8 9.7 Z M 751.9 11 C 750.8 12.1 750.7 13.9 750.7 15.5 C 750.7 17.2 750.8 19 751.9 20.1 C 752.6 20.8 753.5 21.2 754.5 21.2 C 755.6 21.2 756.5 20.8 757.2 20.1 C 758.3 19 758.4 17.2 758.4 15.5 C 758.4 13.9 758.3 12.1 757.2 11 C 756.5 10.3 755.6 9.9 754.5 9.9 C 753.5 9.9 752.6 10.3 751.9 11 Z M 775.3 9.4 C 776.4 10.4 776.8 11.8 776.8 13.5 C 776.84 13.5 776.8 22.9 776.8 22.9 L 774.7 22.9 C 774.7 22.9 774.68 13.83 774.7 13.8 C 774.7 11.2 773.3 9.9 771 9.9 C 768.8 9.9 767.4 11.2 767.4 13.8 C 767.36 13.83 767.4 22.9 767.4 22.9 L 765.2 22.9 L 765.2 8.2 L 767.3 8.2 C 767.3 8.2 767.33 9.81 767.3 9.8 C 768.4 8.6 769.8 8 771.5 8 C 773.1 8 774.4 8.5 775.3 9.4 Z M 784.8 22.9 L 782 22.9 L 782 20.1 L 784.8 20.1 L 784.8 22.9 Z M 810.5 3.6 L 804.3 3.6 L 804.3 22.9 L 802 22.9 L 802 3.6 L 795.9 3.6 L 795.9 1.6 L 810.5 1.6 L 810.5 3.6 Z M 816.3 9.8 C 817.3 8.6 818.7 8 820.4 8 C 822 8 823.3 8.5 824.2 9.4 C 825.3 10.4 825.7 11.8 825.7 13.5 C 825.71 13.5 825.7 22.9 825.7 22.9 L 823.5 22.9 C 823.5 22.9 823.55 13.83 823.5 13.8 C 823.5 11.2 822.2 9.9 819.9 9.9 C 817.7 9.9 816.3 11.2 816.3 13.8 C 816.26 13.83 816.3 22.9 816.3 22.9 L 814.1 22.9 L 814.1 1.6 L 816.3 1.6 C 816.3 1.6 816.26 9.81 816.3 9.8 Z M 833.1 22.9 L 831 22.9 L 831 8.2 L 833.1 8.2 L 833.1 22.9 Z M 833.3 4 L 830.8 4 L 830.8 1.5 L 833.3 1.5 L 833.3 4 Z M 848.5 9.6 C 848.5 9.6 847.1 11 847.1 11 C 846.1 10.2 844.7 9.8 843.2 9.8 C 841 9.8 839.9 10.7 839.9 12.2 C 839.9 13.6 840.7 14.2 842.5 14.4 C 842.5 14.4 844.8 14.6 844.8 14.6 C 847.4 14.8 849.2 15.8 849.2 18.6 C 849.2 21.4 846.8 23.1 843.2 23.1 C 840.7 23.1 838.7 22.5 837.1 21 C 837.1 21 838.6 19.5 838.6 19.5 C 839.7 20.7 841.3 21.2 843.2 21.2 C 845.6 21.2 847.1 20.4 847.1 18.6 C 847.1 17.3 846.4 16.6 844.6 16.5 C 844.6 16.5 842.2 16.3 842.2 16.3 C 839.3 16 837.8 14.8 837.8 12.3 C 837.8 9.6 840 8 843.2 8 C 845.4 8 847.2 8.5 848.5 9.6 Z M 871.5 10.2 C 871.5 10.2 870 11.5 870 11.5 C 868.9 10.3 868.1 9.9 866.7 9.9 C 865.2 9.9 864 10.5 863.2 11.6 C 862.5 12.5 862.3 13.7 862.3 15.5 C 862.3 17.4 862.5 18.5 863.2 19.5 C 864 20.6 865.2 21.2 866.7 21.2 C 868.1 21.2 868.9 20.7 870 19.5 C 870 19.5 871.5 20.9 871.5 20.9 C 870 22.6 868.7 23.1 866.7 23.1 C 862.9 23.1 860.1 20.6 860.1 15.5 C 860.1 10.5 862.9 8 866.7 8 C 868.7 8 870 8.5 871.5 10.2 Z M 886 12.9 C 886.01 12.9 886 22.9 886 22.9 L 883.8 22.9 C 883.8 22.9 883.85 21.51 883.8 21.5 C 882.7 22.7 881.6 23.1 879.6 23.1 C 877.5 23.1 876.4 22.7 875.4 21.7 C 874.7 21 874.3 19.9 874.3 18.7 C 874.3 16.1 876.1 14.5 879.4 14.5 C 879.44 14.49 883.8 14.5 883.8 14.5 C 883.8 14.5 883.85 13.08 883.8 13.1 C 883.8 10.9 882.8 9.8 880.1 9.8 C 878.2 9.8 877.2 10.3 876.3 11.5 C 876.3 11.5 874.9 10.2 874.9 10.2 C 876.2 8.5 877.7 8 880.1 8 C 884.1 8 886 9.7 886 12.9 Z M 879.7 16.1 C 877.5 16.1 876.4 17 876.4 18.7 C 876.4 20.4 877.5 21.2 879.8 21.2 C 881.1 21.2 882.1 21.1 883.1 20.2 C 883.6 19.8 883.8 18.9 883.8 17.7 C 883.85 17.7 883.8 16.1 883.8 16.1 C 883.8 16.1 879.74 16.11 879.7 16.1 Z M 901.4 9.4 C 902.4 10.4 902.9 11.8 902.9 13.5 C 902.9 13.5 902.9 22.9 902.9 22.9 L 900.7 22.9 C 900.7 22.9 900.74 13.83 900.7 13.8 C 900.7 11.2 899.3 9.9 897.1 9.9 C 894.9 9.9 893.4 11.2 893.4 13.8 C 893.42 13.83 893.4 22.9 893.4 22.9 L 891.3 22.9 L 891.3 8.2 L 893.4 8.2 C 893.4 8.2 893.39 9.81 893.4 9.8 C 894.4 8.6 895.9 8 897.6 8 C 899.1 8 900.5 8.5 901.4 9.4 Z M 917.8 22.9 L 915.6 22.9 L 915.6 8.2 L 917.8 8.2 L 917.8 22.9 Z M 917.9 4 L 915.5 4 L 915.5 1.5 L 917.9 1.5 L 917.9 4 Z M 933.3 9.4 C 934.4 10.4 934.8 11.8 934.8 13.5 C 934.85 13.5 934.8 22.9 934.8 22.9 L 932.7 22.9 C 932.7 22.9 932.69 13.83 932.7 13.8 C 932.7 11.2 931.3 9.9 929.1 9.9 C 926.8 9.9 925.4 11.2 925.4 13.8 C 925.37 13.83 925.4 22.9 925.4 22.9 L 923.2 22.9 L 923.2 8.2 L 925.3 8.2 C 925.3 8.2 925.34 9.81 925.3 9.8 C 926.4 8.6 927.9 8 929.5 8 C 931.1 8 932.4 8.5 933.3 9.4 Z M 950.7 10.2 C 950.7 10.2 949.2 11.5 949.2 11.5 C 948.1 10.3 947.3 9.9 945.9 9.9 C 944.4 9.9 943.2 10.5 942.4 11.6 C 941.7 12.5 941.5 13.7 941.5 15.5 C 941.5 17.4 941.7 18.5 942.4 19.5 C 943.2 20.6 944.4 21.2 945.9 21.2 C 947.3 21.2 948.1 20.7 949.2 19.5 C 949.2 19.5 950.7 20.9 950.7 20.9 C 949.2 22.6 947.9 23.1 945.9 23.1 C 942.1 23.1 939.3 20.6 939.3 15.5 C 939.3 10.5 942.1 8 945.9 8 C 947.9 8 949.2 8.5 950.7 10.2 Z M 956.9 18.9 C 956.9 20.3 957.4 21.1 958.9 21.1 C 958.91 21.06 960.1 21.1 960.1 21.1 L 960.1 22.9 C 960.1 22.9 958.52 22.92 958.5 22.9 C 955.9 22.9 954.8 21.2 954.8 19 C 954.77 18.99 954.8 1.6 954.8 1.6 L 956.9 1.6 C 956.9 1.6 956.93 18.9 956.9 18.9 Z M 975.2 22.9 L 973.1 22.9 C 973.1 22.9 973.1 21.27 973.1 21.3 C 972 22.5 970.6 23.1 968.9 23.1 C 967.3 23.1 966 22.6 965.1 21.7 C 964.1 20.7 963.6 19.3 963.6 17.6 C 963.59 17.58 963.6 8.2 963.6 8.2 L 965.7 8.2 C 965.7 8.2 965.75 17.25 965.7 17.2 C 965.7 19.9 967.2 21.2 969.4 21.2 C 971.6 21.2 973.1 19.8 973.1 17.2 C 973.07 17.25 973.1 8.2 973.1 8.2 L 975.2 8.2 L 975.2 22.9 Z M 991.6 22.9 L 989.4 22.9 C 989.4 22.9 989.41 21.18 989.4 21.2 C 988.2 22.7 986.9 23.1 985.2 23.1 C 983.7 23.1 982.4 22.6 981.6 21.8 C 980.2 20.3 979.8 17.9 979.8 15.5 C 979.8 13.2 980.2 10.8 981.6 9.3 C 982.4 8.5 983.7 8 985.2 8 C 986.9 8 988.2 8.4 989.4 9.9 C 989.41 9.9 989.4 1.6 989.4 1.6 L 991.6 1.6 L 991.6 22.9 Z M 982 15.5 C 982 18.4 982.5 21.2 985.7 21.2 C 988.9 21.2 989.4 18.4 989.4 15.5 C 989.4 12.7 988.9 9.9 985.7 9.9 C 982.5 9.9 982 12.7 982 15.5 Z M 1008.3 15.1 C 1008.28 15.15 1008.3 16.1 1008.3 16.1 C 1008.3 16.1 998.32 16.11 998.3 16.1 C 998.3 19.3 999.8 21.2 1002.7 21.2 C 1004.4 21.2 1005.4 20.7 1006.5 19.5 C 1006.5 19.5 1008 20.8 1008 20.8 C 1006.5 22.3 1005.1 23.1 1002.6 23.1 C 998.7 23.1 996.2 20.8 996.2 15.5 C 996.2 10.7 998.5 8 1002.2 8 C 1006.1 8 1008.3 10.7 1008.3 15.1 Z M 998.8 12 C 998.4 12.8 998.4 13.3 998.3 14.5 C 998.3 14.5 1006.2 14.5 1006.2 14.5 C 1006.1 13.3 1006 12.8 1005.7 12 C 1005 10.7 1003.8 9.8 1002.2 9.8 C 1000.6 9.8 999.4 10.7 998.8 12 Z M 1030.9 12.9 C 1030.87 12.9 1030.9 22.9 1030.9 22.9 L 1028.7 22.9 C 1028.7 22.9 1028.71 21.51 1028.7 21.5 C 1027.5 22.7 1026.4 23.1 1024.5 23.1 C 1022.4 23.1 1021.3 22.7 1020.3 21.7 C 1019.5 21 1019.2 19.9 1019.2 18.7 C 1019.2 16.1 1021 14.5 1024.3 14.5 C 1024.3 14.49 1028.7 14.5 1028.7 14.5 C 1028.7 14.5 1028.71 13.08 1028.7 13.1 C 1028.7 10.9 1027.7 9.8 1024.9 9.8 C 1023.1 9.8 1022.1 10.3 1021.2 11.5 C 1021.2 11.5 1019.7 10.2 1019.7 10.2 C 1021 8.5 1022.5 8 1025 8 C 1029 8 1030.9 9.7 1030.9 12.9 Z M 1024.6 16.1 C 1022.4 16.1 1021.3 17 1021.3 18.7 C 1021.3 20.4 1022.3 21.2 1024.7 21.2 C 1025.9 21.2 1027 21.1 1028 20.2 C 1028.5 19.8 1028.7 18.9 1028.7 17.7 C 1028.71 17.7 1028.7 16.1 1028.7 16.1 C 1028.7 16.1 1024.6 16.11 1024.6 16.1 Z " stroke="none" fill="#000"/>  </g></svg>