<?xml version="1.0" standalone="no"?><!DOCTYPE svg PUBLIC "-//W3C//DTD SVG 1.1//EN" "http://www.w3.org/Graphics/SVG/1.1/DTD/svg11.dtd"><svg xmlns="http://www.w3.org/2000/svg" version="1.1" width="640px" height="74.1358032226562px" viewBox="0 0 640 74.1358032226562">  <desc>What your client should bring to the meeting</desc>  <defs/>  <g id="Polygon25462">    <path d="M 46 41.9 L 42.9 41.9 L 39.5 30.7 L 36.1 41.9 L 33.1 41.9 L 28.2 23.4 L 31.9 23.4 L 34.8 35 L 38.2 23.4 L 40.9 23.4 L 44.3 35 L 47.1 23.4 L 50.9 23.4 L 46 41.9 Z M 60.8 41.9 C 60.8 41.9 60.84 33.67 60.8 33.7 C 60.8 31.8 59.7 31.2 58.6 31.2 C 57.5 31.2 56.3 31.8 56.3 33.7 C 56.34 33.67 56.3 41.9 56.3 41.9 L 53 41.9 L 53 23.4 L 56.3 23.4 C 56.3 23.4 56.34 29.57 56.3 29.6 C 57.2 28.6 58.3 28.2 59.6 28.2 C 61 28.2 62.1 28.6 62.8 29.4 C 63.9 30.4 64.2 31.7 64.2 33.2 C 64.22 33.21 64.2 41.9 64.2 41.9 L 60.8 41.9 Z M 78.1 32.9 C 78.1 32.95 78.1 41.9 78.1 41.9 L 74.8 41.9 C 74.8 41.9 74.8 40.69 74.8 40.7 C 73.9 41.6 73 42 71.5 42 C 69.9 42 68.8 41.6 68 40.8 C 67.3 40 66.9 39 66.9 37.8 C 66.9 35.6 68.4 33.8 71.6 33.8 C 71.58 33.83 74.7 33.8 74.7 33.8 C 74.7 33.8 74.72 33.15 74.7 33.2 C 74.7 31.7 74 31 72.2 31 C 71 31 70.3 31.4 69.6 32.2 C 69.6 32.2 67.5 30.1 67.5 30.1 C 68.8 28.6 70.1 28.2 72.3 28.2 C 76.2 28.2 78.1 29.8 78.1 32.9 Z M 72.1 36.1 C 70.8 36.1 70.1 36.7 70.1 37.7 C 70.1 38.6 70.8 39.2 72.2 39.2 C 73 39.2 73.6 39.1 74.2 38.6 C 74.6 38.2 74.7 37.7 74.7 36.9 C 74.72 36.87 74.7 36.1 74.7 36.1 C 74.7 36.1 72.15 36.14 72.1 36.1 Z M 85.4 28.7 L 87.8 28.7 L 87.8 31.3 L 85.4 31.3 C 85.4 31.3 85.43 37.78 85.4 37.8 C 85.4 38.6 85.8 39 86.6 39 C 86.6 39 87.8 39 87.8 39 L 87.8 41.9 C 87.8 41.9 85.98 41.86 86 41.9 C 83.2 41.9 82.1 39.9 82.1 38 C 82.05 37.99 82.1 31.3 82.1 31.3 L 80.6 31.3 L 80.6 28.7 L 82.1 28.7 L 82.1 24.7 L 85.4 24.7 L 85.4 28.7 Z M 102 44 C 101.7 44.8 101.3 45.4 101 45.8 C 100.2 46.6 99.2 46.8 98 46.8 C 98.04 46.83 96.7 46.8 96.7 46.8 L 96.7 43.8 C 96.7 43.8 97.5 43.79 97.5 43.8 C 98.5 43.8 98.8 43.5 99.2 42.6 C 99.19 42.57 99.8 40.9 99.8 40.9 L 95.1 28.3 L 98.7 28.3 L 101.5 36.7 L 104.2 28.3 L 107.8 28.3 C 107.8 28.3 101.97 44.05 102 44 Z M 119 40.4 C 118.1 41.2 116.8 42 114.8 42 C 112.8 42 111.5 41.2 110.6 40.4 C 109.4 39.1 109.1 37.5 109.1 35.1 C 109.1 32.6 109.4 31.1 110.6 29.8 C 111.5 28.9 112.8 28.2 114.8 28.2 C 116.8 28.2 118.1 28.9 119 29.8 C 120.2 31.1 120.5 32.6 120.5 35.1 C 120.5 37.5 120.2 39.1 119 40.4 Z M 116.4 31.8 C 116 31.4 115.5 31.2 114.8 31.2 C 114.1 31.2 113.6 31.4 113.2 31.8 C 112.5 32.5 112.4 33.7 112.4 35.1 C 112.4 36.5 112.5 37.7 113.2 38.4 C 113.6 38.8 114.1 39 114.8 39 C 115.5 39 116 38.8 116.4 38.4 C 117.1 37.7 117.2 36.5 117.2 35.1 C 117.2 33.7 117.1 32.5 116.4 31.8 Z M 134.9 41.9 L 131.6 41.9 C 131.6 41.9 131.56 40.62 131.6 40.6 C 130.7 41.6 129.4 42 128.2 42 C 126.9 42 125.8 41.6 125 40.8 C 123.9 39.7 123.6 38.5 123.6 37 C 123.6 36.98 123.6 28.3 123.6 28.3 L 127 28.3 C 127 28.3 126.98 36.51 127 36.5 C 127 38.4 128.2 39 129.2 39 C 130.3 39 131.5 38.4 131.5 36.5 C 131.48 36.51 131.5 28.3 131.5 28.3 L 134.9 28.3 L 134.9 41.9 Z M 148.6 29.4 C 148.6 29.4 146 32 146 32 C 145.5 31.5 145.1 31.2 144.2 31.2 C 143.2 31.2 142 32 142 33.7 C 142.04 33.7 142 41.9 142 41.9 L 138.7 41.9 L 138.7 28.3 L 142 28.3 C 142 28.3 141.96 29.62 142 29.6 C 142.6 28.8 143.9 28.2 145.4 28.2 C 146.7 28.2 147.6 28.5 148.6 29.4 Z M 166.5 30 C 166.5 30 164.2 32.3 164.2 32.3 C 163.5 31.5 162.9 31.2 162 31.2 C 161.2 31.2 160.6 31.5 160.1 32.1 C 159.6 32.7 159.3 33.6 159.3 35.1 C 159.3 36.5 159.6 37.4 160.1 38.1 C 160.6 38.7 161.2 39 162 39 C 162.9 39 163.5 38.6 164.2 37.9 C 164.2 37.9 166.5 40.2 166.5 40.2 C 165.3 41.4 163.9 42 162 42 C 159.3 42 155.9 40.6 155.9 35.1 C 155.9 29.6 159.3 28.2 162 28.2 C 163.9 28.2 165.3 28.7 166.5 30 Z M 172.4 37.8 C 172.4 38.6 172.7 39 173.5 39 C 173.55 39 174.8 39 174.8 39 L 174.8 41.9 C 174.8 41.9 172.92 41.86 172.9 41.9 C 170.1 41.9 169 39.9 169 38 C 168.97 37.99 169 23.4 169 23.4 L 172.4 23.4 C 172.4 23.4 172.35 37.78 172.4 37.8 Z M 180.9 41.9 L 177.6 41.9 L 177.6 28.7 L 180.9 28.7 L 180.9 41.9 Z M 181 26 L 177.5 26 L 177.5 23.2 L 181 23.2 L 181 26 Z M 195.8 34.7 C 195.83 34.71 195.8 36.1 195.8 36.1 C 195.8 36.1 187.35 36.14 187.4 36.1 C 187.4 37.9 188.4 39.2 190.3 39.2 C 191.8 39.2 192.5 38.7 193.4 37.9 C 193.4 37.9 195.4 39.9 195.4 39.9 C 194.1 41.3 192.7 42 190.3 42 C 187.1 42 184 40.6 184 35.1 C 184 30.7 186.4 28.2 189.9 28.2 C 193.7 28.2 195.8 30.9 195.8 34.7 Z M 187.6 32.4 C 187.4 32.9 187.4 33.2 187.4 33.8 C 187.4 33.8 192.5 33.8 192.5 33.8 C 192.4 33.2 192.4 32.9 192.2 32.4 C 191.8 31.6 191.1 31 189.9 31 C 188.8 31 188 31.6 187.6 32.4 Z M 208.8 29.4 C 209.9 30.5 210.2 31.7 210.2 33.2 C 210.21 33.21 210.2 41.9 210.2 41.9 L 206.8 41.9 C 206.8 41.9 206.83 33.67 206.8 33.7 C 206.8 31.8 205.7 31.2 204.6 31.2 C 203.5 31.2 202.3 31.8 202.3 33.7 C 202.33 33.67 202.3 41.9 202.3 41.9 L 198.9 41.9 L 198.9 28.3 L 202.2 28.3 C 202.2 28.3 202.25 29.57 202.2 29.6 C 203.1 28.6 204.4 28.2 205.6 28.2 C 207 28.2 208.1 28.6 208.8 29.4 Z M 217.5 28.7 L 219.9 28.7 L 219.9 31.3 L 217.5 31.3 C 217.5 31.3 217.54 37.78 217.5 37.8 C 217.5 38.6 217.9 39 218.7 39 C 218.71 39 219.9 39 219.9 39 L 219.9 41.9 C 219.9 41.9 218.08 41.86 218.1 41.9 C 215.3 41.9 214.2 39.9 214.2 38 C 214.16 37.99 214.2 31.3 214.2 31.3 L 212.7 31.3 L 212.7 28.7 L 214.2 28.7 L 214.2 24.7 L 217.5 24.7 L 217.5 28.7 Z M 238.8 29.7 C 238.8 29.7 236.7 31.9 236.7 31.9 C 235.9 31.2 234.8 30.9 233.6 30.9 C 232.2 30.9 231.7 31.6 231.7 32.2 C 231.7 32.9 232 33.3 233.1 33.4 C 233.1 33.4 235.2 33.6 235.2 33.6 C 237.9 33.9 239.2 35.3 239.2 37.6 C 239.2 40.6 236.7 42 233.5 42 C 231.3 42 229.4 41.8 227.7 40.1 C 227.7 40.1 229.9 37.9 229.9 37.9 C 231 39 232.5 39.1 233.5 39.1 C 234.7 39.1 235.9 38.7 235.9 37.7 C 235.9 37.1 235.6 36.6 234.5 36.5 C 234.5 36.5 232.4 36.3 232.4 36.3 C 229.9 36 228.4 35 228.4 32.5 C 228.4 29.6 230.9 28.2 233.6 28.2 C 235.8 28.2 237.5 28.6 238.8 29.7 Z M 249.9 41.9 C 249.9 41.9 249.93 33.67 249.9 33.7 C 249.9 31.8 248.8 31.2 247.7 31.2 C 246.6 31.2 245.4 31.8 245.4 33.7 C 245.44 33.67 245.4 41.9 245.4 41.9 L 242.1 41.9 L 242.1 23.4 L 245.4 23.4 C 245.4 23.4 245.44 29.57 245.4 29.6 C 246.3 28.6 247.4 28.2 248.7 28.2 C 250.1 28.2 251.2 28.6 251.9 29.4 C 253 30.4 253.3 31.7 253.3 33.2 C 253.31 33.21 253.3 41.9 253.3 41.9 L 249.9 41.9 Z M 266.3 40.4 C 265.5 41.2 264.1 42 262.1 42 C 260.1 42 258.8 41.2 257.9 40.4 C 256.7 39.1 256.4 37.5 256.4 35.1 C 256.4 32.6 256.7 31.1 257.9 29.8 C 258.8 28.9 260.1 28.2 262.1 28.2 C 264.1 28.2 265.5 28.9 266.3 29.8 C 267.5 31.1 267.8 32.6 267.8 35.1 C 267.8 37.5 267.6 39.1 266.3 40.4 Z M 263.7 31.8 C 263.3 31.4 262.8 31.2 262.1 31.2 C 261.5 31.2 260.9 31.4 260.5 31.8 C 259.8 32.5 259.8 33.7 259.8 35.1 C 259.8 36.5 259.8 37.7 260.5 38.4 C 260.9 38.8 261.5 39 262.1 39 C 262.8 39 263.3 38.8 263.7 38.4 C 264.4 37.7 264.5 36.5 264.5 35.1 C 264.5 33.7 264.4 32.5 263.7 31.8 Z M 282.2 41.9 L 278.9 41.9 C 278.9 41.9 278.87 40.62 278.9 40.6 C 278 41.6 276.7 42 275.5 42 C 274.2 42 273.1 41.6 272.3 40.8 C 271.2 39.7 270.9 38.5 270.9 37 C 270.92 36.98 270.9 28.3 270.9 28.3 L 274.3 28.3 C 274.3 28.3 274.3 36.51 274.3 36.5 C 274.3 38.4 275.5 39 276.5 39 C 277.6 39 278.8 38.4 278.8 36.5 C 278.79 36.51 278.8 28.3 278.8 28.3 L 282.2 28.3 L 282.2 41.9 Z M 289.2 37.8 C 289.2 38.6 289.6 39 290.4 39 C 290.42 39 291.7 39 291.7 39 L 291.7 41.9 C 291.7 41.9 289.79 41.86 289.8 41.9 C 287 41.9 285.8 39.9 285.8 38 C 285.84 37.99 285.8 23.4 285.8 23.4 L 289.2 23.4 C 289.2 23.4 289.22 37.78 289.2 37.8 Z M 304.9 41.9 L 301.6 41.9 C 301.6 41.9 301.65 40.59 301.6 40.6 C 300.7 41.6 299.7 42 298.3 42 C 296.9 42 295.7 41.6 295 40.8 C 293.7 39.5 293.6 37.4 293.6 35.1 C 293.6 32.8 293.7 30.7 295 29.4 C 295.7 28.6 296.9 28.2 298.3 28.2 C 299.6 28.2 300.7 28.5 301.6 29.5 C 301.57 29.51 301.6 23.4 301.6 23.4 L 304.9 23.4 L 304.9 41.9 Z M 297 35.1 C 297 37.3 297.2 39 299.3 39 C 301.3 39 301.6 37.3 301.6 35.1 C 301.6 32.9 301.3 31.2 299.3 31.2 C 297.2 31.2 297 32.9 297 35.1 Z M 318.2 29.5 C 319 28.5 320.1 28.2 321.5 28.2 C 322.8 28.2 324 28.6 324.7 29.4 C 326 30.7 326.1 32.8 326.1 35.1 C 326.1 37.4 326 39.5 324.7 40.8 C 324 41.6 322.8 42 321.4 42 C 320 42 319 41.6 318.1 40.6 C 318.05 40.59 318.1 41.9 318.1 41.9 L 314.8 41.9 L 314.8 23.4 L 318.2 23.4 C 318.2 23.4 318.16 29.51 318.2 29.5 Z M 318.2 35.1 C 318.2 37.3 318.4 39 320.4 39 C 322.5 39 322.8 37.3 322.8 35.1 C 322.8 32.9 322.5 31.2 320.4 31.2 C 318.4 31.2 318.2 32.9 318.2 35.1 Z M 339.3 29.4 C 339.3 29.4 336.7 32 336.7 32 C 336.2 31.5 335.8 31.2 335 31.2 C 333.9 31.2 332.7 32 332.7 33.7 C 332.74 33.7 332.7 41.9 332.7 41.9 L 329.4 41.9 L 329.4 28.3 L 332.7 28.3 C 332.7 28.3 332.66 29.62 332.7 29.6 C 333.3 28.8 334.6 28.2 336.1 28.2 C 337.4 28.2 338.3 28.5 339.3 29.4 Z M 344.6 41.9 L 341.2 41.9 L 341.2 28.7 L 344.6 28.7 L 344.6 41.9 Z M 344.6 26 L 341.1 26 L 341.1 23.2 L 344.6 23.2 L 344.6 26 Z M 358.2 29.4 C 359.3 30.5 359.6 31.7 359.6 33.2 C 359.6 33.21 359.6 41.9 359.6 41.9 L 356.2 41.9 C 356.2 41.9 356.22 33.67 356.2 33.7 C 356.2 31.8 355.1 31.2 354 31.2 C 352.9 31.2 351.7 31.8 351.7 33.7 C 351.72 33.67 351.7 41.9 351.7 41.9 L 348.3 41.9 L 348.3 28.3 L 351.6 28.3 C 351.6 28.3 351.64 29.57 351.6 29.6 C 352.5 28.6 353.8 28.2 355 28.2 C 356.4 28.2 357.5 28.6 358.2 29.4 Z M 370.6 29.6 C 370.6 29.59 370.6 28.3 370.6 28.3 L 373.9 28.3 C 373.9 28.3 373.87 41.37 373.9 41.4 C 373.9 44.6 371.6 47 367.9 47 C 365.8 47 364.4 46.6 363 45.2 C 363 45.2 365.1 43.1 365.1 43.1 C 365.9 43.8 366.6 44.1 367.8 44.1 C 369.8 44.1 370.5 42.7 370.5 41.3 C 370.5 41.3 370.5 39.9 370.5 39.9 C 369.6 40.9 368.6 41.3 367.3 41.3 C 365.9 41.3 364.8 40.8 364.1 40.1 C 362.8 38.8 362.7 37.1 362.7 34.7 C 362.7 32.3 362.8 30.6 364.1 29.4 C 364.8 28.6 365.9 28.2 367.3 28.2 C 368.7 28.2 369.7 28.6 370.6 29.6 Z M 366 34.7 C 366 36.5 366.3 38.2 368.3 38.2 C 370.3 38.2 370.5 36.5 370.5 34.7 C 370.5 32.9 370.3 31.2 368.3 31.2 C 366.3 31.2 366 32.9 366 34.7 Z M 387.4 28.7 L 389.8 28.7 L 389.8 31.3 L 387.4 31.3 C 387.4 31.3 387.39 37.78 387.4 37.8 C 387.4 38.6 387.8 39 388.6 39 C 388.56 39 389.8 39 389.8 39 L 389.8 41.9 C 389.8 41.9 387.94 41.86 387.9 41.9 C 385.2 41.9 384 39.9 384 38 C 384.01 37.99 384 31.3 384 31.3 L 382.6 31.3 L 382.6 28.7 L 384 28.7 L 384 24.7 L 387.4 24.7 L 387.4 28.7 Z M 402.1 40.4 C 401.2 41.2 399.9 42 397.9 42 C 395.9 42 394.5 41.2 393.7 40.4 C 392.5 39.1 392.2 37.5 392.2 35.1 C 392.2 32.6 392.5 31.1 393.7 29.8 C 394.5 28.9 395.9 28.2 397.9 28.2 C 399.9 28.2 401.2 28.9 402.1 29.8 C 403.3 31.1 403.6 32.6 403.6 35.1 C 403.6 37.5 403.3 39.1 402.1 40.4 Z M 399.5 31.8 C 399.1 31.4 398.5 31.2 397.9 31.2 C 397.2 31.2 396.7 31.4 396.3 31.8 C 395.6 32.5 395.5 33.7 395.5 35.1 C 395.5 36.5 395.6 37.7 396.3 38.4 C 396.7 38.8 397.2 39 397.9 39 C 398.5 39 399.1 38.8 399.5 38.4 C 400.2 37.7 400.2 36.5 400.2 35.1 C 400.2 33.7 400.2 32.5 399.5 31.8 Z M 416.6 28.7 L 419 28.7 L 419 31.3 L 416.6 31.3 C 416.6 31.3 416.57 37.78 416.6 37.8 C 416.6 38.6 416.9 39 417.7 39 C 417.74 39 419 39 419 39 L 419 41.9 C 419 41.9 417.11 41.86 417.1 41.9 C 414.4 41.9 413.2 39.9 413.2 38 C 413.19 37.99 413.2 31.3 413.2 31.3 L 411.8 31.3 L 411.8 28.7 L 413.2 28.7 L 413.2 24.7 L 416.6 24.7 L 416.6 28.7 Z M 429.9 41.9 C 429.9 41.9 429.9 33.67 429.9 33.7 C 429.9 31.8 428.7 31.2 427.7 31.2 C 426.6 31.2 425.4 31.8 425.4 33.7 C 425.41 33.67 425.4 41.9 425.4 41.9 L 422 41.9 L 422 23.4 L 425.4 23.4 C 425.4 23.4 425.41 29.57 425.4 29.6 C 426.3 28.6 427.4 28.2 428.7 28.2 C 430.1 28.2 431.2 28.6 431.9 29.4 C 433 30.4 433.3 31.7 433.3 33.2 C 433.28 33.21 433.3 41.9 433.3 41.9 L 429.9 41.9 Z M 448.1 34.7 C 448.05 34.71 448.1 36.1 448.1 36.1 C 448.1 36.1 439.58 36.14 439.6 36.1 C 439.6 37.9 440.6 39.2 442.5 39.2 C 444 39.2 444.7 38.7 445.6 37.9 C 445.6 37.9 447.7 39.9 447.7 39.9 C 446.3 41.3 445 42 442.5 42 C 439.3 42 436.2 40.6 436.2 35.1 C 436.2 30.7 438.6 28.2 442.1 28.2 C 445.9 28.2 448.1 30.9 448.1 34.7 Z M 439.9 32.4 C 439.6 32.9 439.6 33.2 439.6 33.8 C 439.6 33.8 444.7 33.8 444.7 33.8 C 444.7 33.2 444.6 32.9 444.4 32.4 C 444 31.6 443.3 31 442.1 31 C 441 31 440.2 31.6 439.9 32.4 Z M 474.9 29.4 C 476 30.4 476.3 31.7 476.3 33.2 C 476.34 33.21 476.3 41.9 476.3 41.9 L 473 41.9 C 473 41.9 472.96 33.67 473 33.7 C 473 31.8 471.8 31.2 470.7 31.2 C 469.7 31.2 468.5 31.8 468.5 33.6 C 468.46 33.6 468.5 41.9 468.5 41.9 L 465.1 41.9 C 465.1 41.9 465.08 33.67 465.1 33.7 C 465.1 31.8 463.9 31.2 462.8 31.2 C 461.8 31.2 460.6 31.8 460.6 33.7 C 460.58 33.67 460.6 41.9 460.6 41.9 L 457.2 41.9 L 457.2 28.3 L 460.5 28.3 C 460.5 28.3 460.5 29.57 460.5 29.6 C 461.4 28.6 462.7 28.2 463.9 28.2 C 465.4 28.2 466.6 28.7 467.5 29.9 C 468.6 28.7 469.8 28.2 471.5 28.2 C 472.9 28.2 474.1 28.6 474.9 29.4 Z M 491.1 34.7 C 491.11 34.71 491.1 36.1 491.1 36.1 C 491.1 36.1 482.63 36.14 482.6 36.1 C 482.6 37.9 483.7 39.2 485.6 39.2 C 487.1 39.2 487.8 38.7 488.6 37.9 C 488.6 37.9 490.7 39.9 490.7 39.9 C 489.3 41.3 488 42 485.6 42 C 482.3 42 479.3 40.6 479.3 35.1 C 479.3 30.7 481.7 28.2 485.2 28.2 C 489 28.2 491.1 30.9 491.1 34.7 Z M 482.9 32.4 C 482.7 32.9 482.7 33.2 482.6 33.8 C 482.6 33.8 487.8 33.8 487.8 33.8 C 487.7 33.2 487.7 32.9 487.5 32.4 C 487.1 31.6 486.3 31 485.2 31 C 484 31 483.3 31.6 482.9 32.4 Z M 505.4 34.7 C 505.35 34.71 505.4 36.1 505.4 36.1 C 505.4 36.1 496.88 36.14 496.9 36.1 C 496.9 37.9 497.9 39.2 499.8 39.2 C 501.3 39.2 502.1 38.7 502.9 37.9 C 502.9 37.9 505 39.9 505 39.9 C 503.6 41.3 502.3 42 499.8 42 C 496.6 42 493.6 40.6 493.6 35.1 C 493.6 30.7 495.9 28.2 499.5 28.2 C 503.2 28.2 505.4 30.9 505.4 34.7 Z M 497.2 32.4 C 496.9 32.9 496.9 33.2 496.9 33.8 C 496.9 33.8 502 33.8 502 33.8 C 502 33.2 501.9 32.9 501.7 32.4 C 501.4 31.6 500.6 31 499.5 31 C 498.3 31 497.5 31.6 497.2 32.4 Z M 512.2 28.7 L 514.6 28.7 L 514.6 31.3 L 512.2 31.3 C 512.2 31.3 512.17 37.78 512.2 37.8 C 512.2 38.6 512.5 39 513.3 39 C 513.34 39 514.6 39 514.6 39 L 514.6 41.9 C 514.6 41.9 512.71 41.86 512.7 41.9 C 510 41.9 508.8 39.9 508.8 38 C 508.79 37.99 508.8 31.3 508.8 31.3 L 507.4 31.3 L 507.4 28.7 L 508.8 28.7 L 508.8 24.7 L 512.2 24.7 L 512.2 28.7 Z M 521 41.9 L 517.6 41.9 L 517.6 28.7 L 521 28.7 L 521 41.9 Z M 521 26 L 517.6 26 L 517.6 23.2 L 521 23.2 L 521 26 Z M 534.7 29.4 C 535.7 30.5 536 31.7 536 33.2 C 536.03 33.21 536 41.9 536 41.9 L 532.7 41.9 C 532.7 41.9 532.65 33.67 532.7 33.7 C 532.7 31.8 531.5 31.2 530.4 31.2 C 529.3 31.2 528.2 31.8 528.2 33.7 C 528.16 33.67 528.2 41.9 528.2 41.9 L 524.8 41.9 L 524.8 28.3 L 528.1 28.3 C 528.1 28.3 528.08 29.57 528.1 29.6 C 529 28.6 530.2 28.2 531.5 28.2 C 532.8 28.2 533.9 28.6 534.7 29.4 Z M 547 29.6 C 547.03 29.59 547 28.3 547 28.3 L 550.3 28.3 C 550.3 28.3 550.31 41.37 550.3 41.4 C 550.3 44.6 548 47 544.4 47 C 542.3 47 540.8 46.6 539.4 45.2 C 539.4 45.2 541.6 43.1 541.6 43.1 C 542.3 43.8 543.1 44.1 544.2 44.1 C 546.3 44.1 546.9 42.7 546.9 41.3 C 546.9 41.3 546.9 39.9 546.9 39.9 C 546 40.9 545.1 41.3 543.7 41.3 C 542.4 41.3 541.3 40.8 540.5 40.1 C 539.2 38.8 539.1 37.1 539.1 34.7 C 539.1 32.3 539.2 30.6 540.5 29.4 C 541.3 28.6 542.4 28.2 543.7 28.2 C 545.2 28.2 546.1 28.6 547 29.6 Z M 542.5 34.7 C 542.5 36.5 542.7 38.2 544.7 38.2 C 546.7 38.2 546.9 36.5 546.9 34.7 C 546.9 32.9 546.7 31.2 544.7 31.2 C 542.7 31.2 542.5 32.9 542.5 34.7 Z " stroke="none" fill="#f9a41a"/>  </g></svg>