<?xml version="1.0" standalone="no"?><!DOCTYPE svg PUBLIC "-//W3C//DTD SVG 1.1//EN" "http://www.w3.org/Graphics/SVG/1.1/DTD/svg11.dtd"><svg xmlns="http://www.w3.org/2000/svg" version="1.1" width="525px" height="71.8556518554688px" viewBox="0 0 525 71.8556518554688">  <desc>What you can expect from Lincoln</desc>  <defs/>  <g id="Polygon27271">    <path d="M 4.5 2.4 L 7.9 28.7 L 12.9 2.4 L 17.1 2.4 L 22.1 28.7 L 25.5 2.4 L 29.8 2.4 L 24.1 35.1 L 20.1 35.1 L 15 8.8 L 9.9 35.1 L 5.9 35.1 L 0.2 2.4 L 4.5 2.4 Z M 36.3 13 C 36.7 12.5 37.2 12 37.7 11.7 C 38.4 11.2 39.3 10.9 40.2 10.9 C 42 10.9 43.3 11.5 44.3 12.7 C 45.3 13.8 45.7 15 45.7 17.6 C 45.72 17.62 45.7 35.1 45.7 35.1 L 42 35.1 C 42 35.1 42 17.62 42 17.6 C 42 15.4 40.7 14.3 39.1 14.3 C 37.6 14.3 36.3 15.4 36.3 17.6 C 36.34 17.62 36.3 35.1 36.3 35.1 L 32.6 35.1 L 32.6 2.4 L 36.3 2.4 C 36.3 2.4 36.34 13.02 36.3 13 Z M 61.1 12.6 C 62.2 13.8 63 15.4 63 17.8 C 62.97 17.85 63 35.1 63 35.1 L 59.4 35.1 C 59.4 35.1 59.43 33.03 59.4 33 C 59.1 33.7 58.5 34.3 58.1 34.6 C 57.3 35.2 56.5 35.5 55.2 35.5 C 53.5 35.5 52.3 35 51.2 33.7 C 50.2 32.7 49.6 30.9 49.6 28.4 C 49.6 26.2 50.4 24.2 51.7 23 C 52.9 21.9 54.3 21.4 56.8 21.4 C 56.81 21.39 59.2 21.4 59.2 21.4 C 59.2 21.4 59.25 17.62 59.2 17.6 C 59.2 15.4 58.3 14.2 56.4 14.2 C 55.6 14.2 55.1 14.5 54.6 15 C 54 15.7 53.7 16.5 53.7 17.8 C 53.7 17.8 50 17.8 50 17.8 C 50 15.9 50.4 14.1 51.8 12.7 C 52.9 11.6 54.6 10.9 56.4 10.9 C 58.4 10.9 60 11.5 61.1 12.6 Z M 57.1 24.1 C 56 24.1 55.2 24.3 54.5 25 C 53.8 25.6 53.4 27 53.4 28.2 C 53.4 30.7 54.3 32.2 56.3 32.2 C 58.1 32.2 59.2 30.7 59.2 28.5 C 59.25 28.52 59.2 24.1 59.2 24.1 C 59.2 24.1 57.13 24.1 57.1 24.1 Z M 71 33.7 C 69.6 32.6 68.9 30.8 68.9 28.3 C 68.91 28.34 68.9 14.2 68.9 14.2 L 66.2 14.2 L 66.2 11.3 L 68.9 11.3 L 68.9 4.8 L 72.6 4.8 L 72.6 11.3 L 76.3 11.3 L 76.3 14.2 L 72.6 14.2 C 72.6 14.2 72.63 28.2 72.6 28.2 C 72.6 30.7 74 31.8 76.5 31.8 C 76.5 31.8 76.5 35.1 76.5 35.1 C 74.3 35.1 72.5 35 71 33.7 Z M 94.9 39 C 93.8 43.2 90.9 44.1 86.9 44.1 C 86.9 44.1 86.9 40.8 86.9 40.8 C 89.2 40.8 90.7 40.2 91.2 38 C 91.22 38 92 35.1 92 35.1 L 86.2 11.3 L 90.3 11.3 L 93.9 29.2 L 97.5 11.3 L 101.6 11.3 C 101.6 11.3 94.85 38.96 94.9 39 Z M 115.5 13.2 C 117 15 117.2 18.4 117.2 23.2 C 117.2 28.1 117 31.4 115.5 33.3 C 114.3 34.9 112.6 35.5 110.4 35.5 C 108.3 35.5 106.6 34.9 105.4 33.3 C 104 31.4 103.7 28.1 103.7 23.2 C 103.7 18.4 104 15 105.4 13.2 C 106.6 11.5 108.3 10.9 110.4 10.9 C 112.6 10.9 114.3 11.5 115.5 13.2 Z M 108.4 15.3 C 107.5 16.5 107.4 19 107.4 23.2 C 107.4 27.5 107.5 29.9 108.4 31.1 C 108.8 31.8 109.6 32.2 110.4 32.2 C 111.3 32.2 112.1 31.8 112.6 31.1 C 113.4 29.9 113.5 27.5 113.5 23.2 C 113.5 19 113.4 16.5 112.6 15.3 C 112.1 14.7 111.3 14.3 110.4 14.3 C 109.6 14.3 108.8 14.7 108.4 15.3 Z M 134.6 35.1 L 131.1 35.1 C 131.1 35.1 131.05 33.3 131.1 33.3 C 130.7 33.9 130.1 34.5 129.6 34.8 C 128.8 35.2 128 35.5 127 35.5 C 125.2 35.5 124 34.9 123 33.8 C 122 32.7 121.5 31.4 121.5 28.8 C 121.53 28.84 121.5 11.3 121.5 11.3 L 125.3 11.3 C 125.3 11.3 125.26 28.84 125.3 28.8 C 125.3 31 126.5 32.2 128.1 32.2 C 129.7 32.2 130.9 31 130.9 28.8 C 130.91 28.84 130.9 11.3 130.9 11.3 L 134.6 11.3 L 134.6 35.1 Z M 149.5 13.2 C 150.7 11.5 152.5 10.9 154.5 10.9 C 156.4 10.9 157.9 11.4 159.2 12.6 C 160.6 13.9 161 15.9 161.1 17.9 C 161.1 17.9 157.4 17.9 157.4 17.9 C 157.4 17 157.3 16 156.6 15.2 C 156.1 14.6 155.5 14.3 154.6 14.3 C 153.7 14.3 152.9 14.7 152.4 15.3 C 151.6 16.5 151.5 18.9 151.5 23.2 C 151.5 27.6 151.6 30 152.4 31.2 C 152.9 31.8 153.7 32.2 154.6 32.2 C 155.5 32.2 156.1 31.9 156.6 31.3 C 157.3 30.5 157.4 29.5 157.4 28.5 C 157.4 28.5 161.1 28.5 161.1 28.5 C 161 30.5 160.6 32.5 159.2 33.9 C 157.9 35.1 156.4 35.5 154.5 35.5 C 152.5 35.5 150.7 34.9 149.5 33.3 C 148 31.4 147.7 28.1 147.7 23.2 C 147.7 18.4 148 15 149.5 13.2 Z M 175.4 12.6 C 176.5 13.8 177.3 15.4 177.3 17.8 C 177.28 17.85 177.3 35.1 177.3 35.1 L 173.7 35.1 C 173.7 35.1 173.74 33.03 173.7 33 C 173.4 33.7 172.8 34.3 172.4 34.6 C 171.6 35.2 170.8 35.5 169.6 35.5 C 167.8 35.5 166.6 35 165.5 33.7 C 164.5 32.7 163.9 30.9 163.9 28.4 C 163.9 26.2 164.7 24.2 166.1 23 C 167.3 21.9 168.6 21.4 171.1 21.4 C 171.12 21.39 173.6 21.4 173.6 21.4 C 173.6 21.4 173.56 17.62 173.6 17.6 C 173.6 15.4 172.6 14.2 170.7 14.2 C 169.9 14.2 169.4 14.5 168.9 15 C 168.3 15.7 168 16.5 168 17.8 C 168 17.8 164.3 17.8 164.3 17.8 C 164.3 15.9 164.7 14.1 166.1 12.7 C 167.2 11.6 168.9 10.9 170.7 10.9 C 172.7 10.9 174.3 11.5 175.4 12.6 Z M 171.4 24.1 C 170.3 24.1 169.5 24.3 168.8 25 C 168.1 25.6 167.7 27 167.7 28.2 C 167.7 30.7 168.6 32.2 170.6 32.2 C 172.4 32.2 173.6 30.7 173.6 28.5 C 173.56 28.52 173.6 24.1 173.6 24.1 C 173.6 24.1 171.44 24.1 171.4 24.1 Z M 194 12.7 C 195 13.8 195.5 15 195.5 17.6 C 195.45 17.62 195.5 35.1 195.5 35.1 L 191.7 35.1 C 191.7 35.1 191.73 17.62 191.7 17.6 C 191.7 15.5 190.4 14.3 188.9 14.3 C 187.3 14.3 186.1 15.5 186.1 17.6 C 186.07 17.62 186.1 35.1 186.1 35.1 L 182.3 35.1 L 182.3 11.3 L 185.9 11.3 C 185.9 11.3 185.93 13.16 185.9 13.2 C 186.3 12.6 186.9 12 187.4 11.7 C 188.1 11.2 189 10.9 190 10.9 C 191.8 10.9 193 11.5 194 12.7 Z M 212.1 24.1 C 212.1 27.9 212.2 30.1 213.1 31.1 C 213.5 31.7 214.2 32.2 215.2 32.2 C 216 32.2 216.7 31.9 217.3 31.2 C 217.9 30.5 218.1 29.6 218.1 28.5 C 218.1 28.5 221.8 28.5 221.8 28.5 C 221.8 30.7 221.2 32.3 219.9 33.8 C 218.7 35 217.1 35.5 215.2 35.5 C 213.2 35.5 211.7 35 210.4 33.7 C 208.7 31.8 208.3 28.2 208.3 23.2 C 208.3 18.2 208.7 14.7 210.4 12.8 C 211.6 11.5 213.2 10.9 215.1 10.9 C 217 10.9 218.5 11.5 219.8 12.8 C 221.6 14.7 221.9 18.2 221.9 24.1 C 221.9 24.1 212.1 24.1 212.1 24.1 Z M 217.2 15.3 C 216.7 14.7 216.1 14.3 215.1 14.3 C 214.1 14.3 213.5 14.7 213 15.3 C 212.3 16.1 212.1 17.8 212.1 21.3 C 212.1 21.3 218.1 21.3 218.1 21.3 C 218.1 17.8 217.9 16.1 217.2 15.3 Z M 224.1 11.3 L 228.2 11.3 L 231.4 19.5 L 234.6 11.3 L 238.7 11.3 L 233.5 23 L 239 35.1 L 234.9 35.1 L 231.3 26.7 L 227.9 35.1 L 223.8 35.1 L 229.2 23 L 224.1 11.3 Z M 255.5 23.2 C 255.5 28.9 255.3 31.9 253.8 33.8 C 252.7 35 251.5 35.5 249.8 35.5 C 248.8 35.5 248 35.3 247.2 34.8 C 246.8 34.5 246.3 34 245.9 33.5 C 245.91 33.49 245.9 44.1 245.9 44.1 L 242.2 44.1 L 242.2 11.3 L 245.8 11.3 C 245.8 11.3 245.82 13.16 245.8 13.2 C 246.1 12.6 246.8 12 247.2 11.7 C 248 11.2 248.8 10.9 249.8 10.9 C 251.5 10.9 252.7 11.5 253.8 12.7 C 255.3 14.5 255.5 17.6 255.5 23.2 Z M 245.9 17.8 C 245.9 17.8 245.9 28.7 245.9 28.7 C 245.9 30 246.2 30.8 246.8 31.4 C 247.3 31.9 248 32.2 248.8 32.2 C 249.6 32.2 250.3 31.8 250.8 31.2 C 251.7 30.2 251.8 28.2 251.8 23.2 C 251.8 18.3 251.7 16.3 250.8 15.3 C 250.3 14.7 249.6 14.3 248.8 14.3 C 248 14.3 247.3 14.5 246.8 15 C 246.2 15.6 245.9 16.5 245.9 17.8 Z M 263 24.1 C 263 27.9 263.2 30.1 264 31.1 C 264.4 31.7 265.1 32.2 266.1 32.2 C 266.9 32.2 267.6 31.9 268.2 31.2 C 268.8 30.5 269 29.6 269 28.5 C 269 28.5 272.7 28.5 272.7 28.5 C 272.7 30.7 272.1 32.3 270.8 33.8 C 269.6 35 268 35.5 266.1 35.5 C 264.1 35.5 262.6 35 261.4 33.7 C 259.6 31.8 259.3 28.2 259.3 23.2 C 259.3 18.2 259.6 14.7 261.3 12.8 C 262.6 11.5 264.1 10.9 266 10.9 C 267.9 10.9 269.5 11.5 270.7 12.8 C 272.5 14.7 272.8 18.2 272.8 24.1 C 272.8 24.1 263 24.1 263 24.1 Z M 268.1 15.3 C 267.7 14.7 267 14.3 266 14.3 C 265 14.3 264.4 14.7 263.9 15.3 C 263.2 16.1 263 17.8 263 21.3 C 263 21.3 269 21.3 269 21.3 C 269 17.8 268.9 16.1 268.1 15.3 Z M 278.3 13.2 C 279.5 11.5 281.3 10.9 283.4 10.9 C 285.3 10.9 286.8 11.4 288 12.6 C 289.5 13.9 289.9 15.9 289.9 17.9 C 289.9 17.9 286.2 17.9 286.2 17.9 C 286.2 17 286.1 16 285.5 15.2 C 285 14.6 284.3 14.3 283.4 14.3 C 282.5 14.3 281.7 14.7 281.3 15.3 C 280.4 16.5 280.3 18.9 280.3 23.2 C 280.3 27.6 280.4 30 281.3 31.2 C 281.7 31.8 282.5 32.2 283.4 32.2 C 284.3 32.2 285 31.9 285.5 31.3 C 286.1 30.5 286.2 29.5 286.2 28.5 C 286.2 28.5 289.9 28.5 289.9 28.5 C 289.9 30.5 289.5 32.5 288 33.9 C 286.8 35.1 285.3 35.5 283.4 35.5 C 281.3 35.5 279.5 34.9 278.3 33.3 C 276.9 31.4 276.6 28.1 276.6 23.2 C 276.6 18.4 276.9 15 278.3 13.2 Z M 297 33.7 C 295.7 32.6 294.9 30.8 294.9 28.3 C 294.95 28.34 294.9 14.2 294.9 14.2 L 292.2 14.2 L 292.2 11.3 L 294.9 11.3 L 294.9 4.8 L 298.7 4.8 L 298.7 11.3 L 302.4 11.3 L 302.4 14.2 L 298.7 14.2 C 298.7 14.2 298.67 28.2 298.7 28.2 C 298.7 30.7 300 31.8 302.5 31.8 C 302.5 31.8 302.5 35.1 302.5 35.1 C 300.4 35.1 298.5 35 297 33.7 Z M 322.9 5.6 C 320.5 5.6 319.2 6.8 319.2 9.2 C 319.23 9.15 319.2 11.3 319.2 11.3 L 322.9 11.3 L 322.9 14.2 L 319.2 14.2 L 319.2 35.1 L 315.5 35.1 L 315.5 14.2 L 312.8 14.2 L 312.8 11.3 L 315.5 11.3 C 315.5 11.3 315.51 9.02 315.5 9 C 315.5 6.5 316.2 4.8 317.6 3.7 C 319.1 2.5 320.9 2.2 322.9 2.2 C 322.9 2.2 322.9 5.6 322.9 5.6 Z M 335.5 14.5 C 335.5 14.5 334.37 14.54 334.4 14.5 C 331.8 14.5 330 16.2 330 18.9 C 330.04 18.91 330 35.1 330 35.1 L 326.3 35.1 L 326.3 11.3 L 329.9 11.3 C 329.9 11.3 329.91 13.85 329.9 13.8 C 330.3 13.2 331 12.6 331.6 12.1 C 332.7 11.4 334 10.9 335.5 10.9 C 335.47 10.95 335.5 14.5 335.5 14.5 Z M 349.7 13.2 C 351.2 15 351.4 18.4 351.4 23.2 C 351.4 28.1 351.2 31.4 349.7 33.3 C 348.5 34.9 346.7 35.5 344.6 35.5 C 342.5 35.5 340.8 34.9 339.6 33.3 C 338.1 31.4 337.9 28.1 337.9 23.2 C 337.9 18.4 338.1 15 339.6 13.2 C 340.8 11.5 342.5 10.9 344.6 10.9 C 346.7 10.9 348.5 11.5 349.7 13.2 Z M 342.6 15.3 C 341.7 16.5 341.6 19 341.6 23.2 C 341.6 27.5 341.7 29.9 342.6 31.1 C 343 31.8 343.8 32.2 344.6 32.2 C 345.5 32.2 346.3 31.8 346.7 31.1 C 347.6 29.9 347.7 27.5 347.7 23.2 C 347.7 19 347.6 16.5 346.7 15.3 C 346.3 14.7 345.5 14.3 344.6 14.3 C 343.8 14.3 343 14.7 342.6 15.3 Z M 377 12.7 C 378 13.8 378.4 15 378.4 17.6 C 378.39 17.62 378.4 35.1 378.4 35.1 L 374.7 35.1 C 374.7 35.1 374.66 17.62 374.7 17.6 C 374.7 15.5 373.4 14.3 371.9 14.3 C 370.3 14.3 369 15.5 369 17.6 C 369.01 17.62 369 35.1 369 35.1 L 365.3 35.1 C 365.3 35.1 365.28 17.62 365.3 17.6 C 365.3 15.5 364 14.3 362.4 14.3 C 360.9 14.3 359.6 15.5 359.6 17.6 C 359.62 17.62 359.6 35.1 359.6 35.1 L 355.9 35.1 L 355.9 11.3 L 359.5 11.3 C 359.5 11.3 359.48 13.16 359.5 13.2 C 359.8 12.6 360.5 12 361 11.7 C 361.7 11.2 362.6 10.9 363.5 10.9 C 365.4 10.9 367.1 12 368.1 13.4 C 368.6 12.8 369.3 12.1 370 11.7 C 370.8 11.3 371.9 10.9 372.7 10.9 C 374.8 10.9 376 11.5 377 12.7 Z M 396.3 31.6 L 405 31.6 L 405 35.1 L 392.4 35.1 L 392.4 2.4 L 396.3 2.4 L 396.3 31.6 Z M 412.4 35.1 L 408.7 35.1 L 408.7 11.3 L 412.4 11.3 L 412.4 35.1 Z M 412.7 7.1 L 408.3 7.1 L 408.3 2.8 L 412.7 2.8 L 412.7 7.1 Z M 429.3 12.7 C 430.3 13.8 430.7 15 430.7 17.6 C 430.74 17.62 430.7 35.1 430.7 35.1 L 427 35.1 C 427 35.1 427.01 17.62 427 17.6 C 427 15.5 425.7 14.3 424.2 14.3 C 422.6 14.3 421.4 15.5 421.4 17.6 C 421.35 17.62 421.4 35.1 421.4 35.1 L 417.6 35.1 L 417.6 11.3 L 421.2 11.3 C 421.2 11.3 421.22 13.16 421.2 13.2 C 421.5 12.6 422.2 12 422.7 11.7 C 423.4 11.2 424.3 10.9 425.3 10.9 C 427.1 10.9 428.3 11.5 429.3 12.7 Z M 436.8 13.2 C 438 11.5 439.8 10.9 441.8 10.9 C 443.8 10.9 445.2 11.4 446.5 12.6 C 447.9 13.9 448.4 15.9 448.4 17.9 C 448.4 17.9 444.7 17.9 444.7 17.9 C 444.7 17 444.6 16 443.9 15.2 C 443.4 14.6 442.8 14.3 441.9 14.3 C 441 14.3 440.2 14.7 439.8 15.3 C 438.9 16.5 438.8 18.9 438.8 23.2 C 438.8 27.6 438.9 30 439.8 31.2 C 440.2 31.8 441 32.2 441.9 32.2 C 442.8 32.2 443.4 31.9 443.9 31.3 C 444.6 30.5 444.7 29.5 444.7 28.5 C 444.7 28.5 448.4 28.5 448.4 28.5 C 448.4 30.5 447.9 32.5 446.5 33.9 C 445.2 35.1 443.8 35.5 441.8 35.5 C 439.8 35.5 438 34.9 436.8 33.3 C 435.3 31.4 435.1 28.1 435.1 23.2 C 435.1 18.4 435.3 15 436.8 13.2 Z M 463.6 13.2 C 465.1 15 465.3 18.4 465.3 23.2 C 465.3 28.1 465.1 31.4 463.6 33.3 C 462.4 34.9 460.7 35.5 458.6 35.5 C 456.5 35.5 454.7 34.9 453.6 33.3 C 452.1 31.4 451.8 28.1 451.8 23.2 C 451.8 18.4 452.1 15 453.6 13.2 C 454.7 11.5 456.5 10.9 458.6 10.9 C 460.7 10.9 462.4 11.5 463.6 13.2 Z M 456.5 15.3 C 455.6 16.5 455.5 19 455.5 23.2 C 455.5 27.5 455.6 29.9 456.5 31.1 C 457 31.8 457.7 32.2 458.6 32.2 C 459.4 32.2 460.2 31.8 460.7 31.1 C 461.6 29.9 461.6 27.5 461.6 23.2 C 461.6 19 461.6 16.5 460.7 15.3 C 460.2 14.7 459.4 14.3 458.6 14.3 C 457.7 14.3 457 14.7 456.5 15.3 Z M 473.4 28.2 C 473.4 30.5 474.5 31.8 476.9 31.8 C 476.9 31.8 476.9 35.1 476.9 35.1 C 474.9 35.1 473.2 34.9 471.8 33.7 C 470.5 32.6 469.7 31 469.7 28.3 C 469.65 28.34 469.7 2.4 469.7 2.4 L 473.4 2.4 C 473.4 2.4 473.38 28.2 473.4 28.2 Z M 492 12.7 C 493 13.8 493.4 15 493.4 17.6 C 493.43 17.62 493.4 35.1 493.4 35.1 L 489.7 35.1 C 489.7 35.1 489.71 17.62 489.7 17.6 C 489.7 15.5 488.4 14.3 486.9 14.3 C 485.3 14.3 484.1 15.5 484.1 17.6 C 484.05 17.62 484.1 35.1 484.1 35.1 L 480.3 35.1 L 480.3 11.3 L 483.9 11.3 C 483.9 11.3 483.91 13.16 483.9 13.2 C 484.2 12.6 484.9 12 485.4 11.7 C 486.1 11.2 487 10.9 488 10.9 C 489.8 10.9 491 11.5 492 12.7 Z " stroke="none" fill="#f9a41a"/>  </g></svg>