<?xml version="1.0" standalone="no"?><!DOCTYPE svg PUBLIC "-//W3C//DTD SVG 1.1//EN" "http://www.w3.org/Graphics/SVG/1.1/DTD/svg11.dtd"><svg xmlns="http://www.w3.org/2000/svg" version="1.1" width="234px" height="157.079772949219px" viewBox="0 0 234 157.079772949219">  <desc>Step 5 Policy Placement</desc>  <defs/>  <g id="Polygon22047">    <path d="M 11.1 37.6 C 14.8 37.6 17.6 39.8 17.6 43.7 C 17.6 47.6 14.8 49.9 11.1 49.9 C 11.13 49.86 4.9 49.9 4.9 49.9 L 4.9 58.9 L 3.3 58.9 L 3.3 37.6 C 3.3 37.6 11.13 37.56 11.1 37.6 Z M 4.9 39 L 4.9 48.4 C 4.9 48.4 10.95 48.42 10.9 48.4 C 13.9 48.4 16 46.9 16 43.7 C 16 40.5 13.9 39 10.9 39 C 10.95 39 4.9 39 4.9 39 Z M 30.5 45.9 C 32.1 47.4 32.3 49.6 32.3 51.7 C 32.3 53.8 32.1 56 30.5 57.5 C 29.5 58.6 28.1 59.1 26.5 59.1 C 24.9 59.1 23.6 58.6 22.5 57.5 C 21 56 20.7 53.8 20.7 51.7 C 20.7 49.6 21 47.4 22.5 45.9 C 23.6 44.8 24.9 44.3 26.5 44.3 C 28.1 44.3 29.5 44.8 30.5 45.9 Z M 23.5 46.9 C 22.3 48.1 22.2 50 22.2 51.7 C 22.2 53.4 22.3 55.3 23.5 56.5 C 24.3 57.3 25.4 57.7 26.5 57.7 C 27.7 57.7 28.7 57.3 29.5 56.5 C 30.7 55.3 30.8 53.4 30.8 51.7 C 30.8 50 30.7 48.1 29.5 46.9 C 28.7 46 27.7 45.6 26.5 45.6 C 25.4 45.6 24.3 46 23.5 46.9 Z M 38.8 55.1 C 38.8 56.8 39.3 57.6 41 57.6 C 41.01 57.57 42.1 57.6 42.1 57.6 L 42.1 58.9 C 42.1 58.9 40.74 58.92 40.7 58.9 C 38.4 58.9 37.3 57.4 37.3 55.2 C 37.26 55.17 37.3 37.6 37.3 37.6 L 38.8 37.6 C 38.8 37.6 38.79 55.14 38.8 55.1 Z M 47.5 58.9 L 45.9 58.9 L 45.9 44.5 L 47.5 44.5 L 47.5 58.9 Z M 47.6 39.4 L 45.7 39.4 L 45.7 37.6 L 47.6 37.6 L 47.6 39.4 Z M 63.6 46.5 C 63.6 46.5 62.5 47.5 62.5 47.5 C 61.3 46.1 60.3 45.6 58.8 45.6 C 57.1 45.6 55.8 46.3 55 47.5 C 54.2 48.6 54 49.7 54 51.7 C 54 53.6 54.2 54.8 55 55.8 C 55.8 57.1 57.1 57.7 58.8 57.7 C 60.3 57.7 61.3 57.3 62.5 55.9 C 62.5 55.9 63.6 56.9 63.6 56.9 C 62 58.6 60.8 59.1 58.8 59.1 C 54.8 59.1 52.4 56.3 52.4 51.7 C 52.4 47.1 54.8 44.3 58.8 44.3 C 60.8 44.3 62 44.8 63.6 46.5 Z M 70.8 63.2 C 70.5 64 70.2 64.6 69.8 64.9 C 69.1 65.6 68 65.8 67.1 65.8 C 67.08 65.82 66.4 65.8 66.4 65.8 L 66.4 64.5 C 66.4 64.5 66.93 64.47 66.9 64.5 C 68.6 64.5 69.1 63.9 69.6 62.5 C 69.57 62.49 70.9 58.9 70.9 58.9 L 65.6 44.5 L 67.3 44.5 L 71.6 57.1 L 76 44.5 L 77.6 44.5 C 77.6 44.5 70.8 63.21 70.8 63.2 Z M 96.8 37.6 C 100.5 37.6 103.3 39.8 103.3 43.7 C 103.3 47.6 100.5 49.9 96.8 49.9 C 96.84 49.86 90.6 49.9 90.6 49.9 L 90.6 58.9 L 89 58.9 L 89 37.6 C 89 37.6 96.84 37.56 96.8 37.6 Z M 90.6 39 L 90.6 48.4 C 90.6 48.4 96.66 48.42 96.7 48.4 C 99.6 48.4 101.7 46.9 101.7 43.7 C 101.7 40.5 99.6 39 96.7 39 C 96.66 39 90.6 39 90.6 39 Z M 109 55.1 C 109 56.8 109.5 57.6 111.2 57.6 C 111.24 57.57 112.3 57.6 112.3 57.6 L 112.3 58.9 C 112.3 58.9 110.97 58.92 111 58.9 C 108.6 58.9 107.5 57.4 107.5 55.2 C 107.49 55.17 107.5 37.6 107.5 37.6 L 109 37.6 C 109 37.6 109.02 55.14 109 55.1 Z M 126.2 49 C 126.18 49.02 126.2 58.9 126.2 58.9 L 124.6 58.9 C 124.6 58.9 124.65 57.48 124.6 57.5 C 123.4 58.7 122.3 59.1 120.2 59.1 C 118.1 59.1 116.9 58.7 116 57.8 C 115.3 57.1 114.9 56 114.9 55 C 114.9 52.3 116.8 50.8 120 50.8 C 119.97 50.79 124.6 50.8 124.6 50.8 C 124.6 50.8 124.65 49.17 124.6 49.2 C 124.6 46.9 123.5 45.6 120.6 45.6 C 118.5 45.6 117.5 46.1 116.6 47.5 C 116.6 47.5 115.5 46.5 115.5 46.5 C 116.7 44.8 118.2 44.3 120.6 44.3 C 124.4 44.3 126.2 46 126.2 49 Z M 120.1 52 C 117.7 52 116.5 53 116.5 54.9 C 116.5 56.8 117.6 57.7 120.2 57.7 C 121.6 57.7 122.8 57.6 123.8 56.6 C 124.4 56.1 124.6 55.2 124.6 53.9 C 124.65 53.88 124.6 52 124.6 52 C 124.6 52 120.15 52.02 120.1 52 Z M 142.2 46.5 C 142.2 46.5 141.1 47.5 141.1 47.5 C 139.9 46.1 138.9 45.6 137.4 45.6 C 135.7 45.6 134.4 46.3 133.6 47.5 C 132.8 48.6 132.6 49.7 132.6 51.7 C 132.6 53.6 132.8 54.8 133.6 55.8 C 134.4 57.1 135.7 57.7 137.4 57.7 C 138.9 57.7 139.9 57.3 141.1 55.9 C 141.1 55.9 142.2 56.9 142.2 56.9 C 140.6 58.6 139.4 59.1 137.4 59.1 C 133.4 59.1 131 56.3 131 51.7 C 131 47.1 133.4 44.3 137.4 44.3 C 139.4 44.3 140.6 44.8 142.2 46.5 Z M 157 51.3 C 156.96 51.33 157 52 157 52 C 157 52 146.91 52.02 146.9 52 C 146.9 55.7 148.5 57.7 151.6 57.7 C 153.3 57.7 154.4 57.2 155.6 56 C 155.6 56 156.7 56.9 156.7 56.9 C 155.3 58.3 153.9 59.1 151.5 59.1 C 147.5 59.1 145.4 56.5 145.4 51.7 C 145.4 47 147.5 44.3 151.2 44.3 C 154.8 44.3 157 46.9 157 51.3 Z M 147.4 48.1 C 147 48.9 147 49.4 146.9 50.8 C 146.9 50.8 155.4 50.8 155.4 50.8 C 155.3 49.4 155.3 48.9 154.9 48.1 C 154.3 46.5 152.8 45.6 151.2 45.6 C 149.5 45.6 148.1 46.6 147.4 48.1 Z M 181.1 45.7 C 182.1 46.6 182.7 48 182.7 49.7 C 182.67 49.68 182.7 58.9 182.7 58.9 L 181.1 58.9 C 181.1 58.9 181.14 49.95 181.1 49.9 C 181.1 47.2 179.8 45.6 177.1 45.6 C 174.6 45.6 173.1 47.2 173.1 49.7 C 173.07 49.68 173.1 58.9 173.1 58.9 L 171.5 58.9 C 171.5 58.9 171.54 49.95 171.5 49.9 C 171.5 47.2 170.2 45.6 167.5 45.6 C 164.9 45.6 163.5 47.2 163.5 49.9 C 163.47 49.95 163.5 58.9 163.5 58.9 L 161.9 58.9 L 161.9 44.5 L 163.5 44.5 C 163.5 44.5 163.47 46.17 163.5 46.2 C 164.5 44.9 166 44.3 167.8 44.3 C 169.9 44.3 171.5 45.2 172.4 46.9 C 173.5 45.2 175.2 44.3 177.3 44.3 C 178.9 44.3 180.2 44.8 181.1 45.7 Z M 199 51.3 C 199.05 51.33 199 52 199 52 C 199 52 189 52.02 189 52 C 189 55.7 190.6 57.7 193.7 57.7 C 195.4 57.7 196.5 57.2 197.7 56 C 197.7 56 198.8 56.9 198.8 56.9 C 197.4 58.3 196 59.1 193.6 59.1 C 189.6 59.1 187.5 56.5 187.5 51.7 C 187.5 47 189.6 44.3 193.3 44.3 C 196.9 44.3 199 46.9 199 51.3 Z M 189.5 48.1 C 189.1 48.9 189.1 49.4 189 50.8 C 189 50.8 197.5 50.8 197.5 50.8 C 197.4 49.4 197.4 48.9 197 48.1 C 196.4 46.5 194.9 45.6 193.3 45.6 C 191.6 45.6 190.2 46.6 189.5 48.1 Z M 213.7 45.7 C 214.6 46.6 215.2 48 215.2 49.7 C 215.16 49.68 215.2 58.9 215.2 58.9 L 213.6 58.9 C 213.6 58.9 213.63 49.95 213.6 49.9 C 213.6 47.2 212.2 45.6 209.6 45.6 C 207 45.6 205.6 47.2 205.6 49.9 C 205.56 49.95 205.6 58.9 205.6 58.9 L 204 58.9 L 204 44.5 L 205.6 44.5 C 205.6 44.5 205.56 46.17 205.6 46.2 C 206.6 44.9 208 44.3 209.8 44.3 C 211.4 44.3 212.7 44.7 213.7 45.7 Z M 222.7 44.5 L 226 44.5 L 226 45.6 L 222.7 45.6 C 222.7 45.6 222.69 55.17 222.7 55.2 C 222.7 56.7 223.4 57.6 224.9 57.6 C 224.91 57.57 226 57.6 226 57.6 L 226 58.9 C 226 58.9 224.64 58.92 224.6 58.9 C 222.4 58.9 221.2 57.3 221.2 55.1 C 221.16 55.14 221.2 45.6 221.2 45.6 L 219.2 45.6 L 219.2 44.5 L 221.2 44.5 L 221.2 39.8 L 222.7 39.8 L 222.7 44.5 Z " stroke="none" fill="#000"/>  </g>  <g id="Polygon22046">    <path d="M 15.4 3.8 C 15.4 3.8 13.3 5.8 13.3 5.8 C 12 4.6 10.5 4.2 8.6 4.2 C 6.1 4.2 4.8 5.6 4.8 7.5 C 4.8 8.3 5 9 5.5 9.5 C 6.1 10 6.7 10.3 7.9 10.5 C 7.9 10.5 10.4 10.9 10.4 10.9 C 12.4 11.2 13.5 11.6 14.4 12.4 C 15.5 13.5 16.1 15 16.1 16.8 C 16.1 20.8 13 23.1 8.5 23.1 C 5.3 23.1 3 22.3 0.9 20.3 C 0.9 20.3 3 18.1 3 18.1 C 4.6 19.7 6.4 20.2 8.5 20.2 C 11.3 20.2 12.9 19 12.9 16.9 C 12.9 16 12.7 15.2 12.1 14.7 C 11.6 14.2 10.8 13.9 9.8 13.8 C 9.8 13.8 7.2 13.4 7.2 13.4 C 5.5 13.2 4.1 12.6 3.2 11.7 C 2.2 10.8 1.6 9.4 1.6 7.6 C 1.6 3.9 4.3 1.4 8.8 1.4 C 11.6 1.4 13.6 2.1 15.4 3.8 Z M 23.5 7.7 L 26.5 7.7 L 26.5 10 L 23.5 10 C 23.5 10 23.55 18.54 23.5 18.5 C 23.5 19.7 24.1 20.3 25.2 20.3 C 25.23 20.31 26.5 20.3 26.5 20.3 L 26.5 22.9 C 26.5 22.9 24.66 22.92 24.7 22.9 C 21.8 22.9 20.5 20.9 20.5 18.7 C 20.49 18.69 20.5 10 20.5 10 L 18.7 10 L 18.7 7.7 L 20.5 7.7 L 20.5 3.4 L 23.5 3.4 L 23.5 7.7 Z M 32.5 16.2 C 32.5 18.8 33.8 20.5 36.4 20.5 C 38.1 20.5 39 20 40.1 18.9 C 40.1 18.9 42 20.7 42 20.7 C 40.4 22.3 39 23.1 36.3 23.1 C 32.5 23.1 29.5 21.1 29.5 15.3 C 29.5 10.3 32 7.5 35.9 7.5 C 40 7.5 42.4 10.5 42.4 14.9 C 42.36 14.91 42.4 16.2 42.4 16.2 C 42.4 16.2 32.49 16.2 32.5 16.2 Z M 38.9 12 C 38.4 10.9 37.4 10.1 35.9 10.1 C 34.4 10.1 33.4 10.9 32.9 12 C 32.6 12.7 32.5 13.1 32.5 14.1 C 32.5 14.1 39.3 14.1 39.3 14.1 C 39.3 13.1 39.2 12.7 38.9 12 Z M 57.2 8.9 C 58.6 10.4 58.9 12.8 58.9 15.3 C 58.9 17.8 58.6 20.2 57.2 21.7 C 56.3 22.6 55 23.1 53.5 23.1 C 51.9 23.1 50.6 22.7 49.5 21.4 C 49.5 21.36 49.5 29.1 49.5 29.1 L 46.4 29.1 L 46.4 7.7 L 49.4 7.7 C 49.4 7.7 49.44 9.33 49.4 9.3 C 50.6 7.9 51.8 7.5 53.5 7.5 C 55 7.5 56.3 8 57.2 8.9 Z M 49.5 15.3 C 49.5 18 49.9 20.4 52.7 20.4 C 55.4 20.4 55.8 18 55.8 15.3 C 55.8 12.6 55.4 10.3 52.7 10.3 C 49.9 10.3 49.5 12.6 49.5 15.3 Z M 71.3 21.4 C 70.2 20.3 69.8 18.9 69.7 17.4 C 69.7 17.4 72.7 17.4 72.7 17.4 C 73 19.3 73.9 20.3 75.9 20.3 C 76.8 20.3 77.5 20 78.1 19.5 C 79 18.6 79.1 17.2 79.1 15.7 C 79.1 13.2 78.4 11.3 76 11.3 C 74.2 11.3 73.3 12.2 73 13.2 C 72.96 13.23 70.2 13.2 70.2 13.2 L 70.2 1.6 L 81.7 1.6 L 81.7 4.3 L 72.9 4.3 C 72.9 4.3 72.93 9.93 72.9 9.9 C 73.6 9.2 74.9 8.7 76.5 8.7 C 78.1 8.7 79.4 9.2 80.3 10.1 C 81.9 11.7 82.2 13.7 82.2 15.7 C 82.2 18 81.9 19.9 80.4 21.4 C 79.4 22.4 77.9 23.1 75.9 23.1 C 73.8 23.1 72.2 22.4 71.3 21.4 Z " stroke="none" fill="#000"/>  </g></svg>