<?xml version="1.0" standalone="no"?><!DOCTYPE svg PUBLIC "-//W3C//DTD SVG 1.1//EN" "http://www.w3.org/Graphics/SVG/1.1/DTD/svg11.dtd"><svg xmlns="http://www.w3.org/2000/svg" version="1.1" width="204px" height="176.079772949219px" viewBox="0 0 204 176.079772949219">  <desc>Step 2 Prepare for your client meeting</desc>  <defs/>  <g id="Polygon20791">    <path d="M 22.1 117.7 C 23.1 118.6 23.6 120 23.6 121.7 C 23.64 121.68 23.6 130.9 23.6 130.9 L 22.1 130.9 C 22.1 130.9 22.11 121.95 22.1 121.9 C 22.1 119.2 20.7 117.6 18.1 117.6 C 15.6 117.6 14 119.2 14 121.7 C 14.04 121.68 14 130.9 14 130.9 L 12.5 130.9 C 12.5 130.9 12.51 121.95 12.5 121.9 C 12.5 119.2 11.1 117.6 8.5 117.6 C 5.9 117.6 4.4 119.2 4.4 121.9 C 4.44 121.95 4.4 130.9 4.4 130.9 L 2.9 130.9 L 2.9 116.5 L 4.4 116.5 C 4.4 116.5 4.44 118.17 4.4 118.2 C 5.5 116.9 7 116.3 8.7 116.3 C 10.9 116.3 12.5 117.2 13.4 118.9 C 14.5 117.2 16.1 116.3 18.3 116.3 C 19.9 116.3 21.2 116.8 22.1 117.7 Z M 40 123.3 C 40.02 123.33 40 124 40 124 C 40 124 29.97 124.02 30 124 C 30 127.7 31.6 129.7 34.7 129.7 C 36.4 129.7 37.4 129.2 38.7 128 C 38.7 128 39.8 128.9 39.8 128.9 C 38.3 130.3 37 131.1 34.6 131.1 C 30.6 131.1 28.4 128.5 28.4 123.7 C 28.4 119 30.6 116.3 34.2 116.3 C 37.9 116.3 40 118.9 40 123.3 Z M 30.5 120.1 C 30.1 120.9 30.1 121.4 30 122.8 C 30 122.8 38.5 122.8 38.5 122.8 C 38.4 121.4 38.4 120.9 38 120.1 C 37.3 118.5 35.9 117.6 34.2 117.6 C 32.5 117.6 31.2 118.6 30.5 120.1 Z M 55.7 123.3 C 55.74 123.33 55.7 124 55.7 124 C 55.7 124 45.69 124.02 45.7 124 C 45.7 127.7 47.3 129.7 50.4 129.7 C 52.1 129.7 53.2 129.2 54.4 128 C 54.4 128 55.5 128.9 55.5 128.9 C 54.1 130.3 52.7 131.1 50.3 131.1 C 46.3 131.1 44.2 128.5 44.2 123.7 C 44.2 119 46.3 116.3 49.9 116.3 C 53.6 116.3 55.7 118.9 55.7 123.3 Z M 46.2 120.1 C 45.8 120.9 45.8 121.4 45.7 122.8 C 45.7 122.8 54.2 122.8 54.2 122.8 C 54.1 121.4 54.1 120.9 53.7 120.1 C 53.1 118.5 51.6 117.6 49.9 117.6 C 48.3 117.6 46.9 118.6 46.2 120.1 Z M 62.6 116.5 L 65.9 116.5 L 65.9 117.6 L 62.6 117.6 C 62.6 117.6 62.61 127.17 62.6 127.2 C 62.6 128.7 63.3 129.6 64.8 129.6 C 64.83 129.57 65.9 129.6 65.9 129.6 L 65.9 130.9 C 65.9 130.9 64.56 130.92 64.6 130.9 C 62.3 130.9 61.1 129.3 61.1 127.1 C 61.08 127.14 61.1 117.6 61.1 117.6 L 59.1 117.6 L 59.1 116.5 L 61.1 116.5 L 61.1 111.8 L 62.6 111.8 L 62.6 116.5 Z M 72 130.9 L 70.5 130.9 L 70.5 116.5 L 72 116.5 L 72 130.9 Z M 72.2 111.4 L 70.3 111.4 L 70.3 109.6 L 72.2 109.6 L 72.2 111.4 Z M 87.4 117.7 C 88.4 118.6 88.9 120 88.9 121.7 C 88.95 121.68 88.9 130.9 88.9 130.9 L 87.4 130.9 C 87.4 130.9 87.42 121.95 87.4 121.9 C 87.4 119.2 86 117.6 83.4 117.6 C 80.8 117.6 79.3 119.2 79.3 121.9 C 79.35 121.95 79.3 130.9 79.3 130.9 L 77.8 130.9 L 77.8 116.5 L 79.3 116.5 C 79.3 116.5 79.35 118.17 79.3 118.2 C 80.4 116.9 81.8 116.3 83.6 116.3 C 85.2 116.3 86.5 116.7 87.4 117.7 Z M 103.4 118.3 C 103.44 118.32 103.4 116.5 103.4 116.5 L 105 116.5 C 105 116.5 104.97 131.73 105 131.7 C 105 135.4 102.8 138 99.1 138 C 96.9 138 95.8 137.4 94.3 136.1 C 94.3 136.1 95.3 135.1 95.3 135.1 C 96.4 136.1 97.2 136.6 99.1 136.6 C 102.1 136.6 103.4 134.5 103.4 131.6 C 103.4 131.6 103.4 129.1 103.4 129.1 C 102.1 130.7 100.8 131.1 99.1 131.1 C 97.6 131.1 96.4 130.6 95.6 129.8 C 94.1 128.4 93.7 126 93.7 123.7 C 93.7 121.4 94.1 119 95.6 117.5 C 96.4 116.8 97.6 116.3 99.1 116.3 C 100.8 116.3 102.1 116.6 103.4 118.3 Z M 95.3 123.7 C 95.3 126.7 95.8 129.7 99.4 129.7 C 102.9 129.7 103.4 126.7 103.4 123.7 C 103.4 120.7 102.9 117.6 99.4 117.6 C 95.8 117.6 95.3 120.7 95.3 123.7 Z " stroke="none" fill="#000"/>  </g>  <g id="Polygon20790">    <path d="M 5.6 99.2 C 5.4 100 5 100.6 4.7 100.9 C 3.9 101.6 2.9 101.8 1.9 101.8 C 1.92 101.82 1.2 101.8 1.2 101.8 L 1.2 100.5 C 1.2 100.5 1.77 100.47 1.8 100.5 C 3.4 100.5 3.9 99.9 4.4 98.5 C 4.41 98.49 5.7 94.9 5.7 94.9 L 0.4 80.5 L 2.1 80.5 L 6.4 93.1 L 10.8 80.5 L 12.5 80.5 C 12.5 80.5 5.64 99.21 5.6 99.2 Z M 24.7 81.9 C 26.2 83.4 26.5 85.6 26.5 87.7 C 26.5 89.8 26.2 92 24.7 93.5 C 23.6 94.6 22.3 95.1 20.6 95.1 C 19 95.1 17.7 94.6 16.6 93.5 C 15.1 92 14.8 89.8 14.8 87.7 C 14.8 85.6 15.1 83.4 16.6 81.9 C 17.7 80.8 19 80.3 20.6 80.3 C 22.3 80.3 23.6 80.8 24.7 81.9 Z M 17.6 82.9 C 16.4 84.1 16.4 86 16.4 87.7 C 16.4 89.4 16.4 91.3 17.6 92.5 C 18.5 93.3 19.5 93.7 20.6 93.7 C 21.8 93.7 22.8 93.3 23.6 92.5 C 24.8 91.3 24.9 89.4 24.9 87.7 C 24.9 86 24.8 84.1 23.6 82.9 C 22.8 82 21.8 81.6 20.6 81.6 C 19.5 81.6 18.5 82 17.6 82.9 Z M 42.4 94.9 L 40.9 94.9 C 40.9 94.9 40.86 93.21 40.9 93.2 C 39.8 94.5 38.4 95.1 36.6 95.1 C 35 95.1 33.7 94.6 32.8 93.7 C 31.8 92.8 31.3 91.4 31.3 89.7 C 31.26 89.7 31.3 80.5 31.3 80.5 L 32.8 80.5 C 32.8 80.5 32.79 89.43 32.8 89.4 C 32.8 92.2 34.2 93.7 36.8 93.7 C 39.4 93.7 40.9 92.2 40.9 89.4 C 40.86 89.43 40.9 80.5 40.9 80.5 L 42.4 80.5 L 42.4 94.9 Z M 57.4 81.7 C 57.4 81.7 56.3 82.8 56.3 82.8 C 55.5 81.9 54.8 81.6 53.6 81.6 C 51.1 81.6 49.7 83.7 49.7 86 C 49.74 86.01 49.7 94.9 49.7 94.9 L 48.2 94.9 L 48.2 80.5 L 49.7 80.5 C 49.7 80.5 49.74 82.38 49.7 82.4 C 50.6 81 52.3 80.3 54 80.3 C 55.4 80.3 56.4 80.6 57.4 81.7 Z M 78.4 82.5 C 78.4 82.5 77.4 83.5 77.4 83.5 C 76.1 82.1 75.2 81.6 73.6 81.6 C 72 81.6 70.7 82.3 69.8 83.5 C 69.1 84.6 68.8 85.7 68.8 87.7 C 68.8 89.6 69.1 90.8 69.8 91.8 C 70.7 93.1 72 93.7 73.6 93.7 C 75.2 93.7 76.1 93.3 77.4 91.9 C 77.4 91.9 78.4 92.9 78.4 92.9 C 76.9 94.6 75.6 95.1 73.6 95.1 C 69.7 95.1 67.3 92.3 67.3 87.7 C 67.3 83.1 69.7 80.3 73.6 80.3 C 75.6 80.3 76.9 80.8 78.4 82.5 Z M 84.4 91.1 C 84.4 92.8 84.9 93.6 86.6 93.6 C 86.61 93.57 87.7 93.6 87.7 93.6 L 87.7 94.9 C 87.7 94.9 86.34 94.92 86.3 94.9 C 84 94.9 82.9 93.4 82.9 91.2 C 82.86 91.17 82.9 73.6 82.9 73.6 L 84.4 73.6 C 84.4 73.6 84.39 91.14 84.4 91.1 Z M 93.1 94.9 L 91.5 94.9 L 91.5 80.5 L 93.1 80.5 L 93.1 94.9 Z M 93.2 75.4 L 91.3 75.4 L 91.3 73.6 L 93.2 73.6 L 93.2 75.4 Z M 109.6 87.3 C 109.62 87.33 109.6 88 109.6 88 C 109.6 88 99.57 88.02 99.6 88 C 99.6 91.7 101.2 93.7 104.3 93.7 C 106 93.7 107 93.2 108.3 92 C 108.3 92 109.4 92.9 109.4 92.9 C 107.9 94.3 106.6 95.1 104.2 95.1 C 100.2 95.1 98 92.5 98 87.7 C 98 83 100.2 80.3 103.8 80.3 C 107.5 80.3 109.6 82.9 109.6 87.3 Z M 100.1 84.1 C 99.7 84.9 99.7 85.4 99.6 86.8 C 99.6 86.8 108.1 86.8 108.1 86.8 C 108 85.4 108 84.9 107.6 84.1 C 106.9 82.5 105.5 81.6 103.8 81.6 C 102.1 81.6 100.8 82.6 100.1 84.1 Z M 124.2 81.7 C 125.2 82.6 125.7 84 125.7 85.7 C 125.73 85.68 125.7 94.9 125.7 94.9 L 124.2 94.9 C 124.2 94.9 124.2 85.95 124.2 85.9 C 124.2 83.2 122.8 81.6 120.2 81.6 C 117.6 81.6 116.1 83.2 116.1 85.9 C 116.13 85.95 116.1 94.9 116.1 94.9 L 114.6 94.9 L 114.6 80.5 L 116.1 80.5 C 116.1 80.5 116.13 82.17 116.1 82.2 C 117.2 80.9 118.6 80.3 120.4 80.3 C 122 80.3 123.3 80.7 124.2 81.7 Z M 133.3 80.5 L 136.5 80.5 L 136.5 81.6 L 133.3 81.6 C 133.3 81.6 133.26 91.17 133.3 91.2 C 133.3 92.7 133.9 93.6 135.5 93.6 C 135.48 93.57 136.5 93.6 136.5 93.6 L 136.5 94.9 C 136.5 94.9 135.21 94.92 135.2 94.9 C 132.9 94.9 131.7 93.3 131.7 91.1 C 131.73 91.14 131.7 81.6 131.7 81.6 L 129.7 81.6 L 129.7 80.5 L 131.7 80.5 L 131.7 75.8 L 133.3 75.8 L 133.3 80.5 Z " stroke="none" fill="#000"/>  </g>  <g id="Polygon20789">    <path d="M 11.1 37.6 C 14.8 37.6 17.6 39.8 17.6 43.7 C 17.6 47.6 14.8 49.9 11.1 49.9 C 11.13 49.86 4.9 49.9 4.9 49.9 L 4.9 58.9 L 3.3 58.9 L 3.3 37.6 C 3.3 37.6 11.13 37.56 11.1 37.6 Z M 4.9 39 L 4.9 48.4 C 4.9 48.4 10.95 48.42 10.9 48.4 C 13.9 48.4 16 46.9 16 43.7 C 16 40.5 13.9 39 10.9 39 C 10.95 39 4.9 39 4.9 39 Z M 31.1 45.7 C 31.1 45.7 30 46.8 30 46.8 C 29.1 45.9 28.4 45.6 27.2 45.6 C 24.7 45.6 23.4 47.7 23.4 50 C 23.37 50.01 23.4 58.9 23.4 58.9 L 21.8 58.9 L 21.8 44.5 L 23.4 44.5 C 23.4 44.5 23.37 46.38 23.4 46.4 C 24.2 45 25.9 44.3 27.6 44.3 C 29 44.3 30 44.6 31.1 45.7 Z M 43.9 51.3 C 43.95 51.33 43.9 52 43.9 52 C 43.9 52 33.9 52.02 33.9 52 C 33.9 55.7 35.5 57.7 38.6 57.7 C 40.3 57.7 41.4 57.2 42.6 56 C 42.6 56 43.7 56.9 43.7 56.9 C 42.3 58.3 40.9 59.1 38.5 59.1 C 34.5 59.1 32.4 56.5 32.4 51.7 C 32.4 47 34.5 44.3 38.2 44.3 C 41.8 44.3 43.9 46.9 43.9 51.3 Z M 34.4 48.1 C 34 48.9 34 49.4 33.9 50.8 C 33.9 50.8 42.4 50.8 42.4 50.8 C 42.3 49.4 42.3 48.9 41.9 48.1 C 41.3 46.5 39.8 45.6 38.2 45.6 C 36.5 45.6 35.1 46.6 34.4 48.1 Z M 58.3 45.5 C 59.8 47 60.1 49.4 60.1 51.7 C 60.1 54 59.8 56.4 58.3 57.8 C 57.5 58.6 56.3 59.1 54.7 59.1 C 53.1 59.1 51.7 58.7 50.5 57.1 C 50.46 57.06 50.5 65.8 50.5 65.8 L 48.9 65.8 L 48.9 44.5 L 50.5 44.5 C 50.5 44.5 50.46 46.32 50.5 46.3 C 51.7 44.6 53.1 44.3 54.7 44.3 C 56.3 44.3 57.5 44.8 58.3 45.5 Z M 50.5 51.7 C 50.5 54.7 51 57.7 54.5 57.7 C 58.1 57.7 58.6 54.7 58.6 51.7 C 58.6 48.7 58.1 45.6 54.5 45.6 C 51 45.6 50.5 48.7 50.5 51.7 Z M 75.1 49 C 75.15 49.02 75.1 58.9 75.1 58.9 L 73.6 58.9 C 73.6 58.9 73.62 57.48 73.6 57.5 C 72.4 58.7 71.2 59.1 69.2 59.1 C 67 59.1 65.9 58.7 64.9 57.8 C 64.3 57.1 63.9 56 63.9 55 C 63.9 52.3 65.8 50.8 68.9 50.8 C 68.94 50.79 73.6 50.8 73.6 50.8 C 73.6 50.8 73.62 49.17 73.6 49.2 C 73.6 46.9 72.5 45.6 69.5 45.6 C 67.5 45.6 66.5 46.1 65.5 47.5 C 65.5 47.5 64.4 46.5 64.4 46.5 C 65.7 44.8 67.2 44.3 69.5 44.3 C 73.4 44.3 75.1 46 75.1 49 Z M 69.1 52 C 66.7 52 65.4 53 65.4 54.9 C 65.4 56.8 66.6 57.7 69.2 57.7 C 70.5 57.7 71.8 57.6 72.8 56.6 C 73.3 56.1 73.6 55.2 73.6 53.9 C 73.62 53.88 73.6 52 73.6 52 C 73.6 52 69.12 52.02 69.1 52 Z M 90.1 45.7 C 90.1 45.7 89 46.8 89 46.8 C 88.1 45.9 87.4 45.6 86.2 45.6 C 83.8 45.6 82.4 47.7 82.4 50 C 82.38 50.01 82.4 58.9 82.4 58.9 L 80.8 58.9 L 80.8 44.5 L 82.4 44.5 C 82.4 44.5 82.38 46.38 82.4 46.4 C 83.2 45 84.9 44.3 86.6 44.3 C 88 44.3 89 44.6 90.1 45.7 Z M 103 51.3 C 102.96 51.33 103 52 103 52 C 103 52 92.91 52.02 92.9 52 C 92.9 55.7 94.5 57.7 97.6 57.7 C 99.3 57.7 100.4 57.2 101.6 56 C 101.6 56 102.7 56.9 102.7 56.9 C 101.3 58.3 99.9 59.1 97.5 59.1 C 93.5 59.1 91.4 56.5 91.4 51.7 C 91.4 47 93.5 44.3 97.2 44.3 C 100.8 44.3 103 46.9 103 51.3 Z M 93.4 48.1 C 93 48.9 93 49.4 92.9 50.8 C 92.9 50.8 101.4 50.8 101.4 50.8 C 101.3 49.4 101.3 48.9 100.9 48.1 C 100.3 46.5 98.8 45.6 97.2 45.6 C 95.5 45.6 94.1 46.6 93.4 48.1 Z M 120.8 38.9 C 120.8 38.9 119.79 38.91 119.8 38.9 C 118.3 38.9 117.6 39.8 117.6 41.3 C 117.57 41.31 117.6 44.5 117.6 44.5 L 120.8 44.5 L 120.8 45.6 L 117.6 45.6 L 117.6 58.9 L 116 58.9 L 116 45.6 L 114.1 45.6 L 114.1 44.5 L 116 44.5 C 116 44.5 116.04 41.34 116 41.3 C 116 39.1 117.2 37.6 119.5 37.6 C 119.52 37.56 120.8 37.6 120.8 37.6 L 120.8 38.9 Z M 133.3 45.9 C 134.8 47.4 135.1 49.6 135.1 51.7 C 135.1 53.8 134.8 56 133.3 57.5 C 132.2 58.6 130.9 59.1 129.2 59.1 C 127.6 59.1 126.3 58.6 125.2 57.5 C 123.7 56 123.4 53.8 123.4 51.7 C 123.4 49.6 123.7 47.4 125.2 45.9 C 126.3 44.8 127.6 44.3 129.2 44.3 C 130.9 44.3 132.2 44.8 133.3 45.9 Z M 126.2 46.9 C 125 48.1 124.9 50 124.9 51.7 C 124.9 53.4 125 55.3 126.2 56.5 C 127 57.3 128.1 57.7 129.2 57.7 C 130.4 57.7 131.4 57.3 132.2 56.5 C 133.4 55.3 133.5 53.4 133.5 51.7 C 133.5 50 133.4 48.1 132.2 46.9 C 131.4 46 130.4 45.6 129.2 45.6 C 128.1 45.6 127 46 126.2 46.9 Z M 149.3 45.7 C 149.3 45.7 148.2 46.8 148.2 46.8 C 147.3 45.9 146.6 45.6 145.4 45.6 C 142.9 45.6 141.6 47.7 141.6 50 C 141.57 50.01 141.6 58.9 141.6 58.9 L 140 58.9 L 140 44.5 L 141.6 44.5 C 141.6 44.5 141.57 46.38 141.6 46.4 C 142.4 45 144.1 44.3 145.8 44.3 C 147.2 44.3 148.2 44.6 149.3 45.7 Z " stroke="none" fill="#000"/>  </g>  <g id="Polygon20788">    <path d="M 15.4 3.8 C 15.4 3.8 13.3 5.8 13.3 5.8 C 12 4.6 10.5 4.2 8.6 4.2 C 6.1 4.2 4.8 5.6 4.8 7.5 C 4.8 8.3 5 9 5.5 9.5 C 6.1 10 6.7 10.3 7.9 10.5 C 7.9 10.5 10.4 10.9 10.4 10.9 C 12.4 11.2 13.5 11.6 14.4 12.4 C 15.5 13.5 16.1 15 16.1 16.8 C 16.1 20.8 13 23.1 8.5 23.1 C 5.3 23.1 3 22.3 0.9 20.3 C 0.9 20.3 3 18.1 3 18.1 C 4.6 19.7 6.4 20.2 8.5 20.2 C 11.3 20.2 12.9 19 12.9 16.9 C 12.9 16 12.7 15.2 12.1 14.7 C 11.6 14.2 10.8 13.9 9.8 13.8 C 9.8 13.8 7.2 13.4 7.2 13.4 C 5.5 13.2 4.1 12.6 3.2 11.7 C 2.2 10.8 1.6 9.4 1.6 7.6 C 1.6 3.9 4.3 1.4 8.8 1.4 C 11.6 1.4 13.6 2.1 15.4 3.8 Z M 23.5 7.7 L 26.5 7.7 L 26.5 10 L 23.5 10 C 23.5 10 23.55 18.54 23.5 18.5 C 23.5 19.7 24.1 20.3 25.2 20.3 C 25.23 20.31 26.5 20.3 26.5 20.3 L 26.5 22.9 C 26.5 22.9 24.66 22.92 24.7 22.9 C 21.8 22.9 20.5 20.9 20.5 18.7 C 20.49 18.69 20.5 10 20.5 10 L 18.7 10 L 18.7 7.7 L 20.5 7.7 L 20.5 3.4 L 23.5 3.4 L 23.5 7.7 Z M 32.5 16.2 C 32.5 18.8 33.8 20.5 36.4 20.5 C 38.1 20.5 39 20 40.1 18.9 C 40.1 18.9 42 20.7 42 20.7 C 40.4 22.3 39 23.1 36.3 23.1 C 32.5 23.1 29.5 21.1 29.5 15.3 C 29.5 10.3 32 7.5 35.9 7.5 C 40 7.5 42.4 10.5 42.4 14.9 C 42.36 14.91 42.4 16.2 42.4 16.2 C 42.4 16.2 32.49 16.2 32.5 16.2 Z M 38.9 12 C 38.4 10.9 37.4 10.1 35.9 10.1 C 34.4 10.1 33.4 10.9 32.9 12 C 32.6 12.7 32.5 13.1 32.5 14.1 C 32.5 14.1 39.3 14.1 39.3 14.1 C 39.3 13.1 39.2 12.7 38.9 12 Z M 57.2 8.9 C 58.6 10.4 58.9 12.8 58.9 15.3 C 58.9 17.8 58.6 20.2 57.2 21.7 C 56.3 22.6 55 23.1 53.5 23.1 C 51.9 23.1 50.6 22.7 49.5 21.4 C 49.5 21.36 49.5 29.1 49.5 29.1 L 46.4 29.1 L 46.4 7.7 L 49.4 7.7 C 49.4 7.7 49.44 9.33 49.4 9.3 C 50.6 7.9 51.8 7.5 53.5 7.5 C 55 7.5 56.3 8 57.2 8.9 Z M 49.5 15.3 C 49.5 18 49.9 20.4 52.7 20.4 C 55.4 20.4 55.8 18 55.8 15.3 C 55.8 12.6 55.4 10.3 52.7 10.3 C 49.9 10.3 49.5 12.6 49.5 15.3 Z M 69.7 20.2 C 69.7 20.2 77.91 10.2 77.9 10.2 C 78.7 9.2 79 8.4 79 7.3 C 79 5.4 77.9 4.1 75.9 4.1 C 74.3 4.1 72.8 5 72.8 7.4 C 72.8 7.4 69.7 7.4 69.7 7.4 C 69.7 3.8 72.3 1.4 75.9 1.4 C 79.6 1.4 82.1 3.7 82.1 7.4 C 82.1 9.3 81.4 10.4 80.1 12 C 80.1 12 73.4 20.2 73.4 20.2 L 82.1 20.2 L 82.1 22.9 L 69.7 22.9 L 69.7 20.2 Z " stroke="none" fill="#000"/>  </g></svg>