<?xml version="1.0" standalone="no"?><!DOCTYPE svg PUBLIC "-//W3C//DTD SVG 1.1//EN" "http://www.w3.org/Graphics/SVG/1.1/DTD/svg11.dtd"><svg xmlns="http://www.w3.org/2000/svg" version="1.1" width="1632px" height="299.339318847656px" viewBox="0 0 1632 299.339318847656">  <desc>U.S. Life Insurance for Foreign National</desc>  <defs/>  <g id="Polygon19855">    <path d="M 53.6 46.8 C 53.6 60.4 43.2 69.3 30 69.3 C 16.8 69.3 6.5 60.4 6.5 46.8 C 6.48 46.8 6.5 4.7 6.5 4.7 L 19 4.7 C 19 4.7 18.99 46.35 19 46.3 C 19 53.6 23.2 58.1 30 58.1 C 36.7 58.1 41.1 53.6 41.1 46.3 C 41.13 46.35 41.1 4.7 41.1 4.7 L 53.6 4.7 C 53.6 4.7 53.64 46.8 53.6 46.8 Z M 79.6 68.8 L 66.2 68.8 L 66.2 55.4 L 79.6 55.4 L 79.6 68.8 Z M 132.9 11.6 C 132.9 11.6 125 19.4 125 19.4 C 121.6 16 117.7 15 111.9 15 C 105.2 15 102 18.7 102 23.1 C 102 24.8 102.5 26.5 103.9 27.7 C 105.1 28.9 107 29.8 109.7 30.1 C 109.7 30.1 117.4 31.3 117.4 31.3 C 123.2 32.1 126.8 33.7 129.6 36.4 C 133 39.6 134.5 44.1 134.5 49.9 C 134.5 62.3 124.3 69.3 110.8 69.3 C 101.1 69.3 93.7 67.2 87.4 60.8 C 87.4 60.8 95.5 52.7 95.5 52.7 C 99.5 56.8 105 58.1 110.9 58.1 C 118.3 58.1 122.3 55.3 122.3 50.1 C 122.3 48 121.7 46.2 120.3 44.8 C 119.1 43.6 117.6 43.1 114.6 42.7 C 114.6 42.7 106.9 41.5 106.9 41.5 C 101.5 40.7 97.4 39 94.5 36.2 C 91.4 33.2 89.9 29 89.9 23.6 C 89.9 12.1 98.4 4.1 112.2 4.1 C 121 4.1 127.4 6.3 132.9 11.6 Z M 158.3 68.8 L 145 68.8 L 145 55.4 L 158.3 55.4 L 158.3 68.8 Z M 205.3 57.6 L 234.4 57.6 L 234.4 68.8 L 192.8 68.8 L 192.8 4.7 L 205.3 4.7 L 205.3 57.6 Z M 255.3 68.8 L 243.6 68.8 L 243.6 23.2 L 255.3 23.2 L 255.3 68.8 Z M 255.4 13.9 L 243.4 13.9 L 243.4 4.3 L 255.4 4.3 L 255.4 13.9 Z M 290.2 14 C 290.2 14 285.57 14.04 285.6 14 C 282.9 14 281.5 15.6 281.5 18.3 C 281.52 18.27 281.5 23.2 281.5 23.2 L 290.2 23.2 L 290.2 32.1 L 281.5 32.1 L 281.5 68.8 L 269.8 68.8 L 269.8 32.1 L 265 32.1 L 265 23.2 L 269.8 23.2 C 269.8 23.2 269.82 17.55 269.8 17.5 C 269.8 11 274 4.1 283.5 4.1 C 283.5 4.14 290.2 4.1 290.2 4.1 L 290.2 14 Z M 336.3 44 C 336.33 44.01 336.3 49 336.3 49 C 336.3 49 306.99 48.96 307 49 C 307 55.1 310.6 59.4 317.2 59.4 C 322.4 59.4 324.9 57.9 327.8 55 C 327.8 55 335 61.9 335 61.9 C 330.2 66.8 325.6 69.3 317.2 69.3 C 306 69.3 295.5 64.3 295.5 45.3 C 295.5 30 303.7 21.3 315.9 21.3 C 328.9 21.3 336.3 30.7 336.3 44 Z M 308 35.9 C 307.2 37.6 307.1 38.9 307 40.9 C 307 40.9 324.7 40.9 324.7 40.9 C 324.6 38.9 324.5 37.6 323.7 35.9 C 322.5 33.1 319.9 31 315.9 31 C 311.8 31 309.2 33.1 308 35.9 Z M 381.4 68.8 L 368.9 68.8 L 368.9 4.7 L 381.4 4.7 L 381.4 68.8 Z M 429.7 25.5 C 433.5 29.3 434.5 33.7 434.5 38.8 C 434.52 38.79 434.5 68.8 434.5 68.8 L 422.8 68.8 C 422.8 68.8 422.82 40.41 422.8 40.4 C 422.8 34 418.9 31.9 415.1 31.9 C 411.3 31.9 407.2 34 407.2 40.4 C 407.25 40.41 407.2 68.8 407.2 68.8 L 395.5 68.8 L 395.5 21.9 L 407 21.9 C 407 21.9 406.98 26.19 407 26.2 C 410 22.9 414.4 21.3 418.7 21.3 C 423.4 21.3 427.1 22.8 429.7 25.5 Z M 481 26.8 C 481 26.8 473.8 34.1 473.8 34.1 C 471.1 31.7 467 31 462.9 31 C 458.2 31 456.2 33.1 456.2 35.5 C 456.2 37.9 457.6 39.1 461.1 39.5 C 461.1 39.5 468.4 40.2 468.4 40.2 C 477.7 41.1 482.4 46 482.4 54 C 482.4 64.3 473.6 69.3 462.5 69.3 C 455.1 69.3 448.6 68.5 442.5 62.5 C 442.5 62.5 450.2 54.9 450.2 54.9 C 454 58.8 459.1 59.3 462.7 59.3 C 466.7 59.3 471 58 471 54.4 C 471 52.1 469.8 50.5 466 50.1 C 466 50.1 458.6 49.4 458.6 49.4 C 450.2 48.6 445 44.9 445 36.3 C 445 26.5 453.5 21.3 463 21.3 C 470.4 21.3 476.5 22.7 481 26.8 Z M 530.6 68.8 L 519.2 68.8 C 519.2 68.8 519.2 64.44 519.2 64.4 C 516.1 67.7 511.8 69.3 507.5 69.3 C 502.9 69.3 499.1 67.9 496.4 65.2 C 492.7 61.4 491.7 57 491.7 51.8 C 491.66 51.84 491.7 21.9 491.7 21.9 L 503.4 21.9 C 503.4 21.9 503.36 50.22 503.4 50.2 C 503.4 56.6 507.4 58.8 511.1 58.8 C 514.9 58.8 518.9 56.6 518.9 50.2 C 518.93 50.22 518.9 21.9 518.9 21.9 L 530.6 21.9 L 530.6 68.8 Z M 578.1 25.7 C 578.1 25.7 569.3 34.6 569.3 34.6 C 567.5 32.8 566 31.9 563.1 31.9 C 559.5 31.9 555.5 34.6 555.5 40.5 C 555.47 40.5 555.5 68.8 555.5 68.8 L 543.8 68.8 L 543.8 21.9 L 555.2 21.9 C 555.2 21.9 555.2 26.37 555.2 26.4 C 557.5 23.7 562 21.3 567 21.3 C 571.7 21.3 574.8 22.4 578.1 25.7 Z M 619.3 37.9 C 619.28 37.89 619.3 68.8 619.3 68.8 L 607.9 68.8 C 607.9 68.8 607.85 64.71 607.9 64.7 C 604.7 67.9 601.7 69.2 596.3 69.2 C 591 69.2 587.1 67.8 584.4 65.1 C 581.8 62.5 580.5 58.7 580.5 54.5 C 580.5 47.1 585.6 40.9 596.7 40.9 C 596.69 40.95 607.6 40.9 607.6 40.9 C 607.6 40.9 607.58 38.61 607.6 38.6 C 607.6 33.5 605.1 31.2 598.9 31.2 C 594.6 31.2 592.4 32.4 589.9 35.3 C 589.9 35.3 582.5 28 582.5 28 C 587.1 22.9 591.5 21.3 599.3 21.3 C 612.5 21.3 619.3 26.9 619.3 37.9 Z M 598.7 49 C 594 49 591.7 50.8 591.7 54.4 C 591.7 57.6 594 59.7 598.9 59.7 C 601.7 59.7 603.8 59.3 605.8 57.4 C 607.1 56.2 607.6 54.4 607.6 51.5 C 607.58 51.48 607.6 49 607.6 49 C 607.6 49 598.67 48.96 598.7 49 Z M 666.1 25.5 C 669.9 29.3 670.9 33.7 670.9 38.8 C 670.85 38.79 670.9 68.8 670.9 68.8 L 659.2 68.8 C 659.2 68.8 659.15 40.41 659.2 40.4 C 659.2 34 655.2 31.9 651.4 31.9 C 647.6 31.9 643.6 34 643.6 40.4 C 643.58 40.41 643.6 68.8 643.6 68.8 L 631.9 68.8 L 631.9 21.9 L 643.3 21.9 C 643.3 21.9 643.31 26.19 643.3 26.2 C 646.4 22.9 650.7 21.3 655 21.3 C 659.7 21.3 663.5 22.8 666.1 25.5 Z M 717.9 27.6 C 717.9 27.6 709.9 35.5 709.9 35.5 C 707.5 32.9 705.5 31.9 702.4 31.9 C 699.6 31.9 697.5 32.9 695.8 34.9 C 694 37.2 693.2 40.3 693.2 45.3 C 693.2 50.3 694 53.5 695.8 55.7 C 697.5 57.7 699.6 58.8 702.4 58.8 C 705.5 58.8 707.5 57.6 709.9 55.1 C 709.9 55.1 717.9 62.9 717.9 62.9 C 713.7 67.2 708.9 69.3 702.4 69.3 C 693 69.3 681.5 64.3 681.5 45.3 C 681.5 26.4 693 21.3 702.4 21.3 C 708.9 21.3 713.7 23.3 717.9 27.6 Z M 764.2 44 C 764.18 44.01 764.2 49 764.2 49 C 764.2 49 734.84 48.96 734.8 49 C 734.8 55.1 738.4 59.4 745.1 59.4 C 750.2 59.4 752.8 57.9 755.6 55 C 755.6 55 762.8 61.9 762.8 61.9 C 758.1 66.8 753.5 69.3 745 69.3 C 733.9 69.3 723.3 64.3 723.3 45.3 C 723.3 30 731.6 21.3 743.8 21.3 C 756.8 21.3 764.2 30.7 764.2 44 Z M 735.8 35.9 C 735 37.6 734.9 38.9 734.8 40.9 C 734.8 40.9 752.6 40.9 752.6 40.9 C 752.5 38.9 752.4 37.6 751.6 35.9 C 750.3 33.1 747.7 31 743.8 31 C 739.7 31 737.1 33.1 735.8 35.9 Z M 817.6 14 C 817.6 14 813.05 14.04 813.1 14 C 810.4 14 809 15.6 809 18.3 C 809 18.27 809 23.2 809 23.2 L 817.6 23.2 L 817.6 32.1 L 809 32.1 L 809 68.8 L 797.3 68.8 L 797.3 32.1 L 792.4 32.1 L 792.4 23.2 L 797.3 23.2 C 797.3 23.2 797.3 17.55 797.3 17.5 C 797.3 11 801.4 4.1 811 4.1 C 810.98 4.14 817.6 4.1 817.6 4.1 L 817.6 14 Z M 857.7 63.5 C 854.7 66.6 850 69.3 843.1 69.3 C 836.2 69.3 831.6 66.6 828.6 63.5 C 824.4 59 823.3 53.7 823.3 45.3 C 823.3 36.8 824.4 31.6 828.6 27.1 C 831.6 24 836.2 21.3 843.1 21.3 C 850 21.3 854.7 23.9 857.7 27.1 C 861.9 31.6 863 36.8 863 45.3 C 863 53.7 862 59.1 857.7 63.5 Z M 848.6 33.9 C 847.3 32.6 845.5 31.9 843.1 31.9 C 840.9 31.9 839.1 32.6 837.7 33.9 C 835.3 36.3 835 40.5 835 45.3 C 835 50.1 835.3 54.4 837.7 56.7 C 839.1 58 840.9 58.8 843.1 58.8 C 845.5 58.8 847.3 58 848.6 56.7 C 851 54.4 851.3 50.1 851.3 45.3 C 851.3 40.5 851 36.3 848.6 33.9 Z M 908.5 25.7 C 908.5 25.7 899.7 34.6 899.7 34.6 C 897.9 32.8 896.4 31.9 893.5 31.9 C 889.9 31.9 885.9 34.6 885.9 40.5 C 885.86 40.5 885.9 68.8 885.9 68.8 L 874.2 68.8 L 874.2 21.9 L 885.6 21.9 C 885.6 21.9 885.59 26.37 885.6 26.4 C 887.8 23.7 892.3 21.3 897.4 21.3 C 902.1 21.3 905.2 22.4 908.5 25.7 Z M 979.1 15.8 L 949.4 15.8 L 949.4 31.6 L 974.8 31.6 L 974.8 42.7 L 949.4 42.7 L 949.4 68.8 L 936.9 68.8 L 936.9 4.7 L 979.1 4.7 L 979.1 15.8 Z M 1018.8 63.5 C 1015.8 66.6 1011.1 69.3 1004.2 69.3 C 997.3 69.3 992.7 66.6 989.7 63.5 C 985.5 59 984.4 53.7 984.4 45.3 C 984.4 36.8 985.5 31.6 989.7 27.1 C 992.7 24 997.3 21.3 1004.2 21.3 C 1011.1 21.3 1015.8 23.9 1018.8 27.1 C 1023 31.6 1024.1 36.8 1024.1 45.3 C 1024.1 53.7 1023.1 59.1 1018.8 63.5 Z M 1009.7 33.9 C 1008.3 32.6 1006.5 31.9 1004.2 31.9 C 1002 31.9 1000.2 32.6 998.8 33.9 C 996.4 36.3 996.1 40.5 996.1 45.3 C 996.1 50.1 996.4 54.4 998.8 56.7 C 1000.2 58 1002 58.8 1004.2 58.8 C 1006.5 58.8 1008.3 58 1009.7 56.7 C 1012.1 54.4 1012.4 50.1 1012.4 45.3 C 1012.4 40.5 1012.1 36.3 1009.7 33.9 Z M 1069.5 25.7 C 1069.5 25.7 1060.8 34.6 1060.8 34.6 C 1059 32.8 1057.5 31.9 1054.6 31.9 C 1051 31.9 1047 34.6 1047 40.5 C 1046.96 40.5 1047 68.8 1047 68.8 L 1035.3 68.8 L 1035.3 21.9 L 1046.7 21.9 C 1046.7 21.9 1046.69 26.37 1046.7 26.4 C 1048.9 23.7 1053.4 21.3 1058.5 21.3 C 1063.2 21.3 1066.3 22.4 1069.5 25.7 Z M 1112 44 C 1112.03 44.01 1112 49 1112 49 C 1112 49 1082.69 48.96 1082.7 49 C 1082.7 55.1 1086.3 59.4 1092.9 59.4 C 1098.1 59.4 1100.6 57.9 1103.5 55 C 1103.5 55 1110.7 61.9 1110.7 61.9 C 1105.9 66.8 1101.3 69.3 1092.9 69.3 C 1081.7 69.3 1071.2 64.3 1071.2 45.3 C 1071.2 30 1079.4 21.3 1091.6 21.3 C 1104.6 21.3 1112 30.7 1112 44 Z M 1083.7 35.9 C 1082.9 37.6 1082.8 38.9 1082.7 40.9 C 1082.7 40.9 1100.4 40.9 1100.4 40.9 C 1100.3 38.9 1100.2 37.6 1099.4 35.9 C 1098.2 33.1 1095.6 31 1091.6 31 C 1087.5 31 1084.9 33.1 1083.7 35.9 Z M 1134.5 68.8 L 1122.8 68.8 L 1122.8 23.2 L 1134.5 23.2 L 1134.5 68.8 Z M 1134.6 13.9 L 1122.6 13.9 L 1122.6 4.3 L 1134.6 4.3 L 1134.6 13.9 Z M 1173 26.3 C 1173.05 26.28 1173 21.9 1173 21.9 L 1184.4 21.9 C 1184.4 21.9 1184.39 67.05 1184.4 67 C 1184.4 78.3 1176.5 86.5 1163.8 86.5 C 1156.6 86.5 1151.6 85 1146.8 80.4 C 1146.8 80.4 1154.1 73 1154.1 73 C 1156.8 75.5 1159.3 76.6 1163.3 76.6 C 1170.3 76.6 1172.7 71.7 1172.7 66.9 C 1172.7 66.9 1172.7 62.1 1172.7 62.1 C 1169.6 65.5 1166.2 66.8 1161.5 66.8 C 1156.9 66.8 1153.1 65.2 1150.5 62.6 C 1146 58.2 1145.6 52.3 1145.6 44 C 1145.6 35.8 1146 29.9 1150.5 25.5 C 1153.1 22.9 1156.9 21.3 1161.6 21.3 C 1166.6 21.3 1169.8 22.7 1173 26.3 Z M 1157.3 44 C 1157.3 50.2 1158 56.2 1165 56.2 C 1172 56.2 1172.7 50.2 1172.7 44 C 1172.7 37.9 1172 31.9 1165 31.9 C 1158 31.9 1157.3 37.9 1157.3 44 Z M 1231.7 25.5 C 1235.5 29.3 1236.5 33.7 1236.5 38.8 C 1236.5 38.79 1236.5 68.8 1236.5 68.8 L 1224.8 68.8 C 1224.8 68.8 1224.8 40.41 1224.8 40.4 C 1224.8 34 1220.8 31.9 1217.1 31.9 C 1213.3 31.9 1209.2 34 1209.2 40.4 C 1209.23 40.41 1209.2 68.8 1209.2 68.8 L 1197.5 68.8 L 1197.5 21.9 L 1209 21.9 C 1209 21.9 1208.96 26.19 1209 26.2 C 1212 22.9 1216.3 21.3 1220.7 21.3 C 1225.3 21.3 1229.1 22.8 1231.7 25.5 Z M 1319.9 68.8 L 1308.9 68.8 L 1283.4 29.6 L 1283.4 68.8 L 1270.9 68.8 L 1270.9 4.7 L 1282 4.7 L 1307.4 43.8 L 1307.4 4.7 L 1319.9 4.7 L 1319.9 68.8 Z M 1369.5 37.9 C 1369.51 37.89 1369.5 68.8 1369.5 68.8 L 1358.1 68.8 C 1358.1 68.8 1358.08 64.71 1358.1 64.7 C 1354.9 67.9 1352 69.2 1346.6 69.2 C 1341.3 69.2 1337.3 67.8 1334.6 65.1 C 1332.1 62.5 1330.7 58.7 1330.7 54.5 C 1330.7 47.1 1335.9 40.9 1346.9 40.9 C 1346.92 40.95 1357.8 40.9 1357.8 40.9 C 1357.8 40.9 1357.81 38.61 1357.8 38.6 C 1357.8 33.5 1355.3 31.2 1349.1 31.2 C 1344.9 31.2 1342.6 32.4 1340.1 35.3 C 1340.1 35.3 1332.7 28 1332.7 28 C 1337.3 22.9 1341.7 21.3 1349.5 21.3 C 1362.8 21.3 1369.5 26.9 1369.5 37.9 Z M 1348.9 49 C 1344.2 49 1342 50.8 1342 54.4 C 1342 57.6 1344.2 59.7 1349.1 59.7 C 1352 59.7 1354 59.3 1356 57.4 C 1357.4 56.2 1357.8 54.4 1357.8 51.5 C 1357.81 51.48 1357.8 49 1357.8 49 C 1357.8 49 1348.9 48.96 1348.9 49 Z M 1394.9 23.2 L 1403.2 23.2 L 1403.2 32.1 L 1394.9 32.1 C 1394.9 32.1 1394.89 54.63 1394.9 54.6 C 1394.9 57.3 1396.2 58.9 1398.9 58.9 C 1398.94 58.86 1403.2 58.9 1403.2 58.9 L 1403.2 68.8 C 1403.2 68.8 1396.78 68.76 1396.8 68.8 C 1387.2 68.8 1383.2 62 1383.2 55.3 C 1383.19 55.35 1383.2 32.1 1383.2 32.1 L 1378.2 32.1 L 1378.2 23.2 L 1383.2 23.2 L 1383.2 9.4 L 1394.9 9.4 L 1394.9 23.2 Z M 1425.5 68.8 L 1413.8 68.8 L 1413.8 23.2 L 1425.5 23.2 L 1425.5 68.8 Z M 1425.6 13.9 L 1413.6 13.9 L 1413.6 4.3 L 1425.6 4.3 L 1425.6 13.9 Z M 1470.9 63.5 C 1468 66.6 1463.3 69.3 1456.4 69.3 C 1449.4 69.3 1444.8 66.6 1441.9 63.5 C 1437.6 59 1436.6 53.7 1436.6 45.3 C 1436.6 36.8 1437.6 31.6 1441.9 27.1 C 1444.8 24 1449.4 21.3 1456.4 21.3 C 1463.3 21.3 1468 23.9 1470.9 27.1 C 1475.2 31.6 1476.3 36.8 1476.3 45.3 C 1476.3 53.7 1475.3 59.1 1470.9 63.5 Z M 1461.9 33.9 C 1460.5 32.6 1458.7 31.9 1456.4 31.9 C 1454.1 31.9 1452.3 32.6 1451 33.9 C 1448.5 36.3 1448.3 40.5 1448.3 45.3 C 1448.3 50.1 1448.5 54.4 1451 56.7 C 1452.3 58 1454.1 58.8 1456.4 58.8 C 1458.7 58.8 1460.5 58 1461.9 56.7 C 1464.3 54.4 1464.6 50.1 1464.6 45.3 C 1464.6 40.5 1464.3 36.3 1461.9 33.9 Z M 1521.6 25.5 C 1525.4 29.3 1526.4 33.7 1526.4 38.8 C 1526.38 38.79 1526.4 68.8 1526.4 68.8 L 1514.7 68.8 C 1514.7 68.8 1514.68 40.41 1514.7 40.4 C 1514.7 34 1510.7 31.9 1506.9 31.9 C 1503.2 31.9 1499.1 34 1499.1 40.4 C 1499.11 40.41 1499.1 68.8 1499.1 68.8 L 1487.4 68.8 L 1487.4 21.9 L 1498.8 21.9 C 1498.8 21.9 1498.84 26.19 1498.8 26.2 C 1501.9 22.9 1506.2 21.3 1510.5 21.3 C 1515.2 21.3 1519 22.8 1521.6 25.5 Z M 1574.4 37.9 C 1574.44 37.89 1574.4 68.8 1574.4 68.8 L 1563 68.8 C 1563 68.8 1563.01 64.71 1563 64.7 C 1559.9 67.9 1556.9 69.2 1551.5 69.2 C 1546.2 69.2 1542.2 67.8 1539.5 65.1 C 1537 62.5 1535.7 58.7 1535.7 54.5 C 1535.7 47.1 1540.8 40.9 1551.9 40.9 C 1551.85 40.95 1562.7 40.9 1562.7 40.9 C 1562.7 40.9 1562.74 38.61 1562.7 38.6 C 1562.7 33.5 1560.2 31.2 1554 31.2 C 1549.8 31.2 1547.5 32.4 1545 35.3 C 1545 35.3 1537.6 28 1537.6 28 C 1542.2 22.9 1546.6 21.3 1554.5 21.3 C 1567.7 21.3 1574.4 26.9 1574.4 37.9 Z M 1553.8 49 C 1549.2 49 1546.9 50.8 1546.9 54.4 C 1546.9 57.6 1549.2 59.7 1554 59.7 C 1556.9 59.7 1559 59.3 1560.9 57.4 C 1562.3 56.2 1562.7 54.4 1562.7 51.5 C 1562.74 51.48 1562.7 49 1562.7 49 C 1562.7 49 1553.83 48.96 1553.8 49 Z M 1598.3 54.6 C 1598.3 57.4 1599.5 58.9 1602.4 58.9 C 1602.43 58.86 1606.9 58.9 1606.9 58.9 L 1606.9 68.8 C 1606.9 68.8 1600.27 68.76 1600.3 68.8 C 1590.6 68.8 1586.6 62.1 1586.6 55.3 C 1586.59 55.35 1586.6 4.7 1586.6 4.7 L 1598.3 4.7 C 1598.3 4.7 1598.29 54.63 1598.3 54.6 Z " stroke="none" fill="#840028"/>  </g></svg>