<?xml version="1.0" standalone="no"?><!DOCTYPE svg PUBLIC "-//W3C//DTD SVG 1.1//EN" "http://www.w3.org/Graphics/SVG/1.1/DTD/svg11.dtd"><svg xmlns="http://www.w3.org/2000/svg" version="1.1" width="23px" height="43.663818359375px" viewBox="0 0 23 43.663818359375">  <desc>2</desc>  <defs/>  <g id="Polygon20194">    <path d="M 1.4 15.5 C 1.4 15.5 7.8 8.11 7.8 8.1 C 8.4 7.4 8.7 6.8 8.7 6 C 8.7 4.8 8 3.9 6.6 3.9 C 5.6 3.9 4.5 4.4 4.5 6.1 C 4.5 6.1 1.4 6.1 1.4 6.1 C 1.4 3 3.7 1.1 6.6 1.1 C 9.7 1.1 11.8 3 11.8 6.1 C 11.8 7.7 11.2 8.6 10 10 C 9.98 9.98 5.2 15.5 5.2 15.5 L 11.8 15.5 L 11.8 18.3 L 1.4 18.3 L 1.4 15.5 Z " stroke="none" fill="#000"/>  </g></svg>