<?xml version="1.0" standalone="no"?><!DOCTYPE svg PUBLIC "-//W3C//DTD SVG 1.1//EN" "http://www.w3.org/Graphics/SVG/1.1/DTD/svg11.dtd"><svg xmlns="http://www.w3.org/2000/svg" version="1.1" width="1368px" height="140.967712402344px" viewBox="0 0 1368 140.967712402344">  <desc>For more information, contact your Lincoln representative. If you’d like a quote, call XXX-XXX-XXXX, or email us at X...</desc>  <defs/>  <g id="Polygon28054">    <path d="M 8.4 77 L 3.2 77 L 3.2 50 L 8.4 50 L 8.4 77 Z M 23.6 53.9 C 23.6 53.9 21.66 53.93 21.7 53.9 C 20.5 53.9 19.9 54.6 19.9 55.7 C 19.95 55.71 19.9 57.8 19.9 57.8 L 23.6 57.8 L 23.6 61.6 L 19.9 61.6 L 19.9 77 L 15 77 L 15 61.6 L 13 61.6 L 13 57.8 L 15 57.8 C 15 57.8 15.01 55.41 15 55.4 C 15 52.6 16.8 49.7 20.8 49.7 C 20.79 49.75 23.6 49.7 23.6 49.7 L 23.6 53.9 Z M 43.6 80.2 C 43.2 81.4 42.7 82.2 42.1 82.8 C 41 83.9 39.5 84.3 37.8 84.3 C 37.85 84.29 35.9 84.3 35.9 84.3 L 35.9 79.8 C 35.9 79.8 37.05 79.84 37 79.8 C 38.5 79.8 39 79.5 39.5 78.1 C 39.52 78.06 40.4 75.6 40.4 75.6 L 33.6 57.2 L 38.8 57.2 L 42.9 69.5 L 46.9 57.2 L 52.1 57.2 C 52.1 57.2 43.59 80.22 43.6 80.2 Z M 68.5 74.8 C 67.2 76.1 65.2 77.3 62.3 77.3 C 59.4 77.3 57.5 76.1 56.2 74.8 C 54.4 72.9 54 70.7 54 67.1 C 54 63.5 54.4 61.3 56.2 59.4 C 57.5 58.1 59.4 57 62.3 57 C 65.2 57 67.2 58.1 68.5 59.4 C 70.3 61.3 70.7 63.5 70.7 67.1 C 70.7 70.7 70.3 73 68.5 74.8 Z M 64.6 62.3 C 64.1 61.8 63.3 61.5 62.3 61.5 C 61.4 61.5 60.6 61.8 60 62.3 C 59 63.3 58.9 65.1 58.9 67.1 C 58.9 69.2 59 71 60 71.9 C 60.6 72.5 61.4 72.8 62.3 72.8 C 63.3 72.8 64.1 72.5 64.6 71.9 C 65.7 71 65.8 69.2 65.8 67.1 C 65.8 65.1 65.7 63.3 64.6 62.3 Z M 91.7 77 L 86.8 77 C 86.8 77 86.83 75.21 86.8 75.2 C 85.5 76.6 83.7 77.3 81.9 77.3 C 80 77.3 78.4 76.7 77.2 75.5 C 75.6 73.9 75.2 72.1 75.2 69.9 C 75.2 69.89 75.2 57.2 75.2 57.2 L 80.1 57.2 C 80.1 57.2 80.14 69.2 80.1 69.2 C 80.1 71.9 81.9 72.8 83.4 72.8 C 85 72.8 86.7 71.9 86.7 69.2 C 86.72 69.2 86.7 57.2 86.7 57.2 L 91.7 57.2 L 91.7 77 Z M 102.2 54.8 L 97 58.8 L 97 50 L 102.2 50 L 102.2 54.8 Z M 123.3 77 L 118.5 77 C 118.5 77 118.48 75.17 118.5 75.2 C 117.1 76.7 115.7 77.3 113.6 77.3 C 111.6 77.3 109.9 76.6 108.8 75.5 C 106.9 73.5 106.7 70.5 106.7 67.1 C 106.7 63.8 106.9 60.7 108.8 58.8 C 109.9 57.7 111.6 57 113.5 57 C 115.6 57 117.1 57.5 118.4 59 C 118.37 58.98 118.4 50 118.4 50 L 123.3 50 L 123.3 77 Z M 111.6 67.1 C 111.6 70.3 112 72.8 115 72.8 C 118 72.8 118.4 70.3 118.4 67.1 C 118.4 63.9 118 61.5 115 61.5 C 112 61.5 111.6 63.9 111.6 67.1 Z M 142.4 71.1 C 142.4 72.2 142.9 72.9 144.2 72.9 C 144.17 72.85 146.1 72.9 146.1 72.9 L 146.1 77 C 146.1 77 143.26 77.03 143.3 77 C 139.2 77 137.5 74.2 137.5 71.4 C 137.48 71.37 137.5 50 137.5 50 L 142.4 50 C 142.4 50 142.42 71.07 142.4 71.1 Z M 155 77 L 150 77 L 150 57.8 L 155 57.8 L 155 77 Z M 155 53.9 L 149.9 53.9 L 149.9 49.8 L 155 49.8 L 155 53.9 Z M 165.4 65.3 L 172 57.2 L 178 57.2 L 170.9 65.2 L 178.5 77 L 172.4 77 L 167.5 68.8 L 165.4 71.1 L 165.4 77 L 160.5 77 L 160.5 50 L 165.4 50 L 165.4 65.3 Z M 196.5 66.6 C 196.5 66.58 196.5 68.7 196.5 68.7 C 196.5 68.7 184.11 68.67 184.1 68.7 C 184.1 71.3 185.6 73.1 188.4 73.1 C 190.6 73.1 191.7 72.4 192.9 71.2 C 192.9 71.2 195.9 74.1 195.9 74.1 C 193.9 76.2 192 77.3 188.4 77.3 C 183.7 77.3 179.2 75.1 179.2 67.1 C 179.2 60.7 182.7 57 187.9 57 C 193.4 57 196.5 61 196.5 66.6 Z M 184.5 63.2 C 184.2 63.9 184.1 64.4 184.1 65.3 C 184.1 65.3 191.6 65.3 191.6 65.3 C 191.6 64.4 191.5 63.9 191.2 63.2 C 190.6 62 189.5 61.1 187.9 61.1 C 186.2 61.1 185.1 62 184.5 63.2 Z M 224.8 64 C 224.84 64 224.8 77 224.8 77 L 220 77 C 220 77 220.02 75.32 220 75.3 C 218.7 76.7 217.4 77.2 215.2 77.2 C 212.9 77.2 211.2 76.6 210.1 75.5 C 209 74.4 208.5 72.8 208.5 71 C 208.5 67.9 210.6 65.3 215.3 65.3 C 215.31 65.29 219.9 65.3 219.9 65.3 C 219.9 65.3 219.9 64.3 219.9 64.3 C 219.9 62.1 218.8 61.2 216.2 61.2 C 214.4 61.2 213.5 61.7 212.4 62.9 C 212.4 62.9 209.3 59.8 209.3 59.8 C 211.2 57.7 213.1 57 216.4 57 C 222 57 224.8 59.4 224.8 64 Z M 216.1 68.7 C 214.2 68.7 213.2 69.5 213.2 71 C 213.2 72.3 214.2 73.2 216.2 73.2 C 217.4 73.2 218.3 73 219.1 72.2 C 219.7 71.7 219.9 71 219.9 69.7 C 219.9 69.74 219.9 68.7 219.9 68.7 C 219.9 68.7 216.14 68.67 216.1 68.7 Z M 249.9 59.1 C 249.92 59.1 249.9 57.2 249.9 57.2 L 254.7 57.2 L 254.7 84.3 L 249.8 84.3 C 249.8 84.3 249.81 75.28 249.8 75.3 C 248.5 76.7 247 77.3 245 77.3 C 243 77.3 241.3 76.6 240.2 75.5 C 238.3 73.5 238.1 70.5 238.1 67.1 C 238.1 63.8 238.3 60.7 240.2 58.8 C 241.3 57.7 243 57 245 57 C 247.1 57 248.6 57.6 249.9 59.1 Z M 243.1 67.1 C 243.1 70.3 243.5 72.8 246.4 72.8 C 249.4 72.8 249.8 70.3 249.8 67.1 C 249.8 63.9 249.4 61.5 246.4 61.5 C 243.5 61.5 243.1 63.9 243.1 67.1 Z M 276.5 77 L 271.7 77 C 271.7 77 271.7 75.21 271.7 75.2 C 270.4 76.6 268.6 77.3 266.8 77.3 C 264.8 77.3 263.2 76.7 262.1 75.5 C 260.5 73.9 260.1 72.1 260.1 69.9 C 260.07 69.89 260.1 57.2 260.1 57.2 L 265 57.2 C 265 57.2 265.01 69.2 265 69.2 C 265 71.9 266.7 72.8 268.3 72.8 C 269.9 72.8 271.6 71.9 271.6 69.2 C 271.58 69.2 271.6 57.2 271.6 57.2 L 276.5 57.2 L 276.5 77 Z M 295.8 74.8 C 294.5 76.1 292.5 77.3 289.6 77.3 C 286.7 77.3 284.7 76.1 283.5 74.8 C 281.7 72.9 281.2 70.7 281.2 67.1 C 281.2 63.5 281.7 61.3 283.5 59.4 C 284.7 58.1 286.7 57 289.6 57 C 292.5 57 294.5 58.1 295.8 59.4 C 297.5 61.3 298 63.5 298 67.1 C 298 70.7 297.6 73 295.8 74.8 Z M 291.9 62.3 C 291.3 61.8 290.6 61.5 289.6 61.5 C 288.6 61.5 287.9 61.8 287.3 62.3 C 286.3 63.3 286.2 65.1 286.2 67.1 C 286.2 69.2 286.3 71 287.3 71.9 C 287.9 72.5 288.6 72.8 289.6 72.8 C 290.6 72.8 291.3 72.5 291.9 71.9 C 292.9 71 293.1 69.2 293.1 67.1 C 293.1 65.1 292.9 63.3 291.9 62.3 Z M 308.1 57.8 L 311.6 57.8 L 311.6 61.6 L 308.1 61.6 C 308.1 61.6 308.1 71.07 308.1 71.1 C 308.1 72.2 308.6 72.9 309.8 72.9 C 309.81 72.85 311.6 72.9 311.6 72.9 L 311.6 77 C 311.6 77 308.9 77.03 308.9 77 C 304.9 77 303.2 74.2 303.2 71.4 C 303.16 71.37 303.2 61.6 303.2 61.6 L 301.1 61.6 L 301.1 57.8 L 303.2 57.8 L 303.2 52 L 308.1 52 L 308.1 57.8 Z M 332.2 66.6 C 332.15 66.58 332.2 68.7 332.2 68.7 C 332.2 68.7 319.77 68.67 319.8 68.7 C 319.8 71.3 321.3 73.1 324.1 73.1 C 326.3 73.1 327.3 72.4 328.5 71.2 C 328.5 71.2 331.6 74.1 331.6 74.1 C 329.6 76.2 327.6 77.3 324.1 77.3 C 319.3 77.3 314.9 75.1 314.9 67.1 C 314.9 60.7 318.4 57 323.5 57 C 329 57 332.2 61 332.2 66.6 Z M 320.2 63.2 C 319.8 63.9 319.8 64.4 319.8 65.3 C 319.8 65.3 327.3 65.3 327.3 65.3 C 327.2 64.4 327.2 63.9 326.8 63.2 C 326.3 62 325.2 61.1 323.5 61.1 C 321.8 61.1 320.7 62 320.2 63.2 Z M 341.9 79.1 L 336.5 83.3 L 336.5 71.6 L 341.9 71.6 L 341.9 79.1 Z M 370.7 59.7 C 370.7 59.7 367.3 63 367.3 63 C 366.3 61.9 365.4 61.5 364.1 61.5 C 362.9 61.5 362.1 61.9 361.3 62.7 C 360.6 63.7 360.2 65 360.2 67.1 C 360.2 69.2 360.6 70.6 361.3 71.5 C 362.1 72.4 362.9 72.8 364.1 72.8 C 365.4 72.8 366.3 72.3 367.3 71.3 C 367.3 71.3 370.7 74.6 370.7 74.6 C 368.9 76.4 366.9 77.3 364.1 77.3 C 360.2 77.3 355.3 75.1 355.3 67.1 C 355.3 59.1 360.2 57 364.1 57 C 366.9 57 368.9 57.8 370.7 59.7 Z M 389.3 64 C 389.31 64 389.3 77 389.3 77 L 384.5 77 C 384.5 77 384.48 75.32 384.5 75.3 C 383.1 76.7 381.9 77.2 379.6 77.2 C 377.4 77.2 375.7 76.6 374.6 75.5 C 373.5 74.4 372.9 72.8 372.9 71 C 372.9 67.9 375.1 65.3 379.8 65.3 C 379.77 65.29 384.4 65.3 384.4 65.3 C 384.4 65.3 384.37 64.3 384.4 64.3 C 384.4 62.1 383.3 61.2 380.7 61.2 C 378.9 61.2 377.9 61.7 376.9 62.9 C 376.9 62.9 373.8 59.8 373.8 59.8 C 375.7 57.7 377.6 57 380.9 57 C 386.5 57 389.3 59.4 389.3 64 Z M 380.6 68.7 C 378.6 68.7 377.7 69.5 377.7 71 C 377.7 72.3 378.6 73.2 380.7 73.2 C 381.9 73.2 382.8 73 383.6 72.2 C 384.2 71.7 384.4 71 384.4 69.7 C 384.37 69.74 384.4 68.7 384.4 68.7 C 384.4 68.7 380.6 68.67 380.6 68.7 Z M 399.4 71.1 C 399.4 72.2 399.9 72.9 401.1 72.9 C 401.12 72.85 403 72.9 403 72.9 L 403 77 C 403 77 400.21 77.03 400.2 77 C 396.1 77 394.4 74.2 394.4 71.4 C 394.44 71.37 394.4 50 394.4 50 L 399.4 50 C 399.4 50 399.38 71.07 399.4 71.1 Z M 411.7 71.1 C 411.7 72.2 412.2 72.9 413.5 72.9 C 413.47 72.85 415.4 72.9 415.4 72.9 L 415.4 77 C 415.4 77 412.56 77.03 412.6 77 C 408.5 77 406.8 74.2 406.8 71.4 C 406.79 71.37 406.8 50 406.8 50 L 411.7 50 C 411.7 50 411.73 71.07 411.7 71.1 Z M 439.7 63.2 L 448.1 77 L 442 77 L 436.8 67.6 L 431.6 77 L 425.6 77 L 434 63.2 L 426.1 50 L 432.1 50 L 436.8 58.7 L 441.5 50 L 447.6 50 L 439.7 63.2 Z M 462.6 63.2 L 471 77 L 465 77 L 459.8 67.6 L 454.5 77 L 448.5 77 L 456.9 63.2 L 449 50 L 455 50 L 459.8 58.7 L 464.4 50 L 470.5 50 L 462.6 63.2 Z M 485.5 63.2 L 493.9 77 L 487.9 77 L 482.7 67.6 L 477.4 77 L 471.4 77 L 479.8 63.2 L 471.9 50 L 478 50 L 482.7 58.7 L 487.3 50 L 493.4 50 L 485.5 63.2 Z M 507.3 68.5 L 495.6 68.5 L 495.6 63.8 L 507.3 63.8 L 507.3 68.5 Z M 523.1 63.2 L 531.5 77 L 525.5 77 L 520.3 67.6 L 515 77 L 509 77 L 517.4 63.2 L 509.5 50 L 515.5 50 L 520.3 58.7 L 524.9 50 L 531 50 L 523.1 63.2 Z M 546 63.2 L 554.4 77 L 548.4 77 L 543.2 67.6 L 537.9 77 L 531.9 77 L 540.3 63.2 L 532.4 50 L 538.5 50 L 543.2 58.7 L 547.8 50 L 553.9 50 L 546 63.2 Z M 568.9 63.2 L 577.3 77 L 571.3 77 L 566.1 67.6 L 560.8 77 L 554.8 77 L 563.2 63.2 L 555.3 50 L 561.4 50 L 566.1 58.7 L 570.8 50 L 576.8 50 L 568.9 63.2 Z M 590.7 68.5 L 579 68.5 L 579 63.8 L 590.7 63.8 L 590.7 68.5 Z M 606.5 63.2 L 614.9 77 L 608.9 77 L 603.7 67.6 L 598.4 77 L 592.4 77 L 600.8 63.2 L 592.9 50 L 599 50 L 603.7 58.7 L 608.3 50 L 614.4 50 L 606.5 63.2 Z M 629.4 63.2 L 637.8 77 L 631.8 77 L 626.6 67.6 L 621.3 77 L 615.3 77 L 623.7 63.2 L 615.8 50 L 621.9 50 L 626.6 58.7 L 631.3 50 L 637.3 50 L 629.4 63.2 Z M 652.3 63.2 L 660.7 77 L 654.7 77 L 649.5 67.6 L 644.2 77 L 638.2 77 L 646.6 63.2 L 638.7 50 L 644.8 50 L 649.5 58.7 L 654.2 50 L 660.2 50 L 652.3 63.2 Z M 675.3 63.2 L 683.7 77 L 677.6 77 L 672.4 67.6 L 667.2 77 L 661.1 77 L 669.5 63.2 L 661.7 50 L 667.7 50 L 672.4 58.7 L 677.1 50 L 683.1 50 L 675.3 63.2 Z M 691.8 79.1 L 686.4 83.3 L 686.4 71.6 L 691.8 71.6 L 691.8 79.1 Z M 719.7 74.8 C 718.5 76.1 716.5 77.3 713.6 77.3 C 710.6 77.3 708.7 76.1 707.4 74.8 C 705.7 72.9 705.2 70.7 705.2 67.1 C 705.2 63.5 705.7 61.3 707.4 59.4 C 708.7 58.1 710.6 57 713.6 57 C 716.5 57 718.5 58.1 719.7 59.4 C 721.5 61.3 722 63.5 722 67.1 C 722 70.7 721.5 73 719.7 74.8 Z M 715.9 62.3 C 715.3 61.8 714.5 61.5 713.6 61.5 C 712.6 61.5 711.8 61.8 711.3 62.3 C 710.3 63.3 710.1 65.1 710.1 67.1 C 710.1 69.2 710.3 71 711.3 71.9 C 711.8 72.5 712.6 72.8 713.6 72.8 C 714.5 72.8 715.3 72.5 715.9 71.9 C 716.9 71 717 69.2 717 67.1 C 717 65.1 716.9 63.3 715.9 62.3 Z M 741.1 58.9 C 741.1 58.9 737.5 62.6 737.5 62.6 C 736.7 61.9 736.1 61.5 734.8 61.5 C 733.3 61.5 731.6 62.6 731.6 65.1 C 731.61 65.1 731.6 77 731.6 77 L 726.7 77 L 726.7 57.2 L 731.5 57.2 C 731.5 57.2 731.49 59.13 731.5 59.1 C 732.4 58 734.3 57 736.5 57 C 738.4 57 739.8 57.5 741.1 58.9 Z M 769 66.6 C 769.04 66.58 769 68.7 769 68.7 C 769 68.7 756.65 68.67 756.7 68.7 C 756.7 71.3 758.2 73.1 761 73.1 C 763.1 73.1 764.2 72.4 765.4 71.2 C 765.4 71.2 768.5 74.1 768.5 74.1 C 766.5 76.2 764.5 77.3 760.9 77.3 C 756.2 77.3 751.8 75.1 751.8 67.1 C 751.8 60.7 755.3 57 760.4 57 C 765.9 57 769 61 769 66.6 Z M 757.1 63.2 C 756.7 63.9 756.7 64.4 756.7 65.3 C 756.7 65.3 764.1 65.3 764.1 65.3 C 764.1 64.4 764.1 63.9 763.7 63.2 C 763.2 62 762.1 61.1 760.4 61.1 C 758.7 61.1 757.6 62 757.1 63.2 Z M 799.4 58.8 C 801 60.3 801.6 62.2 801.6 64.4 C 801.57 64.38 801.6 77 801.6 77 L 796.6 77 C 796.6 77 796.63 65.06 796.6 65.1 C 796.6 62.4 795 61.5 793.4 61.5 C 791.8 61.5 790.1 62.4 790.1 64.9 C 790.05 64.95 790.1 77 790.1 77 L 785.1 77 C 785.1 77 785.11 65.06 785.1 65.1 C 785.1 62.4 783.4 61.5 781.8 61.5 C 780.2 61.5 778.5 62.4 778.5 65.1 C 778.54 65.06 778.5 77 778.5 77 L 773.6 77 L 773.6 57.2 L 778.4 57.2 C 778.4 57.2 778.42 59.06 778.4 59.1 C 779.7 57.7 781.6 57 783.4 57 C 785.6 57 787.4 57.8 788.6 59.5 C 790.3 57.8 792.1 57 794.5 57 C 796.5 57 798.3 57.7 799.4 58.8 Z M 821.9 64 C 821.86 64 821.9 77 821.9 77 L 817 77 C 817 77 817.03 75.32 817 75.3 C 815.7 76.7 814.4 77.2 812.2 77.2 C 809.9 77.2 808.3 76.6 807.1 75.5 C 806 74.4 805.5 72.8 805.5 71 C 805.5 67.9 807.6 65.3 812.3 65.3 C 812.32 65.29 816.9 65.3 816.9 65.3 C 816.9 65.3 816.92 64.3 816.9 64.3 C 816.9 62.1 815.9 61.2 813.2 61.2 C 811.4 61.2 810.5 61.7 809.4 62.9 C 809.4 62.9 806.3 59.8 806.3 59.8 C 808.3 57.7 810.1 57 813.4 57 C 819 57 821.9 59.4 821.9 64 Z M 813.2 68.7 C 811.2 68.7 810.2 69.5 810.2 71 C 810.2 72.3 811.2 73.2 813.2 73.2 C 814.4 73.2 815.3 73 816.2 72.2 C 816.7 71.7 816.9 71 816.9 69.7 C 816.92 69.74 816.9 68.7 816.9 68.7 C 816.9 68.7 813.16 68.67 813.2 68.7 Z M 832.1 77 L 827.2 77 L 827.2 57.8 L 832.1 57.8 L 832.1 77 Z M 832.2 53.9 L 827.1 53.9 L 827.1 49.8 L 832.2 49.8 L 832.2 53.9 Z M 842.4 71.1 C 842.4 72.2 842.9 72.9 844.1 72.9 C 844.13 72.85 846 72.9 846 72.9 L 846 77 C 846 77 843.21 77.03 843.2 77 C 839.1 77 837.4 74.2 837.4 71.4 C 837.44 71.37 837.4 50 837.4 50 L 842.4 50 C 842.4 50 842.38 71.07 842.4 71.1 Z M 875 77 L 870.2 77 C 870.2 77 870.19 75.21 870.2 75.2 C 868.9 76.6 867.1 77.3 865.3 77.3 C 863.3 77.3 861.7 76.7 860.6 75.5 C 859 73.9 858.6 72.1 858.6 69.9 C 858.56 69.89 858.6 57.2 858.6 57.2 L 863.5 57.2 C 863.5 57.2 863.5 69.2 863.5 69.2 C 863.5 71.9 865.2 72.8 866.8 72.8 C 868.4 72.8 870.1 71.9 870.1 69.2 C 870.08 69.2 870.1 57.2 870.1 57.2 L 875 57.2 L 875 77 Z M 894.9 59.3 C 894.9 59.3 891.8 62.4 891.8 62.4 C 890.7 61.4 889 61.1 887.2 61.1 C 885.2 61.1 884.4 62 884.4 63 C 884.4 64 885 64.5 886.5 64.7 C 886.5 64.7 889.6 65 889.6 65 C 893.5 65.4 895.5 67.4 895.5 70.8 C 895.5 75.2 891.7 77.3 887.1 77.3 C 883.9 77.3 881.2 76.9 878.6 74.4 C 878.6 74.4 881.9 71.2 881.9 71.2 C 883.5 72.8 885.6 73 887.1 73 C 888.9 73 890.6 72.5 890.6 71 C 890.6 70 890.1 69.3 888.5 69.2 C 888.5 69.2 885.4 68.9 885.4 68.9 C 881.9 68.5 879.7 67 879.7 63.3 C 879.7 59.2 883.3 57 887.3 57 C 890.4 57 893 57.6 894.9 59.3 Z M 923.4 64 C 923.39 64 923.4 77 923.4 77 L 918.6 77 C 918.6 77 918.57 75.32 918.6 75.3 C 917.2 76.7 916 77.2 913.7 77.2 C 911.5 77.2 909.8 76.6 908.6 75.5 C 907.6 74.4 907 72.8 907 71 C 907 67.9 909.2 65.3 913.9 65.3 C 913.85 65.29 918.5 65.3 918.5 65.3 C 918.5 65.3 918.45 64.3 918.5 64.3 C 918.5 62.1 917.4 61.2 914.8 61.2 C 913 61.2 912 61.7 911 62.9 C 911 62.9 907.9 59.8 907.9 59.8 C 909.8 57.7 911.7 57 915 57 C 920.5 57 923.4 59.4 923.4 64 Z M 914.7 68.7 C 912.7 68.7 911.8 69.5 911.8 71 C 911.8 72.3 912.7 73.2 914.8 73.2 C 916 73.2 916.9 73 917.7 72.2 C 918.3 71.7 918.5 71 918.5 69.7 C 918.45 69.74 918.5 68.7 918.5 68.7 C 918.5 68.7 914.69 68.67 914.7 68.7 Z M 934.1 57.8 L 937.6 57.8 L 937.6 61.6 L 934.1 61.6 C 934.1 61.6 934.11 71.07 934.1 71.1 C 934.1 72.2 934.6 72.9 935.8 72.9 C 935.82 72.85 937.6 72.9 937.6 72.9 L 937.6 77 C 937.6 77 934.91 77.03 934.9 77 C 930.9 77 929.2 74.2 929.2 71.4 C 929.17 71.37 929.2 61.6 929.2 61.6 L 927.1 61.6 L 927.1 57.8 L 929.2 57.8 L 929.2 52 L 934.1 52 L 934.1 57.8 Z M 962.5 63.2 L 970.9 77 L 964.8 77 L 959.6 67.6 L 954.4 77 L 948.3 77 L 956.7 63.2 L 948.9 50 L 954.9 50 L 959.6 58.7 L 964.3 50 L 970.3 50 L 962.5 63.2 Z M 985.4 63.2 L 993.8 77 L 987.7 77 L 982.5 67.6 L 977.3 77 L 971.2 77 L 979.6 63.2 L 971.8 50 L 977.8 50 L 982.5 58.7 L 987.2 50 L 993.2 50 L 985.4 63.2 Z M 1008.3 63.2 L 1016.7 77 L 1010.6 77 L 1005.4 67.6 L 1000.2 77 L 994.1 77 L 1002.5 63.2 L 994.7 50 L 1000.7 50 L 1005.4 58.7 L 1010.1 50 L 1016.1 50 L 1008.3 63.2 Z M 1034 49.8 C 1037 49.8 1039.7 50.4 1041.4 52.1 C 1043.2 53.9 1043.8 56.2 1043.8 59.3 C 1043.78 59.32 1043.8 77 1043.8 77 L 1038.9 77 C 1038.9 77 1038.95 75.25 1038.9 75.2 C 1037.6 76.7 1036.3 77.3 1034.3 77.3 C 1032.4 77.3 1030.8 76.7 1029.8 75.6 C 1028 73.9 1027.8 71.5 1027.8 68.3 C 1027.8 65 1028 62.7 1029.8 60.9 C 1030.8 59.9 1032.4 59.3 1034.3 59.3 C 1036.2 59.3 1037.6 59.8 1038.8 61.1 C 1038.8 61.1 1038.8 59.4 1038.8 59.4 C 1038.8 57.8 1038.5 56.6 1037.5 55.6 C 1036.5 54.5 1035.2 54.3 1033.7 54.3 C 1033.7 54.3 1029 54.3 1029 54.3 C 1027.5 54.3 1026.2 54.5 1025.2 55.6 C 1024.1 56.7 1023.8 57.8 1023.8 59.4 C 1023.8 59.4 1023.8 70.4 1023.8 70.4 C 1023.8 72.3 1024.2 73.1 1025.5 74.2 C 1025.5 74.2 1022.1 77.6 1022.1 77.6 C 1019.9 75.6 1019.1 74.1 1019.1 70.7 C 1019.1 70.7 1019.1 59.3 1019.1 59.3 C 1019.1 56.2 1019.7 53.9 1021.4 52.1 C 1023.2 50.4 1025.5 49.8 1028.6 49.8 C 1028.6 49.8 1034 49.8 1034 49.8 Z M 1032.5 68.3 C 1032.5 71.3 1033.2 73.1 1035.7 73.1 C 1038.1 73.1 1038.8 71.3 1038.8 68.3 C 1038.8 65.3 1038.1 63.4 1035.7 63.4 C 1033.2 63.4 1032.5 65.3 1032.5 68.3 Z M 1054.9 72.3 L 1067.2 72.3 L 1067.2 77 L 1049.7 77 L 1049.7 50 L 1054.9 50 L 1054.9 72.3 Z M 1089.3 54.7 L 1076.8 54.7 L 1076.8 61.3 L 1087.5 61.3 L 1087.5 66 L 1076.8 66 L 1076.8 77 L 1071.5 77 L 1071.5 50 L 1089.3 50 L 1089.3 54.7 Z M 1103.7 50 C 1107.4 50 1110 51.3 1111.9 53.9 C 1113.5 56.2 1113.6 59 1113.6 63.5 C 1113.6 68 1113.5 70.8 1111.9 73.1 C 1110 75.7 1107.4 77 1103.7 77 C 1103.7 77.03 1093.9 77 1093.9 77 L 1093.9 50 C 1093.9 50 1103.7 49.98 1103.7 50 Z M 1099.2 54.7 L 1099.2 72.3 C 1099.2 72.3 1103.24 72.32 1103.2 72.3 C 1105 72.3 1106.3 71.7 1107.2 70.6 C 1108.2 69.5 1108.3 67.8 1108.3 63.5 C 1108.3 59.2 1108.2 57.5 1107.2 56.4 C 1106.3 55.3 1105 54.7 1103.2 54.7 C 1103.24 54.69 1099.2 54.7 1099.2 54.7 Z M 1124 77 L 1118.4 77 L 1118.4 71.4 L 1124 71.4 L 1124 77 Z M 1143.9 59.7 C 1143.9 59.7 1140.6 63 1140.6 63 C 1139.5 61.9 1138.7 61.5 1137.4 61.5 C 1136.2 61.5 1135.3 61.9 1134.6 62.7 C 1133.8 63.7 1133.5 65 1133.5 67.1 C 1133.5 69.2 1133.8 70.6 1134.6 71.5 C 1135.3 72.4 1136.2 72.8 1137.4 72.8 C 1138.7 72.8 1139.5 72.3 1140.6 71.3 C 1140.6 71.3 1143.9 74.6 1143.9 74.6 C 1142.2 76.4 1140.1 77.3 1137.4 77.3 C 1133.4 77.3 1128.6 75.1 1128.6 67.1 C 1128.6 59.1 1133.4 57 1137.4 57 C 1140.1 57 1142.2 57.8 1143.9 59.7 Z M 1160.9 74.8 C 1159.6 76.1 1157.7 77.3 1154.7 77.3 C 1151.8 77.3 1149.9 76.1 1148.6 74.8 C 1146.8 72.9 1146.4 70.7 1146.4 67.1 C 1146.4 63.5 1146.8 61.3 1148.6 59.4 C 1149.9 58.1 1151.8 57 1154.7 57 C 1157.7 57 1159.6 58.1 1160.9 59.4 C 1162.7 61.3 1163.1 63.5 1163.1 67.1 C 1163.1 70.7 1162.7 73 1160.9 74.8 Z M 1157.1 62.3 C 1156.5 61.8 1155.7 61.5 1154.7 61.5 C 1153.8 61.5 1153 61.8 1152.5 62.3 C 1151.4 63.3 1151.3 65.1 1151.3 67.1 C 1151.3 69.2 1151.4 71 1152.5 71.9 C 1153 72.5 1153.8 72.8 1154.7 72.8 C 1155.7 72.8 1156.5 72.5 1157.1 71.9 C 1158.1 71 1158.2 69.2 1158.2 67.1 C 1158.2 65.1 1158.1 63.3 1157.1 62.3 Z M 1193.7 58.8 C 1195.3 60.3 1195.8 62.2 1195.8 64.4 C 1195.81 64.38 1195.8 77 1195.8 77 L 1190.9 77 C 1190.9 77 1190.87 65.06 1190.9 65.1 C 1190.9 62.4 1189.2 61.5 1187.6 61.5 C 1186.1 61.5 1184.3 62.4 1184.3 64.9 C 1184.3 64.95 1184.3 77 1184.3 77 L 1179.4 77 C 1179.4 77 1179.36 65.06 1179.4 65.1 C 1179.4 62.4 1177.7 61.5 1176.1 61.5 C 1174.5 61.5 1172.8 62.4 1172.8 65.1 C 1172.78 65.06 1172.8 77 1172.8 77 L 1167.8 77 L 1167.8 57.2 L 1172.7 57.2 C 1172.7 57.2 1172.67 59.06 1172.7 59.1 C 1174 57.7 1175.8 57 1177.6 57 C 1179.9 57 1181.6 57.8 1182.9 59.5 C 1184.6 57.8 1186.3 57 1188.8 57 C 1190.8 57 1192.5 57.7 1193.7 58.8 Z " stroke="none" fill="#840028"/>  </g>  <g id="Polygon28053">    <path d="M 21 6.7 L 8.4 6.7 L 8.4 13.3 L 19.2 13.3 L 19.2 18 L 8.4 18 L 8.4 29 L 3.2 29 L 3.2 2 L 21 2 L 21 6.7 Z M 37.7 26.8 C 36.5 28.1 34.5 29.3 31.6 29.3 C 28.7 29.3 26.7 28.1 25.5 26.8 C 23.7 24.9 23.2 22.7 23.2 19.1 C 23.2 15.5 23.7 13.3 25.5 11.4 C 26.7 10.1 28.7 9 31.6 9 C 34.5 9 36.5 10.1 37.7 11.4 C 39.5 13.3 40 15.5 40 19.1 C 40 22.7 39.6 25 37.7 26.8 Z M 33.9 14.3 C 33.3 13.8 32.6 13.5 31.6 13.5 C 30.6 13.5 29.9 13.8 29.3 14.3 C 28.3 15.3 28.2 17.1 28.2 19.1 C 28.2 21.2 28.3 23 29.3 23.9 C 29.9 24.5 30.6 24.8 31.6 24.8 C 32.6 24.8 33.3 24.5 33.9 23.9 C 34.9 23 35 21.2 35 19.1 C 35 17.1 34.9 15.3 33.9 14.3 Z M 59.2 10.9 C 59.2 10.9 55.5 14.6 55.5 14.6 C 54.7 13.9 54.1 13.5 52.9 13.5 C 51.3 13.5 49.6 14.6 49.6 17.1 C 49.63 17.1 49.6 29 49.6 29 L 44.7 29 L 44.7 9.2 L 49.5 9.2 C 49.5 9.2 49.51 11.13 49.5 11.1 C 50.5 10 52.4 9 54.5 9 C 56.5 9 57.8 9.5 59.2 10.9 Z M 96.6 10.8 C 98.2 12.3 98.8 14.2 98.8 16.4 C 98.76 16.38 98.8 29 98.8 29 L 93.8 29 C 93.8 29 93.82 17.06 93.8 17.1 C 93.8 14.4 92.1 13.5 90.6 13.5 C 89 13.5 87.2 14.4 87.2 16.9 C 87.25 16.95 87.2 29 87.2 29 L 82.3 29 C 82.3 29 82.31 17.06 82.3 17.1 C 82.3 14.4 80.6 13.5 79 13.5 C 77.4 13.5 75.7 14.4 75.7 17.1 C 75.73 17.06 75.7 29 75.7 29 L 70.8 29 L 70.8 9.2 L 75.6 9.2 C 75.6 9.2 75.62 11.06 75.6 11.1 C 76.9 9.7 78.8 9 80.6 9 C 82.8 9 84.6 9.8 85.8 11.5 C 87.5 9.8 89.3 9 91.7 9 C 93.7 9 95.5 9.7 96.6 10.8 Z M 117.8 26.8 C 116.5 28.1 114.5 29.3 111.6 29.3 C 108.7 29.3 106.7 28.1 105.5 26.8 C 103.7 24.9 103.2 22.7 103.2 19.1 C 103.2 15.5 103.7 13.3 105.5 11.4 C 106.7 10.1 108.7 9 111.6 9 C 114.5 9 116.5 10.1 117.8 11.4 C 119.5 13.3 120 15.5 120 19.1 C 120 22.7 119.6 25 117.8 26.8 Z M 113.9 14.3 C 113.4 13.8 112.6 13.5 111.6 13.5 C 110.7 13.5 109.9 13.8 109.3 14.3 C 108.3 15.3 108.2 17.1 108.2 19.1 C 108.2 21.2 108.3 23 109.3 23.9 C 109.9 24.5 110.7 24.8 111.6 24.8 C 112.6 24.8 113.4 24.5 113.9 23.9 C 114.9 23 115.1 21.2 115.1 19.1 C 115.1 17.1 114.9 15.3 113.9 14.3 Z M 139.2 10.9 C 139.2 10.9 135.5 14.6 135.5 14.6 C 134.7 13.9 134.1 13.5 132.9 13.5 C 131.4 13.5 129.7 14.6 129.7 17.1 C 129.65 17.1 129.7 29 129.7 29 L 124.7 29 L 124.7 9.2 L 129.5 9.2 C 129.5 9.2 129.54 11.13 129.5 11.1 C 130.5 10 132.4 9 134.5 9 C 136.5 9 137.8 9.5 139.2 10.9 Z M 157.1 18.6 C 157.13 18.58 157.1 20.7 157.1 20.7 C 157.1 20.7 144.74 20.67 144.7 20.7 C 144.7 23.3 146.3 25.1 149.1 25.1 C 151.2 25.1 152.3 24.4 153.5 23.2 C 153.5 23.2 156.6 26.1 156.6 26.1 C 154.5 28.2 152.6 29.3 149 29.3 C 144.3 29.3 139.9 27.1 139.9 19.1 C 139.9 12.7 143.4 9 148.5 9 C 154 9 157.1 13 157.1 18.6 Z M 145.2 15.2 C 144.8 15.9 144.8 16.4 144.7 17.3 C 144.7 17.3 152.2 17.3 152.2 17.3 C 152.2 16.4 152.2 15.9 151.8 15.2 C 151.3 14 150.2 13.1 148.5 13.1 C 146.8 13.1 145.7 14 145.2 15.2 Z M 175.4 29 L 170.5 29 L 170.5 9.8 L 175.4 9.8 L 175.4 29 Z M 175.5 5.9 L 170.4 5.9 L 170.4 1.8 L 175.5 1.8 L 175.5 5.9 Z M 195.4 10.8 C 197 12.4 197.4 14.2 197.4 16.4 C 197.41 16.38 197.4 29 197.4 29 L 192.5 29 C 192.5 29 192.47 17.06 192.5 17.1 C 192.5 14.4 190.8 13.5 189.2 13.5 C 187.6 13.5 185.9 14.4 185.9 17.1 C 185.89 17.06 185.9 29 185.9 29 L 181 29 L 181 9.2 L 185.8 9.2 C 185.8 9.2 185.78 11.06 185.8 11.1 C 187.1 9.7 188.9 9 190.7 9 C 192.7 9 194.3 9.6 195.4 10.8 Z M 211.9 5.9 C 211.9 5.9 209.99 5.93 210 5.9 C 208.8 5.9 208.3 6.6 208.3 7.7 C 208.28 7.71 208.3 9.8 208.3 9.8 L 211.9 9.8 L 211.9 13.6 L 208.3 13.6 L 208.3 29 L 203.3 29 L 203.3 13.6 L 201.3 13.6 L 201.3 9.8 L 203.3 9.8 C 203.3 9.8 203.34 7.41 203.3 7.4 C 203.3 4.6 205.1 1.7 209.1 1.7 C 209.11 1.75 211.9 1.7 211.9 1.7 L 211.9 5.9 Z M 228.8 26.8 C 227.6 28.1 225.6 29.3 222.7 29.3 C 219.8 29.3 217.8 28.1 216.6 26.8 C 214.8 24.9 214.3 22.7 214.3 19.1 C 214.3 15.5 214.8 13.3 216.6 11.4 C 217.8 10.1 219.8 9 222.7 9 C 225.6 9 227.6 10.1 228.8 11.4 C 230.6 13.3 231.1 15.5 231.1 19.1 C 231.1 22.7 230.7 25 228.8 26.8 Z M 225 14.3 C 224.4 13.8 223.7 13.5 222.7 13.5 C 221.7 13.5 221 13.8 220.4 14.3 C 219.4 15.3 219.3 17.1 219.3 19.1 C 219.3 21.2 219.4 23 220.4 23.9 C 221 24.5 221.7 24.8 222.7 24.8 C 223.7 24.8 224.4 24.5 225 23.9 C 226 23 226.1 21.2 226.1 19.1 C 226.1 17.1 226 15.3 225 14.3 Z M 250.3 10.9 C 250.3 10.9 246.6 14.6 246.6 14.6 C 245.8 13.9 245.2 13.5 244 13.5 C 242.4 13.5 240.7 14.6 240.7 17.1 C 240.73 17.1 240.7 29 240.7 29 L 235.8 29 L 235.8 9.2 L 240.6 9.2 C 240.6 9.2 240.61 11.13 240.6 11.1 C 241.6 10 243.5 9 245.6 9 C 247.6 9 248.9 9.5 250.3 10.9 Z M 278.9 10.8 C 280.5 12.3 281 14.2 281 16.4 C 281.04 16.38 281 29 281 29 L 276.1 29 C 276.1 29 276.1 17.06 276.1 17.1 C 276.1 14.4 274.4 13.5 272.8 13.5 C 271.3 13.5 269.5 14.4 269.5 16.9 C 269.53 16.95 269.5 29 269.5 29 L 264.6 29 C 264.6 29 264.59 17.06 264.6 17.1 C 264.6 14.4 262.9 13.5 261.3 13.5 C 259.7 13.5 258 14.4 258 17.1 C 258.02 17.06 258 29 258 29 L 253.1 29 L 253.1 9.2 L 257.9 9.2 C 257.9 9.2 257.9 11.06 257.9 11.1 C 259.2 9.7 261.1 9 262.9 9 C 265.1 9 266.9 9.8 268.1 11.5 C 269.8 9.8 271.5 9 274 9 C 276 9 277.8 9.7 278.9 10.8 Z M 301.3 16 C 301.34 16 301.3 29 301.3 29 L 296.5 29 C 296.5 29 296.51 27.32 296.5 27.3 C 295.2 28.7 293.9 29.2 291.6 29.2 C 289.4 29.2 287.7 28.6 286.6 27.5 C 285.5 26.4 285 24.8 285 23 C 285 19.9 287.1 17.3 291.8 17.3 C 291.8 17.29 296.4 17.3 296.4 17.3 C 296.4 17.3 296.4 16.3 296.4 16.3 C 296.4 14.1 295.3 13.2 292.7 13.2 C 290.9 13.2 290 13.7 288.9 14.9 C 288.9 14.9 285.8 11.8 285.8 11.8 C 287.7 9.7 289.6 9 292.9 9 C 298.5 9 301.3 11.4 301.3 16 Z M 292.6 20.7 C 290.7 20.7 289.7 21.5 289.7 23 C 289.7 24.3 290.7 25.2 292.7 25.2 C 293.9 25.2 294.8 25 295.6 24.2 C 296.2 23.7 296.4 23 296.4 21.7 C 296.4 21.74 296.4 20.7 296.4 20.7 C 296.4 20.7 292.63 20.67 292.6 20.7 Z M 312.1 9.8 L 315.5 9.8 L 315.5 13.6 L 312.1 13.6 C 312.1 13.6 312.05 23.07 312.1 23.1 C 312.1 24.2 312.6 24.9 313.8 24.9 C 313.76 24.85 315.5 24.9 315.5 24.9 L 315.5 29 C 315.5 29 312.85 29.03 312.9 29 C 308.8 29 307.1 26.2 307.1 23.4 C 307.11 23.37 307.1 13.6 307.1 13.6 L 305 13.6 L 305 9.8 L 307.1 9.8 L 307.1 4 L 312.1 4 L 312.1 9.8 Z M 325 29 L 320 29 L 320 9.8 L 325 9.8 L 325 29 Z M 325 5.9 L 320 5.9 L 320 1.8 L 325 1.8 L 325 5.9 Z M 344.2 26.8 C 342.9 28.1 340.9 29.3 338 29.3 C 335.1 29.3 333.1 28.1 331.9 26.8 C 330.1 24.9 329.6 22.7 329.6 19.1 C 329.6 15.5 330.1 13.3 331.9 11.4 C 333.1 10.1 335.1 9 338 9 C 340.9 9 342.9 10.1 344.2 11.4 C 345.9 13.3 346.4 15.5 346.4 19.1 C 346.4 22.7 346 25 344.2 26.8 Z M 340.3 14.3 C 339.8 13.8 339 13.5 338 13.5 C 337.1 13.5 336.3 13.8 335.7 14.3 C 334.7 15.3 334.6 17.1 334.6 19.1 C 334.6 21.2 334.7 23 335.7 23.9 C 336.3 24.5 337.1 24.8 338 24.8 C 339 24.8 339.8 24.5 340.3 23.9 C 341.3 23 341.5 21.2 341.5 19.1 C 341.5 17.1 341.3 15.3 340.3 14.3 Z M 365.6 10.8 C 367.2 12.4 367.6 14.2 367.6 16.4 C 367.57 16.38 367.6 29 367.6 29 L 362.6 29 C 362.6 29 362.63 17.06 362.6 17.1 C 362.6 14.4 361 13.5 359.4 13.5 C 357.8 13.5 356.1 14.4 356.1 17.1 C 356.06 17.06 356.1 29 356.1 29 L 351.1 29 L 351.1 9.2 L 355.9 9.2 C 355.9 9.2 355.94 11.06 355.9 11.1 C 357.2 9.7 359.1 9 360.9 9 C 362.9 9 364.5 9.6 365.6 10.8 Z M 378.1 31.1 L 372.7 35.3 L 372.7 23.6 L 378.1 23.6 L 378.1 31.1 Z M 406.9 11.7 C 406.9 11.7 403.5 15 403.5 15 C 402.5 13.9 401.6 13.5 400.3 13.5 C 399.1 13.5 398.2 13.9 397.5 14.7 C 396.8 15.7 396.4 17 396.4 19.1 C 396.4 21.2 396.8 22.6 397.5 23.5 C 398.2 24.4 399.1 24.8 400.3 24.8 C 401.6 24.8 402.5 24.3 403.5 23.3 C 403.5 23.3 406.9 26.6 406.9 26.6 C 405.1 28.4 403.1 29.3 400.3 29.3 C 396.3 29.3 391.5 27.1 391.5 19.1 C 391.5 11.1 396.3 9 400.3 9 C 403.1 9 405.1 9.8 406.9 11.7 Z M 423.8 26.8 C 422.6 28.1 420.6 29.3 417.7 29.3 C 414.7 29.3 412.8 28.1 411.5 26.8 C 409.7 24.9 409.3 22.7 409.3 19.1 C 409.3 15.5 409.7 13.3 411.5 11.4 C 412.8 10.1 414.7 9 417.7 9 C 420.6 9 422.6 10.1 423.8 11.4 C 425.6 13.3 426.1 15.5 426.1 19.1 C 426.1 22.7 425.6 25 423.8 26.8 Z M 420 14.3 C 419.4 13.8 418.6 13.5 417.7 13.5 C 416.7 13.5 415.9 13.8 415.4 14.3 C 414.3 15.3 414.2 17.1 414.2 19.1 C 414.2 21.2 414.3 23 415.4 23.9 C 415.9 24.5 416.7 24.8 417.7 24.8 C 418.6 24.8 419.4 24.5 420 23.9 C 421 23 421.1 21.2 421.1 19.1 C 421.1 17.1 421 15.3 420 14.3 Z M 445.2 10.8 C 446.8 12.4 447.2 14.2 447.2 16.4 C 447.22 16.38 447.2 29 447.2 29 L 442.3 29 C 442.3 29 442.28 17.06 442.3 17.1 C 442.3 14.4 440.6 13.5 439 13.5 C 437.4 13.5 435.7 14.4 435.7 17.1 C 435.7 17.06 435.7 29 435.7 29 L 430.8 29 L 430.8 9.2 L 435.6 9.2 C 435.6 9.2 435.59 11.06 435.6 11.1 C 436.9 9.7 438.7 9 440.5 9 C 442.5 9 444.1 9.6 445.2 10.8 Z M 457.9 9.8 L 461.4 9.8 L 461.4 13.6 L 457.9 13.6 C 457.9 13.6 457.93 23.07 457.9 23.1 C 457.9 24.2 458.5 24.9 459.6 24.9 C 459.64 24.85 461.4 24.9 461.4 24.9 L 461.4 29 C 461.4 29 458.73 29.03 458.7 29 C 454.7 29 453 26.2 453 23.4 C 452.99 23.37 453 13.6 453 13.6 L 450.9 13.6 L 450.9 9.8 L 453 9.8 L 453 4 L 457.9 4 L 457.9 9.8 Z M 480.7 16 C 480.69 16 480.7 29 480.7 29 L 475.9 29 C 475.9 29 475.87 27.32 475.9 27.3 C 474.5 28.7 473.3 29.2 471 29.2 C 468.8 29.2 467.1 28.6 466 27.5 C 464.9 26.4 464.3 24.8 464.3 23 C 464.3 19.9 466.5 17.3 471.2 17.3 C 471.16 17.29 475.8 17.3 475.8 17.3 C 475.8 17.3 475.75 16.3 475.8 16.3 C 475.8 14.1 474.7 13.2 472.1 13.2 C 470.3 13.2 469.3 13.7 468.3 14.9 C 468.3 14.9 465.2 11.8 465.2 11.8 C 467.1 9.7 469 9 472.3 9 C 477.8 9 480.7 11.4 480.7 16 Z M 472 20.7 C 470 20.7 469.1 21.5 469.1 23 C 469.1 24.3 470 25.2 472.1 25.2 C 473.3 25.2 474.2 25 475 24.2 C 475.6 23.7 475.8 23 475.8 21.7 C 475.75 21.74 475.8 20.7 475.8 20.7 C 475.8 20.7 471.99 20.67 472 20.7 Z M 500.6 11.7 C 500.6 11.7 497.2 15 497.2 15 C 496.2 13.9 495.3 13.5 494 13.5 C 492.8 13.5 491.9 13.9 491.2 14.7 C 490.5 15.7 490.1 17 490.1 19.1 C 490.1 21.2 490.5 22.6 491.2 23.5 C 491.9 24.4 492.8 24.8 494 24.8 C 495.3 24.8 496.2 24.3 497.2 23.3 C 497.2 23.3 500.6 26.6 500.6 26.6 C 498.8 28.4 496.8 29.3 494 29.3 C 490 29.3 485.2 27.1 485.2 19.1 C 485.2 11.1 490 9 494 9 C 496.8 9 498.8 9.8 500.6 11.7 Z M 509.8 9.8 L 513.3 9.8 L 513.3 13.6 L 509.8 13.6 C 509.8 13.6 509.8 23.07 509.8 23.1 C 509.8 24.2 510.3 24.9 511.5 24.9 C 511.51 24.85 513.3 24.9 513.3 24.9 L 513.3 29 C 513.3 29 510.6 29.03 510.6 29 C 506.6 29 504.9 26.2 504.9 23.4 C 504.86 23.37 504.9 13.6 504.9 13.6 L 502.8 13.6 L 502.8 9.8 L 504.9 9.8 L 504.9 4 L 509.8 4 L 509.8 9.8 Z M 534 32.2 C 533.6 33.4 533.1 34.2 532.5 34.8 C 531.3 35.9 529.9 36.3 528.2 36.3 C 528.23 36.29 526.3 36.3 526.3 36.3 L 526.3 31.8 C 526.3 31.8 527.43 31.84 527.4 31.8 C 528.8 31.8 529.4 31.5 529.9 30.1 C 529.9 30.06 530.7 27.6 530.7 27.6 L 524 9.2 L 529.2 9.2 L 533.3 21.5 L 537.2 9.2 L 542.4 9.2 C 542.4 9.2 533.97 32.22 534 32.2 Z M 558.9 26.8 C 557.6 28.1 555.6 29.3 552.7 29.3 C 549.8 29.3 547.8 28.1 546.6 26.8 C 544.8 24.9 544.3 22.7 544.3 19.1 C 544.3 15.5 544.8 13.3 546.6 11.4 C 547.8 10.1 549.8 9 552.7 9 C 555.6 9 557.6 10.1 558.9 11.4 C 560.6 13.3 561.1 15.5 561.1 19.1 C 561.1 22.7 560.7 25 558.9 26.8 Z M 555 14.3 C 554.5 13.8 553.7 13.5 552.7 13.5 C 551.8 13.5 551 13.8 550.4 14.3 C 549.4 15.3 549.3 17.1 549.3 19.1 C 549.3 21.2 549.4 23 550.4 23.9 C 551 24.5 551.8 24.8 552.7 24.8 C 553.7 24.8 554.5 24.5 555 23.9 C 556 23 556.2 21.2 556.2 19.1 C 556.2 17.1 556 15.3 555 14.3 Z M 582 29 L 577.2 29 C 577.2 29 577.21 27.21 577.2 27.2 C 575.9 28.6 574.1 29.3 572.3 29.3 C 570.3 29.3 568.7 28.7 567.6 27.5 C 566 25.9 565.6 24.1 565.6 21.9 C 565.59 21.89 565.6 9.2 565.6 9.2 L 570.5 9.2 C 570.5 9.2 570.53 21.2 570.5 21.2 C 570.5 23.9 572.2 24.8 573.8 24.8 C 575.4 24.8 577.1 23.9 577.1 21.2 C 577.1 21.2 577.1 9.2 577.1 9.2 L 582 9.2 L 582 29 Z M 602.1 10.9 C 602.1 10.9 598.4 14.6 598.4 14.6 C 597.6 13.9 597 13.5 595.8 13.5 C 594.2 13.5 592.5 14.6 592.5 17.1 C 592.53 17.1 592.5 29 592.5 29 L 587.6 29 L 587.6 9.2 L 592.4 9.2 C 592.4 9.2 592.41 11.13 592.4 11.1 C 593.4 10 595.3 9 597.4 9 C 599.4 9 600.7 9.5 602.1 10.9 Z M 619.4 24.3 L 631.6 24.3 L 631.6 29 L 614.1 29 L 614.1 2 L 619.4 2 L 619.4 24.3 Z M 640.5 29 L 635.5 29 L 635.5 9.8 L 640.5 9.8 L 640.5 29 Z M 640.5 5.9 L 635.5 5.9 L 635.5 1.8 L 640.5 1.8 L 640.5 5.9 Z M 660.4 10.8 C 662 12.4 662.4 14.2 662.4 16.4 C 662.45 16.38 662.4 29 662.4 29 L 657.5 29 C 657.5 29 657.51 17.06 657.5 17.1 C 657.5 14.4 655.8 13.5 654.2 13.5 C 652.6 13.5 650.9 14.4 650.9 17.1 C 650.93 17.06 650.9 29 650.9 29 L 646 29 L 646 9.2 L 650.8 9.2 C 650.8 9.2 650.82 11.06 650.8 11.1 C 652.1 9.7 653.9 9 655.8 9 C 657.7 9 659.3 9.6 660.4 10.8 Z M 682.3 11.7 C 682.3 11.7 678.9 15 678.9 15 C 677.9 13.9 677.1 13.5 675.8 13.5 C 674.6 13.5 673.7 13.9 673 14.7 C 672.2 15.7 671.9 17 671.9 19.1 C 671.9 21.2 672.2 22.6 673 23.5 C 673.7 24.4 674.6 24.8 675.8 24.8 C 677.1 24.8 677.9 24.3 678.9 23.3 C 678.9 23.3 682.3 26.6 682.3 26.6 C 680.5 28.4 678.5 29.3 675.8 29.3 C 671.8 29.3 666.9 27.1 666.9 19.1 C 666.9 11.1 671.8 9 675.8 9 C 678.5 9 680.5 9.8 682.3 11.7 Z M 699.3 26.8 C 698 28.1 696 29.3 693.1 29.3 C 690.2 29.3 688.2 28.1 687 26.8 C 685.2 24.9 684.8 22.7 684.8 19.1 C 684.8 15.5 685.2 13.3 687 11.4 C 688.2 10.1 690.2 9 693.1 9 C 696 9 698 10.1 699.3 11.4 C 701.1 13.3 701.5 15.5 701.5 19.1 C 701.5 22.7 701.1 25 699.3 26.8 Z M 695.4 14.3 C 694.9 13.8 694.1 13.5 693.1 13.5 C 692.2 13.5 691.4 13.8 690.8 14.3 C 689.8 15.3 689.7 17.1 689.7 19.1 C 689.7 21.2 689.8 23 690.8 23.9 C 691.4 24.5 692.2 24.8 693.1 24.8 C 694.1 24.8 694.9 24.5 695.4 23.9 C 696.5 23 696.6 21.2 696.6 19.1 C 696.6 17.1 696.5 15.3 695.4 14.3 Z M 711 23.1 C 711 24.2 711.5 24.9 712.7 24.9 C 712.72 24.85 714.6 24.9 714.6 24.9 L 714.6 29 C 714.6 29 711.81 29.03 711.8 29 C 707.7 29 706 26.2 706 23.4 C 706.03 23.37 706 2 706 2 L 711 2 C 711 2 710.97 23.07 711 23.1 Z M 733 10.8 C 734.6 12.4 735 14.2 735 16.4 C 735.03 16.38 735 29 735 29 L 730.1 29 C 730.1 29 730.09 17.06 730.1 17.1 C 730.1 14.4 728.4 13.5 726.8 13.5 C 725.2 13.5 723.5 14.4 723.5 17.1 C 723.51 17.06 723.5 29 723.5 29 L 718.6 29 L 718.6 9.2 L 723.4 9.2 C 723.4 9.2 723.4 11.06 723.4 11.1 C 724.7 9.7 726.5 9 728.3 9 C 730.3 9 731.9 9.6 733 10.8 Z M 763.6 10.9 C 763.6 10.9 760 14.6 760 14.6 C 759.2 13.9 758.5 13.5 757.3 13.5 C 755.8 13.5 754.1 14.6 754.1 17.1 C 754.1 17.1 754.1 29 754.1 29 L 749.2 29 L 749.2 9.2 L 754 9.2 C 754 9.2 753.99 11.13 754 11.1 C 754.9 10 756.8 9 759 9 C 760.9 9 762.3 9.5 763.6 10.9 Z M 781.6 18.6 C 781.58 18.58 781.6 20.7 781.6 20.7 C 781.6 20.7 769.19 20.67 769.2 20.7 C 769.2 23.3 770.7 25.1 773.5 25.1 C 775.7 25.1 776.7 24.4 778 23.2 C 778 23.2 781 26.1 781 26.1 C 779 28.2 777.1 29.3 773.5 29.3 C 768.8 29.3 764.3 27.1 764.3 19.1 C 764.3 12.7 767.8 9 772.9 9 C 778.5 9 781.6 13 781.6 18.6 Z M 769.6 15.2 C 769.3 15.9 769.2 16.4 769.2 17.3 C 769.2 17.3 776.7 17.3 776.7 17.3 C 776.6 16.4 776.6 15.9 776.3 15.2 C 775.7 14 774.6 13.1 772.9 13.1 C 771.2 13.1 770.1 14 769.6 15.2 Z M 800.7 10.8 C 802.6 12.7 802.7 15.8 802.7 19.1 C 802.7 22.5 802.6 25.5 800.7 27.5 C 799.5 28.6 797.9 29.3 795.9 29.3 C 793.8 29.3 792.4 28.7 791.1 27.3 C 791.07 27.28 791.1 36.3 791.1 36.3 L 786.1 36.3 L 786.1 9.2 L 790.9 9.2 C 790.9 9.2 790.92 11.1 790.9 11.1 C 792.3 9.6 793.8 9 795.9 9 C 797.8 9 799.5 9.7 800.7 10.8 Z M 791.1 19.1 C 791.1 22.3 791.5 24.8 794.4 24.8 C 797.4 24.8 797.8 22.3 797.8 19.1 C 797.8 15.9 797.4 13.5 794.4 13.5 C 791.5 13.5 791.1 15.9 791.1 19.1 Z M 821.9 10.9 C 821.9 10.9 818.2 14.6 818.2 14.6 C 817.5 13.9 816.8 13.5 815.6 13.5 C 814.1 13.5 812.4 14.6 812.4 17.1 C 812.39 17.1 812.4 29 812.4 29 L 807.5 29 L 807.5 9.2 L 812.3 9.2 C 812.3 9.2 812.28 11.13 812.3 11.1 C 813.2 10 815.1 9 817.3 9 C 819.2 9 820.6 9.5 821.9 10.9 Z M 839.9 18.6 C 839.87 18.58 839.9 20.7 839.9 20.7 C 839.9 20.7 827.48 20.67 827.5 20.7 C 827.5 23.3 829 25.1 831.8 25.1 C 834 25.1 835 24.4 836.3 23.2 C 836.3 23.2 839.3 26.1 839.3 26.1 C 837.3 28.2 835.3 29.3 831.8 29.3 C 827.1 29.3 822.6 27.1 822.6 19.1 C 822.6 12.7 826.1 9 831.2 9 C 836.8 9 839.9 13 839.9 18.6 Z M 827.9 15.2 C 827.6 15.9 827.5 16.4 827.5 17.3 C 827.5 17.3 835 17.3 835 17.3 C 834.9 16.4 834.9 15.9 834.5 15.2 C 834 14 832.9 13.1 831.2 13.1 C 829.5 13.1 828.4 14 827.9 15.2 Z M 858.7 11.3 C 858.7 11.3 855.7 14.4 855.7 14.4 C 854.5 13.4 852.8 13.1 851.1 13.1 C 849.1 13.1 848.3 14 848.3 15 C 848.3 16 848.8 16.5 850.3 16.7 C 850.3 16.7 853.4 17 853.4 17 C 857.3 17.4 859.3 19.4 859.3 22.8 C 859.3 27.2 855.6 29.3 850.9 29.3 C 847.8 29.3 845 28.9 842.5 26.4 C 842.5 26.4 845.7 23.2 845.7 23.2 C 847.3 24.8 849.5 25 851 25 C 852.7 25 854.5 24.5 854.5 23 C 854.5 22 854 21.3 852.4 21.2 C 852.4 21.2 849.3 20.9 849.3 20.9 C 845.7 20.5 843.5 19 843.5 15.3 C 843.5 11.2 847.1 9 851.2 9 C 854.3 9 856.8 9.6 858.7 11.3 Z M 879.7 18.6 C 879.73 18.58 879.7 20.7 879.7 20.7 C 879.7 20.7 867.34 20.67 867.3 20.7 C 867.3 23.3 868.9 25.1 871.7 25.1 C 873.8 25.1 874.9 24.4 876.1 23.2 C 876.1 23.2 879.2 26.1 879.2 26.1 C 877.1 28.2 875.2 29.3 871.6 29.3 C 866.9 29.3 862.5 27.1 862.5 19.1 C 862.5 12.7 866 9 871.1 9 C 876.6 9 879.7 13 879.7 18.6 Z M 867.8 15.2 C 867.4 15.9 867.4 16.4 867.3 17.3 C 867.3 17.3 874.8 17.3 874.8 17.3 C 874.8 16.4 874.7 15.9 874.4 15.2 C 873.9 14 872.8 13.1 871.1 13.1 C 869.4 13.1 868.3 14 867.8 15.2 Z M 898.7 10.8 C 900.3 12.4 900.7 14.2 900.7 16.4 C 900.74 16.38 900.7 29 900.7 29 L 895.8 29 C 895.8 29 895.8 17.06 895.8 17.1 C 895.8 14.4 894.1 13.5 892.5 13.5 C 890.9 13.5 889.2 14.4 889.2 17.1 C 889.23 17.06 889.2 29 889.2 29 L 884.3 29 L 884.3 9.2 L 889.1 9.2 C 889.1 9.2 889.11 11.06 889.1 11.1 C 890.4 9.7 892.2 9 894.1 9 C 896 9 897.6 9.6 898.7 10.8 Z M 911.5 9.8 L 915 9.8 L 915 13.6 L 911.5 13.6 C 911.5 13.6 911.46 23.07 911.5 23.1 C 911.5 24.2 912 24.9 913.2 24.9 C 913.17 24.85 915 24.9 915 24.9 L 915 29 C 915 29 912.25 29.03 912.3 29 C 908.2 29 906.5 26.2 906.5 23.4 C 906.52 23.37 906.5 13.6 906.5 13.6 L 904.4 13.6 L 904.4 9.8 L 906.5 9.8 L 906.5 4 L 911.5 4 L 911.5 9.8 Z M 934.2 16 C 934.22 16 934.2 29 934.2 29 L 929.4 29 C 929.4 29 929.39 27.32 929.4 27.3 C 928.1 28.7 926.8 29.2 924.5 29.2 C 922.3 29.2 920.6 28.6 919.5 27.5 C 918.4 26.4 917.8 24.8 917.8 23 C 917.8 19.9 920 17.3 924.7 17.3 C 924.68 17.29 929.3 17.3 929.3 17.3 C 929.3 17.3 929.28 16.3 929.3 16.3 C 929.3 14.1 928.2 13.2 925.6 13.2 C 923.8 13.2 922.9 13.7 921.8 14.9 C 921.8 14.9 918.7 11.8 918.7 11.8 C 920.6 9.7 922.5 9 925.8 9 C 931.4 9 934.2 11.4 934.2 16 Z M 925.5 20.7 C 923.5 20.7 922.6 21.5 922.6 23 C 922.6 24.3 923.5 25.2 925.6 25.2 C 926.8 25.2 927.7 25 928.5 24.2 C 929.1 23.7 929.3 23 929.3 21.7 C 929.28 21.74 929.3 20.7 929.3 20.7 C 929.3 20.7 925.52 20.67 925.5 20.7 Z M 944.9 9.8 L 948.4 9.8 L 948.4 13.6 L 944.9 13.6 C 944.9 13.6 944.93 23.07 944.9 23.1 C 944.9 24.2 945.5 24.9 946.6 24.9 C 946.64 24.85 948.4 24.9 948.4 24.9 L 948.4 29 C 948.4 29 945.73 29.03 945.7 29 C 941.7 29 940 26.2 940 23.4 C 939.99 23.37 940 13.6 940 13.6 L 937.9 13.6 L 937.9 9.8 L 940 9.8 L 940 4 L 944.9 4 L 944.9 9.8 Z M 957.9 29 L 952.9 29 L 952.9 9.8 L 957.9 9.8 L 957.9 29 Z M 957.9 5.9 L 952.8 5.9 L 952.8 1.8 L 957.9 1.8 L 957.9 5.9 Z M 971.9 29 L 968 29 L 960.7 9.2 L 965.9 9.2 L 970 21.5 L 974 9.2 L 979.2 9.2 L 971.9 29 Z M 998 18.6 C 997.98 18.58 998 20.7 998 20.7 C 998 20.7 985.59 20.67 985.6 20.7 C 985.6 23.3 987.1 25.1 989.9 25.1 C 992.1 25.1 993.2 24.4 994.4 23.2 C 994.4 23.2 997.4 26.1 997.4 26.1 C 995.4 28.2 993.5 29.3 989.9 29.3 C 985.2 29.3 980.7 27.1 980.7 19.1 C 980.7 12.7 984.2 9 989.4 9 C 994.9 9 998 13 998 18.6 Z M 986 15.2 C 985.7 15.9 985.6 16.4 985.6 17.3 C 985.6 17.3 993.1 17.3 993.1 17.3 C 993 16.4 993 15.9 992.7 15.2 C 992.1 14 991 13.1 989.4 13.1 C 987.6 13.1 986.5 14 986 15.2 Z M 1008 29 L 1002.4 29 L 1002.4 23.4 L 1008 23.4 L 1008 29 Z " stroke="none" fill="#840028"/>  </g></svg>