<?xml version="1.0" standalone="no"?><!DOCTYPE svg PUBLIC "-//W3C//DTD SVG 1.1//EN" "http://www.w3.org/Graphics/SVG/1.1/DTD/svg11.dtd"><svg xmlns="http://www.w3.org/2000/svg" version="1.1" width="479px" height="76.7470953369141px" viewBox="0 0 479 76.7470953369141">  <desc>SUBMISSION GUIDE</desc>  <defs/>  <g id="Polygon19932">    <path d="M 22.8 5.6 C 22.8 5.6 20.6 7.9 20.6 7.9 C 18.6 6 16.4 5.1 13 5.1 C 8.7 5.1 6.1 7.5 6.1 11.1 C 6.1 12.7 6.6 14 7.6 14.9 C 8.6 15.8 10.2 16.3 11.8 16.6 C 11.8 16.6 15.6 17.2 15.6 17.2 C 18.6 17.6 20 18.2 21.5 19.5 C 23.2 21 24.2 23.2 24.2 25.9 C 24.2 31.6 19.8 35.1 13 35.1 C 8.2 35.1 5 33.8 2 30.8 C 2 30.8 4.3 28.5 4.3 28.5 C 7 31.1 9.5 32 13.1 32 C 17.9 32 20.8 29.8 20.8 26 C 20.8 24.2 20.3 22.9 19.2 21.9 C 18.2 21 17.3 20.7 15 20.3 C 15 20.3 11.2 19.8 11.2 19.8 C 8.7 19.4 6.7 18.6 5.3 17.3 C 3.6 15.8 2.8 13.8 2.8 11.2 C 2.8 5.7 6.7 2.1 13.2 2.1 C 17.3 2.1 20 3.2 22.8 5.6 Z M 53.6 24.1 C 53.6 30.6 48.9 35.1 42.3 35.1 C 35.7 35.1 31 30.6 31 24.1 C 31.01 24.09 31 2.4 31 2.4 L 34.5 2.4 C 34.5 2.4 34.47 23.82 34.5 23.8 C 34.5 28.7 37.6 32 42.3 32 C 47 32 50.2 28.7 50.2 23.8 C 50.18 23.82 50.2 2.4 50.2 2.4 L 53.6 2.4 C 53.6 2.4 53.65 24.09 53.6 24.1 Z M 74.8 2.4 C 80.4 2.4 84.3 5.6 84.3 11 C 84.3 14.4 82.3 17.1 79.6 18.1 C 82.7 19.3 84.8 21.9 84.8 25.8 C 84.8 31.7 80.9 34.8 75.2 34.8 C 75.19 34.79 62.6 34.8 62.6 34.8 L 62.6 2.4 C 62.6 2.4 74.78 2.37 74.8 2.4 Z M 66 19.8 L 66 31.7 C 66 31.7 74.87 31.7 74.9 31.7 C 78.9 31.7 81.4 29.4 81.4 25.7 C 81.4 22.1 78.9 19.8 74.9 19.8 C 74.87 19.81 66 19.8 66 19.8 Z M 66 5.5 L 66 16.7 C 66 16.7 74.5 16.71 74.5 16.7 C 78.1 16.7 80.9 14.9 80.9 11.1 C 80.9 7.2 78.1 5.5 74.5 5.5 C 74.5 5.46 66 5.5 66 5.5 Z M 120.8 34.8 L 117.3 34.8 L 117.3 10.2 L 108.4 29.7 L 105.5 29.7 L 96.5 10.2 L 96.5 34.8 L 93 34.8 L 93 2.4 L 96.5 2.4 L 107 25.4 L 117.3 2.4 L 120.8 2.4 L 120.8 34.8 Z M 133.6 34.8 L 130.2 34.8 L 130.2 2.4 L 133.6 2.4 L 133.6 34.8 Z M 161.1 5.6 C 161.1 5.6 158.9 7.9 158.9 7.9 C 156.9 6 154.7 5.1 151.3 5.1 C 147 5.1 144.5 7.5 144.5 11.1 C 144.5 12.7 144.9 14 145.9 14.9 C 146.9 15.8 148.5 16.3 150.1 16.6 C 150.1 16.6 153.9 17.2 153.9 17.2 C 156.9 17.6 158.3 18.2 159.8 19.5 C 161.5 21 162.5 23.2 162.5 25.9 C 162.5 31.6 158.1 35.1 151.3 35.1 C 146.5 35.1 143.3 33.8 140.3 30.8 C 140.3 30.8 142.6 28.5 142.6 28.5 C 145.3 31.1 147.8 32 151.4 32 C 156.2 32 159.1 29.8 159.1 26 C 159.1 24.2 158.6 22.9 157.5 21.9 C 156.5 21 155.6 20.7 153.3 20.3 C 153.3 20.3 149.5 19.8 149.5 19.8 C 147 19.4 145 18.6 143.6 17.3 C 141.9 15.8 141.1 13.8 141.1 11.2 C 141.1 5.7 145 2.1 151.5 2.1 C 155.6 2.1 158.3 3.2 161.1 5.6 Z M 187.7 5.6 C 187.7 5.6 185.4 7.9 185.4 7.9 C 183.5 6 181.2 5.1 177.9 5.1 C 173.5 5.1 171 7.5 171 11.1 C 171 12.7 171.5 14 172.5 14.9 C 173.5 15.8 175 16.3 176.7 16.6 C 176.7 16.6 180.5 17.2 180.5 17.2 C 183.5 17.6 184.9 18.2 186.3 19.5 C 188.1 21 189.1 23.2 189.1 25.9 C 189.1 31.6 184.7 35.1 177.9 35.1 C 173.1 35.1 169.8 33.8 166.8 30.8 C 166.8 30.8 169.1 28.5 169.1 28.5 C 171.8 31.1 174.3 32 178 32 C 182.8 32 185.7 29.8 185.7 26 C 185.7 24.2 185.2 22.9 184.1 21.9 C 183.1 21 182.2 20.7 179.8 20.3 C 179.8 20.3 176.1 19.8 176.1 19.8 C 173.5 19.4 171.6 18.6 170.1 17.3 C 168.5 15.8 167.6 13.8 167.6 11.2 C 167.6 5.7 171.6 2.1 178 2.1 C 182.2 2.1 184.9 3.2 187.7 5.6 Z M 199.8 34.8 L 196.3 34.8 L 196.3 2.4 L 199.8 2.4 L 199.8 34.8 Z M 227.3 5.3 C 230.4 8.3 230.6 11.2 230.6 18.6 C 230.6 26 230.4 28.8 227.3 31.9 C 225.3 33.9 222.6 35.1 219.3 35.1 C 215.9 35.1 213.2 33.9 211.2 31.9 C 208.1 28.8 207.9 26 207.9 18.6 C 207.9 11.2 208.1 8.3 211.2 5.3 C 213.2 3.3 215.9 2.1 219.3 2.1 C 222.6 2.1 225.3 3.3 227.3 5.3 Z M 213.7 7.5 C 211.6 9.6 211.4 11.9 211.4 18.6 C 211.4 25.2 211.6 27.6 213.7 29.7 C 215.2 31.2 217.1 32 219.3 32 C 221.5 32 223.4 31.2 224.9 29.7 C 226.9 27.6 227.2 25.2 227.2 18.6 C 227.2 11.9 226.9 9.6 224.9 7.5 C 223.4 6 221.5 5.2 219.3 5.2 C 217.1 5.2 215.2 6 213.7 7.5 Z M 262.7 34.8 L 259.4 34.8 L 242.2 8.8 L 242.2 34.8 L 238.8 34.8 L 238.8 2.4 L 242 2.4 L 259.3 28.3 L 259.3 2.4 L 262.7 2.4 L 262.7 34.8 Z M 304.9 11.8 C 304.9 11.8 301.4 11.8 301.4 11.8 C 300.5 7.7 297.6 5.2 293.5 5.2 C 291.3 5.2 289.4 6 287.9 7.5 C 285.9 9.6 285.7 11.9 285.7 18.6 C 285.7 25.2 285.9 27.6 287.9 29.7 C 289.4 31.2 291.3 32 293.5 32 C 295.9 32 298.2 31 299.7 29.2 C 301 27.6 301.5 25.8 301.5 23.3 C 301.52 23.32 301.5 20.8 301.5 20.8 L 293.5 20.8 L 293.5 17.9 L 305 17.9 C 305 17.9 304.98 23 305 23 C 305 26.7 304.3 29 302.2 31.3 C 299.9 33.8 296.9 35.1 293.5 35.1 C 290.2 35.1 287.4 33.9 285.4 31.9 C 282.4 28.8 282.2 26 282.2 18.6 C 282.2 11.2 282.4 8.3 285.4 5.3 C 287.4 3.3 290.2 2.1 293.5 2.1 C 299.7 2.1 304 6.2 304.9 11.8 Z M 335.2 24.1 C 335.2 30.6 330.4 35.1 323.9 35.1 C 317.3 35.1 312.6 30.6 312.6 24.1 C 312.58 24.09 312.6 2.4 312.6 2.4 L 316 2.4 C 316 2.4 316.05 23.82 316 23.8 C 316 28.7 319.1 32 323.9 32 C 328.6 32 331.8 28.7 331.8 23.8 C 331.76 23.82 331.8 2.4 331.8 2.4 L 335.2 2.4 C 335.2 2.4 335.22 24.09 335.2 24.1 Z M 347.6 34.8 L 344.1 34.8 L 344.1 2.4 L 347.6 2.4 L 347.6 34.8 Z M 368.1 2.4 C 371.7 2.4 374.4 3.4 376.6 5.8 C 379.5 8.9 379.5 13.6 379.5 18.6 C 379.5 23.5 379.5 28.3 376.6 31.4 C 374.4 33.7 371.7 34.8 368.1 34.8 C 368.1 34.79 357 34.8 357 34.8 L 357 2.4 C 357 2.4 368.1 2.37 368.1 2.4 Z M 360.4 5.5 L 360.4 31.7 C 360.4 31.7 367.51 31.7 367.5 31.7 C 370 31.7 372.2 31.1 373.9 29.3 C 376 27.1 376 23.1 376 18.6 C 376 14.1 376 10.1 373.9 7.8 C 372.2 6 370 5.5 367.5 5.5 C 367.51 5.46 360.4 5.5 360.4 5.5 Z M 407.8 5.5 L 391.1 5.5 L 391.1 16.9 L 405.3 16.9 L 405.3 20 L 391.1 20 L 391.1 31.7 L 407.8 31.7 L 407.8 34.8 L 387.6 34.8 L 387.6 2.4 L 407.8 2.4 L 407.8 5.5 Z " stroke="none" fill="#fff"/>  </g></svg>