<?xml version="1.0" standalone="no"?><!DOCTYPE svg PUBLIC "-//W3C//DTD SVG 1.1//EN" "http://www.w3.org/Graphics/SVG/1.1/DTD/svg11.dtd"><svg xmlns="http://www.w3.org/2000/svg" version="1.1" width="92px" height="64.4957275390625px" viewBox="0 0 92 64.4957275390625">  <desc>Close</desc>  <defs/>  <g id="Polygon23538">    <path d="M 12 3.1 C 13.2 4.2 13.8 6.1 13.9 8.2 C 13.9 8.2 10.8 8.2 10.8 8.2 C 10.8 7.1 10.6 6 10 5.3 C 9.6 4.8 8.9 4.4 8 4.4 C 6.9 4.4 6.3 4.8 5.8 5.3 C 4.9 6.6 4.8 8.6 4.8 14.7 C 4.8 20.8 4.9 22.8 5.8 24 C 6.3 24.6 6.9 25 8 25 C 8.9 25 9.6 24.6 10 24.1 C 10.5 23.4 10.8 22.2 10.8 21.2 C 10.8 21.2 13.9 21.2 13.9 21.2 C 13.8 23.3 13.2 25.2 11.9 26.4 C 10.9 27.3 9.6 27.8 8 27.8 C 5.9 27.8 4.5 27 3.6 25.9 C 1.9 24 1.7 21.8 1.7 14.7 C 1.7 7.6 1.9 5.4 3.6 3.5 C 4.5 2.3 5.9 1.6 8 1.6 C 9.8 1.6 11 2.1 12 3.1 Z M 20 22.1 C 20 23.9 20.8 24.9 22.8 24.9 C 22.8 24.9 22.8 27.5 22.8 27.5 C 21.2 27.5 19.8 27.3 18.7 26.4 C 17.7 25.5 17.1 24.2 17.1 22.2 C 17.06 22.18 17.1 1.9 17.1 1.9 L 20 1.9 C 20 1.9 19.98 22.07 20 22.1 Z M 33.9 10.3 C 35 11.8 35.2 14.4 35.2 18.2 C 35.2 22 35 24.6 33.9 26.1 C 32.9 27.3 31.6 27.8 29.9 27.8 C 28.3 27.8 26.9 27.3 26 26.1 C 24.8 24.6 24.6 22 24.6 18.2 C 24.6 14.4 24.8 11.8 26 10.3 C 26.9 9 28.3 8.6 29.9 8.6 C 31.6 8.6 32.9 9 33.9 10.3 Z M 28.3 12 C 27.6 12.9 27.5 14.8 27.5 18.2 C 27.5 21.5 27.6 23.4 28.3 24.4 C 28.7 24.9 29.2 25.2 29.9 25.2 C 30.6 25.2 31.2 24.9 31.6 24.4 C 32.3 23.4 32.3 21.5 32.3 18.2 C 32.3 14.8 32.3 12.9 31.6 12 C 31.2 11.5 30.6 11.2 29.9 11.2 C 29.2 11.2 28.7 11.5 28.3 12 Z M 46.8 9.9 C 47.7 10.8 48.3 12.2 48.3 14 C 48.3 14 45.4 14 45.4 14 C 45.4 12.9 45.2 12.3 44.7 11.8 C 44.3 11.3 43.7 11.1 43.1 11.1 C 42.4 11.1 41.9 11.3 41.5 11.7 C 41 12.2 40.8 12.9 40.8 13.5 C 40.8 14.1 40.9 14.5 41.1 14.9 C 41.4 15.3 41.9 15.8 42.7 16.1 C 42.7 16.1 45.1 17.3 45.1 17.3 C 46.3 17.9 47.2 18.6 47.7 19.4 C 48.2 20.2 48.5 21.2 48.5 22.4 C 48.5 24.1 47.8 25.4 46.9 26.3 C 45.9 27.4 44.6 27.8 43.1 27.8 C 41.6 27.8 40.2 27.3 39.3 26.4 C 38.3 25.2 37.8 23.9 37.8 22.2 C 37.8 22.2 40.6 22.2 40.6 22.2 C 40.6 23.2 40.9 23.9 41.4 24.5 C 41.9 24.9 42.5 25.2 43.1 25.2 C 43.8 25.2 44.4 24.9 44.9 24.5 C 45.3 24 45.6 23.4 45.6 22.6 C 45.6 22 45.4 21.4 45.1 20.9 C 44.7 20.4 44.2 20 43.5 19.6 C 43.5 19.6 41 18.4 41 18.4 C 39.8 17.7 39 17 38.5 16.2 C 38.1 15.5 37.9 14.7 37.9 13.8 C 37.9 12.1 38.5 10.9 39.5 10 C 40.4 9 41.7 8.6 43.1 8.6 C 44.6 8.6 45.9 9 46.8 9.9 Z M 54 18.9 C 54 21.8 54.1 23.5 54.8 24.4 C 55.1 24.8 55.7 25.2 56.4 25.2 C 57.1 25.2 57.6 25 58.1 24.4 C 58.5 23.9 58.7 23.2 58.7 22.3 C 58.7 22.3 61.6 22.3 61.6 22.3 C 61.6 24 61.1 25.3 60.1 26.4 C 59.2 27.4 57.9 27.8 56.4 27.8 C 54.8 27.8 53.7 27.4 52.7 26.4 C 51.3 24.9 51 22.1 51 18.2 C 51 14.3 51.3 11.5 52.7 10 C 53.6 9 54.8 8.6 56.3 8.6 C 57.9 8.6 59 9 60 10 C 61.4 11.5 61.7 14.3 61.7 18.9 C 61.7 18.9 54 18.9 54 18.9 Z M 58 12 C 57.6 11.5 57.1 11.2 56.3 11.2 C 55.5 11.2 55.1 11.5 54.7 12 C 54.1 12.6 54 14 54 16.7 C 54 16.7 58.7 16.7 58.7 16.7 C 58.7 14 58.6 12.6 58 12 Z " stroke="none" fill="#a3a6a9"/>  </g></svg>