<?xml version="1.0" standalone="no"?><!DOCTYPE svg PUBLIC "-//W3C//DTD SVG 1.1//EN" "http://www.w3.org/Graphics/SVG/1.1/DTD/svg11.dtd"><svg xmlns="http://www.w3.org/2000/svg" version="1.1" width="572px" height="84.32763671875px" viewBox="0 0 572 84.32763671875">  <desc>Case submission</desc>  <defs/>  <g id="Polygon27536">    <path d="M 28 13 C 28 13 21.2 13 21.2 13 C 20.5 10.2 18.8 8.2 15.5 8.2 C 13.6 8.2 12.1 8.8 11.2 9.9 C 9.9 11.4 9.5 13.1 9.5 19.6 C 9.5 26.1 9.9 27.8 11.2 29.2 C 12.1 30.3 13.6 31 15.5 31 C 18.8 31 20.5 28.9 21.2 26.2 C 21.2 26.2 28 26.2 28 26.2 C 26.8 33.3 21.8 37 15.5 37 C 11.5 37 8.6 35.7 6.3 33.4 C 2.9 30 2.8 26.1 2.8 19.6 C 2.8 13.1 2.9 9.2 6.3 5.8 C 8.6 3.5 11.5 2.2 15.5 2.2 C 21.8 2.2 26.8 5.9 28 13 Z M 52.2 20.2 C 52.18 20.21 52.2 36.7 52.2 36.7 L 46.1 36.7 C 46.1 36.7 46.08 34.51 46.1 34.5 C 44.4 36.2 42.8 36.9 39.9 36.9 C 37.1 36.9 35 36.1 33.6 34.7 C 32.2 33.3 31.5 31.3 31.5 29.1 C 31.5 25.1 34.2 21.8 40.1 21.8 C 40.13 21.84 45.9 21.8 45.9 21.8 C 45.9 21.8 45.94 20.59 45.9 20.6 C 45.9 17.9 44.6 16.7 41.3 16.7 C 39 16.7 37.8 17.3 36.5 18.8 C 36.5 18.8 32.5 14.9 32.5 14.9 C 35 12.2 37.3 11.4 41.5 11.4 C 48.6 11.4 52.2 14.4 52.2 20.2 Z M 41.2 26.1 C 38.7 26.1 37.5 27.1 37.5 29 C 37.5 30.7 38.7 31.8 41.3 31.8 C 42.8 31.8 43.9 31.6 45 30.6 C 45.7 30 45.9 29 45.9 27.5 C 45.94 27.46 45.9 26.1 45.9 26.1 C 45.9 26.1 41.18 26.11 41.2 26.1 Z M 76.9 14.3 C 76.9 14.3 73.1 18.2 73.1 18.2 C 71.7 16.9 69.5 16.5 67.3 16.5 C 64.8 16.5 63.7 17.7 63.7 18.9 C 63.7 20.2 64.5 20.9 66.3 21.1 C 66.3 21.1 70.3 21.5 70.3 21.5 C 75.2 21.9 77.7 24.5 77.7 28.8 C 77.7 34.3 73 37 67.1 37 C 63.2 37 59.7 36.5 56.4 33.4 C 56.4 33.4 60.5 29.3 60.5 29.3 C 62.5 31.3 65.3 31.6 67.2 31.6 C 69.4 31.6 71.6 30.9 71.6 29 C 71.6 27.8 71 26.9 69 26.7 C 69 26.7 65 26.4 65 26.4 C 60.5 25.9 57.7 24 57.7 19.3 C 57.7 14.1 62.3 11.4 67.4 11.4 C 71.3 11.4 74.5 12.1 76.9 14.3 Z M 103.5 23.5 C 103.49 23.47 103.5 26.1 103.5 26.1 C 103.5 26.1 87.84 26.11 87.8 26.1 C 87.8 29.4 89.8 31.7 93.3 31.7 C 96 31.7 97.4 30.9 98.9 29.3 C 98.9 29.3 102.8 33 102.8 33 C 100.2 35.6 97.8 37 93.3 37 C 87.3 37 81.7 34.3 81.7 24.1 C 81.7 16 86.1 11.4 92.6 11.4 C 99.6 11.4 103.5 16.4 103.5 23.5 Z M 88.4 19.2 C 87.9 20.1 87.9 20.7 87.8 21.8 C 87.8 21.8 97.3 21.8 97.3 21.8 C 97.2 20.7 97.2 20.1 96.8 19.2 C 96.1 17.7 94.7 16.6 92.6 16.6 C 90.4 16.6 89 17.7 88.4 19.2 Z M 138.4 14.3 C 138.4 14.3 134.6 18.2 134.6 18.2 C 133.2 16.9 131 16.5 128.8 16.5 C 126.3 16.5 125.2 17.7 125.2 18.9 C 125.2 20.2 126 20.9 127.8 21.1 C 127.8 21.1 131.8 21.5 131.8 21.5 C 136.7 21.9 139.2 24.5 139.2 28.8 C 139.2 34.3 134.5 37 128.6 37 C 124.7 37 121.2 36.5 117.9 33.4 C 117.9 33.4 122 29.3 122 29.3 C 124 31.3 126.8 31.6 128.7 31.6 C 130.8 31.6 133.1 30.9 133.1 29 C 133.1 27.8 132.5 26.9 130.5 26.7 C 130.5 26.7 126.5 26.4 126.5 26.4 C 122 25.9 119.2 24 119.2 19.3 C 119.2 14.1 123.8 11.4 128.9 11.4 C 132.8 11.4 136 12.1 138.4 14.3 Z M 164.9 36.7 L 158.8 36.7 C 158.8 36.7 158.83 34.37 158.8 34.4 C 157.2 36.1 154.9 37 152.6 37 C 150.1 37 148.1 36.2 146.7 34.8 C 144.7 32.7 144.1 30.4 144.1 27.6 C 144.14 27.65 144.1 11.7 144.1 11.7 L 150.4 11.7 C 150.4 11.7 150.38 26.78 150.4 26.8 C 150.4 30.2 152.5 31.3 154.5 31.3 C 156.5 31.3 158.7 30.2 158.7 26.8 C 158.69 26.78 158.7 11.7 158.7 11.7 L 164.9 11.7 L 164.9 36.7 Z M 178.2 13.9 C 179.8 12 181.7 11.4 184.3 11.4 C 186.8 11.4 188.9 12.2 190.3 13.6 C 192.7 16.1 192.9 20 192.9 24.1 C 192.9 28.4 192.7 32.3 190.3 34.7 C 188.9 36.1 186.7 37 184.2 37 C 181.6 37 179.8 36.2 178 34.3 C 177.98 34.32 178 36.7 178 36.7 L 171.9 36.7 L 171.9 2.5 L 178.2 2.5 C 178.2 2.5 178.17 13.87 178.2 13.9 Z M 178.2 24.1 C 178.2 28.2 178.7 31.3 182.4 31.3 C 186.2 31.3 186.7 28.2 186.7 24.1 C 186.7 20.1 186.2 17 182.4 17 C 178.7 17 178.2 20.1 178.2 24.1 Z M 231.5 13.6 C 233.5 15.6 234.2 18 234.2 20.7 C 234.19 20.69 234.2 36.7 234.2 36.7 L 227.9 36.7 C 227.9 36.7 227.95 21.55 227.9 21.6 C 227.9 18.1 225.8 17 223.8 17 C 221.9 17 219.6 18.1 219.6 21.4 C 219.65 21.41 219.6 36.7 219.6 36.7 L 213.4 36.7 C 213.4 36.7 213.41 21.55 213.4 21.6 C 213.4 18.1 211.3 17 209.3 17 C 207.3 17 205.1 18.1 205.1 21.6 C 205.1 21.55 205.1 36.7 205.1 36.7 L 198.9 36.7 L 198.9 11.7 L 205 11.7 C 205 11.7 204.96 13.97 205 14 C 206.6 12.2 208.9 11.4 211.2 11.4 C 214 11.4 216.3 12.4 217.9 14.5 C 220 12.3 222.2 11.4 225.3 11.4 C 227.8 11.4 230.1 12.2 231.5 13.6 Z M 247.1 36.7 L 240.9 36.7 L 240.9 12.4 L 247.1 12.4 L 247.1 36.7 Z M 247.2 7.4 L 240.8 7.4 L 240.8 2.3 L 247.2 2.3 L 247.2 7.4 Z M 272.2 14.3 C 272.2 14.3 268.3 18.2 268.3 18.2 C 266.9 16.9 264.7 16.5 262.5 16.5 C 260 16.5 259 17.7 259 18.9 C 259 20.2 259.7 20.9 261.5 21.1 C 261.5 21.1 265.5 21.5 265.5 21.5 C 270.4 21.9 272.9 24.5 272.9 28.8 C 272.9 34.3 268.2 37 262.3 37 C 258.4 37 254.9 36.5 251.7 33.4 C 251.7 33.4 255.7 29.3 255.7 29.3 C 257.8 31.3 260.5 31.6 262.4 31.6 C 264.6 31.6 266.8 30.9 266.8 29 C 266.8 27.8 266.2 26.9 264.2 26.7 C 264.2 26.7 260.3 26.4 260.3 26.4 C 255.7 25.9 253 24 253 19.3 C 253 14.1 257.5 11.4 262.6 11.4 C 266.5 11.4 269.8 12.1 272.2 14.3 Z M 296.3 14.3 C 296.3 14.3 292.5 18.2 292.5 18.2 C 291 16.9 288.9 16.5 286.7 16.5 C 284.2 16.5 283.1 17.7 283.1 18.9 C 283.1 20.2 283.8 20.9 285.7 21.1 C 285.7 21.1 289.6 21.5 289.6 21.5 C 294.6 21.9 297.1 24.5 297.1 28.8 C 297.1 34.3 292.4 37 286.5 37 C 282.5 37 279 36.5 275.8 33.4 C 275.8 33.4 279.9 29.3 279.9 29.3 C 281.9 31.3 284.6 31.6 286.6 31.6 C 288.7 31.6 291 30.9 291 29 C 291 27.8 290.3 26.9 288.3 26.7 C 288.3 26.7 284.4 26.4 284.4 26.4 C 279.9 25.9 277.1 24 277.1 19.3 C 277.1 14.1 281.7 11.4 286.7 11.4 C 290.7 11.4 293.9 12.1 296.3 14.3 Z M 308.5 36.7 L 302.3 36.7 L 302.3 12.4 L 308.5 12.4 L 308.5 36.7 Z M 308.6 7.4 L 302.2 7.4 L 302.2 2.3 L 308.6 2.3 L 308.6 7.4 Z M 332.8 33.9 C 331.2 35.5 328.7 37 325 37 C 321.3 37 318.9 35.5 317.3 33.9 C 315 31.5 314.4 28.7 314.4 24.1 C 314.4 19.6 315 16.8 317.3 14.4 C 318.9 12.8 321.3 11.4 325 11.4 C 328.7 11.4 331.2 12.8 332.8 14.4 C 335 16.8 335.6 19.6 335.6 24.1 C 335.6 28.7 335.1 31.5 332.8 33.9 Z M 327.9 18.1 C 327.2 17.4 326.3 17 325 17 C 323.8 17 322.8 17.4 322.1 18.1 C 320.8 19.3 320.7 21.6 320.7 24.1 C 320.7 26.7 320.8 29 322.1 30.2 C 322.8 31 323.8 31.3 325 31.3 C 326.3 31.3 327.2 31 327.9 30.2 C 329.2 29 329.4 26.7 329.4 24.1 C 329.4 21.6 329.2 19.3 327.9 18.1 Z M 359.8 13.6 C 361.8 15.6 362.3 18 362.3 20.7 C 362.35 20.69 362.3 36.7 362.3 36.7 L 356.1 36.7 C 356.1 36.7 356.11 21.55 356.1 21.6 C 356.1 18.1 354 17 352 17 C 350 17 347.8 18.1 347.8 21.6 C 347.8 21.55 347.8 36.7 347.8 36.7 L 341.6 36.7 L 341.6 11.7 L 347.7 11.7 C 347.7 11.7 347.66 13.97 347.7 14 C 349.3 12.2 351.6 11.4 353.9 11.4 C 356.4 11.4 358.4 12.1 359.8 13.6 Z " stroke="none" fill="#fff"/>  </g></svg>