<?xml version="1.0" standalone="no"?><!DOCTYPE svg PUBLIC "-//W3C//DTD SVG 1.1//EN" "http://www.w3.org/Graphics/SVG/1.1/DTD/svg11.dtd"><svg xmlns="http://www.w3.org/2000/svg" version="1.1" width="99px" height="47.0797729492188px" viewBox="0 0 99 47.0797729492188">  <desc>XXXXXXX</desc>  <defs/>  <g id="Polygon20036">    <path d="M 5.9 11.8 L 9.9 22.9 L 8.6 22.9 L 5.3 13.1 L 2 22.9 L 0.7 22.9 L 4.5 11.8 L 1 1.6 L 2.3 1.6 L 5.3 10.5 L 8.2 1.6 L 9.5 1.6 L 5.9 11.8 Z M 16.4 11.8 L 20.4 22.9 L 19.1 22.9 L 15.8 13.1 L 12.5 22.9 L 11.2 22.9 L 15.1 11.8 L 11.5 1.6 L 12.8 1.6 L 15.8 10.5 L 18.7 1.6 L 20.1 1.6 L 16.4 11.8 Z M 27 11.8 L 30.9 22.9 L 29.6 22.9 L 26.3 13.1 L 23 22.9 L 21.7 22.9 L 25.6 11.8 L 22 1.6 L 23.4 1.6 L 26.3 10.5 L 29.3 1.6 L 30.6 1.6 L 27 11.8 Z M 37.5 11.8 L 41.5 22.9 L 40.1 22.9 L 36.8 13.1 L 33.6 22.9 L 32.2 22.9 L 36.1 11.8 L 32.6 1.6 L 33.9 1.6 L 36.8 10.5 L 39.8 1.6 L 41.1 1.6 L 37.5 11.8 Z M 48 11.8 L 52 22.9 L 50.7 22.9 L 47.4 13.1 L 44.1 22.9 L 42.8 22.9 L 46.6 11.8 L 43.1 1.6 L 44.4 1.6 L 47.4 10.5 L 50.3 1.6 L 51.7 1.6 L 48 11.8 Z M 58.6 11.8 L 62.5 22.9 L 61.2 22.9 L 57.9 13.1 L 54.6 22.9 L 53.3 22.9 L 57.2 11.8 L 53.6 1.6 L 55 1.6 L 57.9 10.5 L 60.9 1.6 L 62.2 1.6 L 58.6 11.8 Z M 69.1 11.8 L 73 22.9 L 71.7 22.9 L 68.4 13.1 L 65.2 22.9 L 63.8 22.9 L 67.7 11.8 L 64.2 1.6 L 65.5 1.6 L 68.4 10.5 L 71.4 1.6 L 72.7 1.6 L 69.1 11.8 Z " stroke="none" fill="#fff"/>  </g></svg>