<?xml version="1.0" standalone="no"?><!DOCTYPE svg PUBLIC "-//W3C//DTD SVG 1.1//EN" "http://www.w3.org/Graphics/SVG/1.1/DTD/svg11.dtd"><svg xmlns="http://www.w3.org/2000/svg" version="1.1" width="258px" height="198.079772949219px" viewBox="0 0 258 198.079772949219">  <desc>Step 4 What happens after the meeting?</desc>  <defs/>  <g id="Polygon21842">    <path d="M 12.9 85 C 12.93 85.02 12.9 94.9 12.9 94.9 L 11.4 94.9 C 11.4 94.9 11.4 93.48 11.4 93.5 C 10.2 94.7 9 95.1 7 95.1 C 4.8 95.1 3.7 94.7 2.7 93.8 C 2 93.1 1.7 92 1.7 91 C 1.7 88.3 3.6 86.8 6.7 86.8 C 6.72 86.79 11.4 86.8 11.4 86.8 C 11.4 86.8 11.4 85.17 11.4 85.2 C 11.4 82.9 10.3 81.6 7.3 81.6 C 5.3 81.6 4.3 82.1 3.3 83.5 C 3.3 83.5 2.2 82.5 2.2 82.5 C 3.4 80.8 4.9 80.3 7.3 80.3 C 11.2 80.3 12.9 82 12.9 85 Z M 6.9 88 C 4.4 88 3.2 89 3.2 90.9 C 3.2 92.8 4.3 93.7 7 93.7 C 8.3 93.7 9.5 93.6 10.6 92.6 C 11.1 92.1 11.4 91.2 11.4 89.9 C 11.4 89.88 11.4 88 11.4 88 C 11.4 88 6.9 88.02 6.9 88 Z M 23.9 74.9 C 23.9 74.9 22.83 74.91 22.8 74.9 C 21.3 74.9 20.6 75.8 20.6 77.3 C 20.61 77.31 20.6 80.5 20.6 80.5 L 23.9 80.5 L 23.9 81.6 L 20.6 81.6 L 20.6 94.9 L 19.1 94.9 L 19.1 81.6 L 17.1 81.6 L 17.1 80.5 L 19.1 80.5 C 19.1 80.5 19.08 77.34 19.1 77.3 C 19.1 75.1 20.3 73.6 22.6 73.6 C 22.56 73.56 23.9 73.6 23.9 73.6 L 23.9 74.9 Z M 29.6 80.5 L 32.9 80.5 L 32.9 81.6 L 29.6 81.6 C 29.6 81.6 29.64 91.17 29.6 91.2 C 29.6 92.7 30.3 93.6 31.9 93.6 C 31.86 93.57 32.9 93.6 32.9 93.6 L 32.9 94.9 C 32.9 94.9 31.59 94.92 31.6 94.9 C 29.3 94.9 28.1 93.3 28.1 91.1 C 28.11 91.14 28.1 81.6 28.1 81.6 L 26.1 81.6 L 26.1 80.5 L 28.1 80.5 L 28.1 75.8 L 29.6 75.8 L 29.6 80.5 Z M 48.1 87.3 C 48.09 87.33 48.1 88 48.1 88 C 48.1 88 38.04 88.02 38 88 C 38 91.7 39.7 93.7 42.7 93.7 C 44.5 93.7 45.5 93.2 46.7 92 C 46.7 92 47.9 92.9 47.9 92.9 C 46.4 94.3 45.1 95.1 42.7 95.1 C 38.7 95.1 36.5 92.5 36.5 87.7 C 36.5 83 38.7 80.3 42.3 80.3 C 45.9 80.3 48.1 82.9 48.1 87.3 Z M 38.5 84.1 C 38.2 84.9 38.1 85.4 38 86.8 C 38 86.8 46.6 86.8 46.6 86.8 C 46.5 85.4 46.4 84.9 46 84.1 C 45.4 82.5 44 81.6 42.3 81.6 C 40.6 81.6 39.2 82.6 38.5 84.1 Z M 62.3 81.7 C 62.3 81.7 61.2 82.8 61.2 82.8 C 60.3 81.9 59.7 81.6 58.5 81.6 C 56 81.6 54.6 83.7 54.6 86 C 54.6 86.01 54.6 94.9 54.6 94.9 L 53.1 94.9 L 53.1 80.5 L 54.6 80.5 C 54.6 80.5 54.6 82.38 54.6 82.4 C 55.4 81 57.1 80.3 58.8 80.3 C 60.2 80.3 61.3 80.6 62.3 81.7 Z M 74.9 80.5 L 78.1 80.5 L 78.1 81.6 L 74.9 81.6 C 74.9 81.6 74.88 91.17 74.9 91.2 C 74.9 92.7 75.6 93.6 77.1 93.6 C 77.1 93.57 78.1 93.6 78.1 93.6 L 78.1 94.9 C 78.1 94.9 76.83 94.92 76.8 94.9 C 74.5 94.9 73.3 93.3 73.3 91.1 C 73.35 91.14 73.3 81.6 73.3 81.6 L 71.4 81.6 L 71.4 80.5 L 73.3 80.5 L 73.3 75.8 L 74.9 75.8 L 74.9 80.5 Z M 84.3 82.2 C 85.3 80.9 86.8 80.3 88.5 80.3 C 90.3 80.3 91.7 80.8 92.6 81.9 C 93.4 82.9 93.9 84.1 93.9 85.7 C 93.87 85.68 93.9 94.9 93.9 94.9 L 92.3 94.9 C 92.3 94.9 92.34 85.95 92.3 85.9 C 92.3 83.2 91 81.6 88.3 81.6 C 85.7 81.6 84.3 83.2 84.3 85.9 C 84.27 85.95 84.3 94.9 84.3 94.9 L 82.7 94.9 L 82.7 73.6 L 84.3 73.6 C 84.3 73.6 84.27 82.17 84.3 82.2 Z M 110.2 87.3 C 110.25 87.33 110.2 88 110.2 88 C 110.2 88 100.2 88.02 100.2 88 C 100.2 91.7 101.8 93.7 104.9 93.7 C 106.6 93.7 107.7 93.2 108.9 92 C 108.9 92 110 92.9 110 92.9 C 108.6 94.3 107.2 95.1 104.8 95.1 C 100.8 95.1 98.7 92.5 98.7 87.7 C 98.7 83 100.8 80.3 104.5 80.3 C 108.1 80.3 110.2 82.9 110.2 87.3 Z M 100.7 84.1 C 100.3 84.9 100.3 85.4 100.2 86.8 C 100.2 86.8 108.7 86.8 108.7 86.8 C 108.6 85.4 108.6 84.9 108.2 84.1 C 107.6 82.5 106.1 81.6 104.5 81.6 C 102.8 81.6 101.4 82.6 100.7 84.1 Z M 142.1 81.7 C 143.1 82.6 143.6 84 143.6 85.7 C 143.61 85.68 143.6 94.9 143.6 94.9 L 142.1 94.9 C 142.1 94.9 142.08 85.95 142.1 85.9 C 142.1 83.2 140.7 81.6 138.1 81.6 C 135.6 81.6 134 83.2 134 85.7 C 134.01 85.68 134 94.9 134 94.9 L 132.5 94.9 C 132.5 94.9 132.48 85.95 132.5 85.9 C 132.5 83.2 131.1 81.6 128.5 81.6 C 125.9 81.6 124.4 83.2 124.4 85.9 C 124.41 85.95 124.4 94.9 124.4 94.9 L 122.9 94.9 L 122.9 80.5 L 124.4 80.5 C 124.4 80.5 124.41 82.17 124.4 82.2 C 125.5 80.9 126.9 80.3 128.7 80.3 C 130.9 80.3 132.5 81.2 133.3 82.9 C 134.4 81.2 136.1 80.3 138.3 80.3 C 139.9 80.3 141.1 80.8 142.1 81.7 Z M 160 87.3 C 159.99 87.33 160 88 160 88 C 160 88 149.94 88.02 149.9 88 C 149.9 91.7 151.6 93.7 154.6 93.7 C 156.4 93.7 157.4 93.2 158.6 92 C 158.6 92 159.8 92.9 159.8 92.9 C 158.3 94.3 157 95.1 154.6 95.1 C 150.6 95.1 148.4 92.5 148.4 87.7 C 148.4 83 150.6 80.3 154.2 80.3 C 157.8 80.3 160 82.9 160 87.3 Z M 150.4 84.1 C 150.1 84.9 150 85.4 149.9 86.8 C 149.9 86.8 158.5 86.8 158.5 86.8 C 158.4 85.4 158.3 84.9 157.9 84.1 C 157.3 82.5 155.9 81.6 154.2 81.6 C 152.5 81.6 151.1 82.6 150.4 84.1 Z M 175.7 87.3 C 175.71 87.33 175.7 88 175.7 88 C 175.7 88 165.66 88.02 165.7 88 C 165.7 91.7 167.3 93.7 170.4 93.7 C 172.1 93.7 173.1 93.2 174.4 92 C 174.4 92 175.5 92.9 175.5 92.9 C 174 94.3 172.7 95.1 170.3 95.1 C 166.3 95.1 164.1 92.5 164.1 87.7 C 164.1 83 166.3 80.3 169.9 80.3 C 173.5 80.3 175.7 82.9 175.7 87.3 Z M 166.2 84.1 C 165.8 84.9 165.7 85.4 165.7 86.8 C 165.7 86.8 174.2 86.8 174.2 86.8 C 174.1 85.4 174.1 84.9 173.7 84.1 C 173 82.5 171.6 81.6 169.9 81.6 C 168.2 81.6 166.9 82.6 166.2 84.1 Z M 182.6 80.5 L 185.8 80.5 L 185.8 81.6 L 182.6 81.6 C 182.6 81.6 182.58 91.17 182.6 91.2 C 182.6 92.7 183.3 93.6 184.8 93.6 C 184.8 93.57 185.8 93.6 185.8 93.6 L 185.8 94.9 C 185.8 94.9 184.53 94.92 184.5 94.9 C 182.2 94.9 181 93.3 181 91.1 C 181.05 91.14 181 81.6 181 81.6 L 179.1 81.6 L 179.1 80.5 L 181 80.5 L 181 75.8 L 182.6 75.8 L 182.6 80.5 Z M 192 94.9 L 190.4 94.9 L 190.4 80.5 L 192 80.5 L 192 94.9 Z M 192.1 75.4 L 190.3 75.4 L 190.3 73.6 L 192.1 73.6 L 192.1 75.4 Z M 207.4 81.7 C 208.4 82.6 208.9 84 208.9 85.7 C 208.92 85.68 208.9 94.9 208.9 94.9 L 207.4 94.9 C 207.4 94.9 207.39 85.95 207.4 85.9 C 207.4 83.2 206 81.6 203.4 81.6 C 200.8 81.6 199.3 83.2 199.3 85.9 C 199.32 85.95 199.3 94.9 199.3 94.9 L 197.8 94.9 L 197.8 80.5 L 199.3 80.5 C 199.3 80.5 199.32 82.17 199.3 82.2 C 200.4 80.9 201.8 80.3 203.6 80.3 C 205.2 80.3 206.5 80.7 207.4 81.7 Z M 223.4 82.3 C 223.41 82.32 223.4 80.5 223.4 80.5 L 224.9 80.5 C 224.9 80.5 224.94 95.73 224.9 95.7 C 224.9 99.4 222.8 102 219 102 C 216.9 102 215.8 101.4 214.3 100.1 C 214.3 100.1 215.3 99.1 215.3 99.1 C 216.4 100.1 217.2 100.6 219 100.6 C 222.1 100.6 223.4 98.5 223.4 95.6 C 223.4 95.6 223.4 93.1 223.4 93.1 C 222.1 94.7 220.8 95.1 219.1 95.1 C 217.6 95.1 216.3 94.6 215.6 93.8 C 214.1 92.4 213.7 90 213.7 87.7 C 213.7 85.4 214.1 83 215.6 81.5 C 216.3 80.8 217.6 80.3 219.1 80.3 C 220.8 80.3 222.1 80.6 223.4 82.3 Z M 215.2 87.7 C 215.2 90.7 215.8 93.7 219.3 93.7 C 222.9 93.7 223.4 90.7 223.4 87.7 C 223.4 84.7 222.9 81.6 219.3 81.6 C 215.8 81.6 215.2 84.7 215.2 87.7 Z M 241 78.7 C 241 80.1 240.5 81.1 239.7 82.2 C 239.7 82.2 237.1 86 237.1 86 C 236.7 86.5 236.6 87.3 236.6 87.8 C 236.58 87.78 236.6 89.2 236.6 89.2 L 235 89.2 C 235 89.2 235.05 87.84 235 87.8 C 235 86.7 235.3 86 235.9 85.1 C 235.9 85.1 238.4 81.4 238.4 81.4 C 239 80.5 239.5 79.8 239.5 78.7 C 239.5 76.4 237.8 74.7 235.6 74.7 C 233.3 74.7 231.8 76.6 231.8 78.7 C 231.8 78.7 230.2 78.7 230.2 78.7 C 230.2 75.8 232.4 73.4 235.6 73.4 C 238.7 73.4 241 75.7 241 78.7 Z M 236.8 94.9 L 234.8 94.9 L 234.8 92.9 L 236.8 92.9 L 236.8 94.9 Z " stroke="none" fill="#000"/>  </g>  <g id="Polygon21841">    <path d="M 19.3 58.9 L 17.7 58.9 L 12.6 40.3 L 7.6 58.9 L 5.9 58.9 L 0.6 37.6 L 2.3 37.6 L 6.8 56.1 L 11.8 37.6 L 13.5 37.6 L 18.4 56.1 L 22.9 37.6 L 24.7 37.6 L 19.3 58.9 Z M 29.7 46.2 C 30.8 44.9 32.2 44.3 34 44.3 C 35.7 44.3 37.1 44.8 38.1 45.9 C 38.9 46.9 39.3 48.1 39.3 49.7 C 39.3 49.68 39.3 58.9 39.3 58.9 L 37.8 58.9 C 37.8 58.9 37.77 49.95 37.8 49.9 C 37.8 47.2 36.4 45.6 33.8 45.6 C 31.2 45.6 29.7 47.2 29.7 49.9 C 29.7 49.95 29.7 58.9 29.7 58.9 L 28.2 58.9 L 28.2 37.6 L 29.7 37.6 C 29.7 37.6 29.7 46.17 29.7 46.2 Z M 55 49 C 54.96 49.02 55 58.9 55 58.9 L 53.4 58.9 C 53.4 58.9 53.43 57.48 53.4 57.5 C 52.2 58.7 51.1 59.1 49 59.1 C 46.9 59.1 45.7 58.7 44.8 57.8 C 44.1 57.1 43.7 56 43.7 55 C 43.7 52.3 45.6 50.8 48.7 50.8 C 48.75 50.79 53.4 50.8 53.4 50.8 C 53.4 50.8 53.43 49.17 53.4 49.2 C 53.4 46.9 52.3 45.6 49.3 45.6 C 47.3 45.6 46.3 46.1 45.4 47.5 C 45.4 47.5 44.2 46.5 44.2 46.5 C 45.5 44.8 47 44.3 49.3 44.3 C 53.2 44.3 55 46 55 49 Z M 48.9 52 C 46.5 52 45.2 53 45.2 54.9 C 45.2 56.8 46.4 57.7 49 57.7 C 50.3 57.7 51.6 57.6 52.6 56.6 C 53.2 56.1 53.4 55.2 53.4 53.9 C 53.43 53.88 53.4 52 53.4 52 C 53.4 52 48.93 52.02 48.9 52 Z M 62.5 44.5 L 65.8 44.5 L 65.8 45.6 L 62.5 45.6 C 62.5 45.6 62.55 55.17 62.5 55.2 C 62.5 56.7 63.2 57.6 64.8 57.6 C 64.77 57.57 65.8 57.6 65.8 57.6 L 65.8 58.9 C 65.8 58.9 64.5 58.92 64.5 58.9 C 62.2 58.9 61 57.3 61 55.1 C 61.02 55.14 61 45.6 61 45.6 L 59 45.6 L 59 44.5 L 61 44.5 L 61 39.8 L 62.5 39.8 L 62.5 44.5 Z M 79.6 46.2 C 80.7 44.9 82.1 44.3 83.8 44.3 C 85.6 44.3 87 44.8 88 45.9 C 88.8 46.9 89.2 48.1 89.2 49.7 C 89.19 49.68 89.2 58.9 89.2 58.9 L 87.7 58.9 C 87.7 58.9 87.66 49.95 87.7 49.9 C 87.7 47.2 86.3 45.6 83.7 45.6 C 81.1 45.6 79.6 47.2 79.6 49.9 C 79.59 49.95 79.6 58.9 79.6 58.9 L 78.1 58.9 L 78.1 37.6 L 79.6 37.6 C 79.6 37.6 79.59 46.17 79.6 46.2 Z M 104.8 49 C 104.85 49.02 104.8 58.9 104.8 58.9 L 103.3 58.9 C 103.3 58.9 103.32 57.48 103.3 57.5 C 102.1 58.7 100.9 59.1 98.9 59.1 C 96.7 59.1 95.6 58.7 94.6 57.8 C 94 57.1 93.6 56 93.6 55 C 93.6 52.3 95.5 50.8 98.6 50.8 C 98.64 50.79 103.3 50.8 103.3 50.8 C 103.3 50.8 103.32 49.17 103.3 49.2 C 103.3 46.9 102.2 45.6 99.2 45.6 C 97.2 45.6 96.2 46.1 95.2 47.5 C 95.2 47.5 94.1 46.5 94.1 46.5 C 95.4 44.8 96.9 44.3 99.2 44.3 C 103.1 44.3 104.8 46 104.8 49 Z M 98.8 52 C 96.4 52 95.1 53 95.1 54.9 C 95.1 56.8 96.3 57.7 98.9 57.7 C 100.2 57.7 101.5 57.6 102.5 56.6 C 103 56.1 103.3 55.2 103.3 53.9 C 103.32 53.88 103.3 52 103.3 52 C 103.3 52 98.82 52.02 98.8 52 Z M 119.9 45.5 C 121.4 47 121.8 49.4 121.8 51.7 C 121.8 54 121.4 56.4 119.9 57.8 C 119.2 58.6 117.9 59.1 116.4 59.1 C 114.7 59.1 113.4 58.7 112.1 57.1 C 112.08 57.06 112.1 65.8 112.1 65.8 L 110.5 65.8 L 110.5 44.5 L 112.1 44.5 C 112.1 44.5 112.08 46.32 112.1 46.3 C 113.4 44.6 114.7 44.3 116.4 44.3 C 117.9 44.3 119.2 44.8 119.9 45.5 Z M 112.1 51.7 C 112.1 54.7 112.6 57.7 116.2 57.7 C 119.7 57.7 120.2 54.7 120.2 51.7 C 120.2 48.7 119.7 45.6 116.2 45.6 C 112.6 45.6 112.1 48.7 112.1 51.7 Z M 136.1 45.5 C 137.6 47 138 49.4 138 51.7 C 138 54 137.6 56.4 136.1 57.8 C 135.4 58.6 134.1 59.1 132.6 59.1 C 130.9 59.1 129.6 58.7 128.3 57.1 C 128.28 57.06 128.3 65.8 128.3 65.8 L 126.7 65.8 L 126.7 44.5 L 128.3 44.5 C 128.3 44.5 128.28 46.32 128.3 46.3 C 129.6 44.6 130.9 44.3 132.6 44.3 C 134.1 44.3 135.4 44.8 136.1 45.5 Z M 128.3 51.7 C 128.3 54.7 128.8 57.7 132.4 57.7 C 135.9 57.7 136.4 54.7 136.4 51.7 C 136.4 48.7 135.9 45.6 132.4 45.6 C 128.8 45.6 128.3 48.7 128.3 51.7 Z M 153.7 51.3 C 153.69 51.33 153.7 52 153.7 52 C 153.7 52 143.64 52.02 143.6 52 C 143.6 55.7 145.3 57.7 148.3 57.7 C 150.1 57.7 151.1 57.2 152.3 56 C 152.3 56 153.5 56.9 153.5 56.9 C 152 58.3 150.7 59.1 148.3 59.1 C 144.3 59.1 142.1 56.5 142.1 51.7 C 142.1 47 144.3 44.3 147.9 44.3 C 151.5 44.3 153.7 46.9 153.7 51.3 Z M 144.1 48.1 C 143.8 48.9 143.7 49.4 143.6 50.8 C 143.6 50.8 152.2 50.8 152.2 50.8 C 152.1 49.4 152 48.9 151.6 48.1 C 151 46.5 149.6 45.6 147.9 45.6 C 146.2 45.6 144.8 46.6 144.1 48.1 Z M 168.3 45.7 C 169.3 46.6 169.8 48 169.8 49.7 C 169.8 49.68 169.8 58.9 169.8 58.9 L 168.3 58.9 C 168.3 58.9 168.27 49.95 168.3 49.9 C 168.3 47.2 166.9 45.6 164.3 45.6 C 161.7 45.6 160.2 47.2 160.2 49.9 C 160.2 49.95 160.2 58.9 160.2 58.9 L 158.7 58.9 L 158.7 44.5 L 160.2 44.5 C 160.2 44.5 160.2 46.17 160.2 46.2 C 161.3 44.9 162.7 44.3 164.5 44.3 C 166 44.3 167.3 44.7 168.3 45.7 Z M 184.9 45.8 C 184.9 45.8 183.9 46.8 183.9 46.8 C 182.8 46 181.4 45.6 179.8 45.6 C 177.4 45.6 176.2 46.6 176.2 48.4 C 176.2 49.9 177.1 50.6 179.1 50.8 C 179.1 50.8 181.4 51 181.4 51 C 183.8 51.3 185.7 52 185.7 54.8 C 185.7 57.4 183.4 59.1 179.9 59.1 C 177.4 59.1 175.5 58.4 174 57 C 174 57 175.1 56 175.1 56 C 176.2 57.1 177.8 57.7 179.8 57.7 C 182.7 57.7 184.2 56.8 184.2 54.8 C 184.2 53.3 183.3 52.6 181.4 52.4 C 181.4 52.4 179 52.2 179 52.2 C 176.1 51.9 174.7 50.7 174.7 48.4 C 174.7 45.9 176.7 44.3 179.8 44.3 C 181.9 44.3 183.6 44.8 184.9 45.8 Z " stroke="none" fill="#000"/>  </g>  <g id="Polygon21840">    <path d="M 15.4 3.8 C 15.4 3.8 13.3 5.8 13.3 5.8 C 12 4.6 10.5 4.2 8.6 4.2 C 6.1 4.2 4.8 5.6 4.8 7.5 C 4.8 8.3 5 9 5.5 9.5 C 6.1 10 6.7 10.3 7.9 10.5 C 7.9 10.5 10.4 10.9 10.4 10.9 C 12.4 11.2 13.5 11.6 14.4 12.4 C 15.5 13.5 16.1 15 16.1 16.8 C 16.1 20.8 13 23.1 8.5 23.1 C 5.3 23.1 3 22.3 0.9 20.3 C 0.9 20.3 3 18.1 3 18.1 C 4.6 19.7 6.4 20.2 8.5 20.2 C 11.3 20.2 12.9 19 12.9 16.9 C 12.9 16 12.7 15.2 12.1 14.7 C 11.6 14.2 10.8 13.9 9.8 13.8 C 9.8 13.8 7.2 13.4 7.2 13.4 C 5.5 13.2 4.1 12.6 3.2 11.7 C 2.2 10.8 1.6 9.4 1.6 7.6 C 1.6 3.9 4.3 1.4 8.8 1.4 C 11.6 1.4 13.6 2.1 15.4 3.8 Z M 23.5 7.7 L 26.5 7.7 L 26.5 10 L 23.5 10 C 23.5 10 23.55 18.54 23.5 18.5 C 23.5 19.7 24.1 20.3 25.2 20.3 C 25.23 20.31 26.5 20.3 26.5 20.3 L 26.5 22.9 C 26.5 22.9 24.66 22.92 24.7 22.9 C 21.8 22.9 20.5 20.9 20.5 18.7 C 20.49 18.69 20.5 10 20.5 10 L 18.7 10 L 18.7 7.7 L 20.5 7.7 L 20.5 3.4 L 23.5 3.4 L 23.5 7.7 Z M 32.5 16.2 C 32.5 18.8 33.8 20.5 36.4 20.5 C 38.1 20.5 39 20 40.1 18.9 C 40.1 18.9 42 20.7 42 20.7 C 40.4 22.3 39 23.1 36.3 23.1 C 32.5 23.1 29.5 21.1 29.5 15.3 C 29.5 10.3 32 7.5 35.9 7.5 C 40 7.5 42.4 10.5 42.4 14.9 C 42.36 14.91 42.4 16.2 42.4 16.2 C 42.4 16.2 32.49 16.2 32.5 16.2 Z M 38.9 12 C 38.4 10.9 37.4 10.1 35.9 10.1 C 34.4 10.1 33.4 10.9 32.9 12 C 32.6 12.7 32.5 13.1 32.5 14.1 C 32.5 14.1 39.3 14.1 39.3 14.1 C 39.3 13.1 39.2 12.7 38.9 12 Z M 57.2 8.9 C 58.6 10.4 58.9 12.8 58.9 15.3 C 58.9 17.8 58.6 20.2 57.2 21.7 C 56.3 22.6 55 23.1 53.5 23.1 C 51.9 23.1 50.6 22.7 49.5 21.4 C 49.5 21.36 49.5 29.1 49.5 29.1 L 46.4 29.1 L 46.4 7.7 L 49.4 7.7 C 49.4 7.7 49.44 9.33 49.4 9.3 C 50.6 7.9 51.8 7.5 53.5 7.5 C 55 7.5 56.3 8 57.2 8.9 Z M 49.5 15.3 C 49.5 18 49.9 20.4 52.7 20.4 C 55.4 20.4 55.8 18 55.8 15.3 C 55.8 12.6 55.4 10.3 52.7 10.3 C 49.9 10.3 49.5 12.6 49.5 15.3 Z M 77.5 19.7 L 68.8 19.7 L 68.8 16.9 L 76.4 1.6 L 79.7 1.6 L 72.2 16.9 L 77.5 16.9 L 77.5 11.9 L 80.5 11.9 L 80.5 16.9 L 82.7 16.9 L 82.7 19.7 L 80.5 19.7 L 80.5 22.9 L 77.5 22.9 L 77.5 19.7 Z " stroke="none" fill="#000"/>  </g></svg>