<?xml version="1.0" standalone="no"?><!DOCTYPE svg PUBLIC "-//W3C//DTD SVG 1.1//EN" "http://www.w3.org/Graphics/SVG/1.1/DTD/svg11.dtd"><svg xmlns="http://www.w3.org/2000/svg" version="1.1" width="258px" height="148.32763671875px" viewBox="0 0 258 148.32763671875">  <desc>Policy placement</desc>  <defs/>  <g id="Polygon21945">    <path d="M 21.9 71.2 C 24.2 73.7 24.5 77.6 24.5 81.7 C 24.5 86 24.2 89.9 21.9 92.3 C 20.4 93.7 18.3 94.6 15.8 94.6 C 13.2 94.6 11.4 93.9 9.7 92.1 C 9.74 92.06 9.7 103.4 9.7 103.4 L 3.5 103.4 L 3.5 69.3 L 9.6 69.3 C 9.6 69.3 9.55 71.62 9.6 71.6 C 11.3 69.7 13.2 69 15.8 69 C 18.3 69 20.4 69.8 21.9 71.2 Z M 9.7 81.7 C 9.7 85.8 10.2 88.9 14 88.9 C 17.8 88.9 18.2 85.8 18.2 81.7 C 18.2 77.7 17.8 74.6 14 74.6 C 10.2 74.6 9.7 77.7 9.7 81.7 Z M 36.4 86.7 C 36.4 88.2 37.1 89 38.6 89 C 38.64 88.99 41 89 41 89 L 41 94.3 C 41 94.3 37.49 94.27 37.5 94.3 C 32.4 94.3 30.2 90.7 30.2 87.1 C 30.19 87.12 30.2 60.1 30.2 60.1 L 36.4 60.1 C 36.4 60.1 36.43 86.74 36.4 86.7 Z M 64.9 77.8 C 64.94 77.81 64.9 94.3 64.9 94.3 L 58.8 94.3 C 58.8 94.3 58.85 92.11 58.8 92.1 C 57.2 93.8 55.6 94.5 52.7 94.5 C 49.9 94.5 47.8 93.7 46.3 92.3 C 45 90.9 44.3 88.9 44.3 86.7 C 44.3 82.7 47 79.4 52.9 79.4 C 52.9 79.44 58.7 79.4 58.7 79.4 C 58.7 79.4 58.7 78.19 58.7 78.2 C 58.7 75.5 57.4 74.3 54 74.3 C 51.8 74.3 50.6 74.9 49.2 76.4 C 49.2 76.4 45.3 72.5 45.3 72.5 C 47.8 69.8 50.1 69 54.3 69 C 61.3 69 64.9 72 64.9 77.8 Z M 54 83.7 C 51.5 83.7 50.3 84.7 50.3 86.6 C 50.3 88.3 51.5 89.4 54 89.4 C 55.6 89.4 56.7 89.2 57.7 88.2 C 58.5 87.6 58.7 86.6 58.7 85.1 C 58.7 85.06 58.7 83.7 58.7 83.7 C 58.7 83.7 53.95 83.71 54 83.7 Z M 90 72.3 C 90 72.3 85.8 76.6 85.8 76.6 C 84.5 75.2 83.4 74.6 81.8 74.6 C 80.3 74.6 79.2 75.2 78.2 76.2 C 77.3 77.4 76.8 79.1 76.8 81.7 C 76.8 84.4 77.3 86.1 78.2 87.3 C 79.2 88.4 80.3 88.9 81.8 88.9 C 83.4 88.9 84.5 88.3 85.8 87 C 85.8 87 90 91.2 90 91.2 C 87.8 93.5 85.2 94.6 81.8 94.6 C 76.8 94.6 70.6 91.9 70.6 81.7 C 70.6 71.7 76.8 69 81.8 69 C 85.2 69 87.8 70 90 72.3 Z M 114.7 81.1 C 114.72 81.07 114.7 83.7 114.7 83.7 C 114.7 83.7 99.07 83.71 99.1 83.7 C 99.1 87 101 89.3 104.5 89.3 C 107.3 89.3 108.6 88.5 110.2 86.9 C 110.2 86.9 114 90.6 114 90.6 C 111.5 93.2 109 94.6 104.5 94.6 C 98.5 94.6 92.9 91.9 92.9 81.7 C 92.9 73.6 97.3 69 103.8 69 C 110.8 69 114.7 74 114.7 81.1 Z M 99.6 76.8 C 99.2 77.7 99.1 78.3 99.1 79.4 C 99.1 79.4 108.5 79.4 108.5 79.4 C 108.5 78.3 108.4 77.7 108 76.8 C 107.3 75.3 105.9 74.2 103.8 74.2 C 101.7 74.2 100.3 75.3 99.6 76.8 Z M 153.1 71.2 C 155.1 73.2 155.8 75.6 155.8 78.3 C 155.81 78.29 155.8 94.3 155.8 94.3 L 149.6 94.3 C 149.6 94.3 149.57 79.15 149.6 79.2 C 149.6 75.7 147.5 74.6 145.4 74.6 C 143.5 74.6 141.3 75.7 141.3 79 C 141.26 79.01 141.3 94.3 141.3 94.3 L 135 94.3 C 135 94.3 135.02 79.15 135 79.2 C 135 75.7 132.9 74.6 130.9 74.6 C 128.9 74.6 126.7 75.7 126.7 79.2 C 126.72 79.15 126.7 94.3 126.7 94.3 L 120.5 94.3 L 120.5 69.3 L 126.6 69.3 C 126.6 69.3 126.57 71.57 126.6 71.6 C 128.2 69.8 130.6 69 132.9 69 C 135.6 69 137.9 70 139.5 72.1 C 141.6 69.9 143.8 69 146.9 69 C 149.4 69 151.7 69.8 153.1 71.2 Z M 183.1 81.1 C 183.07 81.07 183.1 83.7 183.1 83.7 C 183.1 83.7 167.42 83.71 167.4 83.7 C 167.4 87 169.3 89.3 172.9 89.3 C 175.6 89.3 177 88.5 178.5 86.9 C 178.5 86.9 182.3 90.6 182.3 90.6 C 179.8 93.2 177.4 94.6 172.8 94.6 C 166.9 94.6 161.3 91.9 161.3 81.7 C 161.3 73.6 165.7 69 172.2 69 C 179.1 69 183.1 74 183.1 81.1 Z M 167.9 76.8 C 167.5 77.7 167.5 78.3 167.4 79.4 C 167.4 79.4 176.9 79.4 176.9 79.4 C 176.8 78.3 176.8 77.7 176.3 76.8 C 175.7 75.3 174.3 74.2 172.2 74.2 C 170 74.2 168.6 75.3 167.9 76.8 Z M 207.1 71.2 C 209.1 73.2 209.6 75.6 209.6 78.3 C 209.61 78.29 209.6 94.3 209.6 94.3 L 203.4 94.3 C 203.4 94.3 203.37 79.15 203.4 79.2 C 203.4 75.7 201.3 74.6 199.2 74.6 C 197.2 74.6 195.1 75.7 195.1 79.2 C 195.07 79.15 195.1 94.3 195.1 94.3 L 188.8 94.3 L 188.8 69.3 L 194.9 69.3 C 194.9 69.3 194.93 71.57 194.9 71.6 C 196.6 69.8 198.9 69 201.2 69 C 203.7 69 205.7 69.7 207.1 71.2 Z M 223.1 70 L 227.6 70 L 227.6 74.7 L 223.1 74.7 C 223.1 74.7 223.15 86.74 223.1 86.7 C 223.1 88.2 223.8 89 225.3 89 C 225.31 88.99 227.6 89 227.6 89 L 227.6 94.3 C 227.6 94.3 224.16 94.27 224.2 94.3 C 219.1 94.3 216.9 90.7 216.9 87.1 C 216.91 87.12 216.9 74.7 216.9 74.7 L 214.3 74.7 L 214.3 70 L 216.9 70 L 216.9 62.6 L 223.1 62.6 L 223.1 70 Z " stroke="none" fill="#323e47"/>  </g>  <g id="Polygon21944">    <path d="M 17.2 2.5 C 24.3 2.5 28.5 7.3 28.5 13.2 C 28.5 19 24.3 23.8 17.2 23.8 C 17.23 23.81 10.7 23.8 10.7 23.8 L 10.7 36.7 L 4 36.7 L 4 2.5 C 4 2.5 17.23 2.5 17.2 2.5 Z M 10.7 8.4 L 10.7 17.9 C 10.7 17.9 16.9 17.86 16.9 17.9 C 19.9 17.9 21.8 15.9 21.8 13.2 C 21.8 10.3 19.9 8.4 16.9 8.4 C 16.9 8.45 10.7 8.4 10.7 8.4 Z M 50.4 33.9 C 48.9 35.5 46.4 37 42.7 37 C 39 37 36.5 35.5 34.9 33.9 C 32.7 31.5 32.1 28.7 32.1 24.1 C 32.1 19.6 32.7 16.8 34.9 14.4 C 36.5 12.8 39 11.4 42.7 11.4 C 46.4 11.4 48.9 12.8 50.4 14.4 C 52.7 16.8 53.3 19.6 53.3 24.1 C 53.3 28.7 52.8 31.5 50.4 33.9 Z M 45.6 18.1 C 44.9 17.4 43.9 17 42.7 17 C 41.5 17 40.5 17.4 39.8 18.1 C 38.5 19.3 38.4 21.6 38.4 24.1 C 38.4 26.7 38.5 29 39.8 30.2 C 40.5 31 41.5 31.3 42.7 31.3 C 43.9 31.3 44.9 31 45.6 30.2 C 46.9 29 47 26.7 47 24.1 C 47 21.6 46.9 19.3 45.6 18.1 Z M 65.2 29.1 C 65.2 30.6 65.9 31.4 67.4 31.4 C 67.44 31.39 69.8 31.4 69.8 31.4 L 69.8 36.7 C 69.8 36.7 66.29 36.67 66.3 36.7 C 61.2 36.7 59 33.1 59 29.5 C 58.99 29.52 59 2.5 59 2.5 L 65.2 2.5 C 65.2 2.5 65.23 29.14 65.2 29.1 Z M 81.1 36.7 L 74.8 36.7 L 74.8 12.4 L 81.1 12.4 L 81.1 36.7 Z M 81.1 7.4 L 74.7 7.4 L 74.7 2.3 L 81.1 2.3 L 81.1 7.4 Z M 106.4 14.7 C 106.4 14.7 102.1 19 102.1 19 C 100.8 17.6 99.8 17 98.2 17 C 96.6 17 95.5 17.6 94.6 18.6 C 93.6 19.8 93.2 21.5 93.2 24.1 C 93.2 26.8 93.6 28.5 94.6 29.7 C 95.5 30.8 96.6 31.3 98.2 31.3 C 99.8 31.3 100.8 30.7 102.1 29.4 C 102.1 29.4 106.4 33.6 106.4 33.6 C 104.2 35.9 101.6 37 98.2 37 C 93.1 37 87 34.3 87 24.1 C 87 14.1 93.1 11.4 98.2 11.4 C 101.6 11.4 104.2 12.4 106.4 14.7 Z M 120.7 40.7 C 120.2 42.1 119.6 43.2 118.8 43.9 C 117.4 45.4 115.5 45.8 113.5 45.8 C 113.47 45.84 111 45.8 111 45.8 L 111 40.2 C 111 40.2 112.46 40.22 112.5 40.2 C 114.2 40.2 115 39.7 115.6 38 C 115.58 37.97 116.6 34.9 116.6 34.9 L 108.1 11.7 L 114.7 11.7 L 119.9 27.1 L 124.8 11.7 L 131.4 11.7 C 131.4 11.7 120.72 40.7 120.7 40.7 Z " stroke="none" fill="#323e47"/>  </g></svg>