<?xml version="1.0" standalone="no"?><!DOCTYPE svg PUBLIC "-//W3C//DTD SVG 1.1//EN" "http://www.w3.org/Graphics/SVG/1.1/DTD/svg11.dtd"><svg xmlns="http://www.w3.org/2000/svg" version="1.1" width="23px" height="43.663818359375px" viewBox="0 0 23 43.663818359375">  <desc>6</desc>  <defs/>  <g id="Polygon27460">    <path d="M 1.2 13.2 C 1.2 12 1.5 10.9 2.5 8.9 C 2.52 8.86 6.2 1.2 6.2 1.2 L 9.6 1.2 C 9.6 1.2 6.05 8.35 6 8.4 C 6.5 8.2 6.9 8.1 7.3 8.1 C 9.6 8.1 11.9 10 11.9 13.2 C 11.9 16.5 9.6 18.5 6.5 18.5 C 3.5 18.5 1.2 16.6 1.2 13.2 Z M 8.7 13.2 C 8.7 11.7 7.8 10.7 6.5 10.7 C 5.2 10.7 4.3 11.6 4.3 13.2 C 4.3 14.8 5.2 15.7 6.5 15.7 C 7.8 15.7 8.7 14.8 8.7 13.2 Z " stroke="none" fill="#000"/>  </g></svg>