<?xml version="1.0" standalone="no"?><!DOCTYPE svg PUBLIC "-//W3C//DTD SVG 1.1//EN" "http://www.w3.org/Graphics/SVG/1.1/DTD/svg11.dtd"><svg xmlns="http://www.w3.org/2000/svg" version="1.1" width="258px" height="147.32763671875px" viewBox="0 0 258 147.32763671875">  <desc>Meeting preparation</desc>  <defs/>  <g id="Polygon20681">    <path d="M 21.9 71.2 C 24.2 73.7 24.5 77.6 24.5 81.7 C 24.5 86 24.2 89.9 21.9 92.3 C 20.4 93.7 18.3 94.6 15.8 94.6 C 13.2 94.6 11.4 93.9 9.7 92.1 C 9.74 92.06 9.7 103.4 9.7 103.4 L 3.5 103.4 L 3.5 69.3 L 9.6 69.3 C 9.6 69.3 9.55 71.62 9.6 71.6 C 11.3 69.7 13.2 69 15.8 69 C 18.3 69 20.4 69.8 21.9 71.2 Z M 9.7 81.7 C 9.7 85.8 10.2 88.9 14 88.9 C 17.8 88.9 18.2 85.8 18.2 81.7 C 18.2 77.7 17.8 74.6 14 74.6 C 10.2 74.6 9.7 77.7 9.7 81.7 Z M 48.7 71.3 C 48.7 71.3 44.1 76.1 44.1 76.1 C 43.1 75.1 42.3 74.6 40.8 74.6 C 38.8 74.6 36.7 76 36.7 79.2 C 36.67 79.2 36.7 94.3 36.7 94.3 L 30.4 94.3 L 30.4 69.3 L 36.5 69.3 C 36.5 69.3 36.53 71.66 36.5 71.7 C 37.7 70.2 40.1 69 42.8 69 C 45.3 69 47 69.6 48.7 71.3 Z M 71.4 81.1 C 71.37 81.07 71.4 83.7 71.4 83.7 C 71.4 83.7 55.73 83.71 55.7 83.7 C 55.7 87 57.6 89.3 61.2 89.3 C 63.9 89.3 65.3 88.5 66.8 86.9 C 66.8 86.9 70.7 90.6 70.7 90.6 C 68.1 93.2 65.7 94.6 61.2 94.6 C 55.2 94.6 49.6 91.9 49.6 81.7 C 49.6 73.6 54 69 60.5 69 C 67.4 69 71.4 74 71.4 81.1 Z M 56.3 76.8 C 55.8 77.7 55.8 78.3 55.7 79.4 C 55.7 79.4 65.2 79.4 65.2 79.4 C 65.1 78.3 65.1 77.7 64.7 76.8 C 64 75.3 62.6 74.2 60.5 74.2 C 58.3 74.2 56.9 75.3 56.3 76.8 Z M 95.5 71.2 C 97.9 73.7 98.1 77.6 98.1 81.7 C 98.1 86 97.9 89.9 95.5 92.3 C 94.1 93.7 92 94.6 89.5 94.6 C 86.9 94.6 85 93.9 83.4 92.1 C 83.37 92.06 83.4 103.4 83.4 103.4 L 77.1 103.4 L 77.1 69.3 L 83.2 69.3 C 83.2 69.3 83.18 71.62 83.2 71.6 C 85 69.7 86.8 69 89.4 69 C 91.9 69 94.1 69.8 95.5 71.2 Z M 83.4 81.7 C 83.4 85.8 83.9 88.9 87.6 88.9 C 91.4 88.9 91.9 85.8 91.9 81.7 C 91.9 77.7 91.4 74.6 87.6 74.6 C 83.9 74.6 83.4 77.7 83.4 81.7 Z M 123 77.8 C 122.97 77.81 123 94.3 123 94.3 L 116.9 94.3 C 116.9 94.3 116.88 92.11 116.9 92.1 C 115.2 93.8 113.6 94.5 110.7 94.5 C 107.9 94.5 105.8 93.7 104.3 92.3 C 103 90.9 102.3 88.9 102.3 86.7 C 102.3 82.7 105 79.4 110.9 79.4 C 110.93 79.44 116.7 79.4 116.7 79.4 C 116.7 79.4 116.73 78.19 116.7 78.2 C 116.7 75.5 115.4 74.3 112.1 74.3 C 109.8 74.3 108.6 74.9 107.3 76.4 C 107.3 76.4 103.3 72.5 103.3 72.5 C 105.8 69.8 108.1 69 112.3 69 C 119.4 69 123 72 123 77.8 Z M 112 83.7 C 109.5 83.7 108.3 84.7 108.3 86.6 C 108.3 88.3 109.5 89.4 112.1 89.4 C 113.6 89.4 114.7 89.2 115.8 88.2 C 116.5 87.6 116.7 86.6 116.7 85.1 C 116.73 85.06 116.7 83.7 116.7 83.7 C 116.7 83.7 111.98 83.71 112 83.7 Z M 148 71.3 C 148 71.3 143.3 76.1 143.3 76.1 C 142.4 75.1 141.5 74.6 140 74.6 C 138.1 74.6 135.9 76 135.9 79.2 C 135.93 79.2 135.9 94.3 135.9 94.3 L 129.7 94.3 L 129.7 69.3 L 135.8 69.3 C 135.8 69.3 135.79 71.66 135.8 71.7 C 137 70.2 139.4 69 142.1 69 C 144.6 69 146.3 69.6 148 71.3 Z M 170 77.8 C 169.97 77.81 170 94.3 170 94.3 L 163.9 94.3 C 163.9 94.3 163.87 92.11 163.9 92.1 C 162.2 93.8 160.6 94.5 157.7 94.5 C 154.9 94.5 152.8 93.7 151.3 92.3 C 150 90.9 149.3 88.9 149.3 86.7 C 149.3 82.7 152 79.4 157.9 79.4 C 157.92 79.44 163.7 79.4 163.7 79.4 C 163.7 79.4 163.73 78.19 163.7 78.2 C 163.7 75.5 162.4 74.3 159.1 74.3 C 156.8 74.3 155.6 74.9 154.3 76.4 C 154.3 76.4 150.3 72.5 150.3 72.5 C 152.8 69.8 155.1 69 159.3 69 C 166.4 69 170 72 170 77.8 Z M 159 83.7 C 156.5 83.7 155.3 84.7 155.3 86.6 C 155.3 88.3 156.5 89.4 159.1 89.4 C 160.6 89.4 161.7 89.2 162.8 88.2 C 163.5 87.6 163.7 86.6 163.7 85.1 C 163.73 85.06 163.7 83.7 163.7 83.7 C 163.7 83.7 158.97 83.71 159 83.7 Z M 183.5 70 L 187.9 70 L 187.9 74.7 L 183.5 74.7 C 183.5 74.7 183.5 86.74 183.5 86.7 C 183.5 88.2 184.2 89 185.7 89 C 185.66 88.99 187.9 89 187.9 89 L 187.9 94.3 C 187.9 94.3 184.51 94.27 184.5 94.3 C 179.4 94.3 177.3 90.7 177.3 87.1 C 177.26 87.12 177.3 74.7 177.3 74.7 L 174.6 74.7 L 174.6 70 L 177.3 70 L 177.3 62.6 L 183.5 62.6 L 183.5 70 Z M 199.8 94.3 L 193.6 94.3 L 193.6 70 L 199.8 70 L 199.8 94.3 Z M 199.9 65 L 193.5 65 L 193.5 59.9 L 199.9 59.9 L 199.9 65 Z M 224.1 91.5 C 222.5 93.1 220 94.6 216.3 94.6 C 212.6 94.6 210.1 93.1 208.6 91.5 C 206.3 89.1 205.7 86.3 205.7 81.7 C 205.7 77.2 206.3 74.4 208.6 72 C 210.1 70.4 212.6 69 216.3 69 C 220 69 222.5 70.4 224.1 72 C 226.3 74.4 226.9 77.2 226.9 81.7 C 226.9 86.3 226.4 89.1 224.1 91.5 Z M 219.2 75.7 C 218.5 75 217.5 74.6 216.3 74.6 C 215.1 74.6 214.1 75 213.4 75.7 C 212.1 76.9 212 79.2 212 81.7 C 212 84.3 212.1 86.6 213.4 87.8 C 214.1 88.6 215.1 88.9 216.3 88.9 C 217.5 88.9 218.5 88.6 219.2 87.8 C 220.5 86.6 220.7 84.3 220.7 81.7 C 220.7 79.2 220.5 76.9 219.2 75.7 Z M 251.1 71.2 C 253.1 73.2 253.6 75.6 253.6 78.3 C 253.63 78.29 253.6 94.3 253.6 94.3 L 247.4 94.3 C 247.4 94.3 247.39 79.15 247.4 79.2 C 247.4 75.7 245.3 74.6 243.3 74.6 C 241.2 74.6 239.1 75.7 239.1 79.2 C 239.08 79.15 239.1 94.3 239.1 94.3 L 232.8 94.3 L 232.8 69.3 L 238.9 69.3 C 238.9 69.3 238.94 71.57 238.9 71.6 C 240.6 69.8 242.9 69 245.2 69 C 247.7 69 249.7 69.7 251.1 71.2 Z " stroke="none" fill="#323e47"/>  </g>  <g id="Polygon20680">    <path d="M 34.9 36.7 L 28.3 36.7 L 28.3 16.8 L 21.7 28.9 L 17.2 28.9 L 10.7 16.8 L 10.7 36.7 L 4 36.7 L 4 2.5 L 10.6 2.5 L 19.5 20.2 L 28.4 2.5 L 34.9 2.5 L 34.9 36.7 Z M 63 23.5 C 62.98 23.47 63 26.1 63 26.1 C 63 26.1 47.33 26.11 47.3 26.1 C 47.3 29.4 49.2 31.7 52.8 31.7 C 55.5 31.7 56.9 30.9 58.4 29.3 C 58.4 29.3 62.3 33 62.3 33 C 59.7 35.6 57.3 37 52.8 37 C 46.8 37 41.2 34.3 41.2 24.1 C 41.2 16 45.6 11.4 52.1 11.4 C 59 11.4 63 16.4 63 23.5 Z M 47.9 19.2 C 47.4 20.1 47.4 20.7 47.3 21.8 C 47.3 21.8 56.8 21.8 56.8 21.8 C 56.7 20.7 56.7 20.1 56.3 19.2 C 55.6 17.7 54.2 16.6 52.1 16.6 C 49.9 16.6 48.5 17.7 47.9 19.2 Z M 89.3 23.5 C 89.28 23.47 89.3 26.1 89.3 26.1 C 89.3 26.1 73.63 26.11 73.6 26.1 C 73.6 29.4 75.6 31.7 79.1 31.7 C 81.8 31.7 83.2 30.9 84.7 29.3 C 84.7 29.3 88.6 33 88.6 33 C 86 35.6 83.6 37 79.1 37 C 73.1 37 67.5 34.3 67.5 24.1 C 67.5 16 71.9 11.4 78.4 11.4 C 85.3 11.4 89.3 16.4 89.3 23.5 Z M 74.2 19.2 C 73.7 20.1 73.7 20.7 73.6 21.8 C 73.6 21.8 83.1 21.8 83.1 21.8 C 83 20.7 83 20.1 82.6 19.2 C 81.9 17.7 80.5 16.6 78.4 16.6 C 76.2 16.6 74.8 17.7 74.2 19.2 Z M 101.9 12.4 L 106.3 12.4 L 106.3 17.1 L 101.9 17.1 C 101.9 17.1 101.85 29.14 101.9 29.1 C 101.9 30.6 102.5 31.4 104 31.4 C 104.01 31.39 106.3 31.4 106.3 31.4 L 106.3 36.7 C 106.3 36.7 102.86 36.67 102.9 36.7 C 97.8 36.7 95.6 33.1 95.6 29.5 C 95.61 29.52 95.6 17.1 95.6 17.1 L 93 17.1 L 93 12.4 L 95.6 12.4 L 95.6 5 L 101.9 5 L 101.9 12.4 Z M 118.2 36.7 L 111.9 36.7 L 111.9 12.4 L 118.2 12.4 L 118.2 36.7 Z M 118.2 7.4 L 111.8 7.4 L 111.8 2.3 L 118.2 2.3 L 118.2 7.4 Z M 143.4 13.6 C 145.4 15.6 145.9 18 145.9 20.7 C 145.92 20.69 145.9 36.7 145.9 36.7 L 139.7 36.7 C 139.7 36.7 139.68 21.55 139.7 21.6 C 139.7 18.1 137.6 17 135.5 17 C 133.5 17 131.4 18.1 131.4 21.6 C 131.37 21.55 131.4 36.7 131.4 36.7 L 125.1 36.7 L 125.1 11.7 L 131.2 11.7 C 131.2 11.7 131.23 13.97 131.2 14 C 132.9 12.2 135.2 11.4 137.5 11.4 C 140 11.4 142 12.1 143.4 13.6 Z M 166.2 14 C 166.22 14.02 166.2 11.7 166.2 11.7 L 172.3 11.7 C 172.3 11.7 172.27 35.76 172.3 35.8 C 172.3 41.8 168 46.1 161.3 46.1 C 157.4 46.1 154.8 45.4 152.2 42.9 C 152.2 42.9 156.1 38.9 156.1 38.9 C 157.5 40.3 158.9 40.8 161 40.8 C 164.8 40.8 166 38.3 166 35.7 C 166 35.7 166 33.1 166 33.1 C 164.4 34.9 162.6 35.6 160.1 35.6 C 157.6 35.6 155.6 34.8 154.2 33.4 C 151.8 31.1 151.6 27.9 151.6 23.5 C 151.6 19.1 151.8 15.9 154.2 13.6 C 155.6 12.2 157.6 11.4 160.1 11.4 C 162.8 11.4 164.5 12.1 166.2 14 Z M 157.8 23.5 C 157.8 26.8 158.2 30 161.9 30 C 165.6 30 166 26.8 166 23.5 C 166 20.2 165.6 17 161.9 17 C 158.2 17 157.8 20.2 157.8 23.5 Z " stroke="none" fill="#323e47"/>  </g></svg>