<?xml version="1.0" standalone="no"?><!DOCTYPE svg PUBLIC "-//W3C//DTD SVG 1.1//EN" "http://www.w3.org/Graphics/SVG/1.1/DTD/svg11.dtd"><svg xmlns="http://www.w3.org/2000/svg" version="1.1" width="23px" height="43.663818359375px" viewBox="0 0 23 43.663818359375">  <desc>3</desc>  <defs/>  <g id="Polygon22444">    <path d="M 1 13.4 C 1 13.4 4.1 13.4 4.1 13.4 C 4.2 15 5.2 15.7 6.5 15.7 C 7.8 15.7 8.8 14.9 8.8 13.3 C 8.8 11.9 7.9 10.9 6.4 10.9 C 6.36 10.94 5.9 10.9 5.9 10.9 L 5.9 8.2 C 5.9 8.2 6.36 8.23 6.4 8.2 C 7.9 8.2 8.5 7.3 8.5 6.1 C 8.5 4.7 7.6 3.9 6.4 3.9 C 5.3 3.9 4.4 4.7 4.3 6 C 4.3 6 1.2 6 1.2 6 C 1.3 2.9 3.6 1.1 6.4 1.1 C 9.5 1.1 11.6 3.1 11.6 6 C 11.6 7.8 10.8 8.9 9.7 9.5 C 10.9 10.2 11.9 11.3 11.9 13.4 C 11.9 16.8 9.4 18.5 6.5 18.5 C 3.7 18.5 1.1 17 1 13.4 Z " stroke="none" fill="#000"/>  </g></svg>