<?xml version="1.0" standalone="no"?><!DOCTYPE svg PUBLIC "-//W3C//DTD SVG 1.1//EN" "http://www.w3.org/Graphics/SVG/1.1/DTD/svg11.dtd"><svg xmlns="http://www.w3.org/2000/svg" version="1.1" width="843px" height="71.8556518554688px" viewBox="0 0 843 71.8556518554688">  <desc>Three things your client should know about the process</desc>  <defs/>  <g id="Polygon26461">    <path d="M 15.9 5.9 L 10.4 5.9 L 10.4 35.1 L 6.5 35.1 L 6.5 5.9 L 1 5.9 L 1 2.4 L 15.9 2.4 L 15.9 5.9 Z M 23.2 13 C 23.6 12.5 24.1 12 24.6 11.7 C 25.3 11.2 26.2 10.9 27.1 10.9 C 28.9 10.9 30.2 11.5 31.2 12.7 C 32.2 13.8 32.6 15 32.6 17.6 C 32.61 17.62 32.6 35.1 32.6 35.1 L 28.9 35.1 C 28.9 35.1 28.89 17.62 28.9 17.6 C 28.9 15.4 27.6 14.3 26 14.3 C 24.5 14.3 23.2 15.4 23.2 17.6 C 23.23 17.62 23.2 35.1 23.2 35.1 L 19.5 35.1 L 19.5 2.4 L 23.2 2.4 C 23.2 2.4 23.23 13.02 23.2 13 Z M 46.8 14.5 C 46.8 14.5 45.72 14.54 45.7 14.5 C 43.2 14.5 41.4 16.2 41.4 18.9 C 41.4 18.91 41.4 35.1 41.4 35.1 L 37.7 35.1 L 37.7 11.3 L 41.3 11.3 C 41.3 11.3 41.26 13.85 41.3 13.8 C 41.6 13.2 42.3 12.6 42.9 12.1 C 44 11.4 45.3 10.9 46.8 10.9 C 46.83 10.95 46.8 14.5 46.8 14.5 Z M 52.9 24.1 C 52.9 27.9 53.1 30.1 53.9 31.1 C 54.3 31.7 55.1 32.2 56 32.2 C 56.9 32.2 57.5 31.9 58.1 31.2 C 58.7 30.5 58.9 29.6 58.9 28.5 C 58.9 28.5 62.7 28.5 62.7 28.5 C 62.6 30.7 62.1 32.3 60.7 33.8 C 59.6 35 58 35.5 56 35.5 C 54 35.5 52.5 35 51.3 33.7 C 49.5 31.8 49.2 28.2 49.2 23.2 C 49.2 18.2 49.5 14.7 51.2 12.8 C 52.5 11.5 54 10.9 55.9 10.9 C 57.9 10.9 59.4 11.5 60.6 12.8 C 62.4 14.7 62.7 18.2 62.7 24.1 C 62.7 24.1 52.9 24.1 52.9 24.1 Z M 58.1 15.3 C 57.6 14.7 56.9 14.3 55.9 14.3 C 54.9 14.3 54.3 14.7 53.9 15.3 C 53.1 16.1 52.9 17.8 52.9 21.3 C 52.9 21.3 59 21.3 59 21.3 C 59 17.8 58.8 16.1 58.1 15.3 Z M 70.2 24.1 C 70.2 27.9 70.4 30.1 71.2 31.1 C 71.6 31.7 72.4 32.2 73.3 32.2 C 74.2 32.2 74.8 31.9 75.4 31.2 C 76 30.5 76.2 29.6 76.2 28.5 C 76.2 28.5 79.9 28.5 79.9 28.5 C 79.9 30.7 79.3 32.3 78 33.8 C 76.9 35 75.3 35.5 73.3 35.5 C 71.3 35.5 69.8 35 68.6 33.7 C 66.8 31.8 66.5 28.2 66.5 23.2 C 66.5 18.2 66.8 14.7 68.5 12.8 C 69.8 11.5 71.3 10.9 73.2 10.9 C 75.2 10.9 76.7 11.5 77.9 12.8 C 79.7 14.7 80 18.2 80 24.1 C 80 24.1 70.2 24.1 70.2 24.1 Z M 75.3 15.3 C 74.9 14.7 74.2 14.3 73.2 14.3 C 72.2 14.3 71.6 14.7 71.2 15.3 C 70.4 16.1 70.2 17.8 70.2 21.3 C 70.2 21.3 76.3 21.3 76.3 21.3 C 76.3 17.8 76.1 16.1 75.3 15.3 Z M 96.1 33.7 C 94.8 32.6 94 30.8 94 28.3 C 94.02 28.34 94 14.2 94 14.2 L 91.3 14.2 L 91.3 11.3 L 94 11.3 L 94 4.8 L 97.7 4.8 L 97.7 11.3 L 101.4 11.3 L 101.4 14.2 L 97.7 14.2 C 97.7 14.2 97.75 28.2 97.7 28.2 C 97.7 30.7 99.1 31.8 101.6 31.8 C 101.6 31.8 101.6 35.1 101.6 35.1 C 99.4 35.1 97.6 35 96.1 33.7 Z M 108.8 13 C 109.2 12.5 109.7 12 110.2 11.7 C 110.9 11.2 111.8 10.9 112.7 10.9 C 114.5 10.9 115.8 11.5 116.8 12.7 C 117.8 13.8 118.2 15 118.2 17.6 C 118.22 17.62 118.2 35.1 118.2 35.1 L 114.5 35.1 C 114.5 35.1 114.49 17.62 114.5 17.6 C 114.5 15.4 113.2 14.3 111.6 14.3 C 110.1 14.3 108.8 15.4 108.8 17.6 C 108.83 17.62 108.8 35.1 108.8 35.1 L 105.1 35.1 L 105.1 2.4 L 108.8 2.4 C 108.8 2.4 108.83 13.02 108.8 13 Z M 127 35.1 L 123.3 35.1 L 123.3 11.3 L 127 11.3 L 127 35.1 Z M 127.3 7.1 L 123 7.1 L 123 2.8 L 127.3 2.8 L 127.3 7.1 Z M 143.9 12.7 C 144.9 13.8 145.4 15 145.4 17.6 C 145.36 17.62 145.4 35.1 145.4 35.1 L 141.6 35.1 C 141.6 35.1 141.63 17.62 141.6 17.6 C 141.6 15.5 140.3 14.3 138.8 14.3 C 137.2 14.3 136 15.5 136 17.6 C 135.97 17.62 136 35.1 136 35.1 L 132.2 35.1 L 132.2 11.3 L 135.8 11.3 C 135.8 11.3 135.83 13.16 135.8 13.2 C 136.2 12.6 136.8 12 137.3 11.7 C 138 11.2 138.9 10.9 139.9 10.9 C 141.7 10.9 142.9 11.5 143.9 12.7 Z M 158 11.7 C 158.5 12 159 12.5 159.4 13 C 159.39 12.97 159.4 11.3 159.4 11.3 L 163 11.3 C 163 11.3 162.97 35.97 163 36 C 163 39.5 162.4 41.2 161 42.6 C 160 43.7 158.2 44.4 156.4 44.4 C 154.5 44.4 152.8 43.9 151.6 42.7 C 150.3 41.4 149.8 39.7 149.8 37.6 C 149.8 37.6 153.5 37.6 153.5 37.6 C 153.5 38.8 153.6 39.7 154.3 40.4 C 154.8 41 155.5 41.2 156.4 41.2 C 157.2 41.2 157.9 40.8 158.4 40.3 C 159.1 39.6 159.2 38.4 159.2 36.2 C 159.2 36.2 159.2 32.7 159.2 32.7 C 158.9 33.2 158.4 33.7 158 34 C 157.3 34.5 156.4 34.8 155.4 34.8 C 153.9 34.8 152.6 34.2 151.6 33 C 150 31.3 149.7 28.7 149.7 22.9 C 149.7 17 150 14.4 151.6 12.6 C 152.6 11.5 153.8 10.9 155.4 10.9 C 156.4 10.9 157.3 11.2 158 11.7 Z M 154.4 15.3 C 153.5 16.3 153.4 18.1 153.4 22.9 C 153.4 27.7 153.5 29.5 154.4 30.5 C 154.9 31.1 155.6 31.5 156.4 31.5 C 157.2 31.5 157.9 31.2 158.4 30.8 C 159 30.2 159.2 29.3 159.2 28 C 159.2 28 159.2 17.8 159.2 17.8 C 159.2 16.5 159 15.6 158.4 15 C 157.9 14.5 157.2 14.3 156.4 14.3 C 155.6 14.3 154.9 14.7 154.4 15.3 Z M 178.5 12.6 C 179.7 13.8 180.4 15.5 180.4 17.9 C 180.4 17.9 176.7 17.9 176.7 17.9 C 176.7 16.5 176.5 15.7 175.9 15 C 175.3 14.4 174.6 14.2 173.8 14.2 C 173 14.2 172.3 14.5 171.8 15 C 171.2 15.6 170.9 16.4 170.9 17.3 C 170.9 18 171 18.5 171.3 19 C 171.6 19.6 172.3 20.1 173.3 20.6 C 173.3 20.6 176.3 22.1 176.3 22.1 C 177.9 22.9 179 23.7 179.7 24.8 C 180.3 25.8 180.7 27.1 180.7 28.7 C 180.7 30.8 179.9 32.4 178.7 33.6 C 177.4 35 175.7 35.5 173.8 35.5 C 171.9 35.5 170.2 34.9 169 33.7 C 167.6 32.2 167 30.6 167 28.4 C 167 28.4 170.7 28.4 170.7 28.4 C 170.7 29.7 171 30.6 171.7 31.3 C 172.2 31.9 173 32.2 173.8 32.2 C 174.8 32.2 175.4 31.9 176 31.3 C 176.6 30.7 177 29.9 177 28.9 C 177 28.1 176.8 27.4 176.4 26.7 C 175.9 26 175.2 25.5 174.2 25 C 174.2 25 171.2 23.5 171.2 23.5 C 169.6 22.7 168.5 21.7 167.9 20.7 C 167.4 19.8 167.2 18.8 167.2 17.6 C 167.2 15.5 167.9 13.9 169.1 12.7 C 170.3 11.5 172 10.9 173.8 10.9 C 175.7 10.9 177.3 11.5 178.5 12.6 Z M 199.6 39 C 198.6 43.2 195.6 44.1 191.7 44.1 C 191.7 44.1 191.7 40.8 191.7 40.8 C 194 40.8 195.4 40.2 196 38 C 195.96 38 196.7 35.1 196.7 35.1 L 190.9 11.3 L 195 11.3 L 198.6 29.2 L 202.2 11.3 L 206.3 11.3 C 206.3 11.3 199.59 38.96 199.6 39 Z M 220.2 13.2 C 221.7 15 221.9 18.4 221.9 23.2 C 221.9 28.1 221.7 31.4 220.2 33.3 C 219 34.9 217.3 35.5 215.2 35.5 C 213.1 35.5 211.4 34.9 210.2 33.3 C 208.7 31.4 208.4 28.1 208.4 23.2 C 208.4 18.4 208.7 15 210.2 13.2 C 211.4 11.5 213.1 10.9 215.2 10.9 C 217.3 10.9 219 11.5 220.2 13.2 Z M 213.1 15.3 C 212.2 16.5 212.1 19 212.1 23.2 C 212.1 27.5 212.2 29.9 213.1 31.1 C 213.6 31.8 214.3 32.2 215.2 32.2 C 216.1 32.2 216.8 31.8 217.3 31.1 C 218.2 29.9 218.2 27.5 218.2 23.2 C 218.2 19 218.2 16.5 217.3 15.3 C 216.8 14.7 216.1 14.3 215.2 14.3 C 214.3 14.3 213.6 14.7 213.1 15.3 Z M 239.4 35.1 L 235.8 35.1 C 235.8 35.1 235.79 33.3 235.8 33.3 C 235.5 33.9 234.8 34.5 234.3 34.8 C 233.6 35.2 232.7 35.5 231.7 35.5 C 229.9 35.5 228.7 34.9 227.7 33.8 C 226.7 32.7 226.3 31.4 226.3 28.8 C 226.27 28.84 226.3 11.3 226.3 11.3 L 230 11.3 C 230 11.3 229.99 28.84 230 28.8 C 230 31 231.3 32.2 232.8 32.2 C 234.4 32.2 235.7 31 235.7 28.8 C 235.65 28.84 235.7 11.3 235.7 11.3 L 239.4 11.3 L 239.4 35.1 Z M 253.8 14.5 C 253.8 14.5 252.67 14.54 252.7 14.5 C 250.1 14.5 248.3 16.2 248.3 18.9 C 248.35 18.91 248.3 35.1 248.3 35.1 L 244.6 35.1 L 244.6 11.3 L 248.2 11.3 C 248.2 11.3 248.21 13.85 248.2 13.8 C 248.6 13.2 249.3 12.6 249.9 12.1 C 251 11.4 252.3 10.9 253.8 10.9 C 253.78 10.95 253.8 14.5 253.8 14.5 Z M 266.7 13.2 C 267.9 11.5 269.7 10.9 271.8 10.9 C 273.7 10.9 275.2 11.4 276.4 12.6 C 277.9 13.9 278.3 15.9 278.3 17.9 C 278.3 17.9 274.6 17.9 274.6 17.9 C 274.6 17 274.5 16 273.9 15.2 C 273.4 14.6 272.7 14.3 271.8 14.3 C 270.9 14.3 270.2 14.7 269.7 15.3 C 268.8 16.5 268.7 18.9 268.7 23.2 C 268.7 27.6 268.8 30 269.7 31.2 C 270.2 31.8 270.9 32.2 271.8 32.2 C 272.7 32.2 273.4 31.9 273.9 31.3 C 274.5 30.5 274.6 29.5 274.6 28.5 C 274.6 28.5 278.3 28.5 278.3 28.5 C 278.3 30.5 277.9 32.5 276.4 33.9 C 275.2 35.1 273.7 35.5 271.8 35.5 C 269.7 35.5 267.9 34.9 266.7 33.3 C 265.3 31.4 265 28.1 265 23.2 C 265 18.4 265.3 15 266.7 13.2 Z M 286 28.2 C 286 30.5 287.1 31.8 289.6 31.8 C 289.6 31.8 289.6 35.1 289.6 35.1 C 287.5 35.1 285.8 34.9 284.4 33.7 C 283.1 32.6 282.3 31 282.3 28.3 C 282.29 28.34 282.3 2.4 282.3 2.4 L 286 2.4 C 286 2.4 286.02 28.2 286 28.2 Z M 296.7 35.1 L 293 35.1 L 293 11.3 L 296.7 11.3 L 296.7 35.1 Z M 297 7.1 L 292.6 7.1 L 292.6 2.8 L 297 2.8 L 297 7.1 Z M 304.9 24.1 C 304.9 27.9 305.1 30.1 305.9 31.1 C 306.3 31.7 307 32.2 308 32.2 C 308.8 32.2 309.5 31.9 310.1 31.2 C 310.7 30.5 310.9 29.6 310.9 28.5 C 310.9 28.5 314.6 28.5 314.6 28.5 C 314.6 30.7 314 32.3 312.7 33.8 C 311.6 35 309.9 35.5 308 35.5 C 306 35.5 304.5 35 303.3 33.7 C 301.5 31.8 301.2 28.2 301.2 23.2 C 301.2 18.2 301.5 14.7 303.2 12.8 C 304.5 11.5 306 10.9 307.9 10.9 C 309.8 10.9 311.4 11.5 312.6 12.8 C 314.4 14.7 314.7 18.2 314.7 24.1 C 314.7 24.1 304.9 24.1 304.9 24.1 Z M 310 15.3 C 309.6 14.7 308.9 14.3 307.9 14.3 C 306.9 14.3 306.3 14.7 305.8 15.3 C 305.1 16.1 304.9 17.8 304.9 21.3 C 304.9 21.3 311 21.3 311 21.3 C 311 17.8 310.8 16.1 310 15.3 Z M 330.9 12.7 C 331.9 13.8 332.3 15 332.3 17.6 C 332.34 17.62 332.3 35.1 332.3 35.1 L 328.6 35.1 C 328.6 35.1 328.62 17.62 328.6 17.6 C 328.6 15.5 327.3 14.3 325.8 14.3 C 324.2 14.3 323 15.5 323 17.6 C 322.96 17.62 323 35.1 323 35.1 L 319.2 35.1 L 319.2 11.3 L 322.8 11.3 C 322.8 11.3 322.82 13.16 322.8 13.2 C 323.1 12.6 323.8 12 324.3 11.7 C 325 11.2 325.9 10.9 326.9 10.9 C 328.7 10.9 329.9 11.5 330.9 12.7 Z M 340.3 33.7 C 339 32.6 338.3 30.8 338.3 28.3 C 338.28 28.34 338.3 14.2 338.3 14.2 L 335.6 14.2 L 335.6 11.3 L 338.3 11.3 L 338.3 4.8 L 342 4.8 L 342 11.3 L 345.7 11.3 L 345.7 14.2 L 342 14.2 C 342 14.2 342 28.2 342 28.2 C 342 30.7 343.3 31.8 345.8 31.8 C 345.8 31.8 345.8 35.1 345.8 35.1 C 343.7 35.1 341.9 35 340.3 33.7 Z M 368.2 12.6 C 369.5 13.8 370.2 15.5 370.2 17.9 C 370.2 17.9 366.5 17.9 366.5 17.9 C 366.5 16.5 366.2 15.7 365.6 15 C 365 14.4 364.3 14.2 363.6 14.2 C 362.7 14.2 362 14.5 361.5 15 C 360.9 15.6 360.6 16.4 360.6 17.3 C 360.6 18 360.8 18.5 361 19 C 361.4 19.6 362.1 20.1 363 20.6 C 363 20.6 366.1 22.1 366.1 22.1 C 367.7 22.9 368.7 23.7 369.4 24.8 C 370.1 25.8 370.4 27.1 370.4 28.7 C 370.4 30.8 369.6 32.4 368.4 33.6 C 367.1 35 365.5 35.5 363.5 35.5 C 361.6 35.5 359.9 34.9 358.7 33.7 C 357.4 32.2 356.7 30.6 356.7 28.4 C 356.7 28.4 360.4 28.4 360.4 28.4 C 360.4 29.7 360.7 30.6 361.4 31.3 C 362 31.9 362.8 32.2 363.5 32.2 C 364.5 32.2 365.2 31.9 365.8 31.3 C 366.3 30.7 366.7 29.9 366.7 28.9 C 366.7 28.1 366.5 27.4 366.1 26.7 C 365.6 26 365 25.5 364 25 C 364 25 360.9 23.5 360.9 23.5 C 359.3 22.7 358.2 21.7 357.6 20.7 C 357.1 19.8 356.9 18.8 356.9 17.6 C 356.9 15.5 357.7 13.9 358.9 12.7 C 360.1 11.5 361.7 10.9 363.6 10.9 C 365.5 10.9 367.1 11.5 368.2 12.6 Z M 378.2 13 C 378.5 12.5 379.1 12 379.5 11.7 C 380.3 11.2 381.1 10.9 382.1 10.9 C 383.9 10.9 385.1 11.5 386.2 12.7 C 387.1 13.8 387.6 15 387.6 17.6 C 387.59 17.62 387.6 35.1 387.6 35.1 L 383.9 35.1 C 383.9 35.1 383.86 17.62 383.9 17.6 C 383.9 15.4 382.6 14.3 381 14.3 C 379.4 14.3 378.2 15.4 378.2 17.6 C 378.2 17.62 378.2 35.1 378.2 35.1 L 374.5 35.1 L 374.5 2.4 L 378.2 2.4 C 378.2 2.4 378.2 13.02 378.2 13 Z M 403.7 13.2 C 405.2 15 405.4 18.4 405.4 23.2 C 405.4 28.1 405.2 31.4 403.7 33.3 C 402.5 34.9 400.8 35.5 398.7 35.5 C 396.6 35.5 394.9 34.9 393.7 33.3 C 392.2 31.4 391.9 28.1 391.9 23.2 C 391.9 18.4 392.2 15 393.7 13.2 C 394.9 11.5 396.6 10.9 398.7 10.9 C 400.8 10.9 402.5 11.5 403.7 13.2 Z M 396.6 15.3 C 395.7 16.5 395.6 19 395.6 23.2 C 395.6 27.5 395.7 29.9 396.6 31.1 C 397.1 31.8 397.8 32.2 398.7 32.2 C 399.5 32.2 400.3 31.8 400.8 31.1 C 401.7 29.9 401.7 27.5 401.7 23.2 C 401.7 19 401.7 16.5 400.8 15.3 C 400.3 14.7 399.5 14.3 398.7 14.3 C 397.8 14.3 397.1 14.7 396.6 15.3 Z M 422.9 35.1 L 419.3 35.1 C 419.3 35.1 419.28 33.3 419.3 33.3 C 419 33.9 418.3 34.5 417.8 34.8 C 417.1 35.2 416.2 35.5 415.2 35.5 C 413.4 35.5 412.2 34.9 411.2 33.8 C 410.2 32.7 409.8 31.4 409.8 28.8 C 409.76 28.84 409.8 11.3 409.8 11.3 L 413.5 11.3 C 413.5 11.3 413.48 28.84 413.5 28.8 C 413.5 31 414.8 32.2 416.3 32.2 C 417.9 32.2 419.1 31 419.1 28.8 C 419.14 28.84 419.1 11.3 419.1 11.3 L 422.9 11.3 L 422.9 35.1 Z M 431.7 28.2 C 431.7 30.5 432.8 31.8 435.2 31.8 C 435.2 31.8 435.2 35.1 435.2 35.1 C 433.2 35.1 431.5 34.9 430 33.7 C 428.8 32.6 427.9 31 427.9 28.3 C 427.93 28.34 427.9 2.4 427.9 2.4 L 431.7 2.4 C 431.7 2.4 431.65 28.2 431.7 28.2 Z M 437.5 23.2 C 437.5 17.6 437.7 14.5 439.3 12.7 C 440.3 11.5 441.6 10.9 443.2 10.9 C 444.3 10.9 445.1 11.2 445.8 11.7 C 446.3 12 446.8 12.5 447.2 13 C 447.16 12.97 447.2 2.4 447.2 2.4 L 450.9 2.4 L 450.9 35.1 L 447.2 35.1 C 447.2 35.1 447.25 33.3 447.2 33.3 C 447 33.8 446.3 34.5 445.8 34.8 C 445.1 35.2 444.3 35.5 443.2 35.5 C 441.6 35.5 440.3 35 439.3 33.8 C 437.7 31.9 437.5 28.8 437.5 23.2 Z M 447.2 28.7 C 447.2 28.7 447.2 17.8 447.2 17.8 C 447.2 16.5 446.8 15.6 446.2 15 C 445.7 14.5 445.1 14.3 444.3 14.3 C 443.4 14.3 442.7 14.7 442.3 15.3 C 441.4 16.3 441.3 18.3 441.3 23.2 C 441.3 28.2 441.4 30.2 442.3 31.2 C 442.7 31.8 443.4 32.2 444.3 32.2 C 445.1 32.2 445.7 31.9 446.2 31.4 C 446.8 30.8 447.2 29.9 447.2 28.7 Z M 468.5 22.6 L 475.3 11.3 L 479.2 11.3 L 473.4 20.6 L 479.8 35.1 L 475.6 35.1 L 471.1 23.9 L 468.5 28 L 468.5 35.1 L 464.8 35.1 L 464.8 2.4 L 468.5 2.4 L 468.5 22.6 Z M 494.7 12.7 C 495.6 13.8 496.1 15 496.1 17.6 C 496.1 17.62 496.1 35.1 496.1 35.1 L 492.4 35.1 C 492.4 35.1 492.37 17.62 492.4 17.6 C 492.4 15.5 491.1 14.3 489.5 14.3 C 488 14.3 486.7 15.5 486.7 17.6 C 486.71 17.62 486.7 35.1 486.7 35.1 L 483 35.1 L 483 11.3 L 486.6 11.3 C 486.6 11.3 486.58 13.16 486.6 13.2 C 486.9 12.6 487.5 12 488 11.7 C 488.8 11.2 489.7 10.9 490.6 10.9 C 492.4 10.9 493.7 11.5 494.7 12.7 Z M 512.2 13.2 C 513.7 15 513.9 18.4 513.9 23.2 C 513.9 28.1 513.7 31.4 512.2 33.3 C 511 34.9 509.3 35.5 507.2 35.5 C 505.1 35.5 503.4 34.9 502.2 33.3 C 500.7 31.4 500.4 28.1 500.4 23.2 C 500.4 18.4 500.7 15 502.2 13.2 C 503.4 11.5 505.1 10.9 507.2 10.9 C 509.3 10.9 511 11.5 512.2 13.2 Z M 505.1 15.3 C 504.2 16.5 504.1 19 504.1 23.2 C 504.1 27.5 504.2 29.9 505.1 31.1 C 505.6 31.8 506.3 32.2 507.2 32.2 C 508.1 32.2 508.8 31.8 509.3 31.1 C 510.2 29.9 510.2 27.5 510.2 23.2 C 510.2 19 510.2 16.5 509.3 15.3 C 508.8 14.7 508.1 14.3 507.2 14.3 C 506.3 14.3 505.6 14.7 505.1 15.3 Z M 520.2 11.3 L 523 29 L 526.4 11.3 L 529.6 11.3 L 533 29 L 535.8 11.3 L 540 11.3 L 535 35.1 L 531.3 35.1 L 528 17.9 L 524.7 35.1 L 521.1 35.1 L 516.2 11.3 L 520.2 11.3 Z M 561.7 12.6 C 562.8 13.8 563.6 15.4 563.6 17.8 C 563.58 17.85 563.6 35.1 563.6 35.1 L 560 35.1 C 560 35.1 560.04 33.03 560 33 C 559.7 33.7 559.1 34.3 558.7 34.6 C 557.9 35.2 557.1 35.5 555.9 35.5 C 554.1 35.5 552.9 35 551.8 33.7 C 550.8 32.7 550.2 30.9 550.2 28.4 C 550.2 26.2 551 24.2 552.4 23 C 553.6 21.9 554.9 21.4 557.4 21.4 C 557.41 21.39 559.9 21.4 559.9 21.4 C 559.9 21.4 559.85 17.62 559.9 17.6 C 559.9 15.4 558.9 14.2 557 14.2 C 556.2 14.2 555.7 14.5 555.2 15 C 554.6 15.7 554.3 16.5 554.3 17.8 C 554.3 17.8 550.6 17.8 550.6 17.8 C 550.6 15.9 551 14.1 552.4 12.7 C 553.5 11.6 555.2 10.9 557 10.9 C 559 10.9 560.6 11.5 561.7 12.6 Z M 557.7 24.1 C 556.6 24.1 555.8 24.3 555.1 25 C 554.4 25.6 554 27 554 28.2 C 554 30.7 554.9 32.2 556.9 32.2 C 558.7 32.2 559.9 30.7 559.9 28.5 C 559.85 28.52 559.9 24.1 559.9 24.1 C 559.9 24.1 557.74 24.1 557.7 24.1 Z M 572.4 13 C 572.7 12.5 573.2 12 573.7 11.7 C 574.4 11.2 575.3 10.9 576.3 10.9 C 577.9 10.9 579.2 11.5 580.2 12.7 C 581.8 14.5 582 17.6 582 23.2 C 582 28.8 581.8 31.9 580.2 33.7 C 579.2 35 577.9 35.5 576.3 35.5 C 575.3 35.5 574.4 35.2 573.7 34.8 C 573.2 34.5 572.5 33.8 572.3 33.3 C 572.27 33.3 572.3 35.1 572.3 35.1 L 568.6 35.1 L 568.6 2.4 L 572.4 2.4 C 572.4 2.4 572.36 12.97 572.4 13 Z M 573.3 15 C 572.7 15.6 572.4 16.5 572.4 17.8 C 572.4 17.8 572.4 28.7 572.4 28.7 C 572.4 29.9 572.7 30.8 573.3 31.4 C 573.8 31.9 574.4 32.2 575.2 32.2 C 576.1 32.2 576.8 31.8 577.2 31.2 C 578.1 30.2 578.2 28.2 578.2 23.2 C 578.2 18.3 578.1 16.3 577.2 15.3 C 576.8 14.7 576.1 14.3 575.2 14.3 C 574.4 14.3 573.8 14.5 573.3 15 Z M 597.6 13.2 C 599 15 599.3 18.4 599.3 23.2 C 599.3 28.1 599 31.4 597.6 33.3 C 596.4 34.9 594.6 35.5 592.5 35.5 C 590.4 35.5 588.7 34.9 587.5 33.3 C 586 31.4 585.7 28.1 585.7 23.2 C 585.7 18.4 586 15 587.5 13.2 C 588.7 11.5 590.4 10.9 592.5 10.9 C 594.6 10.9 596.4 11.5 597.6 13.2 Z M 590.4 15.3 C 589.6 16.5 589.5 19 589.5 23.2 C 589.5 27.5 589.6 29.9 590.4 31.1 C 590.9 31.8 591.6 32.2 592.5 32.2 C 593.4 32.2 594.2 31.8 594.6 31.1 C 595.5 29.9 595.5 27.5 595.5 23.2 C 595.5 19 595.5 16.5 594.6 15.3 C 594.2 14.7 593.4 14.3 592.5 14.3 C 591.6 14.3 590.9 14.7 590.4 15.3 Z M 616.7 35.1 L 613.1 35.1 C 613.1 35.1 613.12 33.3 613.1 33.3 C 612.8 33.9 612.2 34.5 611.6 34.8 C 610.9 35.2 610 35.5 609.1 35.5 C 607.3 35.5 606 34.9 605 33.8 C 604.1 32.7 603.6 31.4 603.6 28.8 C 603.6 28.84 603.6 11.3 603.6 11.3 L 607.3 11.3 C 607.3 11.3 607.32 28.84 607.3 28.8 C 607.3 31 608.6 32.2 610.2 32.2 C 611.7 32.2 613 31 613 28.8 C 612.98 28.84 613 11.3 613 11.3 L 616.7 11.3 L 616.7 35.1 Z M 624.9 33.7 C 623.6 32.6 622.8 30.8 622.8 28.3 C 622.82 28.34 622.8 14.2 622.8 14.2 L 620.1 14.2 L 620.1 11.3 L 622.8 11.3 L 622.8 4.8 L 626.6 4.8 L 626.6 11.3 L 630.2 11.3 L 630.2 14.2 L 626.6 14.2 C 626.6 14.2 626.55 28.2 626.6 28.2 C 626.6 30.7 627.9 31.8 630.4 31.8 C 630.4 31.8 630.4 35.1 630.4 35.1 C 628.3 35.1 626.4 35 624.9 33.7 Z M 645.5 33.7 C 644.1 32.6 643.4 30.8 643.4 28.3 C 643.39 28.34 643.4 14.2 643.4 14.2 L 640.7 14.2 L 640.7 11.3 L 643.4 11.3 L 643.4 4.8 L 647.1 4.8 L 647.1 11.3 L 650.8 11.3 L 650.8 14.2 L 647.1 14.2 C 647.1 14.2 647.11 28.2 647.1 28.2 C 647.1 30.7 648.4 31.8 650.9 31.8 C 650.9 31.8 650.9 35.1 650.9 35.1 C 648.8 35.1 647 35 645.5 33.7 Z M 658.2 13 C 658.5 12.5 659.1 12 659.5 11.7 C 660.3 11.2 661.1 10.9 662.1 10.9 C 663.9 10.9 665.1 11.5 666.2 12.7 C 667.1 13.8 667.6 15 667.6 17.6 C 667.58 17.62 667.6 35.1 667.6 35.1 L 663.9 35.1 C 663.9 35.1 663.86 17.62 663.9 17.6 C 663.9 15.4 662.6 14.3 661 14.3 C 659.4 14.3 658.2 15.4 658.2 17.6 C 658.2 17.62 658.2 35.1 658.2 35.1 L 654.5 35.1 L 654.5 2.4 L 658.2 2.4 C 658.2 2.4 658.2 13.02 658.2 13 Z M 675.6 24.1 C 675.6 27.9 675.8 30.1 676.6 31.1 C 677 31.7 677.7 32.2 678.7 32.2 C 679.5 32.2 680.2 31.9 680.8 31.2 C 681.4 30.5 681.6 29.6 681.6 28.5 C 681.6 28.5 685.3 28.5 685.3 28.5 C 685.3 30.7 684.7 32.3 683.4 33.8 C 682.3 35 680.6 35.5 678.7 35.5 C 676.7 35.5 675.2 35 674 33.7 C 672.2 31.8 671.9 28.2 671.9 23.2 C 671.9 18.2 672.2 14.7 673.9 12.8 C 675.2 11.5 676.7 10.9 678.6 10.9 C 680.6 10.9 682.1 11.5 683.3 12.8 C 685.1 14.7 685.4 18.2 685.4 24.1 C 685.4 24.1 675.6 24.1 675.6 24.1 Z M 680.7 15.3 C 680.3 14.7 679.6 14.3 678.6 14.3 C 677.6 14.3 677 14.7 676.6 15.3 C 675.8 16.1 675.6 17.8 675.6 21.3 C 675.6 21.3 681.7 21.3 681.7 21.3 C 681.7 17.8 681.5 16.1 680.7 15.3 Z M 711.9 23.2 C 711.9 28.9 711.7 31.9 710.1 33.8 C 709.1 35 707.8 35.5 706.2 35.5 C 705.2 35.5 704.3 35.3 703.6 34.8 C 703.1 34.5 702.6 34 702.3 33.5 C 702.27 33.49 702.3 44.1 702.3 44.1 L 698.5 44.1 L 698.5 11.3 L 702.2 11.3 C 702.2 11.3 702.17 13.16 702.2 13.2 C 702.4 12.6 703.1 12 703.6 11.7 C 704.3 11.2 705.2 10.9 706.2 10.9 C 707.8 10.9 709.1 11.5 710.1 12.7 C 711.7 14.5 711.9 17.6 711.9 23.2 Z M 702.3 17.8 C 702.3 17.8 702.3 28.7 702.3 28.7 C 702.3 30 702.6 30.8 703.2 31.4 C 703.7 31.9 704.3 32.2 705.1 32.2 C 706 32.2 706.7 31.8 707.1 31.2 C 708 30.2 708.2 28.2 708.2 23.2 C 708.2 18.3 708 16.3 707.1 15.3 C 706.7 14.7 706 14.3 705.1 14.3 C 704.3 14.3 703.7 14.5 703.2 15 C 702.6 15.6 702.3 16.5 702.3 17.8 Z M 725.5 14.5 C 725.5 14.5 724.44 14.54 724.4 14.5 C 721.9 14.5 720.1 16.2 720.1 18.9 C 720.11 18.91 720.1 35.1 720.1 35.1 L 716.4 35.1 L 716.4 11.3 L 720 11.3 C 720 11.3 719.97 13.85 720 13.8 C 720.3 13.2 721 12.6 721.6 12.1 C 722.7 11.4 724 10.9 725.5 10.9 C 725.54 10.95 725.5 14.5 725.5 14.5 Z M 739.8 13.2 C 741.2 15 741.5 18.4 741.5 23.2 C 741.5 28.1 741.2 31.4 739.8 33.3 C 738.6 34.9 736.8 35.5 734.7 35.5 C 732.6 35.5 730.9 34.9 729.7 33.3 C 728.2 31.4 727.9 28.1 727.9 23.2 C 727.9 18.4 728.2 15 729.7 13.2 C 730.9 11.5 732.6 10.9 734.7 10.9 C 736.8 10.9 738.6 11.5 739.8 13.2 Z M 732.6 15.3 C 731.8 16.5 731.7 19 731.7 23.2 C 731.7 27.5 731.8 29.9 732.6 31.1 C 733.1 31.8 733.8 32.2 734.7 32.2 C 735.6 32.2 736.4 31.8 736.8 31.1 C 737.7 29.9 737.7 27.5 737.7 23.2 C 737.7 19 737.7 16.5 736.8 15.3 C 736.4 14.7 735.6 14.3 734.7 14.3 C 733.8 14.3 733.1 14.7 732.6 15.3 Z M 747 13.2 C 748.2 11.5 750 10.9 752 10.9 C 753.9 10.9 755.4 11.4 756.6 12.6 C 758.1 13.9 758.5 15.9 758.6 17.9 C 758.6 17.9 754.8 17.9 754.8 17.9 C 754.8 17 754.7 16 754.1 15.2 C 753.6 14.6 753 14.3 752 14.3 C 751.2 14.3 750.4 14.7 749.9 15.3 C 749 16.5 749 18.9 749 23.2 C 749 27.6 749 30 749.9 31.2 C 750.4 31.8 751.2 32.2 752 32.2 C 753 32.2 753.6 31.9 754.1 31.3 C 754.7 30.5 754.8 29.5 754.8 28.5 C 754.8 28.5 758.6 28.5 758.6 28.5 C 758.5 30.5 758.1 32.5 756.6 33.9 C 755.4 35.1 753.9 35.5 752 35.5 C 750 35.5 748.2 34.9 747 33.3 C 745.5 31.4 745.2 28.1 745.2 23.2 C 745.2 18.4 745.5 15 747 13.2 Z M 765.3 24.1 C 765.3 27.9 765.5 30.1 766.3 31.1 C 766.7 31.7 767.4 32.2 768.4 32.2 C 769.2 32.2 769.9 31.9 770.5 31.2 C 771.1 30.5 771.3 29.6 771.3 28.5 C 771.3 28.5 775 28.5 775 28.5 C 775 30.7 774.4 32.3 773.1 33.8 C 772 35 770.3 35.5 768.4 35.5 C 766.4 35.5 764.9 35 763.7 33.7 C 761.9 31.8 761.6 28.2 761.6 23.2 C 761.6 18.2 761.9 14.7 763.6 12.8 C 764.9 11.5 766.4 10.9 768.3 10.9 C 770.3 10.9 771.8 11.5 773 12.8 C 774.8 14.7 775.1 18.2 775.1 24.1 C 775.1 24.1 765.3 24.1 765.3 24.1 Z M 770.4 15.3 C 770 14.7 769.3 14.3 768.3 14.3 C 767.3 14.3 766.7 14.7 766.3 15.3 C 765.5 16.1 765.3 17.8 765.3 21.3 C 765.3 21.3 771.4 21.3 771.4 21.3 C 771.4 17.8 771.2 16.1 770.4 15.3 Z M 789.9 12.6 C 791.1 13.8 791.8 15.5 791.8 17.9 C 791.8 17.9 788.1 17.9 788.1 17.9 C 788.1 16.5 787.9 15.7 787.3 15 C 786.7 14.4 786 14.2 785.2 14.2 C 784.4 14.2 783.7 14.5 783.2 15 C 782.6 15.6 782.3 16.4 782.3 17.3 C 782.3 18 782.4 18.5 782.7 19 C 783 19.6 783.7 20.1 784.7 20.6 C 784.7 20.6 787.7 22.1 787.7 22.1 C 789.3 22.9 790.4 23.7 791.1 24.8 C 791.7 25.8 792.1 27.1 792.1 28.7 C 792.1 30.8 791.3 32.4 790.1 33.6 C 788.8 35 787.1 35.5 785.2 35.5 C 783.3 35.5 781.6 34.9 780.4 33.7 C 779 32.2 778.4 30.6 778.4 28.4 C 778.4 28.4 782.1 28.4 782.1 28.4 C 782.1 29.7 782.4 30.6 783.1 31.3 C 783.6 31.9 784.5 32.2 785.2 32.2 C 786.2 32.2 786.9 31.9 787.5 31.3 C 788 30.7 788.4 29.9 788.4 28.9 C 788.4 28.1 788.2 27.4 787.8 26.7 C 787.3 26 786.6 25.5 785.7 25 C 785.7 25 782.6 23.5 782.6 23.5 C 781 22.7 779.9 21.7 779.3 20.7 C 778.8 19.8 778.6 18.8 778.6 17.6 C 778.6 15.5 779.4 13.9 780.6 12.7 C 781.8 11.5 783.4 10.9 785.2 10.9 C 787.1 10.9 788.7 11.5 789.9 12.6 Z M 806.3 12.6 C 807.5 13.8 808.2 15.5 808.2 17.9 C 808.2 17.9 804.5 17.9 804.5 17.9 C 804.5 16.5 804.2 15.7 803.6 15 C 803.1 14.4 802.4 14.2 801.6 14.2 C 800.7 14.2 800.1 14.5 799.6 15 C 799 15.6 798.7 16.4 798.7 17.3 C 798.7 18 798.8 18.5 799.1 19 C 799.4 19.6 800.1 20.1 801.1 20.6 C 801.1 20.6 804.1 22.1 804.1 22.1 C 805.7 22.9 806.8 23.7 807.5 24.8 C 808.1 25.8 808.5 27.1 808.5 28.7 C 808.5 30.8 807.6 32.4 806.5 33.6 C 805.2 35 803.5 35.5 801.6 35.5 C 799.6 35.5 797.9 34.9 796.8 33.7 C 795.4 32.2 794.8 30.6 794.8 28.4 C 794.8 28.4 798.4 28.4 798.4 28.4 C 798.4 29.7 798.8 30.6 799.5 31.3 C 800 31.9 800.8 32.2 801.6 32.2 C 802.5 32.2 803.2 31.9 803.8 31.3 C 804.4 30.7 804.8 29.9 804.8 28.9 C 804.8 28.1 804.6 27.4 804.2 26.7 C 803.7 26 803 25.5 802 25 C 802 25 799 23.5 799 23.5 C 797.4 22.7 796.3 21.7 795.7 20.7 C 795.2 19.8 795 18.8 795 17.6 C 795 15.5 795.7 13.9 796.9 12.7 C 798.1 11.5 799.8 10.9 801.6 10.9 C 803.5 10.9 805.1 11.5 806.3 12.6 Z " stroke="none" fill="#f9a41a"/>  </g></svg>