<?xml version="1.0" standalone="no"?><!DOCTYPE svg PUBLIC "-//W3C//DTD SVG 1.1//EN" "http://www.w3.org/Graphics/SVG/1.1/DTD/svg11.dtd"><svg xmlns="http://www.w3.org/2000/svg" version="1.1" width="136px" height="32.7198486328125px" viewBox="0 0 136 32.7198486328125">  <desc>Table of Contents</desc>  <defs/>  <g id="Polygon23393">    <path d="M 6.9 2.6 L 4.5 2.6 L 4.5 15.3 L 2.8 15.3 L 2.8 2.6 L 0.4 2.6 L 0.4 1 L 6.9 1 L 6.9 2.6 Z M 11.9 5.5 C 12.4 6 12.7 6.7 12.7 7.8 C 12.72 7.76 12.7 15.3 12.7 15.3 L 11.2 15.3 C 11.2 15.3 11.18 14.36 11.2 14.4 C 11 14.6 10.8 14.9 10.6 15.1 C 10.3 15.3 9.9 15.4 9.4 15.4 C 8.6 15.4 8.1 15.2 7.6 14.7 C 7.2 14.2 6.9 13.4 6.9 12.3 C 6.9 11.4 7.2 10.5 7.8 10 C 8.4 9.5 9 9.3 10 9.3 C 10.04 9.3 11.1 9.3 11.1 9.3 C 11.1 9.3 11.1 7.66 11.1 7.7 C 11.1 6.7 10.7 6.2 9.9 6.2 C 9.5 6.2 9.3 6.3 9.1 6.5 C 8.8 6.8 8.7 7.2 8.7 7.7 C 8.7 7.7 7.1 7.7 7.1 7.7 C 7.1 6.9 7.3 6.1 7.9 5.5 C 8.3 5.1 9.1 4.8 9.9 4.8 C 10.7 4.8 11.4 5 11.9 5.5 Z M 10.2 10.5 C 9.7 10.5 9.3 10.6 9 10.9 C 8.7 11.1 8.5 11.7 8.5 12.3 C 8.5 13.4 9 14 9.8 14 C 10.6 14 11.1 13.4 11.1 12.4 C 11.1 12.4 11.1 10.5 11.1 10.5 C 11.1 10.5 10.18 10.48 10.2 10.5 Z M 16.5 5.6 C 16.7 5.4 16.9 5.2 17.1 5.1 C 17.4 4.9 17.8 4.8 18.2 4.8 C 19 4.8 19.5 5 20 5.5 C 20.6 6.3 20.7 7.7 20.7 10.1 C 20.7 12.5 20.6 13.9 20 14.7 C 19.5 15.2 19 15.4 18.2 15.4 C 17.8 15.4 17.4 15.3 17.1 15.1 C 16.9 15 16.6 14.7 16.5 14.5 C 16.5 14.48 16.5 15.3 16.5 15.3 L 14.9 15.3 L 14.9 1 L 16.5 1 C 16.5 1 16.54 5.64 16.5 5.6 Z M 16.9 6.5 C 16.7 6.8 16.5 7.2 16.5 7.7 C 16.5 7.7 16.5 12.5 16.5 12.5 C 16.5 13 16.7 13.4 16.9 13.7 C 17.2 13.9 17.4 14 17.8 14 C 18.2 14 18.5 13.8 18.7 13.6 C 19 13.1 19.1 12.2 19.1 10.1 C 19.1 8 19 7.1 18.7 6.6 C 18.5 6.4 18.2 6.2 17.8 6.2 C 17.4 6.2 17.2 6.3 16.9 6.5 Z M 24.2 12.3 C 24.2 13.3 24.7 13.8 25.8 13.8 C 25.8 13.8 25.8 15.3 25.8 15.3 C 24.9 15.3 24.1 15.2 23.5 14.6 C 23 14.2 22.6 13.5 22.6 12.3 C 22.6 12.32 22.6 1 22.6 1 L 24.2 1 C 24.2 1 24.22 12.26 24.2 12.3 Z M 28.4 10.5 C 28.4 12.1 28.5 13.1 28.8 13.5 C 29 13.8 29.3 14 29.8 14 C 30.1 14 30.4 13.9 30.7 13.6 C 30.9 13.3 31 12.9 31 12.4 C 31 12.4 32.6 12.4 32.6 12.4 C 32.6 13.3 32.4 14.1 31.8 14.7 C 31.3 15.2 30.6 15.4 29.8 15.4 C 28.9 15.4 28.2 15.2 27.7 14.6 C 26.9 13.8 26.8 12.3 26.8 10.1 C 26.8 7.9 26.9 6.4 27.7 5.6 C 28.2 5 28.9 4.8 29.7 4.8 C 30.6 4.8 31.2 5 31.8 5.6 C 32.5 6.4 32.7 7.9 32.7 10.5 C 32.7 10.5 28.4 10.5 28.4 10.5 Z M 30.6 6.6 C 30.4 6.4 30.2 6.2 29.7 6.2 C 29.3 6.2 29 6.4 28.8 6.6 C 28.5 7 28.4 7.8 28.4 9.3 C 28.4 9.3 31 9.3 31 9.3 C 31 7.8 31 7 30.6 6.6 Z M 43.2 5.7 C 43.8 6.5 43.9 8 43.9 10.1 C 43.9 12.2 43.8 13.7 43.2 14.5 C 42.7 15.2 41.9 15.4 41 15.4 C 40.1 15.4 39.3 15.2 38.8 14.5 C 38.2 13.7 38.1 12.2 38.1 10.1 C 38.1 8 38.2 6.5 38.8 5.7 C 39.3 5 40.1 4.8 41 4.8 C 41.9 4.8 42.7 5 43.2 5.7 Z M 40.1 6.7 C 39.7 7.2 39.7 8.2 39.7 10.1 C 39.7 12 39.7 13 40.1 13.5 C 40.3 13.8 40.6 14 41 14 C 41.4 14 41.7 13.8 41.9 13.5 C 42.3 13 42.3 12 42.3 10.1 C 42.3 8.2 42.3 7.2 41.9 6.7 C 41.7 6.4 41.4 6.2 41 6.2 C 40.6 6.2 40.3 6.4 40.1 6.7 Z M 49.5 2.4 C 48.4 2.4 47.9 2.9 47.9 4 C 47.86 3.98 47.9 4.9 47.9 4.9 L 49.5 4.9 L 49.5 6.2 L 47.9 6.2 L 47.9 15.3 L 46.2 15.3 L 46.2 6.2 L 45.1 6.2 L 45.1 4.9 L 46.2 4.9 C 46.2 4.9 46.24 3.92 46.2 3.9 C 46.2 2.8 46.6 2.1 47.1 1.6 C 47.8 1.1 48.6 1 49.5 1 C 49.5 1 49.5 2.4 49.5 2.4 Z M 60.2 1.7 C 60.9 2.4 61.2 3.4 61.2 4.5 C 61.2 4.5 59.5 4.5 59.5 4.5 C 59.5 3.9 59.4 3.3 59.1 2.9 C 58.9 2.6 58.5 2.4 58 2.4 C 57.4 2.4 57 2.6 56.8 3 C 56.3 3.6 56.2 4.8 56.2 8.2 C 56.2 11.5 56.3 12.7 56.8 13.4 C 57 13.7 57.4 13.9 58 13.9 C 58.5 13.9 58.9 13.7 59.1 13.4 C 59.4 13 59.5 12.4 59.5 11.8 C 59.5 11.8 61.2 11.8 61.2 11.8 C 61.2 13 60.9 14 60.2 14.7 C 59.6 15.2 58.9 15.4 58 15.4 C 56.8 15.4 56.1 15 55.5 14.4 C 54.6 13.3 54.5 12.1 54.5 8.2 C 54.5 4.2 54.6 3 55.5 1.9 C 56.1 1.3 56.8 0.9 58 0.9 C 59 0.9 59.7 1.2 60.2 1.7 Z M 67.9 5.7 C 68.5 6.5 68.6 8 68.6 10.1 C 68.6 12.2 68.5 13.7 67.9 14.5 C 67.3 15.2 66.6 15.4 65.7 15.4 C 64.7 15.4 64 15.2 63.5 14.5 C 62.8 13.7 62.7 12.2 62.7 10.1 C 62.7 8 62.8 6.5 63.5 5.7 C 64 5 64.7 4.8 65.7 4.8 C 66.6 4.8 67.3 5 67.9 5.7 Z M 64.8 6.7 C 64.4 7.2 64.3 8.2 64.3 10.1 C 64.3 12 64.4 13 64.8 13.5 C 65 13.8 65.3 14 65.7 14 C 66 14 66.4 13.8 66.6 13.5 C 67 13 67 12 67 10.1 C 67 8.2 67 7.2 66.6 6.7 C 66.4 6.4 66 6.2 65.7 6.2 C 65.3 6.2 65 6.4 64.8 6.7 Z M 75.6 5.5 C 76.1 6 76.3 6.5 76.3 7.7 C 76.26 7.66 76.3 15.3 76.3 15.3 L 74.6 15.3 C 74.6 15.3 74.64 7.66 74.6 7.7 C 74.6 6.7 74.1 6.2 73.4 6.2 C 72.7 6.2 72.2 6.7 72.2 7.7 C 72.18 7.66 72.2 15.3 72.2 15.3 L 70.6 15.3 L 70.6 4.9 L 72.1 4.9 C 72.1 4.9 72.12 5.72 72.1 5.7 C 72.3 5.5 72.5 5.2 72.8 5.1 C 73.1 4.9 73.5 4.8 73.9 4.8 C 74.7 4.8 75.2 5 75.6 5.5 Z M 79.7 14.6 C 79.2 14.2 78.8 13.4 78.8 12.3 C 78.84 12.32 78.8 6.2 78.8 6.2 L 77.7 6.2 L 77.7 4.9 L 78.8 4.9 L 78.8 2.1 L 80.5 2.1 L 80.5 4.9 L 82.1 4.9 L 82.1 6.2 L 80.5 6.2 C 80.5 6.2 80.46 12.26 80.5 12.3 C 80.5 13.4 81 13.8 82.1 13.8 C 82.1 13.8 82.1 15.3 82.1 15.3 C 81.2 15.3 80.4 15.2 79.7 14.6 Z M 84.9 10.5 C 84.9 12.1 84.9 13.1 85.3 13.5 C 85.5 13.8 85.8 14 86.2 14 C 86.6 14 86.9 13.9 87.1 13.6 C 87.4 13.3 87.5 12.9 87.5 12.4 C 87.5 12.4 89.1 12.4 89.1 12.4 C 89.1 13.3 88.8 14.1 88.2 14.7 C 87.7 15.2 87 15.4 86.2 15.4 C 85.3 15.4 84.7 15.2 84.1 14.6 C 83.4 13.8 83.2 12.3 83.2 10.1 C 83.2 7.9 83.4 6.4 84.1 5.6 C 84.7 5 85.3 4.8 86.2 4.8 C 87 4.8 87.7 5 88.2 5.6 C 89 6.4 89.1 7.9 89.1 10.5 C 89.1 10.5 84.9 10.5 84.9 10.5 Z M 87.1 6.6 C 86.9 6.4 86.6 6.2 86.2 6.2 C 85.7 6.2 85.5 6.4 85.3 6.6 C 84.9 7 84.9 7.8 84.9 9.3 C 84.9 9.3 87.5 9.3 87.5 9.3 C 87.5 7.8 87.4 7 87.1 6.6 Z M 96.2 5.5 C 96.6 6 96.8 6.5 96.8 7.7 C 96.78 7.66 96.8 15.3 96.8 15.3 L 95.2 15.3 C 95.2 15.3 95.16 7.66 95.2 7.7 C 95.2 6.7 94.6 6.2 93.9 6.2 C 93.2 6.2 92.7 6.7 92.7 7.7 C 92.7 7.66 92.7 15.3 92.7 15.3 L 91.1 15.3 L 91.1 4.9 L 92.6 4.9 C 92.6 4.9 92.64 5.72 92.6 5.7 C 92.8 5.5 93.1 5.2 93.3 5.1 C 93.6 4.9 94 4.8 94.4 4.8 C 95.2 4.8 95.7 5 96.2 5.5 Z M 100.3 14.6 C 99.7 14.2 99.4 13.4 99.4 12.3 C 99.36 12.32 99.4 6.2 99.4 6.2 L 98.2 6.2 L 98.2 4.9 L 99.4 4.9 L 99.4 2.1 L 101 2.1 L 101 4.9 L 102.6 4.9 L 102.6 6.2 L 101 6.2 C 101 6.2 100.98 12.26 101 12.3 C 101 13.4 101.6 13.8 102.6 13.8 C 102.6 13.8 102.6 15.3 102.6 15.3 C 101.7 15.3 100.9 15.2 100.3 14.6 Z M 108.6 5.5 C 109.1 6 109.4 6.8 109.4 7.8 C 109.4 7.8 107.8 7.8 107.8 7.8 C 107.8 7.2 107.7 6.8 107.4 6.5 C 107.2 6.3 106.9 6.2 106.6 6.2 C 106.2 6.2 105.9 6.3 105.7 6.5 C 105.4 6.8 105.3 7.1 105.3 7.5 C 105.3 7.8 105.3 8.1 105.5 8.3 C 105.6 8.5 105.9 8.8 106.3 9 C 106.3 9 107.6 9.6 107.6 9.6 C 108.3 10 108.8 10.3 109.1 10.8 C 109.4 11.2 109.5 11.8 109.5 12.5 C 109.5 13.4 109.2 14.1 108.7 14.6 C 108.1 15.2 107.4 15.4 106.5 15.4 C 105.7 15.4 105 15.2 104.5 14.6 C 103.9 14 103.6 13.3 103.6 12.4 C 103.6 12.4 105.2 12.4 105.2 12.4 C 105.2 12.9 105.3 13.3 105.6 13.6 C 105.9 13.9 106.2 14 106.5 14 C 107 14 107.3 13.9 107.5 13.6 C 107.8 13.4 107.9 13 107.9 12.6 C 107.9 12.2 107.8 11.9 107.7 11.6 C 107.5 11.3 107.2 11.1 106.7 10.9 C 106.7 10.9 105.4 10.2 105.4 10.2 C 104.7 9.9 104.2 9.4 104 9 C 103.8 8.6 103.7 8.2 103.7 7.6 C 103.7 6.7 104 6.1 104.5 5.5 C 105 5 105.8 4.8 106.6 4.8 C 107.4 4.8 108.1 5 108.6 5.5 Z " stroke="none" fill="#323e47"/>  </g></svg>