<?xml version="1.0" standalone="no"?><!DOCTYPE svg PUBLIC "-//W3C//DTD SVG 1.1//EN" "http://www.w3.org/Graphics/SVG/1.1/DTD/svg11.dtd"><svg xmlns="http://www.w3.org/2000/svg" version="1.1" width="640px" height="118.799621582031px" viewBox="0 0 640 118.799621582031">  <desc>Tips</desc>  <defs/>  <g id="Polygon27690">    <path d="M 55.1 36.8 L 45.8 36.8 L 45.8 66.2 L 38.8 66.2 L 38.8 36.8 L 29.5 36.8 L 29.5 30.6 L 55.1 30.6 L 55.1 36.8 Z M 66.7 66.2 L 60.2 66.2 L 60.2 40.9 L 66.7 40.9 L 66.7 66.2 Z M 66.7 35.7 L 60.1 35.7 L 60.1 30.4 L 66.7 30.4 L 66.7 35.7 Z M 93.1 42.2 C 95.5 44.7 95.8 48.8 95.8 53.1 C 95.8 57.5 95.5 61.6 93.1 64.1 C 91.6 65.6 89.4 66.5 86.8 66.5 C 84.1 66.5 82.1 65.8 80.4 63.9 C 80.45 63.9 80.4 75.7 80.4 75.7 L 73.9 75.7 L 73.9 40.1 L 80.2 40.1 C 80.2 40.1 80.25 42.6 80.2 42.6 C 82.1 40.6 84 39.8 86.7 39.8 C 89.3 39.8 91.6 40.7 93.1 42.2 Z M 80.4 53.1 C 80.4 57.4 80.9 60.6 84.8 60.6 C 88.8 60.6 89.3 57.4 89.3 53.1 C 89.3 48.9 88.8 45.7 84.8 45.7 C 80.9 45.7 80.4 48.9 80.4 53.1 Z M 120.8 42.9 C 120.8 42.9 116.8 46.9 116.8 46.9 C 115.3 45.6 113 45.2 110.7 45.2 C 108.1 45.2 107 46.4 107 47.7 C 107 49 107.8 49.7 109.7 49.9 C 109.7 49.9 113.8 50.3 113.8 50.3 C 119 50.8 121.6 53.5 121.6 58 C 121.6 63.7 116.7 66.5 110.5 66.5 C 106.4 66.5 102.8 66 99.4 62.7 C 99.4 62.7 103.7 58.5 103.7 58.5 C 105.8 60.6 108.6 60.9 110.6 60.9 C 112.9 60.9 115.2 60.2 115.2 58.2 C 115.2 56.9 114.6 56 112.5 55.8 C 112.5 55.8 108.4 55.4 108.4 55.4 C 103.7 55 100.8 52.9 100.8 48.1 C 100.8 42.7 105.5 39.8 110.8 39.8 C 114.9 39.8 118.3 40.6 120.8 42.9 Z " stroke="none" fill="#fff"/>  </g></svg>