<?xml version="1.0" standalone="no"?><!DOCTYPE svg PUBLIC "-//W3C//DTD SVG 1.1//EN" "http://www.w3.org/Graphics/SVG/1.1/DTD/svg11.dtd"><svg xmlns="http://www.w3.org/2000/svg" version="1.1" width="572px" height="84.32763671875px" viewBox="0 0 572 84.32763671875">  <desc>The application</desc>  <defs/>  <g id="Polygon26823">    <path d="M 26 8.4 L 17 8.4 L 17 36.7 L 10.4 36.7 L 10.4 8.4 L 1.4 8.4 L 1.4 2.5 L 26 2.5 L 26 8.4 Z M 45.5 36.7 C 45.5 36.7 45.46 21.55 45.5 21.6 C 45.5 18.1 43.3 17 41.3 17 C 39.4 17 37.2 18.1 37.2 21.6 C 37.15 21.55 37.2 36.7 37.2 36.7 L 30.9 36.7 L 30.9 2.5 L 37.2 2.5 C 37.2 2.5 37.15 13.97 37.2 14 C 38.7 12.2 40.8 11.4 43.2 11.4 C 45.7 11.4 47.8 12.2 49.2 13.6 C 51.2 15.6 51.7 18 51.7 20.7 C 51.7 20.69 51.7 36.7 51.7 36.7 L 45.5 36.7 Z M 79 23.5 C 78.96 23.47 79 26.1 79 26.1 C 79 26.1 63.31 26.11 63.3 26.1 C 63.3 29.4 65.2 31.7 68.8 31.7 C 71.5 31.7 72.9 30.9 74.4 29.3 C 74.4 29.3 78.2 33 78.2 33 C 75.7 35.6 73.2 37 68.7 37 C 62.8 37 57.2 34.3 57.2 24.1 C 57.2 16 61.6 11.4 68.1 11.4 C 75 11.4 79 16.4 79 23.5 Z M 63.8 19.2 C 63.4 20.1 63.4 20.7 63.3 21.8 C 63.3 21.8 72.8 21.8 72.8 21.8 C 72.7 20.7 72.7 20.1 72.2 19.2 C 71.6 17.7 70.2 16.6 68.1 16.6 C 65.9 16.6 64.5 17.7 63.8 19.2 Z M 114.8 20.2 C 114.77 20.21 114.8 36.7 114.8 36.7 L 108.7 36.7 C 108.7 36.7 108.67 34.51 108.7 34.5 C 107 36.2 105.4 36.9 102.5 36.9 C 99.7 36.9 97.6 36.1 96.1 34.7 C 94.8 33.3 94.1 31.3 94.1 29.1 C 94.1 25.1 96.8 21.8 102.7 21.8 C 102.72 21.84 108.5 21.8 108.5 21.8 C 108.5 21.8 108.53 20.59 108.5 20.6 C 108.5 17.9 107.2 16.7 103.9 16.7 C 101.6 16.7 100.4 17.3 99.1 18.8 C 99.1 18.8 95.1 14.9 95.1 14.9 C 97.6 12.2 99.9 11.4 104.1 11.4 C 111.2 11.4 114.8 14.4 114.8 20.2 Z M 103.8 26.1 C 101.3 26.1 100.1 27.1 100.1 29 C 100.1 30.7 101.3 31.8 103.9 31.8 C 105.4 31.8 106.5 31.6 107.6 30.6 C 108.3 30 108.5 29 108.5 27.5 C 108.53 27.46 108.5 26.1 108.5 26.1 C 108.5 26.1 103.78 26.11 103.8 26.1 Z M 139.9 13.6 C 142.2 16.1 142.5 20 142.5 24.1 C 142.5 28.4 142.2 32.3 139.9 34.7 C 138.4 36.1 136.3 37 133.8 37 C 131.2 37 129.4 36.3 127.7 34.5 C 127.73 34.46 127.7 45.8 127.7 45.8 L 121.5 45.8 L 121.5 11.7 L 127.5 11.7 C 127.5 11.7 127.53 14.02 127.5 14 C 129.3 12.1 131.1 11.4 133.8 11.4 C 136.3 11.4 138.4 12.2 139.9 13.6 Z M 127.7 24.1 C 127.7 28.2 128.2 31.3 132 31.3 C 135.7 31.3 136.2 28.2 136.2 24.1 C 136.2 20.1 135.7 17 132 17 C 128.2 17 127.7 20.1 127.7 24.1 Z M 166.8 13.6 C 169.2 16.1 169.4 20 169.4 24.1 C 169.4 28.4 169.2 32.3 166.8 34.7 C 165.4 36.1 163.2 37 160.8 37 C 158.2 37 156.3 36.3 154.7 34.5 C 154.65 34.46 154.7 45.8 154.7 45.8 L 148.4 45.8 L 148.4 11.7 L 154.5 11.7 C 154.5 11.7 154.46 14.02 154.5 14 C 156.2 12.1 158.1 11.4 160.7 11.4 C 163.2 11.4 165.4 12.2 166.8 13.6 Z M 154.7 24.1 C 154.7 28.2 155.1 31.3 158.9 31.3 C 162.7 31.3 163.2 28.2 163.2 24.1 C 163.2 20.1 162.7 17 158.9 17 C 155.1 17 154.7 20.1 154.7 24.1 Z M 181.3 29.1 C 181.3 30.6 182 31.4 183.5 31.4 C 183.55 31.39 185.9 31.4 185.9 31.4 L 185.9 36.7 C 185.9 36.7 182.4 36.67 182.4 36.7 C 177.3 36.7 175.1 33.1 175.1 29.5 C 175.1 29.52 175.1 2.5 175.1 2.5 L 181.3 2.5 C 181.3 2.5 181.34 29.14 181.3 29.1 Z M 197.2 36.7 L 190.9 36.7 L 190.9 12.4 L 197.2 12.4 L 197.2 36.7 Z M 197.2 7.4 L 190.8 7.4 L 190.8 2.3 L 197.2 2.3 L 197.2 7.4 Z M 222.5 14.7 C 222.5 14.7 218.3 19 218.3 19 C 217 17.6 215.9 17 214.3 17 C 212.7 17 211.6 17.6 210.7 18.6 C 209.8 19.8 209.3 21.5 209.3 24.1 C 209.3 26.8 209.8 28.5 210.7 29.7 C 211.6 30.8 212.7 31.3 214.3 31.3 C 215.9 31.3 217 30.7 218.3 29.4 C 218.3 29.4 222.5 33.6 222.5 33.6 C 220.3 35.9 217.7 37 214.3 37 C 209.2 37 203.1 34.3 203.1 24.1 C 203.1 14.1 209.2 11.4 214.3 11.4 C 217.7 11.4 220.3 12.4 222.5 14.7 Z M 246 20.2 C 246.05 20.21 246 36.7 246 36.7 L 239.9 36.7 C 239.9 36.7 239.95 34.51 239.9 34.5 C 238.3 36.2 236.7 36.9 233.8 36.9 C 231 36.9 228.9 36.1 227.4 34.7 C 226.1 33.3 225.4 31.3 225.4 29.1 C 225.4 25.1 228.1 21.8 234 21.8 C 234 21.84 239.8 21.8 239.8 21.8 C 239.8 21.8 239.81 20.59 239.8 20.6 C 239.8 17.9 238.5 16.7 235.1 16.7 C 232.9 16.7 231.7 17.3 230.3 18.8 C 230.3 18.8 226.4 14.9 226.4 14.9 C 228.9 12.2 231.2 11.4 235.4 11.4 C 242.4 11.4 246 14.4 246 20.2 Z M 235.1 26.1 C 232.6 26.1 231.4 27.1 231.4 29 C 231.4 30.7 232.6 31.8 235.1 31.8 C 236.7 31.8 237.8 31.6 238.8 30.6 C 239.6 30 239.8 29 239.8 27.5 C 239.81 27.46 239.8 26.1 239.8 26.1 C 239.8 26.1 235.05 26.11 235.1 26.1 Z M 259.6 12.4 L 264 12.4 L 264 17.1 L 259.6 17.1 C 259.6 17.1 259.58 29.14 259.6 29.1 C 259.6 30.6 260.3 31.4 261.7 31.4 C 261.74 31.39 264 31.4 264 31.4 L 264 36.7 C 264 36.7 260.59 36.67 260.6 36.7 C 255.5 36.7 253.3 33.1 253.3 29.5 C 253.34 29.52 253.3 17.1 253.3 17.1 L 250.7 17.1 L 250.7 12.4 L 253.3 12.4 L 253.3 5 L 259.6 5 L 259.6 12.4 Z M 275.9 36.7 L 269.7 36.7 L 269.7 12.4 L 275.9 12.4 L 275.9 36.7 Z M 275.9 7.4 L 269.6 7.4 L 269.6 2.3 L 275.9 2.3 L 275.9 7.4 Z M 300.1 33.9 C 298.6 35.5 296.1 37 292.4 37 C 288.7 37 286.2 35.5 284.6 33.9 C 282.4 31.5 281.8 28.7 281.8 24.1 C 281.8 19.6 282.4 16.8 284.6 14.4 C 286.2 12.8 288.7 11.4 292.4 11.4 C 296.1 11.4 298.6 12.8 300.1 14.4 C 302.4 16.8 303 19.6 303 24.1 C 303 28.7 302.4 31.5 300.1 33.9 Z M 295.3 18.1 C 294.6 17.4 293.6 17 292.4 17 C 291.2 17 290.2 17.4 289.5 18.1 C 288.2 19.3 288 21.6 288 24.1 C 288 26.7 288.2 29 289.5 30.2 C 290.2 31 291.2 31.3 292.4 31.3 C 293.6 31.3 294.6 31 295.3 30.2 C 296.6 29 296.7 26.7 296.7 24.1 C 296.7 21.6 296.6 19.3 295.3 18.1 Z M 327.2 13.6 C 329.2 15.6 329.7 18 329.7 20.7 C 329.71 20.69 329.7 36.7 329.7 36.7 L 323.5 36.7 C 323.5 36.7 323.47 21.55 323.5 21.6 C 323.5 18.1 321.4 17 319.3 17 C 317.3 17 315.2 18.1 315.2 21.6 C 315.16 21.55 315.2 36.7 315.2 36.7 L 308.9 36.7 L 308.9 11.7 L 315 11.7 C 315 11.7 315.02 13.97 315 14 C 316.7 12.2 319 11.4 321.3 11.4 C 323.8 11.4 325.8 12.1 327.2 13.6 Z " stroke="none" fill="#fff"/>  </g></svg>