<?xml version="1.0" standalone="no"?><!DOCTYPE svg PUBLIC "-//W3C//DTD SVG 1.1//EN" "http://www.w3.org/Graphics/SVG/1.1/DTD/svg11.dtd"><svg xmlns="http://www.w3.org/2000/svg" version="1.1" width="2048px" height="88.663818359375px" viewBox="0 0 2048 88.663818359375">  <desc>The Lincoln National Life Insurance Company and Lincoln Life &amp; Annuity Company of New York For agent or broker use o...</desc>  <defs/>  <g id="Polygon19774">    <path d="M 808.6 51 L 804.1 51 L 804.1 55.8 L 808 55.8 L 808 58.2 L 804.1 58.2 L 804.1 65.6 L 801.5 65.6 L 801.5 48.6 L 808.6 48.6 L 808.6 51 Z M 816.8 54.1 C 817.6 55.2 817.7 57.2 817.7 59.3 C 817.7 61.4 817.6 63.4 816.8 64.5 C 816.1 65.5 815.1 65.8 813.8 65.8 C 812.6 65.8 811.6 65.5 810.8 64.5 C 810 63.4 810 61.4 810 59.3 C 810 57.2 810 55.2 810.8 54.1 C 811.6 53.1 812.6 52.8 813.8 52.8 C 815.1 52.8 816.1 53.1 816.8 54.1 Z M 812.9 55.6 C 812.5 56.2 812.5 57.4 812.5 59.3 C 812.5 61.2 812.5 62.5 812.9 63 C 813.1 63.4 813.5 63.6 813.8 63.6 C 814.2 63.6 814.6 63.4 814.8 63 C 815.2 62.5 815.2 61.2 815.2 59.3 C 815.2 57.4 815.2 56.2 814.8 55.6 C 814.6 55.2 814.2 55.1 813.8 55.1 C 813.5 55.1 813.1 55.2 812.9 55.6 Z M 825.2 55.3 C 825.2 55.3 824.33 55.27 824.3 55.3 C 823.1 55.3 822.2 56.1 822.2 57.5 C 822.22 57.46 822.2 65.6 822.2 65.6 L 819.7 65.6 L 819.7 53 L 822.1 53 C 822.1 53 822.12 54.34 822.1 54.3 C 822.4 54 822.8 53.6 823.2 53.3 C 823.8 53 824.5 52.8 825.2 52.8 C 825.19 52.8 825.2 55.3 825.2 55.3 Z M 835.9 65.6 C 835.9 65.6 835.9 64.56 835.9 64.6 C 835.7 64.9 835.4 65.2 835.1 65.4 C 834.7 65.7 834.3 65.8 833.7 65.8 C 832.6 65.8 832 65.5 831.3 64.8 C 830.8 64.2 830.5 63.2 830.5 61.9 C 830.5 60.8 831 59.8 831.7 59.1 C 832.3 58.6 833.2 58.2 834.6 58.2 C 834.63 58.25 835.8 58.2 835.8 58.2 C 835.8 58.2 835.75 56.5 835.8 56.5 C 835.8 55.6 835.3 55 834.5 55 C 834.1 55 833.9 55.2 833.7 55.4 C 833.4 55.7 833.3 56 833.3 56.6 C 833.3 56.6 830.8 56.6 830.8 56.6 C 830.8 55.6 831 54.6 831.8 53.8 C 832.4 53.2 833.5 52.8 834.5 52.8 C 835.6 52.8 836.5 53.1 837.2 53.7 C 837.9 54.4 838.3 55.3 838.3 56.7 C 838.3 56.71 838.3 65.6 838.3 65.6 L 835.9 65.6 Z M 835.8 60 C 835.8 60 834.91 60.05 834.9 60 C 834.4 60 834 60.1 833.6 60.4 C 833.3 60.7 833.1 61.3 833.1 61.8 C 833.1 63 833.5 63.6 834.4 63.6 C 835.2 63.6 835.8 63 835.8 61.9 C 835.75 61.92 835.8 60 835.8 60 Z M 844.7 53.1 C 845 53.3 845.2 53.6 845.4 53.8 C 845.44 53.81 845.4 53 845.4 53 L 847.9 53 C 847.9 53 847.86 65.95 847.9 66 C 847.9 67.6 847.5 68.5 846.8 69.2 C 846.1 69.9 845.1 70.3 844 70.3 C 843 70.3 842 70 841.3 69.3 C 840.5 68.5 840.3 67.5 840.3 66.5 C 840.3 66.5 842.8 66.5 842.8 66.5 C 842.8 67 842.9 67.4 843.1 67.7 C 843.3 68 843.6 68.1 844 68.1 C 844.4 68.1 844.7 67.9 845 67.7 C 845.2 67.4 845.3 66.9 845.3 66.1 C 845.3 66.1 845.3 64.2 845.3 64.2 C 845.1 64.4 844.9 64.7 844.6 64.9 C 844.3 65.1 843.8 65.2 843.3 65.2 C 842.5 65.2 841.8 64.9 841.2 64.3 C 840.4 63.3 840.2 61.9 840.2 59 C 840.2 56.1 840.4 54.7 841.2 53.7 C 841.8 53.1 842.4 52.8 843.3 52.8 C 843.9 52.8 844.3 52.9 844.7 53.1 Z M 843.1 55.6 C 842.8 56 842.7 56.8 842.7 59 C 842.7 61.3 842.8 62.1 843.1 62.5 C 843.3 62.8 843.7 63 844.1 63 C 844.4 63 844.7 62.9 844.9 62.7 C 845.2 62.4 845.3 62 845.3 61.5 C 845.3 61.5 845.3 56.6 845.3 56.6 C 845.3 56 845.2 55.7 844.9 55.4 C 844.7 55.2 844.4 55.1 844.1 55.1 C 843.7 55.1 843.3 55.2 843.1 55.6 Z M 856.4 53.8 C 857.4 54.8 857.6 57 857.6 60 C 857.6 60 852.4 60 852.4 60 C 852.4 61.5 852.4 62.6 852.7 63 C 852.9 63.3 853.3 63.6 853.7 63.6 C 854.1 63.6 854.5 63.4 854.7 63.1 C 854.9 62.8 855 62.4 855 61.9 C 855 61.9 857.5 61.9 857.5 61.9 C 857.5 63 857.2 64 856.5 64.8 C 855.8 65.5 854.9 65.8 853.7 65.8 C 852.6 65.8 851.8 65.6 851 64.8 C 849.9 63.7 849.8 61.6 849.8 59.3 C 849.8 57 849.9 54.9 851 53.8 C 851.8 53 852.7 52.8 853.7 52.8 C 854.8 52.8 855.6 53 856.4 53.8 Z M 852.7 55.6 C 852.4 55.9 852.4 56.7 852.4 58.2 C 852.4 58.2 855 58.2 855 58.2 C 855 56.7 854.9 55.9 854.7 55.6 C 854.5 55.2 854.2 55.1 853.7 55.1 C 853.2 55.1 852.9 55.2 852.7 55.6 Z M 866.4 53.8 C 866.9 54.4 867.1 55.1 867.1 56.5 C 867.09 56.52 867.1 65.6 867.1 65.6 L 864.5 65.6 C 864.5 65.6 864.54 56.54 864.5 56.5 C 864.5 55.6 864 55.1 863.3 55.1 C 862.6 55.1 862 55.6 862 56.5 C 862.05 56.54 862 65.6 862 65.6 L 859.5 65.6 L 859.5 53 L 862 53 C 862 53 861.95 53.93 862 53.9 C 862.2 53.6 862.5 53.3 862.8 53.1 C 863.2 52.9 863.6 52.8 864.1 52.8 C 865.1 52.8 865.8 53.1 866.4 53.8 Z M 872.5 53.3 L 874.3 53.3 L 874.3 55.3 L 872.5 55.3 C 872.5 55.3 872.51 61.66 872.5 61.7 C 872.5 62.8 873.1 63.4 874.3 63.4 C 874.3 63.4 874.3 65.6 874.3 65.6 C 873.1 65.6 872.1 65.5 871.2 64.9 C 870.4 64.2 870 63.3 870 61.8 C 869.96 61.8 870 55.3 870 55.3 L 868.7 55.3 L 868.7 53.3 L 870 53.3 L 870 49.8 L 872.5 49.8 L 872.5 53.3 Z M 886.8 54.1 C 887.6 55.2 887.7 57.2 887.7 59.3 C 887.7 61.4 887.6 63.4 886.8 64.5 C 886.1 65.5 885.1 65.8 883.8 65.8 C 882.6 65.8 881.6 65.5 880.8 64.5 C 880 63.4 879.9 61.4 879.9 59.3 C 879.9 57.2 880 55.2 880.8 54.1 C 881.6 53.1 882.6 52.8 883.8 52.8 C 885.1 52.8 886.1 53.1 886.8 54.1 Z M 882.9 55.6 C 882.5 56.2 882.5 57.4 882.5 59.3 C 882.5 61.2 882.5 62.5 882.9 63 C 883.1 63.4 883.5 63.6 883.8 63.6 C 884.2 63.6 884.6 63.4 884.8 63 C 885.2 62.5 885.2 61.2 885.2 59.3 C 885.2 57.4 885.2 56.2 884.8 55.6 C 884.6 55.2 884.2 55.1 883.8 55.1 C 883.5 55.1 883.1 55.2 882.9 55.6 Z M 895.2 55.3 C 895.2 55.3 894.33 55.27 894.3 55.3 C 893.1 55.3 892.2 56.1 892.2 57.5 C 892.21 57.46 892.2 65.6 892.2 65.6 L 889.7 65.6 L 889.7 53 L 892.1 53 C 892.1 53 892.12 54.34 892.1 54.3 C 892.4 54 892.8 53.6 893.2 53.3 C 893.8 53 894.4 52.8 895.2 52.8 C 895.19 52.8 895.2 55.3 895.2 55.3 Z M 903.7 53.8 C 903.9 53.5 904.2 53.3 904.4 53.1 C 904.8 52.9 905.2 52.8 905.7 52.8 C 906.7 52.8 907.4 53.1 907.9 53.8 C 908.8 54.8 908.8 56.5 908.8 59.3 C 908.8 62.1 908.8 63.8 907.9 64.8 C 907.3 65.6 906.7 65.8 905.7 65.8 C 905.2 65.8 904.8 65.7 904.4 65.5 C 904.2 65.3 903.7 64.9 903.6 64.7 C 903.59 64.7 903.6 65.6 903.6 65.6 L 901.1 65.6 L 901.1 48.6 L 903.7 48.6 C 903.7 48.6 903.69 53.81 903.7 53.8 Z M 904.1 55.4 C 903.8 55.7 903.7 56 903.7 56.6 C 903.7 56.6 903.7 62 903.7 62 C 903.7 62.6 903.8 63 904.1 63.2 C 904.3 63.4 904.6 63.6 904.9 63.6 C 905.3 63.6 905.7 63.4 905.9 63.1 C 906.2 62.6 906.3 61.7 906.3 59.3 C 906.3 56.9 906.2 56 905.9 55.6 C 905.7 55.2 905.3 55.1 904.9 55.1 C 904.6 55.1 904.3 55.2 904.1 55.4 Z M 916.3 55.3 C 916.3 55.3 915.47 55.27 915.5 55.3 C 914.3 55.3 913.4 56.1 913.4 57.5 C 913.36 57.46 913.4 65.6 913.4 65.6 L 910.8 65.6 L 910.8 53 L 913.3 53 C 913.3 53 913.26 54.34 913.3 54.3 C 913.5 54 913.9 53.6 914.4 53.3 C 914.9 53 915.6 52.8 916.3 52.8 C 916.33 52.8 916.3 55.3 916.3 55.3 Z M 924.5 54.1 C 925.3 55.2 925.4 57.2 925.4 59.3 C 925.4 61.4 925.3 63.4 924.5 64.5 C 923.7 65.5 922.7 65.8 921.5 65.8 C 920.3 65.8 919.2 65.5 918.5 64.5 C 917.7 63.4 917.6 61.4 917.6 59.3 C 917.6 57.2 917.7 55.2 918.5 54.1 C 919.2 53.1 920.3 52.8 921.5 52.8 C 922.7 52.8 923.7 53.1 924.5 54.1 Z M 920.5 55.6 C 920.2 56.2 920.1 57.4 920.1 59.3 C 920.1 61.2 920.2 62.5 920.5 63 C 920.7 63.4 921.1 63.6 921.5 63.6 C 921.9 63.6 922.3 63.4 922.5 63 C 922.8 62.5 922.8 61.2 922.8 59.3 C 922.8 57.4 922.8 56.2 922.5 55.6 C 922.3 55.2 921.9 55.1 921.5 55.1 C 921.1 55.1 920.7 55.2 920.5 55.6 Z M 929.9 58.4 L 933.1 53 L 935.7 53 L 932.6 58 L 935.9 65.6 L 933.1 65.6 L 930.9 60.3 L 929.9 62 L 929.9 65.6 L 927.3 65.6 L 927.3 48.6 L 929.9 48.6 L 929.9 58.4 Z M 943.2 53.8 C 944.2 54.8 944.4 57 944.4 60 C 944.4 60 939.2 60 939.2 60 C 939.2 61.5 939.3 62.6 939.6 63 C 939.8 63.3 940.1 63.6 940.6 63.6 C 941 63.6 941.3 63.4 941.5 63.1 C 941.7 62.8 941.8 62.4 941.8 61.9 C 941.8 61.9 944.4 61.9 944.4 61.9 C 944.3 63 944.1 64 943.3 64.8 C 942.6 65.5 941.7 65.8 940.6 65.8 C 939.4 65.8 938.6 65.6 937.8 64.8 C 936.8 63.7 936.6 61.6 936.6 59.3 C 936.6 57 936.8 54.9 937.8 53.8 C 938.6 53 939.5 52.8 940.5 52.8 C 941.6 52.8 942.4 53 943.2 53.8 Z M 939.5 55.6 C 939.3 55.9 939.2 56.7 939.2 58.2 C 939.2 58.2 941.9 58.2 941.9 58.2 C 941.9 56.7 941.8 55.9 941.5 55.6 C 941.3 55.2 941 55.1 940.5 55.1 C 940 55.1 939.8 55.2 939.5 55.6 Z M 951.9 55.3 C 951.9 55.3 950.99 55.27 951 55.3 C 949.8 55.3 948.9 56.1 948.9 57.5 C 948.88 57.46 948.9 65.6 948.9 65.6 L 946.3 65.6 L 946.3 53 L 948.8 53 C 948.8 53 948.78 54.34 948.8 54.3 C 949 54 949.5 53.6 949.9 53.3 C 950.4 53 951.1 52.8 951.9 52.8 C 951.86 52.8 951.9 55.3 951.9 55.3 Z M 962.9 65.6 C 962.9 65.6 962.9 64.68 962.9 64.7 C 962.7 65 962.3 65.3 962 65.5 C 961.7 65.7 961.2 65.8 960.8 65.8 C 959.7 65.8 959 65.5 958.5 64.8 C 958 64.3 957.7 63.6 957.7 62.1 C 957.74 62.11 957.7 53 957.7 53 L 960.3 53 C 960.3 53 960.28 62.09 960.3 62.1 C 960.3 63.1 960.8 63.6 961.5 63.6 C 962.2 63.6 962.8 63.1 962.8 62.1 C 962.78 62.09 962.8 53 962.8 53 L 965.3 53 L 965.3 65.6 L 962.9 65.6 Z M 973.6 53.8 C 974.3 54.4 974.7 55.3 974.7 56.6 C 974.7 56.6 972.2 56.6 972.2 56.6 C 972.2 56 972.1 55.7 971.8 55.4 C 971.6 55.2 971.3 55 971 55 C 970.6 55 970.2 55.2 970 55.4 C 969.8 55.6 969.7 56 969.7 56.4 C 969.7 56.7 969.7 56.9 969.9 57.1 C 970 57.4 970.4 57.6 970.8 57.8 C 970.8 57.8 972.5 58.5 972.5 58.5 C 973.3 58.9 973.9 59.3 974.3 59.9 C 974.7 60.4 974.8 61.1 974.8 62 C 974.8 63.2 974.4 64.2 973.7 64.8 C 972.9 65.6 972 65.8 971 65.8 C 969.9 65.8 968.8 65.5 968.2 64.8 C 967.4 64 967 63.1 967 61.9 C 967 61.9 969.6 61.9 969.6 61.9 C 969.6 62.4 969.7 62.9 970 63.1 C 970.2 63.4 970.6 63.5 971 63.5 C 971.4 63.5 971.7 63.4 971.9 63.2 C 972.2 63 972.3 62.6 972.3 62.2 C 972.3 61.8 972.2 61.5 972 61.2 C 971.8 60.9 971.5 60.7 971.1 60.5 C 971.1 60.5 969.4 59.8 969.4 59.8 C 968.5 59.4 967.9 58.9 967.5 58.3 C 967.2 57.8 967.1 57.3 967.1 56.6 C 967.1 55.3 967.5 54.6 968.2 53.9 C 968.9 53.2 969.9 52.8 971 52.8 C 972 52.8 973 53.1 973.6 53.8 Z M 983 53.8 C 984 54.8 984.2 57 984.2 60 C 984.2 60 978.9 60 978.9 60 C 978.9 61.5 979 62.6 979.3 63 C 979.5 63.3 979.8 63.6 980.3 63.6 C 980.7 63.6 981 63.4 981.2 63.1 C 981.5 62.8 981.6 62.4 981.6 61.9 C 981.6 61.9 984.1 61.9 984.1 61.9 C 984.1 63 983.8 64 983 64.8 C 982.4 65.5 981.5 65.8 980.3 65.8 C 979.2 65.8 978.3 65.6 977.6 64.8 C 976.5 63.7 976.4 61.6 976.4 59.3 C 976.4 57 976.5 54.9 977.6 53.8 C 978.3 53 979.2 52.8 980.3 52.8 C 981.3 52.8 982.2 53 983 53.8 Z M 979.3 55.6 C 979 55.9 978.9 56.7 978.9 58.2 C 978.9 58.2 981.6 58.2 981.6 58.2 C 981.6 56.7 981.5 55.9 981.2 55.6 C 981 55.2 980.7 55.1 980.3 55.1 C 979.8 55.1 979.5 55.2 979.3 55.6 Z M 997.1 54.1 C 997.9 55.2 998 57.2 998 59.3 C 998 61.4 997.9 63.4 997.1 64.5 C 996.3 65.5 995.3 65.8 994.1 65.8 C 992.8 65.8 991.8 65.5 991.1 64.5 C 990.3 63.4 990.2 61.4 990.2 59.3 C 990.2 57.2 990.3 55.2 991.1 54.1 C 991.8 53.1 992.8 52.8 994.1 52.8 C 995.3 52.8 996.3 53.1 997.1 54.1 Z M 993.1 55.6 C 992.7 56.2 992.7 57.4 992.7 59.3 C 992.7 61.2 992.7 62.5 993.1 63 C 993.3 63.4 993.7 63.6 994.1 63.6 C 994.4 63.6 994.8 63.4 995 63 C 995.4 62.5 995.4 61.2 995.4 59.3 C 995.4 57.4 995.4 56.2 995 55.6 C 994.8 55.2 994.4 55.1 994.1 55.1 C 993.7 55.1 993.3 55.2 993.1 55.6 Z M 1006.8 53.8 C 1007.3 54.4 1007.5 55.1 1007.5 56.5 C 1007.48 56.52 1007.5 65.6 1007.5 65.6 L 1004.9 65.6 C 1004.9 65.6 1004.94 56.54 1004.9 56.5 C 1004.9 55.6 1004.4 55.1 1003.7 55.1 C 1003 55.1 1002.4 55.6 1002.4 56.5 C 1002.44 56.54 1002.4 65.6 1002.4 65.6 L 999.9 65.6 L 999.9 53 L 1002.3 53 C 1002.3 53 1002.35 53.93 1002.3 53.9 C 1002.6 53.6 1002.9 53.3 1003.2 53.1 C 1003.5 52.9 1004 52.8 1004.5 52.8 C 1005.5 52.8 1006.2 53.1 1006.8 53.8 Z M 1012.2 61.7 C 1012.2 62.8 1012.7 63.4 1013.9 63.4 C 1013.9 63.4 1013.9 65.6 1013.9 65.6 C 1012.7 65.6 1011.7 65.5 1010.9 64.9 C 1010.1 64.3 1009.6 63.3 1009.6 61.8 C 1009.62 61.8 1009.6 48.6 1009.6 48.6 L 1012.2 48.6 C 1012.2 48.6 1012.17 61.66 1012.2 61.7 Z M 1019.4 67.2 C 1018.8 69.8 1017 70.1 1014.7 70.1 C 1014.7 70.1 1014.7 67.8 1014.7 67.8 C 1015.8 67.8 1016.7 67.7 1017 66.5 C 1016.97 66.5 1017.2 65.6 1017.2 65.6 L 1014 53 L 1016.9 53 L 1018.5 61.6 L 1020.2 53 L 1023 53 C 1023 53 1019.45 67.25 1019.4 67.2 Z M 1026.3 65.6 L 1023.4 65.6 L 1023.4 62.7 L 1026.3 62.7 L 1026.3 65.6 Z M 1042.3 65.6 L 1039.9 65.6 L 1035.9 55.5 L 1035.9 65.6 L 1033.2 65.6 L 1033.2 48.6 L 1035.6 48.6 L 1039.6 58.7 L 1039.6 48.6 L 1042.3 48.6 L 1042.3 65.6 Z M 1051.3 54.1 C 1052.1 55.2 1052.2 57.2 1052.2 59.3 C 1052.2 61.4 1052.1 63.4 1051.3 64.5 C 1050.6 65.5 1049.5 65.8 1048.3 65.8 C 1047.1 65.8 1046.1 65.5 1045.3 64.5 C 1044.5 63.4 1044.4 61.4 1044.4 59.3 C 1044.4 57.2 1044.5 55.2 1045.3 54.1 C 1046.1 53.1 1047.1 52.8 1048.3 52.8 C 1049.5 52.8 1050.6 53.1 1051.3 54.1 Z M 1047.3 55.6 C 1047 56.2 1047 57.4 1047 59.3 C 1047 61.2 1047 62.5 1047.3 63 C 1047.5 63.4 1047.9 63.6 1048.3 63.6 C 1048.7 63.6 1049.1 63.4 1049.3 63 C 1049.6 62.5 1049.7 61.2 1049.7 59.3 C 1049.7 57.4 1049.6 56.2 1049.3 55.6 C 1049.1 55.2 1048.7 55.1 1048.3 55.1 C 1047.9 55.1 1047.5 55.2 1047.3 55.6 Z M 1057.3 53.3 L 1059.1 53.3 L 1059.1 55.3 L 1057.3 55.3 C 1057.3 55.3 1057.35 61.66 1057.3 61.7 C 1057.3 62.8 1057.9 63.4 1059.1 63.4 C 1059.1 63.4 1059.1 65.6 1059.1 65.6 C 1057.9 65.6 1056.9 65.5 1056.1 64.9 C 1055.3 64.2 1054.8 63.3 1054.8 61.8 C 1054.8 61.8 1054.8 55.3 1054.8 55.3 L 1053.5 55.3 L 1053.5 53.3 L 1054.8 53.3 L 1054.8 49.8 L 1057.3 49.8 L 1057.3 53.3 Z M 1070 50.7 C 1068.8 50.7 1068.2 51.2 1068.2 52.4 C 1068.22 52.39 1068.2 53.3 1068.2 53.3 L 1070 53.3 L 1070 55.3 L 1068.2 55.3 L 1068.2 65.6 L 1065.7 65.6 L 1065.7 55.3 L 1064.4 55.3 L 1064.4 53.3 L 1065.7 53.3 C 1065.7 53.3 1065.67 52.25 1065.7 52.2 C 1065.7 50.8 1066.2 49.8 1066.9 49.2 C 1067.8 48.6 1068.8 48.4 1070 48.4 C 1070 48.4 1070 50.7 1070 50.7 Z M 1078.2 54.1 C 1078.9 55.2 1079 57.2 1079 59.3 C 1079 61.4 1078.9 63.4 1078.2 64.5 C 1077.4 65.5 1076.4 65.8 1075.2 65.8 C 1073.9 65.8 1072.9 65.5 1072.2 64.5 C 1071.4 63.4 1071.3 61.4 1071.3 59.3 C 1071.3 57.2 1071.4 55.2 1072.2 54.1 C 1072.9 53.1 1073.9 52.8 1075.2 52.8 C 1076.4 52.8 1077.4 53.1 1078.2 54.1 Z M 1074.2 55.6 C 1073.8 56.2 1073.8 57.4 1073.8 59.3 C 1073.8 61.2 1073.8 62.5 1074.2 63 C 1074.4 63.4 1074.8 63.6 1075.2 63.6 C 1075.5 63.6 1075.9 63.4 1076.1 63 C 1076.5 62.5 1076.5 61.2 1076.5 59.3 C 1076.5 57.4 1076.5 56.2 1076.1 55.6 C 1075.9 55.2 1075.5 55.1 1075.2 55.1 C 1074.8 55.1 1074.4 55.2 1074.2 55.6 Z M 1086.5 55.3 C 1086.5 55.3 1085.64 55.27 1085.6 55.3 C 1084.4 55.3 1083.5 56.1 1083.5 57.5 C 1083.53 57.46 1083.5 65.6 1083.5 65.6 L 1081 65.6 L 1081 53 L 1083.4 53 C 1083.4 53 1083.43 54.34 1083.4 54.3 C 1083.7 54 1084.1 53.6 1084.5 53.3 C 1085.1 53 1085.8 52.8 1086.5 52.8 C 1086.5 52.8 1086.5 55.3 1086.5 55.3 Z M 1097.5 65.6 C 1097.5 65.6 1097.54 64.68 1097.5 64.7 C 1097.3 65 1097 65.3 1096.7 65.5 C 1096.3 65.7 1095.9 65.8 1095.4 65.8 C 1094.4 65.8 1093.7 65.5 1093.1 64.8 C 1092.6 64.3 1092.4 63.6 1092.4 62.1 C 1092.38 62.11 1092.4 53 1092.4 53 L 1094.9 53 C 1094.9 53 1094.93 62.09 1094.9 62.1 C 1094.9 63.1 1095.5 63.6 1096.2 63.6 C 1096.9 63.6 1097.4 63.1 1097.4 62.1 C 1097.42 62.09 1097.4 53 1097.4 53 L 1100 53 L 1100 65.6 L 1097.5 65.6 Z M 1108.3 53.8 C 1108.9 54.4 1109.3 55.3 1109.3 56.6 C 1109.3 56.6 1106.9 56.6 1106.9 56.6 C 1106.9 56 1106.7 55.7 1106.5 55.4 C 1106.3 55.2 1105.9 55 1105.6 55 C 1105.2 55 1104.9 55.2 1104.7 55.4 C 1104.4 55.6 1104.3 56 1104.3 56.4 C 1104.3 56.7 1104.4 56.9 1104.5 57.1 C 1104.7 57.4 1105 57.6 1105.4 57.8 C 1105.4 57.8 1107.1 58.5 1107.1 58.5 C 1108 58.9 1108.6 59.3 1109 59.9 C 1109.3 60.4 1109.5 61.1 1109.5 62 C 1109.5 63.2 1109 64.2 1108.4 64.8 C 1107.6 65.6 1106.7 65.8 1105.6 65.8 C 1104.5 65.8 1103.5 65.5 1102.8 64.8 C 1102.1 64 1101.7 63.1 1101.7 61.9 C 1101.7 61.9 1104.2 61.9 1104.2 61.9 C 1104.2 62.4 1104.4 62.9 1104.6 63.1 C 1104.9 63.4 1105.3 63.5 1105.6 63.5 C 1106 63.5 1106.3 63.4 1106.6 63.2 C 1106.8 63 1106.9 62.6 1106.9 62.2 C 1106.9 61.8 1106.9 61.5 1106.7 61.2 C 1106.5 60.9 1106.2 60.7 1105.7 60.5 C 1105.7 60.5 1104 59.8 1104 59.8 C 1103.2 59.4 1102.5 58.9 1102.2 58.3 C 1101.9 57.8 1101.8 57.3 1101.8 56.6 C 1101.8 55.3 1102.2 54.6 1102.9 53.9 C 1103.6 53.2 1104.5 52.8 1105.6 52.8 C 1106.7 52.8 1107.6 53.1 1108.3 53.8 Z M 1117.6 53.8 C 1118.6 54.8 1118.8 57 1118.8 60 C 1118.8 60 1113.6 60 1113.6 60 C 1113.6 61.5 1113.6 62.6 1114 63 C 1114.1 63.3 1114.5 63.6 1114.9 63.6 C 1115.3 63.6 1115.7 63.4 1115.9 63.1 C 1116.1 62.8 1116.2 62.4 1116.2 61.9 C 1116.2 61.9 1118.8 61.9 1118.8 61.9 C 1118.7 63 1118.4 64 1117.7 64.8 C 1117 65.5 1116.1 65.8 1114.9 65.8 C 1113.8 65.8 1113 65.6 1112.2 64.8 C 1111.1 63.7 1111 61.6 1111 59.3 C 1111 57 1111.1 54.9 1112.2 53.8 C 1113 53 1113.9 52.8 1114.9 52.8 C 1116 52.8 1116.8 53 1117.6 53.8 Z M 1113.9 55.6 C 1113.7 55.9 1113.6 56.7 1113.6 58.2 C 1113.6 58.2 1116.3 58.2 1116.3 58.2 C 1116.3 56.7 1116.2 55.9 1115.9 55.6 C 1115.7 55.2 1115.4 55.1 1114.9 55.1 C 1114.4 55.1 1114.1 55.2 1113.9 55.6 Z M 1126.9 53 L 1128.2 61.5 L 1129.8 53 L 1131.9 53 L 1133.6 61.5 L 1134.9 53 L 1137.7 53 L 1134.9 65.6 L 1132.4 65.6 L 1130.8 57.5 L 1129.3 65.6 L 1126.8 65.6 L 1124.1 53 L 1126.9 53 Z M 1141.7 65.6 L 1139.2 65.6 L 1139.2 53.3 L 1141.7 53.3 L 1141.7 65.6 Z M 1141.8 51.4 L 1139 51.4 L 1139 48.6 L 1141.8 48.6 L 1141.8 51.4 Z M 1147.2 53.3 L 1148.9 53.3 L 1148.9 55.3 L 1147.2 55.3 C 1147.2 55.3 1147.17 61.66 1147.2 61.7 C 1147.2 62.8 1147.8 63.4 1149 63.4 C 1149 63.4 1149 65.6 1149 65.6 C 1147.8 65.6 1146.8 65.5 1145.9 64.9 C 1145.1 64.2 1144.6 63.3 1144.6 61.8 C 1144.62 61.8 1144.6 55.3 1144.6 55.3 L 1143.3 55.3 L 1143.3 53.3 L 1144.6 53.3 L 1144.6 49.8 L 1147.2 49.8 L 1147.2 53.3 Z M 1153.1 53.8 C 1153.3 53.5 1153.6 53.3 1153.9 53.1 C 1154.2 52.9 1154.7 52.8 1155.2 52.8 C 1156.2 52.8 1156.9 53.1 1157.5 53.8 C 1158 54.4 1158.2 55.1 1158.2 56.5 C 1158.18 56.52 1158.2 65.6 1158.2 65.6 L 1155.6 65.6 C 1155.6 65.6 1155.63 56.54 1155.6 56.5 C 1155.6 55.6 1155.1 55.1 1154.4 55.1 C 1153.7 55.1 1153.1 55.6 1153.1 56.5 C 1153.14 56.54 1153.1 65.6 1153.1 65.6 L 1150.6 65.6 L 1150.6 48.6 L 1153.1 48.6 C 1153.1 48.6 1153.14 53.81 1153.1 53.8 Z M 1167.9 53.3 L 1169.7 53.3 L 1169.7 55.3 L 1167.9 55.3 C 1167.9 55.3 1167.95 61.66 1167.9 61.7 C 1167.9 62.8 1168.5 63.4 1169.7 63.4 C 1169.7 63.4 1169.7 65.6 1169.7 65.6 C 1168.5 65.6 1167.5 65.5 1166.7 64.9 C 1165.9 64.2 1165.4 63.3 1165.4 61.8 C 1165.4 61.8 1165.4 55.3 1165.4 55.3 L 1164.1 55.3 L 1164.1 53.3 L 1165.4 53.3 L 1165.4 49.8 L 1167.9 49.8 L 1167.9 53.3 Z M 1173.9 53.8 C 1174.1 53.5 1174.4 53.3 1174.7 53.1 C 1175 52.9 1175.5 52.8 1175.9 52.8 C 1177 52.8 1177.7 53.1 1178.2 53.8 C 1178.7 54.4 1179 55.1 1179 56.5 C 1178.96 56.52 1179 65.6 1179 65.6 L 1176.4 65.6 C 1176.4 65.6 1176.42 56.54 1176.4 56.5 C 1176.4 55.6 1175.9 55.1 1175.2 55.1 C 1174.5 55.1 1173.9 55.6 1173.9 56.5 C 1173.92 56.54 1173.9 65.6 1173.9 65.6 L 1171.4 65.6 L 1171.4 48.6 L 1173.9 48.6 C 1173.9 48.6 1173.92 53.81 1173.9 53.8 Z M 1187.5 53.8 C 1188.5 54.8 1188.6 57 1188.6 60 C 1188.6 60 1183.4 60 1183.4 60 C 1183.4 61.5 1183.5 62.6 1183.8 63 C 1184 63.3 1184.3 63.6 1184.8 63.6 C 1185.2 63.6 1185.5 63.4 1185.7 63.1 C 1186 62.8 1186.1 62.4 1186.1 61.9 C 1186.1 61.9 1188.6 61.9 1188.6 61.9 C 1188.5 63 1188.3 64 1187.5 64.8 C 1186.8 65.5 1186 65.8 1184.8 65.8 C 1183.7 65.8 1182.8 65.6 1182 64.8 C 1181 63.7 1180.9 61.6 1180.9 59.3 C 1180.9 57 1181 54.9 1182 53.8 C 1182.8 53 1183.7 52.8 1184.8 52.8 C 1185.8 52.8 1186.7 53 1187.5 53.8 Z M 1183.8 55.6 C 1183.5 55.9 1183.4 56.7 1183.4 58.2 C 1183.4 58.2 1186.1 58.2 1186.1 58.2 C 1186.1 56.7 1186 55.9 1185.7 55.6 C 1185.5 55.2 1185.2 55.1 1184.8 55.1 C 1184.3 55.1 1184 55.2 1183.8 55.6 Z M 1201.8 53.8 C 1202.7 54.8 1202.7 56.6 1202.7 59.3 C 1202.7 62 1202.7 63.8 1201.8 64.8 C 1201.3 65.6 1200.6 65.8 1199.6 65.8 C 1199.2 65.8 1198.7 65.7 1198.3 65.5 C 1198.1 65.3 1197.8 65.1 1197.6 64.8 C 1197.6 64.82 1197.6 70.1 1197.6 70.1 L 1195.1 70.1 L 1195.1 53 L 1197.5 53 C 1197.5 53 1197.5 53.93 1197.5 53.9 C 1197.6 53.7 1198.1 53.3 1198.3 53.1 C 1198.7 52.9 1199.2 52.8 1199.6 52.8 C 1200.6 52.8 1201.3 53.1 1201.8 53.8 Z M 1198 55.4 C 1197.7 55.7 1197.6 56 1197.6 56.6 C 1197.6 56.6 1197.6 62 1197.6 62 C 1197.6 62.6 1197.7 63 1198 63.2 C 1198.2 63.4 1198.5 63.6 1198.8 63.6 C 1199.2 63.6 1199.6 63.4 1199.8 63.1 C 1200.1 62.6 1200.2 61.7 1200.2 59.3 C 1200.2 56.9 1200.1 56 1199.8 55.6 C 1199.6 55.2 1199.2 55.1 1198.8 55.1 C 1198.5 55.1 1198.2 55.2 1198 55.4 Z M 1209.8 65.6 C 1209.8 65.6 1209.83 64.68 1209.8 64.7 C 1209.6 65 1209.3 65.3 1209 65.5 C 1208.6 65.7 1208.1 65.8 1207.7 65.8 C 1206.7 65.8 1206 65.5 1205.4 64.8 C 1204.9 64.3 1204.7 63.6 1204.7 62.1 C 1204.67 62.11 1204.7 53 1204.7 53 L 1207.2 53 C 1207.2 53 1207.21 62.09 1207.2 62.1 C 1207.2 63.1 1207.8 63.6 1208.5 63.6 C 1209.2 63.6 1209.7 63.1 1209.7 62.1 C 1209.71 62.09 1209.7 53 1209.7 53 L 1212.3 53 L 1212.3 65.6 L 1209.8 65.6 Z M 1217.1 53.8 C 1217.3 53.5 1217.5 53.3 1217.8 53.1 C 1218.2 52.9 1218.6 52.8 1219.1 52.8 C 1220 52.8 1220.7 53.1 1221.3 53.8 C 1222.1 54.8 1222.2 56.5 1222.2 59.3 C 1222.2 62.1 1222.1 63.8 1221.3 64.8 C 1220.7 65.6 1220 65.8 1219.1 65.8 C 1218.6 65.8 1218.2 65.7 1217.8 65.5 C 1217.5 65.3 1217.1 64.9 1217 64.7 C 1216.96 64.7 1217 65.6 1217 65.6 L 1214.5 65.6 L 1214.5 48.6 L 1217.1 48.6 C 1217.1 48.6 1217.05 53.81 1217.1 53.8 Z M 1217.4 55.4 C 1217.2 55.7 1217.1 56 1217.1 56.6 C 1217.1 56.6 1217.1 62 1217.1 62 C 1217.1 62.6 1217.2 63 1217.4 63.2 C 1217.7 63.4 1217.9 63.6 1218.3 63.6 C 1218.7 63.6 1219 63.4 1219.2 63.1 C 1219.6 62.6 1219.6 61.7 1219.6 59.3 C 1219.6 56.9 1219.6 56 1219.2 55.6 C 1219 55.2 1218.7 55.1 1218.3 55.1 C 1217.9 55.1 1217.7 55.2 1217.4 55.4 Z M 1226.7 61.7 C 1226.7 62.8 1227.2 63.4 1228.4 63.4 C 1228.4 63.4 1228.4 65.6 1228.4 65.6 C 1227.2 65.6 1226.2 65.5 1225.4 64.9 C 1224.6 64.3 1224.1 63.3 1224.1 61.8 C 1224.12 61.8 1224.1 48.6 1224.1 48.6 L 1226.7 48.6 C 1226.7 48.6 1226.67 61.66 1226.7 61.7 Z M 1232.5 65.6 L 1230 65.6 L 1230 53.3 L 1232.5 53.3 L 1232.5 65.6 Z M 1232.7 51.4 L 1229.8 51.4 L 1229.8 48.6 L 1232.7 48.6 L 1232.7 51.4 Z M 1241 53.7 C 1241.8 54.5 1242 55.6 1242.1 56.7 C 1242.1 56.7 1239.6 56.7 1239.6 56.7 C 1239.6 56.3 1239.5 55.8 1239.3 55.5 C 1239.1 55.2 1238.7 55.1 1238.3 55.1 C 1237.9 55.1 1237.6 55.2 1237.3 55.6 C 1237 56.2 1237 57.4 1237 59.3 C 1237 61.2 1237 62.4 1237.3 63 C 1237.6 63.4 1237.9 63.6 1238.3 63.6 C 1238.7 63.6 1239.1 63.4 1239.3 63.1 C 1239.5 62.8 1239.6 62.4 1239.6 61.9 C 1239.6 61.9 1242.1 61.9 1242.1 61.9 C 1242 63.1 1241.7 64.2 1241 64.9 C 1240.4 65.5 1239.5 65.8 1238.3 65.8 C 1237.1 65.8 1236.1 65.5 1235.3 64.5 C 1234.5 63.4 1234.4 61.4 1234.4 59.3 C 1234.4 57.2 1234.5 55.2 1235.3 54.1 C 1236.1 53.1 1237.1 52.8 1238.3 52.8 C 1239.4 52.8 1240.2 53 1241 53.7 Z M 1246.8 65.6 L 1243.9 65.6 L 1243.9 62.7 L 1246.8 62.7 L 1246.8 65.6 Z " stroke="none" fill="#fff"/>  </g>  <g id="Polygon19773">    <path d="M 696.1 15.8 L 693.2 15.8 L 693.2 31.6 L 691.8 31.6 L 691.8 15.8 L 689 15.8 L 689 14.6 L 696.1 14.6 L 696.1 15.8 Z M 699.5 20.4 C 699.6 20.1 700 19.8 700.2 19.7 C 700.6 19.4 701.1 19.2 701.6 19.2 C 702.4 19.2 703 19.5 703.5 20.1 C 704 20.6 704.3 21.2 704.3 22.5 C 704.26 22.47 704.3 31.6 704.3 31.6 L 702.9 31.6 C 702.9 31.6 702.91 22.45 702.9 22.4 C 702.9 21.1 702.2 20.4 701.2 20.4 C 700.3 20.4 699.5 21.1 699.5 22.4 C 699.53 22.45 699.5 31.6 699.5 31.6 L 698.2 31.6 L 698.2 14.6 L 699.5 14.6 C 699.5 14.6 699.53 20.38 699.5 20.4 Z M 711.9 20.1 C 712.7 21 712.9 22.6 712.9 25.7 C 712.9 25.7 707.9 25.7 707.9 25.7 C 707.9 28.2 708 29.5 708.5 30.1 C 708.8 30.4 709.2 30.6 709.7 30.6 C 710.2 30.6 710.7 30.5 711 30.2 C 711.3 29.8 711.5 29.2 711.5 28.4 C 711.5 28.4 712.8 28.4 712.8 28.4 C 712.8 29.6 712.6 30.3 711.9 31 C 711.4 31.6 710.6 31.8 709.7 31.8 C 708.8 31.8 708.1 31.5 707.5 30.9 C 706.7 30.1 706.5 28.4 706.5 25.5 C 706.5 22.6 706.7 21 707.5 20.1 C 708.1 19.5 708.8 19.2 709.7 19.2 C 710.7 19.2 711.4 19.5 711.9 20.1 Z M 708.5 21 C 708 21.5 707.9 22.5 707.9 24.7 C 707.9 24.7 711.5 24.7 711.5 24.7 C 711.5 22.5 711.4 21.5 710.9 21 C 710.7 20.7 710.3 20.4 709.7 20.4 C 709.2 20.4 708.8 20.7 708.5 21 Z M 721.7 30.4 L 726.2 30.4 L 726.2 31.6 L 720.3 31.6 L 720.3 14.6 L 721.7 14.6 L 721.7 30.4 Z M 729.7 31.6 L 728.3 31.6 L 728.3 19.4 L 729.7 19.4 L 729.7 31.6 Z M 729.9 16.6 L 728.1 16.6 L 728.1 14.9 L 729.9 14.9 L 729.9 16.6 Z M 737.6 20.1 C 738.1 20.6 738.4 21.2 738.4 22.5 C 738.38 22.47 738.4 31.6 738.4 31.6 L 737 31.6 C 737 31.6 737.03 22.45 737 22.4 C 737 21.1 736.3 20.4 735.4 20.4 C 734.4 20.4 733.6 21.1 733.6 22.4 C 733.65 22.45 733.6 31.6 733.6 31.6 L 732.3 31.6 L 732.3 19.4 L 733.6 19.4 C 733.6 19.4 733.62 20.41 733.6 20.4 C 733.8 20.1 734.1 19.8 734.3 19.7 C 734.7 19.4 735.2 19.2 735.7 19.2 C 736.6 19.2 737.1 19.5 737.6 20.1 Z M 746 20 C 746.7 20.7 746.8 21.6 746.9 22.7 C 746.9 22.7 745.5 22.7 745.5 22.7 C 745.5 22 745.5 21.4 745.1 20.9 C 744.8 20.6 744.4 20.4 743.9 20.4 C 743.3 20.4 742.9 20.6 742.6 21 C 742.1 21.7 742 22.9 742 25.5 C 742 28.2 742.1 29.4 742.6 30.1 C 742.9 30.4 743.3 30.6 743.9 30.6 C 744.3 30.6 744.7 30.5 745 30.2 C 745.4 29.7 745.5 29.2 745.5 28.4 C 745.5 28.4 746.9 28.4 746.9 28.4 C 746.8 29.6 746.6 30.4 746 31 C 745.5 31.6 744.8 31.8 743.8 31.8 C 742.9 31.8 742.1 31.5 741.6 30.9 C 740.8 30 740.7 28.4 740.7 25.5 C 740.7 22.7 740.8 21.1 741.6 20.2 C 742.1 19.6 742.9 19.2 743.8 19.2 C 744.8 19.2 745.4 19.4 746 20 Z M 754.2 20.2 C 755 21.1 755.1 22.7 755.1 25.5 C 755.1 28.4 755 30 754.2 30.9 C 753.7 31.5 752.9 31.8 752 31.8 C 751 31.8 750.2 31.5 749.7 30.9 C 749 30 748.8 28.4 748.8 25.5 C 748.8 22.7 749 21.1 749.7 20.2 C 750.2 19.6 751 19.2 752 19.2 C 752.9 19.2 753.7 19.6 754.2 20.2 Z M 750.7 21 C 750.2 21.7 750.1 22.9 750.1 25.5 C 750.1 28.2 750.2 29.4 750.7 30.1 C 751 30.4 751.4 30.6 752 30.6 C 752.5 30.6 752.9 30.4 753.2 30.1 C 753.7 29.4 753.8 28.2 753.8 25.5 C 753.8 22.9 753.7 21.7 753.2 21 C 752.9 20.7 752.5 20.4 752 20.4 C 751.4 20.4 751 20.7 750.7 21 Z M 758.7 28.4 C 758.7 29.7 759.4 30.4 760.7 30.4 C 760.7 30.4 760.7 31.6 760.7 31.6 C 759.8 31.6 759 31.5 758.3 30.9 C 757.7 30.3 757.4 29.6 757.4 28.4 C 757.39 28.38 757.4 14.6 757.4 14.6 L 758.7 14.6 C 758.7 14.6 758.74 28.38 758.7 28.4 Z M 768 20.1 C 768.4 20.6 768.7 21.2 768.7 22.5 C 768.71 22.47 768.7 31.6 768.7 31.6 L 767.4 31.6 C 767.4 31.6 767.37 22.45 767.4 22.4 C 767.4 21.1 766.6 20.4 765.7 20.4 C 764.7 20.4 764 21.1 764 22.4 C 763.98 22.45 764 31.6 764 31.6 L 762.6 31.6 L 762.6 19.4 L 764 19.4 C 764 19.4 763.96 20.41 764 20.4 C 764.1 20.1 764.4 19.8 764.7 19.7 C 765.1 19.4 765.5 19.2 766 19.2 C 766.9 19.2 767.5 19.5 768 20.1 Z M 784 31.6 L 782.6 31.6 L 777.8 18.3 L 777.8 31.6 L 776.4 31.6 L 776.4 14.6 L 777.8 14.6 L 782.6 27.9 L 782.6 14.6 L 784 14.6 L 784 31.6 Z M 791.7 20 C 792.2 20.6 792.5 21.3 792.5 22.5 C 792.52 22.54 792.5 31.6 792.5 31.6 L 791.2 31.6 C 791.2 31.6 791.23 30.54 791.2 30.5 C 791.1 30.9 790.8 31.2 790.6 31.4 C 790.2 31.6 789.8 31.8 789.1 31.8 C 788.3 31.8 787.7 31.6 787.1 31 C 786.7 30.5 786.4 29.6 786.4 28.3 C 786.4 27.1 786.7 26.1 787.4 25.5 C 788 24.9 788.7 24.7 789.8 24.7 C 789.79 24.68 791.2 24.7 791.2 24.7 C 791.2 24.7 791.18 22.5 791.2 22.5 C 791.2 21.2 790.6 20.4 789.5 20.4 C 789 20.4 788.7 20.6 788.4 20.9 C 788 21.3 787.8 21.8 787.8 22.6 C 787.8 22.6 786.5 22.6 786.5 22.6 C 786.5 21.7 786.7 20.7 787.4 20 C 787.9 19.5 788.6 19.2 789.5 19.2 C 790.5 19.2 791.2 19.5 791.7 20 Z M 789.8 25.7 C 789.2 25.7 788.8 25.9 788.3 26.3 C 787.9 26.7 787.7 27.4 787.7 28.2 C 787.7 29.7 788.2 30.6 789.4 30.6 C 790.5 30.6 791.2 29.7 791.2 28.4 C 791.18 28.42 791.2 25.7 791.2 25.7 C 791.2 25.7 789.83 25.74 789.8 25.7 Z M 797.1 19.4 L 799.2 19.4 L 799.2 20.5 L 797.1 20.5 C 797.1 20.5 797.1 28.38 797.1 28.4 C 797.1 29.8 797.8 30.4 799.3 30.4 C 799.3 30.4 799.3 31.6 799.3 31.6 C 798.3 31.6 797.4 31.5 796.7 30.9 C 796.1 30.3 795.8 29.5 795.8 28.4 C 795.75 28.38 795.8 20.5 795.8 20.5 L 794.3 20.5 L 794.3 19.4 L 795.8 19.4 L 795.8 15.8 L 797.1 15.8 L 797.1 19.4 Z M 802.6 31.6 L 801.2 31.6 L 801.2 19.4 L 802.6 19.4 L 802.6 31.6 Z M 802.8 16.6 L 801 16.6 L 801 14.9 L 802.8 14.9 L 802.8 16.6 Z M 810.3 20.2 C 811.1 21.1 811.2 22.7 811.2 25.5 C 811.2 28.4 811.1 30 810.3 30.9 C 809.8 31.5 809 31.8 808.1 31.8 C 807.1 31.8 806.3 31.5 805.8 30.9 C 805.1 30 804.9 28.4 804.9 25.5 C 804.9 22.7 805.1 21.1 805.8 20.2 C 806.3 19.6 807.1 19.2 808.1 19.2 C 809 19.2 809.8 19.6 810.3 20.2 Z M 806.8 21 C 806.3 21.7 806.2 22.9 806.2 25.5 C 806.2 28.2 806.3 29.4 806.8 30.1 C 807.1 30.4 807.5 30.6 808.1 30.6 C 808.6 30.6 809 30.4 809.3 30.1 C 809.8 29.4 809.9 28.2 809.9 25.5 C 809.9 22.9 809.8 21.7 809.3 21 C 809 20.7 808.6 20.4 808.1 20.4 C 807.5 20.4 807.1 20.7 806.8 21 Z M 818.9 20.1 C 819.4 20.6 819.6 21.2 819.6 22.5 C 819.63 22.47 819.6 31.6 819.6 31.6 L 818.3 31.6 C 818.3 31.6 818.29 22.45 818.3 22.4 C 818.3 21.1 817.5 20.4 816.6 20.4 C 815.7 20.4 814.9 21.1 814.9 22.4 C 814.91 22.45 814.9 31.6 814.9 31.6 L 813.6 31.6 L 813.6 19.4 L 814.9 19.4 C 814.9 19.4 814.88 20.41 814.9 20.4 C 815 20.1 815.4 19.8 815.6 19.7 C 816 19.4 816.5 19.2 817 19.2 C 817.8 19.2 818.4 19.5 818.9 20.1 Z M 827.1 20 C 827.6 20.6 827.9 21.3 827.9 22.5 C 827.92 22.54 827.9 31.6 827.9 31.6 L 826.6 31.6 C 826.6 31.6 826.63 30.54 826.6 30.5 C 826.5 30.9 826.2 31.2 826 31.4 C 825.6 31.6 825.2 31.8 824.5 31.8 C 823.7 31.8 823.1 31.6 822.5 31 C 822.1 30.5 821.8 29.6 821.8 28.3 C 821.8 27.1 822.1 26.1 822.8 25.5 C 823.4 24.9 824.1 24.7 825.2 24.7 C 825.19 24.68 826.6 24.7 826.6 24.7 C 826.6 24.7 826.58 22.5 826.6 22.5 C 826.6 21.2 826 20.4 824.9 20.4 C 824.4 20.4 824.1 20.6 823.8 20.9 C 823.4 21.3 823.2 21.8 823.2 22.6 C 823.2 22.6 821.9 22.6 821.9 22.6 C 821.9 21.7 822.1 20.7 822.8 20 C 823.3 19.5 824 19.2 824.9 19.2 C 825.9 19.2 826.6 19.5 827.1 20 Z M 825.2 25.7 C 824.6 25.7 824.2 25.9 823.7 26.3 C 823.3 26.7 823.1 27.4 823.1 28.2 C 823.1 29.7 823.6 30.6 824.8 30.6 C 825.9 30.6 826.6 29.7 826.6 28.4 C 826.58 28.42 826.6 25.7 826.6 25.7 C 826.6 25.7 825.23 25.74 825.2 25.7 Z M 831.8 28.4 C 831.8 29.7 832.4 30.4 833.8 30.4 C 833.8 30.4 833.8 31.6 833.8 31.6 C 832.8 31.6 832 31.5 831.3 30.9 C 830.8 30.3 830.4 29.6 830.4 28.4 C 830.43 28.38 830.4 14.6 830.4 14.6 L 831.8 14.6 C 831.8 14.6 831.77 28.38 831.8 28.4 Z M 841.9 30.4 L 846.4 30.4 L 846.4 31.6 L 840.5 31.6 L 840.5 14.6 L 841.9 14.6 L 841.9 30.4 Z M 849.9 31.6 L 848.5 31.6 L 848.5 19.4 L 849.9 19.4 L 849.9 31.6 Z M 850 16.6 L 848.3 16.6 L 848.3 14.9 L 850 14.9 L 850 16.6 Z M 856.7 15.8 C 855.3 15.8 854.6 16.4 854.6 17.8 C 854.58 17.82 854.6 19.4 854.6 19.4 L 856.7 19.4 L 856.7 20.5 L 854.6 20.5 L 854.6 31.6 L 853.2 31.6 L 853.2 20.5 L 851.7 20.5 L 851.7 19.4 L 853.2 19.4 C 853.2 19.4 853.24 17.82 853.2 17.8 C 853.2 16.7 853.6 15.9 854.2 15.3 C 854.8 14.7 855.7 14.6 856.7 14.6 C 856.7 14.6 856.7 15.8 856.7 15.8 Z M 863.5 20.1 C 864.3 21 864.5 22.6 864.5 25.7 C 864.5 25.7 859.5 25.7 859.5 25.7 C 859.5 28.2 859.6 29.5 860.1 30.1 C 860.4 30.4 860.8 30.6 861.3 30.6 C 861.8 30.6 862.3 30.5 862.6 30.2 C 862.9 29.8 863.1 29.2 863.1 28.4 C 863.1 28.4 864.4 28.4 864.4 28.4 C 864.4 29.6 864.2 30.3 863.5 31 C 863 31.6 862.2 31.8 861.3 31.8 C 860.4 31.8 859.7 31.5 859.1 30.9 C 858.3 30.1 858.1 28.4 858.1 25.5 C 858.1 22.6 858.3 21 859.1 20.1 C 859.6 19.5 860.4 19.2 861.3 19.2 C 862.2 19.2 863 19.5 863.5 20.1 Z M 860.1 21 C 859.6 21.5 859.5 22.5 859.5 24.7 C 859.5 24.7 863.1 24.7 863.1 24.7 C 863.1 22.5 863 21.5 862.5 21 C 862.2 20.7 861.9 20.4 861.3 20.4 C 860.8 20.4 860.3 20.7 860.1 21 Z M 873.3 31.6 L 871.9 31.6 L 871.9 14.6 L 873.3 14.6 L 873.3 31.6 Z M 881.4 20.1 C 881.9 20.6 882.1 21.2 882.1 22.5 C 882.14 22.47 882.1 31.6 882.1 31.6 L 880.8 31.6 C 880.8 31.6 880.8 22.45 880.8 22.4 C 880.8 21.1 880.1 20.4 879.1 20.4 C 878.2 20.4 877.4 21.1 877.4 22.4 C 877.41 22.45 877.4 31.6 877.4 31.6 L 876.1 31.6 L 876.1 19.4 L 877.4 19.4 C 877.4 19.4 877.39 20.41 877.4 20.4 C 877.6 20.1 877.9 19.8 878.1 19.7 C 878.5 19.4 879 19.2 879.5 19.2 C 880.3 19.2 880.9 19.5 881.4 20.1 Z M 889.7 20 C 890.3 20.6 890.6 21.5 890.6 22.7 C 890.6 22.7 889.2 22.7 889.2 22.7 C 889.2 21.8 889.1 21.3 888.7 20.9 C 888.3 20.6 887.9 20.4 887.5 20.4 C 887 20.4 886.5 20.6 886.2 20.9 C 885.8 21.2 885.7 21.8 885.7 22.3 C 885.7 22.7 885.8 23.1 885.9 23.4 C 886.1 23.7 886.5 24 887 24.3 C 887 24.3 888.6 25.2 888.6 25.2 C 889.4 25.6 889.9 26 890.2 26.6 C 890.6 27.2 890.7 27.8 890.7 28.5 C 890.7 29.5 890.3 30.3 889.7 30.9 C 889.1 31.5 888.3 31.8 887.4 31.8 C 886.5 31.8 885.7 31.5 885.2 31 C 884.5 30.2 884.2 29.4 884.2 28.3 C 884.2 28.3 885.6 28.3 885.6 28.3 C 885.6 29.1 885.7 29.7 886.2 30.1 C 886.5 30.5 887 30.6 887.4 30.6 C 888 30.6 888.4 30.4 888.8 30.1 C 889.2 29.7 889.4 29.2 889.4 28.6 C 889.4 28.1 889.3 27.6 889 27.2 C 888.8 26.8 888.4 26.5 887.8 26.2 C 887.8 26.2 886.3 25.4 886.3 25.4 C 885.5 24.9 884.9 24.4 884.7 23.9 C 884.4 23.5 884.3 23 884.3 22.4 C 884.3 21.4 884.7 20.6 885.3 20.1 C 885.8 19.5 886.6 19.2 887.5 19.2 C 888.4 19.2 889.1 19.5 889.7 20 Z M 898.8 31.6 L 897.5 31.6 C 897.5 31.6 897.52 30.66 897.5 30.7 C 897.4 30.9 897 31.2 896.8 31.4 C 896.4 31.7 895.9 31.8 895.4 31.8 C 894.6 31.8 894 31.5 893.5 31 C 893 30.5 892.8 29.8 892.8 28.6 C 892.77 28.59 892.8 19.4 892.8 19.4 L 894.1 19.4 C 894.1 19.4 894.11 28.62 894.1 28.6 C 894.1 30 894.9 30.6 895.8 30.6 C 896.7 30.6 897.5 30 897.5 28.6 C 897.5 28.62 897.5 19.4 897.5 19.4 L 898.8 19.4 L 898.8 31.6 Z M 905.5 20.5 C 905.5 20.5 905.2 20.5 905.2 20.5 C 903.8 20.5 902.8 21.4 902.8 22.9 C 902.83 22.88 902.8 31.6 902.8 31.6 L 901.5 31.6 L 901.5 19.4 L 902.8 19.4 C 902.8 19.4 902.8 20.72 902.8 20.7 C 902.9 20.5 903.2 20.1 903.4 20 C 904 19.4 904.7 19.2 905.5 19.2 C 905.49 19.23 905.5 20.5 905.5 20.5 Z M 912.2 20 C 912.8 20.6 913.1 21.3 913.1 22.5 C 913.05 22.54 913.1 31.6 913.1 31.6 L 911.8 31.6 C 911.8 31.6 911.76 30.54 911.8 30.5 C 911.6 30.9 911.3 31.2 911.1 31.4 C 910.7 31.6 910.3 31.8 909.6 31.8 C 908.9 31.8 908.2 31.6 907.7 31 C 907.2 30.5 906.9 29.6 906.9 28.3 C 906.9 27.1 907.2 26.1 907.9 25.5 C 908.5 24.9 909.2 24.7 910.3 24.7 C 910.32 24.68 911.7 24.7 911.7 24.7 C 911.7 24.7 911.71 22.5 911.7 22.5 C 911.7 21.2 911.2 20.4 910 20.4 C 909.6 20.4 909.2 20.6 908.9 20.9 C 908.5 21.3 908.4 21.8 908.4 22.6 C 908.4 22.6 907 22.6 907 22.6 C 907 21.7 907.2 20.7 907.9 20 C 908.4 19.5 909.1 19.2 910 19.2 C 911 19.2 911.7 19.5 912.2 20 Z M 910.4 25.7 C 909.7 25.7 909.3 25.9 908.9 26.3 C 908.5 26.7 908.2 27.4 908.2 28.2 C 908.2 29.7 908.8 30.6 909.9 30.6 C 911 30.6 911.7 29.7 911.7 28.4 C 911.71 28.42 911.7 25.7 911.7 25.7 C 911.7 25.7 910.37 25.74 910.4 25.7 Z M 921 20.1 C 921.4 20.6 921.7 21.2 921.7 22.5 C 921.71 22.47 921.7 31.6 921.7 31.6 L 920.4 31.6 C 920.4 31.6 920.37 22.45 920.4 22.4 C 920.4 21.1 919.6 20.4 918.7 20.4 C 917.8 20.4 917 21.1 917 22.4 C 916.99 22.45 917 31.6 917 31.6 L 915.6 31.6 L 915.6 19.4 L 917 19.4 C 917 19.4 916.96 20.41 917 20.4 C 917.1 20.1 917.4 19.8 917.7 19.7 C 918.1 19.4 918.5 19.2 919 19.2 C 919.9 19.2 920.5 19.5 921 20.1 Z M 929.3 20 C 930.1 20.7 930.2 21.6 930.2 22.7 C 930.2 22.7 928.9 22.7 928.9 22.7 C 928.9 22 928.9 21.4 928.4 20.9 C 928.1 20.6 927.7 20.4 927.2 20.4 C 926.6 20.4 926.2 20.6 926 21 C 925.4 21.7 925.4 22.9 925.4 25.5 C 925.4 28.2 925.4 29.4 926 30.1 C 926.2 30.4 926.6 30.6 927.2 30.6 C 927.7 30.6 928.1 30.5 928.4 30.2 C 928.8 29.7 928.9 29.2 928.9 28.4 C 928.9 28.4 930.2 28.4 930.2 28.4 C 930.2 29.6 930 30.4 929.3 31 C 928.8 31.6 928.1 31.8 927.2 31.8 C 926.2 31.8 925.5 31.5 924.9 30.9 C 924.2 30 924 28.4 924 25.5 C 924 22.7 924.2 21.1 924.9 20.2 C 925.4 19.6 926.2 19.2 927.2 19.2 C 928.1 19.2 928.8 19.4 929.3 20 Z M 937.5 20.1 C 938.3 21 938.5 22.6 938.5 25.7 C 938.5 25.7 933.5 25.7 933.5 25.7 C 933.5 28.2 933.6 29.5 934.1 30.1 C 934.4 30.4 934.8 30.6 935.3 30.6 C 935.8 30.6 936.3 30.5 936.6 30.2 C 936.9 29.8 937.1 29.2 937.1 28.4 C 937.1 28.4 938.4 28.4 938.4 28.4 C 938.4 29.6 938.2 30.3 937.5 31 C 937 31.6 936.2 31.8 935.3 31.8 C 934.4 31.8 933.7 31.5 933.1 30.9 C 932.3 30.1 932.1 28.4 932.1 25.5 C 932.1 22.6 932.3 21 933.1 20.1 C 933.6 19.5 934.4 19.2 935.3 19.2 C 936.2 19.2 937 19.5 937.5 20.1 Z M 934.1 21 C 933.6 21.5 933.5 22.5 933.5 24.7 C 933.5 24.7 937.1 24.7 937.1 24.7 C 937.1 22.5 937 21.5 936.5 21 C 936.2 20.7 935.9 20.4 935.3 20.4 C 934.8 20.4 934.3 20.7 934.1 21 Z M 951.7 15.3 C 952.4 16 952.8 17.1 952.8 18.5 C 952.8 18.5 951.4 18.5 951.4 18.5 C 951.4 17.6 951.2 16.8 950.7 16.2 C 950.3 15.8 949.9 15.6 949.2 15.6 C 948.6 15.6 948.1 15.8 947.7 16.3 C 947 17.1 946.9 18.1 946.9 23.1 C 946.9 28.1 947 29.1 947.7 29.9 C 948.1 30.3 948.6 30.6 949.2 30.6 C 949.9 30.6 950.4 30.3 950.7 30 C 951.2 29.4 951.4 28.6 951.4 27.7 C 951.4 27.7 952.8 27.7 952.8 27.7 C 952.8 29.1 952.4 30.3 951.6 31 C 951 31.6 950.2 31.8 949.2 31.8 C 948.1 31.8 947.3 31.5 946.7 30.8 C 945.7 29.7 945.5 28.5 945.5 23.1 C 945.5 17.7 945.7 16.5 946.7 15.4 C 947.3 14.7 948.1 14.4 949.2 14.4 C 950.4 14.4 951.1 14.7 951.7 15.3 Z M 960.3 20.2 C 961.1 21.1 961.2 22.7 961.2 25.5 C 961.2 28.4 961.1 30 960.3 30.9 C 959.8 31.5 959.1 31.8 958.1 31.8 C 957.1 31.8 956.3 31.5 955.8 30.9 C 955.1 30 954.9 28.4 954.9 25.5 C 954.9 22.7 955.1 21.1 955.8 20.2 C 956.3 19.6 957.1 19.2 958.1 19.2 C 959.1 19.2 959.8 19.6 960.3 20.2 Z M 956.9 21 C 956.3 21.7 956.3 22.9 956.3 25.5 C 956.3 28.2 956.3 29.4 956.9 30.1 C 957.1 30.4 957.5 30.6 958.1 30.6 C 958.6 30.6 959 30.4 959.3 30.1 C 959.8 29.4 959.9 28.2 959.9 25.5 C 959.9 22.9 959.8 21.7 959.3 21 C 959 20.7 958.6 20.4 958.1 20.4 C 957.5 20.4 957.1 20.7 956.9 21 Z M 973.6 20.1 C 974.1 20.6 974.4 21.2 974.4 22.5 C 974.38 22.47 974.4 31.6 974.4 31.6 L 973 31.6 C 973 31.6 973.04 22.45 973 22.4 C 973 21.1 972.3 20.4 971.4 20.4 C 970.4 20.4 969.7 21.1 969.7 22.4 C 969.65 22.45 969.7 31.6 969.7 31.6 L 968.3 31.6 C 968.3 31.6 968.31 22.45 968.3 22.4 C 968.3 21.1 967.6 20.4 966.6 20.4 C 965.7 20.4 964.9 21.1 964.9 22.4 C 964.93 22.45 964.9 31.6 964.9 31.6 L 963.6 31.6 L 963.6 19.4 L 964.9 19.4 C 964.9 19.4 964.9 20.41 964.9 20.4 C 965.1 20.1 965.4 19.8 965.6 19.7 C 966 19.4 966.5 19.2 967 19.2 C 967.9 19.2 968.8 19.8 969.3 20.5 C 969.5 20.2 969.8 19.9 970.1 19.7 C 970.5 19.4 971 19.2 971.6 19.2 C 972.6 19.2 973.1 19.5 973.6 20.1 Z M 982.3 20.1 C 983 21 983.2 22.5 983.2 25.5 C 983.2 28.6 983 30.1 982.3 31 C 981.8 31.5 981.2 31.8 980.4 31.8 C 979.8 31.8 979.4 31.7 979 31.4 C 978.8 31.3 978.5 31 978.3 30.7 C 978.33 30.73 978.3 36.5 978.3 36.5 L 977 36.5 L 977 19.4 L 978.3 19.4 C 978.3 19.4 978.3 20.41 978.3 20.4 C 978.4 20.1 978.8 19.8 979 19.7 C 979.4 19.4 979.8 19.2 980.4 19.2 C 981.1 19.2 981.8 19.5 982.3 20.1 Z M 978.9 20.9 C 978.5 21.2 978.3 21.8 978.3 22.6 C 978.3 22.6 978.3 28.5 978.3 28.5 C 978.3 29.3 978.5 29.8 978.9 30.2 C 979.2 30.5 979.6 30.6 980.1 30.6 C 980.6 30.6 981 30.4 981.2 30.1 C 981.8 29.5 981.9 28.3 981.9 25.5 C 981.9 22.8 981.8 21.6 981.2 21 C 981 20.7 980.6 20.4 980.1 20.4 C 979.6 20.4 979.2 20.6 978.9 20.9 Z M 990.5 20 C 991 20.6 991.3 21.3 991.3 22.5 C 991.32 22.54 991.3 31.6 991.3 31.6 L 990 31.6 C 990 31.6 990.03 30.54 990 30.5 C 989.9 30.9 989.6 31.2 989.4 31.4 C 989 31.6 988.6 31.8 987.9 31.8 C 987.1 31.8 986.5 31.6 985.9 31 C 985.5 30.5 985.2 29.6 985.2 28.3 C 985.2 27.1 985.5 26.1 986.2 25.5 C 986.8 24.9 987.5 24.7 988.6 24.7 C 988.59 24.68 990 24.7 990 24.7 C 990 24.7 989.98 22.5 990 22.5 C 990 21.2 989.4 20.4 988.3 20.4 C 987.8 20.4 987.5 20.6 987.2 20.9 C 986.8 21.3 986.6 21.8 986.6 22.6 C 986.6 22.6 985.3 22.6 985.3 22.6 C 985.3 21.7 985.5 20.7 986.2 20 C 986.7 19.5 987.4 19.2 988.3 19.2 C 989.3 19.2 990 19.5 990.5 20 Z M 988.6 25.7 C 988 25.7 987.6 25.9 987.1 26.3 C 986.7 26.7 986.5 27.4 986.5 28.2 C 986.5 29.7 987 30.6 988.2 30.6 C 989.3 30.6 990 29.7 990 28.4 C 989.98 28.42 990 25.7 990 25.7 C 990 25.7 988.64 25.74 988.6 25.7 Z M 999.2 20.1 C 999.7 20.6 1000 21.2 1000 22.5 C 999.98 22.47 1000 31.6 1000 31.6 L 998.6 31.6 C 998.6 31.6 998.64 22.45 998.6 22.4 C 998.6 21.1 997.9 20.4 997 20.4 C 996 20.4 995.3 21.1 995.3 22.4 C 995.25 22.45 995.3 31.6 995.3 31.6 L 993.9 31.6 L 993.9 19.4 L 995.2 19.4 C 995.2 19.4 995.23 20.41 995.2 20.4 C 995.4 20.1 995.7 19.8 995.9 19.7 C 996.3 19.4 996.8 19.2 997.3 19.2 C 998.2 19.2 998.7 19.5 999.2 20.1 Z M 1001.6 35.3 C 1002.9 35.3 1003.5 34.8 1003.8 33.9 C 1003.75 33.92 1004.4 31.6 1004.4 31.6 L 1001.5 19.4 L 1003 19.4 L 1005.1 29.4 L 1007.2 19.4 L 1008.6 19.4 C 1008.6 19.4 1005.17 34.02 1005.2 34 C 1004.7 35.9 1003.5 36.5 1001.6 36.5 C 1001.6 36.5 1001.6 35.3 1001.6 35.3 Z M 1019.6 20 C 1020.1 20.6 1020.4 21.3 1020.4 22.5 C 1020.43 22.54 1020.4 31.6 1020.4 31.6 L 1019.1 31.6 C 1019.1 31.6 1019.14 30.54 1019.1 30.5 C 1019 30.9 1018.7 31.2 1018.5 31.4 C 1018.1 31.6 1017.7 31.8 1017 31.8 C 1016.2 31.8 1015.6 31.6 1015.1 31 C 1014.6 30.5 1014.3 29.6 1014.3 28.3 C 1014.3 27.1 1014.6 26.1 1015.3 25.5 C 1015.9 24.9 1016.6 24.7 1017.7 24.7 C 1017.7 24.68 1019.1 24.7 1019.1 24.7 C 1019.1 24.7 1019.09 22.5 1019.1 22.5 C 1019.1 21.2 1018.5 20.4 1017.4 20.4 C 1016.9 20.4 1016.6 20.6 1016.3 20.9 C 1015.9 21.3 1015.8 21.8 1015.8 22.6 C 1015.8 22.6 1014.4 22.6 1014.4 22.6 C 1014.4 21.7 1014.6 20.7 1015.3 20 C 1015.8 19.5 1016.5 19.2 1017.4 19.2 C 1018.4 19.2 1019.1 19.5 1019.6 20 Z M 1017.7 25.7 C 1017.1 25.7 1016.7 25.9 1016.3 26.3 C 1015.8 26.7 1015.6 27.4 1015.6 28.2 C 1015.6 29.7 1016.1 30.6 1017.3 30.6 C 1018.4 30.6 1019.1 29.7 1019.1 28.4 C 1019.09 28.42 1019.1 25.7 1019.1 25.7 C 1019.1 25.7 1017.74 25.74 1017.7 25.7 Z M 1028.3 20.1 C 1028.8 20.6 1029.1 21.2 1029.1 22.5 C 1029.09 22.47 1029.1 31.6 1029.1 31.6 L 1027.7 31.6 C 1027.7 31.6 1027.75 22.45 1027.7 22.4 C 1027.7 21.1 1027 20.4 1026.1 20.4 C 1025.1 20.4 1024.4 21.1 1024.4 22.4 C 1024.36 22.45 1024.4 31.6 1024.4 31.6 L 1023 31.6 L 1023 19.4 L 1024.3 19.4 C 1024.3 19.4 1024.34 20.41 1024.3 20.4 C 1024.5 20.1 1024.8 19.8 1025 19.7 C 1025.4 19.4 1025.9 19.2 1026.4 19.2 C 1027.3 19.2 1027.8 19.5 1028.3 20.1 Z M 1037.6 31.6 L 1036.3 31.6 C 1036.3 31.6 1036.3 30.66 1036.3 30.7 C 1036.2 30.9 1035.8 31.2 1035.6 31.4 C 1035.2 31.7 1034.8 31.8 1034.2 31.8 C 1033.5 31.8 1032.8 31.5 1032.3 31 C 1031.6 30.1 1031.4 28.6 1031.4 25.5 C 1031.4 22.5 1031.6 21 1032.3 20.1 C 1032.8 19.5 1033.4 19.2 1034.2 19.2 C 1034.8 19.2 1035.2 19.4 1035.6 19.6 C 1035.8 19.8 1036.1 20.1 1036.3 20.3 C 1036.28 20.34 1036.3 14.6 1036.3 14.6 L 1037.6 14.6 L 1037.6 31.6 Z M 1033.4 21 C 1032.8 21.6 1032.8 22.8 1032.8 25.5 C 1032.8 28.3 1032.8 29.5 1033.4 30.1 C 1033.6 30.4 1034 30.6 1034.6 30.6 C 1035 30.6 1035.4 30.5 1035.7 30.2 C 1036.1 29.8 1036.3 29.2 1036.3 28.5 C 1036.3 28.5 1036.3 22.6 1036.3 22.6 C 1036.3 21.8 1036.1 21.2 1035.7 20.9 C 1035.4 20.6 1035 20.4 1034.6 20.4 C 1034 20.4 1033.6 20.6 1033.4 21 Z M 1046.8 30.4 L 1051.4 30.4 L 1051.4 31.6 L 1045.4 31.6 L 1045.4 14.6 L 1046.8 14.6 L 1046.8 30.4 Z M 1054.8 31.6 L 1053.5 31.6 L 1053.5 19.4 L 1054.8 19.4 L 1054.8 31.6 Z M 1055 16.6 L 1053.3 16.6 L 1053.3 14.9 L 1055 14.9 L 1055 16.6 Z M 1062.8 20.1 C 1063.3 20.6 1063.5 21.2 1063.5 22.5 C 1063.52 22.47 1063.5 31.6 1063.5 31.6 L 1062.2 31.6 C 1062.2 31.6 1062.18 22.45 1062.2 22.4 C 1062.2 21.1 1061.4 20.4 1060.5 20.4 C 1059.6 20.4 1058.8 21.1 1058.8 22.4 C 1058.8 22.45 1058.8 31.6 1058.8 31.6 L 1057.5 31.6 L 1057.5 19.4 L 1058.8 19.4 C 1058.8 19.4 1058.77 20.41 1058.8 20.4 C 1058.9 20.1 1059.3 19.8 1059.5 19.7 C 1059.9 19.4 1060.4 19.2 1060.9 19.2 C 1061.7 19.2 1062.3 19.5 1062.8 20.1 Z M 1071.1 20 C 1071.9 20.7 1072 21.6 1072 22.7 C 1072 22.7 1070.7 22.7 1070.7 22.7 C 1070.7 22 1070.7 21.4 1070.2 20.9 C 1069.9 20.6 1069.5 20.4 1069 20.4 C 1068.5 20.4 1068 20.6 1067.8 21 C 1067.2 21.7 1067.2 22.9 1067.2 25.5 C 1067.2 28.2 1067.2 29.4 1067.8 30.1 C 1068 30.4 1068.5 30.6 1069 30.6 C 1069.5 30.6 1069.9 30.5 1070.2 30.2 C 1070.6 29.7 1070.7 29.2 1070.7 28.4 C 1070.7 28.4 1072 28.4 1072 28.4 C 1072 29.6 1071.8 30.4 1071.1 31 C 1070.6 31.6 1069.9 31.8 1069 31.8 C 1068 31.8 1067.3 31.5 1066.7 30.9 C 1066 30 1065.8 28.4 1065.8 25.5 C 1065.8 22.7 1066 21.1 1066.7 20.2 C 1067.3 19.6 1068 19.2 1069 19.2 C 1069.9 19.2 1070.6 19.4 1071.1 20 Z M 1079.4 20.2 C 1080.1 21.1 1080.3 22.7 1080.3 25.5 C 1080.3 28.4 1080.1 30 1079.4 30.9 C 1078.8 31.5 1078.1 31.8 1077.1 31.8 C 1076.1 31.8 1075.4 31.5 1074.9 30.9 C 1074.1 30 1073.9 28.4 1073.9 25.5 C 1073.9 22.7 1074.1 21.1 1074.9 20.2 C 1075.4 19.6 1076.1 19.2 1077.1 19.2 C 1078.1 19.2 1078.8 19.6 1079.4 20.2 Z M 1075.9 21 C 1075.3 21.7 1075.3 22.9 1075.3 25.5 C 1075.3 28.2 1075.3 29.4 1075.9 30.1 C 1076.2 30.4 1076.6 30.6 1077.1 30.6 C 1077.7 30.6 1078 30.4 1078.3 30.1 C 1078.9 29.4 1078.9 28.2 1078.9 25.5 C 1078.9 22.9 1078.9 21.7 1078.3 21 C 1078 20.7 1077.7 20.4 1077.1 20.4 C 1076.6 20.4 1076.2 20.7 1075.9 21 Z M 1083.9 28.4 C 1083.9 29.7 1084.5 30.4 1085.9 30.4 C 1085.9 30.4 1085.9 31.6 1085.9 31.6 C 1084.9 31.6 1084.1 31.5 1083.4 30.9 C 1082.9 30.3 1082.5 29.6 1082.5 28.4 C 1082.54 28.38 1082.5 14.6 1082.5 14.6 L 1083.9 14.6 C 1083.9 14.6 1083.88 28.38 1083.9 28.4 Z M 1093.1 20.1 C 1093.6 20.6 1093.9 21.2 1093.9 22.5 C 1093.86 22.47 1093.9 31.6 1093.9 31.6 L 1092.5 31.6 C 1092.5 31.6 1092.51 22.45 1092.5 22.4 C 1092.5 21.1 1091.8 20.4 1090.8 20.4 C 1089.9 20.4 1089.1 21.1 1089.1 22.4 C 1089.13 22.45 1089.1 31.6 1089.1 31.6 L 1087.8 31.6 L 1087.8 19.4 L 1089.1 19.4 C 1089.1 19.4 1089.1 20.41 1089.1 20.4 C 1089.3 20.1 1089.6 19.8 1089.8 19.7 C 1090.2 19.4 1090.7 19.2 1091.2 19.2 C 1092 19.2 1092.6 19.5 1093.1 20.1 Z M 1103 30.4 L 1107.5 30.4 L 1107.5 31.6 L 1101.6 31.6 L 1101.6 14.6 L 1103 14.6 L 1103 30.4 Z M 1111 31.6 L 1109.6 31.6 L 1109.6 19.4 L 1111 19.4 L 1111 31.6 Z M 1111.1 16.6 L 1109.4 16.6 L 1109.4 14.9 L 1111.1 14.9 L 1111.1 16.6 Z M 1117.8 15.8 C 1116.4 15.8 1115.7 16.4 1115.7 17.8 C 1115.68 17.82 1115.7 19.4 1115.7 19.4 L 1117.8 19.4 L 1117.8 20.5 L 1115.7 20.5 L 1115.7 31.6 L 1114.3 31.6 L 1114.3 20.5 L 1112.9 20.5 L 1112.9 19.4 L 1114.3 19.4 C 1114.3 19.4 1114.34 17.82 1114.3 17.8 C 1114.3 16.7 1114.7 15.9 1115.3 15.3 C 1115.9 14.7 1116.8 14.6 1117.8 14.6 C 1117.8 14.6 1117.8 15.8 1117.8 15.8 Z M 1124.6 20.1 C 1125.4 21 1125.6 22.6 1125.6 25.7 C 1125.6 25.7 1120.6 25.7 1120.6 25.7 C 1120.6 28.2 1120.7 29.5 1121.2 30.1 C 1121.5 30.4 1121.9 30.6 1122.4 30.6 C 1122.9 30.6 1123.4 30.5 1123.7 30.2 C 1124 29.8 1124.2 29.2 1124.2 28.4 C 1124.2 28.4 1125.5 28.4 1125.5 28.4 C 1125.5 29.6 1125.3 30.3 1124.6 31 C 1124.1 31.6 1123.3 31.8 1122.4 31.8 C 1121.5 31.8 1120.8 31.5 1120.2 30.9 C 1119.4 30.1 1119.2 28.4 1119.2 25.5 C 1119.2 22.6 1119.4 21 1120.2 20.1 C 1120.7 19.5 1121.5 19.2 1122.4 19.2 C 1123.3 19.2 1124.1 19.5 1124.6 20.1 Z M 1121.2 21 C 1120.7 21.5 1120.6 22.5 1120.6 24.7 C 1120.6 24.7 1124.2 24.7 1124.2 24.7 C 1124.2 22.5 1124.1 21.5 1123.6 21 C 1123.3 20.7 1123 20.4 1122.4 20.4 C 1121.9 20.4 1121.4 20.7 1121.2 21 Z M 1139.4 17.6 C 1139.4 19.6 1138.7 20.7 1136.8 22.5 C 1136.8 22.5 1140 27.3 1140 27.3 C 1140.6 26.3 1141 24.6 1141.1 23.2 C 1141.1 23.2 1142.4 23.2 1142.4 23.2 C 1142.3 25.2 1141.7 27.1 1140.8 28.5 C 1140.76 28.47 1142.9 31.6 1142.9 31.6 L 1141.3 31.6 C 1141.3 31.6 1140 29.62 1140 29.6 C 1138.9 30.9 1137.9 31.8 1136 31.8 C 1133.9 31.8 1132.2 30.3 1132.2 27.7 C 1132.2 25.6 1133.2 24.2 1135.2 22.3 C 1133.6 20 1133 19.2 1133 17.8 C 1133 16 1134.1 14.4 1136.2 14.4 C 1138.3 14.4 1139.4 15.8 1139.4 17.6 Z M 1135.9 23.4 C 1134.3 24.9 1133.6 26.1 1133.6 27.6 C 1133.6 29.2 1134.5 30.6 1136.2 30.6 C 1137.4 30.6 1138.3 29.7 1139.3 28.5 C 1139.3 28.5 1135.9 23.4 1135.9 23.4 Z M 1134.4 17.8 C 1134.4 18.8 1134.7 19.4 1136.1 21.4 C 1137.4 20.2 1138.1 19.3 1138.1 17.7 C 1138.1 16.5 1137.4 15.6 1136.3 15.6 C 1134.9 15.6 1134.4 16.8 1134.4 17.8 Z M 1153.1 14.6 L 1156.9 31.6 L 1155.4 31.6 L 1154.5 27 L 1150.5 27 L 1149.5 31.6 L 1148 31.6 L 1151.8 14.6 L 1153.1 14.6 Z M 1152.5 17.1 L 1150.7 25.7 L 1154.2 25.7 L 1152.5 17.1 Z M 1164.1 20.1 C 1164.6 20.6 1164.9 21.2 1164.9 22.5 C 1164.87 22.47 1164.9 31.6 1164.9 31.6 L 1163.5 31.6 C 1163.5 31.6 1163.53 22.45 1163.5 22.4 C 1163.5 21.1 1162.8 20.4 1161.9 20.4 C 1160.9 20.4 1160.1 21.1 1160.1 22.4 C 1160.15 22.45 1160.1 31.6 1160.1 31.6 L 1158.8 31.6 L 1158.8 19.4 L 1160.1 19.4 C 1160.1 19.4 1160.12 20.41 1160.1 20.4 C 1160.3 20.1 1160.6 19.8 1160.8 19.7 C 1161.2 19.4 1161.7 19.2 1162.2 19.2 C 1163 19.2 1163.6 19.5 1164.1 20.1 Z M 1172.8 20.1 C 1173.3 20.6 1173.5 21.2 1173.5 22.5 C 1173.53 22.47 1173.5 31.6 1173.5 31.6 L 1172.2 31.6 C 1172.2 31.6 1172.19 22.45 1172.2 22.4 C 1172.2 21.1 1171.4 20.4 1170.5 20.4 C 1169.6 20.4 1168.8 21.1 1168.8 22.4 C 1168.8 22.45 1168.8 31.6 1168.8 31.6 L 1167.5 31.6 L 1167.5 19.4 L 1168.8 19.4 C 1168.8 19.4 1168.78 20.41 1168.8 20.4 C 1168.9 20.1 1169.3 19.8 1169.5 19.7 C 1169.9 19.4 1170.4 19.2 1170.9 19.2 C 1171.7 19.2 1172.3 19.5 1172.8 20.1 Z M 1182.1 31.6 L 1180.8 31.6 C 1180.8 31.6 1180.81 30.66 1180.8 30.7 C 1180.6 30.9 1180.3 31.2 1180.1 31.4 C 1179.7 31.7 1179.2 31.8 1178.7 31.8 C 1177.9 31.8 1177.3 31.5 1176.8 31 C 1176.3 30.5 1176.1 29.8 1176.1 28.6 C 1176.06 28.59 1176.1 19.4 1176.1 19.4 L 1177.4 19.4 C 1177.4 19.4 1177.4 28.62 1177.4 28.6 C 1177.4 30 1178.1 30.6 1179.1 30.6 C 1180 30.6 1180.8 30 1180.8 28.6 C 1180.79 28.62 1180.8 19.4 1180.8 19.4 L 1182.1 19.4 L 1182.1 31.6 Z M 1186.1 31.6 L 1184.8 31.6 L 1184.8 19.4 L 1186.1 19.4 L 1186.1 31.6 Z M 1186.3 16.6 L 1184.6 16.6 L 1184.6 14.9 L 1186.3 14.9 L 1186.3 16.6 Z M 1190.9 19.4 L 1193 19.4 L 1193 20.5 L 1190.9 20.5 C 1190.9 20.5 1190.86 28.38 1190.9 28.4 C 1190.9 29.8 1191.6 30.4 1193 30.4 C 1193 30.4 1193 31.6 1193 31.6 C 1192.1 31.6 1191.2 31.5 1190.4 30.9 C 1189.8 30.3 1189.5 29.5 1189.5 28.4 C 1189.52 28.38 1189.5 20.5 1189.5 20.5 L 1188 20.5 L 1188 19.4 L 1189.5 19.4 L 1189.5 15.8 L 1190.9 15.8 L 1190.9 19.4 Z M 1194.4 35.3 C 1195.7 35.3 1196.3 34.8 1196.5 33.9 C 1196.53 33.92 1197.2 31.6 1197.2 31.6 L 1194.3 19.4 L 1195.7 19.4 L 1197.8 29.4 L 1199.9 19.4 L 1201.4 19.4 C 1201.4 19.4 1197.94 34.02 1197.9 34 C 1197.5 35.9 1196.2 36.5 1194.4 36.5 C 1194.4 36.5 1194.4 35.3 1194.4 35.3 Z M 1213.6 15.3 C 1214.4 16 1214.7 17.1 1214.7 18.5 C 1214.7 18.5 1213.3 18.5 1213.3 18.5 C 1213.3 17.6 1213.2 16.8 1212.7 16.2 C 1212.3 15.8 1211.9 15.6 1211.2 15.6 C 1210.5 15.6 1210 15.8 1209.7 16.3 C 1209 17.1 1208.9 18.1 1208.9 23.1 C 1208.9 28.1 1209 29.1 1209.7 29.9 C 1210 30.3 1210.5 30.6 1211.2 30.6 C 1211.9 30.6 1212.3 30.3 1212.7 30 C 1213.2 29.4 1213.3 28.6 1213.3 27.7 C 1213.3 27.7 1214.7 27.7 1214.7 27.7 C 1214.7 29.1 1214.3 30.3 1213.5 31 C 1212.9 31.6 1212.2 31.8 1211.2 31.8 C 1210.1 31.8 1209.2 31.5 1208.6 30.8 C 1207.6 29.7 1207.4 28.5 1207.4 23.1 C 1207.4 17.7 1207.6 16.5 1208.6 15.4 C 1209.2 14.7 1210.1 14.4 1211.2 14.4 C 1212.3 14.4 1213.1 14.7 1213.6 15.3 Z M 1222.3 20.2 C 1223 21.1 1223.2 22.7 1223.2 25.5 C 1223.2 28.4 1223 30 1222.3 30.9 C 1221.7 31.5 1221 31.8 1220 31.8 C 1219 31.8 1218.3 31.5 1217.8 30.9 C 1217 30 1216.9 28.4 1216.9 25.5 C 1216.9 22.7 1217 21.1 1217.8 20.2 C 1218.3 19.6 1219 19.2 1220 19.2 C 1221 19.2 1221.7 19.6 1222.3 20.2 Z M 1218.8 21 C 1218.2 21.7 1218.2 22.9 1218.2 25.5 C 1218.2 28.2 1218.2 29.4 1218.8 30.1 C 1219.1 30.4 1219.5 30.6 1220 30.6 C 1220.6 30.6 1221 30.4 1221.2 30.1 C 1221.8 29.4 1221.8 28.2 1221.8 25.5 C 1221.8 22.9 1221.8 21.7 1221.2 21 C 1221 20.7 1220.6 20.4 1220 20.4 C 1219.5 20.4 1219.1 20.7 1218.8 21 Z M 1235.6 20.1 C 1236.1 20.6 1236.3 21.2 1236.3 22.5 C 1236.33 22.47 1236.3 31.6 1236.3 31.6 L 1235 31.6 C 1235 31.6 1234.99 22.45 1235 22.4 C 1235 21.1 1234.2 20.4 1233.3 20.4 C 1232.4 20.4 1231.6 21.1 1231.6 22.4 C 1231.6 22.45 1231.6 31.6 1231.6 31.6 L 1230.3 31.6 C 1230.3 31.6 1230.26 22.45 1230.3 22.4 C 1230.3 21.1 1229.5 20.4 1228.6 20.4 C 1227.6 20.4 1226.9 21.1 1226.9 22.4 C 1226.87 22.45 1226.9 31.6 1226.9 31.6 L 1225.5 31.6 L 1225.5 19.4 L 1226.8 19.4 C 1226.8 19.4 1226.85 20.41 1226.8 20.4 C 1227 20.1 1227.3 19.8 1227.5 19.7 C 1228 19.4 1228.4 19.2 1228.9 19.2 C 1229.9 19.2 1230.7 19.8 1231.2 20.5 C 1231.4 20.2 1231.7 19.9 1232.1 19.7 C 1232.5 19.4 1233 19.2 1233.5 19.2 C 1234.6 19.2 1235.1 19.5 1235.6 20.1 Z M 1244.2 20.1 C 1245 21 1245.1 22.5 1245.1 25.5 C 1245.1 28.6 1245 30.1 1244.2 31 C 1243.7 31.5 1243.2 31.8 1242.3 31.8 C 1241.8 31.8 1241.3 31.7 1240.9 31.4 C 1240.7 31.3 1240.4 31 1240.3 30.7 C 1240.27 30.73 1240.3 36.5 1240.3 36.5 L 1238.9 36.5 L 1238.9 19.4 L 1240.2 19.4 C 1240.2 19.4 1240.25 20.41 1240.2 20.4 C 1240.4 20.1 1240.7 19.8 1240.9 19.7 C 1241.3 19.4 1241.8 19.2 1242.3 19.2 C 1243.1 19.2 1243.7 19.5 1244.2 20.1 Z M 1240.8 20.9 C 1240.5 21.2 1240.3 21.8 1240.3 22.6 C 1240.3 22.6 1240.3 28.5 1240.3 28.5 C 1240.3 29.3 1240.5 29.8 1240.8 30.2 C 1241.2 30.5 1241.5 30.6 1242 30.6 C 1242.5 30.6 1242.9 30.4 1243.2 30.1 C 1243.8 29.5 1243.8 28.3 1243.8 25.5 C 1243.8 22.8 1243.7 21.6 1243.2 21 C 1242.9 20.7 1242.5 20.4 1242 20.4 C 1241.5 20.4 1241.2 20.6 1240.8 20.9 Z M 1252.4 20 C 1253 20.6 1253.3 21.3 1253.3 22.5 C 1253.27 22.54 1253.3 31.6 1253.3 31.6 L 1252 31.6 C 1252 31.6 1251.97 30.54 1252 30.5 C 1251.8 30.9 1251.5 31.2 1251.3 31.4 C 1250.9 31.6 1250.5 31.8 1249.8 31.8 C 1249.1 31.8 1248.4 31.6 1247.9 31 C 1247.4 30.5 1247.1 29.6 1247.1 28.3 C 1247.1 27.1 1247.4 26.1 1248.1 25.5 C 1248.7 24.9 1249.4 24.7 1250.5 24.7 C 1250.53 24.68 1251.9 24.7 1251.9 24.7 C 1251.9 24.7 1251.93 22.5 1251.9 22.5 C 1251.9 21.2 1251.4 20.4 1250.2 20.4 C 1249.8 20.4 1249.4 20.6 1249.1 20.9 C 1248.8 21.3 1248.6 21.8 1248.6 22.6 C 1248.6 22.6 1247.2 22.6 1247.2 22.6 C 1247.2 21.7 1247.4 20.7 1248.1 20 C 1248.6 19.5 1249.4 19.2 1250.2 19.2 C 1251.2 19.2 1252 19.5 1252.4 20 Z M 1250.6 25.7 C 1250 25.7 1249.5 25.9 1249.1 26.3 C 1248.7 26.7 1248.4 27.4 1248.4 28.2 C 1248.4 29.7 1249 30.6 1250.2 30.6 C 1251.2 30.6 1251.9 29.7 1251.9 28.4 C 1251.93 28.42 1251.9 25.7 1251.9 25.7 C 1251.9 25.7 1250.58 25.74 1250.6 25.7 Z M 1261.2 20.1 C 1261.7 20.6 1261.9 21.2 1261.9 22.5 C 1261.93 22.47 1261.9 31.6 1261.9 31.6 L 1260.6 31.6 C 1260.6 31.6 1260.59 22.45 1260.6 22.4 C 1260.6 21.1 1259.8 20.4 1258.9 20.4 C 1258 20.4 1257.2 21.1 1257.2 22.4 C 1257.2 22.45 1257.2 31.6 1257.2 31.6 L 1255.9 31.6 L 1255.9 19.4 L 1257.2 19.4 C 1257.2 19.4 1257.18 20.41 1257.2 20.4 C 1257.3 20.1 1257.7 19.8 1257.9 19.7 C 1258.3 19.4 1258.8 19.2 1259.3 19.2 C 1260.1 19.2 1260.7 19.5 1261.2 20.1 Z M 1263.6 35.3 C 1264.9 35.3 1265.5 34.8 1265.7 33.9 C 1265.7 33.92 1266.3 31.6 1266.3 31.6 L 1263.4 19.4 L 1264.9 19.4 L 1267 29.4 L 1269.1 19.4 L 1270.6 19.4 C 1270.6 19.4 1267.12 34.02 1267.1 34 C 1266.7 35.9 1265.4 36.5 1263.6 36.5 C 1263.6 36.5 1263.6 35.3 1263.6 35.3 Z M 1281.8 20.2 C 1282.6 21.1 1282.7 22.7 1282.7 25.5 C 1282.7 28.4 1282.6 30 1281.8 30.9 C 1281.3 31.5 1280.6 31.8 1279.6 31.8 C 1278.6 31.8 1277.8 31.5 1277.3 30.9 C 1276.6 30 1276.4 28.4 1276.4 25.5 C 1276.4 22.7 1276.6 21.1 1277.3 20.2 C 1277.8 19.6 1278.6 19.2 1279.6 19.2 C 1280.6 19.2 1281.3 19.6 1281.8 20.2 Z M 1278.3 21 C 1277.8 21.7 1277.7 22.9 1277.7 25.5 C 1277.7 28.2 1277.8 29.4 1278.3 30.1 C 1278.6 30.4 1279 30.6 1279.6 30.6 C 1280.1 30.6 1280.5 30.4 1280.8 30.1 C 1281.3 29.4 1281.4 28.2 1281.4 25.5 C 1281.4 22.9 1281.3 21.7 1280.8 21 C 1280.5 20.7 1280.1 20.4 1279.6 20.4 C 1279 20.4 1278.6 20.7 1278.3 21 Z M 1289.1 15.8 C 1287.8 15.8 1287 16.4 1287 17.8 C 1287.04 17.82 1287 19.4 1287 19.4 L 1289.1 19.4 L 1289.1 20.5 L 1287 20.5 L 1287 31.6 L 1285.7 31.6 L 1285.7 20.5 L 1284.2 20.5 L 1284.2 19.4 L 1285.7 19.4 C 1285.7 19.4 1285.69 17.82 1285.7 17.8 C 1285.7 16.7 1286 15.9 1286.6 15.3 C 1287.3 14.7 1288.2 14.6 1289.1 14.6 C 1289.1 14.6 1289.1 15.8 1289.1 15.8 Z M 1303.4 31.6 L 1302 31.6 L 1297.2 18.3 L 1297.2 31.6 L 1295.8 31.6 L 1295.8 14.6 L 1297.2 14.6 L 1302 27.9 L 1302 14.6 L 1303.4 14.6 L 1303.4 31.6 Z M 1311.3 20.1 C 1312.1 21 1312.3 22.6 1312.3 25.7 C 1312.3 25.7 1307.3 25.7 1307.3 25.7 C 1307.3 28.2 1307.4 29.5 1307.9 30.1 C 1308.2 30.4 1308.6 30.6 1309.1 30.6 C 1309.6 30.6 1310.1 30.5 1310.4 30.2 C 1310.7 29.8 1310.9 29.2 1310.9 28.4 C 1310.9 28.4 1312.2 28.4 1312.2 28.4 C 1312.2 29.6 1312 30.3 1311.3 31 C 1310.8 31.6 1310 31.8 1309.1 31.8 C 1308.2 31.8 1307.5 31.5 1306.9 30.9 C 1306.1 30.1 1305.9 28.4 1305.9 25.5 C 1305.9 22.6 1306.1 21 1306.9 20.1 C 1307.5 19.5 1308.2 19.2 1309.1 19.2 C 1310 19.2 1310.8 19.5 1311.3 20.1 Z M 1307.9 21 C 1307.4 21.5 1307.3 22.5 1307.3 24.7 C 1307.3 24.7 1310.9 24.7 1310.9 24.7 C 1310.9 22.5 1310.8 21.5 1310.3 21 C 1310 20.7 1309.7 20.4 1309.1 20.4 C 1308.6 20.4 1308.1 20.7 1307.9 21 Z M 1315 19.4 L 1316.6 29.3 L 1318.4 19.4 L 1319.7 19.4 L 1321.7 29.3 L 1323.3 19.4 L 1324.7 19.4 L 1322.4 31.6 L 1321 31.6 L 1319.1 21.8 L 1317.2 31.6 L 1315.9 31.6 L 1313.6 19.4 L 1315 19.4 Z M 1334 24.5 L 1334 31.6 L 1332.6 31.6 L 1332.6 24.5 L 1329.6 14.6 L 1331.1 14.6 L 1333.3 22.4 L 1335.4 14.6 L 1337 14.6 L 1334 24.5 Z M 1342.9 20.2 C 1343.7 21.1 1343.8 22.7 1343.8 25.5 C 1343.8 28.4 1343.7 30 1342.9 30.9 C 1342.4 31.5 1341.6 31.8 1340.7 31.8 C 1339.7 31.8 1338.9 31.5 1338.4 30.9 C 1337.7 30 1337.5 28.4 1337.5 25.5 C 1337.5 22.7 1337.7 21.1 1338.4 20.2 C 1338.9 19.6 1339.7 19.2 1340.7 19.2 C 1341.6 19.2 1342.4 19.6 1342.9 20.2 Z M 1339.4 21 C 1338.9 21.7 1338.8 22.9 1338.8 25.5 C 1338.8 28.2 1338.9 29.4 1339.4 30.1 C 1339.7 30.4 1340.1 30.6 1340.7 30.6 C 1341.2 30.6 1341.6 30.4 1341.9 30.1 C 1342.4 29.4 1342.5 28.2 1342.5 25.5 C 1342.5 22.9 1342.4 21.7 1341.9 21 C 1341.6 20.7 1341.2 20.4 1340.7 20.4 C 1340.1 20.4 1339.7 20.7 1339.4 21 Z M 1350.2 20.5 C 1350.2 20.5 1349.89 20.5 1349.9 20.5 C 1348.4 20.5 1347.5 21.4 1347.5 22.9 C 1347.51 22.88 1347.5 31.6 1347.5 31.6 L 1346.2 31.6 L 1346.2 19.4 L 1347.5 19.4 C 1347.5 19.4 1347.49 20.72 1347.5 20.7 C 1347.6 20.5 1347.9 20.1 1348.1 20 C 1348.6 19.4 1349.3 19.2 1350.2 19.2 C 1350.17 19.23 1350.2 20.5 1350.2 20.5 Z M 1353.4 25.8 L 1357.3 19.4 L 1358.8 19.4 L 1355.9 24.1 L 1359.2 31.6 L 1357.7 31.6 L 1355 25.3 L 1353.4 27.8 L 1353.4 31.6 L 1352.1 31.6 L 1352.1 14.6 L 1353.4 14.6 L 1353.4 25.8 Z " stroke="none" fill="#fff"/>  </g></svg>