<?xml version="1.0" standalone="no"?><!DOCTYPE svg PUBLIC "-//W3C//DTD SVG 1.1//EN" "http://www.w3.org/Graphics/SVG/1.1/DTD/svg11.dtd"><svg xmlns="http://www.w3.org/2000/svg" version="1.1" width="204px" height="127.079772949219px" viewBox="0 0 204 127.079772949219">  <desc>Step 3 Hold the meeting</desc>  <defs/>  <g id="Polygon21214">    <path d="M 22.1 81.7 C 23.1 82.6 23.6 84 23.6 85.7 C 23.64 85.68 23.6 94.9 23.6 94.9 L 22.1 94.9 C 22.1 94.9 22.11 85.95 22.1 85.9 C 22.1 83.2 20.7 81.6 18.1 81.6 C 15.6 81.6 14 83.2 14 85.7 C 14.04 85.68 14 94.9 14 94.9 L 12.5 94.9 C 12.5 94.9 12.51 85.95 12.5 85.9 C 12.5 83.2 11.1 81.6 8.5 81.6 C 5.9 81.6 4.4 83.2 4.4 85.9 C 4.44 85.95 4.4 94.9 4.4 94.9 L 2.9 94.9 L 2.9 80.5 L 4.4 80.5 C 4.4 80.5 4.44 82.17 4.4 82.2 C 5.5 80.9 7 80.3 8.7 80.3 C 10.9 80.3 12.5 81.2 13.4 82.9 C 14.5 81.2 16.1 80.3 18.3 80.3 C 19.9 80.3 21.2 80.8 22.1 81.7 Z M 40 87.3 C 40.02 87.33 40 88 40 88 C 40 88 29.97 88.02 30 88 C 30 91.7 31.6 93.7 34.7 93.7 C 36.4 93.7 37.4 93.2 38.7 92 C 38.7 92 39.8 92.9 39.8 92.9 C 38.3 94.3 37 95.1 34.6 95.1 C 30.6 95.1 28.4 92.5 28.4 87.7 C 28.4 83 30.6 80.3 34.2 80.3 C 37.9 80.3 40 82.9 40 87.3 Z M 30.5 84.1 C 30.1 84.9 30.1 85.4 30 86.8 C 30 86.8 38.5 86.8 38.5 86.8 C 38.4 85.4 38.4 84.9 38 84.1 C 37.3 82.5 35.9 81.6 34.2 81.6 C 32.5 81.6 31.2 82.6 30.5 84.1 Z M 55.7 87.3 C 55.74 87.33 55.7 88 55.7 88 C 55.7 88 45.69 88.02 45.7 88 C 45.7 91.7 47.3 93.7 50.4 93.7 C 52.1 93.7 53.2 93.2 54.4 92 C 54.4 92 55.5 92.9 55.5 92.9 C 54.1 94.3 52.7 95.1 50.3 95.1 C 46.3 95.1 44.2 92.5 44.2 87.7 C 44.2 83 46.3 80.3 49.9 80.3 C 53.6 80.3 55.7 82.9 55.7 87.3 Z M 46.2 84.1 C 45.8 84.9 45.8 85.4 45.7 86.8 C 45.7 86.8 54.2 86.8 54.2 86.8 C 54.1 85.4 54.1 84.9 53.7 84.1 C 53.1 82.5 51.6 81.6 49.9 81.6 C 48.3 81.6 46.9 82.6 46.2 84.1 Z M 62.6 80.5 L 65.9 80.5 L 65.9 81.6 L 62.6 81.6 C 62.6 81.6 62.61 91.17 62.6 91.2 C 62.6 92.7 63.3 93.6 64.8 93.6 C 64.83 93.57 65.9 93.6 65.9 93.6 L 65.9 94.9 C 65.9 94.9 64.56 94.92 64.6 94.9 C 62.3 94.9 61.1 93.3 61.1 91.1 C 61.08 91.14 61.1 81.6 61.1 81.6 L 59.1 81.6 L 59.1 80.5 L 61.1 80.5 L 61.1 75.8 L 62.6 75.8 L 62.6 80.5 Z M 72 94.9 L 70.5 94.9 L 70.5 80.5 L 72 80.5 L 72 94.9 Z M 72.2 75.4 L 70.3 75.4 L 70.3 73.6 L 72.2 73.6 L 72.2 75.4 Z M 87.4 81.7 C 88.4 82.6 88.9 84 88.9 85.7 C 88.95 85.68 88.9 94.9 88.9 94.9 L 87.4 94.9 C 87.4 94.9 87.42 85.95 87.4 85.9 C 87.4 83.2 86 81.6 83.4 81.6 C 80.8 81.6 79.3 83.2 79.3 85.9 C 79.35 85.95 79.3 94.9 79.3 94.9 L 77.8 94.9 L 77.8 80.5 L 79.3 80.5 C 79.3 80.5 79.35 82.17 79.3 82.2 C 80.4 80.9 81.8 80.3 83.6 80.3 C 85.2 80.3 86.5 80.7 87.4 81.7 Z M 103.4 82.3 C 103.44 82.32 103.4 80.5 103.4 80.5 L 105 80.5 C 105 80.5 104.97 95.73 105 95.7 C 105 99.4 102.8 102 99.1 102 C 96.9 102 95.8 101.4 94.3 100.1 C 94.3 100.1 95.3 99.1 95.3 99.1 C 96.4 100.1 97.2 100.6 99.1 100.6 C 102.1 100.6 103.4 98.5 103.4 95.6 C 103.4 95.6 103.4 93.1 103.4 93.1 C 102.1 94.7 100.8 95.1 99.1 95.1 C 97.6 95.1 96.4 94.6 95.6 93.8 C 94.1 92.4 93.7 90 93.7 87.7 C 93.7 85.4 94.1 83 95.6 81.5 C 96.4 80.8 97.6 80.3 99.1 80.3 C 100.8 80.3 102.1 80.6 103.4 82.3 Z M 95.3 87.7 C 95.3 90.7 95.8 93.7 99.4 93.7 C 102.9 93.7 103.4 90.7 103.4 87.7 C 103.4 84.7 102.9 81.6 99.4 81.6 C 95.8 81.6 95.3 84.7 95.3 87.7 Z " stroke="none" fill="#000"/>  </g>  <g id="Polygon21213">    <path d="M 17.7 58.9 L 16.1 58.9 L 16.1 48.9 L 4.9 48.9 L 4.9 58.9 L 3.3 58.9 L 3.3 37.6 L 4.9 37.6 L 4.9 47.4 L 16.1 47.4 L 16.1 37.6 L 17.7 37.6 L 17.7 58.9 Z M 32.9 45.9 C 34.4 47.4 34.7 49.6 34.7 51.7 C 34.7 53.8 34.4 56 32.9 57.5 C 31.9 58.6 30.5 59.1 28.9 59.1 C 27.3 59.1 25.9 58.6 24.9 57.5 C 23.3 56 23.1 53.8 23.1 51.7 C 23.1 49.6 23.3 47.4 24.9 45.9 C 25.9 44.8 27.3 44.3 28.9 44.3 C 30.5 44.3 31.9 44.8 32.9 45.9 Z M 25.9 46.9 C 24.7 48.1 24.6 50 24.6 51.7 C 24.6 53.4 24.7 55.3 25.9 56.5 C 26.7 57.3 27.7 57.7 28.9 57.7 C 30.1 57.7 31.1 57.3 31.9 56.5 C 33.1 55.3 33.2 53.4 33.2 51.7 C 33.2 50 33.1 48.1 31.9 46.9 C 31.1 46 30.1 45.6 28.9 45.6 C 27.7 45.6 26.7 46 25.9 46.9 Z M 41.2 55.1 C 41.2 56.8 41.7 57.6 43.4 57.6 C 43.38 57.57 44.4 57.6 44.4 57.6 L 44.4 58.9 C 44.4 58.9 43.11 58.92 43.1 58.9 C 40.7 58.9 39.6 57.4 39.6 55.2 C 39.63 55.17 39.6 37.6 39.6 37.6 L 41.2 37.6 C 41.2 37.6 41.16 55.14 41.2 55.1 Z M 58.4 58.9 L 56.8 58.9 C 56.8 58.9 56.85 57.06 56.8 57.1 C 55.6 58.7 54.2 59.1 52.6 59.1 C 51 59.1 49.8 58.6 49 57.8 C 47.5 56.4 47.2 54 47.2 51.7 C 47.2 49.4 47.5 47 49 45.5 C 49.8 44.8 51 44.3 52.6 44.3 C 54.2 44.3 55.6 44.6 56.8 46.3 C 56.85 46.32 56.8 37.6 56.8 37.6 L 58.4 37.6 L 58.4 58.9 Z M 48.7 51.7 C 48.7 54.7 49.2 57.7 52.8 57.7 C 56.3 57.7 56.8 54.7 56.8 51.7 C 56.8 48.7 56.3 45.6 52.8 45.6 C 49.2 45.6 48.7 48.7 48.7 51.7 Z M 73.7 44.5 L 77 44.5 L 77 45.6 L 73.7 45.6 C 73.7 45.6 73.74 55.17 73.7 55.2 C 73.7 56.7 74.4 57.6 76 57.6 C 75.96 57.57 77 57.6 77 57.6 L 77 58.9 C 77 58.9 75.69 58.92 75.7 58.9 C 73.4 58.9 72.2 57.3 72.2 55.1 C 72.21 55.14 72.2 45.6 72.2 45.6 L 70.2 45.6 L 70.2 44.5 L 72.2 44.5 L 72.2 39.8 L 73.7 39.8 L 73.7 44.5 Z M 83.1 46.2 C 84.2 44.9 85.6 44.3 87.4 44.3 C 89.2 44.3 90.6 44.8 91.5 45.9 C 92.3 46.9 92.7 48.1 92.7 49.7 C 92.73 49.68 92.7 58.9 92.7 58.9 L 91.2 58.9 C 91.2 58.9 91.2 49.95 91.2 49.9 C 91.2 47.2 89.8 45.6 87.2 45.6 C 84.6 45.6 83.1 47.2 83.1 49.9 C 83.13 49.95 83.1 58.9 83.1 58.9 L 81.6 58.9 L 81.6 37.6 L 83.1 37.6 C 83.1 37.6 83.13 46.17 83.1 46.2 Z M 109.1 51.3 C 109.11 51.33 109.1 52 109.1 52 C 109.1 52 99.06 52.02 99.1 52 C 99.1 55.7 100.7 57.7 103.8 57.7 C 105.5 57.7 106.5 57.2 107.8 56 C 107.8 56 108.9 56.9 108.9 56.9 C 107.4 58.3 106.1 59.1 103.7 59.1 C 99.7 59.1 97.5 56.5 97.5 51.7 C 97.5 47 99.7 44.3 103.3 44.3 C 106.9 44.3 109.1 46.9 109.1 51.3 Z M 99.6 48.1 C 99.2 48.9 99.1 49.4 99.1 50.8 C 99.1 50.8 107.6 50.8 107.6 50.8 C 107.5 49.4 107.5 48.9 107.1 48.1 C 106.4 46.5 105 45.6 103.3 45.6 C 101.6 45.6 100.3 46.6 99.6 48.1 Z " stroke="none" fill="#000"/>  </g>  <g id="Polygon21212">    <path d="M 15.4 3.8 C 15.4 3.8 13.3 5.8 13.3 5.8 C 12 4.6 10.5 4.2 8.6 4.2 C 6.1 4.2 4.8 5.6 4.8 7.5 C 4.8 8.3 5 9 5.5 9.5 C 6.1 10 6.7 10.3 7.9 10.5 C 7.9 10.5 10.4 10.9 10.4 10.9 C 12.4 11.2 13.5 11.6 14.4 12.4 C 15.5 13.5 16.1 15 16.1 16.8 C 16.1 20.8 13 23.1 8.5 23.1 C 5.3 23.1 3 22.3 0.9 20.3 C 0.9 20.3 3 18.1 3 18.1 C 4.6 19.7 6.4 20.2 8.5 20.2 C 11.3 20.2 12.9 19 12.9 16.9 C 12.9 16 12.7 15.2 12.1 14.7 C 11.6 14.2 10.8 13.9 9.8 13.8 C 9.8 13.8 7.2 13.4 7.2 13.4 C 5.5 13.2 4.1 12.6 3.2 11.7 C 2.2 10.8 1.6 9.4 1.6 7.6 C 1.6 3.9 4.3 1.4 8.8 1.4 C 11.6 1.4 13.6 2.1 15.4 3.8 Z M 23.5 7.7 L 26.5 7.7 L 26.5 10 L 23.5 10 C 23.5 10 23.55 18.54 23.5 18.5 C 23.5 19.7 24.1 20.3 25.2 20.3 C 25.23 20.31 26.5 20.3 26.5 20.3 L 26.5 22.9 C 26.5 22.9 24.66 22.92 24.7 22.9 C 21.8 22.9 20.5 20.9 20.5 18.7 C 20.49 18.69 20.5 10 20.5 10 L 18.7 10 L 18.7 7.7 L 20.5 7.7 L 20.5 3.4 L 23.5 3.4 L 23.5 7.7 Z M 32.5 16.2 C 32.5 18.8 33.8 20.5 36.4 20.5 C 38.1 20.5 39 20 40.1 18.9 C 40.1 18.9 42 20.7 42 20.7 C 40.4 22.3 39 23.1 36.3 23.1 C 32.5 23.1 29.5 21.1 29.5 15.3 C 29.5 10.3 32 7.5 35.9 7.5 C 40 7.5 42.4 10.5 42.4 14.9 C 42.36 14.91 42.4 16.2 42.4 16.2 C 42.4 16.2 32.49 16.2 32.5 16.2 Z M 38.9 12 C 38.4 10.9 37.4 10.1 35.9 10.1 C 34.4 10.1 33.4 10.9 32.9 12 C 32.6 12.7 32.5 13.1 32.5 14.1 C 32.5 14.1 39.3 14.1 39.3 14.1 C 39.3 13.1 39.2 12.7 38.9 12 Z M 57.2 8.9 C 58.6 10.4 58.9 12.8 58.9 15.3 C 58.9 17.8 58.6 20.2 57.2 21.7 C 56.3 22.6 55 23.1 53.5 23.1 C 51.9 23.1 50.6 22.7 49.5 21.4 C 49.5 21.36 49.5 29.1 49.5 29.1 L 46.4 29.1 L 46.4 7.7 L 49.4 7.7 C 49.4 7.7 49.44 9.33 49.4 9.3 C 50.6 7.9 51.8 7.5 53.5 7.5 C 55 7.5 56.3 8 57.2 8.9 Z M 49.5 15.3 C 49.5 18 49.9 20.4 52.7 20.4 C 55.4 20.4 55.8 18 55.8 15.3 C 55.8 12.6 55.4 10.3 52.7 10.3 C 49.9 10.3 49.5 12.6 49.5 15.3 Z M 69.1 17.1 C 69.1 17.1 72.1 17.1 72.1 17.1 C 72.2 19.4 73.8 20.4 75.6 20.4 C 77.6 20.4 79.1 19.1 79.1 16.8 C 79.1 14.7 77.9 13.3 75.5 13.3 C 75.51 13.32 75 13.3 75 13.3 L 75 10.6 C 75 10.6 75.51 10.65 75.5 10.6 C 77.7 10.6 78.7 9.4 78.7 7.4 C 78.7 5.3 77.3 4.1 75.6 4.1 C 73.7 4.1 72.5 5.3 72.4 7.2 C 72.4 7.2 69.3 7.2 69.3 7.2 C 69.5 3.6 72.2 1.4 75.6 1.4 C 79.2 1.4 81.8 3.8 81.8 7.3 C 81.8 9.6 80.8 11.1 79.1 11.9 C 81 12.7 82.1 14.3 82.1 16.9 C 82.1 21 79.2 23.1 75.6 23.1 C 72.2 23.1 69.2 21.3 69.1 17.1 Z " stroke="none" fill="#000"/>  </g></svg>