<?xml version="1.0" standalone="no"?><!DOCTYPE svg PUBLIC "-//W3C//DTD SVG 1.1//EN" "http://www.w3.org/Graphics/SVG/1.1/DTD/svg11.dtd"><svg xmlns="http://www.w3.org/2000/svg" version="1.1" width="23px" height="43.663818359375px" viewBox="0 0 23 43.663818359375">  <desc>5</desc>  <defs/>  <g id="Polygon26747">    <path d="M 2.8 17.1 C 1.7 16 1.5 14.8 1.4 13.6 C 1.4 13.6 4.5 13.6 4.5 13.6 C 4.7 14.9 5.3 15.7 6.6 15.7 C 7.2 15.7 7.7 15.5 8.1 15.1 C 8.6 14.6 8.7 13.7 8.7 12.6 C 8.7 10.6 8.1 9.5 6.6 9.5 C 5.4 9.5 4.8 10.2 4.6 10.9 C 4.58 10.9 1.7 10.9 1.7 10.9 L 1.7 1.2 L 11.5 1.2 L 11.5 4.1 L 4.6 4.1 C 4.6 4.1 4.56 7.73 4.6 7.7 C 5 7.3 6 6.9 7.1 6.9 C 8.5 6.9 9.6 7.3 10.3 8 C 11.7 9.4 11.8 11 11.8 12.6 C 11.8 14.5 11.6 15.8 10.3 17.1 C 9.6 17.9 8.3 18.5 6.6 18.5 C 4.8 18.5 3.5 17.9 2.8 17.1 Z " stroke="none" fill="#000"/>  </g></svg>