<?xml version="1.0" standalone="no"?><!DOCTYPE svg PUBLIC "-//W3C//DTD SVG 1.1//EN" "http://www.w3.org/Graphics/SVG/1.1/DTD/svg11.dtd"><svg xmlns="http://www.w3.org/2000/svg" version="1.1" width="572px" height="84.32763671875px" viewBox="0 0 572 84.32763671875">  <desc>Policy placement</desc>  <defs/>  <g id="Polygon27847">    <path d="M 17.2 2.5 C 24.3 2.5 28.5 7.3 28.5 13.2 C 28.5 19 24.3 23.8 17.2 23.8 C 17.23 23.81 10.7 23.8 10.7 23.8 L 10.7 36.7 L 4 36.7 L 4 2.5 C 4 2.5 17.23 2.5 17.2 2.5 Z M 10.7 8.4 L 10.7 17.9 C 10.7 17.9 16.9 17.86 16.9 17.9 C 19.9 17.9 21.8 15.9 21.8 13.2 C 21.8 10.3 19.9 8.4 16.9 8.4 C 16.9 8.45 10.7 8.4 10.7 8.4 Z M 50.4 33.9 C 48.9 35.5 46.4 37 42.7 37 C 39 37 36.5 35.5 34.9 33.9 C 32.7 31.5 32.1 28.7 32.1 24.1 C 32.1 19.6 32.7 16.8 34.9 14.4 C 36.5 12.8 39 11.4 42.7 11.4 C 46.4 11.4 48.9 12.8 50.4 14.4 C 52.7 16.8 53.3 19.6 53.3 24.1 C 53.3 28.7 52.8 31.5 50.4 33.9 Z M 45.6 18.1 C 44.9 17.4 43.9 17 42.7 17 C 41.5 17 40.5 17.4 39.8 18.1 C 38.5 19.3 38.4 21.6 38.4 24.1 C 38.4 26.7 38.5 29 39.8 30.2 C 40.5 31 41.5 31.3 42.7 31.3 C 43.9 31.3 44.9 31 45.6 30.2 C 46.9 29 47 26.7 47 24.1 C 47 21.6 46.9 19.3 45.6 18.1 Z M 65.2 29.1 C 65.2 30.6 65.9 31.4 67.4 31.4 C 67.44 31.39 69.8 31.4 69.8 31.4 L 69.8 36.7 C 69.8 36.7 66.29 36.67 66.3 36.7 C 61.2 36.7 59 33.1 59 29.5 C 58.99 29.52 59 2.5 59 2.5 L 65.2 2.5 C 65.2 2.5 65.23 29.14 65.2 29.1 Z M 81.1 36.7 L 74.8 36.7 L 74.8 12.4 L 81.1 12.4 L 81.1 36.7 Z M 81.1 7.4 L 74.7 7.4 L 74.7 2.3 L 81.1 2.3 L 81.1 7.4 Z M 106.4 14.7 C 106.4 14.7 102.1 19 102.1 19 C 100.8 17.6 99.8 17 98.2 17 C 96.6 17 95.5 17.6 94.6 18.6 C 93.6 19.8 93.2 21.5 93.2 24.1 C 93.2 26.8 93.6 28.5 94.6 29.7 C 95.5 30.8 96.6 31.3 98.2 31.3 C 99.8 31.3 100.8 30.7 102.1 29.4 C 102.1 29.4 106.4 33.6 106.4 33.6 C 104.2 35.9 101.6 37 98.2 37 C 93.1 37 87 34.3 87 24.1 C 87 14.1 93.1 11.4 98.2 11.4 C 101.6 11.4 104.2 12.4 106.4 14.7 Z M 120.7 40.7 C 120.2 42.1 119.6 43.2 118.8 43.9 C 117.4 45.4 115.5 45.8 113.5 45.8 C 113.47 45.84 111 45.8 111 45.8 L 111 40.2 C 111 40.2 112.46 40.22 112.5 40.2 C 114.2 40.2 115 39.7 115.6 38 C 115.58 37.97 116.6 34.9 116.6 34.9 L 108.1 11.7 L 114.7 11.7 L 119.9 27.1 L 124.8 11.7 L 131.4 11.7 C 131.4 11.7 120.72 40.7 120.7 40.7 Z M 164.6 13.6 C 167 16.1 167.2 20 167.2 24.1 C 167.2 28.4 167 32.3 164.6 34.7 C 163.2 36.1 161.1 37 158.6 37 C 156 37 154.1 36.3 152.5 34.5 C 152.49 34.46 152.5 45.8 152.5 45.8 L 146.3 45.8 L 146.3 11.7 L 152.3 11.7 C 152.3 11.7 152.3 14.02 152.3 14 C 154.1 12.1 155.9 11.4 158.5 11.4 C 161 11.4 163.2 12.2 164.6 13.6 Z M 152.5 24.1 C 152.5 28.2 153 31.3 156.7 31.3 C 160.5 31.3 161 28.2 161 24.1 C 161 20.1 160.5 17 156.7 17 C 153 17 152.5 20.1 152.5 24.1 Z M 179.2 29.1 C 179.2 30.6 179.8 31.4 181.4 31.4 C 181.39 31.39 183.8 31.4 183.8 31.4 L 183.8 36.7 C 183.8 36.7 180.24 36.67 180.2 36.7 C 175.1 36.7 172.9 33.1 172.9 29.5 C 172.94 29.52 172.9 2.5 172.9 2.5 L 179.2 2.5 C 179.2 2.5 179.18 29.14 179.2 29.1 Z M 207.7 20.2 C 207.69 20.21 207.7 36.7 207.7 36.7 L 201.6 36.7 C 201.6 36.7 201.6 34.51 201.6 34.5 C 199.9 36.2 198.3 36.9 195.5 36.9 C 192.6 36.9 190.5 36.1 189.1 34.7 C 187.7 33.3 187 31.3 187 29.1 C 187 25.1 189.7 21.8 195.6 21.8 C 195.65 21.84 201.5 21.8 201.5 21.8 C 201.5 21.8 201.45 20.59 201.5 20.6 C 201.5 17.9 200.1 16.7 196.8 16.7 C 194.5 16.7 193.3 17.3 192 18.8 C 192 18.8 188.1 14.9 188.1 14.9 C 190.5 12.2 192.9 11.4 197 11.4 C 204.1 11.4 207.7 14.4 207.7 20.2 Z M 196.7 26.1 C 194.2 26.1 193 27.1 193 29 C 193 30.7 194.2 31.8 196.8 31.8 C 198.3 31.8 199.4 31.6 200.5 30.6 C 201.2 30 201.5 29 201.5 27.5 C 201.45 27.46 201.5 26.1 201.5 26.1 C 201.5 26.1 196.7 26.11 196.7 26.1 Z M 232.8 14.7 C 232.8 14.7 228.5 19 228.5 19 C 227.2 17.6 226.2 17 224.5 17 C 223 17 221.9 17.6 221 18.6 C 220 19.8 219.6 21.5 219.6 24.1 C 219.6 26.8 220 28.5 221 29.7 C 221.9 30.8 223 31.3 224.5 31.3 C 226.2 31.3 227.2 30.7 228.5 29.4 C 228.5 29.4 232.8 33.6 232.8 33.6 C 230.5 35.9 228 37 224.5 37 C 219.5 37 213.4 34.3 213.4 24.1 C 213.4 14.1 219.5 11.4 224.5 11.4 C 228 11.4 230.5 12.4 232.8 14.7 Z M 257.5 23.5 C 257.47 23.47 257.5 26.1 257.5 26.1 C 257.5 26.1 241.82 26.11 241.8 26.1 C 241.8 29.4 243.7 31.7 247.3 31.7 C 250 31.7 251.4 30.9 252.9 29.3 C 252.9 29.3 256.7 33 256.7 33 C 254.2 35.6 251.8 37 247.2 37 C 241.3 37 235.7 34.3 235.7 24.1 C 235.7 16 240.1 11.4 246.6 11.4 C 253.5 11.4 257.5 16.4 257.5 23.5 Z M 242.3 19.2 C 241.9 20.1 241.9 20.7 241.8 21.8 C 241.8 21.8 251.3 21.8 251.3 21.8 C 251.2 20.7 251.2 20.1 250.7 19.2 C 250.1 17.7 248.7 16.6 246.6 16.6 C 244.4 16.6 243 17.7 242.3 19.2 Z M 295.9 13.6 C 297.9 15.6 298.6 18 298.6 20.7 C 298.56 20.69 298.6 36.7 298.6 36.7 L 292.3 36.7 C 292.3 36.7 292.32 21.55 292.3 21.6 C 292.3 18.1 290.2 17 288.2 17 C 286.3 17 284 18.1 284 21.4 C 284.01 21.41 284 36.7 284 36.7 L 277.8 36.7 C 277.8 36.7 277.77 21.55 277.8 21.6 C 277.8 18.1 275.7 17 273.6 17 C 271.6 17 269.5 18.1 269.5 21.6 C 269.47 21.55 269.5 36.7 269.5 36.7 L 263.2 36.7 L 263.2 11.7 L 269.3 11.7 C 269.3 11.7 269.32 13.97 269.3 14 C 271 12.2 273.3 11.4 275.6 11.4 C 278.4 11.4 280.7 12.4 282.2 14.5 C 284.3 12.3 286.6 11.4 289.7 11.4 C 292.2 11.4 294.4 12.2 295.9 13.6 Z M 325.8 23.5 C 325.82 23.47 325.8 26.1 325.8 26.1 C 325.8 26.1 310.17 26.11 310.2 26.1 C 310.2 29.4 312.1 31.7 315.6 31.7 C 318.4 31.7 319.7 30.9 321.3 29.3 C 321.3 29.3 325.1 33 325.1 33 C 322.6 35.6 320.1 37 315.6 37 C 309.6 37 304 34.3 304 24.1 C 304 16 308.4 11.4 314.9 11.4 C 321.9 11.4 325.8 16.4 325.8 23.5 Z M 310.7 19.2 C 310.3 20.1 310.2 20.7 310.2 21.8 C 310.2 21.8 319.6 21.8 319.6 21.8 C 319.6 20.7 319.5 20.1 319.1 19.2 C 318.4 17.7 317 16.6 314.9 16.6 C 312.8 16.6 311.4 17.7 310.7 19.2 Z M 349.8 13.6 C 351.8 15.6 352.4 18 352.4 20.7 C 352.36 20.69 352.4 36.7 352.4 36.7 L 346.1 36.7 C 346.1 36.7 346.12 21.55 346.1 21.6 C 346.1 18.1 344 17 342 17 C 340 17 337.8 18.1 337.8 21.6 C 337.82 21.55 337.8 36.7 337.8 36.7 L 331.6 36.7 L 331.6 11.7 L 337.7 11.7 C 337.7 11.7 337.68 13.97 337.7 14 C 339.3 12.2 341.6 11.4 343.9 11.4 C 346.4 11.4 348.4 12.1 349.8 13.6 Z M 365.9 12.4 L 370.3 12.4 L 370.3 17.1 L 365.9 17.1 C 365.9 17.1 365.9 29.14 365.9 29.1 C 365.9 30.6 366.6 31.4 368.1 31.4 C 368.06 31.39 370.3 31.4 370.3 31.4 L 370.3 36.7 C 370.3 36.7 366.91 36.67 366.9 36.7 C 361.8 36.7 359.7 33.1 359.7 29.5 C 359.66 29.52 359.7 17.1 359.7 17.1 L 357 17.1 L 357 12.4 L 359.7 12.4 L 359.7 5 L 365.9 5 L 365.9 12.4 Z " stroke="none" fill="#fff"/>  </g></svg>