<?xml version="1.0" standalone="no"?><!DOCTYPE svg PUBLIC "-//W3C//DTD SVG 1.1//EN" "http://www.w3.org/Graphics/SVG/1.1/DTD/svg11.dtd"><svg xmlns="http://www.w3.org/2000/svg" version="1.1" width="572px" height="84.32763671875px" viewBox="0 0 572 84.32763671875">  <desc>Meeting preparation</desc>  <defs/>  <g id="Polygon25125">    <path d="M 34.9 36.7 L 28.3 36.7 L 28.3 16.8 L 21.7 28.9 L 17.2 28.9 L 10.7 16.8 L 10.7 36.7 L 4 36.7 L 4 2.5 L 10.6 2.5 L 19.5 20.2 L 28.4 2.5 L 34.9 2.5 L 34.9 36.7 Z M 63 23.5 C 62.98 23.47 63 26.1 63 26.1 C 63 26.1 47.33 26.11 47.3 26.1 C 47.3 29.4 49.2 31.7 52.8 31.7 C 55.5 31.7 56.9 30.9 58.4 29.3 C 58.4 29.3 62.3 33 62.3 33 C 59.7 35.6 57.3 37 52.8 37 C 46.8 37 41.2 34.3 41.2 24.1 C 41.2 16 45.6 11.4 52.1 11.4 C 59 11.4 63 16.4 63 23.5 Z M 47.9 19.2 C 47.4 20.1 47.4 20.7 47.3 21.8 C 47.3 21.8 56.8 21.8 56.8 21.8 C 56.7 20.7 56.7 20.1 56.3 19.2 C 55.6 17.7 54.2 16.6 52.1 16.6 C 49.9 16.6 48.5 17.7 47.9 19.2 Z M 89.3 23.5 C 89.28 23.47 89.3 26.1 89.3 26.1 C 89.3 26.1 73.63 26.11 73.6 26.1 C 73.6 29.4 75.6 31.7 79.1 31.7 C 81.8 31.7 83.2 30.9 84.7 29.3 C 84.7 29.3 88.6 33 88.6 33 C 86 35.6 83.6 37 79.1 37 C 73.1 37 67.5 34.3 67.5 24.1 C 67.5 16 71.9 11.4 78.4 11.4 C 85.3 11.4 89.3 16.4 89.3 23.5 Z M 74.2 19.2 C 73.7 20.1 73.7 20.7 73.6 21.8 C 73.6 21.8 83.1 21.8 83.1 21.8 C 83 20.7 83 20.1 82.6 19.2 C 81.9 17.7 80.5 16.6 78.4 16.6 C 76.2 16.6 74.8 17.7 74.2 19.2 Z M 101.9 12.4 L 106.3 12.4 L 106.3 17.1 L 101.9 17.1 C 101.9 17.1 101.85 29.14 101.9 29.1 C 101.9 30.6 102.5 31.4 104 31.4 C 104.01 31.39 106.3 31.4 106.3 31.4 L 106.3 36.7 C 106.3 36.7 102.86 36.67 102.9 36.7 C 97.8 36.7 95.6 33.1 95.6 29.5 C 95.61 29.52 95.6 17.1 95.6 17.1 L 93 17.1 L 93 12.4 L 95.6 12.4 L 95.6 5 L 101.9 5 L 101.9 12.4 Z M 118.2 36.7 L 111.9 36.7 L 111.9 12.4 L 118.2 12.4 L 118.2 36.7 Z M 118.2 7.4 L 111.8 7.4 L 111.8 2.3 L 118.2 2.3 L 118.2 7.4 Z M 143.4 13.6 C 145.4 15.6 145.9 18 145.9 20.7 C 145.92 20.69 145.9 36.7 145.9 36.7 L 139.7 36.7 C 139.7 36.7 139.68 21.55 139.7 21.6 C 139.7 18.1 137.6 17 135.5 17 C 133.5 17 131.4 18.1 131.4 21.6 C 131.37 21.55 131.4 36.7 131.4 36.7 L 125.1 36.7 L 125.1 11.7 L 131.2 11.7 C 131.2 11.7 131.23 13.97 131.2 14 C 132.9 12.2 135.2 11.4 137.5 11.4 C 140 11.4 142 12.1 143.4 13.6 Z M 166.2 14 C 166.22 14.02 166.2 11.7 166.2 11.7 L 172.3 11.7 C 172.3 11.7 172.27 35.76 172.3 35.8 C 172.3 41.8 168 46.1 161.3 46.1 C 157.4 46.1 154.8 45.4 152.2 42.9 C 152.2 42.9 156.1 38.9 156.1 38.9 C 157.5 40.3 158.9 40.8 161 40.8 C 164.8 40.8 166 38.3 166 35.7 C 166 35.7 166 33.1 166 33.1 C 164.4 34.9 162.6 35.6 160.1 35.6 C 157.6 35.6 155.6 34.8 154.2 33.4 C 151.8 31.1 151.6 27.9 151.6 23.5 C 151.6 19.1 151.8 15.9 154.2 13.6 C 155.6 12.2 157.6 11.4 160.1 11.4 C 162.8 11.4 164.5 12.1 166.2 14 Z M 157.8 23.5 C 157.8 26.8 158.2 30 161.9 30 C 165.6 30 166 26.8 166 23.5 C 166 20.2 165.6 17 161.9 17 C 158.2 17 157.8 20.2 157.8 23.5 Z M 208.8 13.6 C 211.1 16.1 211.4 20 211.4 24.1 C 211.4 28.4 211.1 32.3 208.8 34.7 C 207.4 36.1 205.2 37 202.7 37 C 200.2 37 198.3 36.3 196.7 34.5 C 196.65 34.46 196.7 45.8 196.7 45.8 L 190.4 45.8 L 190.4 11.7 L 196.5 11.7 C 196.5 11.7 196.46 14.02 196.5 14 C 198.2 12.1 200.1 11.4 202.7 11.4 C 205.2 11.4 207.4 12.2 208.8 13.6 Z M 196.7 24.1 C 196.7 28.2 197.1 31.3 200.9 31.3 C 204.7 31.3 205.1 28.2 205.1 24.1 C 205.1 20.1 204.7 17 200.9 17 C 197.1 17 196.7 20.1 196.7 24.1 Z M 235.6 13.7 C 235.6 13.7 231 18.5 231 18.5 C 230 17.5 229.2 17 227.7 17 C 225.7 17 223.6 18.4 223.6 21.6 C 223.58 21.6 223.6 36.7 223.6 36.7 L 217.3 36.7 L 217.3 11.7 L 223.4 11.7 C 223.4 11.7 223.44 14.06 223.4 14.1 C 224.6 12.6 227 11.4 229.7 11.4 C 232.2 11.4 233.9 12 235.6 13.7 Z M 258.3 23.5 C 258.28 23.47 258.3 26.1 258.3 26.1 C 258.3 26.1 242.64 26.11 242.6 26.1 C 242.6 29.4 244.6 31.7 248.1 31.7 C 250.8 31.7 252.2 30.9 253.7 29.3 C 253.7 29.3 257.6 33 257.6 33 C 255 35.6 252.6 37 248.1 37 C 242.1 37 236.5 34.3 236.5 24.1 C 236.5 16 240.9 11.4 247.4 11.4 C 254.3 11.4 258.3 16.4 258.3 23.5 Z M 243.2 19.2 C 242.7 20.1 242.7 20.7 242.6 21.8 C 242.6 21.8 252.1 21.8 252.1 21.8 C 252 20.7 252 20.1 251.6 19.2 C 250.9 17.7 249.5 16.6 247.4 16.6 C 245.2 16.6 243.8 17.7 243.2 19.2 Z M 282.4 13.6 C 284.8 16.1 285 20 285 24.1 C 285 28.4 284.8 32.3 282.4 34.7 C 281 36.1 278.9 37 276.4 37 C 273.8 37 271.9 36.3 270.3 34.5 C 270.28 34.46 270.3 45.8 270.3 45.8 L 264 45.8 L 264 11.7 L 270.1 11.7 C 270.1 11.7 270.09 14.02 270.1 14 C 271.9 12.1 273.7 11.4 276.3 11.4 C 278.8 11.4 281 12.2 282.4 13.6 Z M 270.3 24.1 C 270.3 28.2 270.8 31.3 274.5 31.3 C 278.3 31.3 278.8 28.2 278.8 24.1 C 278.8 20.1 278.3 17 274.5 17 C 270.8 17 270.3 20.1 270.3 24.1 Z M 309.9 20.2 C 309.88 20.21 309.9 36.7 309.9 36.7 L 303.8 36.7 C 303.8 36.7 303.79 34.51 303.8 34.5 C 302.1 36.2 300.5 36.9 297.6 36.9 C 294.8 36.9 292.7 36.1 291.3 34.7 C 289.9 33.3 289.2 31.3 289.2 29.1 C 289.2 25.1 291.9 21.8 297.8 21.8 C 297.83 21.84 303.6 21.8 303.6 21.8 C 303.6 21.8 303.64 20.59 303.6 20.6 C 303.6 17.9 302.3 16.7 299 16.7 C 296.7 16.7 295.5 17.3 294.2 18.8 C 294.2 18.8 290.3 14.9 290.3 14.9 C 292.7 12.2 295.1 11.4 299.2 11.4 C 306.3 11.4 309.9 14.4 309.9 20.2 Z M 298.9 26.1 C 296.4 26.1 295.2 27.1 295.2 29 C 295.2 30.7 296.4 31.8 299 31.8 C 300.5 31.8 301.6 31.6 302.7 30.6 C 303.4 30 303.6 29 303.6 27.5 C 303.64 27.46 303.6 26.1 303.6 26.1 C 303.6 26.1 298.89 26.11 298.9 26.1 Z M 334.9 13.7 C 334.9 13.7 330.2 18.5 330.2 18.5 C 329.3 17.5 328.5 17 326.9 17 C 325 17 322.8 18.4 322.8 21.6 C 322.84 21.6 322.8 36.7 322.8 36.7 L 316.6 36.7 L 316.6 11.7 L 322.7 11.7 C 322.7 11.7 322.7 14.06 322.7 14.1 C 323.9 12.6 326.3 11.4 329 11.4 C 331.5 11.4 333.2 12 334.9 13.7 Z M 356.9 20.2 C 356.87 20.21 356.9 36.7 356.9 36.7 L 350.8 36.7 C 350.8 36.7 350.78 34.51 350.8 34.5 C 349.1 36.2 347.5 36.9 344.6 36.9 C 341.8 36.9 339.7 36.1 338.3 34.7 C 336.9 33.3 336.2 31.3 336.2 29.1 C 336.2 25.1 338.9 21.8 344.8 21.8 C 344.83 21.84 350.6 21.8 350.6 21.8 C 350.6 21.8 350.63 20.59 350.6 20.6 C 350.6 17.9 349.3 16.7 346 16.7 C 343.7 16.7 342.5 17.3 341.2 18.8 C 341.2 18.8 337.2 14.9 337.2 14.9 C 339.7 12.2 342 11.4 346.2 11.4 C 353.3 11.4 356.9 14.4 356.9 20.2 Z M 345.9 26.1 C 343.4 26.1 342.2 27.1 342.2 29 C 342.2 30.7 343.4 31.8 346 31.8 C 347.5 31.8 348.6 31.6 349.7 30.6 C 350.4 30 350.6 29 350.6 27.5 C 350.63 27.46 350.6 26.1 350.6 26.1 C 350.6 26.1 345.88 26.11 345.9 26.1 Z M 370.4 12.4 L 374.8 12.4 L 374.8 17.1 L 370.4 17.1 C 370.4 17.1 370.41 29.14 370.4 29.1 C 370.4 30.6 371.1 31.4 372.6 31.4 C 372.57 31.39 374.8 31.4 374.8 31.4 L 374.8 36.7 C 374.8 36.7 371.42 36.67 371.4 36.7 C 366.3 36.7 364.2 33.1 364.2 29.5 C 364.17 29.52 364.2 17.1 364.2 17.1 L 361.5 17.1 L 361.5 12.4 L 364.2 12.4 L 364.2 5 L 370.4 5 L 370.4 12.4 Z M 386.7 36.7 L 380.5 36.7 L 380.5 12.4 L 386.7 12.4 L 386.7 36.7 Z M 386.8 7.4 L 380.4 7.4 L 380.4 2.3 L 386.8 2.3 L 386.8 7.4 Z M 411 33.9 C 409.4 35.5 406.9 37 403.2 37 C 399.5 37 397 35.5 395.5 33.9 C 393.2 31.5 392.6 28.7 392.6 24.1 C 392.6 19.6 393.2 16.8 395.5 14.4 C 397 12.8 399.5 11.4 403.2 11.4 C 406.9 11.4 409.4 12.8 411 14.4 C 413.2 16.8 413.8 19.6 413.8 24.1 C 413.8 28.7 413.3 31.5 411 33.9 Z M 406.1 18.1 C 405.4 17.4 404.4 17 403.2 17 C 402 17 401 17.4 400.3 18.1 C 399 19.3 398.9 21.6 398.9 24.1 C 398.9 26.7 399 29 400.3 30.2 C 401 31 402 31.3 403.2 31.3 C 404.4 31.3 405.4 31 406.1 30.2 C 407.4 29 407.6 26.7 407.6 24.1 C 407.6 21.6 407.4 19.3 406.1 18.1 Z M 438 13.6 C 440 15.6 440.5 18 440.5 20.7 C 440.54 20.69 440.5 36.7 440.5 36.7 L 434.3 36.7 C 434.3 36.7 434.3 21.55 434.3 21.6 C 434.3 18.1 432.2 17 430.2 17 C 428.2 17 426 18.1 426 21.6 C 425.99 21.55 426 36.7 426 36.7 L 419.8 36.7 L 419.8 11.7 L 425.8 11.7 C 425.8 11.7 425.85 13.97 425.8 14 C 427.5 12.2 429.8 11.4 432.1 11.4 C 434.6 11.4 436.6 12.1 438 13.6 Z " stroke="none" fill="#fff"/>  </g></svg>