<?xml version="1.0" standalone="no"?><!DOCTYPE svg PUBLIC "-//W3C//DTD SVG 1.1//EN" "http://www.w3.org/Graphics/SVG/1.1/DTD/svg11.dtd"><svg xmlns="http://www.w3.org/2000/svg" version="1.1" width="421px" height="82.32763671875px" viewBox="0 0 421 82.32763671875">  <desc>Case vetting</desc>  <defs/>  <g id="Polygon22683">    <path d="M 28 13 C 28 13 21.2 13 21.2 13 C 20.5 10.2 18.8 8.2 15.5 8.2 C 13.6 8.2 12.1 8.8 11.2 9.9 C 9.9 11.4 9.5 13.1 9.5 19.6 C 9.5 26.1 9.9 27.8 11.2 29.2 C 12.1 30.3 13.6 31 15.5 31 C 18.8 31 20.5 28.9 21.2 26.2 C 21.2 26.2 28 26.2 28 26.2 C 26.8 33.3 21.8 37 15.5 37 C 11.5 37 8.6 35.7 6.3 33.4 C 2.9 30 2.8 26.1 2.8 19.6 C 2.8 13.1 2.9 9.2 6.3 5.8 C 8.6 3.5 11.5 2.2 15.5 2.2 C 21.8 2.2 26.8 5.9 28 13 Z M 52.2 20.2 C 52.18 20.21 52.2 36.7 52.2 36.7 L 46.1 36.7 C 46.1 36.7 46.08 34.51 46.1 34.5 C 44.4 36.2 42.8 36.9 39.9 36.9 C 37.1 36.9 35 36.1 33.6 34.7 C 32.2 33.3 31.5 31.3 31.5 29.1 C 31.5 25.1 34.2 21.8 40.1 21.8 C 40.13 21.84 45.9 21.8 45.9 21.8 C 45.9 21.8 45.94 20.59 45.9 20.6 C 45.9 17.9 44.6 16.7 41.3 16.7 C 39 16.7 37.8 17.3 36.5 18.8 C 36.5 18.8 32.5 14.9 32.5 14.9 C 35 12.2 37.3 11.4 41.5 11.4 C 48.6 11.4 52.2 14.4 52.2 20.2 Z M 41.2 26.1 C 38.7 26.1 37.5 27.1 37.5 29 C 37.5 30.7 38.7 31.8 41.3 31.8 C 42.8 31.8 43.9 31.6 45 30.6 C 45.7 30 45.9 29 45.9 27.5 C 45.94 27.46 45.9 26.1 45.9 26.1 C 45.9 26.1 41.18 26.11 41.2 26.1 Z M 76.9 14.3 C 76.9 14.3 73.1 18.2 73.1 18.2 C 71.7 16.9 69.5 16.5 67.3 16.5 C 64.8 16.5 63.7 17.7 63.7 18.9 C 63.7 20.2 64.5 20.9 66.3 21.1 C 66.3 21.1 70.3 21.5 70.3 21.5 C 75.2 21.9 77.7 24.5 77.7 28.8 C 77.7 34.3 73 37 67.1 37 C 63.2 37 59.7 36.5 56.4 33.4 C 56.4 33.4 60.5 29.3 60.5 29.3 C 62.5 31.3 65.3 31.6 67.2 31.6 C 69.4 31.6 71.6 30.9 71.6 29 C 71.6 27.8 71 26.9 69 26.7 C 69 26.7 65 26.4 65 26.4 C 60.5 25.9 57.7 24 57.7 19.3 C 57.7 14.1 62.3 11.4 67.4 11.4 C 71.3 11.4 74.5 12.1 76.9 14.3 Z M 103.5 23.5 C 103.49 23.47 103.5 26.1 103.5 26.1 C 103.5 26.1 87.84 26.11 87.8 26.1 C 87.8 29.4 89.8 31.7 93.3 31.7 C 96 31.7 97.4 30.9 98.9 29.3 C 98.9 29.3 102.8 33 102.8 33 C 100.2 35.6 97.8 37 93.3 37 C 87.3 37 81.7 34.3 81.7 24.1 C 81.7 16 86.1 11.4 92.6 11.4 C 99.6 11.4 103.5 16.4 103.5 23.5 Z M 88.4 19.2 C 87.9 20.1 87.9 20.7 87.8 21.8 C 87.8 21.8 97.3 21.8 97.3 21.8 C 97.2 20.7 97.2 20.1 96.8 19.2 C 96.1 17.7 94.7 16.6 92.6 16.6 C 90.4 16.6 89 17.7 88.4 19.2 Z M 131.2 36.7 L 126.3 36.7 L 117.1 11.7 L 123.6 11.7 L 128.7 27.1 L 133.8 11.7 L 140.4 11.7 L 131.2 36.7 Z M 164.1 23.5 C 164.11 23.47 164.1 26.1 164.1 26.1 C 164.1 26.1 148.46 26.11 148.5 26.1 C 148.5 29.4 150.4 31.7 153.9 31.7 C 156.7 31.7 158 30.9 159.6 29.3 C 159.6 29.3 163.4 33 163.4 33 C 160.8 35.6 158.4 37 153.9 37 C 147.9 37 142.3 34.3 142.3 24.1 C 142.3 16 146.7 11.4 153.2 11.4 C 160.2 11.4 164.1 16.4 164.1 23.5 Z M 149 19.2 C 148.6 20.1 148.5 20.7 148.5 21.8 C 148.5 21.8 157.9 21.8 157.9 21.8 C 157.9 20.7 157.8 20.1 157.4 19.2 C 156.7 17.7 155.3 16.6 153.2 16.6 C 151.1 16.6 149.7 17.7 149 19.2 Z M 176.7 12.4 L 181.1 12.4 L 181.1 17.1 L 176.7 17.1 C 176.7 17.1 176.69 29.14 176.7 29.1 C 176.7 30.6 177.4 31.4 178.8 31.4 C 178.85 31.39 181.1 31.4 181.1 31.4 L 181.1 36.7 C 181.1 36.7 177.69 36.67 177.7 36.7 C 172.6 36.7 170.4 33.1 170.4 29.5 C 170.45 29.52 170.4 17.1 170.4 17.1 L 167.8 17.1 L 167.8 12.4 L 170.4 12.4 L 170.4 5 L 176.7 5 L 176.7 12.4 Z M 193.4 12.4 L 197.9 12.4 L 197.9 17.1 L 193.4 17.1 C 193.4 17.1 193.44 29.14 193.4 29.1 C 193.4 30.6 194.1 31.4 195.6 31.4 C 195.6 31.39 197.9 31.4 197.9 31.4 L 197.9 36.7 C 197.9 36.7 194.45 36.67 194.4 36.7 C 189.4 36.7 187.2 33.1 187.2 29.5 C 187.2 29.52 187.2 17.1 187.2 17.1 L 184.6 17.1 L 184.6 12.4 L 187.2 12.4 L 187.2 5 L 193.4 5 L 193.4 12.4 Z M 209.8 36.7 L 203.5 36.7 L 203.5 12.4 L 209.8 12.4 L 209.8 36.7 Z M 209.8 7.4 L 203.4 7.4 L 203.4 2.3 L 209.8 2.3 L 209.8 7.4 Z M 235 13.6 C 237 15.6 237.5 18 237.5 20.7 C 237.5 20.69 237.5 36.7 237.5 36.7 L 231.3 36.7 C 231.3 36.7 231.26 21.55 231.3 21.6 C 231.3 18.1 229.1 17 227.1 17 C 225.1 17 223 18.1 223 21.6 C 222.96 21.55 223 36.7 223 36.7 L 216.7 36.7 L 216.7 11.7 L 222.8 11.7 C 222.8 11.7 222.81 13.97 222.8 14 C 224.4 12.2 226.7 11.4 229.1 11.4 C 231.5 11.4 233.6 12.1 235 13.6 Z M 257.8 14 C 257.81 14.02 257.8 11.7 257.8 11.7 L 263.9 11.7 C 263.9 11.7 263.85 35.76 263.9 35.8 C 263.9 41.8 259.6 46.1 252.9 46.1 C 249 46.1 246.4 45.4 243.8 42.9 C 243.8 42.9 247.7 38.9 247.7 38.9 C 249.1 40.3 250.5 40.8 252.6 40.8 C 256.4 40.8 257.6 38.3 257.6 35.7 C 257.6 35.7 257.6 33.1 257.6 33.1 C 256 34.9 254.2 35.6 251.7 35.6 C 249.2 35.6 247.1 34.8 245.8 33.4 C 243.4 31.1 243.2 27.9 243.2 23.5 C 243.2 19.1 243.4 15.9 245.8 13.6 C 247.1 12.2 249.2 11.4 251.7 11.4 C 254.3 11.4 256.1 12.1 257.8 14 Z M 249.4 23.5 C 249.4 26.8 249.8 30 253.5 30 C 257.2 30 257.6 26.8 257.6 23.5 C 257.6 20.2 257.2 17 253.5 17 C 249.8 17 249.4 20.2 249.4 23.5 Z " stroke="none" fill="#fff"/>  </g></svg>