<?xml version="1.0" standalone="no"?><!DOCTYPE svg PUBLIC "-//W3C//DTD SVG 1.1//EN" "http://www.w3.org/Graphics/SVG/1.1/DTD/svg11.dtd"><svg xmlns="http://www.w3.org/2000/svg" version="1.1" width="654px" height="79.8556518554688px" viewBox="0 0 654 79.8556518554688">  <desc>Faster turnarounds with LincXpress Tele-App</desc>  <defs/>  <g id="Polygon23324">    <path d="M 15.6 5.9 L 6.9 5.9 L 6.9 16.9 L 14.4 16.9 L 14.4 20.5 L 6.9 20.5 L 6.9 35.1 L 2.9 35.1 L 2.9 2.4 L 15.6 2.4 L 15.6 5.9 Z M 29.1 12.6 C 30.3 13.8 31 15.4 31 17.8 C 31 17.85 31 35.1 31 35.1 L 27.5 35.1 C 27.5 35.1 27.46 33.03 27.5 33 C 27.1 33.7 26.5 34.3 26.1 34.6 C 25.3 35.2 24.6 35.5 23.3 35.5 C 21.5 35.5 20.3 35 19.2 33.7 C 18.3 32.7 17.7 30.9 17.7 28.4 C 17.7 26.2 18.4 24.2 19.8 23 C 21 21.9 22.4 21.4 24.8 21.4 C 24.84 21.39 27.3 21.4 27.3 21.4 C 27.3 21.4 27.28 17.62 27.3 17.6 C 27.3 15.4 26.3 14.2 24.5 14.2 C 23.6 14.2 23.1 14.5 22.6 15 C 22 15.7 21.8 16.5 21.8 17.8 C 21.8 17.8 18 17.8 18 17.8 C 18 15.9 18.4 14.1 19.9 12.7 C 20.9 11.6 22.6 10.9 24.5 10.9 C 26.4 10.9 28 11.5 29.1 12.6 Z M 25.2 24.1 C 24 24.1 23.2 24.3 22.5 25 C 21.8 25.6 21.4 27 21.4 28.2 C 21.4 30.7 22.4 32.2 24.3 32.2 C 26.1 32.2 27.3 30.7 27.3 28.5 C 27.28 28.52 27.3 24.1 27.3 24.1 C 27.3 24.1 25.16 24.1 25.2 24.1 Z M 46.3 12.6 C 47.6 13.8 48.3 15.5 48.3 17.9 C 48.3 17.9 44.6 17.9 44.6 17.9 C 44.6 16.5 44.3 15.7 43.7 15 C 43.1 14.4 42.4 14.2 41.7 14.2 C 40.8 14.2 40.1 14.5 39.6 15 C 39 15.6 38.7 16.4 38.7 17.3 C 38.7 18 38.9 18.5 39.1 19 C 39.5 19.6 40.2 20.1 41.1 20.6 C 41.1 20.6 44.2 22.1 44.2 22.1 C 45.8 22.9 46.8 23.7 47.5 24.8 C 48.2 25.8 48.5 27.1 48.5 28.7 C 48.5 30.8 47.7 32.4 46.5 33.6 C 45.2 35 43.6 35.5 41.6 35.5 C 39.7 35.5 38 34.9 36.8 33.7 C 35.5 32.2 34.8 30.6 34.8 28.4 C 34.8 28.4 38.5 28.4 38.5 28.4 C 38.5 29.7 38.8 30.6 39.5 31.3 C 40.1 31.9 40.9 32.2 41.6 32.2 C 42.6 32.2 43.3 31.9 43.9 31.3 C 44.4 30.7 44.8 29.9 44.8 28.9 C 44.8 28.1 44.6 27.4 44.2 26.7 C 43.7 26 43.1 25.5 42.1 25 C 42.1 25 39 23.5 39 23.5 C 37.4 22.7 36.3 21.7 35.7 20.7 C 35.2 19.8 35 18.8 35 17.6 C 35 15.5 35.8 13.9 37 12.7 C 38.2 11.5 39.8 10.9 41.7 10.9 C 43.6 10.9 45.2 11.5 46.3 12.6 Z M 55.2 33.7 C 53.8 32.6 53.1 30.8 53.1 28.3 C 53.08 28.34 53.1 14.2 53.1 14.2 L 50.4 14.2 L 50.4 11.3 L 53.1 11.3 L 53.1 4.8 L 56.8 4.8 L 56.8 11.3 L 60.5 11.3 L 60.5 14.2 L 56.8 14.2 C 56.8 14.2 56.81 28.2 56.8 28.2 C 56.8 30.7 58.1 31.8 60.6 31.8 C 60.6 31.8 60.6 35.1 60.6 35.1 C 58.5 35.1 56.7 35 55.2 33.7 Z M 66.9 24.1 C 66.9 27.9 67.1 30.1 67.9 31.1 C 68.3 31.7 69 32.2 70 32.2 C 70.8 32.2 71.5 31.9 72.1 31.2 C 72.7 30.5 72.9 29.6 72.9 28.5 C 72.9 28.5 76.6 28.5 76.6 28.5 C 76.6 30.7 76 32.3 74.7 33.8 C 73.6 35 71.9 35.5 70 35.5 C 68 35.5 66.5 35 65.3 33.7 C 63.5 31.8 63.2 28.2 63.2 23.2 C 63.2 18.2 63.5 14.7 65.2 12.8 C 66.5 11.5 68 10.9 69.9 10.9 C 71.9 10.9 73.4 11.5 74.6 12.8 C 76.4 14.7 76.7 18.2 76.7 24.1 C 76.7 24.1 66.9 24.1 66.9 24.1 Z M 72 15.3 C 71.6 14.7 70.9 14.3 69.9 14.3 C 68.9 14.3 68.3 14.7 67.9 15.3 C 67.1 16.1 66.9 17.8 66.9 21.3 C 66.9 21.3 73 21.3 73 21.3 C 73 17.8 72.8 16.1 72 15.3 Z M 90.4 14.5 C 90.4 14.5 89.29 14.54 89.3 14.5 C 86.8 14.5 85 16.2 85 18.9 C 84.96 18.91 85 35.1 85 35.1 L 81.2 35.1 L 81.2 11.3 L 84.8 11.3 C 84.8 11.3 84.82 13.85 84.8 13.8 C 85.2 13.2 85.9 12.6 86.5 12.1 C 87.6 11.4 88.9 10.9 90.4 10.9 C 90.39 10.95 90.4 14.5 90.4 14.5 Z M 105.3 33.7 C 104 32.6 103.2 30.8 103.2 28.3 C 103.22 28.34 103.2 14.2 103.2 14.2 L 100.5 14.2 L 100.5 11.3 L 103.2 11.3 L 103.2 4.8 L 106.9 4.8 L 106.9 11.3 L 110.6 11.3 L 110.6 14.2 L 106.9 14.2 C 106.9 14.2 106.95 28.2 106.9 28.2 C 106.9 30.7 108.3 31.8 110.8 31.8 C 110.8 31.8 110.8 35.1 110.8 35.1 C 108.7 35.1 106.8 35 105.3 33.7 Z M 127.2 35.1 L 123.6 35.1 C 123.6 35.1 123.65 33.3 123.6 33.3 C 123.3 33.9 122.7 34.5 122.2 34.8 C 121.4 35.2 120.6 35.5 119.6 35.5 C 117.8 35.5 116.6 34.9 115.6 33.8 C 114.6 32.7 114.1 31.4 114.1 28.8 C 114.13 28.84 114.1 11.3 114.1 11.3 L 117.9 11.3 C 117.9 11.3 117.85 28.84 117.9 28.8 C 117.9 31 119.1 32.2 120.7 32.2 C 122.3 32.2 123.5 31 123.5 28.8 C 123.51 28.84 123.5 11.3 123.5 11.3 L 127.2 11.3 L 127.2 35.1 Z M 141.6 14.5 C 141.6 14.5 140.53 14.54 140.5 14.5 C 138 14.5 136.2 16.2 136.2 18.9 C 136.2 18.91 136.2 35.1 136.2 35.1 L 132.5 35.1 L 132.5 11.3 L 136.1 11.3 C 136.1 11.3 136.07 13.85 136.1 13.8 C 136.4 13.2 137.1 12.6 137.7 12.1 C 138.8 11.4 140.1 10.9 141.6 10.9 C 141.63 10.95 141.6 14.5 141.6 14.5 Z M 156.7 12.7 C 157.6 13.8 158.1 15 158.1 17.6 C 158.1 17.62 158.1 35.1 158.1 35.1 L 154.4 35.1 C 154.4 35.1 154.37 17.62 154.4 17.6 C 154.4 15.5 153.1 14.3 151.5 14.3 C 150 14.3 148.7 15.5 148.7 17.6 C 148.72 17.62 148.7 35.1 148.7 35.1 L 145 35.1 L 145 11.3 L 148.6 11.3 C 148.6 11.3 148.58 13.16 148.6 13.2 C 148.9 12.6 149.5 12 150 11.7 C 150.8 11.2 151.7 10.9 152.6 10.9 C 154.4 10.9 155.7 11.5 156.7 12.7 Z M 173.5 12.6 C 174.6 13.8 175.3 15.4 175.3 17.8 C 175.35 17.85 175.3 35.1 175.3 35.1 L 171.8 35.1 C 171.8 35.1 171.81 33.03 171.8 33 C 171.4 33.7 170.9 34.3 170.4 34.6 C 169.7 35.2 168.9 35.5 167.6 35.5 C 165.9 35.5 164.6 35 163.5 33.7 C 162.6 32.7 162 30.9 162 28.4 C 162 26.2 162.7 24.2 164.1 23 C 165.3 21.9 166.7 21.4 169.2 21.4 C 169.19 21.39 171.6 21.4 171.6 21.4 C 171.6 21.4 171.62 17.62 171.6 17.6 C 171.6 15.4 170.7 14.2 168.8 14.2 C 168 14.2 167.4 14.5 167 15 C 166.3 15.7 166.1 16.5 166.1 17.8 C 166.1 17.8 162.4 17.8 162.4 17.8 C 162.4 15.9 162.8 14.1 164.2 12.7 C 165.3 11.6 167 10.9 168.8 10.9 C 170.7 10.9 172.4 11.5 173.5 12.6 Z M 169.5 24.1 C 168.4 24.1 167.6 24.3 166.8 25 C 166.1 25.6 165.7 27 165.7 28.2 C 165.7 30.7 166.7 32.2 168.6 32.2 C 170.4 32.2 171.6 30.7 171.6 28.5 C 171.62 28.52 171.6 24.1 171.6 24.1 C 171.6 24.1 169.51 24.1 169.5 24.1 Z M 189.6 14.5 C 189.6 14.5 188.46 14.54 188.5 14.5 C 185.9 14.5 184.1 16.2 184.1 18.9 C 184.14 18.91 184.1 35.1 184.1 35.1 L 180.4 35.1 L 180.4 11.3 L 184 11.3 C 184 11.3 184 13.85 184 13.8 C 184.4 13.2 185.1 12.6 185.7 12.1 C 186.8 11.4 188 10.9 189.6 10.9 C 189.56 10.95 189.6 14.5 189.6 14.5 Z M 203.8 13.2 C 205.2 15 205.5 18.4 205.5 23.2 C 205.5 28.1 205.2 31.4 203.8 33.3 C 202.6 34.9 200.8 35.5 198.7 35.5 C 196.6 35.5 194.9 34.9 193.7 33.3 C 192.2 31.4 192 28.1 192 23.2 C 192 18.4 192.2 15 193.7 13.2 C 194.9 11.5 196.6 10.9 198.7 10.9 C 200.8 10.9 202.6 11.5 203.8 13.2 Z M 196.6 15.3 C 195.8 16.5 195.7 19 195.7 23.2 C 195.7 27.5 195.8 29.9 196.6 31.1 C 197.1 31.8 197.8 32.2 198.7 32.2 C 199.6 32.2 200.4 31.8 200.8 31.1 C 201.7 29.9 201.8 27.5 201.8 23.2 C 201.8 19 201.7 16.5 200.8 15.3 C 200.4 14.7 199.6 14.3 198.7 14.3 C 197.8 14.3 197.1 14.7 196.6 15.3 Z M 222.9 35.1 L 219.3 35.1 C 219.3 35.1 219.32 33.3 219.3 33.3 C 219 33.9 218.4 34.5 217.9 34.8 C 217.1 35.2 216.2 35.5 215.3 35.5 C 213.5 35.5 212.2 34.9 211.2 33.8 C 210.3 32.7 209.8 31.4 209.8 28.8 C 209.8 28.84 209.8 11.3 209.8 11.3 L 213.5 11.3 C 213.5 11.3 213.53 28.84 213.5 28.8 C 213.5 31 214.8 32.2 216.4 32.2 C 217.9 32.2 219.2 31 219.2 28.8 C 219.19 28.84 219.2 11.3 219.2 11.3 L 222.9 11.3 L 222.9 35.1 Z M 239.8 12.7 C 240.8 13.8 241.3 15 241.3 17.6 C 241.27 17.62 241.3 35.1 241.3 35.1 L 237.5 35.1 C 237.5 35.1 237.54 17.62 237.5 17.6 C 237.5 15.5 236.3 14.3 234.7 14.3 C 233.1 14.3 231.9 15.5 231.9 17.6 C 231.88 17.62 231.9 35.1 231.9 35.1 L 228.2 35.1 L 228.2 11.3 L 231.7 11.3 C 231.7 11.3 231.74 13.16 231.7 13.2 C 232.1 12.6 232.7 12 233.2 11.7 C 234 11.2 234.8 10.9 235.8 10.9 C 237.6 10.9 238.8 11.5 239.8 12.7 Z M 245.5 23.2 C 245.5 17.6 245.7 14.5 247.3 12.7 C 248.3 11.5 249.6 10.9 251.2 10.9 C 252.3 10.9 253.1 11.2 253.8 11.7 C 254.3 12 254.8 12.5 255.2 13 C 255.16 12.97 255.2 2.4 255.2 2.4 L 258.9 2.4 L 258.9 35.1 L 255.2 35.1 C 255.2 35.1 255.25 33.3 255.2 33.3 C 255 33.8 254.3 34.5 253.8 34.8 C 253.1 35.2 252.3 35.5 251.2 35.5 C 249.6 35.5 248.3 35 247.3 33.8 C 245.7 31.9 245.5 28.8 245.5 23.2 Z M 255.2 28.7 C 255.2 28.7 255.2 17.8 255.2 17.8 C 255.2 16.5 254.8 15.6 254.2 15 C 253.7 14.5 253.1 14.3 252.3 14.3 C 251.4 14.3 250.7 14.7 250.3 15.3 C 249.4 16.3 249.3 18.3 249.3 23.2 C 249.3 28.2 249.4 30.2 250.3 31.2 C 250.7 31.8 251.4 32.2 252.3 32.2 C 253.1 32.2 253.7 31.9 254.2 31.4 C 254.8 30.8 255.2 29.9 255.2 28.7 Z M 274.4 12.6 C 275.7 13.8 276.4 15.5 276.4 17.9 C 276.4 17.9 272.7 17.9 272.7 17.9 C 272.7 16.5 272.4 15.7 271.8 15 C 271.3 14.4 270.5 14.2 269.8 14.2 C 268.9 14.2 268.2 14.5 267.7 15 C 267.1 15.6 266.8 16.4 266.8 17.3 C 266.8 18 267 18.5 267.3 19 C 267.6 19.6 268.3 20.1 269.2 20.6 C 269.2 20.6 272.3 22.1 272.3 22.1 C 273.9 22.9 274.9 23.7 275.6 24.8 C 276.3 25.8 276.6 27.1 276.6 28.7 C 276.6 30.8 275.8 32.4 274.6 33.6 C 273.3 35 271.7 35.5 269.7 35.5 C 267.8 35.5 266.1 34.9 265 33.7 C 263.6 32.2 262.9 30.6 262.9 28.4 C 262.9 28.4 266.6 28.4 266.6 28.4 C 266.6 29.7 266.9 30.6 267.6 31.3 C 268.2 31.9 269 32.2 269.7 32.2 C 270.7 32.2 271.4 31.9 272 31.3 C 272.5 30.7 272.9 29.9 272.9 28.9 C 272.9 28.1 272.7 27.4 272.3 26.7 C 271.9 26 271.2 25.5 270.2 25 C 270.2 25 267.1 23.5 267.1 23.5 C 265.6 22.7 264.4 21.7 263.9 20.7 C 263.3 19.8 263.1 18.8 263.1 17.6 C 263.1 15.5 263.9 13.9 265.1 12.7 C 266.3 11.5 267.9 10.9 269.8 10.9 C 271.7 10.9 273.3 11.5 274.4 12.6 Z M 290.9 11.3 L 293.7 29 L 297.1 11.3 L 300.3 11.3 L 303.7 29 L 306.5 11.3 L 310.7 11.3 L 305.7 35.1 L 302 35.1 L 298.7 17.9 L 295.4 35.1 L 291.8 35.1 L 286.9 11.3 L 290.9 11.3 Z M 317.2 35.1 L 313.5 35.1 L 313.5 11.3 L 317.2 11.3 L 317.2 35.1 Z M 317.5 7.1 L 313.2 7.1 L 313.2 2.8 L 317.5 2.8 L 317.5 7.1 Z M 325.4 33.7 C 324.1 32.6 323.3 30.8 323.3 28.3 C 323.33 28.34 323.3 14.2 323.3 14.2 L 320.6 14.2 L 320.6 11.3 L 323.3 11.3 L 323.3 4.8 L 327.1 4.8 L 327.1 11.3 L 330.7 11.3 L 330.7 14.2 L 327.1 14.2 C 327.1 14.2 327.05 28.2 327.1 28.2 C 327.1 30.7 328.4 31.8 330.9 31.8 C 330.9 31.8 330.9 35.1 330.9 35.1 C 328.8 35.1 326.9 35 325.4 33.7 Z M 338.1 13 C 338.5 12.5 339 12 339.5 11.7 C 340.2 11.2 341.1 10.9 342 10.9 C 343.8 10.9 345.1 11.5 346.1 12.7 C 347.1 13.8 347.5 15 347.5 17.6 C 347.52 17.62 347.5 35.1 347.5 35.1 L 343.8 35.1 C 343.8 35.1 343.8 17.62 343.8 17.6 C 343.8 15.4 342.5 14.3 340.9 14.3 C 339.4 14.3 338.1 15.4 338.1 17.6 C 338.14 17.62 338.1 35.1 338.1 35.1 L 334.4 35.1 L 334.4 2.4 L 338.1 2.4 C 338.1 2.4 338.14 13.02 338.1 13 Z M 365.5 2.4 L 369.3 2.4 L 363.4 31.8 L 371.6 31.8 L 370.9 35.1 L 359 35.1 L 365.5 2.4 Z M 379.1 11.3 L 382.6 11.3 L 377.9 35.1 L 374.4 35.1 L 379.1 11.3 Z M 380.6 3.1 L 384.5 3.1 L 383.6 7.1 L 379.7 7.1 L 380.6 3.1 Z M 387.6 11.3 L 390.9 11.3 C 390.9 11.3 390.58 13.11 390.6 13.1 C 391.1 12.5 391.6 12 392.2 11.6 C 392.8 11.2 393.6 10.9 394.7 10.9 C 396.6 10.9 397.6 11.8 398.2 12.8 C 398.7 13.6 398.9 14.4 398.9 15.5 C 398.9 16.1 398.8 16.8 398.6 17.9 C 398.58 17.94 395.2 35.1 395.2 35.1 L 391.7 35.1 C 391.7 35.1 395.09 17.94 395.1 17.9 C 395.2 17.3 395.3 16.7 395.3 16.3 C 395.3 15.1 394.6 14.1 393.2 14.1 C 391.8 14.1 390.3 15 389.7 17.9 C 389.75 17.94 386.3 35.1 386.3 35.1 L 382.8 35.1 L 387.6 11.3 Z M 401.7 33.8 C 400.9 32.9 400.6 31.7 400.6 30.1 C 400.6 28.7 400.9 26.4 401.6 23.2 C 402.8 17.2 403.6 14.6 405.2 12.9 C 406.4 11.7 407.9 10.9 410.2 10.9 C 412.4 10.9 413.8 11.7 414.5 13 C 415.1 13.9 415.3 14.8 415.3 16.1 C 415.3 16.6 415.3 17.2 415.1 17.9 C 415.1 17.9 411.7 17.9 411.7 17.9 C 411.8 17.3 411.9 16.8 411.9 16.3 C 411.9 15.7 411.7 15.1 411.4 14.7 C 411 14.3 410.5 14.1 409.8 14.1 C 409 14.1 408.2 14.4 407.6 15.1 C 406.5 16.2 405.9 18.8 405.1 23.2 C 404.5 26.3 404 28.7 404 29.9 C 404 30.9 404.2 31.6 404.7 32 C 405.1 32.2 405.6 32.4 406.2 32.4 C 406.9 32.4 407.6 32.2 408.1 31.7 C 409 30.9 409.3 30 409.6 28.5 C 409.6 28.5 413.1 28.5 413.1 28.5 C 412.5 31.1 411.8 32.5 410.8 33.6 C 409.6 34.8 408.1 35.5 405.8 35.5 C 403.9 35.5 402.6 34.9 401.7 33.8 Z M 422.9 17.9 L 420.7 2.4 L 424.7 2.4 L 425.9 14.2 L 431.7 2.4 L 435.9 2.4 L 427.2 18.3 L 429.9 35.1 L 425.9 35.1 L 424.3 22.3 L 418.1 35.1 L 413.9 35.1 L 422.9 17.9 Z M 437.5 11.3 L 440.9 11.3 C 440.9 11.3 440.58 13.02 440.6 13 C 440.9 12.6 441.6 12 442.1 11.6 C 442.7 11.2 443.7 10.9 444.6 10.9 C 446.1 10.9 447.2 11.5 448 12.7 C 448.5 13.6 448.8 14.5 448.8 15.8 C 448.8 17.6 448.4 20 447.7 23.2 C 446.3 30.1 445.6 32.4 444.1 33.8 C 443 34.9 441.7 35.5 440 35.5 C 438.9 35.5 438.1 35.1 437.6 34.7 C 437.2 34.3 436.9 33.9 436.6 33.5 C 436.62 33.49 434.5 44.1 434.5 44.1 L 431 44.1 L 437.5 11.3 Z M 441.5 31.5 C 442.6 30.5 443.3 27.6 444.2 23.2 C 444.9 19.9 445.2 17.8 445.2 16.6 C 445.2 15.8 445 15.2 444.8 14.8 C 444.4 14.4 443.9 14.1 443.2 14.1 C 442.4 14.1 441.8 14.4 441.2 14.9 C 440.5 15.5 440 16.4 439.8 17.8 C 439.8 17.8 437.6 28.7 437.6 28.7 C 437.5 29.3 437.5 29.7 437.5 30 C 437.5 30.8 437.6 31.4 438 31.8 C 438.4 32.2 438.8 32.4 439.5 32.4 C 440.3 32.4 440.9 32.2 441.5 31.5 Z M 454.3 11.3 L 457.7 11.3 C 457.7 11.3 457.19 13.85 457.2 13.8 C 457.6 13.1 458.4 12.4 459.3 11.8 C 460.2 11.3 461.5 10.9 463 10.9 C 462.98 10.95 462.3 14.3 462.3 14.3 C 462.3 14.3 461.28 14.31 461.3 14.3 C 458.9 14.3 456.9 16.1 456.3 18.9 C 456.31 18.86 453.1 35.1 453.1 35.1 L 449.6 35.1 L 454.3 11.3 Z M 462.5 33.3 C 462 32.4 461.8 31.4 461.8 30.1 C 461.8 28.6 462.2 25.8 462.8 23.2 C 463.9 17.6 464.9 14.5 466.4 12.9 C 467.6 11.6 469.1 10.9 471.4 10.9 C 473.5 10.9 474.8 11.8 475.6 12.9 C 476.1 13.7 476.4 14.9 476.4 16.3 C 476.4 18.3 476 20.7 475.3 24.1 C 475.3 24.1 466.1 24.1 466.1 24.1 C 465.6 26.8 465.2 28.8 465.2 29.9 C 465.2 30.6 465.4 31.3 465.8 31.8 C 466.1 32.2 466.6 32.4 467.3 32.4 C 468 32.4 468.8 32.2 469.4 31.6 C 470.1 31 470.5 30 470.8 28.5 C 470.8 28.5 474.3 28.5 474.3 28.5 C 473.8 31 473.2 32.3 471.9 33.6 C 470.6 34.9 469.1 35.5 467 35.5 C 464.8 35.5 463.3 34.7 462.5 33.3 Z M 472.4 21.3 C 472.8 19.2 473 17.6 473 16.6 C 473 15 472.4 14.1 470.9 14.1 C 470.2 14.1 469.4 14.4 468.8 15.1 C 467.9 16.1 467.4 17.8 466.7 21.3 C 466.7 21.3 472.4 21.3 472.4 21.3 Z M 478.3 33.7 C 477.4 32.8 477.1 31.6 477.1 30.3 C 477.1 29.7 477.1 29.2 477.3 28.5 C 477.3 28.5 480.7 28.5 480.7 28.5 C 480.6 29 480.6 29.4 480.6 29.8 C 480.6 30.5 480.8 31.1 481.2 31.6 C 481.6 32.1 482.2 32.4 483.1 32.4 C 484.1 32.4 484.8 32.1 485.5 31.5 C 486.3 30.6 486.7 29.4 486.7 28.1 C 486.7 26.8 486.3 25.8 484.7 24.8 C 484.7 24.8 482.5 23.4 482.5 23.4 C 480.4 22 479.6 20.6 479.6 18.6 C 479.6 16.3 480.4 14.1 482.1 12.5 C 483.4 11.5 484.9 10.9 486.8 10.9 C 488.8 10.9 490.3 11.6 491.2 12.8 C 491.9 13.7 492.2 14.6 492.2 16 C 492.2 16.6 492.1 17.2 492 17.8 C 492 17.8 488.6 17.8 488.6 17.8 C 488.7 17.2 488.8 16.9 488.8 16.5 C 488.8 15.8 488.6 15.3 488.2 14.8 C 487.8 14.3 487.2 14.1 486.4 14.1 C 485.6 14.1 484.9 14.3 484.3 14.9 C 483.5 15.6 483.1 16.7 483.1 18 C 483.1 19.1 483.6 20.1 484.8 20.7 C 484.8 20.7 487 22.1 487 22.1 C 489.3 23.5 490.2 25.2 490.2 27.5 C 490.2 30.2 489.2 32.5 487.6 33.8 C 486.3 35 484.7 35.5 482.8 35.5 C 480.7 35.5 479.3 34.9 478.3 33.7 Z M 493.7 33.7 C 492.9 32.8 492.6 31.6 492.6 30.3 C 492.6 29.7 492.6 29.2 492.7 28.5 C 492.7 28.5 496.2 28.5 496.2 28.5 C 496.1 29 496.1 29.4 496.1 29.8 C 496.1 30.5 496.2 31.1 496.6 31.6 C 497.1 32.1 497.7 32.4 498.6 32.4 C 499.6 32.4 500.3 32.1 500.9 31.5 C 501.8 30.6 502.2 29.4 502.2 28.1 C 502.2 26.8 501.7 25.8 500.1 24.8 C 500.1 24.8 498 23.4 498 23.4 C 495.8 22 495 20.6 495 18.6 C 495 16.3 495.8 14.1 497.6 12.5 C 498.8 11.5 500.3 10.9 502.2 10.9 C 504.3 10.9 505.8 11.6 506.6 12.8 C 507.3 13.7 507.6 14.6 507.6 16 C 507.6 16.6 507.6 17.2 507.4 17.8 C 507.4 17.8 504.1 17.8 504.1 17.8 C 504.2 17.2 504.2 16.9 504.2 16.5 C 504.2 15.8 504.1 15.3 503.7 14.8 C 503.3 14.3 502.7 14.1 501.9 14.1 C 501.1 14.1 500.4 14.3 499.8 14.9 C 499 15.6 498.5 16.7 498.5 18 C 498.5 19.1 499.1 20.1 500.2 20.7 C 500.2 20.7 502.4 22.1 502.4 22.1 C 504.8 23.5 505.7 25.2 505.7 27.5 C 505.7 30.2 504.6 32.5 503.1 33.8 C 501.8 35 500.2 35.5 498.2 35.5 C 496.2 35.5 494.8 34.9 493.7 33.7 Z M 532.5 5.9 L 527 5.9 L 527 35.1 L 523.1 35.1 L 523.1 5.9 L 517.5 5.9 L 517.5 2.4 L 532.5 2.4 L 532.5 5.9 Z M 536.6 24.1 C 536.6 27.9 536.8 30.1 537.6 31.1 C 538 31.7 538.7 32.2 539.7 32.2 C 540.5 32.2 541.2 31.9 541.8 31.2 C 542.4 30.5 542.6 29.6 542.6 28.5 C 542.6 28.5 546.3 28.5 546.3 28.5 C 546.3 30.7 545.7 32.3 544.4 33.8 C 543.3 35 541.6 35.5 539.7 35.5 C 537.7 35.5 536.2 35 535 33.7 C 533.2 31.8 532.9 28.2 532.9 23.2 C 532.9 18.2 533.2 14.7 534.9 12.8 C 536.2 11.5 537.7 10.9 539.6 10.9 C 541.5 10.9 543.1 11.5 544.3 12.8 C 546.1 14.7 546.4 18.2 546.4 24.1 C 546.4 24.1 536.6 24.1 536.6 24.1 Z M 541.7 15.3 C 541.3 14.7 540.6 14.3 539.6 14.3 C 538.6 14.3 538 14.7 537.5 15.3 C 536.8 16.1 536.6 17.8 536.6 21.3 C 536.6 21.3 542.7 21.3 542.7 21.3 C 542.7 17.8 542.5 16.1 541.7 15.3 Z M 554.5 28.2 C 554.5 30.5 555.6 31.8 558 31.8 C 558 31.8 558 35.1 558 35.1 C 556 35.1 554.3 34.9 552.9 33.7 C 551.6 32.6 550.7 31 550.7 28.3 C 550.75 28.34 550.7 2.4 550.7 2.4 L 554.5 2.4 C 554.5 2.4 554.47 28.2 554.5 28.2 Z M 564.1 24.1 C 564.1 27.9 564.3 30.1 565.1 31.1 C 565.5 31.7 566.3 32.2 567.2 32.2 C 568 32.2 568.7 31.9 569.3 31.2 C 569.9 30.5 570.1 29.6 570.1 28.5 C 570.1 28.5 573.8 28.5 573.8 28.5 C 573.8 30.7 573.2 32.3 571.9 33.8 C 570.8 35 569.1 35.5 567.2 35.5 C 565.2 35.5 563.7 35 562.5 33.7 C 560.7 31.8 560.4 28.2 560.4 23.2 C 560.4 18.2 560.7 14.7 562.4 12.8 C 563.7 11.5 565.2 10.9 567.1 10.9 C 569.1 10.9 570.6 11.5 571.8 12.8 C 573.6 14.7 573.9 18.2 573.9 24.1 C 573.9 24.1 564.1 24.1 564.1 24.1 Z M 569.2 15.3 C 568.8 14.7 568.1 14.3 567.1 14.3 C 566.1 14.3 565.5 14.7 565.1 15.3 C 564.3 16.1 564.1 17.8 564.1 21.3 C 564.1 21.3 570.2 21.3 570.2 21.3 C 570.2 17.8 570 16.1 569.2 15.3 Z M 587.2 23.9 L 578.2 23.9 L 578.2 20.4 L 587.2 20.4 L 587.2 23.9 Z M 597.6 2.4 L 601.4 2.4 L 609.1 35.1 L 604.9 35.1 L 603.3 27.4 L 595.7 27.4 L 594.1 35.1 L 590 35.1 L 597.6 2.4 Z M 602.6 23.9 L 599.5 8.8 L 596.4 23.9 L 602.6 23.9 Z M 625.3 23.2 C 625.3 28.9 625.1 31.9 623.5 33.8 C 622.5 35 621.2 35.5 619.6 35.5 C 618.6 35.5 617.7 35.3 617 34.8 C 616.5 34.5 616 34 615.7 33.5 C 615.65 33.49 615.7 44.1 615.7 44.1 L 611.9 44.1 L 611.9 11.3 L 615.6 11.3 C 615.6 11.3 615.56 13.16 615.6 13.2 C 615.8 12.6 616.5 12 617 11.7 C 617.7 11.2 618.6 10.9 619.6 10.9 C 621.2 10.9 622.5 11.5 623.5 12.7 C 625.1 14.5 625.3 17.6 625.3 23.2 Z M 615.7 17.8 C 615.7 17.8 615.7 28.7 615.7 28.7 C 615.7 30 616 30.8 616.6 31.4 C 617.1 31.9 617.7 32.2 618.5 32.2 C 619.4 32.2 620.1 31.8 620.5 31.2 C 621.4 30.2 621.5 28.2 621.5 23.2 C 621.5 18.3 621.4 16.3 620.5 15.3 C 620.1 14.7 619.4 14.3 618.5 14.3 C 617.7 14.3 617.1 14.5 616.6 15 C 616 15.6 615.7 16.5 615.7 17.8 Z M 643.1 23.2 C 643.1 28.9 642.9 31.9 641.4 33.8 C 640.3 35 639.1 35.5 637.4 35.5 C 636.4 35.5 635.6 35.3 634.8 34.8 C 634.4 34.5 633.9 34 633.5 33.5 C 633.5 33.49 633.5 44.1 633.5 44.1 L 629.8 44.1 L 629.8 11.3 L 633.4 11.3 C 633.4 11.3 633.41 13.16 633.4 13.2 C 633.7 12.6 634.4 12 634.8 11.7 C 635.6 11.2 636.4 10.9 637.4 10.9 C 639.1 10.9 640.3 11.5 641.4 12.7 C 642.9 14.5 643.1 17.6 643.1 23.2 Z M 633.5 17.8 C 633.5 17.8 633.5 28.7 633.5 28.7 C 633.5 30 633.8 30.8 634.4 31.4 C 634.9 31.9 635.6 32.2 636.4 32.2 C 637.2 32.2 637.9 31.8 638.4 31.2 C 639.3 30.2 639.4 28.2 639.4 23.2 C 639.4 18.3 639.3 16.3 638.4 15.3 C 637.9 14.7 637.2 14.3 636.4 14.3 C 635.6 14.3 634.9 14.5 634.4 15 C 633.8 15.6 633.5 16.5 633.5 17.8 Z " stroke="none" fill="#f9a41a"/>  </g></svg>