<?xml version="1.0" standalone="no"?><!DOCTYPE svg PUBLIC "-//W3C//DTD SVG 1.1//EN" "http://www.w3.org/Graphics/SVG/1.1/DTD/svg11.dtd"><svg xmlns="http://www.w3.org/2000/svg" version="1.1" width="661px" height="79.8556518554688px" viewBox="0 0 661 79.8556518554688">  <desc>About the Foreign National Inspection Report</desc>  <defs/>  <g id="Polygon26147">    <path d="M 7.9 2.4 L 11.7 2.4 L 19.3 35.1 L 15.1 35.1 L 13.6 27.4 L 5.9 27.4 L 4.4 35.1 L 0.2 35.1 L 7.9 2.4 Z M 12.8 23.9 L 9.8 8.8 L 6.7 23.9 L 12.8 23.9 Z M 25.9 13 C 26.3 12.5 26.8 12 27.2 11.7 C 28 11.2 28.8 10.9 29.8 10.9 C 31.5 10.9 32.7 11.5 33.8 12.7 C 35.3 14.5 35.5 17.6 35.5 23.2 C 35.5 28.8 35.3 31.9 33.8 33.7 C 32.7 35 31.5 35.5 29.8 35.5 C 28.8 35.5 28 35.2 27.2 34.8 C 26.8 34.5 26.1 33.8 25.8 33.3 C 25.81 33.3 25.8 35.1 25.8 35.1 L 22.2 35.1 L 22.2 2.4 L 25.9 2.4 C 25.9 2.4 25.9 12.97 25.9 13 Z M 26.8 15 C 26.2 15.6 25.9 16.5 25.9 17.8 C 25.9 17.8 25.9 28.7 25.9 28.7 C 25.9 29.9 26.2 30.8 26.8 31.4 C 27.3 31.9 28 32.2 28.7 32.2 C 29.6 32.2 30.3 31.8 30.8 31.2 C 31.6 30.2 31.7 28.2 31.7 23.2 C 31.7 18.3 31.6 16.3 30.8 15.3 C 30.3 14.7 29.6 14.3 28.7 14.3 C 28 14.3 27.3 14.5 26.8 15 Z M 51.1 13.2 C 52.6 15 52.8 18.4 52.8 23.2 C 52.8 28.1 52.6 31.4 51.1 33.3 C 49.9 34.9 48.2 35.5 46 35.5 C 43.9 35.5 42.2 34.9 41 33.3 C 39.6 31.4 39.3 28.1 39.3 23.2 C 39.3 18.4 39.6 15 41 13.2 C 42.2 11.5 43.9 10.9 46 10.9 C 48.2 10.9 49.9 11.5 51.1 13.2 Z M 44 15.3 C 43.1 16.5 43 19 43 23.2 C 43 27.5 43.1 29.9 44 31.1 C 44.4 31.8 45.2 32.2 46 32.2 C 46.9 32.2 47.7 31.8 48.2 31.1 C 49 29.9 49.1 27.5 49.1 23.2 C 49.1 19 49 16.5 48.2 15.3 C 47.7 14.7 46.9 14.3 46 14.3 C 45.2 14.3 44.4 14.7 44 15.3 Z M 70.2 35.1 L 66.7 35.1 C 66.7 35.1 66.65 33.3 66.7 33.3 C 66.3 33.9 65.7 34.5 65.2 34.8 C 64.4 35.2 63.6 35.5 62.6 35.5 C 60.8 35.5 59.6 34.9 58.6 33.8 C 57.6 32.7 57.1 31.4 57.1 28.8 C 57.13 28.84 57.1 11.3 57.1 11.3 L 60.9 11.3 C 60.9 11.3 60.86 28.84 60.9 28.8 C 60.9 31 62.1 32.2 63.7 32.2 C 65.3 32.2 66.5 31 66.5 28.8 C 66.51 28.84 66.5 11.3 66.5 11.3 L 70.2 11.3 L 70.2 35.1 Z M 78.4 33.7 C 77.1 32.6 76.4 30.8 76.4 28.3 C 76.36 28.34 76.4 14.2 76.4 14.2 L 73.6 14.2 L 73.6 11.3 L 76.4 11.3 L 76.4 4.8 L 80.1 4.8 L 80.1 11.3 L 83.8 11.3 L 83.8 14.2 L 80.1 14.2 C 80.1 14.2 80.08 28.2 80.1 28.2 C 80.1 30.7 81.4 31.8 83.9 31.8 C 83.9 31.8 83.9 35.1 83.9 35.1 C 81.8 35.1 79.9 35 78.4 33.7 Z M 99 33.7 C 97.7 32.6 96.9 30.8 96.9 28.3 C 96.92 28.34 96.9 14.2 96.9 14.2 L 94.2 14.2 L 94.2 11.3 L 96.9 11.3 L 96.9 4.8 L 100.6 4.8 L 100.6 11.3 L 104.3 11.3 L 104.3 14.2 L 100.6 14.2 C 100.6 14.2 100.65 28.2 100.6 28.2 C 100.6 30.7 102 31.8 104.5 31.8 C 104.5 31.8 104.5 35.1 104.5 35.1 C 102.3 35.1 100.5 35 99 33.7 Z M 111.7 13 C 112.1 12.5 112.6 12 113.1 11.7 C 113.8 11.2 114.7 10.9 115.6 10.9 C 117.4 10.9 118.7 11.5 119.7 12.7 C 120.7 13.8 121.1 15 121.1 17.6 C 121.12 17.62 121.1 35.1 121.1 35.1 L 117.4 35.1 C 117.4 35.1 117.39 17.62 117.4 17.6 C 117.4 15.4 116.1 14.3 114.5 14.3 C 113 14.3 111.7 15.4 111.7 17.6 C 111.73 17.62 111.7 35.1 111.7 35.1 L 108 35.1 L 108 2.4 L 111.7 2.4 C 111.7 2.4 111.73 13.02 111.7 13 Z M 129.2 24.1 C 129.2 27.9 129.3 30.1 130.1 31.1 C 130.5 31.7 131.3 32.2 132.2 32.2 C 133.1 32.2 133.8 31.9 134.4 31.2 C 135 30.5 135.1 29.6 135.1 28.5 C 135.1 28.5 138.9 28.5 138.9 28.5 C 138.8 30.7 138.3 32.3 136.9 33.8 C 135.8 35 134.2 35.5 132.2 35.5 C 130.2 35.5 128.8 35 127.5 33.7 C 125.7 31.8 125.4 28.2 125.4 23.2 C 125.4 18.2 125.7 14.7 127.5 12.8 C 128.7 11.5 130.2 10.9 132.2 10.9 C 134.1 10.9 135.6 11.5 136.8 12.8 C 138.6 14.7 139 18.2 139 24.1 C 139 24.1 129.2 24.1 129.2 24.1 Z M 134.3 15.3 C 133.8 14.7 133.2 14.3 132.2 14.3 C 131.1 14.3 130.5 14.7 130.1 15.3 C 129.3 16.1 129.2 17.8 129.2 21.3 C 129.2 21.3 135.2 21.3 135.2 21.3 C 135.2 17.8 135 16.1 134.3 15.3 Z M 165 5.9 L 156.4 5.9 L 156.4 16.9 L 163.8 16.9 L 163.8 20.5 L 156.4 20.5 L 156.4 35.1 L 152.4 35.1 L 152.4 2.4 L 165 2.4 L 165 5.9 Z M 179.2 13.2 C 180.7 15 180.9 18.4 180.9 23.2 C 180.9 28.1 180.7 31.4 179.2 33.3 C 178 34.9 176.3 35.5 174.2 35.5 C 172 35.5 170.3 34.9 169.1 33.3 C 167.7 31.4 167.4 28.1 167.4 23.2 C 167.4 18.4 167.7 15 169.1 13.2 C 170.3 11.5 172 10.9 174.2 10.9 C 176.3 10.9 178 11.5 179.2 13.2 Z M 172.1 15.3 C 171.2 16.5 171.1 19 171.1 23.2 C 171.1 27.5 171.2 29.9 172.1 31.1 C 172.5 31.8 173.3 32.2 174.2 32.2 C 175 32.2 175.8 31.8 176.3 31.1 C 177.1 29.9 177.2 27.5 177.2 23.2 C 177.2 19 177.1 16.5 176.3 15.3 C 175.8 14.7 175 14.3 174.2 14.3 C 173.3 14.3 172.5 14.7 172.1 15.3 Z M 194.6 14.5 C 194.6 14.5 193.47 14.54 193.5 14.5 C 190.9 14.5 189.1 16.2 189.1 18.9 C 189.15 18.91 189.1 35.1 189.1 35.1 L 185.4 35.1 L 185.4 11.3 L 189 11.3 C 189 11.3 189.01 13.85 189 13.8 C 189.4 13.2 190.1 12.6 190.7 12.1 C 191.8 11.4 193.1 10.9 194.6 10.9 C 194.58 10.95 194.6 14.5 194.6 14.5 Z M 200.7 24.1 C 200.7 27.9 200.8 30.1 201.7 31.1 C 202.1 31.7 202.8 32.2 203.8 32.2 C 204.6 32.2 205.3 31.9 205.9 31.2 C 206.5 30.5 206.7 29.6 206.7 28.5 C 206.7 28.5 210.4 28.5 210.4 28.5 C 210.4 30.7 209.8 32.3 208.5 33.8 C 207.3 35 205.7 35.5 203.8 35.5 C 201.8 35.5 200.3 35 199 33.7 C 197.2 31.8 196.9 28.2 196.9 23.2 C 196.9 18.2 197.2 14.7 199 12.8 C 200.2 11.5 201.8 10.9 203.7 10.9 C 205.6 10.9 207.1 11.5 208.4 12.8 C 210.2 14.7 210.5 18.2 210.5 24.1 C 210.5 24.1 200.7 24.1 200.7 24.1 Z M 205.8 15.3 C 205.3 14.7 204.7 14.3 203.7 14.3 C 202.7 14.3 202.1 14.7 201.6 15.3 C 200.9 16.1 200.7 17.8 200.7 21.3 C 200.7 21.3 206.7 21.3 206.7 21.3 C 206.7 17.8 206.5 16.1 205.8 15.3 Z M 218.7 35.1 L 215 35.1 L 215 11.3 L 218.7 11.3 L 218.7 35.1 Z M 219 7.1 L 214.7 7.1 L 214.7 2.8 L 219 2.8 L 219 7.1 Z M 231.6 11.7 C 232.1 12 232.6 12.5 232.9 13 C 232.94 12.97 232.9 11.3 232.9 11.3 L 236.5 11.3 C 236.5 11.3 236.53 35.97 236.5 36 C 236.5 39.5 235.9 41.2 234.6 42.6 C 233.5 43.7 231.7 44.4 229.9 44.4 C 228.1 44.4 226.4 43.9 225.2 42.7 C 223.8 41.4 223.3 39.7 223.3 37.6 C 223.3 37.6 227.1 37.6 227.1 37.6 C 227.1 38.8 227.2 39.7 227.9 40.4 C 228.3 41 229.1 41.2 229.9 41.2 C 230.8 41.2 231.5 40.8 231.9 40.3 C 232.6 39.6 232.8 38.4 232.8 36.2 C 232.8 36.2 232.8 32.7 232.8 32.7 C 232.5 33.2 232 33.7 231.5 34 C 230.8 34.5 230 34.8 229 34.8 C 227.4 34.8 226.1 34.2 225.1 33 C 223.6 31.3 223.2 28.7 223.2 22.9 C 223.2 17 223.6 14.4 225.1 12.6 C 226.1 11.5 227.3 10.9 229 10.9 C 230 10.9 230.9 11.2 231.6 11.7 Z M 227.9 15.3 C 227.1 16.3 227 18.1 227 22.9 C 227 27.7 227.1 29.5 227.9 30.5 C 228.4 31.1 229.1 31.5 229.9 31.5 C 230.7 31.5 231.4 31.2 231.9 30.8 C 232.5 30.2 232.8 29.3 232.8 28 C 232.8 28 232.8 17.8 232.8 17.8 C 232.8 16.5 232.5 15.6 231.9 15 C 231.4 14.5 230.7 14.3 229.9 14.3 C 229.1 14.3 228.4 14.7 227.9 15.3 Z M 253.5 12.7 C 254.4 13.8 254.9 15 254.9 17.6 C 254.88 17.62 254.9 35.1 254.9 35.1 L 251.2 35.1 C 251.2 35.1 251.16 17.62 251.2 17.6 C 251.2 15.5 249.9 14.3 248.3 14.3 C 246.7 14.3 245.5 15.5 245.5 17.6 C 245.5 17.62 245.5 35.1 245.5 35.1 L 241.8 35.1 L 241.8 11.3 L 245.4 11.3 C 245.4 11.3 245.36 13.16 245.4 13.2 C 245.7 12.6 246.3 12 246.8 11.7 C 247.6 11.2 248.4 10.9 249.4 10.9 C 251.2 10.9 252.4 11.5 253.5 12.7 Z M 284.9 35.1 L 281.3 35.1 L 272.8 12.7 L 272.8 35.1 L 268.9 35.1 L 268.9 2.4 L 272.5 2.4 L 280.9 24.8 L 280.9 2.4 L 284.9 2.4 L 284.9 35.1 Z M 300.7 12.6 C 301.9 13.8 302.6 15.4 302.6 17.8 C 302.63 17.85 302.6 35.1 302.6 35.1 L 299.1 35.1 C 299.1 35.1 299.09 33.03 299.1 33 C 298.7 33.7 298.2 34.3 297.7 34.6 C 297 35.2 296.2 35.5 294.9 35.5 C 293.2 35.5 291.9 35 290.8 33.7 C 289.9 32.7 289.3 30.9 289.3 28.4 C 289.3 26.2 290 24.2 291.4 23 C 292.6 21.9 294 21.4 296.5 21.4 C 296.46 21.39 298.9 21.4 298.9 21.4 C 298.9 21.4 298.9 17.62 298.9 17.6 C 298.9 15.4 297.9 14.2 296.1 14.2 C 295.3 14.2 294.7 14.5 294.3 15 C 293.6 15.7 293.4 16.5 293.4 17.8 C 293.4 17.8 289.7 17.8 289.7 17.8 C 289.7 15.9 290.1 14.1 291.5 12.7 C 292.6 11.6 294.3 10.9 296.1 10.9 C 298 10.9 299.6 11.5 300.7 12.6 Z M 296.8 24.1 C 295.6 24.1 294.9 24.3 294.1 25 C 293.4 25.6 293 27 293 28.2 C 293 30.7 294 32.2 295.9 32.2 C 297.7 32.2 298.9 30.7 298.9 28.5 C 298.9 28.52 298.9 24.1 298.9 24.1 C 298.9 24.1 296.79 24.1 296.8 24.1 Z M 310.6 33.7 C 309.3 32.6 308.6 30.8 308.6 28.3 C 308.56 28.34 308.6 14.2 308.6 14.2 L 305.8 14.2 L 305.8 11.3 L 308.6 11.3 L 308.6 4.8 L 312.3 4.8 L 312.3 11.3 L 316 11.3 L 316 14.2 L 312.3 14.2 C 312.3 14.2 312.29 28.2 312.3 28.2 C 312.3 30.7 313.6 31.8 316.1 31.8 C 316.1 31.8 316.1 35.1 316.1 35.1 C 314 35.1 312.2 35 310.6 33.7 Z M 323.4 35.1 L 319.6 35.1 L 319.6 11.3 L 323.4 11.3 L 323.4 35.1 Z M 323.7 7.1 L 319.3 7.1 L 319.3 2.8 L 323.7 2.8 L 323.7 7.1 Z M 339.7 13.2 C 341.2 15 341.4 18.4 341.4 23.2 C 341.4 28.1 341.2 31.4 339.7 33.3 C 338.5 34.9 336.8 35.5 334.6 35.5 C 332.5 35.5 330.8 34.9 329.6 33.3 C 328.2 31.4 327.9 28.1 327.9 23.2 C 327.9 18.4 328.2 15 329.6 13.2 C 330.8 11.5 332.5 10.9 334.6 10.9 C 336.8 10.9 338.5 11.5 339.7 13.2 Z M 332.6 15.3 C 331.7 16.5 331.6 19 331.6 23.2 C 331.6 27.5 331.7 29.9 332.6 31.1 C 333 31.8 333.8 32.2 334.6 32.2 C 335.5 32.2 336.3 31.8 336.8 31.1 C 337.6 29.9 337.7 27.5 337.7 23.2 C 337.7 19 337.6 16.5 336.8 15.3 C 336.3 14.7 335.5 14.3 334.6 14.3 C 333.8 14.3 333 14.7 332.6 15.3 Z M 357.6 12.7 C 358.6 13.8 359 15 359 17.6 C 359.02 17.62 359 35.1 359 35.1 L 355.3 35.1 C 355.3 35.1 355.3 17.62 355.3 17.6 C 355.3 15.5 354 14.3 352.4 14.3 C 350.9 14.3 349.6 15.5 349.6 17.6 C 349.64 17.62 349.6 35.1 349.6 35.1 L 345.9 35.1 L 345.9 11.3 L 349.5 11.3 C 349.5 11.3 349.5 13.16 349.5 13.2 C 349.8 12.6 350.5 12 351 11.7 C 351.7 11.2 352.6 10.9 353.5 10.9 C 355.3 10.9 356.6 11.5 357.6 12.7 Z M 374.4 12.6 C 375.5 13.8 376.3 15.4 376.3 17.8 C 376.27 17.85 376.3 35.1 376.3 35.1 L 372.7 35.1 C 372.7 35.1 372.73 33.03 372.7 33 C 372.4 33.7 371.8 34.3 371.4 34.6 C 370.6 35.2 369.8 35.5 368.5 35.5 C 366.8 35.5 365.6 35 364.5 33.7 C 363.5 32.7 362.9 30.9 362.9 28.4 C 362.9 26.2 363.7 24.2 365 23 C 366.2 21.9 367.6 21.4 370.1 21.4 C 370.11 21.39 372.5 21.4 372.5 21.4 C 372.5 21.4 372.55 17.62 372.5 17.6 C 372.5 15.4 371.6 14.2 369.7 14.2 C 368.9 14.2 368.4 14.5 367.9 15 C 367.3 15.7 367 16.5 367 17.8 C 367 17.8 363.3 17.8 363.3 17.8 C 363.3 15.9 363.7 14.1 365.1 12.7 C 366.2 11.6 367.9 10.9 369.7 10.9 C 371.7 10.9 373.3 11.5 374.4 12.6 Z M 370.4 24.1 C 369.3 24.1 368.5 24.3 367.8 25 C 367.1 25.6 366.7 27 366.7 28.2 C 366.7 30.7 367.6 32.2 369.6 32.2 C 371.4 32.2 372.5 30.7 372.5 28.5 C 372.55 28.52 372.5 24.1 372.5 24.1 C 372.5 24.1 370.43 24.1 370.4 24.1 Z M 384.9 28.2 C 384.9 30.5 386 31.8 388.4 31.8 C 388.4 31.8 388.4 35.1 388.4 35.1 C 386.4 35.1 384.7 34.9 383.3 33.7 C 382 32.6 381.1 31 381.1 28.3 C 381.15 28.34 381.1 2.4 381.1 2.4 L 384.9 2.4 C 384.9 2.4 384.88 28.2 384.9 28.2 Z M 404.7 35.1 L 400.7 35.1 L 400.7 2.4 L 404.7 2.4 L 404.7 35.1 Z M 422 12.7 C 422.9 13.8 423.4 15 423.4 17.6 C 423.38 17.62 423.4 35.1 423.4 35.1 L 419.7 35.1 C 419.7 35.1 419.65 17.62 419.7 17.6 C 419.7 15.5 418.4 14.3 416.8 14.3 C 415.2 14.3 414 15.5 414 17.6 C 413.99 17.62 414 35.1 414 35.1 L 410.3 35.1 L 410.3 11.3 L 413.9 11.3 C 413.9 11.3 413.85 13.16 413.9 13.2 C 414.2 12.6 414.8 12 415.3 11.7 C 416.1 11.2 416.9 10.9 417.9 10.9 C 419.7 10.9 420.9 11.5 422 12.7 Z M 438.7 12.6 C 439.9 13.8 440.6 15.5 440.6 17.9 C 440.6 17.9 436.9 17.9 436.9 17.9 C 436.9 16.5 436.7 15.7 436.1 15 C 435.5 14.4 434.8 14.2 434 14.2 C 433.2 14.2 432.5 14.5 432 15 C 431.4 15.6 431.1 16.4 431.1 17.3 C 431.1 18 431.2 18.5 431.5 19 C 431.8 19.6 432.5 20.1 433.5 20.6 C 433.5 20.6 436.5 22.1 436.5 22.1 C 438.1 22.9 439.2 23.7 439.9 24.8 C 440.5 25.8 440.9 27.1 440.9 28.7 C 440.9 30.8 440.1 32.4 438.9 33.6 C 437.6 35 435.9 35.5 434 35.5 C 432.1 35.5 430.4 34.9 429.2 33.7 C 427.8 32.2 427.2 30.6 427.2 28.4 C 427.2 28.4 430.9 28.4 430.9 28.4 C 430.9 29.7 431.2 30.6 431.9 31.3 C 432.4 31.9 433.3 32.2 434 32.2 C 435 32.2 435.7 31.9 436.3 31.3 C 436.8 30.7 437.2 29.9 437.2 28.9 C 437.2 28.1 437 27.4 436.6 26.7 C 436.1 26 435.4 25.5 434.5 25 C 434.5 25 431.4 23.5 431.4 23.5 C 429.8 22.7 428.7 21.7 428.1 20.7 C 427.6 19.8 427.4 18.8 427.4 17.6 C 427.4 15.5 428.2 13.9 429.4 12.7 C 430.6 11.5 432.2 10.9 434 10.9 C 435.9 10.9 437.5 11.5 438.7 12.6 Z M 458.3 23.2 C 458.3 28.9 458.1 31.9 456.5 33.8 C 455.5 35 454.2 35.5 452.6 35.5 C 451.6 35.5 450.7 35.3 450 34.8 C 449.5 34.5 449 34 448.7 33.5 C 448.68 33.49 448.7 44.1 448.7 44.1 L 444.9 44.1 L 444.9 11.3 L 448.6 11.3 C 448.6 11.3 448.58 13.16 448.6 13.2 C 448.9 12.6 449.5 12 450 11.7 C 450.7 11.2 451.6 10.9 452.6 10.9 C 454.2 10.9 455.5 11.5 456.5 12.7 C 458.1 14.5 458.3 17.6 458.3 23.2 Z M 448.7 17.8 C 448.7 17.8 448.7 28.7 448.7 28.7 C 448.7 30 449 30.8 449.6 31.4 C 450.1 31.9 450.7 32.2 451.5 32.2 C 452.4 32.2 453.1 31.8 453.6 31.2 C 454.4 30.2 454.6 28.2 454.6 23.2 C 454.6 18.3 454.4 16.3 453.6 15.3 C 453.1 14.7 452.4 14.3 451.5 14.3 C 450.7 14.3 450.1 14.5 449.6 15 C 449 15.6 448.7 16.5 448.7 17.8 Z M 465.8 24.1 C 465.8 27.9 465.9 30.1 466.8 31.1 C 467.2 31.7 467.9 32.2 468.9 32.2 C 469.7 32.2 470.4 31.9 471 31.2 C 471.6 30.5 471.8 29.6 471.8 28.5 C 471.8 28.5 475.5 28.5 475.5 28.5 C 475.4 30.7 474.9 32.3 473.6 33.8 C 472.4 35 470.8 35.5 468.9 35.5 C 466.8 35.5 465.4 35 464.1 33.7 C 462.3 31.8 462 28.2 462 23.2 C 462 18.2 462.3 14.7 464.1 12.8 C 465.3 11.5 466.8 10.9 468.8 10.9 C 470.7 10.9 472.2 11.5 473.5 12.8 C 475.3 14.7 475.6 18.2 475.6 24.1 C 475.6 24.1 465.8 24.1 465.8 24.1 Z M 470.9 15.3 C 470.4 14.7 469.8 14.3 468.8 14.3 C 467.8 14.3 467.2 14.7 466.7 15.3 C 466 16.1 465.8 17.8 465.8 21.3 C 465.8 21.3 471.8 21.3 471.8 21.3 C 471.8 17.8 471.6 16.1 470.9 15.3 Z M 481.1 13.2 C 482.3 11.5 484.1 10.9 486.1 10.9 C 488.1 10.9 489.5 11.4 490.8 12.6 C 492.2 13.9 492.7 15.9 492.7 17.9 C 492.7 17.9 489 17.9 489 17.9 C 489 17 488.9 16 488.2 15.2 C 487.7 14.6 487.1 14.3 486.2 14.3 C 485.3 14.3 484.5 14.7 484 15.3 C 483.2 16.5 483.1 18.9 483.1 23.2 C 483.1 27.6 483.2 30 484 31.2 C 484.5 31.8 485.3 32.2 486.2 32.2 C 487.1 32.2 487.7 31.9 488.2 31.3 C 488.9 30.5 489 29.5 489 28.5 C 489 28.5 492.7 28.5 492.7 28.5 C 492.7 30.5 492.2 32.5 490.8 33.9 C 489.5 35.1 488.1 35.5 486.1 35.5 C 484.1 35.5 482.3 34.9 481.1 33.3 C 479.6 31.4 479.4 28.1 479.4 23.2 C 479.4 18.4 479.6 15 481.1 13.2 Z M 499.8 33.7 C 498.4 32.6 497.7 30.8 497.7 28.3 C 497.71 28.34 497.7 14.2 497.7 14.2 L 495 14.2 L 495 11.3 L 497.7 11.3 L 497.7 4.8 L 501.4 4.8 L 501.4 11.3 L 505.1 11.3 L 505.1 14.2 L 501.4 14.2 C 501.4 14.2 501.44 28.2 501.4 28.2 C 501.4 30.7 502.8 31.8 505.3 31.8 C 505.3 31.8 505.3 35.1 505.3 35.1 C 503.1 35.1 501.3 35 499.8 33.7 Z M 512.5 35.1 L 508.8 35.1 L 508.8 11.3 L 512.5 11.3 L 512.5 35.1 Z M 512.8 7.1 L 508.5 7.1 L 508.5 2.8 L 512.8 2.8 L 512.8 7.1 Z M 528.9 13.2 C 530.3 15 530.6 18.4 530.6 23.2 C 530.6 28.1 530.3 31.4 528.9 33.3 C 527.7 34.9 525.9 35.5 523.8 35.5 C 521.7 35.5 520 34.9 518.8 33.3 C 517.3 31.4 517 28.1 517 23.2 C 517 18.4 517.3 15 518.8 13.2 C 520 11.5 521.7 10.9 523.8 10.9 C 525.9 10.9 527.7 11.5 528.9 13.2 Z M 521.7 15.3 C 520.8 16.5 520.8 19 520.8 23.2 C 520.8 27.5 520.8 29.9 521.7 31.1 C 522.2 31.8 522.9 32.2 523.8 32.2 C 524.7 32.2 525.4 31.8 525.9 31.1 C 526.8 29.9 526.8 27.5 526.8 23.2 C 526.8 19 526.8 16.5 525.9 15.3 C 525.4 14.7 524.7 14.3 523.8 14.3 C 522.9 14.3 522.2 14.7 521.7 15.3 Z M 546.7 12.7 C 547.7 13.8 548.2 15 548.2 17.6 C 548.17 17.62 548.2 35.1 548.2 35.1 L 544.4 35.1 C 544.4 35.1 544.45 17.62 544.4 17.6 C 544.4 15.5 543.2 14.3 541.6 14.3 C 540 14.3 538.8 15.5 538.8 17.6 C 538.79 17.62 538.8 35.1 538.8 35.1 L 535.1 35.1 L 535.1 11.3 L 538.6 11.3 C 538.6 11.3 538.65 13.16 538.6 13.2 C 539 12.6 539.6 12 540.1 11.7 C 540.9 11.2 541.7 10.9 542.7 10.9 C 544.5 10.9 545.7 11.5 546.7 12.7 Z M 569.6 2.4 C 574.5 2.4 577.3 4.6 577.3 11.7 C 577.3 16.3 576.2 19 573.3 20.3 C 573.33 20.29 578.3 35.1 578.3 35.1 L 574.2 35.1 L 569.7 21.1 L 566.1 21.1 L 566.1 35.1 L 562.2 35.1 L 562.2 2.4 C 562.2 2.4 569.56 2.39 569.6 2.4 Z M 566.1 5.9 L 566.1 17.6 C 566.1 17.6 569.61 17.57 569.6 17.6 C 572.6 17.6 573.3 15.2 573.3 11.7 C 573.3 8.2 572.6 5.9 569.6 5.9 C 569.61 5.93 566.1 5.9 566.1 5.9 Z M 584.8 24.1 C 584.8 27.9 585 30.1 585.8 31.1 C 586.2 31.7 586.9 32.2 587.9 32.2 C 588.7 32.2 589.4 31.9 590 31.2 C 590.6 30.5 590.8 29.6 590.8 28.5 C 590.8 28.5 594.5 28.5 594.5 28.5 C 594.5 30.7 593.9 32.3 592.6 33.8 C 591.5 35 589.8 35.5 587.9 35.5 C 585.9 35.5 584.4 35 583.2 33.7 C 581.4 31.8 581.1 28.2 581.1 23.2 C 581.1 18.2 581.4 14.7 583.1 12.8 C 584.4 11.5 585.9 10.9 587.8 10.9 C 589.8 10.9 591.3 11.5 592.5 12.8 C 594.3 14.7 594.6 18.2 594.6 24.1 C 594.6 24.1 584.8 24.1 584.8 24.1 Z M 589.9 15.3 C 589.5 14.7 588.8 14.3 587.8 14.3 C 586.8 14.3 586.2 14.7 585.8 15.3 C 585 16.1 584.8 17.8 584.8 21.3 C 584.8 21.3 590.9 21.3 590.9 21.3 C 590.9 17.8 590.7 16.1 589.9 15.3 Z M 612.5 23.2 C 612.5 28.9 612.3 31.9 610.7 33.8 C 609.7 35 608.4 35.5 606.8 35.5 C 605.8 35.5 604.9 35.3 604.2 34.8 C 603.7 34.5 603.2 34 602.9 33.5 C 602.86 33.49 602.9 44.1 602.9 44.1 L 599.1 44.1 L 599.1 11.3 L 602.8 11.3 C 602.8 11.3 602.77 13.16 602.8 13.2 C 603 12.6 603.7 12 604.2 11.7 C 604.9 11.2 605.8 10.9 606.8 10.9 C 608.4 10.9 609.7 11.5 610.7 12.7 C 612.3 14.5 612.5 17.6 612.5 23.2 Z M 602.9 17.8 C 602.9 17.8 602.9 28.7 602.9 28.7 C 602.9 30 603.2 30.8 603.8 31.4 C 604.3 31.9 604.9 32.2 605.7 32.2 C 606.6 32.2 607.3 31.8 607.7 31.2 C 608.6 30.2 608.8 28.2 608.8 23.2 C 608.8 18.3 608.6 16.3 607.7 15.3 C 607.3 14.7 606.6 14.3 605.7 14.3 C 604.9 14.3 604.3 14.5 603.8 15 C 603.2 15.6 602.9 16.5 602.9 17.8 Z M 628.1 13.2 C 629.5 15 629.8 18.4 629.8 23.2 C 629.8 28.1 629.5 31.4 628.1 33.3 C 626.9 34.9 625.1 35.5 623 35.5 C 620.9 35.5 619.2 34.9 618 33.3 C 616.5 31.4 616.2 28.1 616.2 23.2 C 616.2 18.4 616.5 15 618 13.2 C 619.2 11.5 620.9 10.9 623 10.9 C 625.1 10.9 626.9 11.5 628.1 13.2 Z M 620.9 15.3 C 620.1 16.5 620 19 620 23.2 C 620 27.5 620.1 29.9 620.9 31.1 C 621.4 31.8 622.1 32.2 623 32.2 C 623.9 32.2 624.7 31.8 625.1 31.1 C 626 29.9 626 27.5 626 23.2 C 626 19 626 16.5 625.1 15.3 C 624.7 14.7 623.9 14.3 623 14.3 C 622.1 14.3 621.4 14.7 620.9 15.3 Z M 643.4 14.5 C 643.4 14.5 642.33 14.54 642.3 14.5 C 639.8 14.5 638 16.2 638 18.9 C 638.01 18.91 638 35.1 638 35.1 L 634.3 35.1 L 634.3 11.3 L 637.9 11.3 C 637.9 11.3 637.87 13.85 637.9 13.8 C 638.2 13.2 638.9 12.6 639.5 12.1 C 640.6 11.4 641.9 10.9 643.4 10.9 C 643.44 10.95 643.4 14.5 643.4 14.5 Z M 649.7 33.7 C 648.4 32.6 647.7 30.8 647.7 28.3 C 647.67 28.34 647.7 14.2 647.7 14.2 L 645 14.2 L 645 11.3 L 647.7 11.3 L 647.7 4.8 L 651.4 4.8 L 651.4 11.3 L 655.1 11.3 L 655.1 14.2 L 651.4 14.2 C 651.4 14.2 651.39 28.2 651.4 28.2 C 651.4 30.7 652.7 31.8 655.2 31.8 C 655.2 31.8 655.2 35.1 655.2 35.1 C 653.1 35.1 651.3 35 649.7 33.7 Z " stroke="none" fill="#f9a41a"/>  </g></svg>