<?xml version="1.0" standalone="no"?><!DOCTYPE svg PUBLIC "-//W3C//DTD SVG 1.1//EN" "http://www.w3.org/Graphics/SVG/1.1/DTD/svg11.dtd"><svg xmlns="http://www.w3.org/2000/svg" version="1.1" width="136px" height="32.7198486328125px" viewBox="0 0 136 32.7198486328125">  <desc>Case Vetting</desc>  <defs/>  <g id="Polygon26074">    <path d="M 6.7 1.7 C 7.3 2.4 7.7 3.4 7.7 4.5 C 7.7 4.5 6 4.5 6 4.5 C 6 3.9 5.9 3.3 5.5 2.9 C 5.3 2.6 5 2.4 4.4 2.4 C 3.9 2.4 3.5 2.6 3.2 3 C 2.7 3.6 2.7 4.8 2.7 8.2 C 2.7 11.5 2.7 12.7 3.2 13.4 C 3.5 13.7 3.9 13.9 4.4 13.9 C 5 13.9 5.3 13.7 5.5 13.4 C 5.9 13 6 12.4 6 11.8 C 6 11.8 7.7 11.8 7.7 11.8 C 7.7 13 7.3 14 6.6 14.7 C 6.1 15.2 5.4 15.4 4.4 15.4 C 3.3 15.4 2.5 15 2 14.4 C 1 13.3 0.9 12.1 0.9 8.2 C 0.9 4.2 1 3 2 1.9 C 2.5 1.3 3.3 0.9 4.4 0.9 C 5.4 0.9 6.1 1.2 6.7 1.7 Z M 14.1 5.5 C 14.6 6 14.9 6.7 14.9 7.8 C 14.9 7.76 14.9 15.3 14.9 15.3 L 13.4 15.3 C 13.4 15.3 13.36 14.36 13.4 14.4 C 13.2 14.6 13 14.9 12.8 15.1 C 12.4 15.3 12.1 15.4 11.5 15.4 C 10.8 15.4 10.2 15.2 9.8 14.7 C 9.4 14.2 9.1 13.4 9.1 12.3 C 9.1 11.4 9.4 10.5 10 10 C 10.5 9.5 11.1 9.3 12.2 9.3 C 12.22 9.3 13.3 9.3 13.3 9.3 C 13.3 9.3 13.28 7.66 13.3 7.7 C 13.3 6.7 12.9 6.2 12.1 6.2 C 11.7 6.2 11.5 6.3 11.3 6.5 C 11 6.8 10.9 7.2 10.9 7.7 C 10.9 7.7 9.3 7.7 9.3 7.7 C 9.3 6.9 9.4 6.1 10.1 5.5 C 10.5 5.1 11.3 4.8 12.1 4.8 C 12.9 4.8 13.6 5 14.1 5.5 Z M 12.4 10.5 C 11.9 10.5 11.5 10.6 11.2 10.9 C 10.9 11.1 10.7 11.7 10.7 12.3 C 10.7 13.4 11.1 14 12 14 C 12.8 14 13.3 13.4 13.3 12.4 C 13.28 12.4 13.3 10.5 13.3 10.5 C 13.3 10.5 12.36 10.48 12.4 10.5 Z M 21.6 5.5 C 22.1 6 22.4 6.8 22.4 7.8 C 22.4 7.8 20.8 7.8 20.8 7.8 C 20.8 7.2 20.7 6.8 20.4 6.5 C 20.2 6.3 19.9 6.2 19.5 6.2 C 19.2 6.2 18.9 6.3 18.6 6.5 C 18.4 6.8 18.3 7.1 18.3 7.5 C 18.3 7.8 18.3 8.1 18.4 8.3 C 18.6 8.5 18.9 8.8 19.3 9 C 19.3 9 20.6 9.6 20.6 9.6 C 21.3 10 21.8 10.3 22.1 10.8 C 22.4 11.2 22.5 11.8 22.5 12.5 C 22.5 13.4 22.2 14.1 21.6 14.6 C 21.1 15.2 20.4 15.4 19.5 15.4 C 18.7 15.4 17.9 15.2 17.4 14.6 C 16.8 14 16.6 13.3 16.6 12.4 C 16.6 12.4 18.2 12.4 18.2 12.4 C 18.2 12.9 18.3 13.3 18.6 13.6 C 18.8 13.9 19.2 14 19.5 14 C 19.9 14 20.2 13.9 20.5 13.6 C 20.7 13.4 20.9 13 20.9 12.6 C 20.9 12.2 20.8 11.9 20.6 11.6 C 20.4 11.3 20.1 11.1 19.7 10.9 C 19.7 10.9 18.4 10.2 18.4 10.2 C 17.7 9.9 17.2 9.4 17 9 C 16.7 8.6 16.6 8.2 16.6 7.6 C 16.6 6.7 17 6.1 17.5 5.5 C 18 5 18.7 4.8 19.5 4.8 C 20.4 4.8 21.1 5 21.6 5.5 Z M 25.6 10.5 C 25.6 12.1 25.6 13.1 26 13.5 C 26.2 13.8 26.5 14 26.9 14 C 27.3 14 27.6 13.9 27.8 13.6 C 28.1 13.3 28.2 12.9 28.2 12.4 C 28.2 12.4 29.8 12.4 29.8 12.4 C 29.8 13.3 29.5 14.1 29 14.7 C 28.5 15.2 27.8 15.4 26.9 15.4 C 26 15.4 25.4 15.2 24.9 14.6 C 24.1 13.8 23.9 12.3 23.9 10.1 C 23.9 7.9 24.1 6.4 24.8 5.6 C 25.4 5 26 4.8 26.9 4.8 C 27.7 4.8 28.4 5 28.9 5.6 C 29.7 6.4 29.8 7.9 29.8 10.5 C 29.8 10.5 25.6 10.5 25.6 10.5 Z M 27.8 6.6 C 27.6 6.4 27.3 6.2 26.9 6.2 C 26.4 6.2 26.2 6.4 26 6.6 C 25.7 7 25.6 7.8 25.6 9.3 C 25.6 9.3 28.2 9.3 28.2 9.3 C 28.2 7.8 28.1 7 27.8 6.6 Z M 36.4 1 L 38.3 12.5 L 40.3 1 L 42.2 1 L 39.2 15.3 L 37.4 15.3 L 34.5 1 L 36.4 1 Z M 44.3 10.5 C 44.3 12.1 44.3 13.1 44.7 13.5 C 44.9 13.8 45.2 14 45.6 14 C 46 14 46.3 13.9 46.5 13.6 C 46.8 13.3 46.9 12.9 46.9 12.4 C 46.9 12.4 48.5 12.4 48.5 12.4 C 48.5 13.3 48.2 14.1 47.6 14.7 C 47.1 15.2 46.4 15.4 45.6 15.4 C 44.7 15.4 44.1 15.2 43.5 14.6 C 42.8 13.8 42.6 12.3 42.6 10.1 C 42.6 7.9 42.8 6.4 43.5 5.6 C 44.1 5 44.7 4.8 45.6 4.8 C 46.4 4.8 47.1 5 47.6 5.6 C 48.4 6.4 48.5 7.9 48.5 10.5 C 48.5 10.5 44.3 10.5 44.3 10.5 Z M 46.5 6.6 C 46.3 6.4 46 6.2 45.6 6.2 C 45.1 6.2 44.9 6.4 44.7 6.6 C 44.3 7 44.3 7.8 44.3 9.3 C 44.3 9.3 46.9 9.3 46.9 9.3 C 46.9 7.8 46.8 7 46.5 6.6 Z M 51.7 14.6 C 51.1 14.2 50.8 13.4 50.8 12.3 C 50.82 12.32 50.8 6.2 50.8 6.2 L 49.6 6.2 L 49.6 4.9 L 50.8 4.9 L 50.8 2.1 L 52.4 2.1 L 52.4 4.9 L 54 4.9 L 54 6.2 L 52.4 6.2 C 52.4 6.2 52.44 12.26 52.4 12.3 C 52.4 13.4 53 13.8 54.1 13.8 C 54.1 13.8 54.1 15.3 54.1 15.3 C 53.2 15.3 52.4 15.2 51.7 14.6 Z M 56.9 14.6 C 56.3 14.2 56 13.4 56 12.3 C 56.02 12.32 56 6.2 56 6.2 L 54.8 6.2 L 54.8 4.9 L 56 4.9 L 56 2.1 L 57.6 2.1 L 57.6 4.9 L 59.2 4.9 L 59.2 6.2 L 57.6 6.2 C 57.6 6.2 57.64 12.26 57.6 12.3 C 57.6 13.4 58.2 13.8 59.3 13.8 C 59.3 13.8 59.3 15.3 59.3 15.3 C 58.4 15.3 57.6 15.2 56.9 14.6 Z M 62.5 15.3 L 60.8 15.3 L 60.8 4.9 L 62.5 4.9 L 62.5 15.3 Z M 62.6 3.1 L 60.7 3.1 L 60.7 1.2 L 62.6 1.2 L 62.6 3.1 Z M 69.8 5.5 C 70.2 6 70.4 6.5 70.4 7.7 C 70.44 7.66 70.4 15.3 70.4 15.3 L 68.8 15.3 C 68.8 15.3 68.82 7.66 68.8 7.7 C 68.8 6.7 68.3 6.2 67.6 6.2 C 66.9 6.2 66.4 6.7 66.4 7.7 C 66.36 7.66 66.4 15.3 66.4 15.3 L 64.7 15.3 L 64.7 4.9 L 66.3 4.9 C 66.3 4.9 66.3 5.72 66.3 5.7 C 66.4 5.5 66.7 5.2 66.9 5.1 C 67.3 4.9 67.6 4.8 68.1 4.8 C 68.8 4.8 69.4 5 69.8 5.5 Z M 75.9 5.1 C 76.2 5.2 76.4 5.4 76.5 5.6 C 76.54 5.64 76.5 4.9 76.5 4.9 L 78.1 4.9 C 78.1 4.9 78.1 15.64 78.1 15.6 C 78.1 17.2 77.8 17.9 77.3 18.5 C 76.8 19 76 19.3 75.2 19.3 C 74.4 19.3 73.7 19.1 73.2 18.6 C 72.6 18 72.4 17.2 72.4 16.3 C 72.4 16.3 74 16.3 74 16.3 C 74 16.9 74 17.3 74.3 17.6 C 74.5 17.8 74.9 17.9 75.2 17.9 C 75.6 17.9 75.9 17.8 76.1 17.5 C 76.4 17.2 76.5 16.7 76.5 15.7 C 76.5 15.7 76.5 14.2 76.5 14.2 C 76.3 14.4 76.1 14.7 75.9 14.8 C 75.6 15 75.3 15.1 74.8 15.1 C 74.1 15.1 73.6 14.9 73.1 14.4 C 72.5 13.6 72.3 12.5 72.3 9.9 C 72.3 7.4 72.5 6.3 73.1 5.5 C 73.6 5 74.1 4.8 74.8 4.8 C 75.3 4.8 75.6 4.9 75.9 5.1 Z M 74.4 6.6 C 74 7.1 73.9 7.9 73.9 10 C 73.9 12 74 12.8 74.4 13.3 C 74.6 13.5 74.9 13.7 75.2 13.7 C 75.6 13.7 75.9 13.6 76.1 13.4 C 76.4 13.1 76.5 12.7 76.5 12.2 C 76.5 12.2 76.5 7.7 76.5 7.7 C 76.5 7.2 76.4 6.8 76.1 6.5 C 75.9 6.3 75.6 6.2 75.2 6.2 C 74.9 6.2 74.6 6.4 74.4 6.6 Z " stroke="none" fill="#840028"/>  </g></svg>