<?xml version="1.0" standalone="no"?><!DOCTYPE svg PUBLIC "-//W3C//DTD SVG 1.1//EN" "http://www.w3.org/Graphics/SVG/1.1/DTD/svg11.dtd"><svg xmlns="http://www.w3.org/2000/svg" version="1.1" width="1114px" height="235.079772949219px" viewBox="0 0 1114 235.079772949219">  <desc>Lincoln will order and schedule the Inspection Report when your case is submitted. Please be mindful of requesting th...</desc>  <defs/>  <g id="Polygon27070">    <path d="M 2 183 C 2 183 10.47 172.29 10.5 172.3 C 11.3 171.2 11.7 170.3 11.7 169.1 C 11.7 166.8 10.3 165.3 7.9 165.3 C 6 165.3 4.2 166.4 4.2 169.2 C 4.2 169.2 2.1 169.2 2.1 169.2 C 2.1 165.8 4.4 163.4 7.9 163.4 C 11.5 163.4 13.8 165.6 13.8 169.1 C 13.8 170.8 13.3 172 12.1 173.5 C 12.12 173.46 4.7 183 4.7 183 L 13.8 183 L 13.8 184.9 L 2 184.9 L 2 183 Z M 21.1 184.9 L 18.3 184.9 L 18.3 182.1 L 21.1 182.1 L 21.1 184.9 Z M 45.5 165.6 L 39.4 165.6 L 39.4 184.9 L 37.1 184.9 L 37.1 165.6 L 30.9 165.6 L 30.9 163.6 L 45.5 163.6 L 45.5 165.6 Z M 51.3 171.8 C 52.4 170.6 53.7 170 55.4 170 C 57 170 58.3 170.5 59.2 171.4 C 60.3 172.4 60.7 173.8 60.7 175.5 C 60.75 175.5 60.7 184.9 60.7 184.9 L 58.6 184.9 C 58.6 184.9 58.59 175.83 58.6 175.8 C 58.6 173.2 57.2 171.9 55 171.9 C 52.8 171.9 51.3 173.2 51.3 175.8 C 51.3 175.83 51.3 184.9 51.3 184.9 L 49.1 184.9 L 49.1 163.6 L 51.3 163.6 C 51.3 163.6 51.3 171.81 51.3 171.8 Z M 77.3 177.1 C 77.31 177.15 77.3 178.1 77.3 178.1 C 77.3 178.1 67.35 178.11 67.3 178.1 C 67.3 181.3 68.8 183.2 71.7 183.2 C 73.4 183.2 74.4 182.7 75.6 181.5 C 75.6 181.5 77 182.8 77 182.8 C 75.5 184.3 74.1 185.1 71.6 185.1 C 67.7 185.1 65.2 182.8 65.2 177.5 C 65.2 172.7 67.5 170 71.2 170 C 75.1 170 77.3 172.7 77.3 177.1 Z M 67.8 174 C 67.4 174.8 67.4 175.3 67.3 176.5 C 67.3 176.5 75.2 176.5 75.2 176.5 C 75.1 175.3 75.1 174.8 74.7 174 C 74.1 172.7 72.8 171.8 71.2 171.8 C 69.7 171.8 68.4 172.7 67.8 174 Z M 92 182.9 L 103 182.9 L 103 184.9 L 89.8 184.9 L 89.8 163.6 L 92 163.6 L 92 182.9 Z M 108.7 184.9 L 106.6 184.9 L 106.6 170.2 L 108.7 170.2 L 108.7 184.9 Z M 108.9 166 L 106.4 166 L 106.4 163.5 L 108.9 163.5 L 108.9 166 Z M 124.3 171.4 C 125.3 172.4 125.8 173.8 125.8 175.5 C 125.79 175.5 125.8 184.9 125.8 184.9 L 123.6 184.9 C 123.6 184.9 123.63 175.83 123.6 175.8 C 123.6 173.2 122.2 171.9 120 171.9 C 117.8 171.9 116.3 173.2 116.3 175.8 C 116.31 175.83 116.3 184.9 116.3 184.9 L 114.1 184.9 L 114.1 170.2 L 116.3 170.2 C 116.3 170.2 116.28 171.81 116.3 171.8 C 117.3 170.6 118.8 170 120.4 170 C 122 170 123.4 170.5 124.3 171.4 Z M 141.7 172.2 C 141.7 172.2 140.2 173.5 140.2 173.5 C 139.1 172.3 138.2 171.9 136.8 171.9 C 135.4 171.9 134.2 172.5 133.4 173.6 C 132.7 174.5 132.4 175.7 132.4 177.5 C 132.4 179.4 132.7 180.5 133.4 181.5 C 134.2 182.6 135.4 183.2 136.8 183.2 C 138.2 183.2 139.1 182.7 140.2 181.5 C 140.2 181.5 141.7 182.9 141.7 182.9 C 140.1 184.6 138.8 185.1 136.8 185.1 C 133.1 185.1 130.3 182.6 130.3 177.5 C 130.3 172.5 133.1 170 136.8 170 C 138.8 170 140.1 170.5 141.7 172.2 Z M 154.8 171.7 C 156.3 173.2 156.6 175.3 156.6 177.5 C 156.6 179.8 156.3 181.9 154.8 183.4 C 153.8 184.5 152.4 185.1 150.6 185.1 C 148.8 185.1 147.4 184.5 146.3 183.4 C 144.8 181.9 144.5 179.8 144.5 177.5 C 144.5 175.3 144.8 173.2 146.3 171.7 C 147.4 170.6 148.8 170 150.6 170 C 152.4 170 153.8 170.6 154.8 171.7 Z M 147.9 173 C 146.8 174.1 146.7 175.9 146.7 177.5 C 146.7 179.2 146.8 181 147.9 182.1 C 148.6 182.8 149.5 183.2 150.6 183.2 C 151.6 183.2 152.5 182.8 153.3 182.1 C 154.3 181 154.4 179.2 154.4 177.5 C 154.4 175.9 154.3 174.1 153.3 173 C 152.5 172.3 151.6 171.9 150.6 171.9 C 149.5 171.9 148.6 172.3 147.9 173 Z M 163.3 180.9 C 163.3 182.3 163.8 183.1 165.3 183.1 C 165.3 183.06 166.5 183.1 166.5 183.1 L 166.5 184.9 C 166.5 184.9 164.91 184.92 164.9 184.9 C 162.3 184.9 161.2 183.2 161.2 181 C 161.16 180.99 161.2 163.6 161.2 163.6 L 163.3 163.6 C 163.3 163.6 163.32 180.9 163.3 180.9 Z M 180.2 171.4 C 181.3 172.4 181.8 173.8 181.8 175.5 C 181.77 175.5 181.8 184.9 181.8 184.9 L 179.6 184.9 C 179.6 184.9 179.61 175.83 179.6 175.8 C 179.6 173.2 178.2 171.9 176 171.9 C 173.8 171.9 172.3 173.2 172.3 175.8 C 172.29 175.83 172.3 184.9 172.3 184.9 L 170.1 184.9 L 170.1 170.2 L 172.3 170.2 C 172.3 170.2 172.26 171.81 172.3 171.8 C 173.3 170.6 174.8 170 176.4 170 C 178 170 179.3 170.5 180.2 171.4 Z M 206 184.9 L 203.8 184.9 C 203.8 184.9 203.85 183.27 203.8 183.3 C 202.8 184.5 201.3 185.1 199.7 185.1 C 198.1 185.1 196.8 184.6 195.9 183.7 C 194.8 182.7 194.3 181.3 194.3 179.6 C 194.34 179.58 194.3 170.2 194.3 170.2 L 196.5 170.2 C 196.5 170.2 196.5 179.25 196.5 179.2 C 196.5 181.9 197.9 183.2 200.1 183.2 C 202.3 183.2 203.8 181.8 203.8 179.2 C 203.82 179.25 203.8 170.2 203.8 170.2 L 206 170.2 L 206 184.9 Z M 221.5 171.4 C 222.5 172.4 223 173.8 223 175.5 C 223.02 175.5 223 184.9 223 184.9 L 220.9 184.9 C 220.9 184.9 220.86 175.83 220.9 175.8 C 220.9 173.2 219.4 171.9 217.2 171.9 C 215 171.9 213.5 173.2 213.5 175.8 C 213.54 175.83 213.5 184.9 213.5 184.9 L 211.4 184.9 L 211.4 170.2 L 213.5 170.2 C 213.5 170.2 213.51 171.81 213.5 171.8 C 214.6 170.6 216 170 217.7 170 C 219.3 170 220.6 170.5 221.5 171.4 Z M 239.2 184.9 L 237.1 184.9 C 237.1 184.9 237.06 183.18 237.1 183.2 C 235.8 184.7 234.5 185.1 232.9 185.1 C 231.4 185.1 230.1 184.6 229.3 183.8 C 227.8 182.3 227.5 179.9 227.5 177.5 C 227.5 175.2 227.8 172.8 229.3 171.3 C 230.1 170.5 231.4 170 232.9 170 C 234.5 170 235.8 170.4 237.1 171.9 C 237.06 171.9 237.1 163.6 237.1 163.6 L 239.2 163.6 L 239.2 184.9 Z M 229.6 177.5 C 229.6 180.4 230.1 183.2 233.3 183.2 C 236.6 183.2 237.1 180.4 237.1 177.5 C 237.1 174.7 236.6 171.9 233.3 171.9 C 230.1 171.9 229.6 174.7 229.6 177.5 Z M 255.9 177.1 C 255.93 177.15 255.9 178.1 255.9 178.1 C 255.9 178.1 245.97 178.11 246 178.1 C 246 181.3 247.5 183.2 250.3 183.2 C 252 183.2 253 182.7 254.2 181.5 C 254.2 181.5 255.7 182.8 255.7 182.8 C 254.2 184.3 252.7 185.1 250.3 185.1 C 246.3 185.1 243.8 182.8 243.8 177.5 C 243.8 172.7 246.1 170 249.9 170 C 253.7 170 255.9 172.7 255.9 177.1 Z M 246.4 174 C 246.1 174.8 246 175.3 246 176.5 C 246 176.5 253.8 176.5 253.8 176.5 C 253.7 175.3 253.7 174.8 253.3 174 C 252.7 172.7 251.5 171.8 249.9 171.8 C 248.3 171.8 247 172.7 246.4 174 Z M 270.4 171.4 C 270.4 171.4 268.8 173 268.8 173 C 268 172.2 267.4 171.9 266.2 171.9 C 264.1 171.9 262.7 173.6 262.7 175.9 C 262.68 175.86 262.7 184.9 262.7 184.9 L 260.5 184.9 L 260.5 170.2 L 262.7 170.2 C 262.7 170.2 262.68 171.96 262.7 172 C 263.5 170.7 265.1 170 266.8 170 C 268.2 170 269.3 170.3 270.4 171.4 Z M 271.1 170.2 L 273.4 170.2 L 276.8 182 L 280.7 170.2 L 282.6 170.2 L 286.4 182 L 289.8 170.2 L 292.1 170.2 L 287.5 184.9 L 285.4 184.9 L 281.6 172.9 L 277.8 184.9 L 275.8 184.9 L 271.1 170.2 Z M 305 171.4 C 305 171.4 303.4 173 303.4 173 C 302.6 172.2 302 171.9 300.9 171.9 C 298.7 171.9 297.3 173.6 297.3 175.9 C 297.33 175.86 297.3 184.9 297.3 184.9 L 295.2 184.9 L 295.2 170.2 L 297.3 170.2 C 297.3 170.2 297.33 171.96 297.3 172 C 298.1 170.7 299.8 170 301.5 170 C 302.9 170 304 170.3 305 171.4 Z M 310 184.9 L 307.8 184.9 L 307.8 170.2 L 310 170.2 L 310 184.9 Z M 310.1 166 L 307.7 166 L 307.7 163.5 L 310.1 163.5 L 310.1 166 Z M 317.9 170.2 L 321.1 170.2 L 321.1 171.8 L 317.9 171.8 C 317.9 171.8 317.91 180.9 317.9 180.9 C 317.9 182.3 318.5 183.1 319.9 183.1 C 319.92 183.06 321.1 183.1 321.1 183.1 L 321.1 184.9 C 321.1 184.9 319.53 184.92 319.5 184.9 C 317 184.9 315.7 183.1 315.7 181 C 315.75 180.96 315.7 171.8 315.7 171.8 L 313.9 171.8 L 313.9 170.2 L 315.7 170.2 L 315.7 165.6 L 317.9 165.6 L 317.9 170.2 Z M 327.5 184.9 L 325.3 184.9 L 325.3 170.2 L 327.5 170.2 L 327.5 184.9 Z M 327.7 166 L 325.2 166 L 325.2 163.5 L 327.7 163.5 L 327.7 166 Z M 343 171.4 C 344.1 172.4 344.6 173.8 344.6 175.5 C 344.58 175.5 344.6 184.9 344.6 184.9 L 342.4 184.9 C 342.4 184.9 342.42 175.83 342.4 175.8 C 342.4 173.2 341 171.9 338.8 171.9 C 336.6 171.9 335.1 173.2 335.1 175.8 C 335.1 175.83 335.1 184.9 335.1 184.9 L 332.9 184.9 L 332.9 170.2 L 335.1 170.2 C 335.1 170.2 335.07 171.81 335.1 171.8 C 336.1 170.6 337.6 170 339.2 170 C 340.8 170 342.1 170.5 343 171.4 Z M 358.6 171.9 C 358.58 171.9 358.6 170.2 358.6 170.2 L 360.7 170.2 C 360.7 170.2 360.71 185.37 360.7 185.4 C 360.7 189 358.4 191.7 354.6 191.7 C 352.3 191.7 351.1 191.1 349.6 189.7 C 349.6 189.7 351 188.3 351 188.3 C 352 189.3 352.8 189.8 354.5 189.8 C 357.4 189.8 358.6 187.8 358.6 185.3 C 358.6 185.3 358.6 183 358.6 183 C 357.4 184.5 356 184.9 354.4 184.9 C 352.9 184.9 351.6 184.3 350.8 183.6 C 349.4 182.1 349 179.8 349 177.4 C 349 175 349.4 172.7 350.8 171.3 C 351.6 170.5 352.9 170 354.4 170 C 356.1 170 357.4 170.3 358.6 171.9 Z M 351.2 177.4 C 351.2 180.2 351.7 182.9 354.9 182.9 C 358.1 182.9 358.6 180.2 358.6 177.4 C 358.6 174.7 358.1 171.9 354.9 171.9 C 351.7 171.9 351.2 174.7 351.2 177.4 Z M 376.1 170.2 L 379.3 170.2 L 379.3 171.8 L 376.1 171.8 C 376.1 171.8 376.1 180.9 376.1 180.9 C 376.1 182.3 376.7 183.1 378.1 183.1 C 378.11 183.06 379.3 183.1 379.3 183.1 L 379.3 184.9 C 379.3 184.9 377.72 184.92 377.7 184.9 C 375.2 184.9 373.9 183.1 373.9 181 C 373.94 180.96 373.9 171.8 373.9 171.8 L 372.1 171.8 L 372.1 170.2 L 373.9 170.2 L 373.9 165.6 L 376.1 165.6 L 376.1 170.2 Z M 394.7 177.1 C 394.7 177.15 394.7 178.1 394.7 178.1 C 394.7 178.1 384.74 178.11 384.7 178.1 C 384.7 181.3 386.2 183.2 389.1 183.2 C 390.8 183.2 391.8 182.7 393 181.5 C 393 181.5 394.4 182.8 394.4 182.8 C 392.9 184.3 391.5 185.1 389 185.1 C 385.1 185.1 382.6 182.8 382.6 177.5 C 382.6 172.7 384.9 170 388.6 170 C 392.5 170 394.7 172.7 394.7 177.1 Z M 385.2 174 C 384.8 174.8 384.8 175.3 384.7 176.5 C 384.7 176.5 392.6 176.5 392.6 176.5 C 392.5 175.3 392.5 174.8 392.1 174 C 391.5 172.7 390.2 171.8 388.6 171.8 C 387.1 171.8 385.8 172.7 385.2 174 Z M 409.8 174.9 C 409.82 174.9 409.8 184.9 409.8 184.9 L 407.7 184.9 C 407.7 184.9 407.66 183.51 407.7 183.5 C 406.5 184.7 405.4 185.1 403.4 185.1 C 401.4 185.1 400.3 184.7 399.2 183.7 C 398.5 183 398.1 181.9 398.1 180.7 C 398.1 178.1 400 176.5 403.3 176.5 C 403.25 176.49 407.7 176.5 407.7 176.5 C 407.7 176.5 407.66 175.08 407.7 175.1 C 407.7 172.9 406.6 171.8 403.9 171.8 C 402 171.8 401.1 172.3 400.2 173.5 C 400.2 173.5 398.7 172.2 398.7 172.2 C 400 170.5 401.5 170 403.9 170 C 407.9 170 409.8 171.7 409.8 174.9 Z M 403.6 178.1 C 401.3 178.1 400.2 179 400.2 180.7 C 400.2 182.4 401.3 183.2 403.6 183.2 C 404.9 183.2 406 183.1 406.9 182.2 C 407.4 181.8 407.7 180.9 407.7 179.7 C 407.66 179.7 407.7 178.1 407.7 178.1 C 407.7 178.1 403.55 178.11 403.6 178.1 Z M 434.6 171.4 C 435.7 172.4 436.2 173.8 436.2 175.5 C 436.19 175.47 436.2 184.9 436.2 184.9 L 434 184.9 C 434 184.9 434.03 175.83 434 175.8 C 434 173.2 432.6 171.9 430.4 171.9 C 428.2 171.9 426.7 173.2 426.7 175.6 C 426.71 175.59 426.7 184.9 426.7 184.9 L 424.6 184.9 C 424.6 184.9 424.55 175.83 424.6 175.8 C 424.6 173.2 423.1 171.9 420.9 171.9 C 418.7 171.9 417.2 173.2 417.2 175.8 C 417.23 175.83 417.2 184.9 417.2 184.9 L 415.1 184.9 L 415.1 170.2 L 417.2 170.2 C 417.2 170.2 417.23 171.78 417.2 171.8 C 418.3 170.6 419.8 170 421.4 170 C 423.4 170 425 170.8 425.9 172.4 C 427.1 170.8 428.7 170 430.8 170 C 432.4 170 433.7 170.5 434.6 171.4 Z M 446.5 170.2 L 448.9 170.2 L 452.3 182 L 456.1 170.2 L 458 170.2 L 461.8 182 L 465.3 170.2 L 467.6 170.2 L 462.9 184.9 L 460.9 184.9 L 457.1 172.9 L 453.2 184.9 L 451.3 184.9 L 446.5 170.2 Z M 472.8 184.9 L 470.6 184.9 L 470.6 170.2 L 472.8 170.2 L 472.8 184.9 Z M 472.9 166 L 470.5 166 L 470.5 163.5 L 472.9 163.5 L 472.9 166 Z M 480.3 180.9 C 480.3 182.3 480.8 183.1 482.3 183.1 C 482.3 183.06 483.5 183.1 483.5 183.1 L 483.5 184.9 C 483.5 184.9 481.91 184.92 481.9 184.9 C 479.3 184.9 478.2 183.2 478.2 181 C 478.16 180.99 478.2 163.6 478.2 163.6 L 480.3 163.6 C 480.3 163.6 480.32 180.9 480.3 180.9 Z M 489.2 180.9 C 489.2 182.3 489.7 183.1 491.2 183.1 C 491.21 183.06 492.4 183.1 492.4 183.1 L 492.4 184.9 C 492.4 184.9 490.82 184.92 490.8 184.9 C 488.2 184.9 487.1 183.2 487.1 181 C 487.07 180.99 487.1 163.6 487.1 163.6 L 489.2 163.6 C 489.2 163.6 489.23 180.9 489.2 180.9 Z M 514 174.9 C 514.04 174.9 514 184.9 514 184.9 L 511.9 184.9 C 511.9 184.9 511.88 183.51 511.9 183.5 C 510.7 184.7 509.6 185.1 507.6 185.1 C 505.6 185.1 504.5 184.7 503.5 183.7 C 502.7 183 502.3 181.9 502.3 180.7 C 502.3 178.1 504.2 176.5 507.5 176.5 C 507.47 176.49 511.9 176.5 511.9 176.5 C 511.9 176.5 511.88 175.08 511.9 175.1 C 511.9 172.9 510.8 171.8 508.1 171.8 C 506.2 171.8 505.3 172.3 504.4 173.5 C 504.4 173.5 502.9 172.2 502.9 172.2 C 504.2 170.5 505.7 170 508.1 170 C 512.1 170 514 171.7 514 174.9 Z M 507.8 178.1 C 505.6 178.1 504.4 179 504.4 180.7 C 504.4 182.4 505.5 183.2 507.9 183.2 C 509.1 183.2 510.2 183.1 511.1 182.2 C 511.6 181.8 511.9 180.9 511.9 179.7 C 511.88 179.7 511.9 178.1 511.9 178.1 C 511.9 178.1 507.77 178.11 507.8 178.1 Z M 521.8 170.2 L 525 170.2 L 525 171.8 L 521.8 171.8 C 521.8 171.8 521.81 180.9 521.8 180.9 C 521.8 182.3 522.4 183.1 523.8 183.1 C 523.82 183.06 525 183.1 525 183.1 L 525 184.9 C 525 184.9 523.43 184.92 523.4 184.9 C 520.9 184.9 519.7 183.1 519.7 181 C 519.65 180.96 519.7 171.8 519.7 171.8 L 517.8 171.8 L 517.8 170.2 L 519.7 170.2 L 519.7 165.6 L 521.8 165.6 L 521.8 170.2 Z M 531.5 170.2 L 534.7 170.2 L 534.7 171.8 L 531.5 171.8 C 531.5 171.8 531.53 180.9 531.5 180.9 C 531.5 182.3 532.2 183.1 533.5 183.1 C 533.54 183.06 534.7 183.1 534.7 183.1 L 534.7 184.9 C 534.7 184.9 533.15 184.92 533.2 184.9 C 530.6 184.9 529.4 183.1 529.4 181 C 529.37 180.96 529.4 171.8 529.4 171.8 L 527.5 171.8 L 527.5 170.2 L 529.4 170.2 L 529.4 165.6 L 531.5 165.6 L 531.5 170.2 Z M 550.1 177.1 C 550.13 177.15 550.1 178.1 550.1 178.1 C 550.1 178.1 540.17 178.11 540.2 178.1 C 540.2 181.3 541.7 183.2 544.5 183.2 C 546.2 183.2 547.2 182.7 548.4 181.5 C 548.4 181.5 549.9 182.8 549.9 182.8 C 548.4 184.3 547 185.1 544.5 185.1 C 540.5 185.1 538 182.8 538 177.5 C 538 172.7 540.3 170 544.1 170 C 547.9 170 550.1 172.7 550.1 177.1 Z M 540.6 174 C 540.3 174.8 540.2 175.3 540.2 176.5 C 540.2 176.5 548 176.5 548 176.5 C 547.9 175.3 547.9 174.8 547.5 174 C 546.9 172.7 545.7 171.8 544.1 171.8 C 542.5 171.8 541.3 172.7 540.6 174 Z M 574.3 171.4 C 575.3 172.4 575.8 173.8 575.8 175.5 C 575.84 175.47 575.8 184.9 575.8 184.9 L 573.7 184.9 C 573.7 184.9 573.68 175.83 573.7 175.8 C 573.7 173.2 572.3 171.9 570.1 171.9 C 567.9 171.9 566.4 173.2 566.4 175.6 C 566.36 175.59 566.4 184.9 566.4 184.9 L 564.2 184.9 C 564.2 184.9 564.2 175.83 564.2 175.8 C 564.2 173.2 562.8 171.9 560.6 171.9 C 558.4 171.9 556.9 173.2 556.9 175.8 C 556.88 175.83 556.9 184.9 556.9 184.9 L 554.7 184.9 L 554.7 170.2 L 556.9 170.2 C 556.9 170.2 556.88 171.78 556.9 171.8 C 557.9 170.6 559.4 170 561.1 170 C 563.1 170 564.7 170.8 565.6 172.4 C 566.7 170.8 568.4 170 570.4 170 C 572 170 573.4 170.5 574.3 171.4 Z M 591 171.3 C 592.5 172.7 592.8 175.2 592.8 177.5 C 592.8 179.9 592.5 182.3 591 183.8 C 590.2 184.6 589 185.1 587.4 185.1 C 585.8 185.1 584.5 184.7 583.3 183.2 C 583.25 183.18 583.3 191.5 583.3 191.5 L 581.1 191.5 L 581.1 170.2 L 583.3 170.2 C 583.3 170.2 583.25 171.9 583.3 171.9 C 584.5 170.4 585.8 170 587.4 170 C 589 170 590.2 170.5 591 171.3 Z M 583.3 177.5 C 583.3 180.4 583.7 183.2 587 183.2 C 590.2 183.2 590.7 180.4 590.7 177.5 C 590.7 174.7 590.2 171.9 587 171.9 C 583.7 171.9 583.3 174.7 583.3 177.5 Z M 600 170.2 L 603.1 170.2 L 603.1 171.8 L 600 171.8 C 600 171.8 599.96 180.9 600 180.9 C 600 182.3 600.6 183.1 602 183.1 C 601.97 183.06 603.1 183.1 603.1 183.1 L 603.1 184.9 C 603.1 184.9 601.58 184.92 601.6 184.9 C 599.1 184.9 597.8 183.1 597.8 181 C 597.8 180.96 597.8 171.8 597.8 171.8 L 595.9 171.8 L 595.9 170.2 L 597.8 170.2 L 597.8 165.6 L 600 165.6 L 600 170.2 Z M 617.4 170.2 L 620.5 170.2 L 620.5 171.8 L 617.4 171.8 C 617.4 171.8 617.39 180.9 617.4 180.9 C 617.4 182.3 618 183.1 619.4 183.1 C 619.4 183.06 620.5 183.1 620.5 183.1 L 620.5 184.9 C 620.5 184.9 619.01 184.92 619 184.9 C 616.5 184.9 615.2 183.1 615.2 181 C 615.23 180.96 615.2 171.8 615.2 171.8 L 613.4 171.8 L 613.4 170.2 L 615.2 170.2 L 615.2 165.6 L 617.4 165.6 L 617.4 170.2 Z M 634.2 171.7 C 635.7 173.2 636 175.3 636 177.5 C 636 179.8 635.7 181.9 634.2 183.4 C 633.1 184.5 631.7 185.1 629.9 185.1 C 628.1 185.1 626.7 184.5 625.7 183.4 C 624.2 181.9 623.9 179.8 623.9 177.5 C 623.9 175.3 624.2 173.2 625.7 171.7 C 626.7 170.6 628.1 170 629.9 170 C 631.7 170 633.1 170.6 634.2 171.7 Z M 627.3 173 C 626.2 174.1 626.1 175.9 626.1 177.5 C 626.1 179.2 626.2 181 627.3 182.1 C 628 182.8 628.9 183.2 629.9 183.2 C 631 183.2 631.9 182.8 632.6 182.1 C 633.7 181 633.8 179.2 633.8 177.5 C 633.8 175.9 633.7 174.1 632.6 173 C 631.9 172.3 631 171.9 629.9 171.9 C 628.9 171.9 628 172.3 627.3 173 Z M 645.7 170.2 L 648 170.2 L 652.1 182 L 656.1 170.2 L 658.4 170.2 L 653 184.9 L 651.1 184.9 L 645.7 170.2 Z M 672.5 177.1 C 672.47 177.15 672.5 178.1 672.5 178.1 C 672.5 178.1 662.51 178.11 662.5 178.1 C 662.5 181.3 664 183.2 666.9 183.2 C 668.6 183.2 669.6 182.7 670.7 181.5 C 670.7 181.5 672.2 182.8 672.2 182.8 C 670.7 184.3 669.3 185.1 666.8 185.1 C 662.9 185.1 660.4 182.8 660.4 177.5 C 660.4 172.7 662.7 170 666.4 170 C 670.3 170 672.5 172.7 672.5 177.1 Z M 663 174 C 662.6 174.8 662.6 175.3 662.5 176.5 C 662.5 176.5 670.3 176.5 670.3 176.5 C 670.3 175.3 670.2 174.8 669.9 174 C 669.2 172.7 668 171.8 666.4 171.8 C 664.8 171.8 663.6 172.7 663 174 Z M 686.9 171.4 C 686.9 171.4 685.3 173 685.3 173 C 684.5 172.2 683.9 171.9 682.8 171.9 C 680.6 171.9 679.2 173.6 679.2 175.9 C 679.22 175.86 679.2 184.9 679.2 184.9 L 677.1 184.9 L 677.1 170.2 L 679.2 170.2 C 679.2 170.2 679.22 171.96 679.2 172 C 680 170.7 681.7 170 683.4 170 C 684.8 170 685.9 170.3 686.9 171.4 Z M 691.9 184.9 L 689.7 184.9 L 689.7 170.2 L 691.9 170.2 L 691.9 184.9 Z M 692 166 L 689.6 166 L 689.6 163.5 L 692 163.5 L 692 166 Z M 703.1 165.4 C 703.1 165.4 701.9 165.39 701.9 165.4 C 700.5 165.4 699.9 166.2 699.9 167.5 C 699.92 167.55 699.9 170.2 699.9 170.2 L 703.1 170.2 L 703.1 171.8 L 699.9 171.8 L 699.9 184.9 L 697.8 184.9 L 697.8 171.8 L 695.9 171.8 L 695.9 170.2 L 697.8 170.2 C 697.8 170.2 697.76 167.49 697.8 167.5 C 697.8 165.3 699 163.5 701.5 163.5 C 701.51 163.53 703.1 163.5 703.1 163.5 L 703.1 165.4 Z M 710.3 188.8 C 710 189.6 709.7 190.1 709.3 190.5 C 708.5 191.2 707.4 191.5 706.4 191.5 C 706.37 191.52 705.4 191.5 705.4 191.5 L 705.4 189.6 C 705.4 189.6 706.1 189.6 706.1 189.6 C 707.6 189.6 708.1 189.1 708.5 187.8 C 708.53 187.77 709.7 184.6 709.7 184.6 L 704.4 170.2 L 706.7 170.2 L 710.8 182 L 714.8 170.2 L 717.1 170.2 C 717.1 170.2 710.3 188.76 710.3 188.8 Z M 738.1 174.9 C 738.14 174.9 738.1 184.9 738.1 184.9 L 736 184.9 C 736 184.9 735.98 183.51 736 183.5 C 734.8 184.7 733.7 185.1 731.7 185.1 C 729.7 185.1 728.6 184.7 727.5 183.7 C 726.8 183 726.4 181.9 726.4 180.7 C 726.4 178.1 728.3 176.5 731.6 176.5 C 731.57 176.49 736 176.5 736 176.5 C 736 176.5 735.98 175.08 736 175.1 C 736 172.9 734.9 171.8 732.2 171.8 C 730.3 171.8 729.4 172.3 728.5 173.5 C 728.5 173.5 727 172.2 727 172.2 C 728.3 170.5 729.8 170 732.2 170 C 736.2 170 738.1 171.7 738.1 174.9 Z M 731.9 178.1 C 729.6 178.1 728.5 179 728.5 180.7 C 728.5 182.4 729.6 183.2 732 183.2 C 733.2 183.2 734.3 183.1 735.2 182.2 C 735.7 181.8 736 180.9 736 179.7 C 735.98 179.7 736 178.1 736 178.1 C 736 178.1 731.87 178.11 731.9 178.1 Z M 745.5 180.9 C 745.5 182.3 746 183.1 747.5 183.1 C 747.47 183.06 748.6 183.1 748.6 183.1 L 748.6 184.9 C 748.6 184.9 747.08 184.92 747.1 184.9 C 744.5 184.9 743.3 183.2 743.3 181 C 743.33 180.99 743.3 163.6 743.3 163.6 L 745.5 163.6 C 745.5 163.6 745.49 180.9 745.5 180.9 Z M 754.4 180.9 C 754.4 182.3 754.9 183.1 756.4 183.1 C 756.38 183.06 757.5 183.1 757.5 183.1 L 757.5 184.9 C 757.5 184.9 755.99 184.92 756 184.9 C 753.4 184.9 752.2 183.2 752.2 181 C 752.24 180.99 752.2 163.6 752.2 163.6 L 754.4 163.6 C 754.4 163.6 754.4 180.9 754.4 180.9 Z M 770.8 184.9 L 768.7 184.9 L 768.7 170.2 L 770.8 170.2 L 770.8 184.9 Z M 771 166 L 768.6 166 L 768.6 163.5 L 771 163.5 L 771 166 Z M 786.4 171.4 C 787.4 172.4 787.9 173.8 787.9 175.5 C 787.91 175.5 787.9 184.9 787.9 184.9 L 785.7 184.9 C 785.7 184.9 785.75 175.83 785.7 175.8 C 785.7 173.2 784.3 171.9 782.1 171.9 C 779.9 171.9 778.4 173.2 778.4 175.8 C 778.43 175.83 778.4 184.9 778.4 184.9 L 776.3 184.9 L 776.3 170.2 L 778.4 170.2 C 778.4 170.2 778.4 171.81 778.4 171.8 C 779.4 170.6 780.9 170 782.6 170 C 784.2 170 785.5 170.5 786.4 171.4 Z M 798.9 165.4 C 798.9 165.4 797.78 165.39 797.8 165.4 C 796.4 165.4 795.8 166.2 795.8 167.5 C 795.8 167.55 795.8 170.2 795.8 170.2 L 798.9 170.2 L 798.9 171.8 L 795.8 171.8 L 795.8 184.9 L 793.6 184.9 L 793.6 171.8 L 791.7 171.8 L 791.7 170.2 L 793.6 170.2 C 793.6 170.2 793.64 167.49 793.6 167.5 C 793.6 165.3 794.9 163.5 797.4 163.5 C 797.39 163.53 798.9 163.5 798.9 163.5 L 798.9 165.4 Z M 811.6 171.7 C 813.1 173.2 813.4 175.3 813.4 177.5 C 813.4 179.8 813.1 181.9 811.6 183.4 C 810.6 184.5 809.2 185.1 807.4 185.1 C 805.6 185.1 804.2 184.5 803.1 183.4 C 801.6 181.9 801.3 179.8 801.3 177.5 C 801.3 175.3 801.6 173.2 803.1 171.7 C 804.2 170.6 805.6 170 807.4 170 C 809.2 170 810.6 170.6 811.6 171.7 Z M 804.7 173 C 803.6 174.1 803.5 175.9 803.5 177.5 C 803.5 179.2 803.6 181 804.7 182.1 C 805.4 182.8 806.3 183.2 807.4 183.2 C 808.4 183.2 809.4 182.8 810.1 182.1 C 811.2 181 811.2 179.2 811.2 177.5 C 811.2 175.9 811.2 174.1 810.1 173 C 809.4 172.3 808.4 171.9 807.4 171.9 C 806.3 171.9 805.4 172.3 804.7 173 Z M 827.9 171.4 C 827.9 171.4 826.3 173 826.3 173 C 825.5 172.2 824.9 171.9 823.7 171.9 C 821.6 171.9 820.2 173.6 820.2 175.9 C 820.19 175.86 820.2 184.9 820.2 184.9 L 818 184.9 L 818 170.2 L 820.2 170.2 C 820.2 170.2 820.19 171.96 820.2 172 C 821 170.7 822.6 170 824.3 170 C 825.7 170 826.8 170.3 827.9 171.4 Z M 850.2 171.4 C 851.2 172.4 851.8 173.8 851.8 175.5 C 851.78 175.47 851.8 184.9 851.8 184.9 L 849.6 184.9 C 849.6 184.9 849.62 175.83 849.6 175.8 C 849.6 173.2 848.2 171.9 846 171.9 C 843.8 171.9 842.3 173.2 842.3 175.6 C 842.3 175.59 842.3 184.9 842.3 184.9 L 840.1 184.9 C 840.1 184.9 840.14 175.83 840.1 175.8 C 840.1 173.2 838.7 171.9 836.5 171.9 C 834.3 171.9 832.8 173.2 832.8 175.8 C 832.82 175.83 832.8 184.9 832.8 184.9 L 830.7 184.9 L 830.7 170.2 L 832.8 170.2 C 832.8 170.2 832.82 171.78 832.8 171.8 C 833.9 170.6 835.3 170 837 170 C 839 170 840.6 170.8 841.5 172.4 C 842.7 170.8 844.3 170 846.4 170 C 848 170 849.3 170.5 850.2 171.4 Z M 867.6 174.9 C 867.56 174.9 867.6 184.9 867.6 184.9 L 865.4 184.9 C 865.4 184.9 865.4 183.51 865.4 183.5 C 864.2 184.7 863.1 185.1 861.1 185.1 C 859.1 185.1 858 184.7 857 183.7 C 856.2 183 855.9 181.9 855.9 180.7 C 855.9 178.1 857.7 176.5 861 176.5 C 860.99 176.49 865.4 176.5 865.4 176.5 C 865.4 176.5 865.4 175.08 865.4 175.1 C 865.4 172.9 864.3 171.8 861.6 171.8 C 859.8 171.8 858.8 172.3 857.9 173.5 C 857.9 173.5 856.4 172.2 856.4 172.2 C 857.7 170.5 859.2 170 861.6 170 C 865.6 170 867.6 171.7 867.6 174.9 Z M 861.3 178.1 C 859.1 178.1 858 179 858 180.7 C 858 182.4 859 183.2 861.4 183.2 C 862.6 183.2 863.7 183.1 864.6 182.2 C 865.2 181.8 865.4 180.9 865.4 179.7 C 865.4 179.7 865.4 178.1 865.4 178.1 C 865.4 178.1 861.29 178.11 861.3 178.1 Z M 875.3 170.2 L 878.5 170.2 L 878.5 171.8 L 875.3 171.8 C 875.3 171.8 875.33 180.9 875.3 180.9 C 875.3 182.3 876 183.1 877.3 183.1 C 877.34 183.06 878.5 183.1 878.5 183.1 L 878.5 184.9 C 878.5 184.9 876.95 184.92 876.9 184.9 C 874.4 184.9 873.2 183.1 873.2 181 C 873.17 180.96 873.2 171.8 873.2 171.8 L 871.3 171.8 L 871.3 170.2 L 873.2 170.2 L 873.2 165.6 L 875.3 165.6 L 875.3 170.2 Z M 884.9 184.9 L 882.8 184.9 L 882.8 170.2 L 884.9 170.2 L 884.9 184.9 Z M 885.1 166 L 882.6 166 L 882.6 163.5 L 885.1 163.5 L 885.1 166 Z M 899.8 171.7 C 901.3 173.2 901.6 175.3 901.6 177.5 C 901.6 179.8 901.3 181.9 899.8 183.4 C 898.8 184.5 897.4 185.1 895.6 185.1 C 893.8 185.1 892.4 184.5 891.4 183.4 C 889.9 181.9 889.6 179.8 889.6 177.5 C 889.6 175.3 889.9 173.2 891.4 171.7 C 892.4 170.6 893.8 170 895.6 170 C 897.4 170 898.8 170.6 899.8 171.7 Z M 892.9 173 C 891.9 174.1 891.7 175.9 891.7 177.5 C 891.7 179.2 891.8 181 892.9 182.1 C 893.7 182.8 894.6 183.2 895.6 183.2 C 896.7 183.2 897.6 182.8 898.3 182.1 C 899.4 181 899.5 179.2 899.5 177.5 C 899.5 175.9 899.4 174.1 898.3 173 C 897.6 172.3 896.7 171.9 895.6 171.9 C 894.6 171.9 893.7 172.3 892.9 173 Z M 916.4 171.4 C 917.4 172.4 917.9 173.8 917.9 175.5 C 917.9 175.5 917.9 184.9 917.9 184.9 L 915.7 184.9 C 915.7 184.9 915.74 175.83 915.7 175.8 C 915.7 173.2 914.3 171.9 912.1 171.9 C 909.9 171.9 908.4 173.2 908.4 175.8 C 908.42 175.83 908.4 184.9 908.4 184.9 L 906.3 184.9 L 906.3 170.2 L 908.4 170.2 C 908.4 170.2 908.39 171.81 908.4 171.8 C 909.4 170.6 910.9 170 912.6 170 C 914.1 170 915.5 170.5 916.4 171.4 Z M 940.6 171.6 C 940.6 171.6 939.2 173 939.2 173 C 938.1 172.2 936.8 171.8 935.3 171.8 C 933.1 171.8 932 172.7 932 174.2 C 932 175.6 932.8 176.2 934.6 176.4 C 934.6 176.4 936.9 176.6 936.9 176.6 C 939.5 176.8 941.3 177.8 941.3 180.6 C 941.3 183.4 938.9 185.1 935.3 185.1 C 932.7 185.1 930.8 184.5 929.2 183 C 929.2 183 930.6 181.5 930.6 181.5 C 931.8 182.7 933.4 183.2 935.2 183.2 C 937.7 183.2 939.2 182.4 939.2 180.6 C 939.2 179.3 938.4 178.6 936.7 178.5 C 936.7 178.5 934.3 178.3 934.3 178.3 C 931.4 178 929.9 176.8 929.9 174.3 C 929.9 171.6 932.1 170 935.3 170 C 937.4 170 939.3 170.5 940.6 171.6 Z M 957 184.9 L 954.9 184.9 C 954.9 184.9 954.86 183.27 954.9 183.3 C 953.8 184.5 952.3 185.1 950.7 185.1 C 949.1 185.1 947.8 184.6 946.9 183.7 C 945.8 182.7 945.3 181.3 945.3 179.6 C 945.35 179.58 945.3 170.2 945.3 170.2 L 947.5 170.2 C 947.5 170.2 947.51 179.25 947.5 179.2 C 947.5 181.9 948.9 183.2 951.1 183.2 C 953.4 183.2 954.8 181.8 954.8 179.2 C 954.83 179.25 954.8 170.2 954.8 170.2 L 957 170.2 L 957 184.9 Z M 964.5 171.9 C 965.8 170.3 967.1 170 968.7 170 C 970.2 170 971.5 170.5 972.3 171.3 C 973.8 172.7 974.1 175.2 974.1 177.5 C 974.1 179.9 973.8 182.3 972.3 183.8 C 971.5 184.6 970.2 185.1 968.7 185.1 C 967.1 185.1 965.8 184.7 964.5 183.1 C 964.55 183.15 964.5 184.9 964.5 184.9 L 962.4 184.9 L 962.4 163.6 L 964.5 163.6 C 964.5 163.6 964.55 171.87 964.5 171.9 Z M 964.5 177.5 C 964.5 180.4 965 183.2 968.3 183.2 C 971.5 183.2 972 180.4 972 177.5 C 972 174.7 971.5 171.9 968.3 171.9 C 965 171.9 964.5 174.7 964.5 177.5 Z M 998.3 171.4 C 999.3 172.4 999.9 173.8 999.9 175.5 C 999.86 175.47 999.9 184.9 999.9 184.9 L 997.7 184.9 C 997.7 184.9 997.7 175.83 997.7 175.8 C 997.7 173.2 996.3 171.9 994.1 171.9 C 991.9 171.9 990.4 173.2 990.4 175.6 C 990.38 175.59 990.4 184.9 990.4 184.9 L 988.2 184.9 C 988.2 184.9 988.22 175.83 988.2 175.8 C 988.2 173.2 986.8 171.9 984.6 171.9 C 982.4 171.9 980.9 173.2 980.9 175.8 C 980.9 175.83 980.9 184.9 980.9 184.9 L 978.7 184.9 L 978.7 170.2 L 980.9 170.2 C 980.9 170.2 980.9 171.78 980.9 171.8 C 981.9 170.6 983.4 170 985.1 170 C 987.1 170 988.7 170.8 989.6 172.4 C 990.7 170.8 992.4 170 994.5 170 C 996 170 997.4 170.5 998.3 171.4 Z M 1007.3 184.9 L 1005.1 184.9 L 1005.1 170.2 L 1007.3 170.2 L 1007.3 184.9 Z M 1007.4 166 L 1005 166 L 1005 163.5 L 1007.4 163.5 L 1007.4 166 Z M 1015.2 170.2 L 1018.4 170.2 L 1018.4 171.8 L 1015.2 171.8 C 1015.2 171.8 1015.21 180.9 1015.2 180.9 C 1015.2 182.3 1015.8 183.1 1017.2 183.1 C 1017.22 183.06 1018.4 183.1 1018.4 183.1 L 1018.4 184.9 C 1018.4 184.9 1016.83 184.92 1016.8 184.9 C 1014.3 184.9 1013.1 183.1 1013.1 181 C 1013.05 180.96 1013.1 171.8 1013.1 171.8 L 1011.2 171.8 L 1011.2 170.2 L 1013.1 170.2 L 1013.1 165.6 L 1015.2 165.6 L 1015.2 170.2 Z M 1024.9 170.2 L 1028.1 170.2 L 1028.1 171.8 L 1024.9 171.8 C 1024.9 171.8 1024.93 180.9 1024.9 180.9 C 1024.9 182.3 1025.6 183.1 1026.9 183.1 C 1026.94 183.06 1028.1 183.1 1028.1 183.1 L 1028.1 184.9 C 1028.1 184.9 1026.55 184.92 1026.6 184.9 C 1024 184.9 1022.8 183.1 1022.8 181 C 1022.77 180.96 1022.8 171.8 1022.8 171.8 L 1020.9 171.8 L 1020.9 170.2 L 1022.8 170.2 L 1022.8 165.6 L 1024.9 165.6 L 1024.9 170.2 Z M 1043.5 177.1 C 1043.53 177.15 1043.5 178.1 1043.5 178.1 C 1043.5 178.1 1033.57 178.11 1033.6 178.1 C 1033.6 181.3 1035.1 183.2 1037.9 183.2 C 1039.6 183.2 1040.6 182.7 1041.8 181.5 C 1041.8 181.5 1043.3 182.8 1043.3 182.8 C 1041.8 184.3 1040.4 185.1 1037.9 185.1 C 1033.9 185.1 1031.4 182.8 1031.4 177.5 C 1031.4 172.7 1033.7 170 1037.5 170 C 1041.3 170 1043.5 172.7 1043.5 177.1 Z M 1034 174 C 1033.7 174.8 1033.6 175.3 1033.6 176.5 C 1033.6 176.5 1041.4 176.5 1041.4 176.5 C 1041.3 175.3 1041.3 174.8 1040.9 174 C 1040.3 172.7 1039.1 171.8 1037.5 171.8 C 1035.9 171.8 1034.7 172.7 1034 174 Z M 1059.1 184.9 L 1056.9 184.9 C 1056.9 184.9 1056.91 183.18 1056.9 183.2 C 1055.7 184.7 1054.4 185.1 1052.7 185.1 C 1051.2 185.1 1049.9 184.6 1049.1 183.8 C 1047.7 182.3 1047.3 179.9 1047.3 177.5 C 1047.3 175.2 1047.7 172.8 1049.1 171.3 C 1049.9 170.5 1051.2 170 1052.7 170 C 1054.4 170 1055.7 170.4 1056.9 171.9 C 1056.91 171.9 1056.9 163.6 1056.9 163.6 L 1059.1 163.6 L 1059.1 184.9 Z M 1049.5 177.5 C 1049.5 180.4 1050 183.2 1053.2 183.2 C 1056.4 183.2 1056.9 180.4 1056.9 177.5 C 1056.9 174.7 1056.4 171.9 1053.2 171.9 C 1050 171.9 1049.5 174.7 1049.5 177.5 Z M 1067.2 184.9 L 1064.4 184.9 L 1064.4 182.1 L 1067.2 182.1 L 1067.2 184.9 Z " stroke="none" fill="#000"/>  </g>  <g id="Polygon27069">    <path d="M 37.2 132.9 C 37.23 132.9 37.2 142.9 37.2 142.9 L 35.1 142.9 C 35.1 142.9 35.07 141.51 35.1 141.5 C 33.9 142.7 32.8 143.1 30.8 143.1 C 28.8 143.1 27.7 142.7 26.6 141.7 C 25.9 141 25.5 139.9 25.5 138.7 C 25.5 136.1 27.4 134.5 30.7 134.5 C 30.66 134.49 35.1 134.5 35.1 134.5 C 35.1 134.5 35.07 133.08 35.1 133.1 C 35.1 130.9 34 129.8 31.3 129.8 C 29.4 129.8 28.5 130.3 27.6 131.5 C 27.6 131.5 26.1 130.2 26.1 130.2 C 27.4 128.5 28.9 128 31.3 128 C 35.3 128 37.2 129.7 37.2 132.9 Z M 31 136.1 C 28.7 136.1 27.6 137 27.6 138.7 C 27.6 140.4 28.7 141.2 31 141.2 C 32.3 141.2 33.4 141.1 34.3 140.2 C 34.8 139.8 35.1 138.9 35.1 137.7 C 35.07 137.7 35.1 136.1 35.1 136.1 C 35.1 136.1 30.96 136.11 31 136.1 Z M 53.1 130.2 C 53.1 130.2 51.6 131.5 51.6 131.5 C 50.5 130.3 49.6 129.9 48.2 129.9 C 46.8 129.9 45.6 130.5 44.8 131.6 C 44.1 132.5 43.9 133.7 43.9 135.5 C 43.9 137.4 44.1 138.5 44.8 139.5 C 45.6 140.6 46.8 141.2 48.2 141.2 C 49.6 141.2 50.5 140.7 51.6 139.5 C 51.6 139.5 53.1 140.9 53.1 140.9 C 51.6 142.6 50.3 143.1 48.2 143.1 C 44.5 143.1 41.7 140.6 41.7 135.5 C 41.7 130.5 44.5 128 48.2 128 C 50.3 128 51.6 128.5 53.1 130.2 Z M 67.4 130.2 C 67.4 130.2 65.9 131.5 65.9 131.5 C 64.8 130.3 63.9 129.9 62.5 129.9 C 61.1 129.9 59.9 130.5 59.1 131.6 C 58.4 132.5 58.1 133.7 58.1 135.5 C 58.1 137.4 58.4 138.5 59.1 139.5 C 59.9 140.6 61.1 141.2 62.5 141.2 C 63.9 141.2 64.8 140.7 65.9 139.5 C 65.9 139.5 67.4 140.9 67.4 140.9 C 65.8 142.6 64.6 143.1 62.5 143.1 C 58.8 143.1 56 140.6 56 135.5 C 56 130.5 58.8 128 62.5 128 C 64.6 128 65.8 128.5 67.4 130.2 Z M 80.5 129.7 C 82 131.2 82.3 133.3 82.3 135.5 C 82.3 137.8 82 139.9 80.5 141.4 C 79.5 142.5 78.1 143.1 76.3 143.1 C 74.5 143.1 73.1 142.5 72.1 141.4 C 70.6 139.9 70.3 137.8 70.3 135.5 C 70.3 133.3 70.6 131.2 72.1 129.7 C 73.1 128.6 74.5 128 76.3 128 C 78.1 128 79.5 128.6 80.5 129.7 Z M 73.6 131 C 72.5 132.1 72.4 133.9 72.4 135.5 C 72.4 137.2 72.5 139 73.6 140.1 C 74.3 140.8 75.2 141.2 76.3 141.2 C 77.3 141.2 78.3 140.8 79 140.1 C 80.1 139 80.2 137.2 80.2 135.5 C 80.2 133.9 80.1 132.1 79 131 C 78.3 130.3 77.3 129.9 76.3 129.9 C 75.2 129.9 74.3 130.3 73.6 131 Z M 106.5 129.4 C 107.5 130.4 108.1 131.8 108.1 133.5 C 108.06 133.47 108.1 142.9 108.1 142.9 L 105.9 142.9 C 105.9 142.9 105.9 133.83 105.9 133.8 C 105.9 131.2 104.5 129.9 102.3 129.9 C 100.1 129.9 98.6 131.2 98.6 133.6 C 98.58 133.59 98.6 142.9 98.6 142.9 L 96.4 142.9 C 96.4 142.9 96.42 133.83 96.4 133.8 C 96.4 131.2 95 129.9 92.8 129.9 C 90.6 129.9 89.1 131.2 89.1 133.8 C 89.1 133.83 89.1 142.9 89.1 142.9 L 86.9 142.9 L 86.9 128.2 L 89.1 128.2 C 89.1 128.2 89.1 129.78 89.1 129.8 C 90.1 128.6 91.6 128 93.3 128 C 95.3 128 96.9 128.8 97.8 130.4 C 98.9 128.8 100.6 128 102.7 128 C 104.2 128 105.6 128.5 106.5 129.4 Z M 132.8 129.4 C 133.9 130.4 134.4 131.8 134.4 133.5 C 134.43 133.47 134.4 142.9 134.4 142.9 L 132.3 142.9 C 132.3 142.9 132.27 133.83 132.3 133.8 C 132.3 131.2 130.9 129.9 128.6 129.9 C 126.5 129.9 124.9 131.2 124.9 133.6 C 124.95 133.59 124.9 142.9 124.9 142.9 L 122.8 142.9 C 122.8 142.9 122.79 133.83 122.8 133.8 C 122.8 131.2 121.4 129.9 119.2 129.9 C 116.9 129.9 115.5 131.2 115.5 133.8 C 115.47 133.83 115.5 142.9 115.5 142.9 L 113.3 142.9 L 113.3 128.2 L 115.5 128.2 C 115.5 128.2 115.47 129.78 115.5 129.8 C 116.5 128.6 118 128 119.6 128 C 121.7 128 123.3 128.8 124.2 130.4 C 125.3 128.8 127 128 129 128 C 130.6 128 131.9 128.5 132.8 129.4 Z M 149.2 129.7 C 150.7 131.2 151 133.3 151 135.5 C 151 137.8 150.7 139.9 149.2 141.4 C 148.1 142.5 146.7 143.1 144.9 143.1 C 143.1 143.1 141.7 142.5 140.7 141.4 C 139.2 139.9 138.9 137.8 138.9 135.5 C 138.9 133.3 139.2 131.2 140.7 129.7 C 141.7 128.6 143.1 128 144.9 128 C 146.7 128 148.1 128.6 149.2 129.7 Z M 142.3 131 C 141.2 132.1 141.1 133.9 141.1 135.5 C 141.1 137.2 141.1 139 142.3 140.1 C 143 140.8 143.9 141.2 144.9 141.2 C 146 141.2 146.9 140.8 147.6 140.1 C 148.7 139 148.8 137.2 148.8 135.5 C 148.8 133.9 148.7 132.1 147.6 131 C 146.9 130.3 146 129.9 144.9 129.9 C 143.9 129.9 143 130.3 142.3 131 Z M 166.5 142.9 L 164.4 142.9 C 164.4 142.9 164.37 141.18 164.4 141.2 C 163.1 142.7 161.8 143.1 160.2 143.1 C 158.7 143.1 157.4 142.6 156.6 141.8 C 155.1 140.3 154.8 137.9 154.8 135.5 C 154.8 133.2 155.1 130.8 156.6 129.3 C 157.4 128.5 158.7 128 160.2 128 C 161.8 128 163.1 128.4 164.4 129.9 C 164.37 129.9 164.4 121.6 164.4 121.6 L 166.5 121.6 L 166.5 142.9 Z M 157 135.5 C 157 138.4 157.4 141.2 160.6 141.2 C 163.9 141.2 164.4 138.4 164.4 135.5 C 164.4 132.7 163.9 129.9 160.6 129.9 C 157.4 129.9 157 132.7 157 135.5 Z M 182.5 132.9 C 182.46 132.9 182.5 142.9 182.5 142.9 L 180.3 142.9 C 180.3 142.9 180.3 141.51 180.3 141.5 C 179.1 142.7 178 143.1 176 143.1 C 174 143.1 172.9 142.7 171.9 141.7 C 171.1 141 170.8 139.9 170.8 138.7 C 170.8 136.1 172.6 134.5 175.9 134.5 C 175.89 134.49 180.3 134.5 180.3 134.5 C 180.3 134.5 180.3 133.08 180.3 133.1 C 180.3 130.9 179.2 129.8 176.5 129.8 C 174.7 129.8 173.7 130.3 172.8 131.5 C 172.8 131.5 171.3 130.2 171.3 130.2 C 172.6 128.5 174.1 128 176.5 128 C 180.5 128 182.5 129.7 182.5 132.9 Z M 176.2 136.1 C 174 136.1 172.9 137 172.9 138.7 C 172.9 140.4 173.9 141.2 176.3 141.2 C 177.5 141.2 178.6 141.1 179.5 140.2 C 180.1 139.8 180.3 138.9 180.3 137.7 C 180.3 137.7 180.3 136.1 180.3 136.1 C 180.3 136.1 176.19 136.11 176.2 136.1 Z M 190.2 128.2 L 193.4 128.2 L 193.4 129.8 L 190.2 129.8 C 190.2 129.8 190.23 138.9 190.2 138.9 C 190.2 140.3 190.9 141.1 192.2 141.1 C 192.24 141.06 193.4 141.1 193.4 141.1 L 193.4 142.9 C 193.4 142.9 191.85 142.92 191.8 142.9 C 189.3 142.9 188.1 141.1 188.1 139 C 188.07 138.96 188.1 129.8 188.1 129.8 L 186.2 129.8 L 186.2 128.2 L 188.1 128.2 L 188.1 123.6 L 190.2 123.6 L 190.2 128.2 Z M 208.8 135.1 C 208.83 135.15 208.8 136.1 208.8 136.1 C 208.8 136.1 198.87 136.11 198.9 136.1 C 198.9 139.3 200.4 141.2 203.2 141.2 C 204.9 141.2 205.9 140.7 207.1 139.5 C 207.1 139.5 208.6 140.8 208.6 140.8 C 207.1 142.3 205.6 143.1 203.2 143.1 C 199.2 143.1 196.7 140.8 196.7 135.5 C 196.7 130.7 199 128 202.8 128 C 206.6 128 208.8 130.7 208.8 135.1 Z M 199.3 132 C 199 132.8 198.9 133.3 198.9 134.5 C 198.9 134.5 206.7 134.5 206.7 134.5 C 206.6 133.3 206.6 132.8 206.2 132 C 205.6 130.7 204.4 129.8 202.8 129.8 C 201.2 129.8 199.9 130.7 199.3 132 Z M 224.4 142.9 L 222.2 142.9 C 222.2 142.9 222.21 141.18 222.2 141.2 C 221 142.7 219.7 143.1 218 143.1 C 216.5 143.1 215.2 142.6 214.4 141.8 C 213 140.3 212.6 137.9 212.6 135.5 C 212.6 133.2 213 130.8 214.4 129.3 C 215.2 128.5 216.5 128 218 128 C 219.7 128 221 128.4 222.2 129.9 C 222.21 129.9 222.2 121.6 222.2 121.6 L 224.4 121.6 L 224.4 142.9 Z M 214.8 135.5 C 214.8 138.4 215.3 141.2 218.5 141.2 C 221.7 141.2 222.2 138.4 222.2 135.5 C 222.2 132.7 221.7 129.9 218.5 129.9 C 215.3 129.9 214.8 132.7 214.8 135.5 Z M 232.5 142.9 L 229.7 142.9 L 229.7 140.1 L 232.5 140.1 L 232.5 142.9 Z " stroke="none" fill="#000"/>  </g>  <g id="Polygon27068">    <path d="M 12.9 94.8 C 12.9 97.5 10.7 99.7 8 99.7 C 5.3 99.7 3.1 97.5 3.1 94.8 C 3.1 92.1 5.3 89.9 8 89.9 C 10.7 89.9 12.9 92.1 12.9 94.8 Z M 35 81.6 C 38.9 81.6 41.6 84 41.6 87.8 C 41.6 91.6 38.9 94.1 35 94.1 C 35.04 94.13 29.4 94.1 29.4 94.1 L 29.4 102.9 L 27.1 102.9 L 27.1 81.6 C 27.1 81.6 35.04 81.56 35 81.6 Z M 29.4 83.6 L 29.4 92.1 C 29.4 92.1 34.86 92.09 34.9 92.1 C 37.5 92.1 39.4 90.6 39.4 87.8 C 39.4 85 37.5 83.6 34.9 83.6 C 34.86 83.6 29.4 83.6 29.4 83.6 Z M 47.7 98.9 C 47.7 100.3 48.2 101.1 49.7 101.1 C 49.68 101.06 50.8 101.1 50.8 101.1 L 50.8 102.9 C 50.8 102.9 49.29 102.92 49.3 102.9 C 46.7 102.9 45.5 101.2 45.5 99 C 45.54 98.99 45.5 81.6 45.5 81.6 L 47.7 81.6 C 47.7 81.6 47.7 98.9 47.7 98.9 Z M 65.5 95.1 C 65.52 95.15 65.5 96.1 65.5 96.1 C 65.5 96.1 55.56 96.11 55.6 96.1 C 55.6 99.3 57.1 101.2 59.9 101.2 C 61.6 101.2 62.6 100.7 63.8 99.5 C 63.8 99.5 65.2 100.8 65.2 100.8 C 63.7 102.3 62.3 103.1 59.8 103.1 C 55.9 103.1 53.4 100.8 53.4 95.5 C 53.4 90.7 55.7 88 59.5 88 C 63.3 88 65.5 90.7 65.5 95.1 Z M 56 92 C 55.6 92.8 55.6 93.3 55.6 94.5 C 55.6 94.5 63.4 94.5 63.4 94.5 C 63.3 93.3 63.3 92.8 62.9 92 C 62.3 90.7 61 89.8 59.5 89.8 C 57.9 89.8 56.6 90.7 56 92 Z M 80.6 92.9 C 80.64 92.9 80.6 102.9 80.6 102.9 L 78.5 102.9 C 78.5 102.9 78.48 101.51 78.5 101.5 C 77.3 102.7 76.2 103.1 74.2 103.1 C 72.2 103.1 71.1 102.7 70 101.7 C 69.3 101 68.9 99.9 68.9 98.7 C 68.9 96.1 70.8 94.5 74.1 94.5 C 74.07 94.49 78.5 94.5 78.5 94.5 C 78.5 94.5 78.48 93.08 78.5 93.1 C 78.5 90.9 77.4 89.8 74.7 89.8 C 72.8 89.8 71.9 90.3 71 91.5 C 71 91.5 69.5 90.2 69.5 90.2 C 70.8 88.5 72.3 88 74.7 88 C 78.7 88 80.6 89.7 80.6 92.9 Z M 74.4 96.1 C 72.1 96.1 71 97 71 98.7 C 71 100.4 72.1 101.2 74.5 101.2 C 75.7 101.2 76.8 101.1 77.7 100.2 C 78.2 99.8 78.5 98.9 78.5 97.7 C 78.48 97.7 78.5 96.1 78.5 96.1 C 78.5 96.1 74.37 96.11 74.4 96.1 Z M 95.9 89.6 C 95.9 89.6 94.5 91 94.5 91 C 93.4 90.2 92.1 89.8 90.5 89.8 C 88.4 89.8 87.2 90.7 87.2 92.2 C 87.2 93.6 88 94.2 89.9 94.4 C 89.9 94.4 92.2 94.6 92.2 94.6 C 94.8 94.8 96.5 95.8 96.5 98.6 C 96.5 101.4 94.1 103.1 90.5 103.1 C 88 103.1 86.1 102.5 84.5 101 C 84.5 101 85.9 99.5 85.9 99.5 C 87.1 100.7 88.7 101.2 90.5 101.2 C 93 101.2 94.4 100.4 94.4 98.6 C 94.4 97.3 93.7 96.6 92 96.5 C 92 96.5 89.5 96.3 89.5 96.3 C 86.7 96 85.1 94.8 85.1 92.3 C 85.1 89.6 87.4 88 90.6 88 C 92.7 88 94.5 88.5 95.9 89.6 Z M 112.1 95.1 C 112.08 95.15 112.1 96.1 112.1 96.1 C 112.1 96.1 102.12 96.11 102.1 96.1 C 102.1 99.3 103.6 101.2 106.5 101.2 C 108.2 101.2 109.2 100.7 110.3 99.5 C 110.3 99.5 111.8 100.8 111.8 100.8 C 110.3 102.3 108.9 103.1 106.4 103.1 C 102.5 103.1 100 100.8 100 95.5 C 100 90.7 102.3 88 106 88 C 109.9 88 112.1 90.7 112.1 95.1 Z M 102.6 92 C 102.2 92.8 102.2 93.3 102.1 94.5 C 102.1 94.5 109.9 94.5 109.9 94.5 C 109.9 93.3 109.8 92.8 109.5 92 C 108.8 90.7 107.6 89.8 106 89.8 C 104.4 89.8 103.2 90.7 102.6 92 Z M 126.3 89.9 C 127.5 88.3 128.8 88 130.5 88 C 132 88 133.3 88.5 134.1 89.3 C 135.5 90.7 135.9 93.2 135.9 95.5 C 135.9 97.9 135.5 100.3 134.1 101.8 C 133.3 102.6 132 103.1 130.5 103.1 C 128.8 103.1 127.5 102.7 126.3 101.1 C 126.3 101.15 126.3 102.9 126.3 102.9 L 124.1 102.9 L 124.1 81.6 L 126.3 81.6 C 126.3 81.6 126.3 89.87 126.3 89.9 Z M 126.3 95.5 C 126.3 98.4 126.8 101.2 130 101.2 C 133.2 101.2 133.7 98.4 133.7 95.5 C 133.7 92.7 133.2 89.9 130 89.9 C 126.8 89.9 126.3 92.7 126.3 95.5 Z M 151.8 95.1 C 151.8 95.15 151.8 96.1 151.8 96.1 C 151.8 96.1 141.84 96.11 141.8 96.1 C 141.8 99.3 143.3 101.2 146.2 101.2 C 147.9 101.2 148.9 100.7 150.1 99.5 C 150.1 99.5 151.5 100.8 151.5 100.8 C 150 102.3 148.6 103.1 146.1 103.1 C 142.2 103.1 139.7 100.8 139.7 95.5 C 139.7 90.7 142 88 145.7 88 C 149.6 88 151.8 90.7 151.8 95.1 Z M 142.3 92 C 141.9 92.8 141.9 93.3 141.8 94.5 C 141.8 94.5 149.7 94.5 149.7 94.5 C 149.6 93.3 149.5 92.8 149.2 92 C 148.6 90.7 147.3 89.8 145.7 89.8 C 144.1 89.8 142.9 90.7 142.3 92 Z M 183.4 89.4 C 184.4 90.4 185 91.8 185 93.5 C 184.98 93.47 185 102.9 185 102.9 L 182.8 102.9 C 182.8 102.9 182.82 93.83 182.8 93.8 C 182.8 91.2 181.4 89.9 179.2 89.9 C 177 89.9 175.5 91.2 175.5 93.6 C 175.5 93.59 175.5 102.9 175.5 102.9 L 173.3 102.9 C 173.3 102.9 173.34 93.83 173.3 93.8 C 173.3 91.2 171.9 89.9 169.7 89.9 C 167.5 89.9 166 91.2 166 93.8 C 166.02 93.83 166 102.9 166 102.9 L 163.9 102.9 L 163.9 88.2 L 166 88.2 C 166 88.2 166.02 89.78 166 89.8 C 167.1 88.6 168.5 88 170.2 88 C 172.2 88 173.8 88.8 174.7 90.4 C 175.9 88.8 177.5 88 179.6 88 C 181.2 88 182.5 88.5 183.4 89.4 Z M 192.4 102.9 L 190.2 102.9 L 190.2 88.2 L 192.4 88.2 L 192.4 102.9 Z M 192.5 84 L 190.1 84 L 190.1 81.5 L 192.5 81.5 L 192.5 84 Z M 207.9 89.4 C 209 90.4 209.5 91.8 209.5 93.5 C 209.46 93.5 209.5 102.9 209.5 102.9 L 207.3 102.9 C 207.3 102.9 207.3 93.83 207.3 93.8 C 207.3 91.2 205.9 89.9 203.7 89.9 C 201.4 89.9 200 91.2 200 93.8 C 199.98 93.83 200 102.9 200 102.9 L 197.8 102.9 L 197.8 88.2 L 199.9 88.2 C 199.9 88.2 199.95 89.81 199.9 89.8 C 201 88.6 202.5 88 204.1 88 C 205.7 88 207 88.5 207.9 89.4 Z M 225.7 102.9 L 223.5 102.9 C 223.5 102.9 223.5 101.18 223.5 101.2 C 222.3 102.7 221 103.1 219.3 103.1 C 217.8 103.1 216.5 102.6 215.7 101.8 C 214.3 100.3 213.9 97.9 213.9 95.5 C 213.9 93.2 214.3 90.8 215.7 89.3 C 216.5 88.5 217.8 88 219.3 88 C 220.9 88 222.3 88.4 223.5 89.9 C 223.5 89.9 223.5 81.6 223.5 81.6 L 225.7 81.6 L 225.7 102.9 Z M 216.1 95.5 C 216.1 98.4 216.6 101.2 219.8 101.2 C 223 101.2 223.5 98.4 223.5 95.5 C 223.5 92.7 223 89.9 219.8 89.9 C 216.6 89.9 216.1 92.7 216.1 95.5 Z M 236.8 83.4 C 236.8 83.4 235.68 83.39 235.7 83.4 C 234.3 83.4 233.7 84.2 233.7 85.5 C 233.7 85.55 233.7 88.2 233.7 88.2 L 236.8 88.2 L 236.8 89.8 L 233.7 89.8 L 233.7 102.9 L 231.5 102.9 L 231.5 89.8 L 229.6 89.8 L 229.6 88.2 L 231.5 88.2 C 231.5 88.2 231.54 85.49 231.5 85.5 C 231.5 83.3 232.8 81.5 235.3 81.5 C 235.29 81.53 236.8 81.5 236.8 81.5 L 236.8 83.4 Z M 252 102.9 L 249.8 102.9 C 249.8 102.9 249.84 101.27 249.8 101.3 C 248.8 102.5 247.3 103.1 245.7 103.1 C 244.1 103.1 242.8 102.6 241.9 101.7 C 240.8 100.7 240.3 99.3 240.3 97.6 C 240.33 97.58 240.3 88.2 240.3 88.2 L 242.5 88.2 C 242.5 88.2 242.49 97.25 242.5 97.2 C 242.5 99.9 243.9 101.2 246.1 101.2 C 248.3 101.2 249.8 99.8 249.8 97.2 C 249.81 97.25 249.8 88.2 249.8 88.2 L 252 88.2 L 252 102.9 Z M 259.5 98.9 C 259.5 100.3 259.9 101.1 261.4 101.1 C 261.45 101.06 262.6 101.1 262.6 101.1 L 262.6 102.9 C 262.6 102.9 261.06 102.92 261.1 102.9 C 258.5 102.9 257.3 101.2 257.3 99 C 257.31 98.99 257.3 81.6 257.3 81.6 L 259.5 81.6 C 259.5 81.6 259.47 98.9 259.5 98.9 Z M 283.2 89.7 C 284.7 91.2 285 93.3 285 95.5 C 285 97.8 284.7 99.9 283.2 101.4 C 282.2 102.5 280.8 103.1 279 103.1 C 277.2 103.1 275.8 102.5 274.8 101.4 C 273.3 99.9 273 97.8 273 95.5 C 273 93.3 273.3 91.2 274.8 89.7 C 275.8 88.6 277.2 88 279 88 C 280.8 88 282.2 88.6 283.2 89.7 Z M 276.3 91 C 275.2 92.1 275.1 93.9 275.1 95.5 C 275.1 97.2 275.2 99 276.3 100.1 C 277 100.8 277.9 101.2 279 101.2 C 280 101.2 281 100.8 281.7 100.1 C 282.8 99 282.9 97.2 282.9 95.5 C 282.9 93.9 282.8 92.1 281.7 91 C 281 90.3 280 89.9 279 89.9 C 277.9 89.9 277 90.3 276.3 91 Z M 295.4 83.4 C 295.4 83.4 294.27 83.39 294.3 83.4 C 292.9 83.4 292.3 84.2 292.3 85.5 C 292.29 85.55 292.3 88.2 292.3 88.2 L 295.4 88.2 L 295.4 89.8 L 292.3 89.8 L 292.3 102.9 L 290.1 102.9 L 290.1 89.8 L 288.2 89.8 L 288.2 88.2 L 290.1 88.2 C 290.1 88.2 290.13 85.49 290.1 85.5 C 290.1 83.3 291.4 81.5 293.9 81.5 C 293.88 81.53 295.4 81.5 295.4 81.5 L 295.4 83.4 Z M 316.4 89.4 C 316.4 89.4 314.8 91 314.8 91 C 314 90.2 313.4 89.9 312.2 89.9 C 310.1 89.9 308.7 91.6 308.7 93.9 C 308.7 93.86 308.7 102.9 308.7 102.9 L 306.5 102.9 L 306.5 88.2 L 308.7 88.2 C 308.7 88.2 308.7 89.96 308.7 90 C 309.5 88.7 311.1 88 312.8 88 C 314.2 88 315.3 88.3 316.4 89.4 Z M 329.6 95.1 C 329.58 95.15 329.6 96.1 329.6 96.1 C 329.6 96.1 319.62 96.11 319.6 96.1 C 319.6 99.3 321.1 101.2 324 101.2 C 325.7 101.2 326.7 100.7 327.8 99.5 C 327.8 99.5 329.3 100.8 329.3 100.8 C 327.8 102.3 326.4 103.1 323.9 103.1 C 320 103.1 317.5 100.8 317.5 95.5 C 317.5 90.7 319.8 88 323.5 88 C 327.4 88 329.6 90.7 329.6 95.1 Z M 320.1 92 C 319.7 92.8 319.7 93.3 319.6 94.5 C 319.6 94.5 327.4 94.5 327.4 94.5 C 327.4 93.3 327.3 92.8 327 92 C 326.3 90.7 325.1 89.8 323.5 89.8 C 321.9 89.8 320.7 90.7 320.1 92 Z M 343 89.9 C 342.96 89.93 343 88.2 343 88.2 L 345.1 88.2 L 345.1 109.5 L 343 109.5 C 343 109.5 342.96 101.21 343 101.2 C 341.7 102.7 340.4 103.1 338.8 103.1 C 337.3 103.1 336 102.6 335.2 101.8 C 333.7 100.3 333.4 97.9 333.4 95.5 C 333.4 93.2 333.7 90.8 335.2 89.3 C 336 88.5 337.3 88 338.8 88 C 340.4 88 341.7 88.4 343 89.9 Z M 335.5 95.5 C 335.5 98.4 336 101.2 339.2 101.2 C 342.5 101.2 343 98.4 343 95.5 C 343 92.7 342.5 89.9 339.2 89.9 C 336 89.9 335.5 92.7 335.5 95.5 Z M 362 102.9 L 359.9 102.9 C 359.9 102.9 359.88 101.27 359.9 101.3 C 358.8 102.5 357.4 103.1 355.7 103.1 C 354.1 103.1 352.8 102.6 351.9 101.7 C 350.8 100.7 350.4 99.3 350.4 97.6 C 350.37 97.58 350.4 88.2 350.4 88.2 L 352.5 88.2 C 352.5 88.2 352.53 97.25 352.5 97.2 C 352.5 99.9 353.9 101.2 356.2 101.2 C 358.4 101.2 359.8 99.8 359.8 97.2 C 359.85 97.25 359.8 88.2 359.8 88.2 L 362 88.2 L 362 102.9 Z M 378.7 95.1 C 378.72 95.15 378.7 96.1 378.7 96.1 C 378.7 96.1 368.76 96.11 368.8 96.1 C 368.8 99.3 370.3 101.2 373.1 101.2 C 374.8 101.2 375.8 100.7 377 99.5 C 377 99.5 378.4 100.8 378.4 100.8 C 376.9 102.3 375.5 103.1 373 103.1 C 369.1 103.1 366.6 100.8 366.6 95.5 C 366.6 90.7 368.9 88 372.7 88 C 376.5 88 378.7 90.7 378.7 95.1 Z M 369.2 92 C 368.8 92.8 368.8 93.3 368.8 94.5 C 368.8 94.5 376.6 94.5 376.6 94.5 C 376.5 93.3 376.5 92.8 376.1 92 C 375.5 90.7 374.2 89.8 372.7 89.8 C 371.1 89.8 369.8 90.7 369.2 92 Z M 393.3 89.6 C 393.3 89.6 391.9 91 391.9 91 C 390.8 90.2 389.5 89.8 388 89.8 C 385.8 89.8 384.7 90.7 384.7 92.2 C 384.7 93.6 385.5 94.2 387.3 94.4 C 387.3 94.4 389.6 94.6 389.6 94.6 C 392.2 94.8 394 95.8 394 98.6 C 394 101.4 391.6 103.1 388 103.1 C 385.4 103.1 383.5 102.5 381.9 101 C 381.9 101 383.3 99.5 383.3 99.5 C 384.5 100.7 386.1 101.2 387.9 101.2 C 390.4 101.2 391.9 100.4 391.9 98.6 C 391.9 97.3 391.1 96.6 389.4 96.5 C 389.4 96.5 387 96.3 387 96.3 C 384.1 96 382.6 94.8 382.6 92.3 C 382.6 89.6 384.8 88 388 88 C 390.1 88 391.9 88.5 393.3 89.6 Z M 400.4 88.2 L 403.6 88.2 L 403.6 89.8 L 400.4 89.8 C 400.4 89.8 400.44 98.9 400.4 98.9 C 400.4 100.3 401.1 101.1 402.4 101.1 C 402.45 101.06 403.6 101.1 403.6 101.1 L 403.6 102.9 C 403.6 102.9 402.06 102.92 402.1 102.9 C 399.5 102.9 398.3 101.1 398.3 99 C 398.28 98.96 398.3 89.8 398.3 89.8 L 396.4 89.8 L 396.4 88.2 L 398.3 88.2 L 398.3 83.6 L 400.4 83.6 L 400.4 88.2 Z M 410 102.9 L 407.9 102.9 L 407.9 88.2 L 410 88.2 L 410 102.9 Z M 410.2 84 L 407.8 84 L 407.8 81.5 L 410.2 81.5 L 410.2 84 Z M 425.6 89.4 C 426.6 90.4 427.1 91.8 427.1 93.5 C 427.1 93.5 427.1 102.9 427.1 102.9 L 424.9 102.9 C 424.9 102.9 424.94 93.83 424.9 93.8 C 424.9 91.2 423.5 89.9 421.3 89.9 C 419.1 89.9 417.6 91.2 417.6 93.8 C 417.62 93.83 417.6 102.9 417.6 102.9 L 415.5 102.9 L 415.5 88.2 L 417.6 88.2 C 417.6 88.2 417.59 89.81 417.6 89.8 C 418.6 88.6 420.1 88 421.8 88 C 423.4 88 424.7 88.5 425.6 89.4 Z M 441.1 89.9 C 441.11 89.9 441.1 88.2 441.1 88.2 L 443.2 88.2 C 443.2 88.2 443.24 103.37 443.2 103.4 C 443.2 107 441 109.7 437.1 109.7 C 434.9 109.7 433.6 109.1 432.1 107.7 C 432.1 107.7 433.5 106.3 433.5 106.3 C 434.6 107.3 435.3 107.8 437 107.8 C 439.9 107.8 441.1 105.8 441.1 103.3 C 441.1 103.3 441.1 101 441.1 101 C 439.9 102.5 438.5 102.9 436.9 102.9 C 435.4 102.9 434.2 102.3 433.4 101.6 C 431.9 100.1 431.6 97.8 431.6 95.4 C 431.6 93 431.9 90.7 433.4 89.3 C 434.2 88.5 435.5 88 437 88 C 438.6 88 439.9 88.3 441.1 89.9 Z M 433.7 95.4 C 433.7 98.2 434.2 100.9 437.4 100.9 C 440.6 100.9 441.1 98.2 441.1 95.4 C 441.1 92.7 440.6 89.9 437.4 89.9 C 434.2 89.9 433.7 92.7 433.7 95.4 Z M 458.6 88.2 L 461.8 88.2 L 461.8 89.8 L 458.6 89.8 C 458.6 89.8 458.63 98.9 458.6 98.9 C 458.6 100.3 459.3 101.1 460.6 101.1 C 460.64 101.06 461.8 101.1 461.8 101.1 L 461.8 102.9 C 461.8 102.9 460.25 102.92 460.3 102.9 C 457.7 102.9 456.5 101.1 456.5 99 C 456.47 98.96 456.5 89.8 456.5 89.8 L 454.6 89.8 L 454.6 88.2 L 456.5 88.2 L 456.5 83.6 L 458.6 83.6 L 458.6 88.2 Z M 468.2 89.8 C 469.3 88.6 470.7 88 472.4 88 C 474 88 475.3 88.5 476.2 89.4 C 477.2 90.4 477.7 91.8 477.7 93.5 C 477.68 93.5 477.7 102.9 477.7 102.9 L 475.5 102.9 C 475.5 102.9 475.52 93.83 475.5 93.8 C 475.5 91.2 474.1 89.9 471.9 89.9 C 469.7 89.9 468.2 91.2 468.2 93.8 C 468.23 93.83 468.2 102.9 468.2 102.9 L 466.1 102.9 L 466.1 81.6 L 468.2 81.6 C 468.2 81.6 468.23 89.81 468.2 89.8 Z M 494.2 95.1 C 494.24 95.15 494.2 96.1 494.2 96.1 C 494.2 96.1 484.28 96.11 484.3 96.1 C 484.3 99.3 485.8 101.2 488.6 101.2 C 490.3 101.2 491.3 100.7 492.5 99.5 C 492.5 99.5 494 100.8 494 100.8 C 492.5 102.3 491.1 103.1 488.6 103.1 C 484.6 103.1 482.1 100.8 482.1 95.5 C 482.1 90.7 484.4 88 488.2 88 C 492 88 494.2 90.7 494.2 95.1 Z M 484.7 92 C 484.4 92.8 484.3 93.3 484.3 94.5 C 484.3 94.5 492.1 94.5 492.1 94.5 C 492 93.3 492 92.8 491.6 92 C 491 90.7 489.8 89.8 488.2 89.8 C 486.6 89.8 485.4 90.7 484.7 92 Z M 516.8 92.9 C 516.83 92.9 516.8 102.9 516.8 102.9 L 514.7 102.9 C 514.7 102.9 514.67 101.51 514.7 101.5 C 513.5 102.7 512.4 103.1 510.4 103.1 C 508.4 103.1 507.3 102.7 506.2 101.7 C 505.5 101 505.1 99.9 505.1 98.7 C 505.1 96.1 507 94.5 510.3 94.5 C 510.26 94.49 514.7 94.5 514.7 94.5 C 514.7 94.5 514.67 93.08 514.7 93.1 C 514.7 90.9 513.6 89.8 510.9 89.8 C 509 89.8 508.1 90.3 507.2 91.5 C 507.2 91.5 505.7 90.2 505.7 90.2 C 507 88.5 508.5 88 510.9 88 C 514.9 88 516.8 89.7 516.8 92.9 Z M 510.6 96.1 C 508.3 96.1 507.2 97 507.2 98.7 C 507.2 100.4 508.3 101.2 510.7 101.2 C 511.9 101.2 513 101.1 513.9 100.2 C 514.4 99.8 514.7 98.9 514.7 97.7 C 514.67 97.7 514.7 96.1 514.7 96.1 C 514.7 96.1 510.56 96.11 510.6 96.1 Z M 532 89.3 C 533.5 90.7 533.8 93.2 533.8 95.5 C 533.8 97.9 533.5 100.3 532 101.8 C 531.2 102.6 529.9 103.1 528.4 103.1 C 526.8 103.1 525.5 102.7 524.2 101.2 C 524.24 101.18 524.2 109.5 524.2 109.5 L 522.1 109.5 L 522.1 88.2 L 524.2 88.2 C 524.2 88.2 524.24 89.9 524.2 89.9 C 525.5 88.4 526.8 88 528.4 88 C 529.9 88 531.2 88.5 532 89.3 Z M 524.2 95.5 C 524.2 98.4 524.7 101.2 528 101.2 C 531.2 101.2 531.7 98.4 531.7 95.5 C 531.7 92.7 531.2 89.9 528 89.9 C 524.7 89.9 524.2 92.7 524.2 95.5 Z M 548.4 89.3 C 549.8 90.7 550.2 93.2 550.2 95.5 C 550.2 97.9 549.8 100.3 548.4 101.8 C 547.6 102.6 546.3 103.1 544.8 103.1 C 543.1 103.1 541.8 102.7 540.6 101.2 C 540.59 101.18 540.6 109.5 540.6 109.5 L 538.4 109.5 L 538.4 88.2 L 540.6 88.2 C 540.6 88.2 540.59 89.9 540.6 89.9 C 541.8 88.4 543.1 88 544.8 88 C 546.3 88 547.6 88.5 548.4 89.3 Z M 540.6 95.5 C 540.6 98.4 541.1 101.2 544.3 101.2 C 547.5 101.2 548 98.4 548 95.5 C 548 92.7 547.5 89.9 544.3 89.9 C 541.1 89.9 540.6 92.7 540.6 95.5 Z M 564.6 89.4 C 564.6 89.4 563 91 563 91 C 562.2 90.2 561.6 89.9 560.5 89.9 C 558.3 89.9 556.9 91.6 556.9 93.9 C 556.94 93.86 556.9 102.9 556.9 102.9 L 554.8 102.9 L 554.8 88.2 L 556.9 88.2 C 556.9 88.2 556.94 89.96 556.9 90 C 557.8 88.7 559.4 88 561.1 88 C 562.5 88 563.6 88.3 564.6 89.4 Z M 576 89.7 C 577.5 91.2 577.8 93.3 577.8 95.5 C 577.8 97.8 577.5 99.9 576 101.4 C 575 102.5 573.6 103.1 571.8 103.1 C 570 103.1 568.6 102.5 567.5 101.4 C 566 99.9 565.7 97.8 565.7 95.5 C 565.7 93.3 566 91.2 567.5 89.7 C 568.6 88.6 570 88 571.8 88 C 573.6 88 575 88.6 576 89.7 Z M 569.1 91 C 568 92.1 567.9 93.9 567.9 95.5 C 567.9 97.2 568 99 569.1 100.1 C 569.8 100.8 570.7 101.2 571.8 101.2 C 572.8 101.2 573.7 100.8 574.5 100.1 C 575.5 99 575.6 97.2 575.6 95.5 C 575.6 93.9 575.5 92.1 574.5 91 C 573.7 90.3 572.8 89.9 571.8 89.9 C 570.7 89.9 569.8 90.3 569.1 91 Z M 592.3 89.3 C 593.8 90.7 594.1 93.2 594.1 95.5 C 594.1 97.9 593.8 100.3 592.3 101.8 C 591.6 102.6 590.3 103.1 588.7 103.1 C 587.1 103.1 585.8 102.7 584.6 101.2 C 584.57 101.18 584.6 109.5 584.6 109.5 L 582.4 109.5 L 582.4 88.2 L 584.6 88.2 C 584.6 88.2 584.57 89.9 584.6 89.9 C 585.8 88.4 587.1 88 588.7 88 C 590.3 88 591.6 88.5 592.3 89.3 Z M 584.6 95.5 C 584.6 98.4 585.1 101.2 588.3 101.2 C 591.5 101.2 592 98.4 592 95.5 C 592 92.7 591.5 89.9 588.3 89.9 C 585.1 89.9 584.6 92.7 584.6 95.5 Z M 608.6 89.4 C 608.6 89.4 607 91 607 91 C 606.2 90.2 605.6 89.9 604.5 89.9 C 602.3 89.9 600.9 91.6 600.9 93.9 C 600.92 93.86 600.9 102.9 600.9 102.9 L 598.8 102.9 L 598.8 88.2 L 600.9 88.2 C 600.9 88.2 600.92 89.96 600.9 90 C 601.7 88.7 603.4 88 605.1 88 C 606.5 88 607.6 88.3 608.6 89.4 Z M 613.6 102.9 L 611.4 102.9 L 611.4 88.2 L 613.6 88.2 L 613.6 102.9 Z M 613.7 84 L 611.3 84 L 611.3 81.5 L 613.7 81.5 L 613.7 84 Z M 629.5 92.9 C 629.51 92.9 629.5 102.9 629.5 102.9 L 627.4 102.9 C 627.4 102.9 627.35 101.51 627.4 101.5 C 626.2 102.7 625.1 103.1 623.1 103.1 C 621.1 103.1 619.9 102.7 618.9 101.7 C 618.2 101 617.8 99.9 617.8 98.7 C 617.8 96.1 619.6 94.5 622.9 94.5 C 622.94 94.49 627.4 94.5 627.4 94.5 C 627.4 94.5 627.35 93.08 627.4 93.1 C 627.4 90.9 626.3 89.8 623.6 89.8 C 621.7 89.8 620.8 90.3 619.9 91.5 C 619.9 91.5 618.4 90.2 618.4 90.2 C 619.7 88.5 621.2 88 623.6 88 C 627.6 88 629.5 89.7 629.5 92.9 Z M 623.2 96.1 C 621 96.1 619.9 97 619.9 98.7 C 619.9 100.4 621 101.2 623.3 101.2 C 624.6 101.2 625.6 101.1 626.6 100.2 C 627.1 99.8 627.4 98.9 627.4 97.7 C 627.35 97.7 627.4 96.1 627.4 96.1 C 627.4 96.1 623.24 96.11 623.2 96.1 Z M 637.3 88.2 L 640.4 88.2 L 640.4 89.8 L 637.3 89.8 C 637.3 89.8 637.28 98.9 637.3 98.9 C 637.3 100.3 637.9 101.1 639.3 101.1 C 639.29 101.06 640.4 101.1 640.4 101.1 L 640.4 102.9 C 640.4 102.9 638.9 102.92 638.9 102.9 C 636.4 102.9 635.1 101.1 635.1 99 C 635.12 98.96 635.1 89.8 635.1 89.8 L 633.3 89.8 L 633.3 88.2 L 635.1 88.2 L 635.1 83.6 L 637.3 83.6 L 637.3 88.2 Z M 655.9 95.1 C 655.88 95.15 655.9 96.1 655.9 96.1 C 655.9 96.1 645.92 96.11 645.9 96.1 C 645.9 99.3 647.4 101.2 650.3 101.2 C 652 101.2 653 100.7 654.1 99.5 C 654.1 99.5 655.6 100.8 655.6 100.8 C 654.1 102.3 652.7 103.1 650.2 103.1 C 646.3 103.1 643.8 100.8 643.8 95.5 C 643.8 90.7 646.1 88 649.8 88 C 653.7 88 655.9 90.7 655.9 95.1 Z M 646.4 92 C 646 92.8 646 93.3 645.9 94.5 C 645.9 94.5 653.8 94.5 653.8 94.5 C 653.7 93.3 653.6 92.8 653.3 92 C 652.6 90.7 651.4 89.8 649.8 89.8 C 648.2 89.8 647 90.7 646.4 92 Z M 670 98.9 C 670 100.3 670.5 101.1 672 101.1 C 672.02 101.06 673.2 101.1 673.2 101.1 L 673.2 102.9 C 673.2 102.9 671.63 102.92 671.6 102.9 C 669.1 102.9 667.9 101.2 667.9 99 C 667.88 98.99 667.9 81.6 667.9 81.6 L 670 81.6 C 670 81.6 670.04 98.9 670 98.9 Z M 687.4 92.9 C 687.38 92.9 687.4 102.9 687.4 102.9 L 685.2 102.9 C 685.2 102.9 685.22 101.51 685.2 101.5 C 684.1 102.7 682.9 103.1 681 103.1 C 678.9 103.1 677.8 102.7 676.8 101.7 C 676 101 675.7 99.9 675.7 98.7 C 675.7 96.1 677.5 94.5 680.8 94.5 C 680.81 94.49 685.2 94.5 685.2 94.5 C 685.2 94.5 685.22 93.08 685.2 93.1 C 685.2 90.9 684.2 89.8 681.4 89.8 C 679.6 89.8 678.6 90.3 677.7 91.5 C 677.7 91.5 676.3 90.2 676.3 90.2 C 677.5 88.5 679 88 681.5 88 C 685.5 88 687.4 89.7 687.4 92.9 Z M 681.1 96.1 C 678.9 96.1 677.8 97 677.8 98.7 C 677.8 100.4 678.8 101.2 681.2 101.2 C 682.4 101.2 683.5 101.1 684.5 100.2 C 685 99.8 685.2 98.9 685.2 97.7 C 685.22 97.7 685.2 96.1 685.2 96.1 C 685.2 96.1 681.11 96.11 681.1 96.1 Z M 702.7 89.4 C 703.8 90.4 704.3 91.8 704.3 93.5 C 704.27 93.5 704.3 102.9 704.3 102.9 L 702.1 102.9 C 702.1 102.9 702.11 93.83 702.1 93.8 C 702.1 91.2 700.7 89.9 698.5 89.9 C 696.3 89.9 694.8 91.2 694.8 93.8 C 694.79 93.83 694.8 102.9 694.8 102.9 L 692.6 102.9 L 692.6 88.2 L 694.8 88.2 C 694.8 88.2 694.76 89.81 694.8 89.8 C 695.8 88.6 697.3 88 698.9 88 C 700.5 88 701.8 88.5 702.7 89.4 Z M 718.3 89.9 C 718.28 89.9 718.3 88.2 718.3 88.2 L 720.4 88.2 C 720.4 88.2 720.41 103.37 720.4 103.4 C 720.4 107 718.1 109.7 714.3 109.7 C 712 109.7 710.8 109.1 709.3 107.7 C 709.3 107.7 710.7 106.3 710.7 106.3 C 711.7 107.3 712.5 107.8 714.2 107.8 C 717.1 107.8 718.3 105.8 718.3 103.3 C 718.3 103.3 718.3 101 718.3 101 C 717.1 102.5 715.7 102.9 714.1 102.9 C 712.6 102.9 711.3 102.3 710.5 101.6 C 709.1 100.1 708.7 97.8 708.7 95.4 C 708.7 93 709.1 90.7 710.5 89.3 C 711.3 88.5 712.6 88 714.1 88 C 715.8 88 717.1 88.3 718.3 89.9 Z M 710.9 95.4 C 710.9 98.2 711.4 100.9 714.6 100.9 C 717.8 100.9 718.3 98.2 718.3 95.4 C 718.3 92.7 717.8 89.9 714.6 89.9 C 711.4 89.9 710.9 92.7 710.9 95.4 Z M 737.3 102.9 L 735.2 102.9 C 735.2 102.9 735.17 101.27 735.2 101.3 C 734.1 102.5 732.7 103.1 731 103.1 C 729.4 103.1 728.1 102.6 727.2 101.7 C 726.1 100.7 725.7 99.3 725.7 97.6 C 725.66 97.58 725.7 88.2 725.7 88.2 L 727.8 88.2 C 727.8 88.2 727.82 97.25 727.8 97.2 C 727.8 99.9 729.2 101.2 731.5 101.2 C 733.7 101.2 735.1 99.8 735.1 97.2 C 735.14 97.25 735.1 88.2 735.1 88.2 L 737.3 88.2 L 737.3 102.9 Z M 753.2 92.9 C 753.23 92.9 753.2 102.9 753.2 102.9 L 751.1 102.9 C 751.1 102.9 751.07 101.51 751.1 101.5 C 749.9 102.7 748.8 103.1 746.8 103.1 C 744.8 103.1 743.7 102.7 742.6 101.7 C 741.9 101 741.5 99.9 741.5 98.7 C 741.5 96.1 743.4 94.5 746.7 94.5 C 746.66 94.49 751.1 94.5 751.1 94.5 C 751.1 94.5 751.07 93.08 751.1 93.1 C 751.1 90.9 750 89.8 747.3 89.8 C 745.4 89.8 744.5 90.3 743.6 91.5 C 743.6 91.5 742.1 90.2 742.1 90.2 C 743.4 88.5 744.9 88 747.3 88 C 751.3 88 753.2 89.7 753.2 92.9 Z M 747 96.1 C 744.7 96.1 743.6 97 743.6 98.7 C 743.6 100.4 744.7 101.2 747.1 101.2 C 748.3 101.2 749.4 101.1 750.3 100.2 C 750.8 99.8 751.1 98.9 751.1 97.7 C 751.07 97.7 751.1 96.1 751.1 96.1 C 751.1 96.1 746.96 96.11 747 96.1 Z M 767.2 89.9 C 767.24 89.9 767.2 88.2 767.2 88.2 L 769.4 88.2 C 769.4 88.2 769.37 103.37 769.4 103.4 C 769.4 107 767.1 109.7 763.2 109.7 C 761 109.7 759.8 109.1 758.2 107.7 C 758.2 107.7 759.6 106.3 759.6 106.3 C 760.7 107.3 761.4 107.8 763.2 107.8 C 766 107.8 767.2 105.8 767.2 103.3 C 767.2 103.3 767.2 101 767.2 101 C 766 102.5 764.7 102.9 763.1 102.9 C 761.6 102.9 760.3 102.3 759.5 101.6 C 758 100.1 757.7 97.8 757.7 95.4 C 757.7 93 758 90.7 759.5 89.3 C 760.3 88.5 761.6 88 763.1 88 C 764.7 88 766 88.3 767.2 89.9 Z M 759.9 95.4 C 759.9 98.2 760.3 100.9 763.5 100.9 C 766.8 100.9 767.2 98.2 767.2 95.4 C 767.2 92.7 766.8 89.9 763.5 89.9 C 760.3 89.9 759.9 92.7 759.9 95.4 Z M 786.1 95.1 C 786.08 95.15 786.1 96.1 786.1 96.1 C 786.1 96.1 776.12 96.11 776.1 96.1 C 776.1 99.3 777.6 101.2 780.5 101.2 C 782.2 101.2 783.2 100.7 784.3 99.5 C 784.3 99.5 785.8 100.8 785.8 100.8 C 784.3 102.3 782.9 103.1 780.4 103.1 C 776.5 103.1 774 100.8 774 95.5 C 774 90.7 776.3 88 780 88 C 783.9 88 786.1 90.7 786.1 95.1 Z M 776.6 92 C 776.2 92.8 776.2 93.3 776.1 94.5 C 776.1 94.5 783.9 94.5 783.9 94.5 C 783.9 93.3 783.8 92.8 783.5 92 C 782.8 90.7 781.6 89.8 780 89.8 C 778.4 89.8 777.2 90.7 776.6 92 Z M 793.2 104.9 L 790.6 107.2 L 790.6 100.3 L 793.2 100.3 L 793.2 104.9 Z M 808.2 102.9 L 806.1 102.9 L 806.1 88.2 L 808.2 88.2 L 808.2 102.9 Z M 808.4 84 L 805.9 84 L 805.9 81.5 L 808.4 81.5 L 808.4 84 Z M 819.4 83.4 C 819.4 83.4 818.27 83.39 818.3 83.4 C 816.9 83.4 816.3 84.2 816.3 85.5 C 816.29 85.55 816.3 88.2 816.3 88.2 L 819.4 88.2 L 819.4 89.8 L 816.3 89.8 L 816.3 102.9 L 814.1 102.9 L 814.1 89.8 L 812.2 89.8 L 812.2 88.2 L 814.1 88.2 C 814.1 88.2 814.13 85.49 814.1 85.5 C 814.1 83.3 815.4 81.5 817.9 81.5 C 817.88 81.53 819.4 81.5 819.4 81.5 L 819.4 83.4 Z M 832.7 102.9 L 830.5 102.9 L 830.5 88.2 L 832.7 88.2 L 832.7 102.9 Z M 832.8 84 L 830.4 84 L 830.4 81.5 L 832.8 81.5 L 832.8 84 Z M 840.6 88.2 L 843.8 88.2 L 843.8 89.8 L 840.6 89.8 C 840.6 89.8 840.65 98.9 840.6 98.9 C 840.6 100.3 841.3 101.1 842.7 101.1 C 842.66 101.06 843.8 101.1 843.8 101.1 L 843.8 102.9 C 843.8 102.9 842.27 102.92 842.3 102.9 C 839.7 102.9 838.5 101.1 838.5 99 C 838.49 98.96 838.5 89.8 838.5 89.8 L 836.6 89.8 L 836.6 88.2 L 838.5 88.2 L 838.5 83.6 L 840.6 83.6 L 840.6 88.2 Z M 866.2 90.2 C 866.2 90.2 864.7 91.5 864.7 91.5 C 863.6 90.3 862.7 89.9 861.3 89.9 C 859.9 89.9 858.7 90.5 857.9 91.6 C 857.2 92.5 856.9 93.7 856.9 95.5 C 856.9 97.4 857.2 98.5 857.9 99.5 C 858.7 100.6 859.9 101.2 861.3 101.2 C 862.7 101.2 863.6 100.7 864.7 99.5 C 864.7 99.5 866.2 100.9 866.2 100.9 C 864.6 102.6 863.4 103.1 861.3 103.1 C 857.6 103.1 854.8 100.6 854.8 95.5 C 854.8 90.5 857.6 88 861.3 88 C 863.4 88 864.6 88.5 866.2 90.2 Z M 880.7 92.9 C 880.67 92.9 880.7 102.9 880.7 102.9 L 878.5 102.9 C 878.5 102.9 878.51 101.51 878.5 101.5 C 877.3 102.7 876.2 103.1 874.2 103.1 C 872.2 103.1 871.1 102.7 870.1 101.7 C 869.3 101 869 99.9 869 98.7 C 869 96.1 870.8 94.5 874.1 94.5 C 874.1 94.49 878.5 94.5 878.5 94.5 C 878.5 94.5 878.51 93.08 878.5 93.1 C 878.5 90.9 877.5 89.8 874.7 89.8 C 872.9 89.8 871.9 90.3 871 91.5 C 871 91.5 869.5 90.2 869.5 90.2 C 870.8 88.5 872.3 88 874.8 88 C 878.7 88 880.7 89.7 880.7 92.9 Z M 874.4 96.1 C 872.2 96.1 871.1 97 871.1 98.7 C 871.1 100.4 872.1 101.2 874.5 101.2 C 875.7 101.2 876.8 101.1 877.8 100.2 C 878.3 99.8 878.5 98.9 878.5 97.7 C 878.51 97.7 878.5 96.1 878.5 96.1 C 878.5 96.1 874.4 96.11 874.4 96.1 Z M 896 89.4 C 897.1 90.4 897.6 91.8 897.6 93.5 C 897.56 93.5 897.6 102.9 897.6 102.9 L 895.4 102.9 C 895.4 102.9 895.4 93.83 895.4 93.8 C 895.4 91.2 894 89.9 891.8 89.9 C 889.5 89.9 888.1 91.2 888.1 93.8 C 888.08 93.83 888.1 102.9 888.1 102.9 L 885.9 102.9 L 885.9 88.2 L 888 88.2 C 888 88.2 888.05 89.81 888 89.8 C 889.1 88.6 890.6 88 892.2 88 C 893.8 88 895.1 88.5 896 89.4 Z M 912.4 89.9 C 913.7 88.3 915 88 916.6 88 C 918.1 88 919.4 88.5 920.2 89.3 C 921.7 90.7 922 93.2 922 95.5 C 922 97.9 921.7 100.3 920.2 101.8 C 919.4 102.6 918.1 103.1 916.6 103.1 C 915 103.1 913.7 102.7 912.4 101.1 C 912.44 101.15 912.4 102.9 912.4 102.9 L 910.3 102.9 L 910.3 81.6 L 912.4 81.6 C 912.4 81.6 912.44 89.87 912.4 89.9 Z M 912.4 95.5 C 912.4 98.4 912.9 101.2 916.2 101.2 C 919.4 101.2 919.8 98.4 919.8 95.5 C 919.8 92.7 919.4 89.9 916.2 89.9 C 912.9 89.9 912.4 92.7 912.4 95.5 Z M 937.9 95.1 C 937.94 95.15 937.9 96.1 937.9 96.1 C 937.9 96.1 927.98 96.11 928 96.1 C 928 99.3 929.5 101.2 932.3 101.2 C 934 101.2 935 100.7 936.2 99.5 C 936.2 99.5 937.7 100.8 937.7 100.8 C 936.2 102.3 934.8 103.1 932.3 103.1 C 928.3 103.1 925.8 100.8 925.8 95.5 C 925.8 90.7 928.1 88 931.9 88 C 935.7 88 937.9 90.7 937.9 95.1 Z M 928.4 92 C 928.1 92.8 928 93.3 928 94.5 C 928 94.5 935.8 94.5 935.8 94.5 C 935.7 93.3 935.7 92.8 935.3 92 C 934.7 90.7 933.5 89.8 931.9 89.8 C 930.3 89.8 929.1 90.7 928.4 92 Z " stroke="none" fill="#000"/>  </g>  <g id="Polygon27067">    <path d="M 34.9 62.9 L 32.7 62.9 L 32.7 48.2 L 34.9 48.2 L 34.9 62.9 Z M 35 44 L 32.6 44 L 32.6 41.5 L 35 41.5 L 35 44 Z M 50.3 49.6 C 50.3 49.6 48.9 51 48.9 51 C 47.8 50.2 46.5 49.8 44.9 49.8 C 42.8 49.8 41.6 50.7 41.6 52.2 C 41.6 53.6 42.4 54.2 44.3 54.4 C 44.3 54.4 46.6 54.6 46.6 54.6 C 49.2 54.8 50.9 55.8 50.9 58.6 C 50.9 61.4 48.5 63.1 44.9 63.1 C 42.4 63.1 40.5 62.5 38.9 61 C 38.9 61 40.3 59.5 40.3 59.5 C 41.5 60.7 43.1 61.2 44.9 61.2 C 47.4 61.2 48.8 60.4 48.8 58.6 C 48.8 57.3 48.1 56.6 46.4 56.5 C 46.4 56.5 43.9 56.3 43.9 56.3 C 41.1 56 39.5 54.8 39.5 52.3 C 39.5 49.6 41.8 48 45 48 C 47.1 48 48.9 48.5 50.3 49.6 Z M 72.6 49.6 C 72.6 49.6 71.2 51 71.2 51 C 70.2 50.2 68.8 49.8 67.3 49.8 C 65.1 49.8 64 50.7 64 52.2 C 64 53.6 64.8 54.2 66.6 54.4 C 66.6 54.4 68.9 54.6 68.9 54.6 C 71.5 54.8 73.3 55.8 73.3 58.6 C 73.3 61.4 70.9 63.1 67.3 63.1 C 64.8 63.1 62.8 62.5 61.2 61 C 61.2 61 62.7 59.5 62.7 59.5 C 63.8 60.7 65.4 61.2 67.3 61.2 C 69.7 61.2 71.2 60.4 71.2 58.6 C 71.2 57.3 70.5 56.6 68.7 56.5 C 68.7 56.5 66.3 56.3 66.3 56.3 C 63.4 56 61.9 54.8 61.9 52.3 C 61.9 49.6 64.1 48 67.3 48 C 69.4 48 71.3 48.5 72.6 49.6 Z M 89 62.9 L 86.9 62.9 C 86.9 62.9 86.88 61.27 86.9 61.3 C 85.8 62.5 84.4 63.1 82.7 63.1 C 81.1 63.1 79.8 62.6 78.9 61.7 C 77.8 60.7 77.4 59.3 77.4 57.6 C 77.37 57.58 77.4 48.2 77.4 48.2 L 79.5 48.2 C 79.5 48.2 79.53 57.25 79.5 57.2 C 79.5 59.9 80.9 61.2 83.2 61.2 C 85.4 61.2 86.8 59.8 86.8 57.2 C 86.85 57.25 86.8 48.2 86.8 48.2 L 89 48.2 L 89 62.9 Z M 96.6 49.9 C 97.8 48.3 99.1 48 100.7 48 C 102.3 48 103.6 48.5 104.3 49.3 C 105.8 50.7 106.1 53.2 106.1 55.5 C 106.1 57.9 105.8 60.3 104.3 61.8 C 103.6 62.6 102.3 63.1 100.7 63.1 C 99.1 63.1 97.8 62.7 96.6 61.1 C 96.57 61.15 96.6 62.9 96.6 62.9 L 94.4 62.9 L 94.4 41.6 L 96.6 41.6 C 96.6 41.6 96.57 49.87 96.6 49.9 Z M 96.6 55.5 C 96.6 58.4 97 61.2 100.3 61.2 C 103.5 61.2 104 58.4 104 55.5 C 104 52.7 103.5 49.9 100.3 49.9 C 97 49.9 96.6 52.7 96.6 55.5 Z M 130.3 49.4 C 131.3 50.4 131.9 51.8 131.9 53.5 C 131.88 53.47 131.9 62.9 131.9 62.9 L 129.7 62.9 C 129.7 62.9 129.72 53.83 129.7 53.8 C 129.7 51.2 128.3 49.9 126.1 49.9 C 123.9 49.9 122.4 51.2 122.4 53.6 C 122.4 53.59 122.4 62.9 122.4 62.9 L 120.2 62.9 C 120.2 62.9 120.24 53.83 120.2 53.8 C 120.2 51.2 118.8 49.9 116.6 49.9 C 114.4 49.9 112.9 51.2 112.9 53.8 C 112.92 53.83 112.9 62.9 112.9 62.9 L 110.8 62.9 L 110.8 48.2 L 112.9 48.2 C 112.9 48.2 112.92 49.78 112.9 49.8 C 114 48.6 115.4 48 117.1 48 C 119.1 48 120.7 48.8 121.6 50.4 C 122.8 48.8 124.4 48 126.5 48 C 128.1 48 129.4 48.5 130.3 49.4 Z M 139.3 62.9 L 137.1 62.9 L 137.1 48.2 L 139.3 48.2 L 139.3 62.9 Z M 139.4 44 L 137 44 L 137 41.5 L 139.4 41.5 L 139.4 44 Z M 147.2 48.2 L 150.4 48.2 L 150.4 49.8 L 147.2 49.8 C 147.2 49.8 147.24 58.9 147.2 58.9 C 147.2 60.3 147.9 61.1 149.2 61.1 C 149.25 61.06 150.4 61.1 150.4 61.1 L 150.4 62.9 C 150.4 62.9 148.86 62.92 148.9 62.9 C 146.3 62.9 145.1 61.1 145.1 59 C 145.08 58.96 145.1 49.8 145.1 49.8 L 143.2 49.8 L 143.2 48.2 L 145.1 48.2 L 145.1 43.6 L 147.2 43.6 L 147.2 48.2 Z M 157 48.2 L 160.1 48.2 L 160.1 49.8 L 157 49.8 C 157 49.8 156.96 58.9 157 58.9 C 157 60.3 157.6 61.1 159 61.1 C 158.97 61.06 160.1 61.1 160.1 61.1 L 160.1 62.9 C 160.1 62.9 158.58 62.92 158.6 62.9 C 156.1 62.9 154.8 61.1 154.8 59 C 154.8 58.96 154.8 49.8 154.8 49.8 L 152.9 49.8 L 152.9 48.2 L 154.8 48.2 L 154.8 43.6 L 157 43.6 L 157 48.2 Z M 175.6 55.1 C 175.56 55.15 175.6 56.1 175.6 56.1 C 175.6 56.1 165.6 56.11 165.6 56.1 C 165.6 59.3 167.1 61.2 169.9 61.2 C 171.7 61.2 172.6 60.7 173.8 59.5 C 173.8 59.5 175.3 60.8 175.3 60.8 C 173.8 62.3 172.4 63.1 169.9 63.1 C 166 63.1 163.4 60.8 163.4 55.5 C 163.4 50.7 165.7 48 169.5 48 C 173.3 48 175.6 50.7 175.6 55.1 Z M 166 52 C 165.7 52.8 165.7 53.3 165.6 54.5 C 165.6 54.5 173.4 54.5 173.4 54.5 C 173.3 53.3 173.3 52.8 172.9 52 C 172.3 50.7 171.1 49.8 169.5 49.8 C 167.9 49.8 166.7 50.7 166 52 Z M 191.1 62.9 L 188.9 62.9 C 188.9 62.9 188.94 61.18 188.9 61.2 C 187.7 62.7 186.4 63.1 184.8 63.1 C 183.2 63.1 181.9 62.6 181.2 61.8 C 179.7 60.3 179.4 57.9 179.4 55.5 C 179.4 53.2 179.7 50.8 181.2 49.3 C 181.9 48.5 183.2 48 184.8 48 C 186.4 48 187.7 48.4 188.9 49.9 C 188.94 49.9 188.9 41.6 188.9 41.6 L 191.1 41.6 L 191.1 62.9 Z M 181.5 55.5 C 181.5 58.4 182 61.2 185.2 61.2 C 188.5 61.2 188.9 58.4 188.9 55.5 C 188.9 52.7 188.5 49.9 185.2 49.9 C 182 49.9 181.5 52.7 181.5 55.5 Z M 199.3 62.9 L 196.4 62.9 L 196.4 60.1 L 199.3 60.1 L 199.3 62.9 Z " stroke="none" fill="#000"/>  </g>  <g id="Polygon27066">    <path d="M 7.7 4 L 3.8 7.5 L 3.8 5 L 7.7 1.6 L 9.9 1.6 L 9.9 22.9 L 7.7 22.9 L 7.7 4 Z M 21.1 22.9 L 18.3 22.9 L 18.3 20.1 L 21.1 20.1 L 21.1 22.9 Z M 35.4 20.9 L 46.3 20.9 L 46.3 22.9 L 33.1 22.9 L 33.1 1.6 L 35.4 1.6 L 35.4 20.9 Z M 52 22.9 L 49.9 22.9 L 49.9 8.2 L 52 8.2 L 52 22.9 Z M 52.2 4 L 49.8 4 L 49.8 1.5 L 52.2 1.5 L 52.2 4 Z M 67.6 9.4 C 68.6 10.4 69.1 11.8 69.1 13.5 C 69.12 13.5 69.1 22.9 69.1 22.9 L 67 22.9 C 67 22.9 66.96 13.83 67 13.8 C 67 11.2 65.5 9.9 63.3 9.9 C 61.1 9.9 59.6 11.2 59.6 13.8 C 59.64 13.83 59.6 22.9 59.6 22.9 L 57.5 22.9 L 57.5 8.2 L 59.6 8.2 C 59.6 8.2 59.61 9.81 59.6 9.8 C 60.7 8.6 62.1 8 63.8 8 C 65.4 8 66.7 8.5 67.6 9.4 Z M 85 10.2 C 85 10.2 83.5 11.5 83.5 11.5 C 82.4 10.3 81.5 9.9 80.1 9.9 C 78.7 9.9 77.5 10.5 76.7 11.6 C 76 12.5 75.7 13.7 75.7 15.5 C 75.7 17.4 76 18.5 76.7 19.5 C 77.5 20.6 78.7 21.2 80.1 21.2 C 81.5 21.2 82.4 20.7 83.5 19.5 C 83.5 19.5 85 20.9 85 20.9 C 83.5 22.6 82.2 23.1 80.1 23.1 C 76.4 23.1 73.6 20.6 73.6 15.5 C 73.6 10.5 76.4 8 80.1 8 C 82.2 8 83.5 8.5 85 10.2 Z M 98.1 9.7 C 99.6 11.2 99.9 13.3 99.9 15.5 C 99.9 17.8 99.6 19.9 98.1 21.4 C 97.1 22.5 95.7 23.1 93.9 23.1 C 92.1 23.1 90.7 22.5 89.7 21.4 C 88.2 19.9 87.9 17.8 87.9 15.5 C 87.9 13.3 88.2 11.2 89.7 9.7 C 90.7 8.6 92.1 8 93.9 8 C 95.7 8 97.1 8.6 98.1 9.7 Z M 91.2 11 C 90.1 12.1 90 13.9 90 15.5 C 90 17.2 90.1 19 91.2 20.1 C 91.9 20.8 92.8 21.2 93.9 21.2 C 94.9 21.2 95.9 20.8 96.6 20.1 C 97.7 19 97.8 17.2 97.8 15.5 C 97.8 13.9 97.7 12.1 96.6 11 C 95.9 10.3 94.9 9.9 93.9 9.9 C 92.8 9.9 91.9 10.3 91.2 11 Z M 106.6 18.9 C 106.6 20.3 107.1 21.1 108.6 21.1 C 108.63 21.06 109.8 21.1 109.8 21.1 L 109.8 22.9 C 109.8 22.9 108.24 22.92 108.2 22.9 C 105.7 22.9 104.5 21.2 104.5 19 C 104.49 18.99 104.5 1.6 104.5 1.6 L 106.6 1.6 C 106.6 1.6 106.65 18.9 106.6 18.9 Z M 123.6 9.4 C 124.6 10.4 125.1 11.8 125.1 13.5 C 125.1 13.5 125.1 22.9 125.1 22.9 L 122.9 22.9 C 122.9 22.9 122.94 13.83 122.9 13.8 C 122.9 11.2 121.5 9.9 119.3 9.9 C 117.1 9.9 115.6 11.2 115.6 13.8 C 115.62 13.83 115.6 22.9 115.6 22.9 L 113.5 22.9 L 113.5 8.2 L 115.6 8.2 C 115.6 8.2 115.59 9.81 115.6 9.8 C 116.6 8.6 118.1 8 119.8 8 C 121.3 8 122.7 8.5 123.6 9.4 Z M 135.4 8.2 L 137.8 8.2 L 141.2 20 L 145 8.2 L 146.9 8.2 L 150.7 20 L 154.2 8.2 L 156.5 8.2 L 151.8 22.9 L 149.8 22.9 L 146 10.9 L 142.1 22.9 L 140.2 22.9 L 135.4 8.2 Z M 161.7 22.9 L 159.5 22.9 L 159.5 8.2 L 161.7 8.2 L 161.7 22.9 Z M 161.8 4 L 159.4 4 L 159.4 1.5 L 161.8 1.5 L 161.8 4 Z M 169.2 18.9 C 169.2 20.3 169.7 21.1 171.2 21.1 C 171.21 21.06 172.4 21.1 172.4 21.1 L 172.4 22.9 C 172.4 22.9 170.82 22.92 170.8 22.9 C 168.2 22.9 167.1 21.2 167.1 19 C 167.07 18.99 167.1 1.6 167.1 1.6 L 169.2 1.6 C 169.2 1.6 169.23 18.9 169.2 18.9 Z M 178.1 18.9 C 178.1 20.3 178.6 21.1 180.1 21.1 C 180.12 21.06 181.3 21.1 181.3 21.1 L 181.3 22.9 C 181.3 22.9 179.73 22.92 179.7 22.9 C 177.1 22.9 176 21.2 176 19 C 175.98 18.99 176 1.6 176 1.6 L 178.1 1.6 C 178.1 1.6 178.14 18.9 178.1 18.9 Z M 201.9 9.7 C 203.4 11.2 203.7 13.3 203.7 15.5 C 203.7 17.8 203.4 19.9 201.9 21.4 C 200.9 22.5 199.5 23.1 197.7 23.1 C 195.9 23.1 194.5 22.5 193.4 21.4 C 191.9 19.9 191.6 17.8 191.6 15.5 C 191.6 13.3 191.9 11.2 193.4 9.7 C 194.5 8.6 195.9 8 197.7 8 C 199.5 8 200.9 8.6 201.9 9.7 Z M 195 11 C 193.9 12.1 193.8 13.9 193.8 15.5 C 193.8 17.2 193.9 19 195 20.1 C 195.7 20.8 196.6 21.2 197.7 21.2 C 198.7 21.2 199.6 20.8 200.4 20.1 C 201.4 19 201.5 17.2 201.5 15.5 C 201.5 13.9 201.4 12.1 200.4 11 C 199.6 10.3 198.7 9.9 197.7 9.9 C 196.6 9.9 195.7 10.3 195 11 Z M 218.2 9.4 C 218.2 9.4 216.6 11 216.6 11 C 215.8 10.2 215.2 9.9 214 9.9 C 211.9 9.9 210.5 11.6 210.5 13.9 C 210.48 13.86 210.5 22.9 210.5 22.9 L 208.3 22.9 L 208.3 8.2 L 210.5 8.2 C 210.5 8.2 210.48 9.96 210.5 10 C 211.3 8.7 212.9 8 214.6 8 C 216 8 217.1 8.3 218.2 9.4 Z M 231 22.9 L 228.8 22.9 C 228.8 22.9 228.84 21.18 228.8 21.2 C 227.6 22.7 226.3 23.1 224.7 23.1 C 223.1 23.1 221.8 22.6 221.1 21.8 C 219.6 20.3 219.3 17.9 219.3 15.5 C 219.3 13.2 219.6 10.8 221.1 9.3 C 221.8 8.5 223.1 8 224.7 8 C 226.3 8 227.6 8.4 228.8 9.9 C 228.84 9.9 228.8 1.6 228.8 1.6 L 231 1.6 L 231 22.9 Z M 221.4 15.5 C 221.4 18.4 221.9 21.2 225.1 21.2 C 228.4 21.2 228.8 18.4 228.8 15.5 C 228.8 12.7 228.4 9.9 225.1 9.9 C 221.9 9.9 221.4 12.7 221.4 15.5 Z M 247.7 15.1 C 247.71 15.15 247.7 16.1 247.7 16.1 C 247.7 16.1 237.75 16.11 237.7 16.1 C 237.7 19.3 239.2 21.2 242.1 21.2 C 243.8 21.2 244.8 20.7 246 19.5 C 246 19.5 247.4 20.8 247.4 20.8 C 245.9 22.3 244.5 23.1 242 23.1 C 238.1 23.1 235.6 20.8 235.6 15.5 C 235.6 10.7 237.9 8 241.6 8 C 245.5 8 247.7 10.7 247.7 15.1 Z M 238.2 12 C 237.8 12.8 237.8 13.3 237.7 14.5 C 237.7 14.5 245.6 14.5 245.6 14.5 C 245.5 13.3 245.5 12.8 245.1 12 C 244.5 10.7 243.2 9.8 241.6 9.8 C 240.1 9.8 238.8 10.7 238.2 12 Z M 262.1 9.4 C 262.1 9.4 260.5 11 260.5 11 C 259.7 10.2 259.1 9.9 258 9.9 C 255.8 9.9 254.5 11.6 254.5 13.9 C 254.46 13.86 254.5 22.9 254.5 22.9 L 252.3 22.9 L 252.3 8.2 L 254.5 8.2 C 254.5 8.2 254.46 9.96 254.5 10 C 255.3 8.7 256.9 8 258.6 8 C 260 8 261.1 8.3 262.1 9.4 Z M 282.9 12.9 C 282.93 12.9 282.9 22.9 282.9 22.9 L 280.8 22.9 C 280.8 22.9 280.77 21.51 280.8 21.5 C 279.6 22.7 278.5 23.1 276.5 23.1 C 274.5 23.1 273.4 22.7 272.3 21.7 C 271.6 21 271.2 19.9 271.2 18.7 C 271.2 16.1 273.1 14.5 276.4 14.5 C 276.36 14.49 280.8 14.5 280.8 14.5 C 280.8 14.5 280.77 13.08 280.8 13.1 C 280.8 10.9 279.7 9.8 277 9.8 C 275.1 9.8 274.2 10.3 273.3 11.5 C 273.3 11.5 271.8 10.2 271.8 10.2 C 273.1 8.5 274.6 8 277 8 C 281 8 282.9 9.7 282.9 12.9 Z M 276.7 16.1 C 274.4 16.1 273.3 17 273.3 18.7 C 273.3 20.4 274.4 21.2 276.7 21.2 C 278 21.2 279.1 21.1 280 20.2 C 280.5 19.8 280.8 18.9 280.8 17.7 C 280.77 17.7 280.8 16.1 280.8 16.1 C 280.8 16.1 276.66 16.11 276.7 16.1 Z M 298.3 9.4 C 299.3 10.4 299.8 11.8 299.8 13.5 C 299.82 13.5 299.8 22.9 299.8 22.9 L 297.7 22.9 C 297.7 22.9 297.66 13.83 297.7 13.8 C 297.7 11.2 296.2 9.9 294 9.9 C 291.8 9.9 290.3 11.2 290.3 13.8 C 290.34 13.83 290.3 22.9 290.3 22.9 L 288.2 22.9 L 288.2 8.2 L 290.3 8.2 C 290.3 8.2 290.31 9.81 290.3 9.8 C 291.4 8.6 292.8 8 294.5 8 C 296.1 8 297.4 8.5 298.3 9.4 Z M 316 22.9 L 313.9 22.9 C 313.9 22.9 313.86 21.18 313.9 21.2 C 312.6 22.7 311.3 23.1 309.7 23.1 C 308.2 23.1 306.9 22.6 306.1 21.8 C 304.6 20.3 304.3 17.9 304.3 15.5 C 304.3 13.2 304.6 10.8 306.1 9.3 C 306.9 8.5 308.2 8 309.7 8 C 311.3 8 312.6 8.4 313.9 9.9 C 313.86 9.9 313.9 1.6 313.9 1.6 L 316 1.6 L 316 22.9 Z M 306.4 15.5 C 306.4 18.4 306.9 21.2 310.1 21.2 C 313.4 21.2 313.9 18.4 313.9 15.5 C 313.9 12.7 313.4 9.9 310.1 9.9 C 306.9 9.9 306.4 12.7 306.4 15.5 Z M 338.9 9.6 C 338.9 9.6 337.5 11 337.5 11 C 336.4 10.2 335.1 9.8 333.5 9.8 C 331.4 9.8 330.2 10.7 330.2 12.2 C 330.2 13.6 331 14.2 332.9 14.4 C 332.9 14.4 335.2 14.6 335.2 14.6 C 337.8 14.8 339.5 15.8 339.5 18.6 C 339.5 21.4 337.1 23.1 333.5 23.1 C 331 23.1 329.1 22.5 327.5 21 C 327.5 21 328.9 19.5 328.9 19.5 C 330.1 20.7 331.7 21.2 333.5 21.2 C 336 21.2 337.4 20.4 337.4 18.6 C 337.4 17.3 336.7 16.6 335 16.5 C 335 16.5 332.5 16.3 332.5 16.3 C 329.7 16 328.1 14.8 328.1 12.3 C 328.1 9.6 330.4 8 333.6 8 C 335.7 8 337.5 8.5 338.9 9.6 Z M 354.4 10.2 C 354.4 10.2 352.9 11.5 352.9 11.5 C 351.8 10.3 350.9 9.9 349.5 9.9 C 348.1 9.9 346.9 10.5 346.1 11.6 C 345.4 12.5 345.1 13.7 345.1 15.5 C 345.1 17.4 345.4 18.5 346.1 19.5 C 346.9 20.6 348.1 21.2 349.5 21.2 C 350.9 21.2 351.8 20.7 352.9 19.5 C 352.9 19.5 354.4 20.9 354.4 20.9 C 352.9 22.6 351.6 23.1 349.5 23.1 C 345.8 23.1 343 20.6 343 15.5 C 343 10.5 345.8 8 349.5 8 C 351.6 8 352.9 8.5 354.4 10.2 Z M 360.7 9.8 C 361.7 8.6 363.1 8 364.8 8 C 366.4 8 367.7 8.5 368.6 9.4 C 369.7 10.4 370.1 11.8 370.1 13.5 C 370.11 13.5 370.1 22.9 370.1 22.9 L 367.9 22.9 C 367.9 22.9 367.95 13.83 367.9 13.8 C 367.9 11.2 366.6 9.9 364.3 9.9 C 362.1 9.9 360.7 11.2 360.7 13.8 C 360.66 13.83 360.7 22.9 360.7 22.9 L 358.5 22.9 L 358.5 1.6 L 360.7 1.6 C 360.7 1.6 360.66 9.81 360.7 9.8 Z M 386.7 15.1 C 386.67 15.15 386.7 16.1 386.7 16.1 C 386.7 16.1 376.71 16.11 376.7 16.1 C 376.7 19.3 378.2 21.2 381.1 21.2 C 382.8 21.2 383.8 20.7 384.9 19.5 C 384.9 19.5 386.4 20.8 386.4 20.8 C 384.9 22.3 383.5 23.1 381 23.1 C 377.1 23.1 374.5 20.8 374.5 15.5 C 374.5 10.7 376.9 8 380.6 8 C 384.4 8 386.7 10.7 386.7 15.1 Z M 377.2 12 C 376.8 12.8 376.8 13.3 376.7 14.5 C 376.7 14.5 384.5 14.5 384.5 14.5 C 384.4 13.3 384.4 12.8 384.1 12 C 383.4 10.7 382.2 9.8 380.6 9.8 C 379 9.8 377.8 10.7 377.2 12 Z M 402.2 22.9 L 400 22.9 C 400 22.9 400.05 21.18 400 21.2 C 398.8 22.7 397.5 23.1 395.9 23.1 C 394.3 23.1 393.1 22.6 392.3 21.8 C 390.8 20.3 390.5 17.9 390.5 15.5 C 390.5 13.2 390.8 10.8 392.3 9.3 C 393.1 8.5 394.3 8 395.9 8 C 397.5 8 398.8 8.4 400 9.9 C 400.05 9.9 400 1.6 400 1.6 L 402.2 1.6 L 402.2 22.9 Z M 392.6 15.5 C 392.6 18.4 393.1 21.2 396.3 21.2 C 399.6 21.2 400 18.4 400 15.5 C 400 12.7 399.6 9.9 396.3 9.9 C 393.1 9.9 392.6 12.7 392.6 15.5 Z M 419.1 22.9 L 417 22.9 C 417 22.9 416.97 21.27 417 21.3 C 415.9 22.5 414.4 23.1 412.8 23.1 C 411.2 23.1 409.9 22.6 409 21.7 C 407.9 20.7 407.5 19.3 407.5 17.6 C 407.46 17.58 407.5 8.2 407.5 8.2 L 409.6 8.2 C 409.6 8.2 409.62 17.25 409.6 17.2 C 409.6 19.9 411 21.2 413.2 21.2 C 415.5 21.2 416.9 19.8 416.9 17.2 C 416.94 17.25 416.9 8.2 416.9 8.2 L 419.1 8.2 L 419.1 22.9 Z M 426.6 18.9 C 426.6 20.3 427.1 21.1 428.6 21.1 C 428.57 21.06 429.7 21.1 429.7 21.1 L 429.7 22.9 C 429.7 22.9 428.18 22.92 428.2 22.9 C 425.6 22.9 424.4 21.2 424.4 19 C 424.43 18.99 424.4 1.6 424.4 1.6 L 426.6 1.6 C 426.6 1.6 426.59 18.9 426.6 18.9 Z M 444.4 15.1 C 444.41 15.15 444.4 16.1 444.4 16.1 C 444.4 16.1 434.45 16.11 434.5 16.1 C 434.5 19.3 436 21.2 438.8 21.2 C 440.5 21.2 441.5 20.7 442.7 19.5 C 442.7 19.5 444.1 20.8 444.1 20.8 C 442.6 22.3 441.2 23.1 438.7 23.1 C 434.8 23.1 432.3 20.8 432.3 15.5 C 432.3 10.7 434.6 8 438.4 8 C 442.2 8 444.4 10.7 444.4 15.1 Z M 434.9 12 C 434.5 12.8 434.5 13.3 434.5 14.5 C 434.5 14.5 442.3 14.5 442.3 14.5 C 442.2 13.3 442.2 12.8 441.8 12 C 441.2 10.7 439.9 9.8 438.4 9.8 C 436.8 9.8 435.5 10.7 434.9 12 Z M 459 8.2 L 462.1 8.2 L 462.1 9.8 L 459 9.8 C 459 9.8 458.99 18.9 459 18.9 C 459 20.3 459.6 21.1 461 21.1 C 461 21.06 462.1 21.1 462.1 21.1 L 462.1 22.9 C 462.1 22.9 460.61 22.92 460.6 22.9 C 458.1 22.9 456.8 21.1 456.8 19 C 456.83 18.96 456.8 9.8 456.8 9.8 L 455 9.8 L 455 8.2 L 456.8 8.2 L 456.8 3.6 L 459 3.6 L 459 8.2 Z M 468.6 9.8 C 469.7 8.6 471 8 472.7 8 C 474.3 8 475.6 8.5 476.5 9.4 C 477.6 10.4 478 11.8 478 13.5 C 478.04 13.5 478 22.9 478 22.9 L 475.9 22.9 C 475.9 22.9 475.88 13.83 475.9 13.8 C 475.9 11.2 474.5 9.9 472.3 9.9 C 470.1 9.9 468.6 11.2 468.6 13.8 C 468.59 13.83 468.6 22.9 468.6 22.9 L 466.4 22.9 L 466.4 1.6 L 468.6 1.6 C 468.6 1.6 468.59 9.81 468.6 9.8 Z M 494.6 15.1 C 494.6 15.15 494.6 16.1 494.6 16.1 C 494.6 16.1 484.64 16.11 484.6 16.1 C 484.6 19.3 486.1 21.2 489 21.2 C 490.7 21.2 491.7 20.7 492.9 19.5 C 492.9 19.5 494.3 20.8 494.3 20.8 C 492.8 22.3 491.4 23.1 488.9 23.1 C 485 23.1 482.5 20.8 482.5 15.5 C 482.5 10.7 484.8 8 488.5 8 C 492.4 8 494.6 10.7 494.6 15.1 Z M 485.1 12 C 484.7 12.8 484.7 13.3 484.6 14.5 C 484.6 14.5 492.5 14.5 492.5 14.5 C 492.4 13.3 492.4 12.8 492 12 C 491.4 10.7 490.1 9.8 488.5 9.8 C 487 9.8 485.7 10.7 485.1 12 Z M 509.3 22.9 L 507.1 22.9 L 507.1 1.6 L 509.3 1.6 L 509.3 22.9 Z M 525.2 9.4 C 526.3 10.4 526.8 11.8 526.8 13.5 C 526.76 13.5 526.8 22.9 526.8 22.9 L 524.6 22.9 C 524.6 22.9 524.6 13.83 524.6 13.8 C 524.6 11.2 523.2 9.9 521 9.9 C 518.8 9.9 517.3 11.2 517.3 13.8 C 517.28 13.83 517.3 22.9 517.3 22.9 L 515.1 22.9 L 515.1 8.2 L 517.3 8.2 C 517.3 8.2 517.25 9.81 517.3 9.8 C 518.3 8.6 519.8 8 521.4 8 C 523 8 524.3 8.5 525.2 9.4 Z M 542 9.6 C 542 9.6 540.6 11 540.6 11 C 539.5 10.2 538.2 9.8 536.7 9.8 C 534.5 9.8 533.4 10.7 533.4 12.2 C 533.4 13.6 534.2 14.2 536 14.4 C 536 14.4 538.3 14.6 538.3 14.6 C 540.9 14.8 542.7 15.8 542.7 18.6 C 542.7 21.4 540.3 23.1 536.7 23.1 C 534.1 23.1 532.2 22.5 530.6 21 C 530.6 21 532 19.5 532 19.5 C 533.2 20.7 534.8 21.2 536.6 21.2 C 539.1 21.2 540.6 20.4 540.6 18.6 C 540.6 17.3 539.8 16.6 538.1 16.5 C 538.1 16.5 535.7 16.3 535.7 16.3 C 532.8 16 531.3 14.8 531.3 12.3 C 531.3 9.6 533.5 8 536.7 8 C 538.8 8 540.7 8.5 542 9.6 Z M 556.8 9.3 C 558.3 10.7 558.6 13.2 558.6 15.5 C 558.6 17.9 558.3 20.3 556.8 21.8 C 556 22.6 554.8 23.1 553.2 23.1 C 551.6 23.1 550.3 22.7 549.1 21.2 C 549.05 21.18 549.1 29.5 549.1 29.5 L 546.9 29.5 L 546.9 8.2 L 549.1 8.2 C 549.1 8.2 549.05 9.9 549.1 9.9 C 550.3 8.4 551.6 8 553.2 8 C 554.8 8 556 8.5 556.8 9.3 Z M 549.1 15.5 C 549.1 18.4 549.5 21.2 552.8 21.2 C 556 21.2 556.5 18.4 556.5 15.5 C 556.5 12.7 556 9.9 552.8 9.9 C 549.5 9.9 549.1 12.7 549.1 15.5 Z M 574.6 15.1 C 574.55 15.15 574.6 16.1 574.6 16.1 C 574.6 16.1 564.59 16.11 564.6 16.1 C 564.6 19.3 566.1 21.2 568.9 21.2 C 570.7 21.2 571.6 20.7 572.8 19.5 C 572.8 19.5 574.3 20.8 574.3 20.8 C 572.8 22.3 571.4 23.1 568.9 23.1 C 565 23.1 562.4 20.8 562.4 15.5 C 562.4 10.7 564.7 8 568.5 8 C 572.3 8 574.6 10.7 574.6 15.1 Z M 565 12 C 564.7 12.8 564.7 13.3 564.6 14.5 C 564.6 14.5 572.4 14.5 572.4 14.5 C 572.3 13.3 572.3 12.8 571.9 12 C 571.3 10.7 570.1 9.8 568.5 9.8 C 566.9 9.8 565.7 10.7 565 12 Z M 589.8 10.2 C 589.8 10.2 588.3 11.5 588.3 11.5 C 587.2 10.3 586.3 9.9 584.9 9.9 C 583.5 9.9 582.3 10.5 581.5 11.6 C 580.8 12.5 580.5 13.7 580.5 15.5 C 580.5 17.4 580.8 18.5 581.5 19.5 C 582.3 20.6 583.5 21.2 584.9 21.2 C 586.3 21.2 587.2 20.7 588.3 19.5 C 588.3 19.5 589.8 20.9 589.8 20.9 C 588.2 22.6 586.9 23.1 584.9 23.1 C 581.2 23.1 578.4 20.6 578.4 15.5 C 578.4 10.5 581.2 8 584.9 8 C 586.9 8 588.2 8.5 589.8 10.2 Z M 596.4 8.2 L 599.5 8.2 L 599.5 9.8 L 596.4 9.8 C 596.4 9.8 596.39 18.9 596.4 18.9 C 596.4 20.3 597 21.1 598.4 21.1 C 598.4 21.06 599.5 21.1 599.5 21.1 L 599.5 22.9 C 599.5 22.9 598.01 22.92 598 22.9 C 595.5 22.9 594.2 21.1 594.2 19 C 594.23 18.96 594.2 9.8 594.2 9.8 L 592.4 9.8 L 592.4 8.2 L 594.2 8.2 L 594.2 3.6 L 596.4 3.6 L 596.4 8.2 Z M 606 22.9 L 603.8 22.9 L 603.8 8.2 L 606 8.2 L 606 22.9 Z M 606.1 4 L 603.7 4 L 603.7 1.5 L 606.1 1.5 L 606.1 4 Z M 620.9 9.7 C 622.4 11.2 622.7 13.3 622.7 15.5 C 622.7 17.8 622.4 19.9 620.9 21.4 C 619.9 22.5 618.5 23.1 616.7 23.1 C 614.9 23.1 613.5 22.5 612.4 21.4 C 610.9 19.9 610.6 17.8 610.6 15.5 C 610.6 13.3 610.9 11.2 612.4 9.7 C 613.5 8.6 614.9 8 616.7 8 C 618.5 8 619.9 8.6 620.9 9.7 Z M 614 11 C 612.9 12.1 612.8 13.9 612.8 15.5 C 612.8 17.2 612.9 19 614 20.1 C 614.7 20.8 615.6 21.2 616.7 21.2 C 617.7 21.2 618.7 20.8 619.4 20.1 C 620.5 19 620.5 17.2 620.5 15.5 C 620.5 13.9 620.5 12.1 619.4 11 C 618.7 10.3 617.7 9.9 616.7 9.9 C 615.6 9.9 614.7 10.3 614 11 Z M 637.4 9.4 C 638.5 10.4 639 11.8 639 13.5 C 638.96 13.5 639 22.9 639 22.9 L 636.8 22.9 C 636.8 22.9 636.8 13.83 636.8 13.8 C 636.8 11.2 635.4 9.9 633.2 9.9 C 631 9.9 629.5 11.2 629.5 13.8 C 629.48 13.83 629.5 22.9 629.5 22.9 L 627.3 22.9 L 627.3 8.2 L 629.5 8.2 C 629.5 8.2 629.45 9.81 629.5 9.8 C 630.5 8.6 632 8 633.6 8 C 635.2 8 636.5 8.5 637.4 9.4 Z M 660.3 1.6 C 664 1.6 666.6 3.8 666.6 7.5 C 666.6 10.6 664.7 12.7 661.9 13.2 C 661.94 13.23 667 22.9 667 22.9 L 664.3 22.9 L 659.5 13.4 L 654.4 13.4 L 654.4 22.9 L 652.1 22.9 L 652.1 1.6 C 652.1 1.6 660.26 1.56 660.3 1.6 Z M 654.4 3.6 L 654.4 11.4 C 654.4 11.4 660.05 11.43 660.1 11.4 C 662.5 11.4 664.3 10.1 664.3 7.5 C 664.3 4.9 662.5 3.6 660.1 3.6 C 660.05 3.6 654.4 3.6 654.4 3.6 Z M 681.8 15.1 C 681.77 15.15 681.8 16.1 681.8 16.1 C 681.8 16.1 671.81 16.11 671.8 16.1 C 671.8 19.3 673.3 21.2 676.2 21.2 C 677.9 21.2 678.9 20.7 680 19.5 C 680 19.5 681.5 20.8 681.5 20.8 C 680 22.3 678.6 23.1 676.1 23.1 C 672.2 23.1 669.7 20.8 669.7 15.5 C 669.7 10.7 672 8 675.7 8 C 679.6 8 681.8 10.7 681.8 15.1 Z M 672.3 12 C 671.9 12.8 671.9 13.3 671.8 14.5 C 671.8 14.5 679.6 14.5 679.6 14.5 C 679.6 13.3 679.5 12.8 679.2 12 C 678.5 10.7 677.3 9.8 675.7 9.8 C 674.1 9.8 672.9 10.7 672.3 12 Z M 696.3 9.3 C 697.8 10.7 698.1 13.2 698.1 15.5 C 698.1 17.9 697.8 20.3 696.3 21.8 C 695.5 22.6 694.2 23.1 692.7 23.1 C 691.1 23.1 689.8 22.7 688.5 21.2 C 688.52 21.18 688.5 29.5 688.5 29.5 L 686.4 29.5 L 686.4 8.2 L 688.5 8.2 C 688.5 8.2 688.52 9.9 688.5 9.9 C 689.8 8.4 691 8 692.7 8 C 694.2 8 695.5 8.5 696.3 9.3 Z M 688.5 15.5 C 688.5 18.4 689 21.2 692.2 21.2 C 695.5 21.2 695.9 18.4 695.9 15.5 C 695.9 12.7 695.5 9.9 692.2 9.9 C 689 9.9 688.5 12.7 688.5 15.5 Z M 712.2 9.7 C 713.7 11.2 714 13.3 714 15.5 C 714 17.8 713.7 19.9 712.2 21.4 C 711.2 22.5 709.8 23.1 708 23.1 C 706.2 23.1 704.8 22.5 703.7 21.4 C 702.2 19.9 701.9 17.8 701.9 15.5 C 701.9 13.3 702.2 11.2 703.7 9.7 C 704.8 8.6 706.2 8 708 8 C 709.8 8 711.2 8.6 712.2 9.7 Z M 705.3 11 C 704.2 12.1 704.1 13.9 704.1 15.5 C 704.1 17.2 704.2 19 705.3 20.1 C 706 20.8 706.9 21.2 708 21.2 C 709 21.2 709.9 20.8 710.7 20.1 C 711.7 19 711.8 17.2 711.8 15.5 C 711.8 13.9 711.7 12.1 710.7 11 C 709.9 10.3 709 9.9 708 9.9 C 706.9 9.9 706 10.3 705.3 11 Z M 728.5 9.4 C 728.5 9.4 726.9 11 726.9 11 C 726.1 10.2 725.5 9.9 724.3 9.9 C 722.2 9.9 720.8 11.6 720.8 13.9 C 720.77 13.86 720.8 22.9 720.8 22.9 L 718.6 22.9 L 718.6 8.2 L 720.8 8.2 C 720.8 8.2 720.77 9.96 720.8 10 C 721.6 8.7 723.2 8 724.9 8 C 726.3 8 727.4 8.3 728.5 9.4 Z M 733.8 8.2 L 736.9 8.2 L 736.9 9.8 L 733.8 9.8 C 733.8 9.8 733.79 18.9 733.8 18.9 C 733.8 20.3 734.4 21.1 735.8 21.1 C 735.8 21.06 736.9 21.1 736.9 21.1 L 736.9 22.9 C 736.9 22.9 735.41 22.92 735.4 22.9 C 732.9 22.9 731.6 21.1 731.6 19 C 731.63 18.96 731.6 9.8 731.6 9.8 L 729.8 9.8 L 729.8 8.2 L 731.6 8.2 L 731.6 3.6 L 733.8 3.6 L 733.8 8.2 Z M 746.3 8.2 L 748.7 8.2 L 752.1 20 L 755.9 8.2 L 757.8 8.2 L 761.6 20 L 765 8.2 L 767.4 8.2 L 762.7 22.9 L 760.7 22.9 L 756.9 10.9 L 753 22.9 L 751 22.9 L 746.3 8.2 Z M 772.6 9.8 C 773.7 8.6 775 8 776.7 8 C 778.3 8 779.6 8.5 780.5 9.4 C 781.6 10.4 782 11.8 782 13.5 C 782.03 13.5 782 22.9 782 22.9 L 779.9 22.9 C 779.9 22.9 779.87 13.83 779.9 13.8 C 779.9 11.2 778.5 9.9 776.3 9.9 C 774 9.9 772.6 11.2 772.6 13.8 C 772.58 13.83 772.6 22.9 772.6 22.9 L 770.4 22.9 L 770.4 1.6 L 772.6 1.6 C 772.6 1.6 772.58 9.81 772.6 9.8 Z M 798.6 15.1 C 798.59 15.15 798.6 16.1 798.6 16.1 C 798.6 16.1 788.63 16.11 788.6 16.1 C 788.6 19.3 790.1 21.2 793 21.2 C 794.7 21.2 795.7 20.7 796.8 19.5 C 796.8 19.5 798.3 20.8 798.3 20.8 C 796.8 22.3 795.4 23.1 792.9 23.1 C 789 23.1 786.5 20.8 786.5 15.5 C 786.5 10.7 788.8 8 792.5 8 C 796.4 8 798.6 10.7 798.6 15.1 Z M 789.1 12 C 788.7 12.8 788.7 13.3 788.6 14.5 C 788.6 14.5 796.5 14.5 796.5 14.5 C 796.4 13.3 796.3 12.8 796 12 C 795.3 10.7 794.1 9.8 792.5 9.8 C 790.9 9.8 789.7 10.7 789.1 12 Z M 813.3 9.4 C 814.3 10.4 814.8 11.8 814.8 13.5 C 814.82 13.5 814.8 22.9 814.8 22.9 L 812.7 22.9 C 812.7 22.9 812.66 13.83 812.7 13.8 C 812.7 11.2 811.2 9.9 809 9.9 C 806.8 9.9 805.3 11.2 805.3 13.8 C 805.34 13.83 805.3 22.9 805.3 22.9 L 803.2 22.9 L 803.2 8.2 L 805.3 8.2 C 805.3 8.2 805.31 9.81 805.3 9.8 C 806.4 8.6 807.8 8 809.5 8 C 811.1 8 812.4 8.5 813.3 9.4 Z M 831.1 26.8 C 830.8 27.6 830.5 28.1 830.1 28.5 C 829.3 29.2 828.2 29.5 827.2 29.5 C 827.18 29.52 826.2 29.5 826.2 29.5 L 826.2 27.6 C 826.2 27.6 826.91 27.6 826.9 27.6 C 828.4 27.6 828.9 27.1 829.3 25.8 C 829.34 25.77 830.5 22.6 830.5 22.6 L 825.2 8.2 L 827.5 8.2 L 831.6 20 L 835.6 8.2 L 837.9 8.2 C 837.9 8.2 831.11 26.76 831.1 26.8 Z M 850.3 9.7 C 851.8 11.2 852.1 13.3 852.1 15.5 C 852.1 17.8 851.8 19.9 850.3 21.4 C 849.3 22.5 847.8 23.1 846 23.1 C 844.2 23.1 842.8 22.5 841.8 21.4 C 840.3 19.9 840 17.8 840 15.5 C 840 13.3 840.3 11.2 841.8 9.7 C 842.8 8.6 844.2 8 846 8 C 847.8 8 849.3 8.6 850.3 9.7 Z M 843.4 11 C 842.3 12.1 842.2 13.9 842.2 15.5 C 842.2 17.2 842.3 19 843.4 20.1 C 844.1 20.8 845 21.2 846 21.2 C 847.1 21.2 848 20.8 848.7 20.1 C 849.8 19 849.9 17.2 849.9 15.5 C 849.9 13.9 849.8 12.1 848.7 11 C 848 10.3 847.1 9.9 846 9.9 C 845 9.9 844.1 10.3 843.4 11 Z M 868.2 22.9 L 866.1 22.9 C 866.1 22.9 866.06 21.27 866.1 21.3 C 865 22.5 863.5 23.1 861.9 23.1 C 860.3 23.1 859 22.6 858.1 21.7 C 857 20.7 856.5 19.3 856.5 17.6 C 856.55 17.58 856.5 8.2 856.5 8.2 L 858.7 8.2 C 858.7 8.2 858.71 17.25 858.7 17.2 C 858.7 19.9 860.1 21.2 862.3 21.2 C 864.6 21.2 866 19.8 866 17.2 C 866.03 17.25 866 8.2 866 8.2 L 868.2 8.2 L 868.2 22.9 Z M 883.4 9.4 C 883.4 9.4 881.8 11 881.8 11 C 881 10.2 880.4 9.9 879.3 9.9 C 877.1 9.9 875.7 11.6 875.7 13.9 C 875.75 13.86 875.7 22.9 875.7 22.9 L 873.6 22.9 L 873.6 8.2 L 875.7 8.2 C 875.7 8.2 875.75 9.96 875.7 10 C 876.6 8.7 878.2 8 879.9 8 C 881.3 8 882.4 8.3 883.4 9.4 Z M 904.3 10.2 C 904.3 10.2 902.8 11.5 902.8 11.5 C 901.7 10.3 900.9 9.9 899.4 9.9 C 898 9.9 896.8 10.5 896 11.6 C 895.3 12.5 895.1 13.7 895.1 15.5 C 895.1 17.4 895.3 18.5 896 19.5 C 896.8 20.6 898 21.2 899.4 21.2 C 900.9 21.2 901.7 20.7 902.8 19.5 C 902.8 19.5 904.3 20.9 904.3 20.9 C 902.8 22.6 901.5 23.1 899.4 23.1 C 895.7 23.1 892.9 20.6 892.9 15.5 C 892.9 10.5 895.7 8 899.4 8 C 901.5 8 902.8 8.5 904.3 10.2 Z M 918.8 12.9 C 918.8 12.9 918.8 22.9 918.8 22.9 L 916.6 22.9 C 916.6 22.9 916.64 21.51 916.6 21.5 C 915.5 22.7 914.4 23.1 912.4 23.1 C 910.3 23.1 909.2 22.7 908.2 21.7 C 907.5 21 907.1 19.9 907.1 18.7 C 907.1 16.1 908.9 14.5 912.2 14.5 C 912.23 14.49 916.6 14.5 916.6 14.5 C 916.6 14.5 916.64 13.08 916.6 13.1 C 916.6 10.9 915.6 9.8 912.9 9.8 C 911 9.8 910 10.3 909.1 11.5 C 909.1 11.5 907.7 10.2 907.7 10.2 C 909 8.5 910.5 8 912.9 8 C 916.9 8 918.8 9.7 918.8 12.9 Z M 912.5 16.1 C 910.3 16.1 909.2 17 909.2 18.7 C 909.2 20.4 910.2 21.2 912.6 21.2 C 913.8 21.2 914.9 21.1 915.9 20.2 C 916.4 19.8 916.6 18.9 916.6 17.7 C 916.64 17.7 916.6 16.1 916.6 16.1 C 916.6 16.1 912.53 16.11 912.5 16.1 Z M 934 9.6 C 934 9.6 932.6 11 932.6 11 C 931.6 10.2 930.2 9.8 928.7 9.8 C 926.5 9.8 925.4 10.7 925.4 12.2 C 925.4 13.6 926.2 14.2 928 14.4 C 928 14.4 930.3 14.6 930.3 14.6 C 932.9 14.8 934.7 15.8 934.7 18.6 C 934.7 21.4 932.3 23.1 928.7 23.1 C 926.2 23.1 924.2 22.5 922.6 21 C 922.6 21 924.1 19.5 924.1 19.5 C 925.2 20.7 926.8 21.2 928.7 21.2 C 931.1 21.2 932.6 20.4 932.6 18.6 C 932.6 17.3 931.9 16.6 930.1 16.5 C 930.1 16.5 927.7 16.3 927.7 16.3 C 924.8 16 923.3 14.8 923.3 12.3 C 923.3 9.6 925.5 8 928.7 8 C 930.9 8 932.7 8.5 934 9.6 Z M 950.2 15.1 C 950.24 15.15 950.2 16.1 950.2 16.1 C 950.2 16.1 940.28 16.11 940.3 16.1 C 940.3 19.3 941.8 21.2 944.6 21.2 C 946.3 21.2 947.3 20.7 948.5 19.5 C 948.5 19.5 950 20.8 950 20.8 C 948.5 22.3 947.1 23.1 944.6 23.1 C 940.6 23.1 938.1 20.8 938.1 15.5 C 938.1 10.7 940.4 8 944.2 8 C 948 8 950.2 10.7 950.2 15.1 Z M 940.7 12 C 940.4 12.8 940.3 13.3 940.3 14.5 C 940.3 14.5 948.1 14.5 948.1 14.5 C 948 13.3 948 12.8 947.6 12 C 947 10.7 945.8 9.8 944.2 9.8 C 942.6 9.8 941.4 10.7 940.7 12 Z " stroke="none" fill="#000"/>  </g></svg>