<?xml version="1.0" encoding="UTF-8"?>
<svg width="40px" height="216px" viewBox="0 0 40 216" version="1.1" xmlns="http://www.w3.org/2000/svg" xmlns:xlink="http://www.w3.org/1999/xlink">
    <!-- Generator: Sketch 59.1 (86144) - https://sketch.com -->
    <title>Group 3</title>
    <desc>Created with Sketch.</desc>
    <defs>
        <polygon id="path-1" points="0 0 39.3683333 0 39.3683333 215.229493 0 215.229493"></polygon>
    </defs>
    <g id="Home-page" stroke="none" stroke-width="1" fill="none" fill-rule="evenodd">
        <g id="Desktop-HD" transform="translate(-708.000000, -670.000000)">
            <g id="Group-3" transform="translate(728.000000, 778.000000) rotate(180.000000) translate(-728.000000, -778.000000) translate(708.000000, 670.000000)">
                <mask id="mask-2" fill="white">
                    <use xlink:href="#path-1"></use>
                </mask>
                <g id="Clip-2"></g>
                <path d="M30.1645,147.195134 L30.1645,151.72791 L21.8711667,145.829821 L21.8711667,141.298657 L30.1645,147.195134 Z M21.8711667,190.208149 L30.1645,196.104627 L30.1645,200.635791 L21.8711667,194.739313 L21.8711667,190.208149 Z M9.4795,200.440746 L9.4795,195.909582 L17.4961667,190.208149 L17.4961667,194.739313 L9.4795,200.440746 Z M17.4961667,145.829821 L9.4795,151.531254 L9.4795,146.998478 L17.4961667,141.298657 L17.4961667,145.829821 Z M30.1645,161.509164 L21.8711667,155.612687 L21.8711667,151.081522 L30.1645,156.978 L30.1645,161.509164 Z M21.8711667,180.426896 L30.1645,186.323373 L30.1645,190.852925 L21.8711667,184.95806 L21.8711667,180.426896 Z M9.4795,186.126716 L17.4961667,180.426896 L17.4961667,184.95806 L9.4795,190.657881 L9.4795,186.126716 Z M17.4961667,155.612687 L9.4795,161.312507 L9.4795,156.781343 L17.4961667,151.081522 L17.4961667,155.612687 Z M30.1645,171.290418 L21.8711667,165.392328 L21.8711667,160.862776 L30.1645,166.759254 L30.1645,171.290418 Z M21.8711667,170.642418 L30.1645,176.540507 L30.1645,181.073284 L21.8711667,175.175194 L21.8711667,170.642418 Z M9.4795,176.343851 L17.4961667,170.64403 L17.4961667,175.175194 L9.4795,180.876627 L9.4795,176.343851 Z M9.4795,166.564209 L17.4961667,160.862776 L17.4961667,165.39394 L9.4795,171.095373 L9.4795,166.564209 Z M39.1245,33.9305373 L21.6278333,1.14528358 C21.5911667,1.07758209 21.5278333,1.03567164 21.4845,0.97280597 C21.4211667,0.879313433 21.3678333,0.784208955 21.2878333,0.70038806 C21.2411667,0.652029851 21.1961667,0.608507463 21.1461667,0.563373134 C21.0595,0.48761194 20.9628333,0.43441791 20.8645,0.373164179 C20.7995,0.331253731 20.7578333,0.27 20.6878333,0.236149254 C20.6628333,0.223253731 20.6345,0.224865672 20.6095,0.21358209 C20.5528333,0.187791045 20.4978333,0.168447761 20.4395,0.145880597 C20.3228333,0.10558209 20.2028333,0.0910746269 20.0795,0.0685074627 C19.9745,0.0491641791 19.8728333,0.0185373134 19.7661667,0.0153134328 C19.7361667,0.0137014925 19.7128333,-0.000805970149 19.6845,-0.000805970149 C19.6578333,-0.000805970149 19.6345,0.0137014925 19.6078333,0.0137014925 C19.4945,0.0185373134 19.3861667,0.0491641791 19.2728333,0.0717313433 C19.1578333,0.0926865672 19.0445,0.10558209 18.9328333,0.145880597 C18.8728333,0.168447761 18.8161667,0.187791045 18.7595,0.21358209 C18.7345,0.224865672 18.7061667,0.223253731 18.6811667,0.236149254 C18.6095,0.27161194 18.5678333,0.332865672 18.5011667,0.374776119 C18.4045,0.436029851 18.3095,0.48761194 18.2228333,0.563373134 C18.1728333,0.608507463 18.1261667,0.652029851 18.0811667,0.70038806 C18.0011667,0.784208955 17.9461667,0.879313433 17.8828333,0.97280597 C17.8395,1.03567164 17.7761667,1.07758209 17.7411667,1.14528358 L0.2445,33.9305373 C-0.3105,34.9686269 0.111166667,36.2452836 1.1845,36.7804478 C1.50616667,36.9416418 1.84783333,37.017403 2.18616667,37.017403 C2.97783333,37.017403 3.74283333,36.5999104 4.13116667,35.8713134 L17.4961667,10.826597 L17.4961667,136.048567 L5.99616667,144.22594 C5.95116667,144.258179 5.9295,144.306537 5.88783333,144.340388 C5.77283333,144.437104 5.6795,144.545104 5.58616667,144.662776 C5.50283333,144.767552 5.42116667,144.867493 5.36116667,144.983552 C5.2995,145.102836 5.26283333,145.225343 5.2245,145.354299 C5.18283333,145.494537 5.14783333,145.628328 5.13616667,145.775015 C5.13283333,145.828209 5.1045,145.874955 5.1045,145.929761 L5.1045,204.620507 C5.1045,204.704328 5.14283333,204.775254 5.15283333,204.855851 C5.1695,204.997701 5.1945,205.133104 5.2395,205.270119 C5.28783333,205.41197 5.35283333,205.53609 5.42783333,205.661821 C5.4695,205.731134 5.4795,205.808507 5.5295,205.874597 C5.57783333,205.937463 5.6395,205.985821 5.69283333,206.042239 C5.7295,206.080925 5.76116667,206.118 5.80116667,206.153463 C5.98116667,206.317881 6.18283333,206.45006 6.40116667,206.545164 C6.4395,206.562896 6.4795,206.570955 6.51783333,206.585463 C6.76616667,206.677343 7.02616667,206.735373 7.2895,206.736985 L7.29116667,206.736985 L7.29283333,206.736985 L7.29283333,206.736985 C7.5545,206.736985 7.81116667,206.678955 8.06116667,206.585463 C8.14783333,206.556448 8.2195,206.509701 8.2995,206.469403 C8.3945,206.421045 8.49783333,206.390418 8.58783333,206.32594 L17.4961667,199.989403 L17.4961667,213.113821 C17.4961667,214.282478 18.4761667,215.230299 19.6845,215.230299 C20.8928333,215.230299 21.8711667,214.282478 21.8711667,213.113821 L21.8711667,199.989403 L30.7811667,206.32594 C31.1711667,206.603194 31.6245,206.736985 32.0745,206.736985 C32.1345,206.736985 32.1928333,206.720866 32.2511667,206.717642 C32.2861667,206.719254 32.3161667,206.736985 32.3511667,206.736985 C33.5595,206.736985 34.5395,205.789164 34.5395,204.620507 L34.5395,145.929761 C34.5395,144.970657 33.8661667,144.19209 32.9595,143.932567 L21.8711667,136.046955 L21.8711667,10.826597 L35.2378333,35.8713134 C35.6261667,36.5999104 36.3911667,37.017403 37.1828333,37.017403 C37.5211667,37.017403 37.8628333,36.9416418 38.1845,36.7804478 C39.2578333,36.2452836 39.6778333,34.9686269 39.1245,33.9305373 L39.1245,33.9305373 Z" id="Fill-1" fill="#ED7779" mask="url(#mask-2)"></path>
            </g>
        </g>
    </g>
</svg>