<?xml version="1.0" encoding="UTF-8"?>
<svg width="800px" height="261px" viewBox="0 0 800 261" version="1.1" xmlns="http://www.w3.org/2000/svg" xmlns:xlink="http://www.w3.org/1999/xlink">
    <!-- Generator: Sketch 59.1 (86144) - https://sketch.com -->
    <title>Group 29</title>
    <desc>Created with Sketch.</desc>
    <defs>
        <polygon id="path-1" points="0 1.53827793 141.412971 1.53827793 141.412971 81.2309055 0 81.2309055"></polygon>
        <polygon id="path-3" points="1.07809524 1.80291034 88.1583673 1.80291034 88.1583673 128.775501 1.07809524 128.775501"></polygon>
        <polygon id="path-5" points="0.894875283 1.80291034 107.02458 1.80291034 107.02458 128.775501 0.894875283 128.775501"></polygon>
        <polygon id="path-7" points="0.346848073 1.80291034 129.696508 1.80291034 129.696508 128.775501 0.346848073 128.775501"></polygon>
    </defs>
    <g id="Home-page" stroke="none" stroke-width="1" fill="none" fill-rule="evenodd">
        <g id="Desktop" transform="translate(-111.000000, -202.000000)">
            <g id="Group-29" transform="translate(111.000000, 201.000000)">
                <path d="M713.915465,196.005012 C714.07873,195.357488 714.321814,194.543095 714.646531,193.567274 C714.971247,192.591454 715.337687,191.679116 715.744036,190.826633 C716.148571,189.97415 716.534966,189.243192 716.901406,188.635571 C717.267846,188.026137 717.572608,187.719606 717.815692,187.719606 C718.058776,187.719606 718.281905,188.044274 718.486893,188.695426 C718.688254,189.346578 718.851519,190.11744 718.974875,191.009826 C719.094603,191.904026 719.174422,192.818178 719.217959,193.750468 C719.257868,194.684571 719.277823,195.439109 719.277823,196.005012 L713.915465,196.005012 Z M660.839728,229.148454 C660.554921,227.525109 660.415238,225.979757 660.415238,224.519654 C660.415238,222.163537 660.638367,219.787468 661.084626,217.391447 C661.530884,214.995426 662.24381,212.820688 663.217959,210.870861 C664.192109,208.921033 665.451066,207.337592 666.996644,206.118723 C668.53678,204.899854 670.408889,204.290419 672.602086,204.290419 C674.225669,204.290419 675.647891,204.921619 676.866939,206.178578 C678.084172,207.440978 678.693696,209.285606 678.693696,211.725157 C678.693696,213.916219 678.287347,216.090957 677.476463,218.24393 C676.66195,220.396902 675.526349,222.446488 674.062404,224.396316 C672.602086,226.347957 670.835193,228.134543 668.761723,229.757888 C666.690068,231.384861 664.393469,232.725254 661.875556,233.779068 C661.47102,232.31715 661.122721,230.773612 660.839728,229.148454 L660.839728,229.148454 Z M433.004807,198.138033 C432.680091,194.116854 432.516825,189.141619 432.516825,183.210516 C432.516825,172.568992 432.861497,163.532674 433.552653,156.097937 C434.241995,148.665012 435.156281,142.432819 436.293696,137.395916 L450.675556,137.395916 C450.675556,142.510812 450.289161,148.117247 449.516372,154.209778 C448.743583,160.300495 447.647891,166.516364 446.229297,172.851943 C444.805261,179.189337 443.100045,185.463247 441.108209,191.679116 C439.116372,197.894985 436.90322,203.680985 434.466939,209.042557 C433.815692,205.794054 433.32771,202.159212 433.004807,198.138033 L433.004807,198.138033 Z M442.632018,120.273709 C444.012517,118.690268 445.070113,117.89764 445.801179,117.89764 C446.773515,117.89764 447.647891,118.873461 448.42068,120.823288 C449.191655,122.771302 449.781224,125.453902 450.187574,128.863833 L438.488707,128.863833 C439.869206,124.722943 441.247891,121.858964 442.632018,120.273709 L442.632018,120.273709 Z M373.715918,229.148454 C373.431111,227.525109 373.289615,225.979757 373.289615,224.519654 C373.289615,222.163537 373.514558,219.787468 373.960816,217.391447 C374.405261,214.995426 375.118186,212.820688 376.090522,210.870861 C377.068299,208.921033 378.325442,207.337592 379.869206,206.118723 C381.412971,204.899854 383.281451,204.290419 385.476463,204.290419 C387.100045,204.290419 388.522268,204.921619 389.741315,206.178578 C390.960363,207.440978 391.569887,209.285606 391.569887,211.725157 C391.569887,213.916219 391.161723,216.090957 390.350839,218.24393 C389.538141,220.396902 388.40254,222.446488 386.938594,224.396316 C385.476463,226.347957 383.711383,228.134543 381.637914,229.757888 C379.564444,231.384861 377.26966,232.725254 374.751746,233.779068 C374.345397,232.31715 373.998912,230.773612 373.715918,229.148454 L373.715918,229.148454 Z M797.884626,216.170764 C797.071927,215.238474 795.934512,214.770516 794.472381,214.770516 C793.659683,214.770516 792.886893,214.975474 792.157642,215.37995 C791.424762,215.78624 790.856961,216.355771 790.450612,217.084916 C789.070113,219.767516 787.343129,222.892681 785.271474,226.467668 C783.198005,230.044468 780.863311,233.436261 778.263764,236.643047 C775.66059,239.853461 772.819773,242.595916 769.734059,244.866785 C766.642902,247.143095 763.354014,248.27853 759.86195,248.27853 C758.722721,248.27853 757.463764,248.057247 756.083265,247.60924 C754.699138,247.164861 753.402086,246.374047 752.183039,245.234985 C750.963991,244.097737 749.948118,242.57415 749.137234,240.664226 C748.322721,238.754302 747.918186,236.336516 747.918186,233.412681 C747.918186,231.384861 748.039728,229.311695 748.282812,227.20044 C748.52771,225.087371 748.810703,222.956164 749.137234,220.801378 C749.460136,218.650219 749.746757,216.557102 749.989841,214.527468 C750.234739,212.497833 750.356281,210.548006 750.356281,208.676171 C750.356281,204.047371 749.137234,200.719061 746.699138,198.687612 C744.261043,196.656164 740.725442,195.64044 736.095964,195.64044 C734.87873,195.64044 733.598005,195.660392 732.257415,195.700295 C730.916825,195.742012 729.556281,195.761964 728.175782,195.761964 C728.175782,194.136806 728.032472,192.228695 727.749478,190.034006 C727.464671,187.84113 726.996644,185.75164 726.347211,183.758281 C725.695964,181.76855 724.781678,180.083537 723.606168,178.701426 C722.425215,177.32113 720.90322,176.630074 719.034739,176.630074 C717.409342,176.630074 715.783946,177.464419 714.160363,179.127668 C712.533152,180.794543 711.07102,182.764323 709.773968,185.037006 C708.473288,187.31513 707.43746,189.62953 706.664671,191.983833 C705.893696,194.341764 705.507302,196.208157 705.507302,197.588454 C705.507302,199.458474 705.915465,200.922206 706.724535,201.976019 C707.537234,203.033461 708.576689,203.804323 709.833832,204.290419 C711.092789,204.780143 712.451519,205.064909 713.915465,205.142902 C715.37941,205.226337 716.799819,205.264426 718.182132,205.264426 C717.451066,208.841226 716.841542,211.480295 716.35356,213.187074 C715.999819,214.420454 715.691429,215.392647 715.422948,216.118164 C715.121814,216.462785 714.86059,216.861819 714.646531,217.329778 C712.941315,221.147812 711.031111,224.965847 708.919546,228.782068 C706.804354,232.60373 704.409796,236.053564 701.726803,239.14064 C699.049252,242.227716 696.081451,244.727123 692.832472,246.633419 C689.581678,248.545157 685.964444,249.497399 681.984399,249.497399 C678.084172,249.497399 674.797098,248.788206 672.114104,247.366192 C669.432925,245.945992 667.239728,244.057833 665.532698,241.699902 C668.701859,240.158178 671.667846,238.329874 674.428844,236.216806 C677.191655,234.10555 679.566259,231.789337 681.558095,229.271792 C683.548118,226.752433 685.111837,224.031743 686.251066,221.107909 C687.388481,218.184074 687.956281,215.055281 687.956281,211.725157 C687.956281,209.125992 687.508209,206.809778 686.615692,204.780143 C685.721361,202.750509 684.544036,201.021964 683.081905,199.59995 C681.617959,198.17975 679.976236,197.084219 678.14585,196.30973 C676.317279,195.538868 674.470567,195.15253 672.602086,195.15253 C669.432925,195.15253 666.526803,195.883488 663.889161,197.345406 C661.247891,198.807323 658.971247,200.838771 657.062857,203.437937 C655.152653,206.037102 653.692336,209.086088 652.674649,212.57764 C652.35356,213.678612 652.10322,214.826743 651.883719,215.994826 C651.50458,216.397488 651.163537,216.860006 650.909569,217.451302 C650.256508,218.833412 649.402086,220.55833 648.346304,222.631495 C647.290522,224.701033 646.073288,226.854006 644.692789,229.088599 C643.310476,231.323192 641.768526,233.555971 640.061497,235.790564 C638.356281,238.025157 636.567619,240.054792 634.699138,241.883095 C632.830658,243.711399 630.922268,245.173316 628.972154,246.270661 C627.022041,247.366192 625.071927,247.915771 623.121814,247.915771 C621.416599,247.915771 620.032472,247.447812 618.976689,246.513709 C617.920907,245.579606 617.128163,244.360737 616.600272,242.857102 C616.072381,241.355281 615.705941,239.650316 615.50458,237.740392 C615.301406,235.832281 615.199819,233.902406 615.199819,231.950764 C615.199819,228.539019 615.383039,225.272378 615.749478,222.143585 C616.114104,219.016606 616.297324,216.519012 616.297324,214.648992 C616.297324,212.374495 616.032472,210.261426 615.50458,208.313412 C614.976689,206.361771 614.2039,204.656806 613.189841,203.194888 C612.172154,201.731157 610.873288,200.575771 609.2878,199.723288 C607.705941,198.867178 605.855601,198.44275 603.74585,198.44275 C601.632472,198.44275 599.375782,199.072137 596.97941,200.330909 C594.584853,201.591495 592.204807,203.642895 589.850159,206.485109 C587.49551,209.410757 585.22068,212.535923 583.027483,215.867861 C580.832472,219.197985 578.760816,222.549874 576.810703,225.919902 C574.862404,229.293557 573.033832,232.581964 571.326803,235.790564 C569.621587,239.000978 568.115918,241.986481 566.817052,244.745261 L566.697324,239.019116 L566.697324,234.754888 L566.697324,229.02693 L566.697324,222.934399 L566.697324,217.69435 C571.002086,209.815233 575.103673,201.713019 579.005714,193.385895 C582.904127,185.060585 586.318186,176.510364 589.240635,167.735233 C592.168526,158.961916 594.501406,149.965502 596.250159,140.744178 C596.997551,136.793737 597.550839,132.803392 597.980771,128.78584 L588.850612,128.78584 C588.616599,130.92793 588.349932,133.050068 588.025215,135.139557 C586.885986,142.411054 585.322268,149.579164 583.330431,156.647516 C581.338594,163.714054 578.944036,170.802357 576.141315,177.908799 C573.33678,185.018868 570.231111,192.308502 566.817052,199.783143 L566.817052,186.012826 C566.817052,180.732874 566.856961,175.066585 566.938594,169.015771 C567.018413,162.964957 567.163537,156.73095 567.366712,150.311937 C567.566259,143.89655 567.872834,137.63715 568.280998,131.544619 C568.340862,130.61233 568.41161,129.701806 568.47873,128.78584 C568.776236,124.77373 569.128163,120.901281 569.534512,117.177564 C569.643356,116.192674 569.748571,115.205971 569.864671,114.241033 C570.514104,108.801468 571.326803,104.027564 572.302766,99.9247641 C573.276916,95.8237779 574.414331,92.5734607 575.713197,90.17744 C577.013878,87.7814193 578.557642,86.5806883 580.34449,86.5806883 C582.61932,86.5806883 584.388027,87.6780331 585.64517,89.870909 C586.904127,92.0655986 587.840181,94.6230469 588.449705,97.5486952 C589.057415,100.474343 589.423855,103.358274 589.545397,106.198674 C589.666939,109.044516 589.730431,111.115868 589.730431,112.414543 C589.730431,114.017937 589.690522,115.599564 589.643356,117.177564 L598.760816,117.177564 C598.807982,115.632212 598.867846,114.090488 598.867846,112.534254 C598.867846,107.825647 598.541315,103.334695 597.89551,99.0722814 C597.244263,94.8080538 596.190295,91.07164 594.726349,87.86304 C593.264218,84.6526262 591.3522,82.1151297 588.997551,80.245109 C586.639274,78.3769021 583.756735,77.4446124 580.34449,77.4446124 C576.364444,77.4446124 573.053787,79.3110055 570.414331,83.0492331 C567.771247,86.7856469 565.599819,92.0855503 563.894603,98.9489434 C563.471927,100.646654 563.076463,102.429612 562.706395,104.297819 C561.579864,109.996757 560.694603,116.499206 560.05424,123.806978 C559.91093,125.432137 559.776689,127.099012 559.649705,128.78584 C559.005714,137.18733 558.530431,146.365123 558.225669,156.342799 C557.861043,168.324716 557.656054,181.282454 557.616145,195.212385 C557.59619,202.159212 557.579864,209.280164 557.56898,216.578868 C557.438367,216.783826 557.284172,216.972461 557.189841,217.20644 C557.026576,217.69435 556.476916,218.895081 555.54449,220.801378 C554.610249,222.713116 553.309569,224.945895 551.644263,227.503343 C549.978957,230.062606 547.967166,232.785109 545.612517,235.667226 C543.25424,238.552971 540.534966,241.213806 537.447438,243.64973 C534.359909,246.085654 530.947664,248.09715 527.208889,249.682406 C523.471927,251.265847 519.408435,252.056661 515.022041,252.056661 C511.609796,252.056661 508.663764,251.367419 506.18576,249.985309 C503.707755,248.605012 501.656054,246.756757 500.034286,244.440543 C498.405261,242.126143 497.186213,239.467123 496.375329,236.461668 C495.564444,233.454399 495.156281,230.287516 495.156281,226.953764 C495.156281,223.46584 495.624308,220.15204 496.560363,217.025061 C497.492789,213.898081 498.731791,211.175578 500.275556,208.861178 C501.81932,206.546778 503.627937,204.698523 505.701406,203.316412 C507.771247,201.936116 509.946304,201.245061 512.21932,201.245061 C514.655601,201.245061 516.669206,201.936116 518.25288,203.316412 C519.836553,204.698523 520.629297,206.242061 520.629297,207.947026 C520.629297,209.165895 520.485986,210.161668 520.202993,210.930716 C519.918186,211.703392 519.593469,212.354543 519.227029,212.882357 C518.862404,213.411985 518.537687,213.916219 518.25288,214.405943 C517.964444,214.89204 517.826576,215.463385 517.826576,216.110909 C517.826576,217.411399 518.25288,218.508743 519.105488,219.399316 C519.958095,220.29533 521.075556,220.741523 522.457868,220.741523 C523.350385,220.741523 524.242902,220.396902 525.137234,219.705847 C526.033379,219.016606 526.822494,218.080688 527.515465,216.903537 C528.204807,215.726385 528.770794,214.36604 529.22068,212.820688 C529.668753,211.278964 529.891882,209.612088 529.891882,207.825502 C529.891882,205.957295 529.463764,204.089088 528.611156,202.219068 C527.758549,200.350861 526.57941,198.645895 525.075556,197.100543 C523.571701,195.558819 521.724989,194.319999 519.533605,193.385895 C517.338594,192.453606 514.902313,191.983833 512.21932,191.983833 C508.64381,191.983833 505.273288,192.897985 502.102313,194.726288 C498.934966,196.552778 496.150385,199.052185 493.757642,202.219068 C491.357642,205.389578 489.469206,209.104226 488.090522,213.370268 C487.907302,213.928916 487.771247,214.507516 487.613424,215.077047 C486.597551,215.526868 485.804807,216.328564 485.285986,217.57464 C484.475102,219.606088 483.154467,222.306826 481.324082,225.67504 C479.497324,229.048695 477.383946,232.378819 474.987574,235.667226 C472.591202,238.959261 469.991655,241.803288 467.188934,244.197495 C464.386213,246.597143 461.563537,247.792433 458.717279,247.792433 C456.280998,247.792433 454.007982,247.103192 451.894603,245.721081 C449.781224,244.340785 447.812971,242.450812 445.984399,240.054792 C444.155828,237.658771 442.510476,234.858274 441.048345,231.646047 C439.584399,228.439261 438.323628,224.965847 437.26966,221.227619 C438.57034,219.606088 440.030658,217.146585 441.657868,213.856364 C443.281451,210.566143 444.926803,206.688254 446.593923,202.219068 C448.257415,197.753509 449.882812,192.879847 451.468299,187.598081 C453.051973,182.31813 454.472381,176.896702 455.733152,171.330171 C456.992109,165.767268 457.988027,160.180785 458.717279,154.57435 C459.450159,148.96973 459.816599,143.689778 459.816599,138.734495 L459.816599,137.395916 L521.603447,137.395916 C522.902313,137.395916 523.999819,137.011392 524.89415,136.236902 C525.786667,135.46604 526.234739,134.430364 526.234739,133.129874 C526.234739,131.831199 525.786667,130.795523 524.89415,130.022847 C523.999819,129.250171 522.902313,128.863833 521.603447,128.863833 L459.326803,128.863833 C459.002086,125.939999 458.537687,123.261026 457.928163,120.823288 C457.318639,118.38555 456.484172,116.274295 455.42839,114.487709 C454.370794,112.699309 453.091882,111.299061 451.589841,110.283337 C450.085986,109.267612 448.317279,108.757937 446.289161,108.757937 C444.173968,108.757937 442.245624,109.267612 440.498685,110.283337 C438.751746,111.299061 437.166259,112.699309 435.74585,114.487709 C434.325442,116.274295 433.066485,118.38555 431.96898,120.823288 C430.873288,123.261026 429.915465,125.939999 429.10458,128.863833 L383.279637,128.863833 C381.982585,128.863833 380.886893,129.250171 379.992562,130.022847 C379.098231,130.795523 378.650159,131.831199 378.650159,133.129874 C378.650159,134.430364 379.098231,135.46604 379.992562,136.236902 C380.886893,137.011392 381.982585,137.395916 383.279637,137.395916 L427.031111,137.395916 C426.218413,141.456999 425.570794,145.619654 425.082812,149.883881 C424.596644,154.149923 424.230204,158.292626 423.98712,162.313806 C423.740408,166.334985 423.578957,170.153019 423.497324,173.767909 C423.417506,177.380985 423.377596,180.531543 423.377596,183.210516 C423.377596,193.933661 424.188481,203.804323 425.813878,212.820688 C426.163991,214.768702 426.557642,216.645978 426.978503,218.477909 C425.405714,221.913233 423.695057,225.348557 421.793923,228.782068 C419.680544,232.60373 417.284172,236.053564 414.602993,239.14064 C411.921814,242.227716 408.955828,244.727123 405.706848,246.633419 C402.457868,248.545157 398.838821,249.497399 394.86059,249.497399 C390.960363,249.497399 387.66966,248.788206 384.990295,247.366192 C382.307302,245.945992 380.11229,244.057833 378.407075,241.699902 C381.576236,240.158178 384.542222,238.329874 387.305034,236.216806 C390.066032,234.10555 392.440635,231.789337 394.434286,229.271792 C396.422494,226.752433 397.988027,224.031743 399.125442,221.107909 C400.262857,218.184074 400.830658,215.055281 400.830658,211.725157 C400.830658,209.125992 400.384399,206.809778 399.491882,204.780143 C398.597551,202.750509 397.418413,201.021964 395.958095,199.59995 C394.49415,198.17975 392.850612,197.084219 391.020227,196.30973 C389.193469,195.538868 387.346757,195.15253 385.476463,195.15253 C382.307302,195.15253 379.401179,195.883488 376.763537,197.345406 C374.120454,198.807323 371.845624,200.838771 369.939048,203.437937 C368.027029,206.037102 366.564898,209.086088 365.550839,212.57764 C365.237007,213.653219 364.988481,214.774143 364.772608,215.913206 C364.384399,216.281406 364.039728,216.693137 363.782132,217.20644 C362.726349,219.399316 361.244263,222.306826 359.334059,225.919902 C357.425669,229.534792 355.210703,233.088012 352.694603,236.583192 C350.173061,240.076557 347.412063,243.101964 344.406168,245.661226 C341.398458,248.218674 338.27102,249.497399 335.022041,249.497399 C330.227483,249.497399 326.125896,246.555426 322.713651,240.664226 C319.301406,234.77484 316.576689,226.670812 314.548571,216.355771 C319.096417,208.066737 323.363084,199.560047 327.343129,190.826633 C331.324989,182.095033 334.778957,173.341668 337.70322,164.56835 C340.629297,155.795033 342.944036,147.079757 344.649252,138.429778 C345.293243,135.174019 345.773968,131.967233 346.173061,128.78584 L336.934059,128.78584 C336.651066,130.79915 336.326349,132.832412 335.936327,134.896509 C334.51229,142.411054 332.623855,149.965502 330.27102,157.561668 C327.91093,165.157833 325.191655,172.670564 322.104127,180.103488 C319.016599,187.536412 315.767619,194.543095 312.355374,201.121723 C311.945397,196.735971 311.62068,192.147074 311.37941,187.351406 C311.136327,182.561178 311.012971,177.565992 311.012971,172.365847 C311.012971,165.540543 311.234286,158.678964 311.685986,151.773854 C312.130431,144.868743 312.739955,138.246585 313.51093,131.911006 C313.641542,130.85175 313.783039,129.82333 313.922721,128.78584 C314.465125,124.744709 315.083719,120.874074 315.782132,117.177564 C315.97805,116.150957 316.17034,115.120723 316.375329,114.119509 C317.51093,108.598323 318.771701,103.804468 320.1522,99.741571 C321.532698,95.6804883 323.018413,92.4718883 324.602086,90.115771 C326.187574,87.7596538 327.832925,86.5806883 329.538141,86.5806883 C332.137687,86.5806883 334.209342,88.65204 335.751293,92.7965572 C337.295057,96.9392607 338.067846,103.804468 338.067846,113.38855 C338.067846,114.63644 338.017052,115.907909 337.969887,117.177564 L347.107302,117.177564 C347.149025,115.871633 347.208889,114.562074 347.208889,113.26884 C347.208889,106.686585 346.80254,101.121868 345.991655,96.5746883 C345.175329,92.0256952 344.039728,88.3291848 342.577596,85.4833434 C341.115465,82.6429434 339.306848,80.5933572 337.155374,79.332771 C335.002086,78.0721848 332.583946,77.4446124 329.902766,77.4446124 C326.490522,77.4446124 323.444717,78.8267228 320.761723,81.5873159 C318.082358,84.347909 315.705941,88.0861366 313.634286,92.7965572 C313.068299,94.078909 312.529524,95.4301848 312.008889,96.8268055 C310.613878,100.563219 309.365805,104.693226 308.271927,109.247661 C306.789841,115.403674 305.570794,121.920633 304.602086,128.78584 C304.58576,128.894668 304.569433,128.999868 304.554921,129.106881 C303.580771,136.095426 302.867846,143.243585 302.421587,150.553171 C301.973515,157.866385 301.750385,164.931109 301.750385,171.756412 C301.750385,176.468647 301.891882,181.870123 302.176689,187.96084 C302.461497,194.055185 303.009342,200.330909 303.823855,206.788012 C304.634739,213.24693 305.792109,219.582509 307.297778,225.798378 C308.799819,232.014247 310.769887,237.557199 313.206168,242.430861 C315.644263,247.304523 318.608435,251.245895 322.104127,254.25135 C325.59619,257.254992 329.781224,258.758626 334.655601,258.758626 C337.824762,258.758626 340.810703,258.089337 343.613424,256.748943 C346.416145,255.40855 349.055601,253.661868 351.53542,251.510709 C354.013424,249.357737 356.306395,246.919999 358.421587,244.197495 C360.531338,241.476806 362.443356,238.736164 364.148571,235.973757 C364.538594,235.342557 364.883265,234.738564 365.253333,234.120061 C365.438367,234.899992 365.627029,235.679923 365.855601,236.461668 C367.074649,240.604371 368.943129,244.319019 371.461043,247.60924 C373.977143,250.901274 377.188027,253.580247 381.088254,255.653412 C384.990295,257.72295 389.619773,258.758626 394.982132,258.758626 C403.350385,258.595385 410.844263,255.386785 417.467392,249.132826 C422.165805,244.694474 426.602993,238.690819 430.791655,231.185343 C431.464671,232.932026 432.17941,234.611599 432.941315,236.216806 C436.070567,242.797247 439.869206,247.915771 444.339048,251.570564 C448.803447,255.223543 453.844717,257.051847 459.450159,257.051847 C462.61932,257.051847 465.625215,256.241081 468.467846,254.615923 C471.31229,252.992578 473.971701,250.96113 476.451519,248.525206 C478.929524,246.085654 481.160816,243.38673 483.154467,240.421178 C484.42068,238.533019 485.552653,236.724668 486.622948,234.952592 C486.94585,237.003992 487.381224,238.975585 487.967166,240.847419 C489.266032,244.990123 491.176236,248.585061 493.695964,251.630419 C496.212063,254.677592 499.259683,257.031895 502.837007,258.696957 C506.410703,260.360206 510.514104,261.196364 515.145397,261.196364 C520.342676,261.196364 525.157188,260.343881 529.58712,258.637102 C534.01161,256.932137 538.013424,254.761026 541.590748,252.11833 C545.166259,249.479261 548.333605,246.573564 551.094603,243.406681 C553.561723,240.57535 555.704127,237.834709 557.558095,235.164806 C557.558095,236.494316 557.556281,237.800247 557.556281,239.14064 L557.556281,246.818426 C557.556281,249.662454 558.225669,252.078426 559.566259,254.068157 C560.905034,256.056074 562.835193,257.051847 565.353107,257.051847 C566.73542,257.051847 568.299138,256.464178 570.046077,255.287026 C571.793016,254.109874 573.52,251.813612 575.225215,248.401868 C576.121361,246.615281 577.255147,244.360737 578.639274,241.640047 C580.017959,238.917543 581.563537,236.053564 583.268753,233.049923 C584.975782,230.044468 586.742676,227.017247 588.571247,223.970074 C590.399819,220.924716 592.22839,218.184074 594.056961,215.746337 C595.883719,213.306785 597.628844,211.340633 599.295964,209.835185 C600.959456,208.333364 602.443356,207.58064 603.74585,207.58064 C604.638367,207.58064 605.427483,208.030461 606.120454,208.921033 C606.81161,209.815233 607.156281,211.523826 607.156281,214.039557 C607.156281,215.01175 607.096417,216.214295 606.973061,217.634495 C606.849705,219.056509 606.708209,220.578281 606.546757,222.20344 C606.385306,223.828599 606.24381,225.473709 606.120454,227.136957 C606.000726,228.805647 605.939048,230.367323 605.939048,231.831054 C605.939048,234.673268 606.162177,237.598916 606.608435,240.604371 C607.054694,243.608012 607.905488,246.330516 609.168073,248.768254 C610.425215,251.204178 612.193923,253.215674 614.468753,254.797302 C616.743583,256.382557 619.749478,257.176999 623.48644,257.176999 C626.73542,257.176999 629.841088,256.382557 632.810703,254.797302 C635.774875,253.215674 638.537687,251.18604 641.097324,248.706585 C643.656961,246.228943 645.993469,243.528206 648.106848,240.604371 C649.70322,238.38973 651.101859,236.269406 652.398912,234.19624 C652.578503,234.950778 652.758095,235.70713 652.981224,236.461668 C654.200272,240.604371 656.066939,244.319019 658.586667,247.60924 C661.10458,250.901274 664.313651,253.580247 668.213878,255.653412 C672.114104,257.72295 676.745397,258.758626 682.107755,258.758626 C690.474195,258.595385 697.969887,255.386785 704.591202,249.132826 C711.130884,242.955047 717.175329,233.791764 722.724535,221.668371 C722.833379,221.479737 722.963991,221.321937 723.056508,221.107909 C723.136327,221.028102 723.339501,220.540192 723.666032,219.644178 C723.990748,218.751792 724.377143,217.592778 724.825215,216.170764 C725.26966,214.752378 725.737687,213.085502 726.223855,211.175578 C726.713651,209.267468 727.116372,207.216068 727.442902,205.023192 C728.986667,204.943385 730.428844,204.899854 731.771247,204.899854 L735.48644,204.899854 C737.841088,204.899854 739.366712,205.286192 740.056054,206.058868 C740.747211,206.831543 741.091882,207.988743 741.091882,209.530468 C741.091882,213.187074 740.687347,217.025061 739.876463,221.04624 C739.060136,225.065606 738.657415,229.10855 738.657415,233.169633 C738.657415,236.989481 739.223401,240.421178 740.36263,243.466537 C741.498231,246.513709 743.022041,249.072971 744.934059,251.142509 C746.838821,253.215674 749.09551,254.797302 751.695057,255.896461 C754.296417,256.991992 757.059229,257.541571 759.983492,257.541571 C764.692789,257.541571 769.021134,256.279171 772.96127,253.765254 C776.90322,251.245895 780.456961,248.158819 783.626122,244.502212 C786.793469,240.847419 789.616145,236.927812 792.097778,232.743392 C794.572154,228.558971 796.745397,224.804419 798.615692,221.472481 C798.940408,220.824957 799.103673,220.092185 799.103673,219.279606 C799.103673,218.142357 798.693696,217.106681 797.884626,216.170764 L797.884626,216.170764 Z" id="Fill-1" fill="#ED7779"></path>
                <g id="Group-5" transform="translate(0.000000, 81.631572)">
                    <mask id="mask-2" fill="white">
                        <use xlink:href="#path-1"></use>
                    </mask>
                    <g id="Clip-4"></g>
                    <path d="M62.2147846,10.8013193 C63.8020862,10.7360228 65.3948299,10.6779814 67.027483,10.6779814 C72.8796372,10.6779814 79.3775964,11.1640779 86.5268027,12.1398986 C93.6778231,13.1139055 101.315011,14.4143952 109.438367,16.0395538 C117.561723,17.6647124 126.033379,19.4712503 134.849705,21.4609814 C136.36263,21.8019745 137.906395,22.1502228 139.426576,22.4912159 C140.580317,19.991809 141.240635,17.1133193 141.412971,13.8611883 C139.390295,13.40774 137.342222,12.9542917 135.337687,12.5026572 C126.276463,10.4748366 117.625215,8.6483469 109.378503,7.02137448 C101.129977,5.39802966 93.4329252,4.07940207 86.2855329,3.06005034 C79.1326984,2.04795379 72.7562812,1.53827793 67.150839,1.53827793 C65.4764626,1.53827793 63.8474376,1.61082966 62.2147846,1.67431241 C57.5707937,1.85750552 53.0973243,2.30007103 48.7907483,3.00200897 C46.013424,3.45545724 43.2796372,3.97601586 40.6438095,4.64530552 C32.4769161,6.71665724 25.3893878,9.74387793 19.3794104,13.72334 C13.3639909,17.7064297 8.63292517,22.5401883 5.18077098,28.2228021 C1.7231746,33.9108572 -0.000181405896,40.4096779 -0.000181405896,47.7210779 C-0.000181405896,51.7023538 0.609342404,55.3970503 1.82839002,58.810609 C3.04562358,62.2223538 4.57124717,65.2876641 6.39619048,68.0083538 C8.2247619,70.7308572 10.2383673,73.1468297 12.4315646,75.2580848 C14.6247619,77.3729676 16.6964172,79.0797469 18.6447166,80.3747952 C19.457415,80.9479538 20.3100227,81.2309055 21.2061678,81.2309055 C22.3417687,81.2309055 23.3775964,80.8028503 24.3118367,79.9503676 C25.2460771,79.096071 25.7159184,77.9824021 25.7159184,76.5984779 C25.7159184,75.8693331 25.550839,75.1365607 25.2279365,74.4056021 C24.90322,73.6746434 24.3735147,73.1069262 23.642449,72.7006366 C23.4773696,72.6208297 22.626576,71.9896297 21.0846259,70.8124779 C19.5408617,69.6353262 17.8737415,67.9702641 16.0868934,65.8154779 C14.2982313,63.6643193 12.6927891,61.06334 11.274195,58.0179814 C9.85197279,54.970809 9.14086168,51.5409262 9.14086168,47.7210779 C9.14086168,41.8715952 10.6229478,36.6533124 13.5889342,32.0626021 C16.5531066,27.4737055 20.6147846,23.5940021 25.7757823,20.4253055 C30.9331519,17.2584228 37.0483447,14.8424503 44.1159184,13.1773883 C45.643356,12.8164434 47.2107029,12.51354 48.7907483,12.2305883 C53.0682993,11.4669814 57.5472109,10.9953952 62.2147846,10.8013193" id="Fill-3" fill="#ED7779" mask="url(#mask-2)"></path>
                </g>
                <path d="M306.623855,93.4052662 C306.623855,89.83028 305.731338,86.8465903 303.94449,84.4505697 C302.4878,82.4971145 300.690068,80.8864662 298.583946,79.5805352 C298.106848,79.2830731 297.631565,78.985611 297.12,78.722611 C294.357188,77.302411 291.371247,76.2848731 288.160363,75.6754386 C284.951293,75.0660041 281.965351,74.7631007 279.206168,74.7631007 C273.822041,74.7631007 268.350839,75.3616524 262.799819,76.4989007 C262.233832,76.6131697 261.673288,76.7056731 261.105488,76.8326386 C254.97034,78.2165628 249.183492,80.3695352 243.739501,83.2933697 C240.633832,84.9620593 237.742222,86.9336524 235.01932,89.1428524 C232.969433,90.8061007 231.008435,92.5926869 229.17805,94.5624662 C224.909569,99.1549903 221.638821,104.616321 219.365805,110.953714 C210.266485,109.653225 200.963991,108.069783 191.458322,106.199763 C190.944943,106.09819 190.435193,105.989363 189.923628,105.889604 C185.439274,105.004473 180.963991,104.09939 176.499592,103.165287 C172.01161,102.227556 167.530884,101.273501 163.061043,100.290425 C160.263764,99.675549 157.515465,99.0661145 154.749025,98.4548662 C154.473288,101.572777 153.802086,104.454894 152.789841,107.126611 C155.759456,107.792273 158.721814,108.456121 161.722268,109.125411 C166.634739,110.220942 171.561723,111.282011 176.499592,112.319501 C180.706395,113.202818 184.918639,114.073439 189.141769,114.913225 C189.404807,114.965825 189.66059,115.007542 189.923628,115.058328 C198.832472,116.819521 207.594376,118.343108 216.196644,119.603694 C212.621134,131.870377 210.754467,146.981087 210.591202,164.932197 C201.97805,165.256866 194.017959,165.643204 186.705488,166.089397 C179.391202,166.537404 173.054694,166.985411 167.692336,167.431604 C162.331791,167.879611 158.128617,168.264135 155.079184,168.588804 C152.033379,168.915287 150.46966,169.076714 150.388027,169.076714 C149.248798,169.24177 148.274649,169.746004 147.463764,170.600301 C146.649252,171.452783 146.244717,172.448556 146.244717,173.58399 C146.244717,175.127528 146.770794,176.284728 147.830204,177.05559 C148.884172,177.831894 150.10322,178.214604 151.483719,178.214604 C152.216599,178.214604 154.166712,178.074942 157.334059,177.788363 C160.50322,177.505411 164.664671,177.139025 169.827483,176.692832 C174.984853,176.246639 181.018413,175.800446 187.922721,175.352439 C194.828844,174.906246 202.384399,174.518094 210.591202,174.195239 C210.591202,175.167432 210.609342,176.163204 210.65288,177.180742 C210.690975,178.194652 210.714558,179.190425 210.714558,180.164432 C210.714558,203.317501 204.19483,220.824232 191.15356,232.682811 C178.11229,244.543204 158.8361,250.474308 133.324989,250.474308 C124.062404,250.474308 115.879184,249.661728 108.769887,248.03657 C101.66059,246.411411 95.4020862,244.300156 89.9998186,241.70099 C84.595737,239.101825 80.0079819,236.136273 76.2292971,232.802521 C72.4524263,229.476025 69.2832653,226.124135 66.7254422,222.752294 C64.1639909,219.382266 62.1540136,216.110183 60.6918821,212.943301 C59.2297506,209.77279 58.134059,207.053914 57.4011791,204.779418 C57.0764626,203.803597 56.5286168,203.032735 55.7558277,202.465018 C54.9830385,201.895487 54.1104762,201.610721 53.1363265,201.610721 C51.7521995,201.610721 50.6165986,202.07868 49.7222676,203.012783 C48.8279365,203.946887 48.3834921,205.022466 48.3834921,206.241335 C48.3834921,206.486197 48.3998186,206.711108 48.443356,206.910625 C48.4832653,207.11377 48.5431293,207.336866 48.6247619,207.579914 C49.4374603,210.182708 50.6982313,213.289735 52.4034467,216.904625 C54.1104762,220.517701 56.3834921,224.255928 59.2297506,228.113866 C62.0705669,231.971804 65.6261224,235.789839 69.8927891,239.56797 C74.1594558,243.346101 79.2769161,246.737894 85.2487982,249.741535 C91.2188662,252.748804 98.166712,255.164777 106.086893,256.991266 C114.008889,258.81957 123.088254,259.733721 133.324989,259.733721 C147.22068,259.733721 159.52907,257.985225 170.253787,254.493673 C180.976689,251.003935 190.014331,245.885411 197.368526,239.141728 C204.720907,232.399859 210.30458,224.092687 214.126803,214.222025 C217.943583,204.353177 219.853787,193.080452 219.853787,180.40748 C219.853787,179.272046 219.832018,178.174701 219.793923,177.119073 C219.750385,176.061632 219.732245,174.967914 219.732245,173.828852 C222.901406,173.747232 226.108662,173.687377 229.359456,173.645659 C232.608435,173.605756 235.940862,173.58399 239.354921,173.58399 C243.821134,173.58399 248.350839,173.665611 252.940408,173.828852 C257.531791,173.992094 262.141315,174.071901 266.772608,174.071901 C267.991655,174.071901 269.045624,173.665611 269.941769,172.853032 C270.834286,172.040452 271.284172,170.984825 271.284172,169.686149 C271.284172,168.46728 270.897778,167.389887 270.124989,166.455783 C269.3522,165.523494 268.274649,165.013818 266.895964,164.932197 C262.183039,164.77077 257.511837,164.629294 252.880544,164.505956 C248.249252,164.384432 243.659683,164.322763 239.108209,164.322763 C235.695964,164.322763 232.385306,164.344528 229.17805,164.384432 C225.967166,164.426149 222.819773,164.486004 219.732245,164.567625 C219.812063,155.714501 220.32,147.672142 221.25424,140.442363 C222.188481,133.21077 223.592562,126.672046 225.459229,120.822563 C235.695964,122.041432 245.203447,122.650866 253.97805,122.650866 C255.610703,122.650866 257.198005,122.601894 258.772608,122.538411 L252.423401,113.610921 C245.172608,113.55288 237.339501,113.088549 228.871474,112.172583 C231.47102,106.486342 234.823401,101.814011 238.926803,98.1574041 C239.44381,97.6967007 239.977143,97.2867834 240.50322,96.8496593 C243.666939,94.2251007 246.997551,92.0449214 250.491429,90.3073076 C251.024762,90.0424938 251.549025,89.7504731 252.089615,89.505611 C256.759002,87.3961697 261.471927,85.9342524 266.224762,85.1198593 C270.977596,84.30728 275.304127,83.9028041 279.206168,83.9028041 C280.911383,83.9028041 282.799819,84.0225145 284.873288,84.2655628 C286.941315,84.5122386 288.911383,84.9783834 290.783492,85.6676248 C292.650159,86.35868 294.213878,87.2927834 295.474649,88.4699352 C296.733605,89.6489007 297.363084,91.2105766 297.363084,93.1622179 C297.363084,96.1658593 296.265578,98.9318938 294.074195,101.447625 C291.879184,103.966983 288.851519,106.119956 284.993016,107.904728 C281.134512,109.693128 276.541315,111.09519 271.22068,112.110914 C269.705941,112.401121 268.142222,112.636914 266.549478,112.843687 L272.414331,121.071052 C273.402993,120.891487 274.406168,120.728246 275.365805,120.516032 C281.823855,119.097646 287.371247,117.104287 292.000726,114.546839 C294.507755,113.161101 296.684626,111.613935 298.583946,109.930735 C300.193016,108.506908 301.61161,106.986949 302.78712,105.34728 C305.344943,101.772294 306.623855,97.7928317 306.623855,93.4052662" id="Fill-6" fill="#ED7779"></path>
                <path d="M102.671565,58.9520848 L62.2144218,58.9520848 L62.2144218,12.8781124 L102.671565,12.8781124 C122.989025,12.8781124 134.782222,20.6774228 134.782222,35.9150986 C134.782222,51.1509607 122.989025,58.9520848 102.671565,58.9520848 M128.794014,63.3033745 C140.405805,58.5893262 148.208073,48.974409 148.208073,34.4640641 C148.208073,13.785009 131.879728,1.81397448 103.578594,1.81397448 L48.7903855,1.81397448 L48.7903855,84.6335814 C53.0969615,83.9298297 57.5722449,83.4890779 62.2144218,83.3058848 L62.2144218,70.0162228 L107.025306,70.0162228 C129.340045,70.0162228 141.49424,77.273209 141.49424,93.7787262 C141.49424,94.3700228 141.445261,94.9232297 141.412608,95.4927607 C141.240272,98.7448917 140.579955,101.623381 139.428027,104.122788 C135.097868,113.498285 124.017596,117.720795 107.025306,117.720795 L62.2144218,117.720795 L62.2144218,92.4328917 C57.5468481,92.6269676 53.0679365,93.0985538 48.7903855,93.8621607 L48.7903855,128.786747 L107.206712,128.786747 C132.324172,128.786747 147.520544,121.038223 152.790385,107.128243 C153.80263,104.454712 154.473832,101.572595 154.749569,98.4546848 C154.852971,97.2866021 154.920091,96.0967538 154.920091,94.8670021 C154.920091,77.6341538 145.122358,66.9309607 128.794014,63.3033745" id="Fill-8" fill="#FFFFFF"></path>
                <path d="M223.667846,77.0900159 L189.922721,77.0900159 L189.922721,13.4222503 L223.667846,13.4222503 C249.066485,13.4222503 262.490522,25.03234 262.490522,45.3468228 C262.490522,65.3003607 249.066485,77.0900159 223.667846,77.0900159 M261.106395,76.8324572 C261.672381,76.7054917 262.234739,76.6129883 262.798912,76.4987193 C271.281451,69.1165814 275.916372,58.5512366 275.916372,45.3468228 C275.916372,18.1381124 256.322721,1.81397448 224.030658,1.81397448 L176.498685,1.81397448 L176.498685,103.165106 C180.964898,104.099209 185.440181,105.004292 189.922721,105.889423 L189.922721,88.5187262 L224.030658,88.5187262 C227.658776,88.5187262 230.924082,88.3355331 234.189388,87.9745883 L235.020227,89.1444848 C237.743129,86.933471 240.634739,84.9618779 243.738594,83.2931883 C249.182585,80.3693538 254.971247,78.2163814 261.106395,76.8324572" id="Fill-10" fill="#FFFFFF"></path>
                <path d="M176.498685,112.318957 L176.498685,128.786384 L189.922721,128.786384 L189.922721,115.059598 C189.661497,115.006998 189.4039,114.965281 189.142676,114.914494 C184.919546,114.072894 180.705488,113.202274 176.498685,112.318957" id="Fill-12" fill="#FFFFFF"></path>
                <path d="M266.54966,112.843324 L250.489796,90.3069448 C246.997732,92.0445586 243.66712,94.2247379 240.503401,96.8511103 L252.423583,113.610559 L258.772789,122.539862 L263.217234,128.786566 L277.911111,128.786566 L272.412698,121.07069 L266.54966,112.843324 Z" id="Fill-14" fill="#FFFFFF"></path>
                <g id="Group-18" transform="translate(297.505669, 0.010883)">
                    <mask id="mask-4" fill="white">
                        <use xlink:href="#path-3"></use>
                    </mask>
                    <g id="Clip-17"></g>
                    <path d="M80.1765079,58.5780807 L14.5039456,58.5780807 L14.5039456,13.4128186 L88.1583673,13.4128186 L88.1583673,1.80272897 L1.07809524,1.80272897 L1.07809524,79.5691083 C3.18421769,80.8750393 4.98195011,82.4875014 6.44045351,84.4391428 C8.22548753,86.8351634 9.11800454,89.8206669 9.11800454,93.3938393 C9.11800454,97.7814048 7.83909297,101.762681 5.28126984,105.335853 C4.10575964,106.977336 2.68716553,108.495481 1.07809524,109.921122 L1.07809524,128.775501 L7.09714286,128.775501 C8.06585034,121.910294 9.28489796,115.393336 10.7651701,109.237322 C11.8608617,104.682888 13.1071202,100.552881 14.5039456,96.8164669 L14.5039456,70.0049772 L80.1765079,70.0049772 L80.1765079,58.5780807 Z" id="Fill-16" fill="#FFFFFF" mask="url(#mask-4)"></path>
                </g>
                <path d="M337.969524,117.177746 L315.783583,117.177746 C315.083356,120.874256 314.464762,124.74489 313.922358,128.786021 L336.93551,128.786021 L346.172698,128.786021 L388.38585,128.786021 L388.38585,117.177746 L347.106939,117.177746 L337.969524,117.177746 Z" id="Fill-19" fill="#FFFFFF"></path>
                <g id="Group-23" transform="translate(409.977324, 0.010883)">
                    <mask id="mask-6" fill="white">
                        <use xlink:href="#path-5"></use>
                    </mask>
                    <g id="Clip-22"></g>
                    <polygon id="Fill-21" fill="#FFFFFF" mask="url(#mask-6)" points="93.7801361 104.831619 11.9606349 1.80272897 0.894875283 1.80272897 0.894875283 128.775501 14.3189116 128.775501 14.3189116 25.7447979 95.9570068 128.775501 107.02458 128.775501 107.02458 1.80272897 93.7801361 1.80272897"></polygon>
                </g>
                <path d="M600.986667,1.81397448 L549.282358,1.81397448 L549.282358,128.786747 L559.649705,128.786747 C559.776689,127.098106 559.91093,125.43123 560.05424,123.807885 C560.694603,116.498299 561.579864,109.997664 562.706395,104.298726 L562.706395,13.4222503 L600.261043,13.4222503 C634.004354,13.4222503 655.774875,34.8268228 655.774875,65.3003607 C655.774875,95.7738986 634.004354,117.178471 600.261043,117.178471 L598.760816,117.178471 L589.643356,117.178471 L569.534512,117.178471 C569.128163,120.900374 568.776236,124.772823 568.47873,128.786747 L588.850612,128.786747 L597.980771,128.786747 L600.986667,128.786747 C641.623401,128.786747 669.017506,102.668126 669.017506,65.3003607 C669.017506,27.9325952 641.623401,1.81397448 600.986667,1.81397448" id="Fill-24" fill="#FFFFFF"></path>
                <g id="Group-28" transform="translate(667.573696, 0.010883)">
                    <mask id="mask-8" fill="white">
                        <use xlink:href="#path-7"></use>
                    </mask>
                    <g id="Clip-27"></g>
                    <path d="M34.4529705,83.9729979 L64.9309751,15.7689359 L95.4107937,83.9729979 L34.4529705,83.9729979 Z M71.6429932,1.80272897 L58.4003628,1.80272897 L0.346848073,128.775501 L14.315102,128.775501 L29.5550113,94.8557566 L100.308753,94.8557566 L115.546848,128.775501 L129.696508,128.775501 L71.6429932,1.80272897 Z" id="Fill-26" fill="#FFFFFF" mask="url(#mask-8)"></path>
                </g>
            </g>
        </g>
    </g>
</svg>