<svg xmlns="http://www.w3.org/2000/svg" viewBox="0 0 440.51 143.01"><defs><style>.cls-1{fill:none;}.cls-2{fill:#2a3166;}.cls-3{fill:#ee7879;}</style></defs><title>Asset 3</title><g id="Layer_2" data-name="Layer 2"><g id="Layer_3" data-name="Layer 3"><path class="cls-1" d="M172.82,71.73c-.42,3.49-.76,7.14-1,11s-.37,7.59-.37,11.35c0,2.87.06,5.62.2,8.26s.31,5.18.54,7.6q2.82-5.44,5.37-11.59t4.5-12.43a114.2,114.2,0,0,0,3.13-12.5c.21-1.14.39-2.26.54-3.37H173.05C173,70.58,172.89,71.14,172.82,71.73Z"/><path class="cls-1" d="M186.36,61.52q0-7.94-1.28-11.36t-3.42-3.42c-.94,0-1.85.65-2.72,1.94A22.91,22.91,0,0,0,176.48,54a67.38,67.38,0,0,0-2.08,7.93c-.11.55-.22,1.12-.33,1.68h12.24C186.33,62.9,186.36,62.2,186.36,61.52Z"/><path class="cls-1" d="M144.7,24c0-11.2-7.4-17.6-21.4-17.6H104.7V41.5h18.6C137.3,41.5,144.7,35,144.7,24Z"/><path class="cls-1" d="M247.19,65.61c-.42-1.07-.91-1.61-1.44-1.61s-1,.44-1.75,1.31a14.61,14.61,0,0,0-2.28,4.74h6.45A18.53,18.53,0,0,0,247.19,65.61Z"/><path class="cls-1" d="M313.26,71.52q-.33,5-.5,10.35t-.23,10.31c0,3.34-.07,6.46-.07,9.38v7.59q2.82-6.18,5.14-12.06t4-11.73a101.26,101.26,0,0,0,2.59-11.85c.18-1.15.32-2.33.45-3.51H313.37C313.34,70.51,313.3,71,313.26,71.52Z"/><path class="cls-1" d="M246,94.3q1.19-5.23,1.82-10.28a75.16,75.16,0,0,0,.63-9.27h-7.92A81.9,81.9,0,0,0,239,85.06c-.39,4.1-.57,9.08-.57,15,0,3.27.08,6,.26,8.23a51.9,51.9,0,0,0,.81,6,88.46,88.46,0,0,0,3.66-9.57Q244.81,99.54,246,94.3Z"/><path class="cls-1" d="M60.33,52.85Q53.61,51.5,47.7,50.7A79.85,79.85,0,0,0,37,49.89c-.9,0-1.78,0-2.65.07V63.9H59c9.36,0,15.47-2.32,17.86-7.49l-2.52-.57Q67.05,54.19,60.33,52.85Z"/><path class="cls-1" d="M314.44,44.79a6.51,6.51,0,0,1,5.48-3.09,7.39,7.39,0,0,1,4.76,1.54,11,11,0,0,1,3.16,4.2,23.32,23.32,0,0,1,1.75,6.18,49.05,49.05,0,0,1,.54,7.42c0,.86,0,1.71-.06,2.56h.82c18.61,0,30.61-11.8,30.61-28.6s-12-28.6-30.61-28.6h-20.7V56.5c.21-1,.42-2,.66-3A26.26,26.26,0,0,1,314.44,44.79Z"/><path class="cls-1" d="M59,37.6H34.3v7.33c.9,0,1.79-.08,2.72-.08a77.3,77.3,0,0,1,10.54.84c3.95.57,8.19,1.29,12.73,2.19s9.32,1.9,14.31,3l3.35.75c0-.32,0-.62,0-.95C78,41.6,71.3,37.6,59,37.6Z"/><polygon class="cls-1" points="403.79 7.7 386.99 45.3 420.6 45.3 403.79 7.7"/><path class="cls-1" d="M149.51,60.81a32.4,32.4,0,0,0,7.59-2.32,14.63,14.63,0,0,0,5-3.56,6.8,6.8,0,0,0,1.81-4.57,3.38,3.38,0,0,0-1-2.58,7.54,7.54,0,0,0-2.59-1.55,13.89,13.89,0,0,0-3.25-.77,25.91,25.91,0,0,0-3.13-.2,42.49,42.49,0,0,0-7.15.67,31.91,31.91,0,0,0-7.8,2.42c-.29.13-.58.29-.88.44l8.86,12.42C147.81,61.1,148.68,61,149.51,60.81Z"/><path class="cls-1" d="M131.71,53.12a22.9,22.9,0,0,0-5.54,7.72,128.44,128.44,0,0,0,13,.8l-6.57-9.24C132.29,52.64,132,52.86,131.71,53.12Z"/><path class="cls-1" d="M123.5,47.8H104.7v9.58l.84.17q7.86,1.55,15.39,2.62a25.94,25.94,0,0,1,5.4-9,31.17,31.17,0,0,1,3.22-3l-.45-.65A49.83,49.83,0,0,1,123.5,47.8Z"/><path class="cls-1" d="M74.3,18.8c0-8.4-6.5-12.7-17.7-12.7H34.3V31.5H56.6C67.8,31.5,74.3,27.2,74.3,18.8Z"/><path class="cls-1" d="M213.3,122.72a13.73,13.73,0,0,0,1.88-3.4,10,10,0,0,0,.67-3.59,4.22,4.22,0,0,0-1-3.06,3.17,3.17,0,0,0-2.35-1,4.84,4.84,0,0,0-3.09,1,7.68,7.68,0,0,0-2.08,2.62,13.27,13.27,0,0,0-1.17,3.59,21.23,21.23,0,0,0-.37,3.93,14.57,14.57,0,0,0,.23,2.56q.24,1.34.57,2.55a16.38,16.38,0,0,0,6.72-5.17Z"/><path class="cls-1" d="M371.58,122.72a14.06,14.06,0,0,0,1.88-3.4,10,10,0,0,0,.67-3.59,4.26,4.26,0,0,0-1-3.06,3.17,3.17,0,0,0-2.35-1,4.84,4.84,0,0,0-3.09,1,7.68,7.68,0,0,0-2.08,2.62,13.64,13.64,0,0,0-1.18,3.59,22.12,22.12,0,0,0-.37,3.93,14.62,14.62,0,0,0,.24,2.56c.15.89.35,1.74.57,2.55a16.32,16.32,0,0,0,3.8-2.22A16,16,0,0,0,371.58,122.72Z"/><path class="cls-1" d="M396.33,104.31a7.57,7.57,0,0,0-.26-1.28c-.12-.35-.24-.53-.37-.53s-.31.16-.51.5-.41.74-.64,1.21a14,14,0,0,0-.6,1.51c-.18.54-.31,1-.4,1.34h2.95c0-.31,0-.72,0-1.24A14.86,14.86,0,0,0,396.33,104.31Z"/><path class="cls-1" d="M325.09,61c0-.72,0-1.86-.1-3.43a29.38,29.38,0,0,0-.61-4.77,14.28,14.28,0,0,0-1.54-4.23,3.23,3.23,0,0,0-2.92-1.81c-1,0-1.84.66-2.56,2a22.72,22.72,0,0,0-1.88,5.37,70.8,70.8,0,0,0-1.34,7.9c-.07.53-.12,1.07-.18,1.61H325C325.07,62.73,325.09,61.86,325.09,61Z"/><path class="cls-2" d="M439.83,118.18a2.36,2.36,0,0,0-1.88-.77,2.49,2.49,0,0,0-1.27.34,2.24,2.24,0,0,0-.94.94c-.77,1.47-1.72,3.2-2.86,5.17a43.94,43.94,0,0,1-3.86,5.61,25.69,25.69,0,0,1-4.7,4.53,9,9,0,0,1-5.45,1.88,7,7,0,0,1-2.08-.36,5.89,5.89,0,0,1-2.15-1.31,7.4,7.4,0,0,1-1.68-2.52,10.28,10.28,0,0,1-.67-4,31,31,0,0,1,.2-3.43c.14-1.16.29-2.34.47-3.53s.34-2.33.47-3.45a26,26,0,0,0,.2-3.23q0-3.83-2-5.51a8.93,8.93,0,0,0-5.85-1.68c-.67,0-1.37,0-2.11,0s-1.49,0-2.25,0a24.49,24.49,0,0,0-.24-3.16,19.15,19.15,0,0,0-.77-3.46,8.3,8.3,0,0,0-1.51-2.79,3.16,3.16,0,0,0-2.52-1.14,3.84,3.84,0,0,0-2.69,1.38,15.88,15.88,0,0,0-2.42,3.26,20.61,20.61,0,0,0-1.71,3.83,10.49,10.49,0,0,0-.64,3.09,4,4,0,0,0,.67,2.42,3.9,3.9,0,0,0,1.72,1.27,7.1,7.1,0,0,0,2.25.47c.8.05,1.59.07,2.35.07-.41,2-.74,3.43-1,4.37-.19.68-.37,1.21-.51,1.61a2.66,2.66,0,0,0-.43.67c-.94,2.11-2,4.21-3.16,6.32a33.26,33.26,0,0,1-4,5.71,19.81,19.81,0,0,1-4.91,4.13,12.57,12.57,0,0,1-11.42.4,10.46,10.46,0,0,1-3.63-3.12,28.3,28.3,0,0,0,4.91-3,22,22,0,0,0,3.93-3.83,17.15,17.15,0,0,0,2.59-4.5,14.25,14.25,0,0,0,.94-5.17,9.48,9.48,0,0,0-.74-3.83,9.12,9.12,0,0,0-1.95-2.85,8.78,8.78,0,0,0-2.72-1.82,7.92,7.92,0,0,0-3.06-.64,9.78,9.78,0,0,0-4.8,1.21,11.66,11.66,0,0,0-3.76,3.36,15.93,15.93,0,0,0-2.42,5,19.05,19.05,0,0,0-.44,1.88,2.8,2.8,0,0,0-.54.81q-.54,1.14-1.41,2.85c-.58,1.15-1.25,2.33-2,3.56s-1.62,2.47-2.56,3.7a31.35,31.35,0,0,1-2.95,3.36,15.22,15.22,0,0,1-3.16,2.42,6.55,6.55,0,0,1-3.22.9,3.31,3.31,0,0,1-2.29-.77,4.73,4.73,0,0,1-1.31-2,12.48,12.48,0,0,1-.6-2.83,30.54,30.54,0,0,1-.17-3.19,47.07,47.07,0,0,1,.3-5.41,37.65,37.65,0,0,0,.3-4.13,13.35,13.35,0,0,0-.43-3.49A8.9,8.9,0,0,0,338,111a6.11,6.11,0,0,0-2.15-1.92,6.34,6.34,0,0,0-3.06-.7,8.09,8.09,0,0,0-3.72,1,13,13,0,0,0-3.93,3.39c-1.3,1.61-2.56,3.34-3.77,5.17S319,121.7,318,123.56s-2.09,3.67-3,5.44-1.77,3.41-2.48,4.94l-.07-3.16V119q3.56-6.51,6.79-13.4a130.12,130.12,0,0,0,5.64-14.14,114.38,114.38,0,0,0,3.86-14.88c.42-2.18.72-4.38,1-6.6h-5c-.13,1.18-.27,2.36-.45,3.51a101.26,101.26,0,0,1-2.59,11.85q-1.65,5.85-4,11.73t-5.14,12.06v-7.59c0-2.92,0-6,.07-9.38s.12-6.77.23-10.31.28-7,.5-10.35c0-.51.08-1,.11-1.52.17-2.21.36-4.34.59-6.4.06-.54.11-1.08.18-1.61a70.8,70.8,0,0,1,1.34-7.9,22.72,22.72,0,0,1,1.88-5.37c.72-1.32,1.57-2,2.56-2a3.23,3.23,0,0,1,2.92,1.81,14.28,14.28,0,0,1,1.54,4.23,29.38,29.38,0,0,1,.61,4.77c.06,1.57.1,2.71.1,3.43,0,.88,0,1.75,0,2.62h5c0-.85.06-1.7.06-2.56a49.05,49.05,0,0,0-.54-7.42,23.32,23.32,0,0,0-1.75-6.18,11,11,0,0,0-3.16-4.2,7.39,7.39,0,0,0-4.76-1.54,6.51,6.51,0,0,0-5.48,3.09,26.26,26.26,0,0,0-3.59,8.76c-.24.94-.45,1.92-.66,3a101.59,101.59,0,0,0-1.46,10.76c-.08.89-.15,1.81-.22,2.74q-.54,7-.79,15.2-.3,9.9-.33,21.43c0,3.83,0,7.75,0,11.78a1.94,1.94,0,0,0-.21.34c-.09.27-.39.93-.91,2a33.93,33.93,0,0,1-2.15,3.7,50.28,50.28,0,0,1-3.32,4.5,28.88,28.88,0,0,1-4.5,4.4,24.5,24.5,0,0,1-5.65,3.33,17.08,17.08,0,0,1-6.71,1.31,9.85,9.85,0,0,1-4.87-1.14,10.19,10.19,0,0,1-3.4-3.06,13.85,13.85,0,0,1-2-4.4,19.91,19.91,0,0,1-.67-5.24,18.9,18.9,0,0,1,.77-5.48,16.64,16.64,0,0,1,2-4.5,10.92,10.92,0,0,1,3-3.06,6.38,6.38,0,0,1,3.59-1.14,4.91,4.91,0,0,1,3.33,1.14,3.38,3.38,0,0,1,1.31,2.56,4.7,4.7,0,0,1-.24,1.64,4.53,4.53,0,0,1-.54,1.08c-.2.29-.38.57-.53.84a1.8,1.8,0,0,0-.24.94,2.51,2.51,0,0,0,.71,1.81,2.44,2.44,0,0,0,3.32.17,5.15,5.15,0,0,0,1.31-1.54,9.63,9.63,0,0,0,.94-2.25,9.75,9.75,0,0,0,.37-2.76,7.38,7.38,0,0,0-.7-3.09,9.91,9.91,0,0,0-1.95-2.82,9.4,9.4,0,0,0-3.06-2,10.27,10.27,0,0,0-4-.77,11,11,0,0,0-5.58,1.51,15.47,15.47,0,0,0-4.6,4.13,20.69,20.69,0,0,0-3.12,6.15c-.1.31-.18.63-.26.94a2.48,2.48,0,0,0-1.29,1.38,43.09,43.09,0,0,1-2.18,4.46,49.17,49.17,0,0,1-3.49,5.51,27.14,27.14,0,0,1-4.3,4.7,7.17,7.17,0,0,1-4.67,2,6.68,6.68,0,0,1-3.76-1.15,13.24,13.24,0,0,1-3.26-3.12,23.63,23.63,0,0,1-2.72-4.64,39.05,39.05,0,0,1-2.08-5.74,23.2,23.2,0,0,0,2.41-4.06,67.16,67.16,0,0,0,2.72-6.42q1.38-3.69,2.69-8.06c.87-2.91,1.66-5.9,2.35-9s1.25-6.15,1.65-9.24a68.17,68.17,0,0,0,.6-8.73v-.74h34.06a2.68,2.68,0,0,0,1.82-.64,2.35,2.35,0,0,0,0-3.42,2.68,2.68,0,0,0-1.82-.64H253.2a33.49,33.49,0,0,0-.77-4.44,12.72,12.72,0,0,0-1.38-3.49,7.09,7.09,0,0,0-2.11-2.32A5.11,5.11,0,0,0,246,59a6.21,6.21,0,0,0-3.19.84,9.52,9.52,0,0,0-2.63,2.32,17,17,0,0,0-2.08,3.49,32.41,32.41,0,0,0-1.58,4.44H211.28a2.65,2.65,0,0,0-1.81.64,2.35,2.35,0,0,0,0,3.42,2.65,2.65,0,0,0,1.81.64H235.4c-.45,2.24-.8,4.53-1.07,6.89s-.47,4.63-.61,6.85-.22,4.32-.27,6.31-.06,3.73-.06,5.21a92,92,0,0,0,1.34,16.33c.19,1.07.41,2.1.64,3.11-.86,1.9-1.81,3.79-2.86,5.69a33.26,33.26,0,0,1-4,5.71,19.77,19.77,0,0,1-4.9,4.13,11.65,11.65,0,0,1-6,1.58,11.51,11.51,0,0,1-5.44-1.18,10.37,10.37,0,0,1-3.63-3.12,28.6,28.6,0,0,0,4.9-3,22,22,0,0,0,3.93-3.83,17.15,17.15,0,0,0,2.59-4.5,14.25,14.25,0,0,0,.94-5.17,9.48,9.48,0,0,0-.74-3.83,8.88,8.88,0,0,0-4.67-4.67,7.92,7.92,0,0,0-3.06-.64,9.8,9.8,0,0,0-4.8,1.21,11.66,11.66,0,0,0-3.76,3.36,16.15,16.15,0,0,0-2.42,5c-.17.59-.31,1.21-.43,1.84a2.57,2.57,0,0,0-.54.71c-.59,1.21-1.4,2.81-2.46,4.81a50,50,0,0,1-3.66,5.88,28.24,28.24,0,0,1-4.57,5,7.9,7.9,0,0,1-5.17,2.12c-2.64,0-4.9-1.63-6.78-4.87s-3.39-7.72-4.51-13.41q3.77-6.86,7.06-14.07a146.77,146.77,0,0,0,5.71-14.48A117.82,117.82,0,0,0,190,75.32c.35-1.79.62-3.56.84-5.32h-5.1c-.15,1.11-.33,2.23-.54,3.37a114.2,114.2,0,0,1-3.13,12.5q-2,6.28-4.5,12.43t-5.37,11.59q-.34-3.63-.54-7.6c-.14-2.64-.2-5.39-.2-8.26,0-3.76.12-7.55.37-11.35s.58-7.46,1-11c.07-.59.15-1.15.23-1.73.3-2.22.64-4.36,1-6.4.11-.56.22-1.13.33-1.68A67.38,67.38,0,0,1,176.48,54a22.91,22.91,0,0,1,2.46-5.31c.87-1.29,1.78-1.94,2.72-1.94q2.15,0,3.42,3.42t1.28,11.36c0,.68,0,1.38-.05,2.08h5c0-.72.06-1.44.06-2.15a54.33,54.33,0,0,0-.67-9.21,22.33,22.33,0,0,0-1.88-6.11,8,8,0,0,0-3-3.39,7.73,7.73,0,0,0-4-1,6.86,6.86,0,0,0-5,2.28,20.81,20.81,0,0,0-3.93,6.18c-.31.71-.61,1.45-.89,2.22a58.29,58.29,0,0,0-2.06,6.85q-1.23,5.1-2,10.77a1.1,1.1,0,0,0,0,.18Q167.08,76,166.71,82t-.37,11.68q0,3.9.24,8.94t.9,10.38a95.34,95.34,0,0,0,1.92,10.48,42.86,42.86,0,0,0,3.26,9.17,20.5,20.5,0,0,0,4.9,6.52,10.27,10.27,0,0,0,6.92,2.48,11.3,11.3,0,0,0,4.94-1.11,19.26,19.26,0,0,0,4.36-2.88,28.7,28.7,0,0,0,3.8-4,53,53,0,0,0,3.16-4.53c.21-.35.4-.68.61-1,.1.43.2.86.33,1.29a18.74,18.74,0,0,0,3.09,6.15,15.67,15.67,0,0,0,13,6.14,18.15,18.15,0,0,0,12.4-5.3,41.13,41.13,0,0,0,7.34-9.9c.37,1,.77,1.89,1.19,2.77a24.06,24.06,0,0,0,6.28,8.47,12.83,12.83,0,0,0,8.33,3,9.89,9.89,0,0,0,5-1.34,21.5,21.5,0,0,0,4.4-3.36,28.18,28.18,0,0,0,3.7-4.47c.7-1,1.32-2,1.91-3a23.36,23.36,0,0,0,.74,3.25,17.43,17.43,0,0,0,3.16,5.94,14.34,14.34,0,0,0,5,3.9A15.85,15.85,0,0,0,284,143a21.74,21.74,0,0,0,8-1.42,27.87,27.87,0,0,0,6.62-3.59,32.6,32.6,0,0,0,5.24-4.8,50.9,50.9,0,0,0,3.56-4.55v6.43a7,7,0,0,0,1.11,4,3.62,3.62,0,0,0,3.19,1.64,4.78,4.78,0,0,0,2.59-1,9.89,9.89,0,0,0,2.85-3.8c.5-1,1.12-2.23,1.88-3.73s1.62-3.08,2.56-4.73,1.91-3.33,2.92-5,2-3.19,3-4.53a22.71,22.71,0,0,1,2.89-3.26,3.93,3.93,0,0,1,2.45-1.24,1.61,1.61,0,0,1,1.31.74,4.89,4.89,0,0,1,.58,2.82c0,.53,0,1.2-.11,2s-.14,1.62-.23,2.52-.17,1.8-.24,2.72-.1,1.78-.1,2.59a33.69,33.69,0,0,0,.37,4.83,14.46,14.46,0,0,0,1.41,4.5,9,9,0,0,0,2.93,3.33,8.55,8.55,0,0,0,5,1.31,10.82,10.82,0,0,0,5.14-1.31,20.43,20.43,0,0,0,4.57-3.36,34.41,34.41,0,0,0,3.86-4.47c.88-1.22,1.65-2.39,2.36-3.53.1.42.2.83.33,1.25a18.74,18.74,0,0,0,3.09,6.15,16,16,0,0,0,5.3,4.43,16.16,16.16,0,0,0,7.66,1.71,18.17,18.17,0,0,0,12.4-5.3q5.4-5.12,10-15.15c.06-.1.13-.19.19-.31a5,5,0,0,0,.33-.8c.18-.5.39-1.13.64-1.92s.5-1.7.77-2.75A33.91,33.91,0,0,0,401,112c.85-.05,1.65-.07,2.39-.07h2.05a3.46,3.46,0,0,1,2.52.64,2.78,2.78,0,0,1,.57,1.91,32.67,32.67,0,0,1-.67,6.35,33.58,33.58,0,0,0-.68,6.68,16.3,16.3,0,0,0,.94,5.68,12.78,12.78,0,0,0,2.52,4.23,10.57,10.57,0,0,0,3.73,2.62,11.58,11.58,0,0,0,4.57.91,13,13,0,0,0,7.16-2.08A26.79,26.79,0,0,0,432,133.8a43.33,43.33,0,0,0,4.67-6.48q2.06-3.46,3.6-6.21a2.69,2.69,0,0,0,.27-1.21A2.57,2.57,0,0,0,439.83,118.18ZM206,125.34a14.57,14.57,0,0,1-.23-2.56,21.23,21.23,0,0,1,.37-3.93,13.27,13.27,0,0,1,1.17-3.59,7.68,7.68,0,0,1,2.08-2.62,4.84,4.84,0,0,1,3.09-1,3.17,3.17,0,0,1,2.35,1,4.22,4.22,0,0,1,1,3.06,10,10,0,0,1-.67,3.59,13.73,13.73,0,0,1-1.88,3.4,16.38,16.38,0,0,1-6.72,5.17Q206.25,126.68,206,125.34Zm38-60c.76-.87,1.35-1.31,1.75-1.31s1,.54,1.44,1.61a18.53,18.53,0,0,1,1,4.44h-6.45A14.61,14.61,0,0,1,244,65.31Zm-5.31,42.93c-.18-2.22-.26-5-.26-8.23,0-5.87.18-10.85.57-15a81.9,81.9,0,0,1,1.51-10.31h7.92A75.16,75.16,0,0,1,247.8,84q-.65,5-1.82,10.28t-2.82,10.38a88.46,88.46,0,0,1-3.66,9.57A51.9,51.9,0,0,1,238.69,108.24Zm125.6,17.1a14.62,14.62,0,0,1-.24-2.56,22.12,22.12,0,0,1,.37-3.93,13.64,13.64,0,0,1,1.18-3.59,7.68,7.68,0,0,1,2.08-2.62,4.84,4.84,0,0,1,3.09-1,3.17,3.17,0,0,1,2.35,1,4.26,4.26,0,0,1,1,3.06,10,10,0,0,1-.67,3.59,14.06,14.06,0,0,1-1.88,3.4,16,16,0,0,1-2.92,3,16.32,16.32,0,0,1-3.8,2.22C364.64,127.08,364.44,126.23,364.29,125.34Zm29.26-18.28c.09-.35.22-.8.4-1.34a14,14,0,0,1,.6-1.51c.23-.47.44-.87.64-1.21s.37-.5.51-.5.25.18.37.53a7.57,7.57,0,0,1,.26,1.28,14.86,14.86,0,0,1,.14,1.51c0,.52,0,.93,0,1.24Z"/><path class="cls-2" d="M34.3,50c.87,0,1.75-.07,2.65-.07a79.85,79.85,0,0,1,10.75.81q5.91.81,12.63,2.15t14,3l2.52.57A12.76,12.76,0,0,0,78,51.65L74.6,50.9q-7.48-1.68-14.31-3c-4.54-.9-8.78-1.62-12.73-2.19A77.3,77.3,0,0,0,37,44.85c-.93,0-1.82,0-2.72.08a60,60,0,0,0-7.4.73c-1.54.25-3,.54-4.49.91a38,38,0,0,0-11.73,5,25.35,25.35,0,0,0-7.82,8A20.23,20.23,0,0,0,0,70.32a18.09,18.09,0,0,0,1,6.11A22.64,22.64,0,0,0,3.53,81.5a24.25,24.25,0,0,0,3.32,4,25.49,25.49,0,0,0,3.43,2.82,2.4,2.4,0,0,0,3.12-.23,2.38,2.38,0,0,0,.78-1.85A3,3,0,0,0,13.91,85a2,2,0,0,0-.88-.94c-.09,0-.56-.39-1.41-1a17.41,17.41,0,0,1-2.75-2.76A19.71,19.71,0,0,1,6.21,76,13.31,13.31,0,0,1,5,70.32a15.61,15.61,0,0,1,2.45-8.64,20.59,20.59,0,0,1,6.72-6.41,34.06,34.06,0,0,1,10.11-4c.84-.2,1.7-.36,2.58-.52A55.54,55.54,0,0,1,34.3,50Z"/><path class="cls-2" d="M169,50.5a8.07,8.07,0,0,0-1.48-4.94,10.55,10.55,0,0,0-3-2.68c-.26-.17-.52-.33-.8-.48a18.47,18.47,0,0,0-4.94-1.68,27.12,27.12,0,0,0-4.94-.5,44.76,44.76,0,0,0-9,1l-.94.18a37.58,37.58,0,0,0-9.57,3.56,32.48,32.48,0,0,0-8,6.22,25.94,25.94,0,0,0-5.4,9q-7.53-1.06-15.39-2.62l-.84-.17c-2.48-.49-4.94-1-7.41-1.5s-4.94-1-7.4-1.59l-4.58-1a18.45,18.45,0,0,1-1.08,4.78l4.92,1.1c2.71.61,5.42,1.19,8.14,1.77l7,1.43.44.08q7.36,1.45,14.48,2.5-3,10.14-3.09,25-7.12.27-13.17.64c-4,.25-7.52.49-10.48.74s-5.27.46-7,.64l-2.59.27a2.69,2.69,0,0,0-1.61.84,2.3,2.3,0,0,0-.67,1.64,2.24,2.24,0,0,0,.87,1.92,3.35,3.35,0,0,0,2,.64c.4,0,1.47-.08,3.22-.24l6.89-.6c2.84-.25,6.17-.5,10-.74s8-.46,12.5-.64c0,.54,0,1.08,0,1.64s0,1.11,0,1.65q0,19.14-10.79,29t-31.87,9.8A60.9,60.9,0,0,1,60,135.75a49.58,49.58,0,0,1-10.35-3.49A33.12,33.12,0,0,1,42,127.35a38.23,38.23,0,0,1-5.24-5.54,29.06,29.06,0,0,1-3.32-5.41,40.84,40.84,0,0,1-1.82-4.5,2.52,2.52,0,0,0-.9-1.27,2.36,2.36,0,0,0-1.45-.48,2.47,2.47,0,0,0-1.88.78,2.51,2.51,0,0,0-.74,1.78,2.13,2.13,0,0,0,0,.37l.1.37a42.55,42.55,0,0,0,2.09,5.14,37.48,37.48,0,0,0,3.76,6.18,41.51,41.51,0,0,0,5.88,6.31A39.6,39.6,0,0,0,47,136.69a51,51,0,0,0,11.49,4,67,67,0,0,0,15,1.51,65.51,65.51,0,0,0,20.35-2.89,40.18,40.18,0,0,0,15-8.46A36,36,0,0,0,118,117.11a51.53,51.53,0,0,0,3.15-18.65c0-.62,0-1.23,0-1.81s0-1.18,0-1.81c1.74,0,3.51-.08,5.3-.1s3.63,0,5.51,0c2.47,0,5,0,7.49.14s5.08.13,7.63.13a2.52,2.52,0,0,0,1.75-.67,2.26,2.26,0,0,0,.73-1.75,2.75,2.75,0,0,0-.63-1.78,2.42,2.42,0,0,0-1.78-.84c-2.6-.09-5.18-.16-7.73-.23s-5.08-.1-7.59-.1c-1.88,0-3.71,0-5.48,0s-3.5.06-5.2.1a110.46,110.46,0,0,1,.84-13.3,61.17,61.17,0,0,1,2.31-10.82,132,132,0,0,0,15.73,1c.9,0,1.77,0,2.64-.06l-3.5-4.92a128.44,128.44,0,0,1-13-.8,22.9,22.9,0,0,1,5.54-7.72c.28-.26.58-.48.87-.72a28.47,28.47,0,0,1,5.5-3.61c.3-.15.59-.31.88-.44a31.91,31.91,0,0,1,7.8-2.42,42.49,42.49,0,0,1,7.15-.67,25.91,25.91,0,0,1,3.13.2,13.89,13.89,0,0,1,3.25.77,7.54,7.54,0,0,1,2.59,1.55,3.38,3.38,0,0,1,1,2.58,6.8,6.8,0,0,1-1.81,4.57,14.63,14.63,0,0,1-5,3.56,32.4,32.4,0,0,1-7.59,2.32c-.83.16-1.7.29-2.57.4l3.23,4.54c.54-.1,1.1-.19,1.63-.3a34.4,34.4,0,0,0,9.17-3.3,19.54,19.54,0,0,0,3.62-2.54,15.27,15.27,0,0,0,2.32-2.53A11,11,0,0,0,169,50.5Z"/><path class="cls-3" d="M71,33.9C77.4,31.3,81.7,26,81.7,18c0-11.4-9-18-24.6-18H26.9V45.66a60,60,0,0,1,7.4-.73V37.6H59c12.3,0,19,4,19,13.1,0,.33,0,.63,0,.95a12.76,12.76,0,0,1-1.09,4.76C74.47,61.58,68.36,63.9,59,63.9H34.3V50a55.54,55.54,0,0,0-7.4.79V70H59.1c13.84,0,22.22-4.27,25.13-11.94a18.45,18.45,0,0,0,1.08-4.78c0-.64.09-1.3.09-2C85.4,41.8,80,35.9,71,33.9ZM56.6,31.5H34.3V6.1H56.6c11.2,0,17.7,4.3,17.7,12.7S67.8,31.5,56.6,31.5Z"/><path class="cls-3" d="M143.93,41.36l.94-.18c4.67-4.07,7.23-9.9,7.23-17.18,0-15-10.8-24-28.6-24H97.29V55.88c2.47.51,4.93,1,7.41,1.5V47.8h18.8a49.83,49.83,0,0,0,5.6-.3l.45.65a31.1,31.1,0,0,1,4.81-3.23A37.58,37.58,0,0,1,143.93,41.36Zm-20.63.14H104.7V6.4h18.6c14,0,21.4,6.4,21.4,17.6C144.7,35,137.3,41.5,123.3,41.5Z"/><path class="cls-3" d="M97.29,60.93V70h7.41V62.44l-.44-.08Z"/><path class="cls-3" d="M146.94,61.21l-8.86-12.42a28.47,28.47,0,0,0-5.5,3.61l6.57,9.24,3.5,4.92L145.1,70h8.1l-3-4.25Z"/><path class="cls-3" d="M208.2,31.3H172V6.4h40.6V0h-48V42.88a10.55,10.55,0,0,1,3,2.68A8.07,8.07,0,0,1,169,50.5a11,11,0,0,1-2.12,6.58,15.27,15.27,0,0,1-2.32,2.53V70h3.32q.81-5.67,2-10.77A58.29,58.29,0,0,1,172,52.38V37.6h36.2Z"/><path class="cls-3" d="M186.31,63.6H174.07c-.38,2-.72,4.18-1,6.4h41V63.6H186.31Z"/><polygon class="cls-3" points="277.7 56.8 232.59 0 226.49 0 226.49 70 233.89 70 233.89 13.2 278.9 70 285 70 285 0 277.7 0 277.7 56.8"/><path class="cls-3" d="M331.29,0h-28.5V70h5.72c.07-.93.14-1.85.22-2.74a101.59,101.59,0,0,1,1.46-10.76V6.4h20.7C349.5,6.4,361.5,18.2,361.5,35s-12,28.6-30.61,28.6H314c-.23,2.06-.42,4.19-.59,6.4h17.92c22.41,0,37.51-14.4,37.51-35S353.7,0,331.29,0Z"/><path class="cls-3" d="M407.49,0h-7.3l-32,70h7.7l8.4-18.7h39L431.7,70h7.8ZM387,45.3l16.8-37.6,16.8,37.6Z"/></g></g></svg>